<svg width="78" height="31" viewBox="0 0 78 31" fill="none" xmlns="http://www.w3.org/2000/svg">
<g filter="url(#filter0_i_2330_6460)">
<path d="M13.5548 0.361276C14.8136 0.458108 17.3311 3.22206 18.4218 4.84597C18.4313 4.84121 18.4407 4.83654 18.4499 4.83194C18.6677 4.72392 18.8188 4.6588 18.8188 4.6588C17.62 2.85109 14.4418 -0.140364 13.4404 0.132707C12.6318 0.353202 11.1531 5.85397 10.9329 9.28712C10.8504 10.574 10.8504 11.8048 10.8504 11.8048C11.5733 10.4076 12.4731 9.28779 13.1278 8.57041C12.5249 7.11313 12.642 0.291059 13.5548 0.361276Z" fill="black"/>
<path d="M18.4218 4.84597C18.4218 4.84597 18.7685 5.39622 18.9334 5.28178C19.0983 5.16734 18.8188 4.6588 18.8188 4.6588C18.8188 4.6588 18.6677 4.72392 18.4499 4.83194L18.4218 4.84597Z" fill="black"/>
<path d="M37.5867 7.11319C37.5139 4.42179 36.6076 0.132407 35.8702 0.132399C34.0644 0.132379 31.0988 3.40622 30.3773 4.25218L30.1484 4.51364C30.2754 4.56573 30.398 4.61921 30.5156 4.67394C30.5949 4.56781 30.6765 4.46217 30.7572 4.36662C32.2083 2.65004 34.7015 0.394609 35.7559 0.475714C36.5569 0.537334 36.6714 7.45645 35.8703 8.7948C36.4856 9.50663 37.073 10.3169 37.5867 11.2329C37.5867 11.2329 37.6596 9.80459 37.5867 7.11319Z" fill="black"/>
<path d="M30.1484 4.51364C30.1484 4.51364 29.5496 5.39656 29.9195 5.39656C29.9886 5.39656 30.1506 5.17373 30.346 4.90508C30.4004 4.83031 30.4574 4.75199 30.5156 4.67394C30.398 4.61921 30.2754 4.56573 30.1484 4.51364Z" fill="black"/>
<path d="M24.9986 3.45111C22.2521 3.45111 20.6498 3.85773 18.8188 4.6588C18.8188 4.6588 19.0983 5.16734 18.9334 5.28178C18.7685 5.39622 18.4218 4.84597 18.4218 4.84597C17.3311 3.22206 14.8136 0.458108 13.5548 0.361276C12.642 0.291059 12.5249 7.11313 13.1278 8.57041C12.4731 9.28779 11.5733 10.4076 10.8504 11.8048C10.4554 12.5681 10.1133 13.4142 9.89277 14.3227C8.59875 19.6545 10.5437 24.2992 14.9281 27.5976C17.9947 29.9047 21.4512 30.1152 24.4264 30.1152C26.1431 30.1152 30.6722 30.0008 34.0717 27.4819C41.02 22.3334 38.8301 14.379 38.3878 13.1784C38.3341 13.0327 38.2843 12.8937 38.2362 12.7596C38.0384 12.2074 37.8705 11.739 37.5867 11.2329C37.073 10.3169 36.4856 9.50663 35.8703 8.7948C36.6714 7.45645 36.5569 0.537334 35.7559 0.475714C34.7015 0.394609 32.2083 2.65004 30.7572 4.36662C30.6765 4.46217 30.5949 4.56781 30.5156 4.67394C30.4574 4.75199 30.4004 4.83031 30.346 4.90508C30.1506 5.17373 29.9886 5.39656 29.9195 5.39656C29.5496 5.39656 30.1484 4.51364 30.1484 4.51364C28.6038 3.88001 26.4221 3.45111 24.9986 3.45111Z" fill="#A289CB"/>
</g>
<path d="M31.5216 5.28212C31.2685 5.06776 30.9225 4.86332 30.5156 4.67394M18.8188 4.6588C20.6498 3.85773 22.2521 3.45111 24.9986 3.45111C26.4221 3.45111 28.6038 3.88001 30.1484 4.51364M18.8188 4.6588C17.62 2.85109 14.4418 -0.140364 13.4404 0.132707C12.6318 0.353202 11.1531 5.85397 10.9329 9.28712C10.8504 10.574 10.8504 11.8048 10.8504 11.8048M18.8188 4.6588C18.8188 4.6588 19.0983 5.16734 18.9334 5.28178C18.7685 5.39622 18.4218 4.84597 18.4218 4.84597M18.4218 4.84597C18.4313 4.84121 18.4407 4.83654 18.4499 4.83194C18.6677 4.72392 18.8188 4.6588 18.8188 4.6588M37.5867 11.2329C37.5867 11.2329 37.6596 9.80459 37.5867 7.11319C37.5139 4.42179 36.6076 0.132407 35.8702 0.132399C34.0644 0.132379 31.0988 3.40622 30.3773 4.25218L30.1484 4.51364M14.0125 7.68533C14.0125 7.68533 13.6473 8.00118 13.1278 8.57041C12.4731 9.28779 11.5733 10.4076 10.8504 11.8048C10.4554 12.5681 10.1133 13.4142 9.89277 14.3227C8.59875 19.6545 10.5437 24.2992 14.9281 27.5976C17.9947 29.9047 21.4512 30.1152 24.4264 30.1152C26.1431 30.1152 30.6722 30.0008 34.0717 27.4819C41.02 22.3334 38.8301 14.379 38.3878 13.1784C38.3341 13.0327 38.2843 12.8937 38.2362 12.7596C38.0384 12.2074 37.8705 11.739 37.5867 11.2329C37.073 10.3169 36.4856 9.50663 35.8703 8.7948C35.6444 8.53348 35.4148 8.28542 35.1836 8.05025M17.3311 5.511C17.6709 5.2393 18.1316 4.98981 18.4499 4.83194M30.1484 4.51364C30.1484 4.51364 29.5496 5.39656 29.9195 5.39656C29.9886 5.39656 30.1506 5.17373 30.346 4.90508C30.4004 4.83031 30.4574 4.75199 30.5156 4.67394M30.1484 4.51364C30.2754 4.56573 30.398 4.61921 30.5156 4.67394M35.8703 8.7948C36.6714 7.45645 36.5569 0.537334 35.7559 0.475714C34.7015 0.394609 32.2083 2.65004 30.7572 4.36662C30.6765 4.46217 30.5949 4.56781 30.5156 4.67394M18.4218 4.84597C17.3311 3.22206 14.8136 0.458108 13.5548 0.361276C12.642 0.291059 12.5249 7.11313 13.1278 8.57041M18.4218 4.84597L18.4499 4.83194" stroke="#1C1135" stroke-width="0.228877" stroke-linecap="round"/>
<path d="M33.9652 6.05239C35.0843 7.02838 35.6049 7.21771 35.806 7.46986C36.5113 6.17229 36.3764 0.593252 35.6663 0.536169C34.7316 0.461037 32.3271 2.65381 31.0471 4.31942C30.9759 4.41214 31.117 4.21647 31.0471 4.31942C31.0471 4.31942 32.8461 5.07639 33.9652 6.05239Z" fill="url(#paint0_linear_2330_6460)"/>
<path d="M15.1102 6.02976C14.0583 7.02206 13.2352 7.41279 13.0462 7.66913C12.7028 6.63918 12.8173 0.484267 13.5132 0.423547C14.305 0.354464 16.6504 2.57499 17.8527 4.26756C17.9196 4.36178 17.7871 4.16295 17.8527 4.26756C17.8527 4.26756 16.162 5.03745 15.1102 6.02976Z" fill="url(#paint1_linear_2330_6460)"/>
<path d="M1.98428 18.1034C1.18322 18.75 0.839911 19.0189 0.153281 19.8199C0.33946 19.913 0.804274 19.6902 1.29766 19.7055C1.84108 19.7224 2.19666 19.7771 2.67092 19.9344C3.47128 20.1998 3.84538 20.5496 4.50193 21.0788C5.26509 21.6938 5.98966 22.7953 6.21852 22.9098C6.17383 21.7925 6.15249 21.9459 6.10408 20.8288C6.06529 20.3499 6.03832 18.8602 6.10408 18.1034C6.17086 17.3348 6.44738 16.5012 6.44738 16.2723C6.44738 16.1032 6.2758 15.5857 5.98964 15.5857C5.76075 15.5857 4.7309 16.0919 4.04417 16.5012C3.13816 17.0412 2.82612 17.4239 1.98428 18.1034Z" fill="#A974D2"/>
<path d="M8.39283 17.6456C7.47732 17.0734 7.36288 16.5012 7.13403 16.5012C6.90517 16.5012 6.71017 17.4604 6.52305 18.1034C6.22214 19.1373 6.17973 19.8921 6.10408 20.8288C6.15249 21.9459 6.17383 21.7925 6.21852 22.9098C6.44738 23.0242 7.21639 22.284 7.93508 22.1087C8.80344 21.8969 9.33909 21.9817 10.2238 22.1087C11.1476 22.2413 12.5126 22.9098 12.5126 22.9098C12.5126 22.9098 11.4179 21.6601 10.9105 20.7354C10.4473 19.8915 9.99498 18.4467 9.99498 18.4467C9.99498 18.4467 8.97007 18.0064 8.39283 17.6456Z" fill="#A974D2"/>
<path d="M9.42279 16.3868C9.42279 16.3868 8.46355 15.9154 7.93509 15.3569C7.42388 14.8166 6.90516 13.7547 6.56183 13.6403C6.21922 13.5261 5.4144 13.8972 4.73498 14.2105L4.73082 14.2125C3.48855 14.7853 2.5565 15.5857 1.75543 16.5012C0.740647 17.661 -0.0756116 19.7055 0.153281 19.8199C0.839911 19.0189 1.18322 18.75 1.98428 18.1034C2.82612 17.4239 3.13816 17.0412 4.04417 16.5012C4.7309 16.0919 5.76075 15.5857 5.98964 15.5857C6.2758 15.5857 6.44738 16.1032 6.44738 16.2723C6.44738 16.5012 6.17086 17.3348 6.10408 18.1034C6.03832 18.8602 6.06529 20.3499 6.10408 20.8288C6.17973 19.8921 6.22214 19.1373 6.52305 18.1034C6.71017 17.4604 6.90517 16.5012 7.13403 16.5012C7.36288 16.5012 7.47732 17.0734 8.39283 17.6456C8.97007 18.0064 9.99498 18.4467 9.99498 18.4467L9.42279 16.3868Z" fill="#43277B"/>
<path d="M4.73082 14.2125C3.48855 14.7853 2.5565 15.5857 1.75543 16.5012C0.740647 17.661 -0.0756116 19.7055 0.153281 19.8199M4.73082 14.2125L4.73498 14.2105M9.99498 18.4467L9.42279 16.3868C9.42279 16.3868 8.46355 15.9154 7.93509 15.3569C7.42388 14.8166 6.90516 13.7547 6.56184 13.6403C6.21922 13.5261 5.4144 13.8972 4.73498 14.2105C4.73359 14.2112 4.73221 14.2118 4.73082 14.2125M0.153281 19.8199C0.839911 19.0189 1.18322 18.75 1.98428 18.1034C2.82612 17.4239 3.13816 17.0412 4.04417 16.5012C4.7309 16.0919 5.76075 15.5857 5.98964 15.5857C6.27581 15.5857 6.44738 16.1032 6.44738 16.2723C6.44738 16.5012 6.17086 17.3348 6.10408 18.1034C6.03832 18.8602 6.06529 20.3499 6.10408 20.8288M0.153281 19.8199C0.33946 19.913 0.804274 19.6902 1.29766 19.7055C1.84108 19.7224 2.19666 19.7771 2.67092 19.9344C3.47128 20.1998 3.84538 20.5496 4.50193 21.0788C5.26509 21.6938 5.98966 22.7953 6.21852 22.9098M6.10408 20.8288C6.15249 21.9459 6.17383 21.7925 6.21852 22.9098M6.10408 20.8288C6.17973 19.8921 6.22214 19.1373 6.52305 18.1034C6.71017 17.4604 6.90517 16.5012 7.13403 16.5012C7.36288 16.5012 7.47732 17.0734 8.39283 17.6456C8.97007 18.0064 9.99498 18.4467 9.99498 18.4467M9.99498 18.4467C9.99498 18.4467 10.4473 19.8915 10.9105 20.7354C11.4179 21.6601 12.5126 22.9098 12.5126 22.9098C12.5126 22.9098 11.1476 22.2413 10.2238 22.1087C9.33909 21.9817 8.80344 21.8969 7.93508 22.1087C7.21639 22.284 6.44738 23.0242 6.21852 22.9098" stroke="#0D0C12" stroke-width="0.228877" stroke-linecap="round"/>
<path d="M40.0921 15.3567C39.6635 15.8255 38.8333 16.3867 38.8333 16.3867L38.49 18.1032C38.49 18.1032 39.0389 17.8091 39.4055 17.531C39.758 17.2636 40.2066 16.7298 40.321 16.7299C40.6643 16.7302 41.0076 19.1331 41.0076 20.1631C41.0076 18.6436 41.0076 16.2723 41.0076 16.2723C41.0076 15.9861 41.1939 15.6096 41.4654 15.7001C42.152 15.9289 42.7792 16.3048 43.6397 16.9589C44.2692 17.4373 44.6847 17.7711 45.2419 18.3321C45.7545 18.8484 46.1574 19.3621 46.6151 19.8198C47.0729 19.7054 46.0514 17.6466 45.2419 16.5011C44.8374 15.9289 43.8686 14.9771 43.182 14.5557C42.4107 14.0823 41.5798 13.6401 41.1221 13.7546C40.7582 13.8457 40.594 14.8078 40.0921 15.3567Z" fill="#442679"/>
<path d="M43.6397 16.9589C42.7792 16.3048 42.152 15.9289 41.4654 15.7001C41.1939 15.6096 41.0076 15.9861 41.0076 16.2723C41.0076 16.2723 41.0076 18.6436 41.0076 20.1631C41.0076 21.3074 40.8932 22.1086 40.7788 23.024C41.351 22.1085 42.0785 21.3075 42.7242 20.8497C43.0675 20.6063 43.7103 20.143 44.4408 19.9342C45.2419 19.7052 45.9285 19.7054 46.6151 19.8198C46.1574 19.3621 45.7545 18.8484 45.2419 18.3321C44.6847 17.7711 44.2692 17.4373 43.6397 16.9589Z" fill="#AA74D2"/>
<path d="M41.0076 20.1631C41.0076 19.1331 40.6643 16.7302 40.321 16.7299C40.2066 16.7298 39.758 17.2636 39.4055 17.531C39.0389 17.8091 38.49 18.1032 38.49 18.1032L38.1467 19.1331C37.9188 19.8168 37.7095 20.1134 37.3456 20.7353C36.9508 21.4101 36.3157 22.4519 36.3157 22.4519C36.3157 22.4519 37.8526 21.9575 38.8333 22.1086C39.6454 22.2337 40.2066 22.5663 40.7788 23.024C40.8932 22.1086 41.0076 21.3074 41.0076 20.1631Z" fill="#AA74D2"/>
<path d="M38.1467 19.1331C37.9188 19.8168 37.7095 20.1134 37.3456 20.7353C36.9508 21.4101 36.3157 22.4519 36.3157 22.4519C36.3157 22.4519 37.8526 21.9575 38.8333 22.1086C39.6454 22.2337 40.2066 22.5663 40.7788 23.024C41.351 22.1085 42.0785 21.3075 42.7242 20.8497C43.0675 20.6063 43.7103 20.143 44.4408 19.9342C45.2419 19.7052 45.9285 19.7054 46.6151 19.8198C47.0729 19.7054 46.0514 17.6466 45.2419 16.5011C44.8374 15.9289 43.8686 14.9771 43.182 14.5557C42.4107 14.0823 41.5798 13.6401 41.1221 13.7546C40.7582 13.8457 40.594 14.8078 40.0921 15.3567C39.6635 15.8255 38.8333 16.3867 38.8333 16.3867L38.49 18.1032M46.6151 19.8198C46.1574 19.3621 45.7545 18.8484 45.2419 18.3321C44.6847 17.7711 44.2692 17.4373 43.6397 16.9589C42.7792 16.3048 42.152 15.9289 41.4654 15.7001C41.1939 15.6096 41.0076 15.9861 41.0076 16.2723M41.0076 16.2723C41.0076 17.4166 41.0076 19.0188 41.0076 20.1631M41.0076 16.2723C41.0076 16.2723 41.0076 18.6436 41.0076 20.1631M41.0076 20.1631C41.0076 19.1331 40.6643 16.7302 40.321 16.7299C40.2066 16.7298 39.758 17.2636 39.4055 17.531C39.0389 17.8091 38.49 18.1032 38.49 18.1032M41.0076 20.1631C41.0076 21.3074 40.8932 22.1086 40.7788 23.024M38.49 18.1032C38.49 18.1032 38.2908 18.7008 38.1467 19.1331M38.49 18.1032L38.1467 19.1331" stroke="#0D0C12" stroke-width="0.228877" stroke-linecap="round"/>
<path d="M1.98428 18.1034C1.18322 18.75 0.839911 19.0189 0.153281 19.8199C0.33946 19.913 0.804274 19.6902 1.29766 19.7055C1.84108 19.7224 2.19666 19.7771 2.67092 19.9344C3.47128 20.1998 3.84538 20.5496 4.50193 21.0788C5.26509 21.6938 5.98966 22.7953 6.21852 22.9098C6.17383 21.7925 6.15249 21.9459 6.10408 20.8288C6.06529 20.3499 6.03832 18.8602 6.10408 18.1034C6.17086 17.3348 6.44738 16.5012 6.44738 16.2723C6.44738 16.1032 6.2758 15.5857 5.98964 15.5857C5.76075 15.5857 4.7309 16.0919 4.04417 16.5012C3.13816 17.0412 2.82612 17.4239 1.98428 18.1034Z" fill="#A974D2"/>
<path d="M8.39283 17.6456C7.47732 17.0734 7.36288 16.5012 7.13403 16.5012C6.90517 16.5012 6.71017 17.4604 6.52305 18.1034C6.22214 19.1373 6.17973 19.8921 6.10408 20.8288C6.15249 21.9459 6.17383 21.7925 6.21852 22.9098C6.44738 23.0242 7.21639 22.284 7.93508 22.1087C8.80344 21.8969 9.33909 21.9817 10.2238 22.1087C11.1476 22.2413 12.5126 22.9098 12.5126 22.9098C12.5126 22.9098 11.4179 21.6601 10.9105 20.7354C10.4473 19.8915 9.99498 18.4467 9.99498 18.4467C9.99498 18.4467 8.97007 18.0064 8.39283 17.6456Z" fill="#A974D2"/>
<path d="M9.42279 16.3868C9.42279 16.3868 8.46355 15.9154 7.93509 15.3569C7.42388 14.8166 6.90516 13.7547 6.56183 13.6403C6.21922 13.5261 5.4144 13.8972 4.73498 14.2105L4.73082 14.2125C3.48855 14.7853 2.5565 15.5857 1.75543 16.5012C0.740647 17.661 -0.0756116 19.7055 0.153281 19.8199C0.839911 19.0189 1.18322 18.75 1.98428 18.1034C2.82612 17.4239 3.13816 17.0412 4.04417 16.5012C4.7309 16.0919 5.76075 15.5857 5.98964 15.5857C6.2758 15.5857 6.44738 16.1032 6.44738 16.2723C6.44738 16.5012 6.17086 17.3348 6.10408 18.1034C6.03832 18.8602 6.06529 20.3499 6.10408 20.8288C6.17973 19.8921 6.22214 19.1373 6.52305 18.1034C6.71017 17.4604 6.90517 16.5012 7.13403 16.5012C7.36288 16.5012 7.47732 17.0734 8.39283 17.6456C8.97007 18.0064 9.99498 18.4467 9.99498 18.4467L9.42279 16.3868Z" fill="#43277B"/>
<path d="M4.73082 14.2125C3.48855 14.7853 2.5565 15.5857 1.75543 16.5012C0.740647 17.661 -0.0756116 19.7055 0.153281 19.8199M4.73082 14.2125L4.73498 14.2105M9.99498 18.4467L9.42279 16.3868C9.42279 16.3868 8.46355 15.9154 7.93509 15.3569C7.42388 14.8166 6.90516 13.7547 6.56184 13.6403C6.21922 13.5261 5.4144 13.8972 4.73498 14.2105C4.73359 14.2112 4.73221 14.2118 4.73082 14.2125M0.153281 19.8199C0.839911 19.0189 1.18322 18.75 1.98428 18.1034C2.82612 17.4239 3.13816 17.0412 4.04417 16.5012C4.7309 16.0919 5.76075 15.5857 5.98964 15.5857C6.27581 15.5857 6.44738 16.1032 6.44738 16.2723C6.44738 16.5012 6.17086 17.3348 6.10408 18.1034C6.03832 18.8602 6.06529 20.3499 6.10408 20.8288M0.153281 19.8199C0.33946 19.913 0.804274 19.6902 1.29766 19.7055C1.84108 19.7224 2.19666 19.7771 2.67092 19.9344C3.47128 20.1998 3.84538 20.5496 4.50193 21.0788C5.26509 21.6938 5.98966 22.7953 6.21852 22.9098M6.10408 20.8288C6.15249 21.9459 6.17383 21.7925 6.21852 22.9098M6.10408 20.8288C6.17973 19.8921 6.22214 19.1373 6.52305 18.1034C6.71017 17.4604 6.90517 16.5012 7.13403 16.5012C7.36288 16.5012 7.47732 17.0734 8.39283 17.6456C8.97007 18.0064 9.99498 18.4467 9.99498 18.4467M9.99498 18.4467C9.99498 18.4467 10.4473 19.8915 10.9105 20.7354C11.4179 21.6601 12.5126 22.9098 12.5126 22.9098C12.5126 22.9098 11.1476 22.2413 10.2238 22.1087C9.33909 21.9817 8.80344 21.8969 7.93508 22.1087C7.21639 22.284 6.44738 23.0242 6.21852 22.9098" stroke="#0D0C12" stroke-width="0.228877" stroke-linecap="round"/>
<path d="M40.0921 15.3567C39.6635 15.8255 38.8333 16.3867 38.8333 16.3867L38.49 18.1032C38.49 18.1032 39.0389 17.8091 39.4055 17.531C39.758 17.2636 40.2066 16.7298 40.321 16.7299C40.6643 16.7302 41.0076 19.1331 41.0076 20.1631C41.0076 18.6436 41.0076 16.2723 41.0076 16.2723C41.0076 15.9861 41.1939 15.6096 41.4654 15.7001C42.152 15.9289 42.7792 16.3048 43.6397 16.9589C44.2692 17.4373 44.6847 17.7711 45.2419 18.3321C45.7545 18.8484 46.1574 19.3621 46.6151 19.8198C47.0729 19.7054 46.0514 17.6466 45.2419 16.5011C44.8374 15.9289 43.8686 14.9771 43.182 14.5557C42.4107 14.0823 41.5798 13.6401 41.1221 13.7546C40.7582 13.8457 40.594 14.8078 40.0921 15.3567Z" fill="#442679"/>
<path d="M43.6397 16.9589C42.7792 16.3048 42.152 15.9289 41.4654 15.7001C41.1939 15.6096 41.0076 15.9861 41.0076 16.2723C41.0076 16.2723 41.0076 18.6436 41.0076 20.1631C41.0076 21.3074 40.8932 22.1086 40.7788 23.024C41.351 22.1085 42.0785 21.3075 42.7242 20.8497C43.0675 20.6063 43.7103 20.143 44.4408 19.9342C45.2419 19.7052 45.9285 19.7054 46.6151 19.8198C46.1574 19.3621 45.7545 18.8484 45.2419 18.3321C44.6847 17.7711 44.2692 17.4373 43.6397 16.9589Z" fill="#AA74D2"/>
<path d="M41.0076 20.1631C41.0076 19.1331 40.6643 16.7302 40.321 16.7299C40.2066 16.7298 39.758 17.2636 39.4055 17.531C39.0389 17.8091 38.49 18.1032 38.49 18.1032L38.1467 19.1331C37.9188 19.8168 37.7095 20.1134 37.3456 20.7353C36.9508 21.4101 36.3157 22.4519 36.3157 22.4519C36.3157 22.4519 37.8526 21.9575 38.8333 22.1086C39.6454 22.2337 40.2066 22.5663 40.7788 23.024C40.8932 22.1086 41.0076 21.3074 41.0076 20.1631Z" fill="#AA74D2"/>
<path d="M38.1467 19.1331C37.9188 19.8168 37.7095 20.1134 37.3456 20.7353C36.9508 21.4101 36.3157 22.4519 36.3157 22.4519C36.3157 22.4519 37.8526 21.9575 38.8333 22.1086C39.6454 22.2337 40.2066 22.5663 40.7788 23.024C41.351 22.1085 42.0785 21.3075 42.7242 20.8497C43.0675 20.6063 43.7103 20.143 44.4408 19.9342C45.2419 19.7052 45.9285 19.7054 46.6151 19.8198C47.0729 19.7054 46.0514 17.6466 45.2419 16.5011C44.8374 15.9289 43.8686 14.9771 43.182 14.5557C42.4107 14.0823 41.5798 13.6401 41.1221 13.7546C40.7582 13.8457 40.594 14.8078 40.0921 15.3567C39.6635 15.8255 38.8333 16.3867 38.8333 16.3867L38.49 18.1032M46.6151 19.8198C46.1574 19.3621 45.7545 18.8484 45.2419 18.3321C44.6847 17.7711 44.2692 17.4373 43.6397 16.9589C42.7792 16.3048 42.152 15.9289 41.4654 15.7001C41.1939 15.6096 41.0076 15.9861 41.0076 16.2723M41.0076 16.2723C41.0076 17.4166 41.0076 19.0188 41.0076 20.1631M41.0076 16.2723C41.0076 16.2723 41.0076 18.6436 41.0076 20.1631M41.0076 20.1631C41.0076 19.1331 40.6643 16.7302 40.321 16.7299C40.2066 16.7298 39.758 17.2636 39.4055 17.531C39.0389 17.8091 38.49 18.1032 38.49 18.1032M41.0076 20.1631C41.0076 21.3074 40.8932 22.1086 40.7788 23.024M38.49 18.1032C38.49 18.1032 38.2908 18.7008 38.1467 19.1331M38.49 18.1032L38.1467 19.1331" stroke="#0D0C12" stroke-width="0.228877" stroke-linecap="round"/>
<g filter="url(#filter1_i_2330_6460)">
<path d="M13.5548 0.361276C14.8136 0.458108 17.3311 3.22206 18.4218 4.84597C18.4313 4.84121 18.4407 4.83654 18.4499 4.83194C18.6677 4.72392 18.8188 4.6588 18.8188 4.6588C17.62 2.85109 14.4418 -0.140364 13.4404 0.132707C12.6318 0.353202 11.1531 5.85397 10.9329 9.28712C10.8504 10.574 10.8504 11.8048 10.8504 11.8048C11.5733 10.4076 12.4731 9.28779 13.1278 8.57041C12.5249 7.11313 12.642 0.291059 13.5548 0.361276Z" fill="black"/>
<path d="M18.4218 4.84597C18.4218 4.84597 18.7685 5.39622 18.9334 5.28178C19.0983 5.16734 18.8188 4.6588 18.8188 4.6588C18.8188 4.6588 18.6677 4.72392 18.4499 4.83194L18.4218 4.84597Z" fill="black"/>
<path d="M37.5867 7.11319C37.5139 4.42179 36.6076 0.132407 35.8702 0.132399C34.0644 0.132379 31.0988 3.40622 30.3773 4.25218L30.1484 4.51364C30.2754 4.56573 30.398 4.61921 30.5156 4.67394C30.5949 4.56781 30.6765 4.46217 30.7572 4.36662C32.2083 2.65004 34.7015 0.394609 35.7559 0.475714C36.5569 0.537334 36.6714 7.45645 35.8703 8.7948C36.4856 9.50663 37.073 10.3169 37.5867 11.2329C37.5867 11.2329 37.6596 9.80459 37.5867 7.11319Z" fill="black"/>
<path d="M30.1484 4.51364C30.1484 4.51364 29.5496 5.39656 29.9195 5.39656C29.9886 5.39656 30.1506 5.17373 30.346 4.90508C30.4004 4.83031 30.4574 4.75199 30.5156 4.67394C30.398 4.61921 30.2754 4.56573 30.1484 4.51364Z" fill="black"/>
<path d="M24.9986 3.45111C22.2521 3.45111 20.6498 3.85773 18.8188 4.6588C18.8188 4.6588 19.0983 5.16734 18.9334 5.28178C18.7685 5.39622 18.4218 4.84597 18.4218 4.84597C17.3311 3.22206 14.8136 0.458108 13.5548 0.361276C12.642 0.291059 12.5249 7.11313 13.1278 8.57041C12.4731 9.28779 11.5733 10.4076 10.8504 11.8048C10.4554 12.5681 10.1133 13.4142 9.89277 14.3227C8.59875 19.6545 10.5437 24.2992 14.9281 27.5976C17.9947 29.9047 21.4512 30.1152 24.4264 30.1152C26.1431 30.1152 30.6722 30.0008 34.0717 27.4819C41.02 22.3334 38.8301 14.379 38.3878 13.1784C38.3341 13.0327 38.2843 12.8937 38.2362 12.7596C38.0384 12.2074 37.8705 11.739 37.5867 11.2329C37.073 10.3169 36.4856 9.50663 35.8703 8.7948C36.6714 7.45645 36.5569 0.537334 35.7559 0.475714C34.7015 0.394609 32.2083 2.65004 30.7572 4.36662C30.6765 4.46217 30.5949 4.56781 30.5156 4.67394C30.4574 4.75199 30.4004 4.83031 30.346 4.90508C30.1506 5.17373 29.9886 5.39656 29.9195 5.39656C29.5496 5.39656 30.1484 4.51364 30.1484 4.51364C28.6038 3.88001 26.4221 3.45111 24.9986 3.45111Z" fill="#A289CB"/>
</g>
<path d="M31.5216 5.28212C31.2685 5.06776 30.9225 4.86332 30.5156 4.67394M18.8188 4.6588C20.6498 3.85773 22.2521 3.45111 24.9986 3.45111C26.4221 3.45111 28.6038 3.88001 30.1484 4.51364M18.8188 4.6588C17.62 2.85109 14.4418 -0.140364 13.4404 0.132707C12.6318 0.353202 11.1531 5.85397 10.9329 9.28712C10.8504 10.574 10.8504 11.8048 10.8504 11.8048M18.8188 4.6588C18.8188 4.6588 19.0983 5.16734 18.9334 5.28178C18.7685 5.39622 18.4218 4.84597 18.4218 4.84597M18.4218 4.84597C18.4313 4.84121 18.4407 4.83654 18.4499 4.83194C18.6677 4.72392 18.8188 4.6588 18.8188 4.6588M37.5867 11.2329C37.5867 11.2329 37.6596 9.80459 37.5867 7.11319C37.5139 4.42179 36.6076 0.132407 35.8702 0.132399C34.0644 0.132379 31.0988 3.40622 30.3773 4.25218L30.1484 4.51364M14.0125 7.68533C14.0125 7.68533 13.6473 8.00118 13.1278 8.57041C12.4731 9.28779 11.5733 10.4076 10.8504 11.8048C10.4554 12.5681 10.1133 13.4142 9.89277 14.3227C8.59875 19.6545 10.5437 24.2992 14.9281 27.5976C17.9947 29.9047 21.4512 30.1152 24.4264 30.1152C26.1431 30.1152 30.6722 30.0008 34.0717 27.4819C41.02 22.3334 38.8301 14.379 38.3878 13.1784C38.3341 13.0327 38.2843 12.8937 38.2362 12.7596C38.0384 12.2074 37.8705 11.739 37.5867 11.2329C37.073 10.3169 36.4856 9.50663 35.8703 8.7948C35.6444 8.53348 35.4148 8.28542 35.1836 8.05025M17.3311 5.511C17.6709 5.2393 18.1316 4.98981 18.4499 4.83194M30.1484 4.51364C30.1484 4.51364 29.5496 5.39656 29.9195 5.39656C29.9886 5.39656 30.1506 5.17373 30.346 4.90508C30.4004 4.83031 30.4574 4.75199 30.5156 4.67394M30.1484 4.51364C30.2754 4.56573 30.398 4.61921 30.5156 4.67394M35.8703 8.7948C36.6714 7.45645 36.5569 0.537334 35.7559 0.475714C34.7015 0.394609 32.2083 2.65004 30.7572 4.36662C30.6765 4.46217 30.5949 4.56781 30.5156 4.67394M18.4218 4.84597C17.3311 3.22206 14.8136 0.458108 13.5548 0.361276C12.642 0.291059 12.5249 7.11313 13.1278 8.57041M18.4218 4.84597L18.4499 4.83194" stroke="#1C1135" stroke-width="0.228877" stroke-linecap="round"/>
<path d="M33.9652 6.05239C35.0843 7.02838 35.6049 7.21771 35.806 7.46986C36.5113 6.17229 36.3764 0.593252 35.6663 0.536169C34.7316 0.461037 32.3271 2.65381 31.0471 4.31942C30.9759 4.41214 31.117 4.21647 31.0471 4.31942C31.0471 4.31942 32.8461 5.07639 33.9652 6.05239Z" fill="url(#paint2_linear_2330_6460)"/>
<path d="M15.1102 6.02976C14.0583 7.02206 13.2352 7.41279 13.0462 7.66913C12.7028 6.63918 12.8173 0.484267 13.5132 0.423547C14.305 0.354464 16.6504 2.57499 17.8527 4.26756C17.9196 4.36178 17.7871 4.16295 17.8527 4.26756C17.8527 4.26756 16.162 5.03745 15.1102 6.02976Z" fill="url(#paint3_linear_2330_6460)"/>
<path d="M14.9808 9.95871C14.4799 10.0236 14.5423 12.4818 14.2292 12.8458C13.9162 13.2098 11.8054 13.7245 11.7874 14.2266C11.7693 14.7287 13.7032 15.4818 13.9162 15.8584C14.1291 16.235 13.96 18.2171 14.5449 18.3689C15.1298 18.5207 16.3257 16.3422 16.7175 16.2243C17.1094 16.1064 19.3916 17.2256 19.7391 16.8092C20.0866 16.3928 18.7833 14.8542 18.7373 14.4776C18.6912 14.101 19.9621 12.4692 19.7391 12.0927C19.516 11.7161 17.485 12.0757 17.1094 11.9044C16.7337 11.7331 15.4817 9.89379 14.9808 9.95871Z" fill="#C3AEE6"/>
<g filter="url(#filter2_f_2330_6460)">
<circle cx="33.9883" cy="21.8576" r="1.37326" fill="#CD91D7"/>
</g>
<g filter="url(#filter3_f_2330_6460)">
<circle cx="14.9914" cy="21.8576" r="1.37326" fill="#CD91D7"/>
</g>
<path d="M15.1145 20.1163C15.1145 20.1163 15.6305 21.543 17.5657 21.543C19.5009 21.543 19.8879 20.1163 19.8879 20.1163" stroke="#0D0C12" stroke-width="0.77818" stroke-linecap="round"/>
<path d="M33.3049 20.1163C33.3049 20.1163 32.7889 21.543 30.8537 21.543C28.9186 21.543 28.5315 20.1163 28.5315 20.1163" stroke="#0D0C12" stroke-width="0.77818" stroke-linecap="round"/>
<path d="M22.5972 23.0989C23.5002 22.9692 24.0163 21.9316 24.1453 21.9316C24.2743 21.9316 24.7903 22.9692 25.6934 23.0989" stroke="black" stroke-width="0.518787" stroke-linecap="round"/>
<defs>
<filter id="filter0_i_2330_6460" x="9.38391" y="-1.60214" width="29.7939" height="31.8326" filterUnits="userSpaceOnUse" color-interpolation-filters="sRGB">
<feFlood flood-opacity="0" result="BackgroundImageFix"/>
<feBlend mode="normal" in="SourceGraphic" in2="BackgroundImageFix" result="shape"/>
<feColorMatrix in="SourceAlpha" type="matrix" values="0 0 0 0 0 0 0 0 0 0 0 0 0 0 0 0 0 0 127 0" result="hardAlpha"/>
<feOffset dy="-1.60214"/>
<feGaussianBlur stdDeviation="1.14438"/>
<feComposite in2="hardAlpha" operator="arithmetic" k2="-1" k3="1"/>
<feColorMatrix type="matrix" values="0 0 0 0 0.380392 0 0 0 0 0.25098 0 0 0 0 0.607843 0 0 0 0.38 0"/>
<feBlend mode="normal" in2="shape" result="effect1_innerShadow_2330_6460"/>
</filter>
<filter id="filter1_i_2330_6460" x="9.38391" y="-1.60214" width="29.7939" height="31.8326" filterUnits="userSpaceOnUse" color-interpolation-filters="sRGB">
<feFlood flood-opacity="0" result="BackgroundImageFix"/>
<feBlend mode="normal" in="SourceGraphic" in2="BackgroundImageFix" result="shape"/>
<feColorMatrix in="SourceAlpha" type="matrix" values="0 0 0 0 0 0 0 0 0 0 0 0 0 0 0 0 0 0 127 0" result="hardAlpha"/>
<feOffset dy="-1.60214"/>
<feGaussianBlur stdDeviation="1.14438"/>
<feComposite in2="hardAlpha" operator="arithmetic" k2="-1" k3="1"/>
<feColorMatrix type="matrix" values="0 0 0 0 0.380392 0 0 0 0 0.25098 0 0 0 0 0.607843 0 0 0 0.38 0"/>
<feBlend mode="normal" in2="shape" result="effect1_innerShadow_2330_6460"/>
</filter>
<filter id="filter2_f_2330_6460" x="31.6995" y="19.5689" width="4.57747" height="4.57711" filterUnits="userSpaceOnUse" color-interpolation-filters="sRGB">
<feFlood flood-opacity="0" result="BackgroundImageFix"/>
<feBlend mode="normal" in="SourceGraphic" in2="BackgroundImageFix" result="shape"/>
<feGaussianBlur stdDeviation="0.457753" result="effect1_foregroundBlur_2330_6460"/>
</filter>
<filter id="filter3_f_2330_6460" x="12.7027" y="19.5689" width="4.57747" height="4.57711" filterUnits="userSpaceOnUse" color-interpolation-filters="sRGB">
<feFlood flood-opacity="0" result="BackgroundImageFix"/>
<feBlend mode="normal" in="SourceGraphic" in2="BackgroundImageFix" result="shape"/>
<feGaussianBlur stdDeviation="0.457753" result="effect1_foregroundBlur_2330_6460"/>
</filter>
<linearGradient id="paint0_linear_2330_6460" x1="36.2557" y1="0.0635018" x2="31.5032" y2="7.61306" gradientUnits="userSpaceOnUse">
<stop offset="0.137215" stop-color="#543291"/>
<stop offset="0.401763" stop-color="#A087CA"/>
<stop offset="1" stop-color="#A087CA"/>
</linearGradient>
<linearGradient id="paint1_linear_2330_6460" x1="12.9595" y1="-0.0567214" x2="17.9435" y2="7.26104" gradientUnits="userSpaceOnUse">
<stop offset="0.137215" stop-color="#543291"/>
<stop offset="0.401763" stop-color="#A087CA"/>
<stop offset="1" stop-color="#A087CA"/>
</linearGradient>
<linearGradient id="paint2_linear_2330_6460" x1="36.2557" y1="0.0635018" x2="31.5032" y2="7.61306" gradientUnits="userSpaceOnUse">
<stop offset="0.137215" stop-color="#543291"/>
<stop offset="0.401763" stop-color="#A087CA"/>
<stop offset="1" stop-color="#A087CA"/>
</linearGradient>
<linearGradient id="paint3_linear_2330_6460" x1="12.9595" y1="-0.0567214" x2="17.9435" y2="7.26104" gradientUnits="userSpaceOnUse">
<stop offset="0.137215" stop-color="#543291"/>
<stop offset="0.401763" stop-color="#A087CA"/>
<stop offset="1" stop-color="#A087CA"/>
</linearGradient>
</defs>
</svg>
