<svg width="271" height="188" viewBox="0 0 271 188" fill="none" xmlns="http://www.w3.org/2000/svg">
<g transform="translate(68.3600, -29.2100) scale(1.4300)">

<g filter="url(#filter0_i_3234_9466)">
<path d="M50.2933 34.0845C54.5909 37.5428 56.8368 53.7222 56.7564 62.2686C56.8024 62.275 56.8479 62.2813 56.8926 62.2876C57.9443 62.4363 58.6497 62.5748 58.6497 62.5748C58.7942 53.0987 54.7289 34.4674 50.4454 32.9781C46.9866 31.7755 28.0706 47.9479 18.7971 59.777C15.3209 64.2112 12.281 68.6467 12.281 68.6467C18.3374 65.3969 24.3463 63.5837 28.4778 62.6154C29.9043 55.8742 47.177 31.5768 50.2933 34.0845Z" fill="black"/>
<path d="M56.7564 62.2686C56.7564 62.2686 56.6472 65.1083 57.524 65.1031C58.4009 65.0979 58.6497 62.5748 58.6497 62.5748C58.6497 62.5748 57.9443 62.4363 56.8926 62.2876L56.7564 62.2686Z" fill="black"/>
<path d="M120.227 117.777C126.612 107.897 133.94 90.2 131.283 88.3787C124.775 83.9181 106.001 88.3921 101.311 89.6587L99.8399 90.0357C100.169 90.5371 100.479 91.0328 100.768 91.5205C101.315 91.3337 101.87 91.1546 102.397 91.0097C111.867 88.4072 126.423 86.4369 130.023 89.3335C132.758 91.5342 116.08 116.753 109.887 119.598C110.346 123.683 110.462 128.054 110.051 132.625C110.051 132.625 113.841 127.657 120.227 117.777Z" fill="black"/>
<path d="M99.8399 90.0357C99.8399 90.0357 95.5009 91.7386 96.8342 92.6524C97.0831 92.823 98.2176 92.4202 99.5854 91.9346C99.9661 91.7995 100.365 91.6579 100.768 91.5205C100.479 91.0328 100.169 90.5371 99.8399 90.0357Z" fill="black"/>
<path d="M83.9046 73.4864C74.0062 66.7025 67.2273 64.2103 58.6497 62.5748C58.6497 62.5748 58.4009 65.0979 57.524 65.1031C56.6472 65.1083 56.7564 62.2686 56.7564 62.2686C56.8368 53.7222 54.5909 37.5428 50.2933 34.0845C47.177 31.5768 29.9043 55.8742 28.4778 62.6154C24.3463 63.5837 18.3374 65.3969 12.281 68.6467C8.97218 70.4222 5.64917 72.6265 2.61045 75.3562C-15.2226 91.3755 -19.6855 112.919 -12.0313 135.636C-6.67756 151.525 5.25932 160.821 15.9821 168.17C22.1691 172.411 38.7746 183.185 57.248 182.504C95.0061 181.111 106.761 147.034 108.133 141.615C108.299 140.957 108.463 140.333 108.621 139.731C109.272 137.252 109.824 135.149 110.051 132.625C110.462 128.054 110.346 123.683 109.887 119.598C116.08 116.753 132.758 91.5342 130.023 89.3335C126.423 86.4369 111.867 88.4072 102.397 91.0097C101.87 91.1546 101.315 91.3337 100.768 91.5205C100.365 91.6579 99.9661 91.7995 99.5854 91.9346C98.2176 92.4202 97.0831 92.823 96.8342 92.6524C95.5009 91.7386 99.8399 90.0357 99.8399 90.0357C95.8383 83.9369 89.035 77.0025 83.9046 73.4864Z" fill="#A289CB"/>
</g>
<path d="M102.891 96.1972C102.508 94.7995 101.766 93.208 100.768 91.5205M58.6497 62.5748C67.2273 64.2103 74.0062 66.7025 83.9046 73.4864C89.035 77.0025 95.8383 83.9369 99.8399 90.0357M58.6497 62.5748C58.7942 53.0987 54.7289 34.4674 50.4454 32.9781C46.9866 31.7755 28.0706 47.9479 18.7971 59.777C15.3209 64.2112 12.281 68.6467 12.281 68.6467M58.6497 62.5748C58.6497 62.5748 58.4009 65.0979 57.524 65.1031C56.6472 65.1083 56.7564 62.2686 56.7564 62.2686M56.7564 62.2686C56.8024 62.275 56.8479 62.2813 56.8926 62.2876C57.9443 62.4363 58.6497 62.5748 58.6497 62.5748M110.051 132.625C110.051 132.625 113.841 127.657 120.227 117.777C126.612 107.897 133.94 90.2 131.283 88.3787C124.775 83.9181 106.001 88.3921 101.311 89.6587L99.8399 90.0357M33.8523 61.6108C33.8523 61.6108 31.7561 61.8471 28.4778 62.6154C24.3463 63.5837 18.3374 65.3969 12.281 68.6467C8.97218 70.4222 5.64917 72.6265 2.61045 75.3562C-15.2226 91.3755 -19.6855 112.919 -12.0313 135.636C-6.67756 151.525 5.25932 160.821 15.9821 168.17C22.1691 172.411 38.7746 183.185 57.248 182.504C95.0061 181.111 106.761 147.034 108.133 141.615C108.299 140.957 108.463 140.333 108.621 139.731C109.272 137.252 109.824 135.149 110.051 132.625C110.462 128.054 110.346 123.683 109.887 119.598C109.718 118.098 109.504 116.637 109.251 115.219M51.1832 61.9715C53.0787 61.8314 55.3555 62.0704 56.8926 62.2876M99.8399 90.0357C99.8399 90.0357 95.5009 91.7386 96.8342 92.6524C97.0831 92.823 98.2176 92.4202 99.5854 91.9346C99.9661 91.7995 100.365 91.6579 100.768 91.5205M99.8399 90.0357C100.169 90.5371 100.479 91.0328 100.768 91.5205M109.887 119.598C116.08 116.753 132.758 91.5342 130.023 89.3335C126.423 86.4369 111.867 88.4072 102.397 91.0097C101.87 91.1546 101.315 91.3337 100.768 91.5205M56.7564 62.2686C56.8368 53.7222 54.5909 37.5428 50.2933 34.0845C47.177 31.5768 29.9043 55.8742 28.4778 62.6154M56.7564 62.2686L56.8926 62.2876" stroke="#1C1135" stroke-linecap="round"/>
<path d="M109.794 105.01C111.417 111.291 112.825 113.259 112.927 114.665C118.674 111.73 131.968 91.2906 129.55 89.3309C126.367 86.7515 112.285 88.715 103.558 91.5563C103.072 91.7144 104.064 91.3577 103.558 91.5563C103.558 91.5563 108.172 98.7279 109.794 105.01Z" fill="url(#paint0_linear_3234_9466)"/>
<path d="M41.8994 58.3514C35.6575 59.3295 31.7259 58.7046 30.4115 59.1616C31.7181 54.6017 47.3332 32.7021 49.9913 34.2022C53.0155 35.9089 55.9836 49.7049 56.1361 58.7745C56.1446 59.2794 56.1581 58.2355 56.1361 58.7745C56.1361 58.7745 48.1412 57.3732 41.8994 58.3514Z" fill="url(#paint1_linear_3234_9466)"/>
<path d="M-35.2294 69.4467C-39.7135 69.7983 -41.615 69.9195 -46.0682 71.1106C-45.6271 71.9059 -43.4015 72.2509 -41.6612 73.5248C-39.7444 74.9278 -38.5981 76.0033 -37.2774 77.7416C-35.0485 80.6751 -34.5643 82.8599 -33.505 86.3885C-32.2738 90.4901 -32.3832 96.2497 -31.841 97.2274C-29.2425 93.0904 -29.6982 93.5905 -27.1134 89.4448C-26.0704 87.6232 -22.4882 82.188 -20.3817 79.6225C-18.2426 77.0175 -15.1872 74.6964 -14.6218 73.8715C-14.2041 73.262 -13.5442 70.9731 -14.5755 70.2663C-15.4005 69.7009 -20.3623 68.9815 -23.8483 68.7605C-28.4474 68.4689 -30.517 69.0771 -35.2294 69.4467Z" fill="#A974D2"/>
<path d="M-11.0024 83.626C-12.8886 79.3025 -11.8877 76.9577 -12.7125 76.3924C-13.5373 75.8271 -16.6093 78.8024 -18.8717 80.6574C-22.51 83.6404 -24.5273 86.2561 -27.1134 89.4448C-29.6982 93.5905 -29.2425 93.0904 -31.841 97.2274C-31.2989 98.2052 -26.6991 97.4369 -23.676 98.5803C-20.0233 99.9618 -18.3023 101.591 -15.4273 104.234C-12.4257 106.993 -9.15724 112.774 -9.15724 112.774C-9.15724 112.774 -10.0158 105.566 -9.56074 100.98C-9.14543 96.7948 -7.20689 90.4704 -7.20689 90.4704C-7.20689 90.4704 -9.81315 86.352 -11.0024 83.626Z" fill="#A974D2"/>
<path d="M-4.18114 81.6332C-4.18114 81.6332 -6.47385 77.565 -6.99889 74.2468C-7.5068 71.0369 -6.75355 65.9289 -7.70816 64.6684C-8.66081 63.4104 -12.4781 62.7602 -15.7007 62.2112L-15.7204 62.2078C-21.6125 61.2041 -26.9486 61.7865 -32.0969 63.1073C-38.6187 64.7804 -46.6105 70.1328 -46.0682 71.1106C-41.615 69.9195 -39.7135 69.7983 -35.2294 69.4467C-30.517 69.0771 -28.4474 68.4689 -23.8483 68.7605C-20.3623 68.9815 -15.4005 69.7009 -14.5755 70.2663C-13.5442 70.9731 -14.2041 73.262 -14.6218 73.8715C-15.1872 74.6964 -18.2426 77.0175 -20.3817 79.6225C-22.4882 82.188 -26.0704 87.6232 -27.1134 89.4448C-24.5273 86.2561 -22.51 83.6404 -18.8717 80.6574C-16.6093 78.8024 -13.5373 75.8271 -12.7125 76.3924C-11.8877 76.9577 -12.8886 79.3025 -11.0024 83.626C-9.81315 86.352 -7.20689 90.4704 -7.20689 90.4704L-4.18114 81.6332Z" fill="#43277B"/>
<path d="M-15.7204 62.2078C-21.6125 61.2041 -26.9486 61.7865 -32.0969 63.1073C-38.6187 64.7804 -46.6105 70.1328 -46.0682 71.1106M-15.7204 62.2078L-15.7007 62.2112M-7.20689 90.4704L-4.18114 81.6332C-4.18114 81.6332 -6.47385 77.565 -6.99889 74.2468C-7.5068 71.0369 -6.75355 65.9289 -7.70816 64.6684C-8.66081 63.4104 -12.4781 62.7602 -15.7007 62.2112C-15.7072 62.2101 -15.7138 62.209 -15.7204 62.2078M-46.0682 71.1106C-41.615 69.9195 -39.7135 69.7983 -35.2294 69.4467C-30.517 69.0771 -28.4474 68.4689 -23.8483 68.7605C-20.3623 68.9815 -15.4005 69.7009 -14.5755 70.2663C-13.5442 70.9731 -14.2041 73.262 -14.6218 73.8715C-15.1872 74.6964 -18.2426 77.0175 -20.3817 79.6225C-22.4882 82.188 -26.0704 87.6232 -27.1134 89.4448M-46.0682 71.1106C-45.6271 71.9059 -43.4015 72.2509 -41.6612 73.5248C-39.7444 74.9278 -38.5981 76.0033 -37.2774 77.7416C-35.0485 80.6751 -34.5643 82.8599 -33.505 86.3885C-32.2738 90.4901 -32.3832 96.2497 -31.841 97.2274M-27.1134 89.4448C-29.6982 93.5905 -29.2425 93.0904 -31.841 97.2274M-27.1134 89.4448C-24.5273 86.2561 -22.51 83.6404 -18.8717 80.6574C-16.6093 78.8024 -13.5373 75.8271 -12.7125 76.3924C-11.8877 76.9577 -12.8886 79.3025 -11.0024 83.626C-9.81315 86.352 -7.20689 90.4704 -7.20689 90.4704M-7.20689 90.4704C-7.20689 90.4704 -9.14543 96.7948 -9.56074 100.98C-10.0158 105.566 -9.15724 112.774 -9.15724 112.774C-9.15724 112.774 -12.4257 106.993 -15.4273 104.234C-18.3023 101.591 -20.0233 99.9618 -23.676 98.5803C-26.6991 97.4369 -31.2989 98.2052 -31.841 97.2274" stroke="#0D0C12" stroke-linecap="round"/>
<path d="M108.895 153.675C106.192 154.306 101.814 154.278 101.814 154.278L96.3372 159.616C96.3372 159.616 99.0419 159.912 101.05 159.815C102.981 159.722 105.916 158.906 106.328 159.189C107.565 160.038 102.867 169.546 100.323 173.258C104.076 167.782 109.933 159.236 109.933 159.236C110.64 158.205 112.241 157.308 112.996 158.304C114.906 160.825 116.237 163.729 117.723 168.212C118.81 171.491 119.483 173.72 120.105 177.118C120.678 180.245 120.861 183.091 121.38 185.872C123.312 186.59 124.716 176.647 124.628 170.519C124.584 167.458 123.443 161.635 122.009 158.42C120.399 154.809 118.497 151.163 116.564 150.445C115.028 149.874 112.06 152.936 108.895 153.675Z" fill="#442679"/>
<path d="M117.723 168.212C116.237 163.729 114.906 160.825 112.996 158.304C112.241 157.308 110.64 158.205 109.933 159.236C109.933 159.236 104.076 167.782 100.323 173.258C97.4964 177.382 95.1049 179.987 92.4314 183.004C96.7548 181.118 101.355 180.028 104.813 179.973C106.652 179.944 110.113 179.862 113.261 180.913C116.714 182.067 119.188 183.763 121.38 185.872C120.861 183.091 120.678 180.245 120.105 177.118C119.483 173.72 118.81 171.491 117.723 168.212Z" fill="#AA74D2"/>
<path d="M100.323 173.258C102.867 169.546 107.565 160.038 106.328 159.189C105.916 158.906 102.981 159.722 101.05 159.815C99.0419 159.912 96.3372 159.616 96.3372 159.616L92.5559 162.48C90.046 164.381 88.5592 164.933 85.7114 166.276C82.6219 167.732 77.7595 169.918 77.7595 169.918C77.7595 169.918 84.5198 171.933 87.6811 174.899C90.2987 177.356 91.4998 179.941 92.4314 183.004C95.1049 179.987 97.4964 177.382 100.323 173.258Z" fill="#AA74D2"/>
<path d="M92.5559 162.48C90.046 164.381 88.5592 164.933 85.7114 166.276C82.6219 167.732 77.7595 169.918 77.7595 169.918C77.7595 169.918 84.5198 171.933 87.6811 174.899C90.2987 177.356 91.4998 179.941 92.4314 183.004C96.7548 181.118 101.355 180.028 104.813 179.973C106.652 179.944 110.113 179.862 113.261 180.913C116.714 182.067 119.188 183.763 121.38 185.872C123.312 186.59 124.716 176.647 124.628 170.519C124.584 167.458 123.443 161.635 122.009 158.42C120.399 154.809 118.497 151.163 116.564 150.445C115.028 149.874 112.06 152.936 108.895 153.675C106.192 154.306 101.814 154.278 101.814 154.278L96.3372 159.616M121.38 185.872C120.861 183.091 120.678 180.245 120.105 177.118C119.483 173.72 118.81 171.491 117.723 168.212C116.237 163.729 114.906 160.825 112.996 158.304C112.241 157.308 110.64 158.205 109.933 159.236M109.933 159.236C107.107 163.36 103.149 169.134 100.323 173.258M109.933 159.236C109.933 159.236 104.076 167.782 100.323 173.258M100.323 173.258C102.867 169.546 107.565 160.038 106.328 159.189C105.916 158.906 102.981 159.722 101.05 159.815C99.0419 159.912 96.3372 159.616 96.3372 159.616M100.323 173.258C97.4964 177.382 95.1049 179.987 92.4314 183.004M96.3372 159.616C96.3372 159.616 94.1433 161.278 92.5559 162.48M96.3372 159.616L92.5559 162.48" stroke="#0D0C12" stroke-linecap="round"/>
<path d="M-35.2294 69.4467C-39.7135 69.7983 -41.615 69.9195 -46.0682 71.1106C-45.6271 71.9059 -43.4015 72.2509 -41.6612 73.5248C-39.7444 74.9278 -38.5981 76.0033 -37.2774 77.7416C-35.0485 80.6751 -34.5643 82.8599 -33.505 86.3885C-32.2738 90.4901 -32.3832 96.2497 -31.841 97.2274C-29.2425 93.0904 -29.6982 93.5905 -27.1134 89.4448C-26.0704 87.6232 -22.4882 82.188 -20.3817 79.6225C-18.2426 77.0175 -15.1872 74.6964 -14.6218 73.8715C-14.2041 73.262 -13.5442 70.9731 -14.5755 70.2663C-15.4005 69.7009 -20.3623 68.9815 -23.8483 68.7605C-28.4474 68.4689 -30.517 69.0771 -35.2294 69.4467Z" fill="#A974D2"/>
<path d="M-11.0024 83.626C-12.8886 79.3025 -11.8877 76.9577 -12.7125 76.3924C-13.5373 75.8271 -16.6093 78.8024 -18.8717 80.6574C-22.51 83.6404 -24.5273 86.2561 -27.1134 89.4448C-29.6982 93.5905 -29.2425 93.0904 -31.841 97.2274C-31.2989 98.2052 -26.6991 97.4369 -23.676 98.5803C-20.0233 99.9618 -18.3023 101.591 -15.4273 104.234C-12.4257 106.993 -9.15724 112.774 -9.15724 112.774C-9.15724 112.774 -10.0158 105.566 -9.56074 100.98C-9.14543 96.7948 -7.20689 90.4704 -7.20689 90.4704C-7.20689 90.4704 -9.81315 86.352 -11.0024 83.626Z" fill="#A974D2"/>
<path d="M-4.18114 81.6332C-4.18114 81.6332 -6.47385 77.565 -6.99889 74.2468C-7.5068 71.0369 -6.75355 65.9289 -7.70816 64.6684C-8.66081 63.4104 -12.4781 62.7602 -15.7007 62.2112L-15.7204 62.2078C-21.6125 61.2041 -26.9486 61.7865 -32.0969 63.1073C-38.6187 64.7804 -46.6105 70.1328 -46.0682 71.1106C-41.615 69.9195 -39.7135 69.7983 -35.2294 69.4467C-30.517 69.0771 -28.4474 68.4689 -23.8483 68.7605C-20.3623 68.9815 -15.4005 69.7009 -14.5755 70.2663C-13.5442 70.9731 -14.2041 73.262 -14.6218 73.8715C-15.1872 74.6964 -18.2426 77.0175 -20.3817 79.6225C-22.4882 82.188 -26.0704 87.6232 -27.1134 89.4448C-24.5273 86.2561 -22.51 83.6404 -18.8717 80.6574C-16.6093 78.8024 -13.5373 75.8271 -12.7125 76.3924C-11.8877 76.9577 -12.8886 79.3025 -11.0024 83.626C-9.81315 86.352 -7.20689 90.4704 -7.20689 90.4704L-4.18114 81.6332Z" fill="#43277B"/>
<path d="M-15.7204 62.2078C-21.6125 61.2041 -26.9486 61.7865 -32.0969 63.1073C-38.6187 64.7804 -46.6105 70.1328 -46.0682 71.1106M-15.7204 62.2078L-15.7007 62.2112M-7.20689 90.4704L-4.18114 81.6332C-4.18114 81.6332 -6.47385 77.565 -6.99889 74.2468C-7.5068 71.0369 -6.75355 65.9289 -7.70816 64.6684C-8.66081 63.4104 -12.4781 62.7602 -15.7007 62.2112C-15.7072 62.2101 -15.7138 62.209 -15.7204 62.2078M-46.0682 71.1106C-41.615 69.9195 -39.7135 69.7983 -35.2294 69.4467C-30.517 69.0771 -28.4474 68.4689 -23.8483 68.7605C-20.3623 68.9815 -15.4005 69.7009 -14.5755 70.2663C-13.5442 70.9731 -14.2041 73.262 -14.6218 73.8715C-15.1872 74.6964 -18.2426 77.0175 -20.3817 79.6225C-22.4882 82.188 -26.0704 87.6232 -27.1134 89.4448M-46.0682 71.1106C-45.6271 71.9059 -43.4015 72.2509 -41.6612 73.5248C-39.7444 74.9278 -38.5981 76.0033 -37.2774 77.7416C-35.0485 80.6751 -34.5643 82.8599 -33.505 86.3885C-32.2738 90.4901 -32.3832 96.2497 -31.841 97.2274M-27.1134 89.4448C-29.6982 93.5905 -29.2425 93.0904 -31.841 97.2274M-27.1134 89.4448C-24.5273 86.2561 -22.51 83.6404 -18.8717 80.6574C-16.6093 78.8024 -13.5373 75.8271 -12.7125 76.3924C-11.8877 76.9577 -12.8886 79.3025 -11.0024 83.626C-9.81315 86.352 -7.20689 90.4704 -7.20689 90.4704M-7.20689 90.4704C-7.20689 90.4704 -9.14543 96.7948 -9.56074 100.98C-10.0158 105.566 -9.15724 112.774 -9.15724 112.774C-9.15724 112.774 -12.4257 106.993 -15.4273 104.234C-18.3023 101.591 -20.0233 99.9618 -23.676 98.5803C-26.6991 97.4369 -31.2989 98.2052 -31.841 97.2274" stroke="#0D0C12" stroke-linecap="round"/>
<path d="M108.895 153.675C106.192 154.306 101.814 154.278 101.814 154.278L96.3372 159.616C96.3372 159.616 99.0419 159.912 101.05 159.815C102.981 159.722 105.916 158.906 106.328 159.189C107.565 160.038 102.867 169.546 100.323 173.258C104.076 167.782 109.933 159.236 109.933 159.236C110.64 158.205 112.241 157.308 112.996 158.304C114.906 160.825 116.237 163.729 117.723 168.212C118.81 171.491 119.483 173.72 120.105 177.118C120.678 180.245 120.861 183.091 121.38 185.872C123.312 186.59 124.716 176.647 124.628 170.519C124.584 167.458 123.443 161.635 122.009 158.42C120.399 154.809 118.497 151.163 116.564 150.445C115.028 149.874 112.06 152.936 108.895 153.675Z" fill="#442679"/>
<path d="M117.723 168.212C116.237 163.729 114.906 160.825 112.996 158.304C112.241 157.308 110.64 158.205 109.933 159.236C109.933 159.236 104.076 167.782 100.323 173.258C97.4964 177.382 95.1049 179.987 92.4314 183.004C96.7548 181.118 101.355 180.028 104.813 179.973C106.652 179.944 110.113 179.862 113.261 180.913C116.714 182.067 119.188 183.763 121.38 185.872C120.861 183.091 120.678 180.245 120.105 177.118C119.483 173.72 118.81 171.491 117.723 168.212Z" fill="#AA74D2"/>
<path d="M100.323 173.258C102.867 169.546 107.565 160.038 106.328 159.189C105.916 158.906 102.981 159.722 101.05 159.815C99.0419 159.912 96.3372 159.616 96.3372 159.616L92.5559 162.48C90.046 164.381 88.5592 164.933 85.7114 166.276C82.6219 167.732 77.7595 169.918 77.7595 169.918C77.7595 169.918 84.5198 171.933 87.6811 174.899C90.2987 177.356 91.4998 179.941 92.4314 183.004C95.1049 179.987 97.4964 177.382 100.323 173.258Z" fill="#AA74D2"/>
<path d="M92.5559 162.48C90.046 164.381 88.5592 164.933 85.7114 166.276C82.6219 167.732 77.7595 169.918 77.7595 169.918C77.7595 169.918 84.5198 171.933 87.6811 174.899C90.2987 177.356 91.4998 179.941 92.4314 183.004C96.7548 181.118 101.355 180.028 104.813 179.973C106.652 179.944 110.113 179.862 113.261 180.913C116.714 182.067 119.188 183.763 121.38 185.872C123.312 186.59 124.716 176.647 124.628 170.519C124.584 167.458 123.443 161.635 122.009 158.42C120.399 154.809 118.497 151.163 116.564 150.445C115.028 149.874 112.06 152.936 108.895 153.675C106.192 154.306 101.814 154.278 101.814 154.278L96.3372 159.616M121.38 185.872C120.861 183.091 120.678 180.245 120.105 177.118C119.483 173.72 118.81 171.491 117.723 168.212C116.237 163.729 114.906 160.825 112.996 158.304C112.241 157.308 110.64 158.205 109.933 159.236M109.933 159.236C107.107 163.36 103.149 169.134 100.323 173.258M109.933 159.236C109.933 159.236 104.076 167.782 100.323 173.258M100.323 173.258C102.867 169.546 107.565 160.038 106.328 159.189C105.916 158.906 102.981 159.722 101.05 159.815C99.0419 159.912 96.3372 159.616 96.3372 159.616M100.323 173.258C97.4964 177.382 95.1049 179.987 92.4314 183.004M96.3372 159.616C96.3372 159.616 94.1433 161.278 92.5559 162.48M96.3372 159.616L92.5559 162.48" stroke="#0D0C12" stroke-linecap="round"/>
<g filter="url(#filter1_i_3234_9466)">
<path d="M50.2933 34.0845C54.5909 37.5428 56.8368 53.7222 56.7564 62.2686C56.8024 62.275 56.8479 62.2813 56.8926 62.2876C57.9443 62.4363 58.6497 62.5748 58.6497 62.5748C58.7942 53.0987 54.7289 34.4674 50.4454 32.9781C46.9866 31.7755 28.0706 47.9479 18.7971 59.777C15.3209 64.2112 12.281 68.6467 12.281 68.6467C18.3374 65.3969 24.3463 63.5837 28.4778 62.6154C29.9043 55.8742 47.177 31.5768 50.2933 34.0845Z" fill="black"/>
<path d="M56.7564 62.2686C56.7564 62.2686 56.6472 65.1083 57.524 65.1031C58.4009 65.0979 58.6497 62.5748 58.6497 62.5748C58.6497 62.5748 57.9443 62.4363 56.8926 62.2876L56.7564 62.2686Z" fill="black"/>
<path d="M120.227 117.777C126.612 107.897 133.94 90.2 131.283 88.3787C124.775 83.9181 106.001 88.3921 101.311 89.6587L99.8399 90.0357C100.169 90.5371 100.479 91.0328 100.768 91.5205C101.315 91.3337 101.87 91.1546 102.397 91.0097C111.867 88.4072 126.423 86.4369 130.023 89.3335C132.758 91.5342 116.08 116.753 109.887 119.598C110.346 123.683 110.462 128.054 110.051 132.625C110.051 132.625 113.841 127.657 120.227 117.777Z" fill="black"/>
<path d="M99.8399 90.0357C99.8399 90.0357 95.5009 91.7386 96.8342 92.6524C97.0831 92.823 98.2176 92.4202 99.5854 91.9346C99.9661 91.7995 100.365 91.6579 100.768 91.5205C100.479 91.0328 100.169 90.5371 99.8399 90.0357Z" fill="black"/>
<path d="M83.9046 73.4864C74.0062 66.7025 67.2273 64.2103 58.6497 62.5748C58.6497 62.5748 58.4009 65.0979 57.524 65.1031C56.6472 65.1083 56.7564 62.2686 56.7564 62.2686C56.8368 53.7222 54.5909 37.5428 50.2933 34.0845C47.177 31.5768 29.9043 55.8742 28.4778 62.6154C24.3463 63.5837 18.3374 65.3969 12.281 68.6467C8.97218 70.4222 5.64917 72.6265 2.61045 75.3562C-15.2226 91.3755 -19.6855 112.919 -12.0313 135.636C-6.67756 151.525 5.25932 160.821 15.9821 168.17C22.1691 172.411 38.7746 183.185 57.248 182.504C95.0061 181.111 106.761 147.034 108.133 141.615C108.299 140.957 108.463 140.333 108.621 139.731C109.272 137.252 109.824 135.149 110.051 132.625C110.462 128.054 110.346 123.683 109.887 119.598C116.08 116.753 132.758 91.5342 130.023 89.3335C126.423 86.4369 111.867 88.4072 102.397 91.0097C101.87 91.1546 101.315 91.3337 100.768 91.5205C100.365 91.6579 99.9661 91.7995 99.5854 91.9346C98.2176 92.4202 97.0831 92.823 96.8342 92.6524C95.5009 91.7386 99.8399 90.0357 99.8399 90.0357C95.8383 83.9369 89.035 77.0025 83.9046 73.4864Z" fill="#A289CB"/>
</g>
<path d="M102.891 96.1972C102.508 94.7995 101.766 93.208 100.768 91.5205M58.6497 62.5748C67.2273 64.2103 74.0062 66.7025 83.9046 73.4864C89.035 77.0025 95.8383 83.9369 99.8399 90.0357M58.6497 62.5748C58.7942 53.0987 54.7289 34.4674 50.4454 32.9781C46.9866 31.7755 28.0706 47.9479 18.7971 59.777C15.3209 64.2112 12.281 68.6467 12.281 68.6467M58.6497 62.5748C58.6497 62.5748 58.4009 65.0979 57.524 65.1031C56.6472 65.1083 56.7564 62.2686 56.7564 62.2686M56.7564 62.2686C56.8024 62.275 56.8479 62.2813 56.8926 62.2876C57.9443 62.4363 58.6497 62.5748 58.6497 62.5748M110.051 132.625C110.051 132.625 113.841 127.657 120.227 117.777C126.612 107.897 133.94 90.2 131.283 88.3787C124.775 83.9181 106.001 88.3921 101.311 89.6587L99.8399 90.0357M33.8523 61.6108C33.8523 61.6108 31.7561 61.8471 28.4778 62.6154C24.3463 63.5837 18.3374 65.3969 12.281 68.6467C8.97218 70.4222 5.64917 72.6265 2.61045 75.3562C-15.2226 91.3755 -19.6855 112.919 -12.0313 135.636C-6.67756 151.525 5.25932 160.821 15.9821 168.17C22.1691 172.411 38.7746 183.185 57.248 182.504C95.0061 181.111 106.761 147.034 108.133 141.615C108.299 140.957 108.463 140.333 108.621 139.731C109.272 137.252 109.824 135.149 110.051 132.625C110.462 128.054 110.346 123.683 109.887 119.598C109.718 118.098 109.504 116.637 109.251 115.219M51.1832 61.9715C53.0787 61.8314 55.3555 62.0704 56.8926 62.2876M99.8399 90.0357C99.8399 90.0357 95.5009 91.7386 96.8342 92.6524C97.0831 92.823 98.2176 92.4202 99.5854 91.9346C99.9661 91.7995 100.365 91.6579 100.768 91.5205M99.8399 90.0357C100.169 90.5371 100.479 91.0328 100.768 91.5205M109.887 119.598C116.08 116.753 132.758 91.5342 130.023 89.3335C126.423 86.4369 111.867 88.4072 102.397 91.0097C101.87 91.1546 101.315 91.3337 100.768 91.5205M56.7564 62.2686C56.8368 53.7222 54.5909 37.5428 50.2933 34.0845C47.177 31.5768 29.9043 55.8742 28.4778 62.6154M56.7564 62.2686L56.8926 62.2876" stroke="#1C1135" stroke-linecap="round"/>
<path d="M109.794 105.01C111.417 111.291 112.825 113.259 112.927 114.665C118.674 111.73 131.968 91.2906 129.55 89.3309C126.367 86.7515 112.285 88.715 103.558 91.5563C103.072 91.7144 104.064 91.3577 103.558 91.5563C103.558 91.5563 108.172 98.7279 109.794 105.01Z" fill="url(#paint2_linear_3234_9466)"/>
<path d="M41.8994 58.3514C35.6575 59.3295 31.7259 58.7046 30.4115 59.1616C31.7181 54.6017 47.3332 32.7021 49.9913 34.2022C53.0155 35.9089 55.9836 49.7049 56.1361 58.7745C56.1446 59.2794 56.1581 58.2355 56.1361 58.7745C56.1361 58.7745 48.1412 57.3732 41.8994 58.3514Z" fill="url(#paint3_linear_3234_9466)"/>
<path d="M31.727 72.1953C29.7614 71.192 23.9145 80.2051 21.8871 80.7438C19.8597 81.2825 10.9814 77.9237 9.6761 79.6887C8.37083 81.4538 13.4803 88.9448 13.3177 90.828C13.155 92.7112 7.64947 99.437 9.38271 101.429C11.1159 103.421 20.8068 98.5231 22.5101 99.066C24.2135 99.6089 29.6739 109.28 31.9549 108.637C34.2358 107.995 33.3392 99.2308 34.1034 97.7598C34.8677 96.2889 43.4785 93.547 43.6048 91.6388C43.731 89.7306 35.5233 86.0101 34.5925 84.4649C33.6616 82.9196 33.6926 73.1985 31.727 72.1953Z" fill="#C3AEE6"/>
<g filter="url(#filter2_f_3234_9466)">
<circle cx="70.8367" cy="162.031" r="6" transform="rotate(34.4249 70.8367 162.031)" fill="#CD91D7"/>
</g>
<g filter="url(#filter3_f_3234_9466)">
<circle cx="2.37269" cy="115.109" r="6" transform="rotate(34.4249 2.37269 115.109)" fill="#CD91D7"/>
</g>
<path d="M70.7479 136.511C70.2865 136.3 66.5912 136.979 63.9499 136.701C61.9303 136.489 58.8599 135.638 58.8599 135.638C58.8599 135.638 47.152 148.829 57.0504 155.613C62.1894 159.135 68.5381 157.425 72.9309 150.131C75.2281 146.316 75.1318 140.728 70.7479 136.511Z" fill="black"/>
<path d="M57.5874 135.372L58.8599 135.638M58.8599 135.638C58.8599 135.638 61.9303 136.489 63.9499 136.701C66.5912 136.979 70.2865 136.3 70.7479 136.511C75.1318 140.728 75.2281 146.316 72.9309 150.131C68.5381 157.425 62.1894 159.135 57.0504 155.613C47.152 148.829 58.8599 135.638 58.8599 135.638Z" stroke="black" stroke-width="1.6" stroke-linecap="round"/>
<path d="M63.3633 144.053C61.5492 145.348 58.7647 144.834 57.6051 143.209C56.4455 141.585 56.9133 139.196 58.7274 137.901C60.5415 136.606 63.3259 137.12 64.4855 138.745C65.6451 140.369 65.1773 142.758 63.3633 144.053Z" fill="#FAFAF9"/>
<path d="M25.413 105.441C25.7764 105.795 26.4766 109.486 27.6885 111.85C28.6151 113.657 30.5172 116.213 30.5172 116.213C30.5172 116.213 22.4387 131.892 12.5403 125.108C7.40132 121.586 6.70581 115.048 11.9235 108.319C14.652 104.8 19.8985 102.874 25.413 105.441Z" fill="black"/>
<path d="M31.2244 117.304L30.5172 116.213M30.5172 116.213C30.5172 116.213 28.6151 113.657 27.6885 111.85C26.4766 109.486 25.7764 105.795 25.413 105.441C19.8985 102.874 14.652 104.8 11.9235 108.319C6.70581 115.048 7.40132 121.586 12.5403 125.108C22.4387 131.892 30.5172 116.213 30.5172 116.213Z" stroke="black" stroke-width="1.6" stroke-linecap="round"/>
<path d="M21.6009 113.006C19.7869 114.301 17.0023 113.788 15.8427 112.163C14.6831 110.539 15.151 108.15 16.9651 106.855C18.7791 105.56 21.5636 106.074 22.7232 107.698C23.8828 109.323 23.415 111.711 21.6009 113.006Z" fill="#FAFAF9"/>
<path fill-rule="evenodd" clip-rule="evenodd" d="M36.8008 136.962C36.5469 135.912 35.7482 134.848 36.3979 134.123C37.0475 133.398 38.2439 133.597 39.3111 134.365C40.1797 134.989 40.9148 136.049 40.4868 136.926C40.0587 137.803 38.8345 137.479 37.929 137.735C35.5084 140.536 38.6345 144.409 39.1194 144.767C44.7798 148.938 46.0611 144.554 45.9358 146.512C45.8432 147.96 44.8348 148.393 42.9356 147.967C41.2424 149.727 38.6323 150.907 37.8215 150.314C37.0107 149.721 38.5624 145.763 38.2312 145.536C36.5667 144.395 35.3135 140.908 34.9823 140.681C34.651 140.454 31.0463 140.998 29.3901 139.863C28.7865 140.033 25.8764 142.128 25.2139 141.674C24.5514 141.22 24.8814 139.693 25.6583 136.429C25.1026 135.464 23.8384 133.705 25.5589 133.132C28.4315 132.175 23.9428 134.365 29.2378 137.994C29.7346 138.335 34.8949 140.701 36.8008 136.962ZM41.3675 148.063C41.6404 147.665 39.6765 146.567 39.323 146.662C38.9696 146.757 37.9531 149.234 38.3672 149.518C38.7814 149.802 41.0946 148.461 41.3675 148.063ZM28.2867 139.337C28.0433 138.93 26.7666 137.828 26.4577 137.85C26.1076 137.843 25.3544 140.598 25.7683 140.882C26.1822 141.165 28.4037 139.532 28.2867 139.337Z" fill="black"/>
<path d="M39.323 146.662C39.6765 146.567 41.6404 147.665 41.3675 148.063C41.0946 148.461 38.7814 149.802 38.3672 149.518C37.9531 149.234 38.9696 146.757 39.323 146.662Z" fill="white"/>
<path d="M26.4577 137.85C26.7666 137.828 28.0433 138.93 28.2867 139.337C28.4037 139.532 26.1822 141.165 25.7683 140.882C25.3544 140.598 26.1076 137.843 26.4577 137.85Z" fill="white"/>
<path fill-rule="evenodd" clip-rule="evenodd" d="M137.903 134.044C138.038 134.136 138.139 134.269 138.19 134.424C138.242 134.578 138.242 134.746 138.191 134.9L137.252 137.707C137.05 138.312 137.006 138.958 137.123 139.585C137.239 140.211 137.514 140.798 137.921 141.288L139.809 143.568C139.913 143.694 139.973 143.849 139.98 144.012C139.987 144.175 139.942 144.336 139.85 144.47C139.757 144.604 139.624 144.705 139.47 144.757C139.315 144.809 139.148 144.809 138.994 144.757L136.186 143.819C135.582 143.617 134.936 143.572 134.309 143.689C133.683 143.806 133.096 144.081 132.605 144.488L130.326 146.376C130.2 146.48 130.044 146.54 129.882 146.547C129.719 146.554 129.558 146.508 129.424 146.416C129.289 146.324 129.189 146.191 129.137 146.037C129.085 145.882 129.085 145.715 129.136 145.561L130.075 142.753C130.277 142.149 130.321 141.503 130.204 140.876C130.087 140.25 129.813 139.663 129.406 139.172L127.518 136.893C127.414 136.767 127.354 136.611 127.347 136.448C127.339 136.286 127.385 136.125 127.477 135.991C127.569 135.856 127.703 135.756 127.857 135.704C128.012 135.652 128.179 135.652 128.333 135.703L131.14 136.642C131.745 136.844 132.391 136.888 133.018 136.771C133.644 136.654 134.231 136.38 134.722 135.973L137.001 134.085C137.127 133.981 137.283 133.921 137.445 133.913C137.608 133.906 137.769 133.952 137.903 134.044Z" fill="#FFE031"/>
<path fill-rule="evenodd" clip-rule="evenodd" d="M-5.79099 27.0768C-5.65658 27.1689 -5.55585 27.3024 -5.50403 27.4569C-5.45221 27.6114 -5.45213 27.7786 -5.50379 27.9331L-6.44209 30.7403C-6.64419 31.3448 -6.68886 31.9909 -6.57188 32.6175C-6.4549 33.2441 -6.18012 33.8305 -5.77351 34.3214L-3.88554 36.601C-3.78173 36.7265 -3.72161 36.8824 -3.71427 37.0451C-3.70693 37.2079 -3.75277 37.3686 -3.84486 37.5029C-3.93694 37.6373 -4.07027 37.738 -4.22469 37.7899C-4.37911 37.8418 -4.54621 37.842 -4.70074 37.7904L-7.50792 36.8521C-8.11246 36.65 -8.75854 36.6054 -9.38513 36.7223C-10.0117 36.8393 -10.5982 37.1141 -11.0891 37.5207L-13.3686 39.4087C-13.4941 39.5125 -13.65 39.5726 -13.8128 39.58C-13.9755 39.5873 -14.1362 39.5415 -14.2706 39.4494C-14.4049 39.3573 -14.5057 39.2239 -14.5575 39.0695C-14.6094 38.9151 -14.6096 38.748 -14.5581 38.5935L-13.6198 35.7863C-13.4177 35.1818 -13.373 34.5357 -13.49 33.9091C-13.6069 33.2825 -13.8817 32.6961 -14.2883 32.2052L-16.1763 29.9256C-16.2801 29.8001 -16.3402 29.6442 -16.3476 29.4815C-16.3549 29.3187 -16.3091 29.158 -16.217 29.0237C-16.1249 28.8893 -15.9916 28.7886 -15.8372 28.7367C-15.6827 28.6848 -15.5156 28.6846 -15.3611 28.7362L-12.5539 29.6745C-11.9494 29.8766 -11.3033 29.9212 -10.6767 29.8043C-10.0501 29.6873 -9.46367 29.4125 -8.97278 29.0059L-6.69325 27.1179C-6.56775 27.014 -6.4118 26.9537 -6.249 26.9463C-6.08621 26.9389 -5.92543 26.9847 -5.79099 27.0768Z" fill="#FFE031"/>
<path fill-rule="evenodd" clip-rule="evenodd" d="M18.9728 21.0141C19.1431 21.1309 19.2707 21.2999 19.3363 21.4956C19.402 21.6913 19.4021 21.9031 19.3367 22.0989L18.1481 25.6548C17.8921 26.4206 17.8356 27.239 17.9838 28.0327C18.132 28.8264 18.4801 29.5693 18.9951 30.1911L21.3868 33.0787C21.5183 33.2377 21.5944 33.4352 21.6037 33.6414C21.613 33.8475 21.555 34.0511 21.4383 34.2213C21.3217 34.3915 21.1528 34.5191 20.9572 34.5848C20.7616 34.6505 20.5499 34.6507 20.3541 34.5854L16.7981 33.3968C16.0323 33.1408 15.2139 33.0842 14.4202 33.2323C13.6264 33.3805 12.8836 33.7286 12.2618 34.2436L9.37422 36.6351C9.21521 36.7666 9.01771 36.8428 8.81157 36.8521C8.60544 36.8614 8.40188 36.8033 8.23167 36.6866C8.06146 36.57 7.93386 36.4011 7.86815 36.2055C7.80244 36.0099 7.8022 35.7982 7.86746 35.6025L9.05599 32.0465C9.31199 31.2808 9.36856 30.4624 9.22036 29.6686C9.07216 28.8749 8.72408 28.132 8.20899 27.5102L5.81737 24.6226C5.68587 24.4636 5.60971 24.2661 5.60041 24.06C5.5911 23.8538 5.64917 23.6503 5.76582 23.4801C5.88246 23.3099 6.05136 23.1823 6.24696 23.1166C6.44256 23.0509 6.65424 23.0507 6.84999 23.1159L10.406 24.3045C11.1718 24.5606 11.9902 24.6172 12.7839 24.469C13.5777 24.3208 14.3205 23.9728 14.9424 23.4577L17.8299 21.0662C17.9889 20.9346 18.1864 20.8582 18.3926 20.8488C18.5989 20.8394 18.8025 20.8975 18.9728 21.0141Z" fill="#FFE031"/>
<defs>
<filter id="filter0_i_3234_9466" x="-16.1187" y="25.4148" width="148.461" height="157.62" filterUnits="userSpaceOnUse" color-interpolation-filters="sRGB">
<feFlood flood-opacity="0" result="BackgroundImageFix"/>
<feBlend mode="normal" in="SourceGraphic" in2="BackgroundImageFix" result="shape"/>
<feColorMatrix in="SourceAlpha" type="matrix" values="0 0 0 0 0 0 0 0 0 0 0 0 0 0 0 0 0 0 127 0" result="hardAlpha"/>
<feOffset dy="-7"/>
<feGaussianBlur stdDeviation="5"/>
<feComposite in2="hardAlpha" operator="arithmetic" k2="-1" k3="1"/>
<feColorMatrix type="matrix" values="0 0 0 0 0.380392 0 0 0 0 0.25098 0 0 0 0 0.607843 0 0 0 0.38 0"/>
<feBlend mode="normal" in2="shape" result="effect1_innerShadow_3234_9466"/>
</filter>
<filter id="filter1_i_3234_9466" x="-16.1187" y="25.4148" width="148.461" height="157.62" filterUnits="userSpaceOnUse" color-interpolation-filters="sRGB">
<feFlood flood-opacity="0" result="BackgroundImageFix"/>
<feBlend mode="normal" in="SourceGraphic" in2="BackgroundImageFix" result="shape"/>
<feColorMatrix in="SourceAlpha" type="matrix" values="0 0 0 0 0 0 0 0 0 0 0 0 0 0 0 0 0 0 127 0" result="hardAlpha"/>
<feOffset dy="-7"/>
<feGaussianBlur stdDeviation="5"/>
<feComposite in2="hardAlpha" operator="arithmetic" k2="-1" k3="1"/>
<feColorMatrix type="matrix" values="0 0 0 0 0.380392 0 0 0 0 0.25098 0 0 0 0 0.607843 0 0 0 0.38 0"/>
<feBlend mode="normal" in2="shape" result="effect1_innerShadow_3234_9466"/>
</filter>
<filter id="filter2_f_3234_9466" x="60.8362" y="152.03" width="20.0011" height="20.0012" filterUnits="userSpaceOnUse" color-interpolation-filters="sRGB">
<feFlood flood-opacity="0" result="BackgroundImageFix"/>
<feBlend mode="normal" in="SourceGraphic" in2="BackgroundImageFix" result="shape"/>
<feGaussianBlur stdDeviation="2" result="effect1_foregroundBlur_3234_9466"/>
</filter>
<filter id="filter3_f_3234_9466" x="-7.62787" y="105.108" width="20.0011" height="20.0012" filterUnits="userSpaceOnUse" color-interpolation-filters="sRGB">
<feFlood flood-opacity="0" result="BackgroundImageFix"/>
<feBlend mode="normal" in="SourceGraphic" in2="BackgroundImageFix" result="shape"/>
<feGaussianBlur stdDeviation="2" result="effect1_foregroundBlur_3234_9466"/>
</filter>
<linearGradient id="paint0_linear_3234_9466" x1="132.841" y1="89.0832" x2="97.066" y2="104.553" gradientUnits="userSpaceOnUse">
<stop offset="0.137215" stop-color="#543291"/>
<stop offset="0.401763" stop-color="#A087CA"/>
<stop offset="1" stop-color="#A087CA"/>
</linearGradient>
<linearGradient id="paint1_linear_3234_9466" x1="49.182" y1="31.1037" x2="49.0693" y2="69.7872" gradientUnits="userSpaceOnUse">
<stop offset="0.137215" stop-color="#543291"/>
<stop offset="0.401763" stop-color="#A087CA"/>
<stop offset="1" stop-color="#A087CA"/>
</linearGradient>
<linearGradient id="paint2_linear_3234_9466" x1="132.841" y1="89.0832" x2="97.066" y2="104.553" gradientUnits="userSpaceOnUse">
<stop offset="0.137215" stop-color="#543291"/>
<stop offset="0.401763" stop-color="#A087CA"/>
<stop offset="1" stop-color="#A087CA"/>
</linearGradient>
<linearGradient id="paint3_linear_3234_9466" x1="49.182" y1="31.1037" x2="49.0693" y2="69.7872" gradientUnits="userSpaceOnUse">
<stop offset="0.137215" stop-color="#543291"/>
<stop offset="0.401763" stop-color="#A087CA"/>
<stop offset="1" stop-color="#A087CA"/>
</linearGradient>
</defs>

</g>
</svg>