<svg width="24" height="24" viewBox="0 0 24 24" fill="none" xmlns="http://www.w3.org/2000/svg">
<path d="M18.75 11.25H3.75C3.55109 11.25 3.36032 11.329 3.21967 11.4697C3.07902 11.6103 3 11.8011 3 12C3 12.1989 3.07902 12.3897 3.21967 12.5303C3.36032 12.671 3.55109 12.75 3.75 12.75H18.75C18.9489 12.75 19.1397 12.671 19.2803 12.5303C19.421 12.3897 19.5 12.1989 19.5 12C19.5 11.8011 19.421 11.6103 19.2803 11.4697C19.1397 11.329 18.9489 11.25 18.75 11.25Z" fill="black"/>
<path d="M18.4406 12L12.218 18.2179C12.1481 18.2878 12.0927 18.3707 12.0549 18.462C12.0171 18.5533 11.9976 18.6512 11.9976 18.75C11.9976 18.8488 12.0171 18.9466 12.0549 19.0379C12.0927 19.1292 12.1481 19.2121 12.218 19.282C12.2878 19.3519 12.3708 19.4073 12.4621 19.4451C12.5533 19.4829 12.6512 19.5024 12.75 19.5024C12.8488 19.5024 12.9466 19.4829 13.0379 19.4451C13.1292 19.4073 13.2122 19.3519 13.282 19.282L20.032 12.532C20.1022 12.4623 20.1579 12.3794 20.1959 12.2881C20.2338 12.1968 20.2534 12.0989 20.2534 12C20.2534 11.9011 20.2338 11.8031 20.1959 11.7118C20.1579 11.6205 20.1022 11.5376 20.032 11.4679L13.282 4.71793C13.2122 4.64807 13.1292 4.59264 13.0379 4.55483C12.9466 4.51702 12.8488 4.49756 12.75 4.49756C12.6512 4.49756 12.5533 4.51702 12.4621 4.55483C12.3708 4.59264 12.2878 4.64807 12.218 4.71793C12.1481 4.7878 12.0927 4.87074 12.0549 4.96203C12.0171 5.05332 11.9976 5.15116 11.9976 5.24996C11.9976 5.34877 12.0171 5.44661 12.0549 5.5379C12.0927 5.62918 12.1481 5.71213 12.218 5.782L18.4406 12Z" fill="black"/>
</svg>
