<svg width="28" height="28" viewBox="0 0 28 28" fill="none" xmlns="http://www.w3.org/2000/svg">
<path d="M2 14C2 7.373 7.373 2 14 2C20.627 2 26 7.373 26 14C26 20.627 20.627 26 14 26C12.0341 26.0028 10.0979 25.5205 8.363 24.596L3.593 25.953C3.37887 26.0138 3.15239 26.0164 2.93695 25.9604C2.72151 25.9044 2.52494 25.7919 2.36754 25.6345C2.21014 25.4771 2.09763 25.2805 2.04163 25.065C1.98563 24.8496 1.98817 24.6231 2.049 24.409L3.405 19.639C2.47979 17.9036 1.99718 15.9666 2 14ZM9.5 11.75C9.5 12.164 9.836 12.5 10.25 12.5H17.75C17.9489 12.5 18.1397 12.421 18.2803 12.2803C18.421 12.1397 18.5 11.9489 18.5 11.75C18.5 11.5511 18.421 11.3603 18.2803 11.2197C18.1397 11.079 17.9489 11 17.75 11H10.25C10.0511 11 9.86032 11.079 9.71967 11.2197C9.57902 11.3603 9.5 11.5511 9.5 11.75ZM10.25 15.5C10.0511 15.5 9.86032 15.579 9.71967 15.7197C9.57902 15.8603 9.5 16.0511 9.5 16.25C9.5 16.4489 9.57902 16.6397 9.71967 16.7803C9.86032 16.921 10.0511 17 10.25 17H14.75C14.9489 17 15.1397 16.921 15.2803 16.7803C15.421 16.6397 15.5 16.4489 15.5 16.25C15.5 16.0511 15.421 15.8603 15.2803 15.7197C15.1397 15.579 14.9489 15.5 14.75 15.5H10.25Z" fill="black"/>
</svg>
