<svg width="71" height="24" viewBox="0 0 71 24" fill="none" xmlns="http://www.w3.org/2000/svg">
<path d="M12 1C13.4587 1 14.8576 1.57946 15.8891 2.61091C16.9205 3.64236 17.5 5.04131 17.5 6.5C17.5 7.95869 16.9205 9.35764 15.8891 10.3891C14.8576 11.4205 13.4587 12 12 12C10.5413 12 9.14236 11.4205 8.11091 10.3891C7.07946 9.35764 6.5 7.95869 6.5 6.5C6.5 5.04131 7.07946 3.64236 8.11091 2.61091C9.14236 1.57946 10.5413 1 12 1ZM12 23C12 23 22 23 22 20.25C22 16.95 17.6375 13.375 12 13.375C6.3625 13.375 2 16.95 2 20.25C2 23 12 23 12 23Z" fill="#7C55C5"/>
<path d="M38.936 10.216C38.936 10.664 38.828 11.084 38.612 11.476C38.404 11.868 38.072 12.184 37.616 12.424C37.168 12.664 36.6 12.784 35.912 12.784H34.508V16H32.828V7.624H35.912C36.56 7.624 37.112 7.736 37.568 7.96C38.024 8.184 38.364 8.492 38.588 8.884C38.82 9.276 38.936 9.72 38.936 10.216ZM35.84 11.428C36.304 11.428 36.648 11.324 36.872 11.116C37.096 10.9 37.208 10.6 37.208 10.216C37.208 9.4 36.752 8.992 35.84 8.992H34.508V11.428H35.84ZM41.8088 10.384C42.0248 10.032 42.3048 9.756 42.6488 9.556C43.0008 9.356 43.4008 9.256 43.8488 9.256V11.02H43.4048C42.8768 11.02 42.4768 11.144 42.2048 11.392C41.9408 11.64 41.8088 12.072 41.8088 12.688V16H40.1288V9.352H41.8088V10.384ZM47.9323 16.108C47.2923 16.108 46.7163 15.968 46.2043 15.688C45.6923 15.4 45.2883 14.996 44.9923 14.476C44.7043 13.956 44.5603 13.356 44.5603 12.676C44.5603 11.996 44.7083 11.396 45.0043 10.876C45.3083 10.356 45.7203 9.956 46.2403 9.676C46.7603 9.388 47.3403 9.244 47.9803 9.244C48.6203 9.244 49.2003 9.388 49.7203 9.676C50.2403 9.956 50.6483 10.356 50.9443 10.876C51.2483 11.396 51.4003 11.996 51.4003 12.676C51.4003 13.356 51.2443 13.956 50.9323 14.476C50.6283 14.996 50.2123 15.4 49.6843 15.688C49.1643 15.968 48.5803 16.108 47.9323 16.108ZM47.9323 14.644C48.2363 14.644 48.5203 14.572 48.7843 14.428C49.0563 14.276 49.2723 14.052 49.4323 13.756C49.5923 13.46 49.6723 13.1 49.6723 12.676C49.6723 12.044 49.5043 11.56 49.1683 11.224C48.8403 10.88 48.4363 10.708 47.9563 10.708C47.4763 10.708 47.0723 10.88 46.7443 11.224C46.4243 11.56 46.2643 12.044 46.2643 12.676C46.2643 13.308 46.4203 13.796 46.7323 14.14C47.0523 14.476 47.4523 14.644 47.9323 14.644ZM55.6807 10.732H54.5167V16H52.8127V10.732H52.0567V9.352H52.8127V9.016C52.8127 8.2 53.0447 7.6 53.5087 7.216C53.9727 6.832 54.6727 6.652 55.6087 6.676V8.092C55.2007 8.084 54.9167 8.152 54.7567 8.296C54.5967 8.44 54.5167 8.7 54.5167 9.076V9.352H55.6807V10.732ZM57.6214 8.56C57.3254 8.56 57.0774 8.468 56.8774 8.284C56.6854 8.092 56.5894 7.856 56.5894 7.576C56.5894 7.296 56.6854 7.064 56.8774 6.88C57.0774 6.688 57.3254 6.592 57.6214 6.592C57.9174 6.592 58.1614 6.688 58.3534 6.88C58.5534 7.064 58.6534 7.296 58.6534 7.576C58.6534 7.856 58.5534 8.092 58.3534 8.284C58.1614 8.468 57.9174 8.56 57.6214 8.56ZM58.4494 9.352V16H56.7694V9.352H58.4494ZM61.7893 7.12V16H60.1093V7.12H61.7893ZM69.6291 12.532C69.6291 12.772 69.6131 12.988 69.5811 13.18H64.7211C64.7611 13.66 64.9291 14.036 65.2251 14.308C65.5211 14.58 65.8851 14.716 66.3171 14.716C66.9411 14.716 67.3851 14.448 67.6491 13.912H69.4611C69.2691 14.552 68.9011 15.08 68.3571 15.496C67.8131 15.904 67.1451 16.108 66.3531 16.108C65.7131 16.108 65.1371 15.968 64.6251 15.688C64.1211 15.4 63.7251 14.996 63.4371 14.476C63.1571 13.956 63.0171 13.356 63.0171 12.676C63.0171 11.988 63.1571 11.384 63.4371 10.864C63.7171 10.344 64.1091 9.944 64.6131 9.664C65.1171 9.384 65.6971 9.244 66.3531 9.244C66.9851 9.244 67.5491 9.38 68.0451 9.652C68.5491 9.924 68.9371 10.312 69.2091 10.816C69.4891 11.312 69.6291 11.884 69.6291 12.532ZM67.8891 12.052C67.8811 11.62 67.7251 11.276 67.4211 11.02C67.1171 10.756 66.7451 10.624 66.3051 10.624C65.8891 10.624 65.5371 10.752 65.2491 11.008C64.9691 11.256 64.7971 11.604 64.7331 12.052H67.8891Z" fill="#7C55C5"/>
</svg>
