<svg width="36" height="36" viewBox="0 0 36 36" fill="none" xmlns="http://www.w3.org/2000/svg">
<path d="M26.2381 16.3942C26.5718 16.0313 27.2247 15.3509 26.6208 15.3509C26.4183 15.3509 26.0851 15.3465 25.6727 15.3462L11.493 32.2513C14.3635 29.3696 16.9745 26.7326 19.6819 23.8181C21.3376 22.0357 25.9045 16.757 26.2381 16.3942Z" fill="#F3A603"/>
<path d="M15.1888 20.8935C15.5556 20.2208 15.5203 20.2208 14.9344 20.2208H12.0796H10.9303C10.8348 20.5067 10.7671 20.7784 10.805 20.8935C10.9004 21.1835 11.1824 21.1835 11.4634 21.1835H15.0304C15.0867 21.0782 15.1407 20.9816 15.1888 20.8935Z" fill="#F3A603"/>
<path d="M26.633 1.94727C23.3713 1.77556 18.8298 1.67558 18.1177 2.11991C17.8195 2.30597 17.4369 3.38373 17.4369 3.38373L11.2844 19.3197C11.2844 19.3197 11.0753 19.7866 10.9303 20.2208H12.0796H14.9344C15.5203 20.2208 15.5556 20.2208 15.1888 20.8935C15.1407 20.9816 15.0867 21.0782 15.0304 21.1835C14.9988 21.2426 14.9666 21.3043 14.9344 21.3688C14.5517 22.1341 9.93607 31.7211 9.3477 32.8043C8.93203 33.5696 8.89837 33.9829 9.19694 34.1647C9.39142 34.2831 9.6576 34.108 9.96233 33.782C10.3364 33.3818 10.6162 33.1097 10.9303 32.8043C11.1009 32.6385 11.2816 32.4627 11.493 32.2513C11.3887 32.356 11.6003 32.144 11.493 32.2513L25.6727 15.3462C25.4479 15.3461 25.1995 15.3472 24.936 15.3509H20.6575L26.2714 5.04209C26.4456 4.7151 26.6988 4.29696 26.9516 3.87942C27.4507 3.05511 27.9484 2.23311 27.8346 2.11916C27.6974 1.98175 27.3144 1.9701 26.9244 1.95824C26.8265 1.95527 26.728 1.95227 26.633 1.94727Z" fill="#F6BF0D"/>
<path d="M27.8345 2.11688C27.6628 1.94531 26.8045 1.94505 26.6328 1.94533L19.7329 14.4794C19.4342 15.0324 19.3506 15.3078 19.5367 15.3748C19.5691 15.3864 19.6711 15.3903 19.8045 15.3879C20.0726 15.383 20.4536 15.3879 20.6898 15.3748C22.4703 12.2504 24.1278 9.3181 26.2887 5.29549C26.9009 4.15573 28.0061 2.28864 27.8345 2.11688Z" fill="#F3A603"/>
<path d="M15.8049 20.8344C15.8239 20.9549 15.3775 21.8766 15.3018 22.0416C13.884 25.1382 12.3483 28.1795 10.6983 31.1589C10.6793 30.4137 15.1784 21.7588 15.8049 20.8344Z" fill="#FAEF1E"/>
<path d="M20.7488 2.50512C21.3648 2.47781 25.0238 2.44851 25.5824 2.60502C25.459 2.67673 24.243 2.66414 24.0264 2.66511C23.0994 2.67648 22.1722 2.67776 21.2452 2.669C20.4776 2.66411 19.8065 2.67297 19.043 2.59109C19.5692 2.51446 20.2067 2.51635 20.7488 2.50512Z" fill="#FAEF1E"/>
<ellipse cx="14.9123" cy="11.1584" rx="8.91109" ry="0.148817" transform="rotate(-68.2483 14.9123 11.1584)" fill="#FFEC19"/>
</svg>
