<svg width="50" height="50" viewBox="0 0 50 50" fill="none" xmlns="http://www.w3.org/2000/svg">
<g filter="url(#filter0_i_3234_12149)">
<g clip-path="url(#clip0_3234_12149)">
<rect width="50" height="50" rx="8" fill="#9C83C7"/>
<path d="M4.75142 -3.59136C2.45355 -1.42358 0.655393 -0.570003 0.242434 -0.0100131C-0.507566 -2.26001 -0.257561 -15.7059 1.26276 -15.8386C2.99243 -15.9895 8.11621 -11.1386 10.7427 -7.44101C10.8889 -7.23518 10.5994 -7.66956 10.7427 -7.44101C10.7427 -7.44101 7.04928 -5.75914 4.75142 -3.59136Z" fill="url(#paint0_linear_3234_12149)"/>
<path d="M4.75142 -3.57915C2.45355 -1.41137 0.655393 -0.557796 0.242434 0.00219391C-0.507566 -2.24781 -0.257561 -15.6937 1.26276 -15.8264C2.99243 -15.9773 8.11621 -11.1264 10.7427 -7.4288C10.8889 -7.22297 10.5994 -7.65735 10.7427 -7.4288C10.7427 -7.4288 7.04928 -5.74693 4.75142 -3.57915Z" fill="url(#paint1_linear_3234_12149)"/>
<path d="M4.48646 5.00855C3.39222 5.15036 3.5284 10.5204 2.8445 11.3156C2.16059 12.1109 -2.45054 13.2351 -2.48996 14.3321C-2.52938 15.429 1.69536 17.0743 2.16059 17.8969C2.62582 18.7196 2.25627 23.0498 3.53413 23.3813C4.81198 23.7129 7.42448 18.9538 8.28045 18.6962C9.13642 18.4387 14.1221 20.8838 14.8812 19.9741C15.6404 19.0644 12.7933 15.7032 12.6927 14.8805C12.5921 14.0578 15.3685 10.493 14.8812 9.67032C14.3939 8.84764 9.95711 9.63319 9.13642 9.25899C8.31574 8.88479 5.58071 4.86673 4.48646 5.00855Z" fill="#C3AEE6"/>
<g filter="url(#filter1_f_3234_12149)">
<circle cx="45.9932" cy="31.0029" r="3" fill="#CD91D7"/>
</g>
<g filter="url(#filter2_f_3234_12149)">
<circle cx="4.4895" cy="31.0029" r="3" fill="#CD91D7"/>
</g>
<path fill-rule="evenodd" clip-rule="evenodd" d="M24.6725 28.6927C24.2228 28.3571 23.5173 28.1596 23.5878 27.7115C23.6584 27.2633 24.2739 27.0253 25.0099 27.0391C25.6089 27.0504 26.2839 27.2633 26.3638 27.7115C26.4438 28.1597 25.7758 28.3571 25.4385 28.6927C25.2072 30.4009 27.8773 31.0636 28.2145 31.0732C32.1498 31.1851 31.3536 29.1696 31.9158 29.9526C32.3312 30.5313 32.0024 30.9617 30.9905 31.2973C30.8835 31.8295 30.639 32.3658 30.3516 32.7803C30.0348 33.237 29.6659 33.5459 29.3712 33.5384C28.809 33.5243 28.2726 31.601 28.0477 31.601C26.9177 31.601 25.2347 30.5943 25.0099 30.5943C24.785 30.5943 23.2921 31.7487 22.1677 31.7487C21.9428 31.9725 21.2617 33.5384 20.8119 33.5384C20.6466 33.5384 20.4973 33.4477 20.3411 33.2607C20.1389 33.0186 19.9251 32.6153 19.6499 32.0386C19.5594 31.849 19.4623 31.6407 19.3568 31.4132C18.7946 31.1895 17.654 30.8479 18.2672 30.1767C19.2911 29.0562 17.9111 31.0732 21.5059 31.0732C21.8432 31.0732 24.9759 30.625 24.6725 28.6927ZM30.3516 31.745C30.3516 31.5209 28.8147 31.538 28.7322 31.745C28.6498 31.952 29.1451 33.0897 29.4262 33.0897C29.7074 33.0897 30.3516 31.9691 30.3516 31.745ZM21.4915 31.837C21.2504 31.7452 20.3116 31.6581 20.176 31.7477C20.0122 31.837 20.5363 33.0897 20.8173 33.0897C21.0983 33.0897 21.6075 31.8812 21.4915 31.837Z" fill="black"/>
<path d="M28.7322 31.745C28.8147 31.538 30.3516 31.5209 30.3516 31.745C30.3516 31.9691 29.7074 33.0897 29.4262 33.0897C29.1451 33.0897 28.6498 31.952 28.7322 31.745Z" fill="white"/>
<path d="M20.176 31.7477C20.3116 31.6581 21.2504 31.7452 21.4915 31.837C21.6075 31.8812 21.0983 33.0897 20.8173 33.0897C20.5363 33.0897 20.0122 31.837 20.176 31.7477Z" fill="white"/>
<path d="M21.2138 36.5936C21.9027 37.8968 23.1354 39.068 25.3411 39.0936C28.0114 39.1245 29.2585 37.274 29.8411 35.5386C29.8411 35.5386 28.5911 33.3434 25.5911 33.3434C22.5911 33.3434 21.2138 36.5936 21.2138 36.5936Z" fill="#F26C95"/>
<path d="M29.3712 33.5384C28.809 33.5243 28.2726 31.601 28.0477 31.601C26.9177 31.601 25.2347 30.5943 25.0099 30.5943C24.785 30.5943 23.2921 31.7487 22.1677 31.7487C21.9428 31.9725 21.2617 33.5384 20.8119 33.5384C20.6466 33.5384 20.4973 33.4477 20.3411 33.2607C20.3411 33.2607 20.3378 34.9364 21.2138 36.5936C21.2138 36.5936 22.5911 33.3434 25.5911 33.3434C28.5911 33.3434 29.8411 35.5386 29.8411 35.5386C30.3516 34.0177 30.3516 32.7803 30.3516 32.7803C30.0348 33.237 29.6659 33.5459 29.3712 33.5384Z" fill="#B62C60"/>
<path d="M30.9905 31.2973C30.8835 31.8295 30.639 32.3658 30.3516 32.7803C30.3516 32.7803 30.3516 34.0177 29.8411 35.5386C29.2585 37.274 28.0114 39.1245 25.3411 39.0936C23.1354 39.068 21.9027 37.8968 21.2138 36.5936C20.3378 34.9364 20.3411 33.2607 20.3411 33.2607C20.1389 33.0186 19.9251 32.6153 19.6499 32.0386C19.6499 32.0386 19.4699 39.4383 25.3411 39.5386C31.2122 39.6389 30.9905 31.2973 30.9905 31.2973Z" fill="black"/>
<path d="M46.1008 25.5474C46.1008 29.1373 43.3821 31.7974 40.3508 31.7974C37.3195 31.7974 34.6008 29.1373 34.6008 25.5474C34.6008 23.5474 35.1008 22.4768 35.1008 22.4768C35.2986 22.3908 35.5919 22.2615 35.9376 22.1054C36.762 21.7333 37.8845 21.2089 38.7225 20.7568L39.4325 20.3537C40.0468 19.9867 40.7196 19.5422 41.3508 19.1072L41.6008 19.2129C44.0911 19.8768 46.1008 22.4609 46.1008 25.5474Z" fill="black"/>
<path d="M41.6008 19.2129L41.445 19.5813L41.4708 19.5922L41.4978 19.5994L41.6008 19.2129ZM34.1972 22.4281C33.9932 22.5129 33.8967 22.7471 33.9815 22.951C34.0664 23.155 34.3005 23.2515 34.5045 23.1667L34.3508 22.7974L34.1972 22.4281ZM35.1008 22.4768L34.9414 22.1099L34.9414 22.1099L35.1008 22.4768ZM39.1008 20.5474L39.2988 20.895V20.895L39.1008 20.5474ZM44.0937 17.6152C44.2693 17.481 44.3028 17.23 44.1686 17.0544C44.0345 16.8789 43.7834 16.8454 43.6079 16.9796L43.8508 17.2974L44.0937 17.6152ZM35.9376 22.1054L36.1022 22.47L35.9376 22.1054ZM35.2488 21.9751C35.0472 22.0652 34.9567 22.3018 35.0468 22.5035C35.137 22.7052 35.3735 22.7956 35.5752 22.7055L35.412 22.3403L35.2488 21.9751ZM46.1008 25.5474H45.7008C45.7008 28.9357 43.1423 31.3974 40.3508 31.3974V31.7974V32.1974C43.6219 32.1974 46.5008 29.3388 46.5008 25.5474H46.1008ZM40.3508 31.7974V31.3974C37.5594 31.3974 35.0008 28.9357 35.0008 25.5474H34.6008H34.2008C34.2008 29.3388 37.0797 32.1974 40.3508 32.1974V31.7974ZM41.6008 19.2129L41.4978 19.5994C43.7972 20.2125 45.7008 22.6253 45.7008 25.5474H46.1008H46.5008C46.5008 22.2965 44.3849 19.5412 41.7039 18.8264L41.6008 19.2129ZM34.3508 22.7974C34.5045 23.1667 34.5045 23.1667 34.5045 23.1667C34.5045 23.1667 34.5045 23.1667 34.5045 23.1667C34.5045 23.1666 34.5046 23.1666 34.5046 23.1666C34.5046 23.1666 34.5047 23.1666 34.5048 23.1665C34.505 23.1665 34.5052 23.1664 34.5055 23.1662C34.5061 23.166 34.507 23.1656 34.5082 23.1651C34.5105 23.1641 34.514 23.1627 34.5186 23.1608C34.5277 23.157 34.5411 23.1514 34.5586 23.144C34.5936 23.1293 34.645 23.1077 34.7106 23.0798C34.8419 23.0241 35.0305 22.9435 35.2603 22.8436L35.1008 22.4768L34.9414 22.1099C34.714 22.2088 34.5276 22.2884 34.3982 22.3434C34.3335 22.3708 34.283 22.3921 34.2489 22.4064C34.2318 22.4136 34.2188 22.419 34.2101 22.4227C34.2057 22.4245 34.2024 22.4259 34.2003 22.4268C34.1992 22.4272 34.1984 22.4275 34.1979 22.4278C34.1976 22.4279 34.1974 22.428 34.1973 22.428C34.1972 22.428 34.1972 22.428 34.1972 22.4281C34.1972 22.4281 34.1972 22.4281 34.1972 22.4281C34.1972 22.4281 34.1972 22.4281 34.1972 22.4281C34.1972 22.4281 34.1972 22.4281 34.3508 22.7974ZM34.6008 25.5474H35.0008C35.0008 24.581 35.1216 23.8449 35.2397 23.356C35.2987 23.1114 35.3571 22.9286 35.3995 22.8095C35.4207 22.75 35.4379 22.7064 35.4492 22.6791C35.4548 22.6654 35.459 22.6558 35.4614 22.6503C35.4626 22.6475 35.4634 22.6458 35.4637 22.6451C35.4639 22.6447 35.4639 22.6446 35.4638 22.6448C35.4638 22.6449 35.4637 22.645 35.4636 22.6452C35.4636 22.6453 35.4635 22.6455 35.4635 22.6456C35.4634 22.6457 35.4634 22.6458 35.4634 22.6458C35.4633 22.6459 35.4633 22.6461 35.1008 22.4768C34.7384 22.3075 34.7383 22.3077 34.7383 22.3078C34.7383 22.3078 34.7382 22.308 34.7381 22.3081C34.7381 22.3083 34.738 22.3085 34.7378 22.3087C34.7376 22.3092 34.7374 22.3097 34.7371 22.3103C34.7365 22.3116 34.7359 22.313 34.7351 22.3148C34.7335 22.3182 34.7315 22.3227 34.729 22.3283C34.7241 22.3395 34.7176 22.3548 34.7095 22.3743C34.6934 22.4133 34.6716 22.469 34.6459 22.5411C34.5945 22.6853 34.528 22.8951 34.462 23.1682C34.3301 23.7146 34.2008 24.5138 34.2008 25.5474H34.6008ZM39.1008 20.5474L39.2988 20.895C39.4096 20.8318 39.5228 20.7657 39.6376 20.6971L39.4325 20.3537L39.2273 20.0103C39.1167 20.0764 39.0084 20.1397 38.9029 20.1998L39.1008 20.5474ZM39.4325 20.3537L39.6376 20.6971C40.2623 20.3238 40.943 19.874 41.5778 19.4365L41.3508 19.1072L41.1238 18.7778C40.4962 19.2103 39.8313 19.6495 39.2273 20.0103L39.4325 20.3537ZM41.3508 19.1072L41.5778 19.4365C42.2545 18.9702 42.8831 18.5151 43.3422 18.1769C43.5719 18.0077 43.7594 17.8675 43.8897 17.7695C43.9548 17.7205 44.0057 17.6821 44.0403 17.6558C44.0576 17.6427 44.0709 17.6326 44.0799 17.6257C44.0844 17.6223 44.0878 17.6197 44.0901 17.6179C44.0913 17.617 44.0922 17.6164 44.0928 17.6159C44.0931 17.6157 44.0933 17.6155 44.0935 17.6154C44.0935 17.6153 44.0936 17.6153 44.0937 17.6152C44.0937 17.6152 44.0937 17.6152 44.0937 17.6152C44.0937 17.6152 44.0937 17.6152 43.8508 17.2974C43.6079 16.9796 43.6079 16.9796 43.6079 16.9796C43.6079 16.9796 43.6079 16.9796 43.6079 16.9796C43.6079 16.9796 43.6078 16.9796 43.6078 16.9797C43.6077 16.9798 43.6075 16.9799 43.6072 16.9801C43.6067 16.9805 43.6059 16.9811 43.6048 16.9819C43.6027 16.9835 43.5995 16.986 43.5952 16.9893C43.5866 16.9958 43.5737 17.0056 43.5568 17.0185C43.523 17.0441 43.473 17.0819 43.4088 17.1302C43.2804 17.2268 43.095 17.3654 42.8677 17.5328C42.4129 17.8678 41.7915 18.3177 41.1238 18.7778L41.3508 19.1072ZM41.3508 19.1072L41.195 19.4756L41.445 19.5813L41.6008 19.2129L41.7566 18.8445L41.5066 18.7388L41.3508 19.1072ZM38.7225 20.7568L38.9124 21.1088C39.0454 21.0371 39.1747 20.9656 39.2988 20.895L39.1008 20.5474L38.9029 20.1998C38.7848 20.267 38.661 20.3355 38.5326 20.4048L38.7225 20.7568ZM38.7225 20.7568L38.92 21.1046L39.63 20.7015L39.4325 20.3537L39.235 20.0058L38.525 20.4089L38.7225 20.7568ZM35.1008 22.4768L35.2603 22.8436C35.4598 22.7569 35.7548 22.6268 36.1022 22.47L35.9376 22.1054L35.7731 21.7408C35.429 21.8962 35.1375 22.0247 34.9414 22.1099L35.1008 22.4768ZM35.9376 22.1054L36.1022 22.47C36.928 22.0972 38.0613 21.568 38.9124 21.1088L38.7225 20.7568L38.5326 20.4048C37.7077 20.8498 36.5959 21.3693 35.7731 21.7408L35.9376 22.1054ZM35.9376 22.1054L35.7745 21.7402L35.2488 21.9751L35.412 22.3403L35.5752 22.7055L36.1008 22.4706L35.9376 22.1054Z" fill="black"/>
<path d="M9.73105 31.1518C6.7037 30.9974 4.12287 28.2253 4.30417 24.6712C4.46005 21.6155 6.59771 19.1596 9.11824 18.6291L9.37326 18.5372C10.0933 19.0849 10.8709 19.6488 11.5476 20.0776C11.665 20.1521 11.7879 20.2278 11.9149 20.3043C12.7289 20.7946 13.8235 21.3709 14.628 21.7813C14.9654 21.9534 15.2517 22.0964 15.445 22.1916C15.445 22.1916 15.8902 23.277 15.7892 25.2571C15.6079 28.8111 12.7584 31.3063 9.73105 31.1518Z" fill="black"/>
<path d="M9.11824 18.6291L9.2539 19.0054L9.22778 19.0148L9.20062 19.0205L9.11824 18.6291ZM16.349 22.1857C16.5486 22.2802 16.6339 22.5187 16.5393 22.7184C16.4448 22.918 16.2063 23.0033 16.0066 22.9087L16.1778 22.5472L16.349 22.1857ZM15.445 22.1916L15.6218 21.8328L15.6218 21.8328L15.445 22.1916ZM11.5476 20.0776L11.3335 20.4155L11.3335 20.4155L11.5476 20.0776ZM9.37326 18.5372L9.61543 18.2188L9.61543 18.2188L9.37326 18.5372ZM6.7104 16.9242C6.54135 16.7819 6.5196 16.5296 6.66182 16.3606C6.80403 16.1915 7.05636 16.1698 7.22541 16.312L6.96791 16.6181L6.7104 16.9242ZM11.0125 20.2071C10.8257 20.0891 10.77 19.842 10.888 19.6553C11.006 19.4686 11.2531 19.4128 11.4399 19.5309L11.2262 19.869L11.0125 20.2071ZM14.628 21.7813L14.4462 22.1376L14.4462 22.1376L14.628 21.7813ZM15.3215 21.6836C15.5186 21.7833 15.5977 22.0239 15.498 22.221C15.3984 22.4182 15.1578 22.4973 14.9606 22.3976L15.1411 22.0406L15.3215 21.6836ZM4.30417 24.6712L4.70365 24.6916C4.53279 28.041 6.96039 30.61 9.75143 30.7524L9.73105 31.1518L9.71067 31.5513C6.44702 31.3848 3.71295 28.4095 3.90469 24.6508L4.30417 24.6712ZM9.73105 31.1518L9.75143 30.7524C12.5425 30.8947 15.2189 28.5862 15.3898 25.2367L15.7892 25.2571L16.1887 25.2775C15.997 29.0361 12.9743 31.7178 9.71067 31.5513L9.73105 31.1518ZM9.11824 18.6291L9.20062 19.0205C6.87172 19.5107 4.85103 21.8025 4.70365 24.6916L4.30417 24.6712L3.90469 24.6508C4.06907 21.4285 6.3237 18.8085 9.03586 18.2377L9.11824 18.6291ZM16.1778 22.5472C16.0066 22.9087 16.0066 22.9087 16.0066 22.9087C16.0066 22.9087 16.0066 22.9087 16.0066 22.9087C16.0066 22.9087 16.0066 22.9087 16.0065 22.9087C16.0065 22.9087 16.0064 22.9086 16.0063 22.9086C16.0062 22.9085 16.0059 22.9084 16.0056 22.9083C16.005 22.908 16.0042 22.9076 16.003 22.907C16.0007 22.9059 15.9973 22.9043 15.9929 22.9022C15.984 22.898 15.9708 22.8917 15.9537 22.8836C15.9195 22.8672 15.8693 22.8432 15.8051 22.8123C15.6768 22.7504 15.4926 22.661 15.2682 22.5504L15.445 22.1916L15.6218 21.8328C15.8438 21.9422 16.026 22.0306 16.1525 22.0916C16.2157 22.1221 16.265 22.1457 16.2984 22.1616C16.3151 22.1696 16.3279 22.1757 16.3364 22.1797C16.3406 22.1817 16.3438 22.1832 16.3459 22.1842C16.347 22.1847 16.3478 22.1851 16.3483 22.1854C16.3485 22.1855 16.3487 22.1856 16.3488 22.1856C16.3489 22.1856 16.3489 22.1857 16.349 22.1857C16.349 22.1857 16.349 22.1857 16.349 22.1857C16.349 22.1857 16.349 22.1857 16.349 22.1857C16.349 22.1857 16.349 22.1857 16.1778 22.5472ZM15.7892 25.2571L15.3898 25.2367C15.4385 24.2805 15.3551 23.5461 15.262 23.0566C15.2154 22.8117 15.1664 22.6279 15.1301 22.508C15.112 22.4481 15.097 22.4042 15.0872 22.3766C15.0823 22.3629 15.0786 22.3532 15.0765 22.3476C15.0754 22.3449 15.0747 22.3431 15.0745 22.3424C15.0743 22.3421 15.0743 22.342 15.0744 22.3421C15.0744 22.3422 15.0745 22.3424 15.0745 22.3426C15.0746 22.3427 15.0746 22.3428 15.0747 22.343C15.0747 22.343 15.0748 22.3432 15.0748 22.3432C15.0748 22.3433 15.0749 22.3434 15.445 22.1916C15.815 22.0398 15.8151 22.0399 15.8151 22.0401C15.8152 22.0401 15.8152 22.0403 15.8153 22.0404C15.8153 22.0406 15.8154 22.0408 15.8155 22.041C15.8157 22.0415 15.816 22.0421 15.8162 22.0427C15.8167 22.0439 15.8173 22.0454 15.818 22.0472C15.8194 22.0507 15.8212 22.0553 15.8234 22.061C15.8277 22.0723 15.8335 22.0878 15.8406 22.1076C15.8547 22.1471 15.8738 22.2035 15.8958 22.2763C15.9399 22.4218 15.9958 22.6331 16.0479 22.9071C16.1522 23.4552 16.2409 24.2536 16.1887 25.2775L15.7892 25.2571ZM11.5476 20.0776L11.3335 20.4155C10.6426 19.9777 9.85455 19.4059 9.13109 18.8555L9.37326 18.5372L9.61543 18.2188C10.3321 18.764 11.0992 19.3199 11.7617 19.7398L11.5476 20.0776ZM9.37326 18.5372L9.13109 18.8555C8.47884 18.3594 7.87405 17.8768 7.43259 17.5186C7.21175 17.3393 7.03153 17.191 6.90639 17.0874C6.84381 17.0356 6.79499 16.9949 6.76172 16.9671C6.74509 16.9532 6.73235 16.9426 6.72372 16.9353C6.71941 16.9317 6.71612 16.929 6.71389 16.9271C6.71278 16.9261 6.71193 16.9254 6.71134 16.9249C6.71105 16.9247 6.71083 16.9245 6.71067 16.9244C6.71059 16.9243 6.71053 16.9243 6.71048 16.9242C6.71046 16.9242 6.71044 16.9242 6.71043 16.9242C6.71041 16.9242 6.7104 16.9242 6.96791 16.6181C7.22541 16.312 7.22541 16.312 7.22541 16.312C7.22541 16.312 7.22542 16.312 7.22543 16.312C7.22545 16.312 7.22549 16.312 7.22555 16.3121C7.22566 16.3122 7.22584 16.3123 7.22609 16.3125C7.22658 16.313 7.22734 16.3136 7.22837 16.3145C7.23041 16.3162 7.23352 16.3188 7.23765 16.3222C7.2459 16.3292 7.25826 16.3395 7.2745 16.3531C7.30698 16.3802 7.35496 16.4202 7.41665 16.4712C7.54003 16.5734 7.71819 16.7201 7.93671 16.8974C8.37396 17.2523 8.97185 17.7293 9.61543 18.2188L9.37326 18.5372ZM9.37326 18.5372L9.50891 18.9135L9.2539 19.0054L9.11824 18.6291L8.98259 18.2528L9.2376 18.1609L9.37326 18.5372ZM11.9149 20.3043L11.7085 20.6469C11.5793 20.5691 11.4538 20.4918 11.3335 20.4155L11.5476 20.0776L11.7617 19.7398C11.8763 19.8124 11.9965 19.8865 12.1212 19.9616L11.9149 20.3043ZM11.9149 20.3043L11.7012 20.6424L11.0125 20.2071L11.2262 19.869L11.4399 19.5309L12.1286 19.9661L11.9149 20.3043ZM15.445 22.1916L15.2682 22.5504C15.0733 22.4544 14.7852 22.3106 14.4462 22.1376L14.628 21.7813L14.8098 21.425C15.1455 21.5963 15.4302 21.7384 15.6218 21.8328L15.445 22.1916ZM14.628 21.7813L14.4462 22.1376C13.6403 21.7264 12.5353 21.1449 11.7085 20.6469L11.9149 20.3043L12.1212 19.9616C12.9226 20.4443 14.0068 21.0153 14.8098 21.425L14.628 21.7813ZM14.628 21.7813L14.8084 21.4243L15.3215 21.6836L15.1411 22.0406L14.9606 22.3976L14.4476 22.1383L14.628 21.7813Z" fill="black"/>
<path d="M10.2524 23.3007C10.0338 24.3354 8.82085 25.0334 7.82106 24.8222C6.82127 24.6109 6.15704 23.6128 6.37568 22.5781C6.59432 21.5434 7.80717 20.8454 8.80696 21.0566C9.80675 21.2679 10.4711 22.266 10.2524 23.3007Z" fill="#FAFAF9"/>
<path d="M39.0273 24.5548C39.1386 25.5179 38.2596 26.481 37.3016 26.5917C36.3437 26.7023 35.4528 26.0308 35.3415 25.0678C35.2303 24.1047 36.1092 23.1415 37.0671 23.0309C38.0251 22.9202 38.9161 23.5917 39.0273 24.5548Z" fill="#FAFAF9"/>
</g>
</g>
<defs>
<filter id="filter0_i_3234_12149" x="0" y="0" width="50" height="50" filterUnits="userSpaceOnUse" color-interpolation-filters="sRGB">
<feFlood flood-opacity="0" result="BackgroundImageFix"/>
<feBlend mode="normal" in="SourceGraphic" in2="BackgroundImageFix" result="shape"/>
<feColorMatrix in="SourceAlpha" type="matrix" values="0 0 0 0 0 0 0 0 0 0 0 0 0 0 0 0 0 0 127 0" result="hardAlpha"/>
<feOffset/>
<feGaussianBlur stdDeviation="5"/>
<feComposite in2="hardAlpha" operator="arithmetic" k2="-1" k3="1"/>
<feColorMatrix type="matrix" values="0 0 0 0 0 0 0 0 0 0 0 0 0 0 0 0 0 0 0.1 0"/>
<feBlend mode="normal" in2="shape" result="effect1_innerShadow_3234_12149"/>
</filter>
<filter id="filter1_f_3234_12149" x="40.9932" y="26.0029" width="10" height="10" filterUnits="userSpaceOnUse" color-interpolation-filters="sRGB">
<feFlood flood-opacity="0" result="BackgroundImageFix"/>
<feBlend mode="normal" in="SourceGraphic" in2="BackgroundImageFix" result="shape"/>
<feGaussianBlur stdDeviation="1" result="effect1_foregroundBlur_3234_12149"/>
</filter>
<filter id="filter2_f_3234_12149" x="-0.510497" y="26.0029" width="10" height="10" filterUnits="userSpaceOnUse" color-interpolation-filters="sRGB">
<feFlood flood-opacity="0" result="BackgroundImageFix"/>
<feBlend mode="normal" in="SourceGraphic" in2="BackgroundImageFix" result="shape"/>
<feGaussianBlur stdDeviation="1" result="effect1_foregroundBlur_3234_12149"/>
</filter>
<linearGradient id="paint0_linear_3234_12149" x1="0.053133" y1="-16.8878" x2="10.941" y2="-0.901521" gradientUnits="userSpaceOnUse">
<stop offset="0.137215" stop-color="#543291"/>
<stop offset="0.401763" stop-color="#A087CA"/>
<stop offset="1" stop-color="#A087CA"/>
</linearGradient>
<linearGradient id="paint1_linear_3234_12149" x1="0.053133" y1="-16.8756" x2="10.941" y2="-0.889314" gradientUnits="userSpaceOnUse">
<stop offset="0.137215" stop-color="#543291"/>
<stop offset="0.401763" stop-color="#A087CA"/>
<stop offset="1" stop-color="#A087CA"/>
</linearGradient>
<clipPath id="clip0_3234_12149">
<rect width="50" height="50" rx="8" fill="white"/>
</clipPath>
</defs>
</svg>
