<svg width="257" height="340" viewBox="0 0 257 340" fill="none" xmlns="http://www.w3.org/2000/svg">
<g filter="url(#filter0_d_1510_3456)">
<rect x="8" y="6" width="237" height="320" rx="20" fill="white" shape-rendering="crispEdges"/>
<rect x="28" y="26" width="197" height="102" rx="16" fill="#F7F8FA"/>
<path d="M72.6858 55.106C82.8897 54.8968 93.2015 55.2683 103.418 55.0863C106.257 54.9346 109.02 55.6645 111.147 57.6717C114.254 60.6026 113.744 65.8778 113.759 69.7891C113.779 73.3532 113.775 76.9175 113.748 80.4815C113.709 86.821 113.744 93.2336 113.853 99.5696C113.883 101.316 112.585 104.196 111.306 105.37C108.075 108.332 105.238 108.228 101.265 108.227C96.5645 108.205 91.8641 108.228 87.1642 108.295C83.4437 108.299 79.7232 108.281 76.0029 108.243C69.8104 108.233 63.7134 109.24 60.4987 102.209C60.269 101.706 60.1449 100.216 60.1355 99.6618C59.9395 88.1826 59.9895 76.6855 60.0777 65.2047C60.1015 62.1243 60.2007 60.3675 62.4891 58.092C65.6726 54.9266 68.5879 55.1142 72.6858 55.106Z" fill="#E7DBD0"/>
<path d="M68.7088 57.2345C69.2219 57.1496 72.1156 57.1876 72.7376 57.1872L82.1075 57.1877L97.6713 57.1856C100.385 57.1862 103.28 57.1016 105.946 57.2882C108.569 57.5377 111.104 59.9139 111.393 62.5379C111.665 65.0034 111.552 67.7254 111.557 70.1996C111.605 75.0716 111.605 79.9439 111.558 84.8158L111.58 94.8242C111.582 97.595 111.966 100.926 110.219 103.282C109.031 104.886 107.533 105.455 105.626 105.751C105.534 105.764 105.442 105.777 105.349 105.787C103.86 105.961 101.219 105.889 99.6613 105.887L89.8325 105.881L76.2027 105.893C75.484 105.893 74.7317 105.917 74.0176 105.892C70.3904 105.765 66.0223 106.535 63.5291 103.226C62.0666 101.285 62.213 99.7853 62.2237 97.4959C62.231 95.9365 62.2311 94.3723 62.2292 92.8244L62.2107 78.1417L62.2202 68.3804C62.2244 64.9991 61.7387 60.716 65.0859 58.5177C66.1899 57.7926 67.3861 57.3566 68.7088 57.2345Z" fill="#FEFCFA"/>
<path d="M75.5752 70.7322C75.7067 70.7035 75.8398 70.6818 75.9736 70.667C76.6891 70.5924 78.583 70.6382 79.351 70.6382L86.1402 70.6395L92.9218 70.6254C98.9611 70.6159 98.4445 70.5161 98.4347 76.5652L98.4209 83.7515C98.4035 86.4434 98.4637 89.1327 98.3709 91.826C98.2597 93.5801 97.293 93.8781 95.8683 93.9837C92.3311 94.2457 92.4802 92.5749 92.5141 89.7024C92.5272 88.5802 92.5375 87.0928 92.5452 85.8801C92.5446 82.6007 92.5145 79.3215 92.4547 76.0428L82.4435 76.0341C80.4025 76.0387 76.9174 76.2659 75.0484 75.7359C73.7383 75.3643 73.094 71.4918 75.4035 70.753L75.5752 70.7322Z" fill="#433C3E"/>
<path d="M75.4034 70.7532L75.5751 70.7325C76.4791 70.8341 79.124 70.7606 80.2189 70.7576L88.8756 70.735C90.4928 70.7314 92.6514 70.6823 94.2273 70.7987C93.804 70.8192 93.4407 70.8091 93.0522 70.9836L93.1288 71.0841C93.4992 71.1218 93.8705 71.1489 94.2424 71.1651C93.9378 71.2926 89.9503 71.404 89.5971 71.3575C87.7685 71.1171 75.8844 71.8813 75.4034 70.7532Z" fill="#070407"/>
<path d="M169.229 80.1503C170.339 80.0006 171.806 80.122 172.912 80.1336C185.141 80.2619 195.426 87.8081 194.433 100.964C194.03 106.316 192.216 109.963 188.188 113.664C182.73 118.68 175.508 119.413 168.437 118.99C166.028 118.797 163.58 118.184 161.236 117.622C158.832 118.615 154.368 120.396 151.665 119.921C151.17 119.834 150.911 119.247 150.666 118.811C151.707 116.894 152.517 114.374 153.474 112.772C150.136 109.551 148.116 105.203 147.808 100.574C147.538 96.1495 149.57 90.2972 152.574 86.9062C155.229 83.9094 158.991 82.0385 162.816 80.9344C164.423 80.4704 167.5 80.2525 169.229 80.1503Z" fill="#D2E4BA"/>
<path d="M165.846 90.0202C168.294 90.1046 168.093 90.893 168.141 93.0986C168.172 94.5447 168.133 96.0043 168.113 97.4508C170.401 95.8402 174.191 90.5467 176.513 90.0618C176.936 89.9732 177.444 89.9594 177.815 90.2166C178.18 90.4684 178.44 91.0085 178.506 91.4368C178.666 92.4682 174.248 96.2161 173.408 97.0291C172.95 97.4734 172.539 97.9406 172.145 98.4426C172.862 99.5189 174.068 100.762 174.957 101.728C176.079 102.925 177.16 104.159 178.201 105.426C179.106 106.571 180.03 108.388 177.641 108.823C176.018 108.942 175.178 107.516 174.3 106.658C172.64 105.034 171.199 102.44 169.628 100.949C169.307 101.18 168.716 101.608 168.513 101.936C167.634 103.356 168.557 107.006 167.78 108.287C167.597 108.592 167.297 108.81 166.95 108.892C166.219 109.067 164.504 108.759 164.344 107.851C164.138 106.776 164.174 105.625 164.211 104.528C164.354 100.298 164.133 96.0666 164.262 91.8392C164.306 90.3999 164.565 90.2607 165.846 90.0202Z" fill="#437041"/>
<path d="M170.286 34.016C172.263 33.9571 174.243 34.0608 176.204 34.3262C177.843 34.5735 179.461 34.9463 181.044 35.4413C185.801 36.8797 188.497 38.8875 191.348 42.8625C197.09 50.8687 194.552 63.1468 186.656 68.7132C181.15 72.595 172.822 73.3548 166.44 72.3624C165.122 72.2851 162.436 71.5641 161.111 71.1845C160.275 71.408 158.622 72.1061 157.748 72.42C155.583 73.1962 153.595 73.7798 151.298 74.0585C149.778 73.2554 149.914 72.52 150.973 71.2443C152.185 69.7859 152.784 68.6323 153.45 66.8751C150.257 63.2051 147.958 58.497 147.872 53.617C147.794 49.1837 149.711 43.6664 152.873 40.508C153.682 39.7005 154.763 38.5266 155.711 37.9203C159.974 35.1919 165.345 34.1654 170.286 34.016Z" fill="#D7E8F6"/>
<path d="M170.761 43.6868C172.913 43.486 176.074 44.1306 177.566 45.8222C178.348 46.7187 178.672 47.9214 177.552 48.7233C175.602 50.1208 174.669 47.0502 172.286 46.9321C169.146 46.7767 166.997 48.8693 166.404 51.7793C166.022 53.6542 166.448 56.3422 167.641 57.8197C168.564 58.9547 169.901 59.6743 171.357 59.8186C173.048 59.9921 174.256 59.4966 175.533 58.4384C175.766 57.4885 175.715 56.6357 175.702 55.6688C173.918 55.6761 170.882 56.1244 171.536 53.395C171.652 52.9099 171.781 52.7942 172.186 52.5384C173.203 52.3535 177.808 52.2114 178.887 52.6862C179.052 52.7591 179.183 53.304 179.187 53.5348C179.159 55.3587 179.459 58.0513 178.997 59.7762C177.991 61.8769 175.061 62.6406 173.142 62.917C163.424 64.3166 159.556 53.7833 164.626 46.695C165.863 44.9655 168.549 43.8839 170.761 43.6868Z" fill="#3660A1"/>
<path d="M133.644 56.8845C133.681 56.8822 133.718 56.8802 133.755 56.8786C134.859 56.8312 141.692 57.4187 141.448 58.9932C141.138 60.9936 139.585 64.2352 138.396 65.9486C137.853 66.7314 136.811 65.4871 136.528 65.0947C136.452 64.198 136.53 63.4979 136.62 62.6062C135.022 63.5274 133.906 64.5714 132.453 65.6462C130.214 67.3023 128.191 69.0867 126.086 70.9078C125.359 71.5702 122.168 74.6514 121.435 74.5496C120.905 74.2328 120.595 73.5676 120.305 73.0251C121.421 71.1333 125.646 68.0736 127.299 66.3702C129.636 63.9616 132.524 62.0403 135.188 60.0217C133.768 59.5413 131.637 58.2472 133.644 56.8845Z" fill="#9AB7D2"/>
<path d="M121.907 84.5586C123.053 84.8482 130.027 90.4218 131.703 91.5664C133.328 92.6908 135.081 93.6197 136.923 94.3337C136.475 93.2414 135.905 92.0394 137.147 91.2318C137.448 91.036 137.679 90.8796 138.056 90.9867C139.052 91.8399 140.907 95.1387 141.475 96.4665C141.968 97.6204 141.629 98.6611 140.33 99.0305C138.968 99.4407 133.669 101.205 132.878 100.011C132.756 99.8276 132.711 99.6031 132.752 99.3862C132.936 98.4397 134.546 97.4349 135.332 96.8927C134.724 96.6124 133.701 95.9558 133.084 95.5951C129.909 93.7393 127.051 91.5337 124.128 89.3162C123.029 88.45 121.657 87.7425 120.732 86.689C120.142 86.0168 121.417 84.8882 121.907 84.5586Z" fill="#9AB7D2"/>
<path d="M35.408 162L31.344 157.024V162H29.104V150.832H31.344V155.84L35.408 150.832H38.112L33.504 156.368L38.24 162H35.408ZM43.6494 162.144C42.796 162.144 42.028 161.957 41.3454 161.584C40.6627 161.2 40.124 160.661 39.7294 159.968C39.3454 159.275 39.1534 158.475 39.1534 157.568C39.1534 156.661 39.3507 155.861 39.7454 155.168C40.1507 154.475 40.7 153.941 41.3934 153.568C42.0867 153.184 42.86 152.992 43.7134 152.992C44.5667 152.992 45.34 153.184 46.0334 153.568C46.7267 153.941 47.2707 154.475 47.6654 155.168C48.0707 155.861 48.2734 156.661 48.2734 157.568C48.2734 158.475 48.0654 159.275 47.6494 159.968C47.244 160.661 46.6894 161.2 45.9854 161.584C45.292 161.957 44.5134 162.144 43.6494 162.144ZM43.6494 160.192C44.0547 160.192 44.4334 160.096 44.7854 159.904C45.148 159.701 45.436 159.403 45.6494 159.008C45.8627 158.613 45.9694 158.133 45.9694 157.568C45.9694 156.725 45.7454 156.08 45.2974 155.632C44.86 155.173 44.3214 154.944 43.6814 154.944C43.0414 154.944 42.5027 155.173 42.0654 155.632C41.6387 156.08 41.4254 156.725 41.4254 157.568C41.4254 158.411 41.6334 159.061 42.0494 159.52C42.476 159.968 43.0094 160.192 43.6494 160.192ZM52.1565 154.512C52.4445 154.043 52.8178 153.675 53.2765 153.408C53.7458 153.141 54.2792 153.008 54.8765 153.008V155.36H54.2845C53.5805 155.36 53.0472 155.525 52.6845 155.856C52.3325 156.187 52.1565 156.763 52.1565 157.584V162H49.9165V153.136H52.1565V154.512ZM64.6253 157.376C64.6253 157.696 64.6039 157.984 64.5613 158.24H58.0813C58.1346 158.88 58.3586 159.381 58.7533 159.744C59.1479 160.107 59.6333 160.288 60.2093 160.288C61.0413 160.288 61.6333 159.931 61.9853 159.216H64.4013C64.1453 160.069 63.6546 160.773 62.9293 161.328C62.2039 161.872 61.3133 162.144 60.2573 162.144C59.4039 162.144 58.6359 161.957 57.9533 161.584C57.2813 161.2 56.7533 160.661 56.3693 159.968C55.9959 159.275 55.8092 158.475 55.8092 157.568C55.8092 156.651 55.9959 155.845 56.3693 155.152C56.7426 154.459 57.2653 153.925 57.9373 153.552C58.6093 153.179 59.3826 152.992 60.2573 152.992C61.0999 152.992 61.8519 153.173 62.5133 153.536C63.1853 153.899 63.7026 154.416 64.0653 155.088C64.4386 155.749 64.6253 156.512 64.6253 157.376ZM62.3053 156.736C62.2946 156.16 62.0866 155.701 61.6813 155.36C61.2759 155.008 60.7799 154.832 60.1933 154.832C59.6386 154.832 59.1693 155.003 58.7853 155.344C58.4119 155.675 58.1826 156.139 58.0973 156.736H62.3053ZM65.6842 157.536C65.6842 156.64 65.8602 155.845 66.2122 155.152C66.5749 154.459 67.0603 153.925 67.6683 153.552C68.2869 153.179 68.9749 152.992 69.7323 152.992C70.3936 152.992 70.9696 153.125 71.4603 153.392C71.9616 153.659 72.3616 153.995 72.6603 154.4V153.136H74.9163V162H72.6603V160.704C72.3723 161.12 71.9723 161.467 71.4603 161.744C70.9589 162.011 70.3776 162.144 69.7163 162.144C68.9696 162.144 68.2869 161.952 67.6683 161.568C67.0603 161.184 66.5749 160.645 66.2122 159.952C65.8602 159.248 65.6842 158.443 65.6842 157.536ZM72.6603 157.568C72.6603 157.024 72.5536 156.56 72.3403 156.176C72.1269 155.781 71.8389 155.483 71.4763 155.28C71.1136 155.067 70.7243 154.96 70.3083 154.96C69.8923 154.96 69.5083 155.061 69.1562 155.264C68.8043 155.467 68.5163 155.765 68.2923 156.16C68.0789 156.544 67.9723 157.003 67.9723 157.536C67.9723 158.069 68.0789 158.539 68.2923 158.944C68.5163 159.339 68.8043 159.643 69.1562 159.856C69.5189 160.069 69.9029 160.176 70.3083 160.176C70.7243 160.176 71.1136 160.075 71.4763 159.872C71.8389 159.659 72.1269 159.36 72.3403 158.976C72.5536 158.581 72.6603 158.112 72.6603 157.568ZM82.016 153.008C83.072 153.008 83.9253 153.344 84.576 154.016C85.2267 154.677 85.552 155.605 85.552 156.8V162H83.312V157.104C83.312 156.4 83.136 155.861 82.784 155.488C82.432 155.104 81.952 154.912 81.344 154.912C80.7253 154.912 80.2347 155.104 79.872 155.488C79.52 155.861 79.344 156.4 79.344 157.104V162H77.104V153.136H79.344V154.24C79.6427 153.856 80.0213 153.557 80.48 153.344C80.9493 153.12 81.4613 153.008 82.016 153.008ZM95.3506 162.112C94.572 162.112 93.868 161.979 93.2386 161.712C92.62 161.445 92.1293 161.061 91.7666 160.56C91.404 160.059 91.2173 159.467 91.2066 158.784H93.6066C93.6386 159.243 93.7986 159.605 94.0866 159.872C94.3853 160.139 94.7906 160.272 95.3026 160.272C95.8253 160.272 96.236 160.149 96.5346 159.904C96.8333 159.648 96.9826 159.317 96.9826 158.912C96.9826 158.581 96.8813 158.309 96.6786 158.096C96.476 157.883 96.22 157.717 95.9106 157.6C95.612 157.472 95.196 157.333 94.6626 157.184C93.9373 156.971 93.3453 156.763 92.8866 156.56C92.4386 156.347 92.0493 156.032 91.7186 155.616C91.3986 155.189 91.2386 154.624 91.2386 153.92C91.2386 153.259 91.404 152.683 91.7346 152.192C92.0653 151.701 92.5293 151.328 93.1266 151.072C93.724 150.805 94.4066 150.672 95.1746 150.672C96.3266 150.672 97.26 150.955 97.9746 151.52C98.7 152.075 99.1 152.853 99.1746 153.856H96.7106C96.6893 153.472 96.524 153.157 96.2146 152.912C95.916 152.656 95.516 152.528 95.0146 152.528C94.5773 152.528 94.2253 152.64 93.9586 152.864C93.7026 153.088 93.5746 153.413 93.5746 153.84C93.5746 154.139 93.6706 154.389 93.8626 154.592C94.0653 154.784 94.3106 154.944 94.5986 155.072C94.8973 155.189 95.3133 155.328 95.8466 155.488C96.572 155.701 97.164 155.915 97.6226 156.128C98.0813 156.341 98.476 156.661 98.8066 157.088C99.1373 157.515 99.3026 158.075 99.3026 158.768C99.3026 159.365 99.148 159.92 98.8386 160.432C98.5293 160.944 98.076 161.355 97.4786 161.664C96.8813 161.963 96.172 162.112 95.3506 162.112ZM105.181 162.144C104.327 162.144 103.559 161.957 102.877 161.584C102.194 161.2 101.655 160.661 101.261 159.968C100.877 159.275 100.685 158.475 100.685 157.568C100.685 156.661 100.882 155.861 101.277 155.168C101.682 154.475 102.231 153.941 102.925 153.568C103.618 153.184 104.391 152.992 105.245 152.992C106.098 152.992 106.871 153.184 107.565 153.568C108.258 153.941 108.802 154.475 109.197 155.168C109.602 155.861 109.805 156.661 109.805 157.568C109.805 158.475 109.597 159.275 109.181 159.968C108.775 160.661 108.221 161.2 107.517 161.584C106.823 161.957 106.045 162.144 105.181 162.144ZM105.181 160.192C105.586 160.192 105.965 160.096 106.317 159.904C106.679 159.701 106.967 159.403 107.181 159.008C107.394 158.613 107.501 158.133 107.501 157.568C107.501 156.725 107.277 156.08 106.829 155.632C106.391 155.173 105.853 154.944 105.213 154.944C104.573 154.944 104.034 155.173 103.597 155.632C103.17 156.08 102.957 156.725 102.957 157.568C102.957 158.411 103.165 159.061 103.581 159.52C104.007 159.968 104.541 160.192 105.181 160.192ZM119.816 153.136V162H117.56V160.88C117.272 161.264 116.893 161.568 116.424 161.792C115.965 162.005 115.464 162.112 114.92 162.112C114.226 162.112 113.613 161.968 113.08 161.68C112.546 161.381 112.125 160.949 111.816 160.384C111.517 159.808 111.368 159.125 111.368 158.336V153.136H113.608V158.016C113.608 158.72 113.784 159.264 114.136 159.648C114.488 160.021 114.968 160.208 115.576 160.208C116.194 160.208 116.68 160.021 117.032 159.648C117.384 159.264 117.56 158.72 117.56 158.016V153.136H119.816ZM126.938 153.008C127.994 153.008 128.847 153.344 129.498 154.016C130.149 154.677 130.474 155.605 130.474 156.8V162H128.234V157.104C128.234 156.4 128.058 155.861 127.706 155.488C127.354 155.104 126.874 154.912 126.266 154.912C125.647 154.912 125.157 155.104 124.794 155.488C124.442 155.861 124.266 156.4 124.266 157.104V162H122.026V153.136H124.266V154.24C124.565 153.856 124.943 153.557 125.402 153.344C125.871 153.12 126.383 153.008 126.938 153.008ZM132.028 157.536C132.028 156.64 132.204 155.845 132.556 155.152C132.919 154.459 133.409 153.925 134.028 153.552C134.647 153.179 135.335 152.992 136.092 152.992C136.668 152.992 137.217 153.12 137.74 153.376C138.263 153.621 138.679 153.952 138.988 154.368V150.16H141.26V162H138.988V160.688C138.711 161.125 138.321 161.477 137.82 161.744C137.319 162.011 136.737 162.144 136.076 162.144C135.329 162.144 134.647 161.952 134.028 161.568C133.409 161.184 132.919 160.645 132.556 159.952C132.204 159.248 132.028 158.443 132.028 157.536ZM139.004 157.568C139.004 157.024 138.897 156.56 138.684 156.176C138.471 155.781 138.183 155.483 137.82 155.28C137.457 155.067 137.068 154.96 136.652 154.96C136.236 154.96 135.852 155.061 135.5 155.264C135.148 155.467 134.86 155.765 134.636 156.16C134.423 156.544 134.316 157.003 134.316 157.536C134.316 158.069 134.423 158.539 134.636 158.944C134.86 159.339 135.148 159.643 135.5 159.856C135.863 160.069 136.247 160.176 136.652 160.176C137.068 160.176 137.457 160.075 137.82 159.872C138.183 159.659 138.471 159.36 138.684 158.976C138.897 158.581 139.004 158.112 139.004 157.568ZM146.84 162.144C146.114 162.144 145.464 162.016 144.888 161.76C144.312 161.493 143.853 161.136 143.512 160.688C143.181 160.24 143 159.744 142.968 159.2H145.224C145.266 159.541 145.432 159.824 145.72 160.048C146.018 160.272 146.386 160.384 146.824 160.384C147.25 160.384 147.581 160.299 147.816 160.128C148.061 159.957 148.184 159.739 148.184 159.472C148.184 159.184 148.034 158.971 147.736 158.832C147.448 158.683 146.984 158.523 146.344 158.352C145.682 158.192 145.138 158.027 144.712 157.856C144.296 157.685 143.933 157.424 143.624 157.072C143.325 156.72 143.176 156.245 143.176 155.648C143.176 155.157 143.314 154.709 143.592 154.304C143.88 153.899 144.285 153.579 144.808 153.344C145.341 153.109 145.965 152.992 146.68 152.992C147.736 152.992 148.578 153.259 149.208 153.792C149.837 154.315 150.184 155.024 150.248 155.92H148.104C148.072 155.568 147.922 155.291 147.656 155.088C147.4 154.875 147.053 154.768 146.616 154.768C146.21 154.768 145.896 154.843 145.672 154.992C145.458 155.141 145.352 155.349 145.352 155.616C145.352 155.915 145.501 156.144 145.8 156.304C146.098 156.453 146.562 156.608 147.192 156.768C147.832 156.928 148.36 157.093 148.776 157.264C149.192 157.435 149.549 157.701 149.848 158.064C150.157 158.416 150.317 158.885 150.328 159.472C150.328 159.984 150.184 160.443 149.896 160.848C149.618 161.253 149.213 161.573 148.68 161.808C148.157 162.032 147.544 162.144 146.84 162.144ZM155.435 156.4C155.435 155.301 155.68 154.32 156.171 153.456C156.672 152.581 157.35 151.904 158.203 151.424C159.067 150.933 160.032 150.688 161.099 150.688C162.347 150.688 163.44 151.008 164.379 151.648C165.318 152.288 165.974 153.173 166.347 154.304H163.771C163.515 153.771 163.152 153.371 162.683 153.104C162.224 152.837 161.691 152.704 161.083 152.704C160.432 152.704 159.851 152.859 159.339 153.168C158.838 153.467 158.443 153.893 158.155 154.448C157.878 155.003 157.739 155.653 157.739 156.4C157.739 157.136 157.878 157.787 158.155 158.352C158.443 158.907 158.838 159.339 159.339 159.648C159.851 159.947 160.432 160.096 161.083 160.096C161.691 160.096 162.224 159.963 162.683 159.696C163.152 159.419 163.515 159.013 163.771 158.48H166.347C165.974 159.621 165.318 160.512 164.379 161.152C163.451 161.781 162.358 162.096 161.099 162.096C160.032 162.096 159.067 161.856 158.203 161.376C157.35 160.885 156.672 160.208 156.171 159.344C155.68 158.48 155.435 157.499 155.435 156.4ZM167.684 157.536C167.684 156.64 167.86 155.845 168.212 155.152C168.575 154.459 169.06 153.925 169.668 153.552C170.287 153.179 170.975 152.992 171.732 152.992C172.394 152.992 172.97 153.125 173.46 153.392C173.962 153.659 174.362 153.995 174.66 154.4V153.136H176.916V162H174.66V160.704C174.372 161.12 173.972 161.467 173.46 161.744C172.959 162.011 172.378 162.144 171.716 162.144C170.97 162.144 170.287 161.952 169.668 161.568C169.06 161.184 168.575 160.645 168.212 159.952C167.86 159.248 167.684 158.443 167.684 157.536ZM174.66 157.568C174.66 157.024 174.554 156.56 174.34 156.176C174.127 155.781 173.839 155.483 173.476 155.28C173.114 155.067 172.724 154.96 172.308 154.96C171.892 154.96 171.508 155.061 171.156 155.264C170.804 155.467 170.516 155.765 170.292 156.16C170.079 156.544 169.972 157.003 169.972 157.536C169.972 158.069 170.079 158.539 170.292 158.944C170.516 159.339 170.804 159.643 171.156 159.856C171.519 160.069 171.903 160.176 172.308 160.176C172.724 160.176 173.114 160.075 173.476 159.872C173.839 159.659 174.127 159.36 174.34 158.976C174.554 158.581 174.66 158.112 174.66 157.568ZM184.016 153.008C185.072 153.008 185.925 153.344 186.576 154.016C187.227 154.677 187.552 155.605 187.552 156.8V162H185.312V157.104C185.312 156.4 185.136 155.861 184.784 155.488C184.432 155.104 183.952 154.912 183.344 154.912C182.725 154.912 182.235 155.104 181.872 155.488C181.52 155.861 181.344 156.4 181.344 157.104V162H179.104V153.136H181.344V154.24C181.643 153.856 182.021 153.557 182.48 153.344C182.949 153.12 183.461 153.008 184.016 153.008ZM28.56 180.4C28.56 179.301 28.8053 178.32 29.296 177.456C29.7973 176.581 30.4747 175.904 31.328 175.424C32.192 174.933 33.1573 174.688 34.224 174.688C35.472 174.688 36.5653 175.008 37.504 175.648C38.4427 176.288 39.0987 177.173 39.472 178.304H36.896C36.64 177.771 36.2773 177.371 35.808 177.104C35.3493 176.837 34.816 176.704 34.208 176.704C33.5573 176.704 32.976 176.859 32.464 177.168C31.9627 177.467 31.568 177.893 31.28 178.448C31.0027 179.003 30.864 179.653 30.864 180.4C30.864 181.136 31.0027 181.787 31.28 182.352C31.568 182.907 31.9627 183.339 32.464 183.648C32.976 183.947 33.5573 184.096 34.208 184.096C34.816 184.096 35.3493 183.963 35.808 183.696C36.2773 183.419 36.64 183.013 36.896 182.48H39.472C39.0987 183.621 38.4427 184.512 37.504 185.152C36.576 185.781 35.4827 186.096 34.224 186.096C33.1573 186.096 32.192 185.856 31.328 185.376C30.4747 184.885 29.7973 184.208 29.296 183.344C28.8053 182.48 28.56 181.499 28.56 180.4ZM46.3773 177.008C47.0493 177.008 47.6466 177.157 48.1693 177.456C48.6919 177.744 49.0973 178.176 49.3853 178.752C49.6839 179.317 49.8333 180 49.8333 180.8V186H47.5933V181.104C47.5933 180.4 47.4173 179.861 47.0653 179.488C46.7133 179.104 46.2333 178.912 45.6253 178.912C45.0066 178.912 44.5159 179.104 44.1533 179.488C43.8013 179.861 43.6253 180.4 43.6253 181.104V186H41.3853V174.16H43.6253V178.24C43.9133 177.856 44.2973 177.557 44.7773 177.344C45.2573 177.12 45.7906 177.008 46.3773 177.008ZM51.3874 181.536C51.3874 180.64 51.5634 179.845 51.9154 179.152C52.278 178.459 52.7634 177.925 53.3714 177.552C53.99 177.179 54.678 176.992 55.4354 176.992C56.0967 176.992 56.6727 177.125 57.1634 177.392C57.6647 177.659 58.0647 177.995 58.3634 178.4V177.136H60.6194V186H58.3634V184.704C58.0754 185.12 57.6754 185.467 57.1634 185.744C56.662 186.011 56.0807 186.144 55.4194 186.144C54.6727 186.144 53.99 185.952 53.3714 185.568C52.7634 185.184 52.278 184.645 51.9154 183.952C51.5634 183.248 51.3874 182.443 51.3874 181.536ZM58.3634 181.568C58.3634 181.024 58.2567 180.56 58.0434 180.176C57.83 179.781 57.542 179.483 57.1794 179.28C56.8167 179.067 56.4274 178.96 56.0114 178.96C55.5954 178.96 55.2114 179.061 54.8594 179.264C54.5074 179.467 54.2194 179.765 53.9954 180.16C53.782 180.544 53.6754 181.003 53.6754 181.536C53.6754 182.069 53.782 182.539 53.9954 182.944C54.2194 183.339 54.5074 183.643 54.8594 183.856C55.222 184.069 55.606 184.176 56.0114 184.176C56.4274 184.176 56.8167 184.075 57.1794 183.872C57.542 183.659 57.83 183.36 58.0434 182.976C58.2567 182.581 58.3634 182.112 58.3634 181.568ZM67.7191 177.008C68.7751 177.008 69.6285 177.344 70.2791 178.016C70.9298 178.677 71.2551 179.605 71.2551 180.8V186H69.0151V181.104C69.0151 180.4 68.8391 179.861 68.4871 179.488C68.1351 179.104 67.6551 178.912 67.0471 178.912C66.4285 178.912 65.9378 179.104 65.5751 179.488C65.2231 179.861 65.0471 180.4 65.0471 181.104V186H62.8071V177.136H65.0471V178.24C65.3458 177.856 65.7245 177.557 66.1831 177.344C66.6525 177.12 67.1645 177.008 67.7191 177.008ZM76.8573 176.992C77.5186 176.992 78.0999 177.125 78.6013 177.392C79.1026 177.648 79.4973 177.984 79.7853 178.4V177.136H82.0413V186.064C82.0413 186.885 81.8759 187.616 81.5453 188.256C81.2146 188.907 80.7186 189.419 80.0573 189.792C79.3959 190.176 78.5959 190.368 77.6573 190.368C76.3986 190.368 75.3639 190.075 74.5533 189.488C73.7533 188.901 73.2999 188.101 73.1933 187.088H75.4173C75.5346 187.493 75.7853 187.813 76.1693 188.048C76.5639 188.293 77.0386 188.416 77.5933 188.416C78.2439 188.416 78.7719 188.219 79.1773 187.824C79.5826 187.44 79.7853 186.853 79.7853 186.064V184.688C79.4973 185.104 79.0973 185.451 78.5853 185.728C78.0839 186.005 77.5079 186.144 76.8573 186.144C76.1106 186.144 75.4279 185.952 74.8093 185.568C74.1906 185.184 73.6999 184.645 73.3372 183.952C72.9852 183.248 72.8092 182.443 72.8092 181.536C72.8092 180.64 72.9852 179.845 73.3372 179.152C73.6999 178.459 74.1853 177.925 74.7933 177.552C75.4119 177.179 76.0999 176.992 76.8573 176.992ZM79.7853 181.568C79.7853 181.024 79.6786 180.56 79.4653 180.176C79.2519 179.781 78.9639 179.483 78.6013 179.28C78.2386 179.067 77.8493 178.96 77.4333 178.96C77.0173 178.96 76.6333 179.061 76.2812 179.264C75.9293 179.467 75.6413 179.765 75.4173 180.16C75.2039 180.544 75.0973 181.003 75.0973 181.536C75.0973 182.069 75.2039 182.539 75.4173 182.944C75.6413 183.339 75.9293 183.643 76.2812 183.856C76.6439 184.069 77.0279 184.176 77.4333 184.176C77.8493 184.176 78.2386 184.075 78.6013 183.872C78.9639 183.659 79.2519 183.36 79.4653 182.976C79.6786 182.581 79.7853 182.112 79.7853 181.568ZM92.469 181.376C92.469 181.696 92.4477 181.984 92.405 182.24H85.925C85.9783 182.88 86.2023 183.381 86.597 183.744C86.9917 184.107 87.477 184.288 88.053 184.288C88.885 184.288 89.477 183.931 89.829 183.216H92.245C91.989 184.069 91.4983 184.773 90.773 185.328C90.0477 185.872 89.157 186.144 88.101 186.144C87.2477 186.144 86.4797 185.957 85.797 185.584C85.125 185.2 84.597 184.661 84.213 183.968C83.8397 183.275 83.653 182.475 83.653 181.568C83.653 180.651 83.8397 179.845 84.213 179.152C84.5863 178.459 85.109 177.925 85.781 177.552C86.453 177.179 87.2263 176.992 88.101 176.992C88.9437 176.992 89.6957 177.173 90.357 177.536C91.029 177.899 91.5463 178.416 91.909 179.088C92.2823 179.749 92.469 180.512 92.469 181.376ZM90.149 180.736C90.1383 180.16 89.9303 179.701 89.525 179.36C89.1197 179.008 88.6237 178.832 88.037 178.832C87.4823 178.832 87.013 179.003 86.629 179.344C86.2557 179.675 86.0263 180.139 85.941 180.736H90.149Z" fill="black"/>
<path d="M31.576 211.084C31.024 211.084 30.528 210.988 30.088 210.796C29.656 210.596 29.316 210.324 29.068 209.98C28.82 209.628 28.692 209.224 28.684 208.768H29.848C29.888 209.16 30.048 209.492 30.328 209.764C30.616 210.028 31.032 210.16 31.576 210.16C32.096 210.16 32.504 210.032 32.8 209.776C33.104 209.512 33.256 209.176 33.256 208.768C33.256 208.448 33.168 208.188 32.992 207.988C32.816 207.788 32.596 207.636 32.332 207.532C32.068 207.428 31.712 207.316 31.264 207.196C30.712 207.052 30.268 206.908 29.932 206.764C29.604 206.62 29.32 206.396 29.08 206.092C28.848 205.78 28.732 205.364 28.732 204.844C28.732 204.388 28.848 203.984 29.08 203.632C29.312 203.28 29.636 203.008 30.052 202.816C30.476 202.624 30.96 202.528 31.504 202.528C32.288 202.528 32.928 202.724 33.424 203.116C33.928 203.508 34.212 204.028 34.276 204.676H33.076C33.036 204.356 32.868 204.076 32.572 203.836C32.276 203.588 31.884 203.464 31.396 203.464C30.94 203.464 30.568 203.584 30.28 203.824C29.992 204.056 29.848 204.384 29.848 204.808C29.848 205.112 29.932 205.36 30.1 205.552C30.276 205.744 30.488 205.892 30.736 205.996C30.992 206.092 31.348 206.204 31.804 206.332C32.356 206.484 32.8 206.636 33.136 206.788C33.472 206.932 33.76 207.16 34 207.472C34.24 207.776 34.36 208.192 34.36 208.72C34.36 209.128 34.252 209.512 34.036 209.872C33.82 210.232 33.5 210.524 33.076 210.748C32.652 210.972 32.152 211.084 31.576 211.084ZM38.835 211.108C38.219 211.108 37.659 210.968 37.155 210.688C36.659 210.408 36.267 210.012 35.979 209.5C35.699 208.98 35.559 208.38 35.559 207.7C35.559 207.028 35.703 206.436 35.991 205.924C36.287 205.404 36.687 205.008 37.191 204.736C37.695 204.456 38.259 204.316 38.883 204.316C39.507 204.316 40.071 204.456 40.575 204.736C41.079 205.008 41.475 205.4 41.763 205.912C42.059 206.424 42.207 207.02 42.207 207.7C42.207 208.38 42.055 208.98 41.751 209.5C41.455 210.012 41.051 210.408 40.539 210.688C40.027 210.968 39.459 211.108 38.835 211.108ZM38.835 210.148C39.227 210.148 39.595 210.056 39.939 209.872C40.283 209.688 40.559 209.412 40.767 209.044C40.983 208.676 41.091 208.228 41.091 207.7C41.091 207.172 40.987 206.724 40.779 206.356C40.571 205.988 40.299 205.716 39.963 205.54C39.627 205.356 39.263 205.264 38.871 205.264C38.471 205.264 38.103 205.356 37.767 205.54C37.439 205.716 37.175 205.988 36.975 206.356C36.775 206.724 36.675 207.172 36.675 207.7C36.675 208.236 36.771 208.688 36.963 209.056C37.163 209.424 37.427 209.7 37.755 209.884C38.083 210.06 38.443 210.148 38.835 210.148ZM51.5508 204.304C52.0628 204.304 52.5188 204.412 52.9188 204.628C53.3188 204.836 53.6348 205.152 53.8668 205.576C54.0988 206 54.2148 206.516 54.2148 207.124V211H53.1348V207.28C53.1348 206.624 52.9708 206.124 52.6428 205.78C52.3228 205.428 51.8868 205.252 51.3348 205.252C50.7668 205.252 50.3148 205.436 49.9788 205.804C49.6428 206.164 49.4748 206.688 49.4748 207.376V211H48.3948V207.28C48.3948 206.624 48.2308 206.124 47.9028 205.78C47.5828 205.428 47.1468 205.252 46.5948 205.252C46.0268 205.252 45.5748 205.436 45.2388 205.804C44.9028 206.164 44.7348 206.688 44.7348 207.376V211H43.6428V204.424H44.7348V205.372C44.9508 205.028 45.2388 204.764 45.5988 204.58C45.9668 204.396 46.3708 204.304 46.8108 204.304C47.3628 204.304 47.8508 204.428 48.2748 204.676C48.6988 204.924 49.0148 205.288 49.2228 205.768C49.4068 205.304 49.7108 204.944 50.1348 204.688C50.5588 204.432 51.0308 204.304 51.5508 204.304ZM62.006 207.46C62.006 207.668 61.994 207.888 61.97 208.12H56.714C56.754 208.768 56.974 209.276 57.374 209.644C57.782 210.004 58.274 210.184 58.85 210.184C59.322 210.184 59.714 210.076 60.026 209.86C60.346 209.636 60.57 209.34 60.698 208.972H61.874C61.698 209.604 61.346 210.12 60.818 210.52C60.29 210.912 59.634 211.108 58.85 211.108C58.226 211.108 57.666 210.968 57.17 210.688C56.682 210.408 56.298 210.012 56.018 209.5C55.738 208.98 55.598 208.38 55.598 207.7C55.598 207.02 55.734 206.424 56.006 205.912C56.278 205.4 56.658 205.008 57.146 204.736C57.642 204.456 58.21 204.316 58.85 204.316C59.474 204.316 60.026 204.452 60.506 204.724C60.986 204.996 61.354 205.372 61.61 205.852C61.874 206.324 62.006 206.86 62.006 207.46ZM60.878 207.232C60.878 206.816 60.786 206.46 60.602 206.164C60.418 205.86 60.166 205.632 59.846 205.48C59.534 205.32 59.186 205.24 58.802 205.24C58.25 205.24 57.778 205.416 57.386 205.768C57.002 206.12 56.782 206.608 56.726 207.232H60.878ZM71.1827 211L67.7387 207.184V211H66.6467V202.636H67.7387V206.512L71.1947 202.636H72.5747L68.7827 206.824L72.6107 211H71.1827ZM76.6983 211.108C76.0823 211.108 75.5223 210.968 75.0183 210.688C74.5223 210.408 74.1303 210.012 73.8423 209.5C73.5623 208.98 73.4223 208.38 73.4223 207.7C73.4223 207.028 73.5663 206.436 73.8543 205.924C74.1503 205.404 74.5503 205.008 75.0543 204.736C75.5583 204.456 76.1223 204.316 76.7463 204.316C77.3703 204.316 77.9343 204.456 78.4383 204.736C78.9423 205.008 79.3383 205.4 79.6263 205.912C79.9223 206.424 80.0703 207.02 80.0703 207.7C80.0703 208.38 79.9183 208.98 79.6143 209.5C79.3183 210.012 78.9143 210.408 78.4023 210.688C77.8903 210.968 77.3223 211.108 76.6983 211.108ZM76.6983 210.148C77.0903 210.148 77.4583 210.056 77.8023 209.872C78.1463 209.688 78.4223 209.412 78.6303 209.044C78.8463 208.676 78.9543 208.228 78.9543 207.7C78.9543 207.172 78.8503 206.724 78.6423 206.356C78.4343 205.988 78.1623 205.716 77.8263 205.54C77.4903 205.356 77.1263 205.264 76.7343 205.264C76.3343 205.264 75.9663 205.356 75.6303 205.54C75.3023 205.716 75.0383 205.988 74.8383 206.356C74.6383 206.724 74.5383 207.172 74.5383 207.7C74.5383 208.236 74.6343 208.688 74.8263 209.056C75.0263 209.424 75.2903 209.7 75.6183 209.884C75.9463 210.06 76.3063 210.148 76.6983 210.148ZM82.598 205.492C82.79 205.116 83.062 204.824 83.414 204.616C83.774 204.408 84.21 204.304 84.722 204.304V205.432H84.434C83.21 205.432 82.598 206.096 82.598 207.424V211H81.506V204.424H82.598V205.492ZM91.9826 207.46C91.9826 207.668 91.9706 207.888 91.9466 208.12H86.6906C86.7306 208.768 86.9506 209.276 87.3506 209.644C87.7586 210.004 88.2506 210.184 88.8266 210.184C89.2986 210.184 89.6906 210.076 90.0026 209.86C90.3226 209.636 90.5466 209.34 90.6746 208.972H91.8506C91.6746 209.604 91.3226 210.12 90.7946 210.52C90.2666 210.912 89.6106 211.108 88.8266 211.108C88.2026 211.108 87.6426 210.968 87.1466 210.688C86.6586 210.408 86.2746 210.012 85.9946 209.5C85.7146 208.98 85.5746 208.38 85.5746 207.7C85.5746 207.02 85.7106 206.424 85.9826 205.912C86.2546 205.4 86.6346 205.008 87.1226 204.736C87.6186 204.456 88.1866 204.316 88.8266 204.316C89.4506 204.316 90.0026 204.452 90.4826 204.724C90.9626 204.996 91.3306 205.372 91.5866 205.852C91.8506 206.324 91.9826 206.86 91.9826 207.46ZM90.8546 207.232C90.8546 206.816 90.7626 206.46 90.5786 206.164C90.3946 205.86 90.1426 205.632 89.8226 205.48C89.5106 205.32 89.1626 205.24 88.7786 205.24C88.2266 205.24 87.7546 205.416 87.3626 205.768C86.9786 206.12 86.7586 206.608 86.7026 207.232H90.8546ZM93.016 207.688C93.016 207.016 93.152 206.428 93.424 205.924C93.696 205.412 94.068 205.016 94.54 204.736C95.02 204.456 95.552 204.316 96.136 204.316C96.712 204.316 97.212 204.44 97.636 204.688C98.06 204.936 98.376 205.248 98.584 205.624V204.424H99.688V211H98.584V209.776C98.368 210.16 98.044 210.48 97.612 210.736C97.188 210.984 96.692 211.108 96.124 211.108C95.54 211.108 95.012 210.964 94.54 210.676C94.068 210.388 93.696 209.984 93.424 209.464C93.152 208.944 93.016 208.352 93.016 207.688ZM98.584 207.7C98.584 207.204 98.484 206.772 98.284 206.404C98.084 206.036 97.812 205.756 97.468 205.564C97.132 205.364 96.76 205.264 96.352 205.264C95.944 205.264 95.572 205.36 95.236 205.552C94.9 205.744 94.632 206.024 94.432 206.392C94.232 206.76 94.132 207.192 94.132 207.688C94.132 208.192 94.232 208.632 94.432 209.008C94.632 209.376 94.9 209.66 95.236 209.86C95.572 210.052 95.944 210.148 96.352 210.148C96.76 210.148 97.132 210.052 97.468 209.86C97.812 209.66 98.084 209.376 98.284 209.008C98.484 208.632 98.584 208.196 98.584 207.7ZM104.737 204.304C105.537 204.304 106.185 204.548 106.681 205.036C107.177 205.516 107.425 206.212 107.425 207.124V211H106.345V207.28C106.345 206.624 106.181 206.124 105.853 205.78C105.525 205.428 105.077 205.252 104.509 205.252C103.933 205.252 103.473 205.432 103.129 205.792C102.793 206.152 102.625 206.676 102.625 207.364V211H101.533V204.424H102.625V205.36C102.841 205.024 103.133 204.764 103.501 204.58C103.877 204.396 104.289 204.304 104.737 204.304ZM113.5 202.12V211H112.408V202.12H113.5ZM121.362 207.46C121.362 207.668 121.35 207.888 121.326 208.12H116.07C116.11 208.768 116.33 209.276 116.73 209.644C117.138 210.004 117.63 210.184 118.206 210.184C118.678 210.184 119.07 210.076 119.382 209.86C119.702 209.636 119.926 209.34 120.054 208.972H121.23C121.054 209.604 120.702 210.12 120.174 210.52C119.646 210.912 118.99 211.108 118.206 211.108C117.582 211.108 117.022 210.968 116.526 210.688C116.038 210.408 115.654 210.012 115.374 209.5C115.094 208.98 114.954 208.38 114.954 207.7C114.954 207.02 115.09 206.424 115.362 205.912C115.634 205.4 116.014 205.008 116.502 204.736C116.998 204.456 117.566 204.316 118.206 204.316C118.83 204.316 119.382 204.452 119.862 204.724C120.342 204.996 120.71 205.372 120.966 205.852C121.23 206.324 121.362 206.86 121.362 207.46ZM120.234 207.232C120.234 206.816 120.142 206.46 119.958 206.164C119.774 205.86 119.522 205.632 119.202 205.48C118.89 205.32 118.542 205.24 118.158 205.24C117.606 205.24 117.134 205.416 116.742 205.768C116.358 206.12 116.138 206.608 116.082 207.232H120.234ZM124.135 205.324V209.2C124.135 209.52 124.203 209.748 124.339 209.884C124.475 210.012 124.711 210.076 125.047 210.076H125.851V211H124.867C124.259 211 123.803 210.86 123.499 210.58C123.195 210.3 123.043 209.84 123.043 209.2V205.324H122.191V204.424H123.043V202.768H124.135V204.424H125.851V205.324H124.135ZM128.506 205.324V209.2C128.506 209.52 128.574 209.748 128.71 209.884C128.846 210.012 129.082 210.076 129.418 210.076H130.222V211H129.238C128.63 211 128.174 210.86 127.87 210.58C127.566 210.3 127.414 209.84 127.414 209.2V205.324H126.562V204.424H127.414V202.768H128.506V204.424H130.222V205.324H128.506ZM137.545 207.46C137.545 207.668 137.533 207.888 137.509 208.12H132.253C132.293 208.768 132.513 209.276 132.913 209.644C133.321 210.004 133.813 210.184 134.389 210.184C134.861 210.184 135.253 210.076 135.565 209.86C135.885 209.636 136.109 209.34 136.237 208.972H137.413C137.237 209.604 136.885 210.12 136.357 210.52C135.829 210.912 135.173 211.108 134.389 211.108C133.765 211.108 133.205 210.968 132.709 210.688C132.221 210.408 131.837 210.012 131.557 209.5C131.277 208.98 131.137 208.38 131.137 207.7C131.137 207.02 131.273 206.424 131.545 205.912C131.817 205.4 132.197 205.008 132.685 204.736C133.181 204.456 133.749 204.316 134.389 204.316C135.013 204.316 135.565 204.452 136.045 204.724C136.525 204.996 136.893 205.372 137.149 205.852C137.413 206.324 137.545 206.86 137.545 207.46ZM136.417 207.232C136.417 206.816 136.325 206.46 136.141 206.164C135.957 205.86 135.705 205.632 135.385 205.48C135.073 205.32 134.725 205.24 134.341 205.24C133.789 205.24 133.317 205.416 132.925 205.768C132.541 206.12 132.321 206.608 132.265 207.232H136.417ZM140.079 205.492C140.271 205.116 140.543 204.824 140.895 204.616C141.255 204.408 141.691 204.304 142.203 204.304V205.432H141.915C140.691 205.432 140.079 206.096 140.079 207.424V211H138.987V204.424H140.079V205.492ZM145.791 211.108C145.287 211.108 144.835 211.024 144.435 210.856C144.035 210.68 143.719 210.44 143.487 210.136C143.255 209.824 143.127 209.468 143.103 209.068H144.231C144.263 209.396 144.415 209.664 144.687 209.872C144.967 210.08 145.331 210.184 145.779 210.184C146.195 210.184 146.523 210.092 146.763 209.908C147.003 209.724 147.123 209.492 147.123 209.212C147.123 208.924 146.995 208.712 146.739 208.576C146.483 208.432 146.087 208.292 145.551 208.156C145.063 208.028 144.663 207.9 144.351 207.772C144.047 207.636 143.783 207.44 143.559 207.184C143.343 206.92 143.235 206.576 143.235 206.152C143.235 205.816 143.335 205.508 143.535 205.228C143.735 204.948 144.019 204.728 144.387 204.568C144.755 204.4 145.175 204.316 145.647 204.316C146.375 204.316 146.963 204.5 147.411 204.868C147.859 205.236 148.099 205.74 148.131 206.38H147.039C147.015 206.036 146.875 205.76 146.619 205.552C146.371 205.344 146.035 205.24 145.611 205.24C145.219 205.24 144.907 205.324 144.675 205.492C144.443 205.66 144.327 205.88 144.327 206.152C144.327 206.368 144.395 206.548 144.531 206.692C144.675 206.828 144.851 206.94 145.059 207.028C145.275 207.108 145.571 207.2 145.947 207.304C146.419 207.432 146.803 207.56 147.099 207.688C147.395 207.808 147.647 207.992 147.855 208.24C148.071 208.488 148.183 208.812 148.191 209.212C148.191 209.572 148.091 209.896 147.891 210.184C147.691 210.472 147.407 210.7 147.039 210.868C146.679 211.028 146.263 211.108 145.791 211.108ZM152.524 207.7C152.524 207.02 152.66 206.428 152.932 205.924C153.204 205.412 153.58 205.016 154.06 204.736C154.548 204.456 155.104 204.316 155.728 204.316C156.536 204.316 157.2 204.512 157.72 204.904C158.248 205.296 158.596 205.84 158.764 206.536H157.588C157.476 206.136 157.256 205.82 156.928 205.588C156.608 205.356 156.208 205.24 155.728 205.24C155.104 205.24 154.6 205.456 154.216 205.888C153.832 206.312 153.64 206.916 153.64 207.7C153.64 208.492 153.832 209.104 154.216 209.536C154.6 209.968 155.104 210.184 155.728 210.184C156.208 210.184 156.608 210.072 156.928 209.848C157.248 209.624 157.468 209.304 157.588 208.888H158.764C158.588 209.56 158.236 210.1 157.708 210.508C157.18 210.908 156.52 211.108 155.728 211.108C155.104 211.108 154.548 210.968 154.06 210.688C153.58 210.408 153.204 210.012 152.932 209.5C152.66 208.988 152.524 208.388 152.524 207.7ZM159.813 207.688C159.813 207.016 159.949 206.428 160.221 205.924C160.493 205.412 160.865 205.016 161.337 204.736C161.817 204.456 162.349 204.316 162.933 204.316C163.509 204.316 164.009 204.44 164.433 204.688C164.857 204.936 165.173 205.248 165.381 205.624V204.424H166.485V211H165.381V209.776C165.165 210.16 164.841 210.48 164.409 210.736C163.985 210.984 163.489 211.108 162.921 211.108C162.337 211.108 161.809 210.964 161.337 210.676C160.865 210.388 160.493 209.984 160.221 209.464C159.949 208.944 159.813 208.352 159.813 207.688ZM165.381 207.7C165.381 207.204 165.281 206.772 165.081 206.404C164.881 206.036 164.609 205.756 164.265 205.564C163.929 205.364 163.557 205.264 163.149 205.264C162.741 205.264 162.369 205.36 162.033 205.552C161.697 205.744 161.429 206.024 161.229 206.392C161.029 206.76 160.929 207.192 160.929 207.688C160.929 208.192 161.029 208.632 161.229 209.008C161.429 209.376 161.697 209.66 162.033 209.86C162.369 210.052 162.741 210.148 163.149 210.148C163.557 210.148 163.929 210.052 164.265 209.86C164.609 209.66 164.881 209.376 165.081 209.008C165.281 208.632 165.381 208.196 165.381 207.7ZM171.534 204.304C172.334 204.304 172.982 204.548 173.478 205.036C173.974 205.516 174.222 206.212 174.222 207.124V211H173.142V207.28C173.142 206.624 172.978 206.124 172.65 205.78C172.322 205.428 171.874 205.252 171.306 205.252C170.73 205.252 170.27 205.432 169.926 205.792C169.59 206.152 169.422 206.676 169.422 207.364V211H168.33V204.424H169.422V205.36C169.638 205.024 169.93 204.764 170.298 204.58C170.674 204.396 171.086 204.304 171.534 204.304ZM181.533 211.108C181.029 211.108 180.577 211.024 180.177 210.856C179.777 210.68 179.461 210.44 179.229 210.136C178.997 209.824 178.869 209.468 178.845 209.068H179.973C180.005 209.396 180.157 209.664 180.429 209.872C180.709 210.08 181.073 210.184 181.521 210.184C181.937 210.184 182.265 210.092 182.505 209.908C182.745 209.724 182.865 209.492 182.865 209.212C182.865 208.924 182.737 208.712 182.481 208.576C182.225 208.432 181.829 208.292 181.293 208.156C180.805 208.028 180.405 207.9 180.093 207.772C179.789 207.636 179.525 207.44 179.301 207.184C179.085 206.92 178.977 206.576 178.977 206.152C178.977 205.816 179.077 205.508 179.277 205.228C179.477 204.948 179.761 204.728 180.129 204.568C180.497 204.4 180.917 204.316 181.389 204.316C182.117 204.316 182.705 204.5 183.153 204.868C183.601 205.236 183.841 205.74 183.873 206.38H182.781C182.757 206.036 182.617 205.76 182.361 205.552C182.113 205.344 181.777 205.24 181.353 205.24C180.961 205.24 180.649 205.324 180.417 205.492C180.185 205.66 180.069 205.88 180.069 206.152C180.069 206.368 180.137 206.548 180.273 206.692C180.417 206.828 180.593 206.94 180.801 207.028C181.017 207.108 181.313 207.2 181.689 207.304C182.161 207.432 182.545 207.56 182.841 207.688C183.137 207.808 183.389 207.992 183.597 208.24C183.813 208.488 183.925 208.812 183.933 209.212C183.933 209.572 183.833 209.896 183.633 210.184C183.433 210.472 183.149 210.7 182.781 210.868C182.421 211.028 182.005 211.108 181.533 211.108ZM188.343 211.108C187.727 211.108 187.167 210.968 186.663 210.688C186.167 210.408 185.775 210.012 185.487 209.5C185.207 208.98 185.067 208.38 185.067 207.7C185.067 207.028 185.211 206.436 185.499 205.924C185.795 205.404 186.195 205.008 186.699 204.736C187.203 204.456 187.767 204.316 188.391 204.316C189.015 204.316 189.579 204.456 190.083 204.736C190.587 205.008 190.983 205.4 191.271 205.912C191.567 206.424 191.715 207.02 191.715 207.7C191.715 208.38 191.563 208.98 191.259 209.5C190.963 210.012 190.559 210.408 190.047 210.688C189.535 210.968 188.967 211.108 188.343 211.108ZM188.343 210.148C188.735 210.148 189.103 210.056 189.447 209.872C189.791 209.688 190.067 209.412 190.275 209.044C190.491 208.676 190.599 208.228 190.599 207.7C190.599 207.172 190.495 206.724 190.287 206.356C190.079 205.988 189.807 205.716 189.471 205.54C189.135 205.356 188.771 205.264 188.379 205.264C187.979 205.264 187.611 205.356 187.275 205.54C186.947 205.716 186.683 205.988 186.483 206.356C186.283 206.724 186.183 207.172 186.183 207.7C186.183 208.236 186.279 208.688 186.471 209.056C186.671 209.424 186.935 209.7 187.263 209.884C187.591 210.06 187.951 210.148 188.343 210.148ZM198.983 204.424V211H197.891V210.028C197.683 210.364 197.391 210.628 197.015 210.82C196.647 211.004 196.239 211.096 195.791 211.096C195.279 211.096 194.819 210.992 194.411 210.784C194.003 210.568 193.679 210.248 193.439 209.824C193.207 209.4 193.091 208.884 193.091 208.276V204.424H194.171V208.132C194.171 208.78 194.335 209.28 194.663 209.632C194.991 209.976 195.439 210.148 196.007 210.148C196.591 210.148 197.051 209.968 197.387 209.608C197.723 209.248 197.891 208.724 197.891 208.036V204.424H198.983ZM204.03 204.304C204.83 204.304 205.478 204.548 205.974 205.036C206.47 205.516 206.718 206.212 206.718 207.124V211H205.638V207.28C205.638 206.624 205.474 206.124 205.146 205.78C204.818 205.428 204.37 205.252 203.802 205.252C203.226 205.252 202.766 205.432 202.422 205.792C202.086 206.152 201.918 206.676 201.918 207.364V211H200.826V204.424H201.918V205.36C202.134 205.024 202.426 204.764 202.794 204.58C203.17 204.396 203.582 204.304 204.03 204.304ZM208.094 207.688C208.094 207.016 208.23 206.428 208.502 205.924C208.774 205.412 209.146 205.016 209.618 204.736C210.098 204.456 210.634 204.316 211.226 204.316C211.738 204.316 212.214 204.436 212.654 204.676C213.094 204.908 213.43 205.216 213.662 205.6V202.12H214.766V211H213.662V209.764C213.446 210.156 213.126 210.48 212.702 210.736C212.278 210.984 211.782 211.108 211.214 211.108C210.63 211.108 210.098 210.964 209.618 210.676C209.146 210.388 208.774 209.984 208.502 209.464C208.23 208.944 208.094 208.352 208.094 207.688ZM213.662 207.7C213.662 207.204 213.562 206.772 213.362 206.404C213.162 206.036 212.89 205.756 212.546 205.564C212.21 205.364 211.838 205.264 211.43 205.264C211.022 205.264 210.65 205.36 210.314 205.552C209.978 205.744 209.71 206.024 209.51 206.392C209.31 206.76 209.21 207.192 209.21 207.688C209.21 208.192 209.31 208.632 209.51 209.008C209.71 209.376 209.978 209.66 210.314 209.86C210.65 210.052 211.022 210.148 211.43 210.148C211.838 210.148 212.21 210.052 212.546 209.86C212.89 209.66 213.162 209.376 213.362 209.008C213.562 208.632 213.662 208.196 213.662 207.7ZM31.252 229.108C30.748 229.108 30.296 229.024 29.896 228.856C29.496 228.68 29.18 228.44 28.948 228.136C28.716 227.824 28.588 227.468 28.564 227.068H29.692C29.724 227.396 29.876 227.664 30.148 227.872C30.428 228.08 30.792 228.184 31.24 228.184C31.656 228.184 31.984 228.092 32.224 227.908C32.464 227.724 32.584 227.492 32.584 227.212C32.584 226.924 32.456 226.712 32.2 226.576C31.944 226.432 31.548 226.292 31.012 226.156C30.524 226.028 30.124 225.9 29.812 225.772C29.508 225.636 29.244 225.44 29.02 225.184C28.804 224.92 28.696 224.576 28.696 224.152C28.696 223.816 28.796 223.508 28.996 223.228C29.196 222.948 29.48 222.728 29.848 222.568C30.216 222.4 30.636 222.316 31.108 222.316C31.836 222.316 32.424 222.5 32.872 222.868C33.32 223.236 33.56 223.74 33.592 224.38H32.5C32.476 224.036 32.336 223.76 32.08 223.552C31.832 223.344 31.496 223.24 31.072 223.24C30.68 223.24 30.368 223.324 30.136 223.492C29.904 223.66 29.788 223.88 29.788 224.152C29.788 224.368 29.856 224.548 29.992 224.692C30.136 224.828 30.312 224.94 30.52 225.028C30.736 225.108 31.032 225.2 31.408 225.304C31.88 225.432 32.264 225.56 32.56 225.688C32.856 225.808 33.108 225.992 33.316 226.24C33.532 226.488 33.644 226.812 33.652 227.212C33.652 227.572 33.552 227.896 33.352 228.184C33.152 228.472 32.868 228.7 32.5 228.868C32.14 229.028 31.724 229.108 31.252 229.108ZM36.2855 220.12V229H35.1935V220.12H36.2855ZM38.7107 221.356C38.5027 221.356 38.3267 221.284 38.1827 221.14C38.0387 220.996 37.9667 220.82 37.9667 220.612C37.9667 220.404 38.0387 220.228 38.1827 220.084C38.3267 219.94 38.5027 219.868 38.7107 219.868C38.9107 219.868 39.0787 219.94 39.2147 220.084C39.3587 220.228 39.4307 220.404 39.4307 220.612C39.4307 220.82 39.3587 220.996 39.2147 221.14C39.0787 221.284 38.9107 221.356 38.7107 221.356ZM39.2387 222.424V229H38.1467V222.424H39.2387ZM43.8118 222.316C44.3798 222.316 44.8758 222.44 45.2998 222.688C45.7318 222.936 46.0518 223.248 46.2598 223.624V222.424H47.3638V229.144C47.3638 229.744 47.2358 230.276 46.9798 230.74C46.7238 231.212 46.3558 231.58 45.8758 231.844C45.4038 232.108 44.8518 232.24 44.2198 232.24C43.3558 232.24 42.6358 232.036 42.0598 231.628C41.4838 231.22 41.1438 230.664 41.0398 229.96H42.1198C42.2398 230.36 42.4878 230.68 42.8638 230.92C43.2398 231.168 43.6918 231.292 44.2198 231.292C44.8198 231.292 45.3078 231.104 45.6838 230.728C46.0678 230.352 46.2598 229.824 46.2598 229.144V227.764C46.0438 228.148 45.7238 228.468 45.2998 228.724C44.8758 228.98 44.3798 229.108 43.8118 229.108C43.2278 229.108 42.6958 228.964 42.2158 228.676C41.7438 228.388 41.3718 227.984 41.0998 227.464C40.8278 226.944 40.6918 226.352 40.6918 225.688C40.6918 225.016 40.8278 224.428 41.0998 223.924C41.3718 223.412 41.7438 223.016 42.2158 222.736C42.6958 222.456 43.2278 222.316 43.8118 222.316ZM46.2598 225.7C46.2598 225.204 46.1598 224.772 45.9598 224.404C45.7598 224.036 45.4878 223.756 45.1438 223.564C44.8078 223.364 44.4358 223.264 44.0278 223.264C43.6198 223.264 43.2478 223.36 42.9118 223.552C42.5758 223.744 42.3078 224.024 42.1078 224.392C41.9078 224.76 41.8078 225.192 41.8078 225.688C41.8078 226.192 41.9078 226.632 42.1078 227.008C42.3078 227.376 42.5758 227.66 42.9118 227.86C43.2478 228.052 43.6198 228.148 44.0278 228.148C44.4358 228.148 44.8078 228.052 45.1438 227.86C45.4878 227.66 45.7598 227.376 45.9598 227.008C46.1598 226.632 46.2598 226.196 46.2598 225.7ZM52.4732 222.304C52.9692 222.304 53.4172 222.412 53.8172 222.628C54.2172 222.836 54.5292 223.152 54.7532 223.576C54.9852 224 55.1012 224.516 55.1012 225.124V229H54.0212V225.28C54.0212 224.624 53.8572 224.124 53.5292 223.78C53.2012 223.428 52.7532 223.252 52.1852 223.252C51.6092 223.252 51.1492 223.432 50.8052 223.792C50.4692 224.152 50.3012 224.676 50.3012 225.364V229H49.2092V220.12H50.3012V223.36C50.5172 223.024 50.8132 222.764 51.1892 222.58C51.5732 222.396 52.0012 222.304 52.4732 222.304ZM58.2169 223.324V227.2C58.2169 227.52 58.2849 227.748 58.4209 227.884C58.5569 228.012 58.7929 228.076 59.1289 228.076H59.9329V229H58.9489C58.3409 229 57.8849 228.86 57.5809 228.58C57.2769 228.3 57.1249 227.84 57.1249 227.2V223.324H56.2729V222.424H57.1249V220.768H58.2169V222.424H59.9329V223.324H58.2169ZM62.348 220.12V229H61.256V220.12H62.348ZM69.8732 222.424L65.9132 232.096H64.7852L66.0812 228.928L63.4292 222.424H64.6412L66.7052 227.752L68.7452 222.424H69.8732ZM73.7621 225.688C73.7621 225.016 73.8981 224.428 74.1701 223.924C74.4421 223.412 74.8141 223.016 75.2861 222.736C75.7661 222.456 76.3021 222.316 76.8941 222.316C77.4061 222.316 77.8821 222.436 78.3221 222.676C78.7621 222.908 79.0981 223.216 79.3301 223.6V220.12H80.4341V229H79.3301V227.764C79.1141 228.156 78.7941 228.48 78.3701 228.736C77.9461 228.984 77.4501 229.108 76.8821 229.108C76.2981 229.108 75.7661 228.964 75.2861 228.676C74.8141 228.388 74.4421 227.984 74.1701 227.464C73.8981 226.944 73.7621 226.352 73.7621 225.688ZM79.3301 225.7C79.3301 225.204 79.2301 224.772 79.0301 224.404C78.8301 224.036 78.5581 223.756 78.2141 223.564C77.8781 223.364 77.5061 223.264 77.0981 223.264C76.6901 223.264 76.3181 223.36 75.9821 223.552C75.6461 223.744 75.3781 224.024 75.1781 224.392C74.9781 224.76 74.8781 225.192 74.8781 225.688C74.8781 226.192 74.9781 226.632 75.1781 227.008C75.3781 227.376 75.6461 227.66 75.9821 227.86C76.3181 228.052 76.6901 228.148 77.0981 228.148C77.5061 228.148 77.8781 228.052 78.2141 227.86C78.5581 227.66 78.8301 227.376 79.0301 227.008C79.2301 226.632 79.3301 226.196 79.3301 225.7ZM82.8435 221.356C82.6355 221.356 82.4595 221.284 82.3155 221.14C82.1715 220.996 82.0995 220.82 82.0995 220.612C82.0995 220.404 82.1715 220.228 82.3155 220.084C82.4595 219.94 82.6355 219.868 82.8435 219.868C83.0435 219.868 83.2115 219.94 83.3475 220.084C83.4915 220.228 83.5635 220.404 83.5635 220.612C83.5635 220.82 83.4915 220.996 83.3475 221.14C83.2115 221.284 83.0435 221.356 82.8435 221.356ZM83.3715 222.424V229H82.2795V222.424H83.3715ZM87.9086 223.324H86.5286V229H85.4366V223.324H84.5846V222.424H85.4366V221.956C85.4366 221.22 85.6246 220.684 86.0006 220.348C86.3846 220.004 86.9966 219.832 87.8366 219.832V220.744C87.3566 220.744 87.0166 220.84 86.8166 221.032C86.6246 221.216 86.5286 221.524 86.5286 221.956V222.424H87.9086V223.324ZM91.8578 223.324H90.4778V229H89.3858V223.324H88.5338V222.424H89.3858V221.956C89.3858 221.22 89.5738 220.684 89.9498 220.348C90.3338 220.004 90.9458 219.832 91.7858 219.832V220.744C91.3058 220.744 90.9658 220.84 90.7658 221.032C90.5738 221.216 90.4778 221.524 90.4778 221.956V222.424H91.8578V223.324ZM99.131 225.46C99.131 225.668 99.119 225.888 99.095 226.12H93.839C93.879 226.768 94.099 227.276 94.499 227.644C94.907 228.004 95.399 228.184 95.975 228.184C96.447 228.184 96.839 228.076 97.151 227.86C97.471 227.636 97.695 227.34 97.823 226.972H98.999C98.823 227.604 98.471 228.12 97.943 228.52C97.415 228.912 96.759 229.108 95.975 229.108C95.351 229.108 94.791 228.968 94.295 228.688C93.807 228.408 93.423 228.012 93.143 227.5C92.863 226.98 92.723 226.38 92.723 225.7C92.723 225.02 92.859 224.424 93.131 223.912C93.403 223.4 93.783 223.008 94.271 222.736C94.767 222.456 95.335 222.316 95.975 222.316C96.599 222.316 97.151 222.452 97.631 222.724C98.111 222.996 98.479 223.372 98.735 223.852C98.999 224.324 99.131 224.86 99.131 225.46ZM98.003 225.232C98.003 224.816 97.911 224.46 97.727 224.164C97.543 223.86 97.291 223.632 96.971 223.48C96.659 223.32 96.311 223.24 95.927 223.24C95.375 223.24 94.903 223.416 94.511 223.768C94.127 224.12 93.907 224.608 93.851 225.232H98.003ZM101.664 223.492C101.856 223.116 102.128 222.824 102.48 222.616C102.84 222.408 103.276 222.304 103.788 222.304V223.432H103.5C102.276 223.432 101.664 224.096 101.664 225.424V229H100.572V222.424H101.664V223.492ZM111.049 225.46C111.049 225.668 111.037 225.888 111.013 226.12H105.757C105.797 226.768 106.017 227.276 106.417 227.644C106.825 228.004 107.317 228.184 107.893 228.184C108.365 228.184 108.757 228.076 109.069 227.86C109.389 227.636 109.613 227.34 109.741 226.972H110.917C110.741 227.604 110.389 228.12 109.861 228.52C109.333 228.912 108.677 229.108 107.893 229.108C107.269 229.108 106.709 228.968 106.213 228.688C105.725 228.408 105.341 228.012 105.061 227.5C104.781 226.98 104.641 226.38 104.641 225.7C104.641 225.02 104.777 224.424 105.049 223.912C105.321 223.4 105.701 223.008 106.189 222.736C106.685 222.456 107.253 222.316 107.893 222.316C108.517 222.316 109.069 222.452 109.549 222.724C110.029 222.996 110.397 223.372 110.653 223.852C110.917 224.324 111.049 224.86 111.049 225.46ZM109.921 225.232C109.921 224.816 109.829 224.46 109.645 224.164C109.461 223.86 109.209 223.632 108.889 223.48C108.577 223.32 108.229 223.24 107.845 223.24C107.293 223.24 106.821 223.416 106.429 223.768C106.045 224.12 105.825 224.608 105.769 225.232H109.921ZM115.694 222.304C116.494 222.304 117.142 222.548 117.638 223.036C118.134 223.516 118.382 224.212 118.382 225.124V229H117.302V225.28C117.302 224.624 117.138 224.124 116.81 223.78C116.482 223.428 116.034 223.252 115.466 223.252C114.89 223.252 114.43 223.432 114.086 223.792C113.75 224.152 113.582 224.676 113.582 225.364V229H112.49V222.424H113.582V223.36C113.798 223.024 114.09 222.764 114.458 222.58C114.834 222.396 115.246 222.304 115.694 222.304ZM121.498 223.324V227.2C121.498 227.52 121.566 227.748 121.702 227.884C121.838 228.012 122.074 228.076 122.41 228.076H123.214V229H122.23C121.622 229 121.166 228.86 120.862 228.58C120.558 228.3 120.406 227.84 120.406 227.2V223.324H119.554V222.424H120.406V220.768H121.498V222.424H123.214V223.324H121.498ZM127.329 225.688C127.329 225.016 127.465 224.428 127.737 223.924C128.009 223.412 128.381 223.016 128.853 222.736C129.333 222.456 129.869 222.316 130.461 222.316C130.973 222.316 131.449 222.436 131.889 222.676C132.329 222.908 132.665 223.216 132.897 223.6V220.12H134.001V229H132.897V227.764C132.681 228.156 132.361 228.48 131.937 228.736C131.513 228.984 131.017 229.108 130.449 229.108C129.865 229.108 129.333 228.964 128.853 228.676C128.381 228.388 128.009 227.984 127.737 227.464C127.465 226.944 127.329 226.352 127.329 225.688ZM132.897 225.7C132.897 225.204 132.797 224.772 132.597 224.404C132.397 224.036 132.125 223.756 131.781 223.564C131.445 223.364 131.073 223.264 130.665 223.264C130.257 223.264 129.885 223.36 129.549 223.552C129.213 223.744 128.945 224.024 128.745 224.392C128.545 224.76 128.445 225.192 128.445 225.688C128.445 226.192 128.545 226.632 128.745 227.008C128.945 227.376 129.213 227.66 129.549 227.86C129.885 228.052 130.257 228.148 130.665 228.148C131.073 228.148 131.445 228.052 131.781 227.86C132.125 227.66 132.397 227.376 132.597 227.008C132.797 226.632 132.897 226.196 132.897 225.7ZM141.846 225.46C141.846 225.668 141.834 225.888 141.81 226.12H136.554C136.594 226.768 136.814 227.276 137.214 227.644C137.622 228.004 138.114 228.184 138.69 228.184C139.162 228.184 139.554 228.076 139.866 227.86C140.186 227.636 140.41 227.34 140.538 226.972H141.714C141.538 227.604 141.186 228.12 140.658 228.52C140.13 228.912 139.474 229.108 138.69 229.108C138.066 229.108 137.506 228.968 137.01 228.688C136.522 228.408 136.138 228.012 135.858 227.5C135.578 226.98 135.438 226.38 135.438 225.7C135.438 225.02 135.574 224.424 135.846 223.912C136.118 223.4 136.498 223.008 136.986 222.736C137.482 222.456 138.05 222.316 138.69 222.316C139.314 222.316 139.866 222.452 140.346 222.724C140.826 222.996 141.194 223.372 141.45 223.852C141.714 224.324 141.846 224.86 141.846 225.46ZM140.718 225.232C140.718 224.816 140.626 224.46 140.442 224.164C140.258 223.86 140.006 223.632 139.686 223.48C139.374 223.32 139.026 223.24 138.642 223.24C138.09 223.24 137.618 223.416 137.226 223.768C136.842 224.12 136.622 224.608 136.566 225.232H140.718ZM144.379 223.636C144.595 223.26 144.915 222.948 145.339 222.7C145.771 222.444 146.271 222.316 146.839 222.316C147.423 222.316 147.951 222.456 148.423 222.736C148.903 223.016 149.279 223.412 149.551 223.924C149.823 224.428 149.959 225.016 149.959 225.688C149.959 226.352 149.823 226.944 149.551 227.464C149.279 227.984 148.903 228.388 148.423 228.676C147.951 228.964 147.423 229.108 146.839 229.108C146.279 229.108 145.783 228.984 145.351 228.736C144.927 228.48 144.603 228.164 144.379 227.788V232.12H143.287V222.424H144.379V223.636ZM148.843 225.688C148.843 225.192 148.743 224.76 148.543 224.392C148.343 224.024 148.071 223.744 147.727 223.552C147.391 223.36 147.019 223.264 146.611 223.264C146.211 223.264 145.839 223.364 145.495 223.564C145.159 223.756 144.887 224.04 144.679 224.416C144.479 224.784 144.379 225.212 144.379 225.7C144.379 226.196 144.479 226.632 144.679 227.008C144.887 227.376 145.159 227.66 145.495 227.86C145.839 228.052 146.211 228.148 146.611 228.148C147.019 228.148 147.391 228.052 147.727 227.86C148.071 227.66 148.343 227.376 148.543 227.008C148.743 226.632 148.843 226.192 148.843 225.688ZM157.397 225.46C157.397 225.668 157.385 225.888 157.361 226.12H152.105C152.145 226.768 152.365 227.276 152.765 227.644C153.173 228.004 153.665 228.184 154.241 228.184C154.713 228.184 155.105 228.076 155.417 227.86C155.737 227.636 155.961 227.34 156.089 226.972H157.265C157.089 227.604 156.737 228.12 156.209 228.52C155.681 228.912 155.025 229.108 154.241 229.108C153.617 229.108 153.057 228.968 152.561 228.688C152.073 228.408 151.689 228.012 151.409 227.5C151.129 226.98 150.989 226.38 150.989 225.7C150.989 225.02 151.125 224.424 151.397 223.912C151.669 223.4 152.049 223.008 152.537 222.736C153.033 222.456 153.601 222.316 154.241 222.316C154.865 222.316 155.417 222.452 155.897 222.724C156.377 222.996 156.745 223.372 157.001 223.852C157.265 224.324 157.397 224.86 157.397 225.46ZM156.269 225.232C156.269 224.816 156.177 224.46 155.993 224.164C155.809 223.86 155.557 223.632 155.237 223.48C154.925 223.32 154.577 223.24 154.193 223.24C153.641 223.24 153.169 223.416 152.777 223.768C152.393 224.12 152.173 224.608 152.117 225.232H156.269ZM162.042 222.304C162.842 222.304 163.49 222.548 163.986 223.036C164.482 223.516 164.73 224.212 164.73 225.124V229H163.65V225.28C163.65 224.624 163.486 224.124 163.158 223.78C162.83 223.428 162.382 223.252 161.814 223.252C161.238 223.252 160.778 223.432 160.434 223.792C160.098 224.152 159.93 224.676 159.93 225.364V229H158.838V222.424H159.93V223.36C160.146 223.024 160.438 222.764 160.806 222.58C161.182 222.396 161.594 222.304 162.042 222.304ZM166.106 225.688C166.106 225.016 166.242 224.428 166.514 223.924C166.786 223.412 167.158 223.016 167.63 222.736C168.11 222.456 168.646 222.316 169.238 222.316C169.75 222.316 170.226 222.436 170.666 222.676C171.106 222.908 171.442 223.216 171.674 223.6V220.12H172.778V229H171.674V227.764C171.458 228.156 171.138 228.48 170.714 228.736C170.29 228.984 169.794 229.108 169.226 229.108C168.642 229.108 168.11 228.964 167.63 228.676C167.158 228.388 166.786 227.984 166.514 227.464C166.242 226.944 166.106 226.352 166.106 225.688ZM171.674 225.7C171.674 225.204 171.574 224.772 171.374 224.404C171.174 224.036 170.902 223.756 170.558 223.564C170.222 223.364 169.85 223.264 169.442 223.264C169.034 223.264 168.662 223.36 168.326 223.552C167.99 223.744 167.722 224.024 167.522 224.392C167.322 224.76 167.222 225.192 167.222 225.688C167.222 226.192 167.322 226.632 167.522 227.008C167.722 227.376 167.99 227.66 168.326 227.86C168.662 228.052 169.034 228.148 169.442 228.148C169.85 228.148 170.222 228.052 170.558 227.86C170.902 227.66 171.174 227.376 171.374 227.008C171.574 226.632 171.674 226.196 171.674 225.7ZM175.187 221.356C174.979 221.356 174.803 221.284 174.659 221.14C174.515 220.996 174.443 220.82 174.443 220.612C174.443 220.404 174.515 220.228 174.659 220.084C174.803 219.94 174.979 219.868 175.187 219.868C175.387 219.868 175.555 219.94 175.691 220.084C175.835 220.228 175.907 220.404 175.907 220.612C175.907 220.82 175.835 220.996 175.691 221.14C175.555 221.284 175.387 221.356 175.187 221.356ZM175.715 222.424V229H174.623V222.424H175.715ZM180.78 222.304C181.58 222.304 182.228 222.548 182.724 223.036C183.22 223.516 183.468 224.212 183.468 225.124V229H182.388V225.28C182.388 224.624 182.224 224.124 181.896 223.78C181.568 223.428 181.12 223.252 180.552 223.252C179.976 223.252 179.516 223.432 179.172 223.792C178.836 224.152 178.668 224.676 178.668 225.364V229H177.576V222.424H178.668V223.36C178.884 223.024 179.176 222.764 179.544 222.58C179.92 222.396 180.332 222.304 180.78 222.304ZM187.964 222.316C188.532 222.316 189.028 222.44 189.452 222.688C189.884 222.936 190.204 223.248 190.412 223.624V222.424H191.516V229.144C191.516 229.744 191.388 230.276 191.132 230.74C190.876 231.212 190.508 231.58 190.028 231.844C189.556 232.108 189.004 232.24 188.372 232.24C187.508 232.24 186.788 232.036 186.212 231.628C185.636 231.22 185.296 230.664 185.192 229.96H186.272C186.392 230.36 186.64 230.68 187.016 230.92C187.392 231.168 187.844 231.292 188.372 231.292C188.972 231.292 189.46 231.104 189.836 230.728C190.22 230.352 190.412 229.824 190.412 229.144V227.764C190.196 228.148 189.876 228.468 189.452 228.724C189.028 228.98 188.532 229.108 187.964 229.108C187.38 229.108 186.848 228.964 186.368 228.676C185.896 228.388 185.524 227.984 185.252 227.464C184.98 226.944 184.844 226.352 184.844 225.688C184.844 225.016 184.98 224.428 185.252 223.924C185.524 223.412 185.896 223.016 186.368 222.736C186.848 222.456 187.38 222.316 187.964 222.316ZM190.412 225.7C190.412 225.204 190.312 224.772 190.112 224.404C189.912 224.036 189.64 223.756 189.296 223.564C188.96 223.364 188.588 223.264 188.18 223.264C187.772 223.264 187.4 223.36 187.064 223.552C186.728 223.744 186.46 224.024 186.26 224.392C186.06 224.76 185.96 225.192 185.96 225.688C185.96 226.192 186.06 226.632 186.26 227.008C186.46 227.376 186.728 227.66 187.064 227.86C187.4 228.052 187.772 228.148 188.18 228.148C188.588 228.148 188.96 228.052 189.296 227.86C189.64 227.66 189.912 227.376 190.112 227.008C190.312 226.632 190.412 226.196 190.412 225.7ZM199.429 229.108C198.813 229.108 198.253 228.968 197.749 228.688C197.253 228.408 196.861 228.012 196.573 227.5C196.293 226.98 196.153 226.38 196.153 225.7C196.153 225.028 196.297 224.436 196.585 223.924C196.881 223.404 197.281 223.008 197.785 222.736C198.289 222.456 198.853 222.316 199.477 222.316C200.101 222.316 200.665 222.456 201.169 222.736C201.673 223.008 202.069 223.4 202.357 223.912C202.653 224.424 202.801 225.02 202.801 225.7C202.801 226.38 202.649 226.98 202.345 227.5C202.049 228.012 201.645 228.408 201.133 228.688C200.621 228.968 200.053 229.108 199.429 229.108ZM199.429 228.148C199.821 228.148 200.189 228.056 200.533 227.872C200.877 227.688 201.153 227.412 201.361 227.044C201.577 226.676 201.685 226.228 201.685 225.7C201.685 225.172 201.581 224.724 201.373 224.356C201.165 223.988 200.893 223.716 200.557 223.54C200.221 223.356 199.857 223.264 199.465 223.264C199.065 223.264 198.697 223.356 198.361 223.54C198.033 223.716 197.769 223.988 197.569 224.356C197.369 224.724 197.269 225.172 197.269 225.7C197.269 226.236 197.365 226.688 197.557 227.056C197.757 227.424 198.021 227.7 198.349 227.884C198.677 228.06 199.037 228.148 199.429 228.148ZM207.441 222.304C208.241 222.304 208.889 222.548 209.385 223.036C209.881 223.516 210.129 224.212 210.129 225.124V229H209.049V225.28C209.049 224.624 208.885 224.124 208.557 223.78C208.229 223.428 207.781 223.252 207.213 223.252C206.637 223.252 206.177 223.432 205.833 223.792C205.497 224.152 205.329 224.676 205.329 225.364V229H204.237V222.424H205.329V223.36C205.545 223.024 205.837 222.764 206.205 222.58C206.581 222.396 206.993 222.304 207.441 222.304ZM37.684 240.424L35.632 247H34.504L32.92 241.78L31.336 247H30.208L28.144 240.424H29.26L30.772 245.944L32.404 240.424H33.52L35.116 245.956L36.604 240.424H37.684ZM42.0318 240.304C42.5278 240.304 42.9758 240.412 43.3758 240.628C43.7758 240.836 44.0878 241.152 44.3118 241.576C44.5438 242 44.6598 242.516 44.6598 243.124V247H43.5798V243.28C43.5798 242.624 43.4158 242.124 43.0878 241.78C42.7598 241.428 42.3118 241.252 41.7438 241.252C41.1678 241.252 40.7078 241.432 40.3638 241.792C40.0278 242.152 39.8598 242.676 39.8598 243.364V247H38.7678V238.12H39.8598V241.36C40.0758 241.024 40.3718 240.764 40.7478 240.58C41.1318 240.396 41.5598 240.304 42.0318 240.304ZM52.4435 243.46C52.4435 243.668 52.4315 243.888 52.4075 244.12H47.1515C47.1915 244.768 47.4115 245.276 47.8115 245.644C48.2195 246.004 48.7115 246.184 49.2875 246.184C49.7595 246.184 50.1515 246.076 50.4635 245.86C50.7835 245.636 51.0075 245.34 51.1355 244.972H52.3115C52.1355 245.604 51.7835 246.12 51.2555 246.52C50.7275 246.912 50.0715 247.108 49.2875 247.108C48.6635 247.108 48.1035 246.968 47.6075 246.688C47.1195 246.408 46.7355 246.012 46.4555 245.5C46.1755 244.98 46.0355 244.38 46.0355 243.7C46.0355 243.02 46.1715 242.424 46.4435 241.912C46.7155 241.4 47.0955 241.008 47.5835 240.736C48.0795 240.456 48.6475 240.316 49.2875 240.316C49.9115 240.316 50.4635 240.452 50.9435 240.724C51.4235 240.996 51.7915 241.372 52.0475 241.852C52.3115 242.324 52.4435 242.86 52.4435 243.46ZM51.3155 243.232C51.3155 242.816 51.2235 242.46 51.0395 242.164C50.8555 241.86 50.6035 241.632 50.2835 241.48C49.9715 241.32 49.6235 241.24 49.2395 241.24C48.6875 241.24 48.2155 241.416 47.8235 241.768C47.4395 242.12 47.2195 242.608 47.1635 243.232H51.3155ZM54.9769 241.492C55.1689 241.116 55.4409 240.824 55.7929 240.616C56.1529 240.408 56.5889 240.304 57.1009 240.304V241.432H56.8129C55.5889 241.432 54.9769 242.096 54.9769 243.424V247H53.8849V240.424H54.9769V241.492ZM64.3615 243.46C64.3615 243.668 64.3495 243.888 64.3255 244.12H59.0695C59.1095 244.768 59.3295 245.276 59.7295 245.644C60.1375 246.004 60.6295 246.184 61.2055 246.184C61.6775 246.184 62.0695 246.076 62.3815 245.86C62.7015 245.636 62.9255 245.34 63.0535 244.972H64.2295C64.0535 245.604 63.7015 246.12 63.1735 246.52C62.6455 246.912 61.9895 247.108 61.2055 247.108C60.5815 247.108 60.0215 246.968 59.5255 246.688C59.0375 246.408 58.6535 246.012 58.3735 245.5C58.0935 244.98 57.9535 244.38 57.9535 243.7C57.9535 243.02 58.0895 242.424 58.3615 241.912C58.6335 241.4 59.0135 241.008 59.5015 240.736C59.9975 240.456 60.5655 240.316 61.2055 240.316C61.8295 240.316 62.3815 240.452 62.8615 240.724C63.3415 240.996 63.7095 241.372 63.9655 241.852C64.2295 242.324 64.3615 242.86 64.3615 243.46ZM63.2335 243.232C63.2335 242.816 63.1415 242.46 62.9575 242.164C62.7735 241.86 62.5215 241.632 62.2015 241.48C61.8895 241.32 61.5415 241.24 61.1575 241.24C60.6055 241.24 60.1335 241.416 59.7415 241.768C59.3575 242.12 59.1375 242.608 59.0815 243.232H63.2335ZM70.3341 241.324V245.2C70.3341 245.52 70.4021 245.748 70.5381 245.884C70.6741 246.012 70.9101 246.076 71.2461 246.076H72.0501V247H71.0661C70.4581 247 70.0021 246.86 69.6981 246.58C69.3941 246.3 69.2421 245.84 69.2421 245.2V241.324H68.3901V240.424H69.2421V238.768H70.3341V240.424H72.0501V241.324H70.3341ZM76.6372 240.304C77.1332 240.304 77.5812 240.412 77.9812 240.628C78.3812 240.836 78.6932 241.152 78.9172 241.576C79.1492 242 79.2652 242.516 79.2652 243.124V247H78.1852V243.28C78.1852 242.624 78.0212 242.124 77.6932 241.78C77.3652 241.428 76.9172 241.252 76.3492 241.252C75.7732 241.252 75.3132 241.432 74.9692 241.792C74.6332 242.152 74.4652 242.676 74.4652 243.364V247H73.3732V238.12H74.4652V241.36C74.6812 241.024 74.9772 240.764 75.3532 240.58C75.7372 240.396 76.1652 240.304 76.6372 240.304ZM87.049 243.46C87.049 243.668 87.037 243.888 87.013 244.12H81.757C81.797 244.768 82.017 245.276 82.417 245.644C82.825 246.004 83.317 246.184 83.893 246.184C84.365 246.184 84.757 246.076 85.069 245.86C85.389 245.636 85.613 245.34 85.741 244.972H86.917C86.741 245.604 86.389 246.12 85.861 246.52C85.333 246.912 84.677 247.108 83.893 247.108C83.269 247.108 82.709 246.968 82.213 246.688C81.725 246.408 81.341 246.012 81.061 245.5C80.781 244.98 80.641 244.38 80.641 243.7C80.641 243.02 80.777 242.424 81.049 241.912C81.321 241.4 81.701 241.008 82.189 240.736C82.685 240.456 83.253 240.316 83.893 240.316C84.517 240.316 85.069 240.452 85.549 240.724C86.029 240.996 86.397 241.372 86.653 241.852C86.917 242.324 87.049 242.86 87.049 243.46ZM85.921 243.232C85.921 242.816 85.829 242.46 85.645 242.164C85.461 241.86 85.209 241.632 84.889 241.48C84.577 241.32 84.229 241.24 83.845 241.24C83.293 241.24 82.821 241.416 82.429 241.768C82.045 242.12 81.825 242.608 81.769 243.232H85.921ZM94.1544 240.424L90.1944 250.096H89.0664L90.3624 246.928L87.7104 240.424H88.9224L90.9864 245.752L93.0264 240.424H94.1544ZM98.0433 243.688C98.0433 243.016 98.1793 242.428 98.4513 241.924C98.7233 241.412 99.0953 241.016 99.5673 240.736C100.047 240.456 100.579 240.316 101.163 240.316C101.739 240.316 102.239 240.44 102.663 240.688C103.087 240.936 103.403 241.248 103.611 241.624V240.424H104.715V247H103.611V245.776C103.395 246.16 103.071 246.48 102.639 246.736C102.215 246.984 101.719 247.108 101.151 247.108C100.567 247.108 100.039 246.964 99.5673 246.676C99.0953 246.388 98.7233 245.984 98.4513 245.464C98.1793 244.944 98.0433 244.352 98.0433 243.688ZM103.611 243.7C103.611 243.204 103.511 242.772 103.311 242.404C103.111 242.036 102.839 241.756 102.495 241.564C102.159 241.364 101.787 241.264 101.379 241.264C100.971 241.264 100.599 241.36 100.263 241.552C99.9273 241.744 99.6593 242.024 99.4593 242.392C99.2593 242.76 99.1593 243.192 99.1593 243.688C99.1593 244.192 99.2593 244.632 99.4593 245.008C99.6593 245.376 99.9273 245.66 100.263 245.86C100.599 246.052 100.971 246.148 101.379 246.148C101.787 246.148 102.159 246.052 102.495 245.86C102.839 245.66 103.111 245.376 103.311 245.008C103.511 244.632 103.611 244.196 103.611 243.7ZM107.653 241.492C107.845 241.116 108.117 240.824 108.469 240.616C108.829 240.408 109.265 240.304 109.777 240.304V241.432H109.489C108.265 241.432 107.653 242.096 107.653 243.424V247H106.561V240.424H107.653V241.492ZM117.037 243.46C117.037 243.668 117.025 243.888 117.001 244.12H111.745C111.785 244.768 112.005 245.276 112.405 245.644C112.813 246.004 113.305 246.184 113.881 246.184C114.353 246.184 114.745 246.076 115.057 245.86C115.377 245.636 115.601 245.34 115.729 244.972H116.905C116.729 245.604 116.377 246.12 115.849 246.52C115.321 246.912 114.665 247.108 113.881 247.108C113.257 247.108 112.697 246.968 112.201 246.688C111.713 246.408 111.329 246.012 111.049 245.5C110.769 244.98 110.629 244.38 110.629 243.7C110.629 243.02 110.765 242.424 111.037 241.912C111.309 241.4 111.689 241.008 112.177 240.736C112.673 240.456 113.241 240.316 113.881 240.316C114.505 240.316 115.057 240.452 115.537 240.724C116.017 240.996 116.385 241.372 116.641 241.852C116.905 242.324 117.037 242.86 117.037 243.46ZM115.909 243.232C115.909 242.816 115.817 242.46 115.633 242.164C115.449 241.86 115.197 241.632 114.877 241.48C114.565 241.32 114.217 241.24 113.833 241.24C113.281 241.24 112.809 241.416 112.417 241.768C112.033 242.12 111.813 242.608 111.757 243.232H115.909ZM122.77 241.636C122.986 241.26 123.306 240.948 123.73 240.7C124.162 240.444 124.662 240.316 125.23 240.316C125.814 240.316 126.342 240.456 126.814 240.736C127.294 241.016 127.67 241.412 127.942 241.924C128.214 242.428 128.35 243.016 128.35 243.688C128.35 244.352 128.214 244.944 127.942 245.464C127.67 245.984 127.294 246.388 126.814 246.676C126.342 246.964 125.814 247.108 125.23 247.108C124.67 247.108 124.174 246.984 123.742 246.736C123.318 246.48 122.994 246.164 122.77 245.788V250.12H121.678V240.424H122.77V241.636ZM127.234 243.688C127.234 243.192 127.134 242.76 126.934 242.392C126.734 242.024 126.462 241.744 126.118 241.552C125.782 241.36 125.41 241.264 125.002 241.264C124.602 241.264 124.23 241.364 123.886 241.564C123.55 241.756 123.278 242.04 123.07 242.416C122.87 242.784 122.77 243.212 122.77 243.7C122.77 244.196 122.87 244.632 123.07 245.008C123.278 245.376 123.55 245.66 123.886 245.86C124.23 246.052 124.602 246.148 125.002 246.148C125.41 246.148 125.782 246.052 126.118 245.86C126.462 245.66 126.734 245.376 126.934 245.008C127.134 244.632 127.234 244.192 127.234 243.688ZM130.879 238.12V247H129.787V238.12H130.879ZM132.332 243.688C132.332 243.016 132.468 242.428 132.74 241.924C133.012 241.412 133.384 241.016 133.856 240.736C134.336 240.456 134.868 240.316 135.452 240.316C136.028 240.316 136.528 240.44 136.952 240.688C137.376 240.936 137.692 241.248 137.9 241.624V240.424H139.004V247H137.9V245.776C137.684 246.16 137.36 246.48 136.928 246.736C136.504 246.984 136.008 247.108 135.44 247.108C134.856 247.108 134.328 246.964 133.856 246.676C133.384 246.388 133.012 245.984 132.74 245.464C132.468 244.944 132.332 244.352 132.332 243.688ZM137.9 243.7C137.9 243.204 137.8 242.772 137.6 242.404C137.4 242.036 137.128 241.756 136.784 241.564C136.448 241.364 136.076 241.264 135.668 241.264C135.26 241.264 134.888 241.36 134.552 241.552C134.216 241.744 133.948 242.024 133.748 242.392C133.548 242.76 133.448 243.192 133.448 243.688C133.448 244.192 133.548 244.632 133.748 245.008C133.948 245.376 134.216 245.66 134.552 245.86C134.888 246.052 135.26 246.148 135.668 246.148C136.076 246.148 136.448 246.052 136.784 245.86C137.128 245.66 137.4 245.376 137.6 245.008C137.8 244.632 137.9 244.196 137.9 243.7ZM140.442 243.7C140.442 243.02 140.578 242.428 140.85 241.924C141.122 241.412 141.498 241.016 141.978 240.736C142.466 240.456 143.022 240.316 143.646 240.316C144.454 240.316 145.118 240.512 145.638 240.904C146.166 241.296 146.514 241.84 146.682 242.536H145.506C145.394 242.136 145.174 241.82 144.846 241.588C144.526 241.356 144.126 241.24 143.646 241.24C143.022 241.24 142.518 241.456 142.134 241.888C141.75 242.312 141.558 242.916 141.558 243.7C141.558 244.492 141.75 245.104 142.134 245.536C142.518 245.968 143.022 246.184 143.646 246.184C144.126 246.184 144.526 246.072 144.846 245.848C145.166 245.624 145.386 245.304 145.506 244.888H146.682C146.506 245.56 146.154 246.1 145.626 246.508C145.098 246.908 144.438 247.108 143.646 247.108C143.022 247.108 142.466 246.968 141.978 246.688C141.498 246.408 141.122 246.012 140.85 245.5C140.578 244.988 140.442 244.388 140.442 243.7ZM154.139 243.46C154.139 243.668 154.127 243.888 154.103 244.12H148.847C148.887 244.768 149.107 245.276 149.507 245.644C149.915 246.004 150.407 246.184 150.983 246.184C151.455 246.184 151.847 246.076 152.159 245.86C152.479 245.636 152.703 245.34 152.831 244.972H154.007C153.831 245.604 153.479 246.12 152.951 246.52C152.423 246.912 151.767 247.108 150.983 247.108C150.359 247.108 149.799 246.968 149.303 246.688C148.815 246.408 148.431 246.012 148.151 245.5C147.871 244.98 147.731 244.38 147.731 243.7C147.731 243.02 147.867 242.424 148.139 241.912C148.411 241.4 148.791 241.008 149.279 240.736C149.775 240.456 150.343 240.316 150.983 240.316C151.607 240.316 152.159 240.452 152.639 240.724C153.119 240.996 153.487 241.372 153.743 241.852C154.007 242.324 154.139 242.86 154.139 243.46ZM153.011 243.232C153.011 242.816 152.919 242.46 152.735 242.164C152.551 241.86 152.299 241.632 151.979 241.48C151.667 241.32 151.319 241.24 150.935 241.24C150.383 241.24 149.911 241.416 149.519 241.768C149.135 242.12 148.915 242.608 148.859 243.232H153.011ZM155.172 243.688C155.172 243.016 155.308 242.428 155.58 241.924C155.852 241.412 156.224 241.016 156.696 240.736C157.176 240.456 157.712 240.316 158.304 240.316C158.816 240.316 159.292 240.436 159.732 240.676C160.172 240.908 160.508 241.216 160.74 241.6V238.12H161.844V247H160.74V245.764C160.524 246.156 160.204 246.48 159.78 246.736C159.356 246.984 158.86 247.108 158.292 247.108C157.708 247.108 157.176 246.964 156.696 246.676C156.224 246.388 155.852 245.984 155.58 245.464C155.308 244.944 155.172 244.352 155.172 243.688ZM160.74 243.7C160.74 243.204 160.64 242.772 160.44 242.404C160.24 242.036 159.968 241.756 159.624 241.564C159.288 241.364 158.916 241.264 158.508 241.264C158.1 241.264 157.728 241.36 157.392 241.552C157.056 241.744 156.788 242.024 156.588 242.392C156.388 242.76 156.288 243.192 156.288 243.688C156.288 244.192 156.388 244.632 156.588 245.008C156.788 245.376 157.056 245.66 157.392 245.86C157.728 246.052 158.1 246.148 158.508 246.148C158.916 246.148 159.288 246.052 159.624 245.86C159.968 245.66 160.24 245.376 160.44 245.008C160.64 244.632 160.74 244.196 160.74 243.7ZM167.453 239.356C167.245 239.356 167.069 239.284 166.925 239.14C166.781 238.996 166.709 238.82 166.709 238.612C166.709 238.404 166.781 238.228 166.925 238.084C167.069 237.94 167.245 237.868 167.453 237.868C167.653 237.868 167.821 237.94 167.957 238.084C168.101 238.228 168.173 238.404 168.173 238.612C168.173 238.82 168.101 238.996 167.957 239.14C167.821 239.284 167.653 239.356 167.453 239.356ZM167.981 240.424V247H166.889V240.424H167.981ZM173.046 240.304C173.846 240.304 174.494 240.548 174.99 241.036C175.486 241.516 175.734 242.212 175.734 243.124V247H174.654V243.28C174.654 242.624 174.49 242.124 174.162 241.78C173.834 241.428 173.386 241.252 172.818 241.252C172.242 241.252 171.782 241.432 171.438 241.792C171.102 242.152 170.934 242.676 170.934 243.364V247H169.842V240.424H170.934V241.36C171.15 241.024 171.442 240.764 171.81 240.58C172.186 240.396 172.598 240.304 173.046 240.304ZM180.309 243.688C180.309 243.016 180.445 242.428 180.717 241.924C180.989 241.412 181.361 241.016 181.833 240.736C182.313 240.456 182.845 240.316 183.429 240.316C184.005 240.316 184.505 240.44 184.929 240.688C185.353 240.936 185.669 241.248 185.877 241.624V240.424H186.981V247H185.877V245.776C185.661 246.16 185.337 246.48 184.905 246.736C184.481 246.984 183.985 247.108 183.417 247.108C182.833 247.108 182.305 246.964 181.833 246.676C181.361 246.388 180.989 245.984 180.717 245.464C180.445 244.944 180.309 244.352 180.309 243.688ZM185.877 243.7C185.877 243.204 185.777 242.772 185.577 242.404C185.377 242.036 185.105 241.756 184.761 241.564C184.425 241.364 184.053 241.264 183.645 241.264C183.237 241.264 182.865 241.36 182.529 241.552C182.193 241.744 181.925 242.024 181.725 242.392C181.525 242.76 181.425 243.192 181.425 243.688C181.425 244.192 181.525 244.632 181.725 245.008C181.925 245.376 182.193 245.66 182.529 245.86C182.865 246.052 183.237 246.148 183.645 246.148C184.053 246.148 184.425 246.052 184.761 245.86C185.105 245.66 185.377 245.376 185.577 245.008C185.777 244.632 185.877 244.196 185.877 243.7ZM200.786 240.424L198.734 247H197.606L196.022 241.78L194.438 247H193.31L191.246 240.424H192.362L193.874 245.944L195.506 240.424H196.622L198.218 245.956L199.706 240.424H200.786ZM204.737 247.108C204.121 247.108 203.561 246.968 203.057 246.688C202.561 246.408 202.169 246.012 201.881 245.5C201.601 244.98 201.461 244.38 201.461 243.7C201.461 243.028 201.605 242.436 201.893 241.924C202.189 241.404 202.589 241.008 203.093 240.736C203.597 240.456 204.161 240.316 204.785 240.316C205.409 240.316 205.973 240.456 206.477 240.736C206.981 241.008 207.377 241.4 207.665 241.912C207.961 242.424 208.109 243.02 208.109 243.7C208.109 244.38 207.957 244.98 207.653 245.5C207.357 246.012 206.953 246.408 206.441 246.688C205.929 246.968 205.361 247.108 204.737 247.108ZM204.737 246.148C205.129 246.148 205.497 246.056 205.841 245.872C206.185 245.688 206.461 245.412 206.669 245.044C206.885 244.676 206.993 244.228 206.993 243.7C206.993 243.172 206.889 242.724 206.681 242.356C206.473 241.988 206.201 241.716 205.865 241.54C205.529 241.356 205.165 241.264 204.773 241.264C204.373 241.264 204.005 241.356 203.669 241.54C203.341 241.716 203.077 241.988 202.877 242.356C202.677 242.724 202.577 243.172 202.577 243.7C202.577 244.236 202.673 244.688 202.865 245.056C203.065 245.424 203.329 245.7 203.657 245.884C203.985 246.06 204.345 246.148 204.737 246.148ZM210.637 241.492C210.829 241.116 211.101 240.824 211.453 240.616C211.813 240.408 212.249 240.304 212.761 240.304V241.432H212.473C211.249 241.432 210.637 242.096 210.637 243.424V247H209.545V240.424H210.637V241.492ZM213.614 243.688C213.614 243.016 213.75 242.428 214.022 241.924C214.294 241.412 214.666 241.016 215.138 240.736C215.618 240.456 216.154 240.316 216.746 240.316C217.258 240.316 217.734 240.436 218.174 240.676C218.614 240.908 218.95 241.216 219.182 241.6V238.12H220.286V247H219.182V245.764C218.966 246.156 218.646 246.48 218.222 246.736C217.798 246.984 217.302 247.108 216.734 247.108C216.15 247.108 215.618 246.964 215.138 246.676C214.666 246.388 214.294 245.984 214.022 245.464C213.75 244.944 213.614 244.352 213.614 243.688ZM219.182 243.7C219.182 243.204 219.082 242.772 218.882 242.404C218.682 242.036 218.41 241.756 218.066 241.564C217.73 241.364 217.358 241.264 216.95 241.264C216.542 241.264 216.17 241.36 215.834 241.552C215.498 241.744 215.23 242.024 215.03 242.392C214.83 242.76 214.73 243.192 214.73 243.688C214.73 244.192 214.83 244.632 215.03 245.008C215.23 245.376 215.498 245.66 215.834 245.86C216.17 246.052 216.542 246.148 216.95 246.148C217.358 246.148 217.73 246.052 218.066 245.86C218.41 245.66 218.682 245.376 218.882 245.008C219.082 244.632 219.182 244.196 219.182 243.7ZM222.479 247.072C222.271 247.072 222.095 247 221.951 246.856C221.807 246.712 221.735 246.536 221.735 246.328C221.735 246.12 221.807 245.944 221.951 245.8C222.095 245.656 222.271 245.584 222.479 245.584C222.679 245.584 222.847 245.656 222.983 245.8C223.127 245.944 223.199 246.12 223.199 246.328C223.199 246.536 223.127 246.712 222.983 246.856C222.847 247 222.679 247.072 222.479 247.072ZM30.268 275.764V278.212H33.148V279.328H30.268V281.884H33.508V283H28.9V274.648H33.508V275.764H30.268ZM38.025 279.652L40.161 283H38.613L37.185 280.756L35.841 283H34.413L36.549 279.748L34.413 276.388H35.961L37.389 278.632L38.733 276.388H40.161L38.025 279.652ZM40.7253 279.664C40.7253 279 40.8613 278.412 41.1333 277.9C41.4133 277.388 41.7893 276.992 42.2613 276.712C42.7413 276.424 43.2693 276.28 43.8453 276.28C44.3653 276.28 44.8173 276.384 45.2013 276.592C45.5933 276.792 45.9053 277.044 46.1373 277.348V276.388H47.5173V283H46.1373V282.016C45.9053 282.328 45.5893 282.588 45.1893 282.796C44.7893 283.004 44.3333 283.108 43.8213 283.108C43.2533 283.108 42.7333 282.964 42.2613 282.676C41.7893 282.38 41.4133 281.972 41.1333 281.452C40.8613 280.924 40.7253 280.328 40.7253 279.664ZM46.1373 279.688C46.1373 279.232 46.0413 278.836 45.8493 278.5C45.6653 278.164 45.4213 277.908 45.1173 277.732C44.8133 277.556 44.4853 277.468 44.1333 277.468C43.7813 277.468 43.4533 277.556 43.1493 277.732C42.8453 277.9 42.5973 278.152 42.4053 278.488C42.2213 278.816 42.1293 279.208 42.1293 279.664C42.1293 280.12 42.2213 280.52 42.4053 280.864C42.5973 281.208 42.8453 281.472 43.1493 281.656C43.4613 281.832 43.7893 281.92 44.1333 281.92C44.4853 281.92 44.8133 281.832 45.1173 281.656C45.4213 281.48 45.6653 281.224 45.8493 280.888C46.0413 280.544 46.1373 280.144 46.1373 279.688ZM57.3181 276.28C57.8381 276.28 58.3021 276.388 58.7101 276.604C59.1261 276.82 59.4501 277.14 59.6821 277.564C59.9221 277.988 60.0421 278.5 60.0421 279.1V283H58.6861V279.304C58.6861 278.712 58.5381 278.26 58.2421 277.948C57.9461 277.628 57.5421 277.468 57.0301 277.468C56.5181 277.468 56.1101 277.628 55.8061 277.948C55.5101 278.26 55.3621 278.712 55.3621 279.304V283H54.0061V279.304C54.0061 278.712 53.8581 278.26 53.5621 277.948C53.2661 277.628 52.8621 277.468 52.3501 277.468C51.8381 277.468 51.4301 277.628 51.1261 277.948C50.8301 278.26 50.6821 278.712 50.6821 279.304V283H49.3141V276.388H50.6821V277.144C50.9061 276.872 51.1901 276.66 51.5341 276.508C51.8781 276.356 52.2461 276.28 52.6381 276.28C53.1661 276.28 53.6381 276.392 54.0541 276.616C54.4701 276.84 54.7901 277.164 55.0141 277.588C55.2141 277.188 55.5261 276.872 55.9501 276.64C56.3741 276.4 56.8301 276.28 57.3181 276.28ZM63.1508 277.36C63.3828 277.056 63.6988 276.8 64.0988 276.592C64.4988 276.384 64.9508 276.28 65.4548 276.28C66.0308 276.28 66.5548 276.424 67.0268 276.712C67.5068 276.992 67.8828 277.388 68.1548 277.9C68.4268 278.412 68.5628 279 68.5628 279.664C68.5628 280.328 68.4268 280.924 68.1548 281.452C67.8828 281.972 67.5068 282.38 67.0268 282.676C66.5548 282.964 66.0308 283.108 65.4548 283.108C64.9508 283.108 64.5028 283.008 64.1108 282.808C63.7188 282.6 63.3988 282.344 63.1508 282.04V286.144H61.7828V276.388H63.1508V277.36ZM67.1708 279.664C67.1708 279.208 67.0748 278.816 66.8828 278.488C66.6988 278.152 66.4508 277.9 66.1388 277.732C65.8348 277.556 65.5068 277.468 65.1548 277.468C64.8108 277.468 64.4828 277.556 64.1708 277.732C63.8668 277.908 63.6188 278.164 63.4268 278.5C63.2428 278.836 63.1508 279.232 63.1508 279.688C63.1508 280.144 63.2428 280.544 63.4268 280.888C63.6188 281.224 63.8668 281.48 64.1708 281.656C64.4828 281.832 64.8108 281.92 65.1548 281.92C65.5068 281.92 65.8348 281.832 66.1388 281.656C66.4508 281.472 66.6988 281.208 66.8828 280.864C67.0748 280.52 67.1708 280.12 67.1708 279.664ZM71.2836 274.12V283H69.9156V274.12H71.2836ZM79.1397 279.532C79.1397 279.78 79.1237 280.004 79.0917 280.204H74.0397C74.0797 280.732 74.2757 281.156 74.6277 281.476C74.9797 281.796 75.4117 281.956 75.9237 281.956C76.6597 281.956 77.1797 281.648 77.4837 281.032H78.9597C78.7597 281.64 78.3957 282.14 77.8677 282.532C77.3477 282.916 76.6997 283.108 75.9237 283.108C75.2917 283.108 74.7237 282.968 74.2197 282.688C73.7237 282.4 73.3317 282 73.0437 281.488C72.7637 280.968 72.6237 280.368 72.6237 279.688C72.6237 279.008 72.7597 278.412 73.0317 277.9C73.3117 277.38 73.6997 276.98 74.1957 276.7C74.6997 276.42 75.2757 276.28 75.9237 276.28C76.5477 276.28 77.1037 276.416 77.5917 276.688C78.0797 276.96 78.4597 277.344 78.7317 277.84C79.0037 278.328 79.1397 278.892 79.1397 279.532ZM77.7117 279.1C77.7037 278.596 77.5237 278.192 77.1717 277.888C76.8197 277.584 76.3837 277.432 75.8637 277.432C75.3917 277.432 74.9877 277.584 74.6517 277.888C74.3157 278.184 74.1157 278.588 74.0517 279.1H77.7117ZM81.0379 283.084C80.7899 283.084 80.5819 283 80.4139 282.832C80.2459 282.664 80.1619 282.456 80.1619 282.208C80.1619 281.96 80.2459 281.752 80.4139 281.584C80.5819 281.416 80.7899 281.332 81.0379 281.332C81.2779 281.332 81.4819 281.416 81.6499 281.584C81.8179 281.752 81.9019 281.96 81.9019 282.208C81.9019 282.456 81.8179 282.664 81.6499 282.832C81.4819 283 81.2779 283.084 81.0379 283.084ZM81.0379 278.044C80.7899 278.044 80.5819 277.96 80.4139 277.792C80.2459 277.624 80.1619 277.416 80.1619 277.168C80.1619 276.92 80.2459 276.712 80.4139 276.544C80.5819 276.376 80.7899 276.292 81.0379 276.292C81.2779 276.292 81.4819 276.376 81.6499 276.544C81.8179 276.712 81.9019 276.92 81.9019 277.168C81.9019 277.416 81.8179 277.624 81.6499 277.792C81.4819 277.96 81.2779 278.044 81.0379 278.044ZM30.148 293.704H36.892V299.368H35.908V294.52H30.148V293.704ZM42.7543 297.7C42.7543 297.02 42.8903 296.428 43.1623 295.924C43.4343 295.412 43.8103 295.016 44.2903 294.736C44.7783 294.456 45.3343 294.316 45.9583 294.316C46.7663 294.316 47.4303 294.512 47.9503 294.904C48.4783 295.296 48.8263 295.84 48.9943 296.536H47.8183C47.7063 296.136 47.4863 295.82 47.1583 295.588C46.8383 295.356 46.4383 295.24 45.9583 295.24C45.3343 295.24 44.8303 295.456 44.4463 295.888C44.0623 296.312 43.8703 296.916 43.8703 297.7C43.8703 298.492 44.0623 299.104 44.4463 299.536C44.8303 299.968 45.3343 300.184 45.9583 300.184C46.4383 300.184 46.8383 300.072 47.1583 299.848C47.4783 299.624 47.6983 299.304 47.8183 298.888H48.9943C48.8183 299.56 48.4663 300.1 47.9383 300.508C47.4103 300.908 46.7503 301.108 45.9583 301.108C45.3343 301.108 44.7783 300.968 44.2903 300.688C43.8103 300.408 43.4343 300.012 43.1623 299.5C42.8903 298.988 42.7543 298.388 42.7543 297.7ZM50.0433 297.688C50.0433 297.016 50.1793 296.428 50.4513 295.924C50.7233 295.412 51.0953 295.016 51.5673 294.736C52.0473 294.456 52.5793 294.316 53.1633 294.316C53.7393 294.316 54.2393 294.44 54.6633 294.688C55.0873 294.936 55.4033 295.248 55.6113 295.624V294.424H56.7153V301H55.6113V299.776C55.3953 300.16 55.0713 300.48 54.6393 300.736C54.2153 300.984 53.7193 301.108 53.1513 301.108C52.5673 301.108 52.0393 300.964 51.5673 300.676C51.0953 300.388 50.7233 299.984 50.4513 299.464C50.1793 298.944 50.0433 298.352 50.0433 297.688ZM55.6113 297.7C55.6113 297.204 55.5113 296.772 55.3113 296.404C55.1113 296.036 54.8393 295.756 54.4953 295.564C54.1593 295.364 53.7873 295.264 53.3793 295.264C52.9713 295.264 52.5993 295.36 52.2633 295.552C51.9273 295.744 51.6593 296.024 51.4593 296.392C51.2593 296.76 51.1593 297.192 51.1593 297.688C51.1593 298.192 51.2593 298.632 51.4593 299.008C51.6593 299.376 51.9273 299.66 52.2633 299.86C52.5993 300.052 52.9713 300.148 53.3793 300.148C53.7873 300.148 54.1593 300.052 54.4953 299.86C54.8393 299.66 55.1113 299.376 55.3113 299.008C55.5113 298.632 55.6113 298.196 55.6113 297.7ZM61.7647 294.304C62.5647 294.304 63.2127 294.548 63.7087 295.036C64.2047 295.516 64.4527 296.212 64.4527 297.124V301H63.3727V297.28C63.3727 296.624 63.2087 296.124 62.8807 295.78C62.5527 295.428 62.1047 295.252 61.5367 295.252C60.9607 295.252 60.5007 295.432 60.1567 295.792C59.8207 296.152 59.6527 296.676 59.6527 297.364V301H58.5607V294.424H59.6527V295.36C59.8687 295.024 60.1607 294.764 60.5287 294.58C60.9047 294.396 61.3167 294.304 61.7647 294.304ZM71.7637 301.108C71.2597 301.108 70.8077 301.024 70.4077 300.856C70.0077 300.68 69.6917 300.44 69.4597 300.136C69.2277 299.824 69.0997 299.468 69.0757 299.068H70.2037C70.2357 299.396 70.3877 299.664 70.6597 299.872C70.9397 300.08 71.3037 300.184 71.7517 300.184C72.1677 300.184 72.4957 300.092 72.7357 299.908C72.9757 299.724 73.0957 299.492 73.0957 299.212C73.0957 298.924 72.9677 298.712 72.7117 298.576C72.4557 298.432 72.0597 298.292 71.5237 298.156C71.0357 298.028 70.6357 297.9 70.3237 297.772C70.0197 297.636 69.7557 297.44 69.5317 297.184C69.3157 296.92 69.2077 296.576 69.2077 296.152C69.2077 295.816 69.3077 295.508 69.5077 295.228C69.7077 294.948 69.9917 294.728 70.3597 294.568C70.7277 294.4 71.1477 294.316 71.6197 294.316C72.3477 294.316 72.9357 294.5 73.3837 294.868C73.8317 295.236 74.0717 295.74 74.1037 296.38H73.0117C72.9877 296.036 72.8477 295.76 72.5917 295.552C72.3437 295.344 72.0077 295.24 71.5837 295.24C71.1917 295.24 70.8797 295.324 70.6477 295.492C70.4157 295.66 70.2997 295.88 70.2997 296.152C70.2997 296.368 70.3677 296.548 70.5037 296.692C70.6477 296.828 70.8237 296.94 71.0317 297.028C71.2477 297.108 71.5437 297.2 71.9197 297.304C72.3917 297.432 72.7757 297.56 73.0717 297.688C73.3677 297.808 73.6197 297.992 73.8277 298.24C74.0437 298.488 74.1557 298.812 74.1637 299.212C74.1637 299.572 74.0637 299.896 73.8637 300.184C73.6637 300.472 73.3797 300.7 73.0117 300.868C72.6517 301.028 72.2357 301.108 71.7637 301.108ZM78.5733 301.108C77.9573 301.108 77.3973 300.968 76.8933 300.688C76.3973 300.408 76.0053 300.012 75.7173 299.5C75.4373 298.98 75.2973 298.38 75.2973 297.7C75.2973 297.028 75.4413 296.436 75.7293 295.924C76.0253 295.404 76.4253 295.008 76.9293 294.736C77.4333 294.456 77.9973 294.316 78.6213 294.316C79.2453 294.316 79.8093 294.456 80.3133 294.736C80.8173 295.008 81.2133 295.4 81.5013 295.912C81.7973 296.424 81.9453 297.02 81.9453 297.7C81.9453 298.38 81.7933 298.98 81.4893 299.5C81.1933 300.012 80.7893 300.408 80.2773 300.688C79.7653 300.968 79.1973 301.108 78.5733 301.108ZM78.5733 300.148C78.9653 300.148 79.3333 300.056 79.6773 299.872C80.0213 299.688 80.2973 299.412 80.5053 299.044C80.7213 298.676 80.8293 298.228 80.8293 297.7C80.8293 297.172 80.7253 296.724 80.5173 296.356C80.3093 295.988 80.0373 295.716 79.7013 295.54C79.3653 295.356 79.0013 295.264 78.6093 295.264C78.2093 295.264 77.8413 295.356 77.5053 295.54C77.1773 295.716 76.9133 295.988 76.7133 296.356C76.5133 296.724 76.4133 297.172 76.4133 297.7C76.4133 298.236 76.5093 298.688 76.7013 299.056C76.9013 299.424 77.1653 299.7 77.4933 299.884C77.8213 300.06 78.1813 300.148 78.5733 300.148ZM89.213 294.424V301H88.121V300.028C87.913 300.364 87.621 300.628 87.245 300.82C86.877 301.004 86.469 301.096 86.021 301.096C85.509 301.096 85.049 300.992 84.641 300.784C84.233 300.568 83.909 300.248 83.669 299.824C83.437 299.4 83.321 298.884 83.321 298.276V294.424H84.401V298.132C84.401 298.78 84.565 299.28 84.893 299.632C85.221 299.976 85.669 300.148 86.237 300.148C86.821 300.148 87.281 299.968 87.617 299.608C87.953 299.248 88.121 298.724 88.121 298.036V294.424H89.213ZM94.2608 294.304C95.0608 294.304 95.7088 294.548 96.2048 295.036C96.7008 295.516 96.9488 296.212 96.9488 297.124V301H95.8688V297.28C95.8688 296.624 95.7048 296.124 95.3768 295.78C95.0488 295.428 94.6008 295.252 94.0328 295.252C93.4568 295.252 92.9968 295.432 92.6528 295.792C92.3168 296.152 92.1488 296.676 92.1488 297.364V301H91.0568V294.424H92.1488V295.36C92.3648 295.024 92.6568 294.764 93.0248 294.58C93.4008 294.396 93.8128 294.304 94.2608 294.304ZM98.3246 297.688C98.3246 297.016 98.4606 296.428 98.7326 295.924C99.0046 295.412 99.3766 295.016 99.8486 294.736C100.329 294.456 100.865 294.316 101.457 294.316C101.969 294.316 102.445 294.436 102.885 294.676C103.325 294.908 103.661 295.216 103.893 295.6V292.12H104.997V301H103.893V299.764C103.677 300.156 103.357 300.48 102.933 300.736C102.509 300.984 102.013 301.108 101.445 301.108C100.861 301.108 100.329 300.964 99.8486 300.676C99.3766 300.388 99.0046 299.984 98.7326 299.464C98.4606 298.944 98.3246 298.352 98.3246 297.688ZM103.893 297.7C103.893 297.204 103.793 296.772 103.593 296.404C103.393 296.036 103.121 295.756 102.777 295.564C102.441 295.364 102.069 295.264 101.661 295.264C101.253 295.264 100.881 295.36 100.545 295.552C100.209 295.744 99.9406 296.024 99.7406 296.392C99.5406 296.76 99.4406 297.192 99.4406 297.688C99.4406 298.192 99.5406 298.632 99.7406 299.008C99.9406 299.376 100.209 299.66 100.545 299.86C100.881 300.052 101.253 300.148 101.661 300.148C102.069 300.148 102.441 300.052 102.777 299.86C103.121 299.66 103.393 299.376 103.593 299.008C103.793 298.632 103.893 298.196 103.893 297.7ZM111.133 292.12V301H110.041V292.12H111.133ZM113.558 293.356C113.35 293.356 113.174 293.284 113.03 293.14C112.886 292.996 112.814 292.82 112.814 292.612C112.814 292.404 112.886 292.228 113.03 292.084C113.174 291.94 113.35 291.868 113.558 291.868C113.758 291.868 113.926 291.94 114.062 292.084C114.206 292.228 114.278 292.404 114.278 292.612C114.278 292.82 114.206 292.996 114.062 293.14C113.926 293.284 113.758 293.356 113.558 293.356ZM114.086 294.424V301H112.994V294.424H114.086ZM119.619 301L117.039 298.096V301H115.947V292.12H117.039V297.34L119.571 294.424H121.095L117.999 297.7L121.107 301H119.619ZM128.123 297.46C128.123 297.668 128.111 297.888 128.087 298.12H122.831C122.871 298.768 123.091 299.276 123.491 299.644C123.899 300.004 124.391 300.184 124.967 300.184C125.439 300.184 125.831 300.076 126.143 299.86C126.463 299.636 126.687 299.34 126.815 298.972H127.991C127.815 299.604 127.463 300.12 126.935 300.52C126.407 300.912 125.751 301.108 124.967 301.108C124.343 301.108 123.783 300.968 123.287 300.688C122.799 300.408 122.415 300.012 122.135 299.5C121.855 298.98 121.715 298.38 121.715 297.7C121.715 297.02 121.851 296.424 122.123 295.912C122.395 295.4 122.775 295.008 123.263 294.736C123.759 294.456 124.327 294.316 124.967 294.316C125.591 294.316 126.143 294.452 126.623 294.724C127.103 294.996 127.471 295.372 127.727 295.852C127.991 296.324 128.123 296.86 128.123 297.46ZM126.995 297.232C126.995 296.816 126.903 296.46 126.719 296.164C126.535 295.86 126.283 295.632 125.963 295.48C125.651 295.32 125.303 295.24 124.919 295.24C124.367 295.24 123.895 295.416 123.503 295.768C123.119 296.12 122.899 296.608 122.843 297.232H126.995ZM133.352 295.36H132.128L133.28 292.636H134.06L133.352 295.36ZM135.296 295.36H134.072L135.224 292.636H136.004L135.296 295.36ZM143.658 295.06C143.426 294.572 143.09 294.196 142.65 293.932C142.21 293.66 141.698 293.524 141.114 293.524C140.53 293.524 140.002 293.66 139.53 293.932C139.066 294.196 138.698 294.58 138.426 295.084C138.162 295.58 138.03 296.156 138.03 296.812C138.03 297.468 138.162 298.044 138.426 298.54C138.698 299.036 139.066 299.42 139.53 299.692C140.002 299.956 140.53 300.088 141.114 300.088C141.93 300.088 142.602 299.844 143.13 299.356C143.658 298.868 143.966 298.208 144.054 297.376H140.718V296.488H145.218V297.328C145.154 298.016 144.938 298.648 144.57 299.224C144.202 299.792 143.718 300.244 143.118 300.58C142.518 300.908 141.85 301.072 141.114 301.072C140.338 301.072 139.63 300.892 138.99 300.532C138.35 300.164 137.842 299.656 137.466 299.008C137.098 298.36 136.914 297.628 136.914 296.812C136.914 295.996 137.098 295.264 137.466 294.616C137.842 293.96 138.35 293.452 138.99 293.092C139.63 292.724 140.338 292.54 141.114 292.54C142.002 292.54 142.786 292.76 143.466 293.2C144.154 293.64 144.654 294.26 144.966 295.06H143.658ZM146.83 292.636H148.042L146.89 295.36H146.122L146.83 292.636ZM148.774 292.636H149.986L148.834 295.36H148.054L148.774 292.636ZM157.288 301.108C156.672 301.108 156.112 300.968 155.608 300.688C155.112 300.408 154.72 300.012 154.432 299.5C154.152 298.98 154.012 298.38 154.012 297.7C154.012 297.028 154.156 296.436 154.444 295.924C154.74 295.404 155.14 295.008 155.644 294.736C156.148 294.456 156.712 294.316 157.336 294.316C157.96 294.316 158.524 294.456 159.028 294.736C159.532 295.008 159.928 295.4 160.216 295.912C160.512 296.424 160.66 297.02 160.66 297.7C160.66 298.38 160.508 298.98 160.204 299.5C159.908 300.012 159.504 300.408 158.992 300.688C158.48 300.968 157.912 301.108 157.288 301.108ZM157.288 300.148C157.68 300.148 158.048 300.056 158.392 299.872C158.736 299.688 159.012 299.412 159.22 299.044C159.436 298.676 159.544 298.228 159.544 297.7C159.544 297.172 159.44 296.724 159.232 296.356C159.024 295.988 158.752 295.716 158.416 295.54C158.08 295.356 157.716 295.264 157.324 295.264C156.924 295.264 156.556 295.356 156.22 295.54C155.892 295.716 155.628 295.988 155.428 296.356C155.228 296.724 155.128 297.172 155.128 297.7C155.128 298.236 155.224 298.688 155.416 299.056C155.616 299.424 155.88 299.7 156.208 299.884C156.536 300.06 156.896 300.148 157.288 300.148ZM163.188 295.492C163.38 295.116 163.652 294.824 164.004 294.616C164.364 294.408 164.8 294.304 165.312 294.304V295.432H165.024C163.8 295.432 163.188 296.096 163.188 297.424V301H162.096V294.424H163.188V295.492ZM170.36 295.36H169.136L170.288 292.636H171.068L170.36 295.36ZM172.304 295.36H171.08L172.232 292.636H173.012L172.304 295.36ZM178.866 301L175.422 297.184V301H174.33V292.636H175.422V296.512L178.878 292.636H180.258L176.466 296.824L180.294 301H178.866ZM181.682 292.636H182.894L181.742 295.36H180.974L181.682 292.636ZM183.626 292.636H184.838L183.686 295.36H182.906L183.626 292.636Z" fill="black"/>
</g>
<defs>
<filter id="filter0_d_1510_3456" x="0" y="0" width="257" height="340" filterUnits="userSpaceOnUse" color-interpolation-filters="sRGB">
<feFlood flood-opacity="0" result="BackgroundImageFix"/>
<feColorMatrix in="SourceAlpha" type="matrix" values="0 0 0 0 0 0 0 0 0 0 0 0 0 0 0 0 0 0 127 0" result="hardAlpha"/>
<feOffset dx="2" dy="4"/>
<feGaussianBlur stdDeviation="5"/>
<feComposite in2="hardAlpha" operator="out"/>
<feColorMatrix type="matrix" values="0 0 0 0 0 0 0 0 0 0 0 0 0 0 0 0 0 0 0.1 0"/>
<feBlend mode="normal" in2="BackgroundImageFix" result="effect1_dropShadow_1510_3456"/>
<feBlend mode="normal" in="SourceGraphic" in2="effect1_dropShadow_1510_3456" result="shape"/>
</filter>
</defs>
</svg>
