<svg width="100" height="100" viewBox="0 0 100 100" fill="none" xmlns="http://www.w3.org/2000/svg">
<g filter="url(#filter0_i_3242_12263)">
<g clip-path="url(#clip0_3242_12263)">
<rect width="100" height="100" rx="16" fill="#9C83C7"/>
<path d="M9.50283 -7.18272C4.9071 -2.84716 1.31079 -1.14001 0.484868 -0.0200262C-1.01513 -4.52002 -0.515121 -31.4119 2.52552 -31.6772C5.98487 -31.979 16.2324 -22.2771 21.4855 -14.882C21.7779 -14.4704 21.1989 -15.3391 21.4855 -14.882C21.4855 -14.882 14.0986 -11.5183 9.50283 -7.18272Z" fill="url(#paint0_linear_3242_12263)"/>
<path d="M9.50283 -7.15831C4.9071 -2.82274 1.31079 -1.11559 0.484868 0.00438782C-1.01513 -4.49561 -0.515121 -31.3875 2.52552 -31.6528C5.98487 -31.9546 16.2324 -22.2527 21.4855 -14.8576C21.7779 -14.4459 21.1989 -15.3147 21.4855 -14.8576C21.4855 -14.8576 14.0986 -11.4939 9.50283 -7.15831Z" fill="url(#paint1_linear_3242_12263)"/>
<path d="M8.97293 10.0171C6.78443 10.3007 7.0568 21.0408 5.689 22.6313C4.32119 24.2218 -4.90108 26.4703 -4.97992 28.6641C-5.05876 30.858 3.39072 34.1485 4.32119 35.7939C5.25165 37.4392 4.51254 46.0995 7.06825 46.7627C9.62397 47.4258 14.849 37.9075 16.5609 37.3924C18.2728 36.8773 28.2442 41.7675 29.7624 39.9481C31.2807 38.1287 25.5866 31.4064 25.3855 29.761C25.1843 28.1156 30.7371 20.986 29.7624 19.3406C28.7878 17.6953 19.9142 19.2664 18.2728 18.518C16.6315 17.7696 11.1614 9.73346 8.97293 10.0171Z" fill="#C3AEE6"/>
<g filter="url(#filter1_f_3242_12263)">
<circle cx="91.9863" cy="62.0059" r="6" fill="#CD91D7"/>
</g>
<g filter="url(#filter2_f_3242_12263)">
<circle cx="8.97864" cy="62.0059" r="6" fill="#CD91D7"/>
</g>
<path fill-rule="evenodd" clip-rule="evenodd" d="M49.3446 57.3854C48.4451 56.7143 47.034 56.3192 47.1752 55.4229C47.3164 54.5266 48.5474 54.0506 50.0192 54.0783C51.2173 54.1009 52.5673 54.5265 52.7271 55.423C52.887 56.3195 51.5511 56.7143 50.8765 57.3854C50.4138 60.8017 55.7541 62.1272 56.4284 62.1464C64.299 62.3701 62.7067 58.3392 63.831 59.9052C64.662 61.0626 64.0044 61.9235 61.9805 62.5946C61.7665 63.6589 61.2776 64.7315 60.7026 65.5605C60.0692 66.474 59.3313 67.0917 58.7418 67.0769C57.6175 67.0485 56.5447 63.2019 56.0949 63.2019C53.835 63.2019 50.469 61.1885 50.0192 61.1885C49.5695 61.1885 46.5836 63.4975 44.3349 63.4975C43.8851 63.9449 42.5228 67.0769 41.6233 67.0769C41.2926 67.0769 40.994 66.8954 40.6816 66.5214C40.2773 66.0373 39.8498 65.2306 39.2993 64.0771C39.1184 63.698 38.9241 63.2813 38.713 62.8263C37.5887 62.3789 35.3075 61.6958 36.534 60.3534C38.5817 58.1123 35.8216 62.1464 43.0112 62.1464C43.6859 62.1464 49.9513 61.2499 49.3446 57.3854ZM60.7026 63.49C60.7026 63.0417 57.6288 63.0759 57.464 63.49C57.2992 63.904 58.2897 66.1793 58.852 66.1793C59.4143 66.1793 60.7026 63.9382 60.7026 63.49ZM42.9826 63.6741C42.5003 63.4903 40.6228 63.3162 40.3515 63.4954C40.0238 63.6741 41.0721 66.1793 41.6341 66.1793C42.1962 66.1793 43.2145 63.7624 42.9826 63.6741Z" fill="black"/>
<path d="M57.464 63.49C57.6288 63.0759 60.7026 63.0417 60.7026 63.49C60.7026 63.9382 59.4143 66.1793 58.852 66.1793C58.2897 66.1793 57.2992 63.904 57.464 63.49Z" fill="white"/>
<path d="M40.3515 63.4954C40.6228 63.3162 42.5003 63.4903 42.9826 63.6741C43.2145 63.7624 42.1962 66.1793 41.6341 66.1793C41.0721 66.1793 40.0238 63.6741 40.3515 63.4954Z" fill="white"/>
<path d="M42.4271 73.1871C43.8049 75.7936 46.2702 78.136 50.6816 78.1871C56.0222 78.249 58.5166 74.5479 59.6816 71.0771C59.6816 71.0771 57.1816 66.6869 51.1816 66.6869C45.1816 66.6869 42.4271 73.1871 42.4271 73.1871Z" fill="#F26C95"/>
<path d="M58.7418 67.0769C57.6175 67.0485 56.5447 63.2019 56.0949 63.2019C53.835 63.2019 50.469 61.1885 50.0192 61.1885C49.5695 61.1885 46.5836 63.4975 44.3349 63.4975C43.8851 63.9449 42.5228 67.0769 41.6233 67.0769C41.2926 67.0769 40.994 66.8954 40.6816 66.5214C40.6816 66.5214 40.6751 69.8727 42.4271 73.1871C42.4271 73.1871 45.1816 66.6869 51.1816 66.6869C57.1816 66.6869 59.6816 71.0771 59.6816 71.0771C60.7026 68.0354 60.7026 65.5605 60.7026 65.5605C60.0692 66.474 59.3313 67.0917 58.7418 67.0769Z" fill="#B62C60"/>
<path d="M61.9805 62.5946C61.7665 63.6589 61.2776 64.7315 60.7026 65.5605C60.7026 65.5605 60.7026 68.0354 59.6816 71.0771C58.5166 74.5479 56.0222 78.249 50.6816 78.1871C46.2702 78.136 43.8049 75.7936 42.4271 73.1871C40.6751 69.8727 40.6816 66.5214 40.6816 66.5214C40.2773 66.0373 39.8498 65.2306 39.2993 64.0771C39.2993 64.0771 38.9394 78.8766 50.6816 79.0771C62.4239 79.2777 61.9805 62.5946 61.9805 62.5946Z" fill="black"/>
<path d="M92.2013 51.0948C92.2013 58.2745 86.7639 63.5948 80.7013 63.5948C74.6387 63.5948 69.2013 58.2745 69.2013 51.0948C69.2013 47.0947 70.2013 44.9536 70.2013 44.9536C70.5969 44.7816 71.1835 44.523 71.8749 44.2108C73.5235 43.4665 75.7686 42.4178 77.4446 41.5136L78.8646 40.7074C80.0933 39.9733 81.4389 39.0843 82.7013 38.2143L83.2013 38.4258C88.1818 39.7537 92.2013 44.9218 92.2013 51.0948Z" fill="black"/>
<path d="M83.2013 38.4258L82.8897 39.1626L82.9412 39.1844L82.9952 39.1988L83.2013 38.4258ZM68.3939 44.8561C67.986 45.0259 67.7929 45.4942 67.9627 45.9021C68.1324 46.31 68.6007 46.5031 69.0086 46.3333L68.7013 45.5947L68.3939 44.8561ZM70.2013 44.9536L69.8824 44.2199L69.8824 44.2199L70.2013 44.9536ZM78.2013 41.0947L78.5971 41.7899V41.7899L78.2013 41.0947ZM88.1871 35.2303C88.5381 34.962 88.6052 34.4599 88.3369 34.1089C88.0686 33.7579 87.5665 33.6908 87.2155 33.9591L87.7013 34.5947L88.1871 35.2303ZM71.8749 44.2108L72.2041 44.9399L71.8749 44.2108ZM70.4973 43.9502C70.0939 44.1304 69.9131 44.6036 70.0933 45.0069C70.2736 45.4103 70.7467 45.5912 71.1501 45.4109L70.8237 44.6806L70.4973 43.9502ZM92.2013 51.0948H91.4013C91.4013 57.8715 86.2842 62.7948 80.7013 62.7948V63.5948V64.3948C87.2435 64.3948 93.0013 58.6775 93.0013 51.0948H92.2013ZM80.7013 63.5948V62.7948C75.1184 62.7948 70.0013 57.8715 70.0013 51.0948H69.2013H68.4013C68.4013 58.6775 74.1591 64.3948 80.7013 64.3948V63.5948ZM83.2013 38.4258L82.9952 39.1988C87.594 40.4249 91.4013 45.2506 91.4013 51.0948H92.2013H93.0013C93.0013 44.5929 88.7695 39.0824 83.4074 37.6528L83.2013 38.4258ZM68.7013 45.5947C69.0086 46.3333 69.0087 46.3333 69.0087 46.3333C69.0087 46.3333 69.0087 46.3333 69.0087 46.3333C69.0087 46.3333 69.0088 46.3333 69.0088 46.3333C69.0089 46.3332 69.009 46.3332 69.0092 46.3331C69.0095 46.333 69.01 46.3328 69.0106 46.3325C69.0119 46.332 69.0137 46.3312 69.016 46.3303C69.0207 46.3283 69.0277 46.3254 69.0368 46.3216C69.055 46.314 69.0818 46.3027 69.1169 46.288C69.1869 46.2586 69.2896 46.2153 69.4209 46.1596C69.6835 46.0482 70.0607 45.887 70.5202 45.6873L70.2013 44.9536L69.8824 44.2199C69.4277 44.4175 69.0549 44.5769 68.796 44.6867C68.6666 44.7416 68.5657 44.7841 68.4974 44.8128C68.4632 44.8272 68.4371 44.8381 68.4197 44.8454C68.411 44.849 68.4045 44.8517 68.4002 44.8535C68.398 44.8544 68.3964 44.8551 68.3954 44.8555C68.3948 44.8557 68.3945 44.8559 68.3942 44.856C68.3941 44.856 68.394 44.8561 68.394 44.8561C68.394 44.8561 68.3939 44.8561 68.3939 44.8561C68.3939 44.8561 68.3939 44.8561 68.3939 44.8561C68.3939 44.8561 68.3939 44.8561 68.7013 45.5947ZM69.2013 51.0948H70.0013C70.0013 49.162 70.2428 47.6897 70.4789 46.7119C70.597 46.2229 70.7139 45.8571 70.7987 45.619C70.8411 45.5 70.8755 45.4129 70.898 45.3582C70.9093 45.3308 70.9176 45.3116 70.9224 45.3006C70.9248 45.2951 70.9264 45.2916 70.927 45.2902C70.9274 45.2895 70.9274 45.2893 70.9273 45.2896C70.9272 45.2898 70.9271 45.29 70.9269 45.2905C70.9268 45.2907 70.9267 45.2909 70.9266 45.2912C70.9265 45.2913 70.9264 45.2916 70.9264 45.2916C70.9263 45.2919 70.9261 45.2921 70.2013 44.9536C69.4765 44.615 69.4763 44.6153 69.4762 44.6156C69.4762 44.6157 69.476 44.616 69.4759 44.6162C69.4757 44.6166 69.4755 44.617 69.4753 44.6175C69.4749 44.6184 69.4744 44.6195 69.4738 44.6207C69.4727 44.6231 69.4714 44.626 69.4698 44.6295C69.4667 44.6364 69.4626 44.6455 69.4577 44.6566C69.4479 44.6789 69.4347 44.7096 69.4187 44.7486C69.3865 44.8267 69.3428 44.938 69.2914 45.0822C69.1887 45.3706 69.0555 45.7901 68.9236 46.3364C68.6598 47.4292 68.4013 49.0275 68.4013 51.0948H69.2013ZM78.2013 41.0947L78.5971 41.7899C78.8189 41.6637 79.0452 41.5314 79.2749 41.3941L78.8646 40.7074L78.4543 40.0206C78.2331 40.1528 78.0164 40.2794 77.8054 40.3995L78.2013 41.0947ZM78.8646 40.7074L79.2749 41.3941C80.5243 40.6477 81.8857 39.748 83.1552 38.8731L82.7013 38.2143L82.2473 37.5556C80.9921 38.4206 79.6622 39.2989 78.4543 40.0206L78.8646 40.7074ZM82.7013 38.2143L83.1552 38.8731C84.5086 37.9404 85.7658 37.0303 86.6841 36.3538C87.1434 36.0154 87.5185 35.735 87.779 35.5391C87.9093 35.4411 88.011 35.3642 88.0802 35.3116C88.1149 35.2853 88.1414 35.2652 88.1594 35.2515C88.1684 35.2446 88.1752 35.2394 88.1798 35.2359C88.1822 35.2341 88.1839 35.2327 88.1852 35.2318C88.1858 35.2313 88.1862 35.231 88.1866 35.2307C88.1867 35.2306 88.1868 35.2305 88.1869 35.2304C88.187 35.2304 88.187 35.2304 88.1871 35.2304C88.1871 35.2303 88.1871 35.2303 87.7013 34.5947C87.2155 33.9591 87.2155 33.9591 87.2155 33.9591C87.2155 33.9591 87.2154 33.9591 87.2154 33.9592C87.2154 33.9592 87.2153 33.9593 87.2152 33.9594C87.2149 33.9595 87.2146 33.9598 87.214 33.9602C87.213 33.961 87.2114 33.9622 87.2093 33.9638C87.205 33.9671 87.1986 33.972 87.19 33.9786C87.1728 33.9917 87.147 34.0112 87.1132 34.0369C87.0456 34.0882 86.9457 34.1638 86.8173 34.2604C86.5604 34.4536 86.1896 34.7307 85.7351 35.0656C84.8255 35.7357 83.5827 36.6354 82.2473 37.5556L82.7013 38.2143ZM82.7013 38.2143L82.3897 38.9512L82.8897 39.1626L83.2013 38.4258L83.5129 37.689L83.0129 37.4775L82.7013 38.2143ZM77.4446 41.5136L77.8245 42.2176C78.0905 42.0741 78.349 41.9312 78.5971 41.7899L78.2013 41.0947L77.8054 40.3995C77.5692 40.534 77.3215 40.671 77.0648 40.8095L77.4446 41.5136ZM77.4446 41.5136L77.8396 42.2093L79.2596 41.403L78.8646 40.7074L78.4696 40.0117L77.0497 40.8179L77.4446 41.5136ZM70.2013 44.9536L70.5202 45.6873C70.9193 45.5138 71.5092 45.2536 72.2041 44.9399L71.8749 44.2108L71.5457 43.4817C70.8577 43.7923 70.2746 44.0494 69.8824 44.2199L70.2013 44.9536ZM71.8749 44.2108L72.2041 44.9399C73.8557 44.1943 76.1223 43.136 77.8245 42.2176L77.4446 41.5136L77.0648 40.8095C75.415 41.6996 73.1914 42.7387 71.5457 43.4817L71.8749 44.2108ZM71.8749 44.2108L71.5485 43.4804L70.4973 43.9502L70.8237 44.6806L71.1501 45.4109L72.2013 44.9412L71.8749 44.2108Z" fill="black"/>
<path d="M19.461 62.3037C13.4063 61.9948 8.24464 56.4505 8.60724 49.3424C8.919 43.231 13.1943 38.3192 18.2354 37.2582L18.7454 37.0744C20.1855 38.1698 21.7407 39.2976 23.0941 40.1553C23.329 40.3042 23.5747 40.4556 23.8286 40.6085C25.4568 41.5891 27.646 42.7417 29.2549 43.5626C29.9297 43.9069 30.5024 44.1928 30.8888 44.3832C30.8888 44.3832 31.7794 46.554 31.5774 50.5142C31.2148 57.6223 25.5157 62.6125 19.461 62.3037Z" fill="black"/>
<path d="M18.2354 37.2582L18.5067 38.0108L18.4545 38.0297L18.4001 38.0411L18.2354 37.2582ZM32.6968 44.3714C33.0962 44.5604 33.2666 45.0374 33.0775 45.4368C32.8885 45.8361 32.4115 46.0065 32.0121 45.8175L32.3545 45.0944L32.6968 44.3714ZM30.8888 44.3832L31.2424 43.6656L31.2424 43.6656L30.8888 44.3832ZM23.0941 40.1553L22.6659 40.831L22.6659 40.831L23.0941 40.1553ZM18.7454 37.0744L19.2298 36.4376L19.2298 36.4376L18.7454 37.0744ZM13.4197 33.8483C13.0816 33.5639 13.0381 33.0592 13.3225 32.7211C13.607 32.383 14.1116 32.3395 14.4497 32.6239L13.9347 33.2361L13.4197 33.8483ZM22.0238 40.4143C21.6503 40.1782 21.5389 39.6841 21.7749 39.3106C22.011 38.9371 22.5051 38.8257 22.8786 39.0617L22.4512 39.738L22.0238 40.4143ZM29.2549 43.5626L28.8913 44.2752L28.8913 44.2752L29.2549 43.5626ZM30.6419 43.3672C31.0362 43.5665 31.1943 44.0478 30.995 44.4421C30.7957 44.8364 30.3145 44.9945 29.9201 44.7952L30.281 44.0812L30.6419 43.3672ZM8.60724 49.3424L9.4062 49.3832C9.06448 56.0821 13.9197 61.2199 19.5018 61.5047L19.461 62.3037L19.4203 63.1026C12.8929 62.7696 7.4248 56.819 7.80828 49.3017L8.60724 49.3424ZM19.461 62.3037L19.5018 61.5047C25.0839 61.7895 30.4367 57.1723 30.7784 50.4734L31.5774 50.5142L32.3763 50.5549C31.9929 58.0723 25.9476 63.4356 19.4203 63.1026L19.461 62.3037ZM18.2354 37.2582L18.4001 38.0411C13.7423 39.0214 9.70096 43.605 9.4062 49.3832L8.60724 49.3424L7.80828 49.3017C8.13704 42.8569 12.6463 37.617 18.0706 36.4754L18.2354 37.2582ZM32.3545 45.0944C32.0121 45.8175 32.0121 45.8175 32.0121 45.8175C32.0121 45.8174 32.0121 45.8174 32.0121 45.8174C32.0121 45.8174 32.012 45.8174 32.012 45.8174C32.0119 45.8173 32.0117 45.8173 32.0116 45.8172C32.0113 45.817 32.0108 45.8168 32.0102 45.8165C32.009 45.816 32.0072 45.8151 32.0049 45.814C32.0003 45.8119 31.9935 45.8086 31.9847 45.8044C31.9669 45.796 31.9406 45.7834 31.9064 45.7671C31.8379 45.7344 31.7375 45.6863 31.6092 45.6245C31.3526 45.5008 30.984 45.322 30.5352 45.1009L30.8888 44.3832L31.2424 43.6656C31.6865 43.8845 32.0508 44.0612 32.3038 44.1831C32.4303 44.2441 32.5289 44.2913 32.5957 44.3232C32.6292 44.3392 32.6546 44.3513 32.6716 44.3594C32.6801 44.3634 32.6865 44.3665 32.6908 44.3685C32.6929 44.3695 32.6944 44.3702 32.6955 44.3707C32.696 44.371 32.6963 44.3711 32.6966 44.3712C32.6967 44.3713 32.6968 44.3713 32.6968 44.3714C32.6968 44.3714 32.6968 44.3714 32.6969 44.3714C32.6969 44.3714 32.6969 44.3714 32.6969 44.3714C32.6968 44.3714 32.6968 44.3714 32.3545 45.0944ZM31.5774 50.5142L30.7784 50.4734C30.876 48.5611 30.7092 47.0923 30.5229 46.1131C30.4298 45.6234 30.3317 45.2558 30.2591 45.0161C30.2229 44.8962 30.193 44.8084 30.1733 44.7533C30.1634 44.7257 30.1562 44.7063 30.1519 44.6953C30.1498 44.6897 30.1484 44.6862 30.1478 44.6848C30.1476 44.6841 30.1475 44.6839 30.1476 44.6843C30.1477 44.6845 30.1478 44.6848 30.148 44.6852C30.1481 44.6854 30.1482 44.6857 30.1483 44.6859C30.1484 44.6861 30.1485 44.6863 30.1485 44.6864C30.1486 44.6866 30.1487 44.6869 30.8888 44.3832C31.629 44.0796 31.6291 44.0799 31.6292 44.0801C31.6292 44.0802 31.6293 44.0805 31.6294 44.0807C31.6296 44.0812 31.6298 44.0816 31.63 44.0821C31.6304 44.083 31.6308 44.0841 31.6313 44.0854C31.6323 44.0878 31.6335 44.0908 31.6349 44.0944C31.6377 44.1014 31.6413 44.1106 31.6456 44.1219C31.6543 44.1446 31.666 44.1757 31.6801 44.2152C31.7083 44.2943 31.7464 44.407 31.7905 44.5525C31.8786 44.8436 31.9905 45.2662 32.0948 45.8141C32.3033 46.9104 32.4808 48.5071 32.3763 50.5549L31.5774 50.5142ZM23.0941 40.1553L22.6659 40.831C21.2841 39.9554 19.708 38.8117 18.2611 37.7111L18.7454 37.0744L19.2298 36.4376C20.6631 37.528 22.1973 38.6399 23.5223 39.4796L23.0941 40.1553ZM18.7454 37.0744L18.2611 37.7111C16.9566 36.7188 15.747 35.7537 14.8641 35.0371C14.4224 34.6787 14.062 34.382 13.8117 34.1748C13.6865 34.0711 13.5889 33.9898 13.5223 33.9342C13.4891 33.9065 13.4636 33.8851 13.4463 33.8707C13.4377 33.8634 13.4311 33.8579 13.4267 33.8542C13.4245 33.8523 13.4228 33.8509 13.4216 33.8499C13.421 33.8494 13.4206 33.849 13.4202 33.8488C13.4201 33.8486 13.42 33.8485 13.4199 33.8484C13.4198 33.8484 13.4198 33.8484 13.4198 33.8484C13.4197 33.8483 13.4197 33.8483 13.9347 33.2361C14.4497 32.6239 14.4497 32.6239 14.4497 32.6239C14.4497 32.6239 14.4497 32.624 14.4498 32.624C14.4498 32.624 14.4499 32.6241 14.45 32.6242C14.4502 32.6244 14.4506 32.6247 14.4511 32.6251C14.4521 32.6259 14.4536 32.6272 14.4556 32.6289C14.4597 32.6324 14.4659 32.6376 14.4742 32.6445C14.4907 32.6583 14.5154 32.679 14.5479 32.7061C14.6129 32.7604 14.7088 32.8403 14.8322 32.9425C15.079 33.1468 15.4353 33.4401 15.8723 33.7948C16.7468 34.5045 17.9426 35.4585 19.2298 36.4376L18.7454 37.0744ZM18.7454 37.0744L19.0167 37.827L18.5067 38.0108L18.2354 37.2582L17.9641 36.5056L18.4741 36.3218L18.7454 37.0744ZM23.8286 40.6085L23.4159 41.2938C23.1575 41.1382 22.9066 40.9836 22.6659 40.831L23.0941 40.1553L23.5223 39.4796C23.7514 39.6248 23.9919 39.773 24.2414 39.9232L23.8286 40.6085ZM23.8286 40.6085L23.4012 41.2848L22.0238 40.4143L22.4512 39.738L22.8786 39.0617L24.256 39.9322L23.8286 40.6085ZM30.8888 44.3832L30.5352 45.1009C30.1454 44.9088 29.5694 44.6212 28.8913 44.2752L29.2549 43.5626L29.6185 42.85C30.29 43.1926 30.8593 43.4769 31.2424 43.6656L30.8888 44.3832ZM29.2549 43.5626L28.8913 44.2752C27.2795 43.4529 25.0694 42.2897 23.4159 41.2938L23.8286 40.6085L24.2414 39.9232C25.8441 40.8885 28.0124 42.0306 29.6185 42.85L29.2549 43.5626ZM29.2549 43.5626L29.6157 42.8486L30.6419 43.3672L30.281 44.0812L29.9201 44.7952L28.894 44.2766L29.2549 43.5626Z" fill="black"/>
<path d="M20.5044 46.6014C20.0671 48.6708 17.6412 50.0669 15.6416 49.6443C13.6421 49.2218 12.3136 47.2257 12.7509 45.1562C13.1881 43.0868 15.6139 41.6908 17.6134 42.1133C19.613 42.5358 20.9416 44.532 20.5044 46.6014Z" fill="#FAFAF9"/>
<path d="M78.0541 49.1096C78.2766 51.0358 76.5186 52.9621 74.6028 53.1834C72.6869 53.4047 70.9051 52.0617 70.6826 50.1355C70.4601 48.2094 72.2179 46.2831 74.1338 46.0618C76.0496 45.8405 77.8317 47.1835 78.0541 49.1096Z" fill="#FAFAF9"/>
</g>
</g>
<defs>
<filter id="filter0_i_3242_12263" x="0" y="0" width="100" height="100" filterUnits="userSpaceOnUse" color-interpolation-filters="sRGB">
<feFlood flood-opacity="0" result="BackgroundImageFix"/>
<feBlend mode="normal" in="SourceGraphic" in2="BackgroundImageFix" result="shape"/>
<feColorMatrix in="SourceAlpha" type="matrix" values="0 0 0 0 0 0 0 0 0 0 0 0 0 0 0 0 0 0 127 0" result="hardAlpha"/>
<feOffset/>
<feGaussianBlur stdDeviation="10"/>
<feComposite in2="hardAlpha" operator="arithmetic" k2="-1" k3="1"/>
<feColorMatrix type="matrix" values="0 0 0 0 0 0 0 0 0 0 0 0 0 0 0 0 0 0 0.1 0"/>
<feBlend mode="normal" in2="shape" result="effect1_innerShadow_3242_12263"/>
</filter>
<filter id="filter1_f_3242_12263" x="81.9863" y="52.0059" width="20" height="20" filterUnits="userSpaceOnUse" color-interpolation-filters="sRGB">
<feFlood flood-opacity="0" result="BackgroundImageFix"/>
<feBlend mode="normal" in="SourceGraphic" in2="BackgroundImageFix" result="shape"/>
<feGaussianBlur stdDeviation="2" result="effect1_foregroundBlur_3242_12263"/>
</filter>
<filter id="filter2_f_3242_12263" x="-1.02136" y="52.0059" width="20" height="20" filterUnits="userSpaceOnUse" color-interpolation-filters="sRGB">
<feFlood flood-opacity="0" result="BackgroundImageFix"/>
<feBlend mode="normal" in="SourceGraphic" in2="BackgroundImageFix" result="shape"/>
<feGaussianBlur stdDeviation="2" result="effect1_foregroundBlur_3242_12263"/>
</filter>
<linearGradient id="paint0_linear_3242_12263" x1="0.106266" y1="-33.7755" x2="21.882" y2="-1.80304" gradientUnits="userSpaceOnUse">
<stop offset="0.137215" stop-color="#543291"/>
<stop offset="0.401763" stop-color="#A087CA"/>
<stop offset="1" stop-color="#A087CA"/>
</linearGradient>
<linearGradient id="paint1_linear_3242_12263" x1="0.106266" y1="-33.7511" x2="21.882" y2="-1.77863" gradientUnits="userSpaceOnUse">
<stop offset="0.137215" stop-color="#543291"/>
<stop offset="0.401763" stop-color="#A087CA"/>
<stop offset="1" stop-color="#A087CA"/>
</linearGradient>
<clipPath id="clip0_3242_12263">
<rect width="100" height="100" rx="16" fill="white"/>
</clipPath>
</defs>
</svg>
