<svg width="24" height="24" viewBox="0 0 24 24" fill="none" xmlns="http://www.w3.org/2000/svg">
<path d="M5.32844 22.75C4.61773 22.75 4.01031 22.4896 3.50619 21.9688C3.00206 21.4481 2.75 20.8206 2.75 20.0864V3.91481C2.75 3.17982 3.00206 2.55194 3.50619 2.03117C4.01031 1.51039 4.61773 1.25 5.32844 1.25H15.4688C15.986 1.25 16.4265 1.43793 16.7903 1.81378C17.1542 2.18963 17.3361 2.64511 17.3361 3.18022V16.7778C17.3361 17.3121 17.1542 17.7672 16.7903 18.143C16.4265 18.5189 15.986 18.7068 15.4688 18.7068H5.32844C4.94225 18.7068 4.60886 18.8446 4.32828 19.1201C4.04693 19.3948 3.90625 19.732 3.90625 20.1318C3.90625 20.5307 4.04693 20.868 4.32828 21.1435C4.60886 21.4182 4.94264 21.5556 5.32959 21.5556H19.3827C19.59 21.5556 19.7604 21.4867 19.8937 21.3489C20.0271 21.2112 20.0938 21.0352 20.0938 20.821V4.23611C20.0938 4.0665 20.1489 3.92436 20.2591 3.80969C20.3693 3.69503 20.5069 3.63809 20.6719 3.63889C20.8368 3.63969 20.9744 3.69662 21.0847 3.80969C21.1949 3.92277 21.25 4.06491 21.25 4.23611V20.821C21.25 21.3545 21.0681 21.8096 20.7043 22.1862C20.3404 22.5621 19.8999 22.75 19.3827 22.75H5.32844ZM5.32844 17.5136H15.4688C15.6769 17.5136 15.8472 17.4443 15.9798 17.3057C16.1132 17.168 16.1798 16.992 16.1798 16.7778V3.18022C16.1798 2.96522 16.1132 2.78884 15.9798 2.65108C15.8465 2.51332 15.6761 2.44444 15.4688 2.44444H5.32844C4.9276 2.44444 4.59036 2.58977 4.31672 2.88042C4.04307 3.16947 3.90625 3.51387 3.90625 3.91361V17.9961C4.11437 17.8599 4.3356 17.7453 4.56994 17.6521C4.80427 17.5589 5.05749 17.5124 5.32959 17.5124M7.29984 13.5146C7.39466 13.5146 7.47637 13.4903 7.54497 13.4417C7.61434 13.3923 7.6683 13.3207 7.70684 13.2267L8.29075 11.6178H11.8242L12.4024 13.2279C12.4409 13.3211 12.496 13.3923 12.5677 13.4417C12.6394 13.4911 12.72 13.5154 12.8094 13.5146C12.9666 13.5146 13.0869 13.4497 13.1701 13.3199C13.2534 13.1901 13.2688 13.0539 13.2164 12.9114L10.7177 6.03972C10.6792 5.93063 10.6167 5.84781 10.5304 5.79128C10.4441 5.73474 10.3462 5.70647 10.2367 5.70647H9.8725C9.76227 5.70647 9.66438 5.73474 9.57881 5.79128C9.49325 5.84781 9.43081 5.93063 9.3915 6.03972L6.89284 12.8958C6.84505 13.0535 6.86162 13.1964 6.94256 13.3246C7.0235 13.4528 7.14259 13.5165 7.29984 13.5157M8.60641 10.7231L10.0587 6.70742H10.0725L11.5017 10.7231H8.60641Z" fill="#7C55C5"/>
<path d="M5.32959 17.5124C5.05749 17.5124 4.80427 17.5589 4.56994 17.6521C4.3356 17.7453 4.11438 17.8599 3.90625 17.9961V3.91361C3.90625 3.51387 4.04307 3.16947 4.31672 2.88042C4.59036 2.58977 4.9276 2.44444 5.32844 2.44444H15.4688C15.6761 2.44444 15.8465 2.51332 15.9798 2.65108C16.1132 2.78884 16.1798 2.96522 16.1798 3.18022V16.7778C16.1798 16.992 16.1132 17.168 15.9798 17.3057C15.8472 17.4443 15.6769 17.5136 15.4688 17.5136H5.32844M3.90625 17.9961V2.44444M7.29984 13.5146C7.39466 13.5146 7.47636 13.4903 7.54497 13.4417C7.61434 13.3923 7.6683 13.3207 7.70684 13.2267L8.29075 11.6178H11.8242L12.4024 13.2279C12.4409 13.3211 12.496 13.3923 12.5677 13.4417C12.6394 13.4911 12.72 13.5154 12.8094 13.5146C12.9666 13.5146 13.0869 13.4497 13.1701 13.3199C13.2534 13.1901 13.2688 13.0539 13.2164 12.9114L10.7177 6.03972C10.6792 5.93063 10.6167 5.84781 10.5304 5.79128C10.4441 5.73474 10.3462 5.70647 10.2367 5.70647H9.8725C9.76227 5.70647 9.66438 5.73474 9.57881 5.79128C9.49325 5.84781 9.43081 5.93063 9.3915 6.03972L6.89284 12.8958C6.84505 13.0535 6.86162 13.1964 6.94256 13.3246C7.0235 13.4528 7.14259 13.5165 7.29984 13.5157M5.32844 22.75C4.61773 22.75 4.01031 22.4896 3.50619 21.9688C3.00206 21.4481 2.75 20.8206 2.75 20.0864V3.91481C2.75 3.17982 3.00206 2.55194 3.50619 2.03117C4.01031 1.51039 4.61773 1.25 5.32844 1.25H15.4688C15.986 1.25 16.4265 1.43793 16.7903 1.81378C17.1542 2.18963 17.3361 2.64511 17.3361 3.18022V16.7778C17.3361 17.3121 17.1542 17.7672 16.7903 18.143C16.4265 18.5189 15.986 18.7068 15.4688 18.7068H5.32844C4.94225 18.7068 4.60886 18.8446 4.32828 19.1201C4.04693 19.3948 3.90625 19.732 3.90625 20.1318C3.90625 20.5307 4.04693 20.868 4.32828 21.1435C4.60886 21.4182 4.94264 21.5556 5.32959 21.5556H19.3827C19.59 21.5556 19.7604 21.4867 19.8937 21.3489C20.0271 21.2112 20.0938 21.0352 20.0938 20.821V4.23611C20.0938 4.0665 20.1489 3.92436 20.2591 3.80969C20.3693 3.69503 20.5069 3.63809 20.6719 3.63889C20.8368 3.63969 20.9744 3.69662 21.0847 3.80969C21.1949 3.92277 21.25 4.06491 21.25 4.23611V20.821C21.25 21.3545 21.0681 21.8096 20.7042 22.1862C20.3404 22.5621 19.8999 22.75 19.3827 22.75H5.32844ZM8.60641 10.7231L10.0587 6.70742H10.0725L11.5017 10.7231H8.60641Z" stroke="#7C55C5" stroke-width="0.6"/>
</svg>
