<svg width="24" height="24" viewBox="0 0 24 24" fill="none" xmlns="http://www.w3.org/2000/svg">
<path d="M11.146 2.523C11.526 1.84 11.716 1.5 12 1.5C12.284 1.5 12.474 1.84 12.854 2.523L12.952 2.699C13.06 2.893 13.114 2.989 13.198 3.053C13.283 3.117 13.388 3.141 13.598 3.188L13.788 3.232C14.526 3.399 14.895 3.482 14.983 3.764C15.071 4.046 14.819 4.341 14.316 4.929L14.186 5.081C14.043 5.248 13.971 5.331 13.939 5.435C13.907 5.539 13.918 5.65 13.939 5.873L13.959 6.076C14.035 6.861 14.073 7.254 13.844 7.428C13.614 7.603 13.268 7.443 12.577 7.125L12.399 7.043C12.202 6.953 12.104 6.907 12 6.907C11.896 6.907 11.798 6.953 11.601 7.043L11.423 7.125C10.732 7.443 10.386 7.603 10.156 7.428C9.92601 7.254 9.96501 6.861 10.041 6.076L10.061 5.873C10.082 5.65 10.093 5.539 10.061 5.435C10.029 5.331 9.95701 5.248 9.81401 5.081L9.68401 4.929C9.18101 4.341 8.92901 4.047 9.01701 3.764C9.10501 3.482 9.47401 3.399 10.212 3.232L10.402 3.188C10.612 3.141 10.717 3.118 10.802 3.053C10.886 2.989 10.94 2.893 11.048 2.699L11.146 2.523Z" stroke="#7C55C5" stroke-width="1.6"/>
<path d="M16.0158 22.5V13.5C16.0158 12.086 16.0158 11.379 15.5758 10.94C15.1378 10.5 14.4308 10.5 13.0158 10.5H11.0158C9.60176 10.5 8.89476 10.5 8.45576 10.94C8.01576 11.378 8.01576 12.085 8.01576 13.5V22.5M7.63576 18C7.19776 17.56 6.49076 17.56 5.07576 17.56C3.66076 17.56 2.95476 17.56 2.51576 18C1.78718 18.7302 2.01567 19 2.01567 22.5M22.0158 22.5V19.5C22.0157 16.5 22.0737 15.94 21.6358 15.5C21.1978 15.06 20.4307 15 19.0157 15C18.4556 15 16.5157 15 16.0157 15.5" stroke="#7C55C5" stroke-width="1.8" stroke-linecap="round"/>
</svg>
