<svg width="36" height="36" viewBox="0 0 36 36" fill="none" xmlns="http://www.w3.org/2000/svg">
<path d="M10.3401 1.82107L12.479 1.81021C12.6495 1.80927 13.3229 1.79423 13.4571 1.8122C16.8879 1.87604 20.7119 1.8621 24.1492 1.81594C25.1833 1.82087 26.2174 1.81908 27.2515 1.81061C27.2472 2.39094 27.232 2.97107 27.2058 3.5508C28.0377 3.55463 28.8696 3.55378 29.7014 3.54836C31.9543 3.53879 32.4483 3.41933 32.024 5.91398C31.5754 8.54368 30.3056 10.9637 28.3967 12.8272C27.2291 13.9461 25.2167 15.2069 23.601 15.4492C23.2222 15.7971 22.8857 16.2329 22.5265 16.6085C21.6409 17.5198 20.5295 18.18 19.3057 18.5221C19.6946 21.2512 20.5922 22.9871 22.8263 24.7088C23.51 25.2358 24.497 25.8215 25.293 26.1242C25.2908 26.488 25.2933 26.8625 25.2714 27.2247L27.3787 27.2245C27.3682 28.9543 27.3972 30.7473 27.36 32.4657L27.4008 32.5448C27.6163 32.5936 28.0961 32.5735 28.3397 32.5706L28.336 34.1647C28.1878 34.1634 27.894 34.1701 27.7579 34.1563C26.9537 34.2283 25.3683 34.1844 24.5041 34.1843L18.3946 34.1826L12.1072 34.1856C11.1159 34.1868 9.52261 34.2322 8.57045 34.1542C8.5093 34.1725 8.48166 34.1539 8.41932 34.1331C8.33392 33.9064 8.37206 32.8823 8.37794 32.5675C8.64425 32.5735 9.18494 32.6236 9.36998 32.4722L9.35913 27.2252L11.3323 27.219C11.4017 27.066 11.3718 26.3351 11.3688 26.1196C11.6555 26.0742 11.7453 26.0587 12.0121 25.9494C12.0367 25.9267 13.0612 25.3941 13.1676 25.3334C15.4065 24.0534 16.6367 21.8269 17.2397 19.3953C17.3307 19.0283 17.4744 18.6962 17.3539 18.486C17.1107 18.4286 17.0175 18.4108 16.7969 18.2994C15.741 17.9075 14.7941 17.2687 14.0354 16.4362C13.8527 16.2335 13.4878 15.7441 13.2826 15.6176C12.8301 15.3389 12.1477 15.2145 11.6431 15.0102C10.3147 14.4724 9.09939 13.6497 8.0937 12.6411C6.29381 10.8125 5.09346 8.4791 4.65222 5.95143C4.23716 3.53785 4.58788 3.54537 6.79506 3.54846C7.70539 3.54985 8.61566 3.55657 9.52589 3.56872C9.49288 2.97963 9.47694 2.38974 9.47809 1.7998C9.74863 1.81982 10.0656 1.81684 10.3401 1.82107Z" fill="#EFA521"/>
<path d="M10.3401 1.82107L12.479 1.81021C12.6495 1.80927 13.3229 1.79423 13.4571 1.8122C16.8879 1.87604 20.7119 1.8621 24.1492 1.81594C24.0746 2.58778 24.0902 3.36934 24.0397 4.14148C23.7461 8.63551 22.659 13.4499 19.8557 17.0752C19.4862 17.553 18.826 18.1275 18.3818 18.5648C18.2079 18.5868 17.9284 18.5911 17.7457 18.5995C17.5788 18.5585 17.5519 18.4833 17.3539 18.486C17.1107 18.4286 17.0175 18.4108 16.7969 18.2994C15.741 17.9075 14.7941 17.2687 14.0354 16.4362C13.8527 16.2335 13.4878 15.7441 13.2826 15.6176C12.8301 15.3389 12.1477 15.2145 11.6431 15.0102C10.3147 14.4724 9.09939 13.6497 8.0937 12.6411C6.29381 10.8125 5.09346 8.4791 4.65222 5.95143C4.23716 3.53785 4.58788 3.54537 6.79506 3.54846C7.70539 3.54985 8.61566 3.55657 9.52589 3.56872C9.49288 2.97963 9.47694 2.38974 9.47809 1.7998C9.74863 1.81982 10.0656 1.81684 10.3401 1.82107Z" fill="#FDC90F"/>
<path d="M10.3401 1.82107L12.479 1.81021C12.6495 1.80927 13.3229 1.79423 13.4571 1.8122L13.4595 1.863C13.4781 2.31166 13.3892 3.09765 13.3602 3.57375C13.3193 4.37373 13.3254 5.1754 13.3781 5.97469C13.6568 9.94152 14.9031 13.8505 16.9126 17.2928C17.0314 17.4962 17.6375 18.4928 17.7457 18.5995C17.5788 18.5585 17.5519 18.4833 17.3539 18.486C17.1107 18.4286 17.0175 18.4108 16.7969 18.2994C15.741 17.9075 14.7941 17.2687 14.0354 16.4362C13.8527 16.2335 13.4878 15.7441 13.2826 15.6176C12.8301 15.3389 12.1477 15.2145 11.6431 15.0102C10.3147 14.4724 9.09939 13.6497 8.0937 12.6411C6.29381 10.8125 5.09346 8.4791 4.65222 5.95143C4.23717 3.53785 4.58788 3.54537 6.79506 3.54846C7.70539 3.54985 8.61566 3.55657 9.52589 3.56872C9.49288 2.97963 9.47694 2.38974 9.47809 1.7998C9.74863 1.81982 10.0656 1.81684 10.3401 1.82107Z" fill="#FDC90F"/>
<path d="M10.3399 1.82136L12.4788 1.8105C12.6493 1.80955 13.3228 1.79452 13.457 1.81249L13.4593 1.86328C13.4779 2.31195 13.389 3.09794 13.36 3.57404C13.3192 4.37402 13.3252 5.17569 13.3779 5.97497C13.6566 9.94181 14.9029 13.8508 16.9124 17.2931C17.0312 17.4965 17.6374 18.493 17.7456 18.5998C17.5786 18.5588 17.5518 18.4836 17.3538 18.4863C17.1105 18.4289 17.0173 18.4111 16.7967 18.2997C16.8833 18.2511 16.856 18.2863 16.8825 18.1921C16.7652 17.9571 16.0478 17.4455 15.8188 17.2176C15.5212 16.9214 15.2577 16.636 14.982 16.3151C12.2954 13.1876 11.0225 8.74326 10.5172 4.71199C10.4288 4.00677 10.2855 2.50496 10.3399 1.82136Z" fill="#FDD854"/>
<path d="M6.59647 4.9302C7.47234 4.8694 8.73831 4.90879 9.65402 4.89355C9.67907 6.89701 10.4786 9.57093 11.118 11.4919C11.2428 11.8671 11.9838 13.3698 11.9982 13.5825L11.9428 13.6185L11.7969 13.5712C9.53799 12.4493 8.09933 11.1795 6.98458 8.80422C6.67206 8.13834 5.99254 6.00944 6.21224 5.22022C6.25805 5.05564 6.4433 4.99101 6.59647 4.9302Z" fill="#F7F8FA"/>
<path d="M25.2714 27.2245L27.3786 27.2242C27.3682 28.9541 27.3971 30.7471 27.36 32.4655L27.4007 32.5445C27.6162 32.5933 28.0961 32.5733 28.3397 32.5703L28.336 34.1645C28.1878 34.1632 27.8939 34.1698 27.7578 34.1561C26.9537 34.2281 25.3682 34.1842 24.504 34.184L18.3945 34.1824L12.1072 34.1854C11.1158 34.1866 9.52254 34.2319 8.57038 34.154C8.50923 34.1723 8.48159 34.1536 8.41925 34.1328C8.33385 33.9062 8.37199 32.882 8.37787 32.5673C8.64418 32.5733 9.18487 32.6234 9.36991 32.472L9.35906 27.2249L11.3322 27.2188L11.3696 27.2316C12.3212 27.2209 13.2729 27.2181 14.2245 27.223L25.2714 27.2245Z" fill="#7F4B1E"/>
<path d="M11.3312 27.2188L11.3686 27.2316C12.3202 27.2209 13.2718 27.2181 14.2234 27.223C14.2205 27.4759 14.242 28.7196 14.2205 28.8859L20.738 28.8873C21.7402 28.8875 22.8638 28.9142 23.8554 28.8917C23.8571 29.732 23.8543 30.5723 23.8469 31.4126L18.1241 31.416C17.2957 31.4159 16.0757 31.3762 15.2729 31.4211C14.9161 31.4598 14.6047 31.4551 14.2462 31.4546C14.2438 31.5885 14.2429 32.1877 14.2108 32.2757C13.4096 32.2201 12.1984 32.2583 11.3689 32.2602C10.7991 32.3266 9.82627 32.266 9.36889 32.472L9.35803 27.2249L11.3312 27.2188Z" fill="#FDC90F"/>
<path d="M11.3312 27.2188L11.3686 27.2316C11.4152 27.5205 11.3769 27.8712 11.379 28.1688C11.3883 29.5285 11.3372 30.9018 11.3689 32.2602C10.7991 32.3266 9.82627 32.266 9.36889 32.472L9.35803 27.2249L11.3312 27.2188Z" fill="#7F4B1E"/>
<path d="M11.3694 27.2317C12.3209 27.2209 13.2726 27.2181 14.2242 27.2231C14.2212 27.476 14.2427 28.7197 14.2212 28.886C13.7405 28.8861 12.9701 28.9088 12.5115 28.8786L12.5172 31.4096C13.0841 31.4249 13.6512 31.4264 14.2182 31.4142L15.2736 31.4212C14.9169 31.4598 14.6055 31.4551 14.247 31.4546C14.2446 31.5886 14.2436 32.1878 14.2115 32.2757C13.4103 32.2201 12.1992 32.2584 11.3696 32.2602C11.3379 30.9019 11.3891 29.5285 11.3797 28.1688C11.3777 27.8713 11.4159 27.5205 11.3694 27.2317Z" fill="#8E5E35"/>
<path d="M11.3699 32.2607C12.1994 32.2588 13.4106 32.2205 14.2118 32.2761C14.5371 32.3986 16.0593 32.3583 16.4835 32.3581L23.2281 32.3517C23.979 32.3515 26.7915 32.2856 27.36 32.466L27.4007 32.545C27.6162 32.5938 28.0961 32.5738 28.3397 32.5708L28.336 34.1649C28.1878 34.1637 27.8939 34.1703 27.7578 34.1565C26.9537 34.2286 25.3682 34.1846 24.504 34.1845L18.3945 34.1828L12.1072 34.1858C11.1158 34.187 9.52254 34.2324 8.57038 34.1545C8.50923 34.1727 8.48159 34.1541 8.41925 34.1333C8.33385 33.9067 8.37199 32.8825 8.37787 32.5677C8.64418 32.5738 9.18487 32.6238 9.36991 32.4724C9.82729 32.2665 10.8001 32.3271 11.3699 32.2607Z" fill="#643A14"/>
<path d="M10.4198 32.5513C11.6933 32.5528 12.9668 32.5347 14.2398 32.4971L14.2409 34.1287L23.5914 34.1318L26.2674 34.1277C26.6164 34.1271 27.4421 34.1095 27.7571 34.1565C26.9529 34.2285 25.3675 34.1846 24.5033 34.1844L18.3938 34.1828L12.1064 34.1858C11.1151 34.187 9.5218 34.2323 8.56964 34.1544C9.08688 34.1036 9.87665 34.127 10.4193 34.129L10.4198 32.5513Z" fill="#7F4B1E"/>
<path d="M27.2052 3.55088C28.0371 3.55472 28.869 3.55387 29.7008 3.54844C31.9537 3.53888 32.4477 3.41942 32.0234 5.91407C31.5748 8.54377 30.305 10.9638 28.3961 12.8273C27.2285 13.9462 25.2161 15.207 23.6003 15.4493C23.6555 15.2037 24.4909 13.9497 24.6937 13.6281C24.9065 13.0014 25.4032 12.1285 25.6533 11.4196C26.4112 9.27204 26.8816 7.15938 27.1005 4.90186C27.1227 4.45753 27.168 3.99571 27.2052 3.55088Z" fill="#FDC90F"/>
<path d="M27.1008 4.902C27.7107 4.9038 30.0384 4.78035 30.3988 5.1236C30.6704 5.62853 30.2698 7.05744 30.1257 7.57866C29.4584 9.99259 27.7092 12.1482 25.4659 13.2665C25.2964 13.351 24.8629 13.6115 24.6939 13.6283C24.9067 13.0016 25.4035 12.1286 25.6536 11.4198C26.4114 9.27219 26.8819 7.15952 27.1008 4.902Z" fill="#F7F8FA"/>
<path d="M17.3543 18.4864C17.5523 18.4837 17.5792 18.5589 17.7461 18.5999C17.9288 18.5914 18.2083 18.5871 18.3822 18.5652C18.5253 21.3636 18.7685 24.2999 21.1655 26.1334C19.6766 26.1223 18.1876 26.12 16.6987 26.1265C16.2682 26.127 14.8786 26.1529 14.527 26.0914C14.4327 26.1105 14.2163 26.1399 14.1257 26.1333C13.5571 26.0925 12.4538 26.3033 12.0125 25.9498C12.0371 25.9271 13.0616 25.3945 13.168 25.3338C15.4069 24.0538 16.6371 21.8272 17.2401 19.3957C17.3311 19.0287 17.4748 18.6965 17.3543 18.4864Z" fill="#FDC90F"/>
<path d="M17.3543 18.4864C17.5523 18.4837 17.5792 18.5589 17.7461 18.5999C17.7203 19.2749 17.7079 20.1667 17.6327 20.8089C17.4058 22.7452 16.3904 24.4456 14.9441 25.7233C14.8342 25.8205 14.6081 26.001 14.527 26.0914C14.4327 26.1105 14.2163 26.1399 14.1257 26.1333C13.5571 26.0925 12.4538 26.3033 12.0125 25.9498C12.0371 25.9271 13.0616 25.3945 13.168 25.3338C15.4069 24.0538 16.6371 21.8272 17.2401 19.3957C17.3311 19.0287 17.4748 18.6965 17.3543 18.4864Z" fill="#FDD854"/>
</svg>
