<svg width="112" height="99" viewBox="0 0 112 99" fill="none" xmlns="http://www.w3.org/2000/svg">
<g filter="url(#filter0_f_1803_8787)">
<ellipse cx="55.8235" cy="82.5" rx="47" ry="7.5" fill="#7C55C5" fill-opacity="0.2"/>
</g>
<path d="M28.168 14.2464C28.4788 13.6814 30.0187 12.2651 30.5646 11.7804C35.6107 7.30005 42.3785 3.68035 48.8628 1.80064C60.8058 -1.59246 73.6041 -0.153431 84.4953 5.80712C92.4365 10.1829 98.7964 17.1667 103.159 25.08C103.336 25.4005 103.748 26.3141 103.931 26.5455C104.169 26.0631 104.355 25.535 104.74 25.2007L104.928 25.2095C105.125 25.5469 105.275 26.0331 105.412 26.414C105.753 27.3609 106.595 27.7938 107.401 28.3718C106.768 28.9506 105.442 29.5931 105.438 30.4586C106.395 31.252 106.43 32.6508 106.774 33.7919C109.682 43.445 109.839 53.8469 106.731 63.4734C106.568 63.9791 106.482 64.5831 106.13 64.9947C106.449 65.7417 106.479 66.2188 106.125 67.0081C104.912 69.7151 102.768 71.9627 100.008 73.1073C99.8854 73.1581 99.8557 73.1643 99.7321 73.1879L99.6688 73.282C99.8864 73.5703 101.7 74.0647 102.287 74.4892C106.228 77.3383 101.174 80.4761 98.6285 81.6105C97.7267 81.8429 96.4292 82.4833 95.5401 82.5335C93.1536 82.9849 89.663 81.8235 87.4256 81.6899C87.1098 81.8694 86.9748 81.7003 86.723 81.9777C85.8465 82.9432 86.1604 82.8609 84.8472 82.8111C83.41 83.2775 81.257 83.7525 79.7733 84.1389C78.8334 84.3836 74.2113 85.8534 73.5512 85.7695L73.4437 85.648L73.4813 85.4622C74.7375 84.9586 76.1227 84.4854 77.1519 83.6035L77.1453 83.5446C76.2953 82.5609 74.8882 80.9596 74.5261 79.7875C73.8557 78.8396 71.3389 78.5755 70.4568 77.8351C69.7589 77.2495 69.7697 76.7754 69.6893 75.9409C69.4828 75.8013 66.4398 75.5408 65.9303 75.4834C65.7625 76.1743 64.924 82.2532 65.194 82.6619C65.1994 82.6701 65.2084 82.6752 65.2156 82.6819C64.9447 83.1592 64.8642 84.1665 64.7613 84.7676C64.752 85.0043 64.7527 85.3099 64.7041 85.5355C63.6804 85.5469 62.4887 85.4378 61.4547 85.3756C56.508 85.0782 51.5508 84.9425 46.6295 84.3384C44.6442 84.0946 42.221 84.4972 40.3231 83.8152C39.2395 84.2925 20.5138 83.1651 18.0939 83.0366C16.1221 83.0749 14.71 82.2514 13.191 81.1204C10.862 79.6799 11.0417 75.5086 11.0977 73.1529C11.2518 66.6651 10.7674 60.1475 11.2237 53.6717C11.4703 50.1713 13.0884 49.0543 16.2218 48.222C15.949 48.1722 15.6781 48.1133 15.4093 48.0453C13.583 47.5755 12.7465 46.7728 11.8188 45.2127L11.7378 45.165C10.3734 42.0834 11.2623 39.2287 11.3169 36.0589C11.3755 32.6544 11.261 29.2897 11.3245 25.8638C11.4331 22.8884 10.8891 19.3995 12.7902 16.8494C15.2241 13.5848 20.5285 14.5727 24.09 14.3568C25.4387 14.275 26.818 14.4419 28.168 14.2464Z" fill="#E4DAF6"/>
<path d="M28.168 14.2464C28.4787 13.6814 30.0187 12.2651 30.5646 11.7804C35.6106 7.30005 42.3785 3.68035 48.8628 1.80064C60.8058 -1.59246 73.6041 -0.153431 84.4953 5.80712C92.4365 10.1829 98.7964 17.1667 103.159 25.08C103.336 25.4005 103.748 26.3141 103.931 26.5455C104.169 26.0631 104.355 25.535 104.74 25.2007L104.928 25.2095C105.125 25.5469 105.275 26.0331 105.412 26.414C105.753 27.3609 106.595 27.7938 107.401 28.3718C106.768 28.9506 105.442 29.5931 105.438 30.4586C106.395 31.252 106.43 32.6508 106.774 33.7919C109.682 43.445 109.839 53.8469 106.731 63.4734C106.568 63.9791 106.482 64.5831 106.13 64.9947C106.449 65.7417 106.479 66.2188 106.125 67.0081C104.912 69.7151 102.768 71.9627 100.008 73.1073C99.8854 73.1581 99.8557 73.1643 99.7321 73.1879L99.6688 73.282C99.8864 73.5703 101.7 74.0647 102.287 74.4892C106.228 77.3383 101.174 80.4761 98.6285 81.6105C97.7267 81.8429 96.4292 82.4833 95.5401 82.5335C93.1535 82.9849 89.663 81.8235 87.4255 81.6899C87.1098 81.8694 86.9748 81.7003 86.723 81.9777C85.8464 82.9432 86.1604 82.8609 84.8472 82.8111C83.4099 83.2775 81.2569 83.7525 79.7733 84.1389C78.8334 84.3836 74.2113 85.8534 73.5512 85.7695L73.4437 85.648L73.4813 85.4622C74.7375 84.9586 76.1227 84.4854 77.1519 83.6035L77.1453 83.5446C76.2953 82.5609 74.8882 80.9596 74.5261 79.7875C73.8557 78.8396 71.3389 78.5755 70.4568 77.8351C69.7589 77.2495 69.7697 76.7754 69.6893 75.9409C69.4827 75.8013 66.4398 75.5408 65.9303 75.4834C66.5476 74.0627 67.4346 72.9582 68.2696 71.67C70.0154 68.9767 71.9947 66.4678 73.7632 63.7941C74.3175 63.073 74.6571 62.588 75.1348 61.8151C76.6905 59.4427 78.3901 57.2094 80.0543 54.9146C80.6101 54.1482 81.1484 53.3934 81.7679 52.6756C82.0802 52.1944 82.7603 51.3785 83.1358 50.9001C83.3938 50.4749 84.2363 49.3615 84.5632 49.0067C84.0579 48.8473 83.442 48.8806 82.9255 48.9634C80.7268 49.1777 78.5253 49.3624 76.3217 49.5171C75.8096 49.5551 73.4204 49.6999 73.1393 49.7936C72.8937 49.7474 72.7033 49.6879 72.4664 49.6166L72.58 49.4063C72.3946 49.3968 72.3412 49.3833 72.1598 49.3394L72.8364 49.1635L71.877 49.1818C72.6857 48.043 73.9584 47.4307 74.5602 46.1634C74.8998 45.4482 74.7766 44.8024 74.753 44.0476C75.0874 41.6729 74.9761 38.1212 74.9692 35.6392C74.9377 31.3151 74.9441 26.9907 74.9879 22.6667C75.2221 21.3804 75.1093 18.0411 74.7662 16.7622C74.531 16.5806 73.7473 15.9939 73.5828 15.8239C73.1416 15.368 73.0781 14.7467 72.2734 14.5376L72.3672 14.4869C72.7379 14.5763 73.1224 14.5878 73.5011 14.6402C74.3313 14.7551 76.1203 15.3967 76.8827 15.0437C76.1481 14.7927 72.3966 14.2791 71.5091 14.2478C68.9798 14.159 66.2492 14.2395 63.7023 14.2591C59.3264 13.8811 53.9963 14.5321 49.513 14.3702C48.3729 14.3291 46.8348 14.8249 45.6525 14.8133C41.646 14.6709 37.1805 13.8543 33.1739 14.4451L29.0792 14.4402C28.6718 14.4088 28.5609 14.3709 28.168 14.2464Z" fill="#EFEAF5"/>
<path d="M74.7664 16.7636C74.5312 16.582 73.7475 15.9953 73.583 15.8252C73.1418 15.3694 73.0783 14.748 72.2736 14.539L72.3673 14.4883C72.738 14.5777 73.1226 14.5891 73.5013 14.6415C74.3315 14.7564 76.1205 15.3981 76.8829 15.0451C81.0767 15.4816 87.7603 15.6353 88.3622 21.1234C88.4881 22.2716 88.4389 23.5716 88.4391 24.7368L88.4377 31.218L88.4344 39.4447C88.4334 42.281 88.9688 45.5135 86.5471 47.4911C85.6605 47.9553 85.0799 48.1534 84.0825 48.3332L83.8671 48.5177C84.1324 48.6384 84.5107 48.7147 84.5634 49.0081C84.0581 48.8487 83.4422 48.882 82.9257 48.9647C80.727 49.1791 78.5255 49.3637 76.3218 49.5185C75.8097 49.5564 73.4206 49.7013 73.1395 49.7949C72.8939 49.7488 72.7034 49.6892 72.4666 49.6179L72.5801 49.4076C72.3947 49.3981 72.3413 49.3847 72.16 49.3408L72.8365 49.1649L71.8772 49.1832C72.6858 48.0444 73.9586 47.4321 74.5604 46.1648C74.8999 45.4496 74.7767 44.8038 74.7532 44.0489C75.0876 41.6742 74.9763 38.1226 74.9694 35.6406C74.9379 31.3165 74.9442 26.9921 74.988 22.6681C75.2223 21.3818 75.1095 18.0425 74.7664 16.7636Z" fill="#B99FDC"/>
<path d="M72.8365 49.1635C76.2701 48.8834 79.823 48.6635 83.2664 48.3484C83.5485 48.3226 83.6573 48.3484 83.8671 48.5163C84.1324 48.6371 84.5106 48.7133 84.5633 49.0067C84.058 48.8473 83.4421 48.8806 82.9256 48.9634C80.7269 49.1777 78.5254 49.3624 76.3218 49.5171C75.8097 49.5551 73.4205 49.6999 73.1394 49.7936C72.8938 49.7474 72.7034 49.6879 72.4665 49.6166L72.5801 49.4063C72.3947 49.3968 72.3413 49.3833 72.1599 49.3394L72.8365 49.1635Z" fill="#6947B3"/>
<path d="M81.768 52.6758C82.2294 52.7255 83.0555 52.8315 83.4547 53.0504C84.9788 53.5464 88.5203 55.6909 89.6381 56.7977C89.6392 57.2479 89.6828 57.4007 89.4594 57.7577C89.0489 58.414 88.6525 59.0724 88.2258 59.721L84.3123 65.5882C81.6222 69.6156 78.7423 73.7284 75.9804 77.7246C75.5905 78.2888 75.0189 79.4149 74.5262 79.7877C73.8558 78.8397 71.339 78.5756 70.4569 77.8353C69.759 77.2496 69.7698 76.7755 69.6894 75.9411C69.4829 75.8015 66.4399 75.541 65.9304 75.4836C66.5477 74.0629 67.4347 72.9584 68.2697 71.6702C70.0155 68.9769 71.9948 66.468 73.7634 63.7943C74.3176 63.0732 74.6572 62.5882 75.1349 61.8152C76.6906 59.4429 78.3902 57.2096 80.0544 54.9148C80.6102 54.1484 81.1485 53.3935 81.768 52.6758Z" fill="#FED96C"/>
<path d="M84.2465 54.0109C84.6405 54.0147 84.55 53.9554 84.8165 54.1634C84.7782 54.7273 73.6967 70.1351 72.5513 72.1713C72.3527 72.5242 70.699 75.0923 70.3583 75.526C69.6473 74.2279 80.0465 60.5385 81.3414 58.3197C81.963 57.2543 83.9455 55.075 84.2465 54.0109Z" fill="#FEE795"/>
<path d="M89.6379 56.7969C90.6587 57.7081 92.7555 59.39 92.7393 60.8474L92.0681 61.92C91.3239 63.0266 90.2393 64.5395 89.5856 65.6563C89.7422 66.2097 89.7484 66.3261 89.7104 66.901C89.7173 67.2463 89.7456 67.7889 89.7254 68.1175C89.8832 70.1095 89.8122 72.7768 89.8013 74.8221C89.7855 75.8106 89.6964 76.4975 89.6246 77.4578C89.1745 78.8763 88.8017 79.9105 87.7414 81.0015C87.4787 81.2719 87.264 81.3596 87.4255 81.6892C87.1098 81.8688 86.9747 81.6997 86.7229 81.9771C85.8464 82.9425 86.1603 82.8603 84.8471 82.8104C83.4099 83.2768 81.2569 83.7519 79.7732 84.1383C78.8333 84.383 74.2112 85.8528 73.5511 85.7689L73.4436 85.6474L73.4813 85.4616C74.7374 84.958 76.1226 84.4848 77.1518 83.6029L77.1453 83.544C76.2952 82.5603 74.8881 80.959 74.526 79.7869C75.0188 79.4141 75.5903 78.288 75.9803 77.7238C78.7421 73.7276 81.622 69.6148 84.3122 65.5874L88.2256 59.7202C88.6523 59.0716 89.0487 58.4132 89.4592 57.7569C89.6826 57.3999 89.639 57.2471 89.6379 56.7969Z" fill="#FEB33B"/>
<path d="M89.5856 65.6562C89.7422 66.2097 89.7484 66.3261 89.7104 66.9009C89.7173 67.2462 89.7456 67.7889 89.7254 68.1175C89.8832 70.1095 89.8122 72.7768 89.8013 74.8221C89.7855 75.8106 89.6964 76.4974 89.6246 77.4577C89.1745 78.8763 88.8017 79.9104 87.7414 81.0015C87.4787 81.2718 87.264 81.3595 87.4255 81.6892C87.1098 81.8688 86.9747 81.6997 86.7229 81.977C85.8464 82.9425 86.1603 82.8602 84.8471 82.8104C83.4099 83.2768 81.2569 83.7518 79.7732 84.1382C78.8333 84.383 74.2112 85.8527 73.5511 85.7689L73.4436 85.6473L73.4813 85.4615C74.7374 84.9579 76.1226 84.4847 77.1518 83.6028L77.1453 83.544C78.2972 82.1945 79.1961 80.4432 80.2734 79.0094C83.5201 74.688 86.3439 69.9644 89.5856 65.6562Z" fill="#9476CC"/>
<path d="M77.1518 83.6037C78.3208 84.3643 84.9482 81.4927 85.5986 81.9948C85.3301 82.2108 81.5969 83.0325 80.9001 83.2939C79.6037 83.7804 76.6935 83.9282 75.5561 84.9664C75.6119 84.986 75.6677 85.0056 75.7236 85.0252C78.7534 84.0908 81.9543 83.4702 84.9787 82.5273C85.6726 82.311 86.0861 81.883 86.7417 81.6162L86.7661 81.7161C86.4479 82.1184 85.3295 82.5947 84.8471 82.8113C83.4099 83.2777 81.2569 83.7527 79.7732 84.1391C78.8333 84.3839 74.2112 85.8536 73.5511 85.7698L73.4436 85.6482L73.4813 85.4624C74.7374 84.9588 76.1226 84.4856 77.1518 83.6037Z" fill="#8766C3"/>
<path d="M89.7257 68.1179C89.561 69.3238 89.7417 72.407 89.6459 74.0165L89.5873 71.7538C89.5718 72.0161 89.5886 72.0796 89.4526 72.2917C89.0229 72.3724 88.2873 71.8169 88.1199 71.4598C88.1764 70.5697 88.0384 69.936 89.1874 69.8747C89.4316 70.0277 89.3879 70.1739 89.4746 70.5392C89.5192 69.838 89.6019 67.3334 89.7106 66.9014C89.7176 67.2467 89.7458 67.7893 89.7257 68.1179Z" fill="#9F83D6"/>
<path d="M91.9604 74.7669C92.1097 74.7179 92.6687 74.3821 92.9097 74.2774C94.0215 73.7945 94.9486 73.5861 96.0946 73.366C96.9317 73.2051 99.2224 73.4902 99.6689 73.2812C99.8865 73.5695 101.7 74.0639 102.287 74.4884C106.228 77.3375 101.174 80.4753 98.6286 81.6097C97.7269 81.8422 96.4294 82.4825 95.5402 82.5327C93.1537 82.9841 89.6631 81.8227 87.4257 81.6891C87.2642 81.3594 87.4789 81.2717 87.7416 81.0014C88.8019 79.9103 89.1747 78.8762 89.6248 77.4576C89.6966 76.4973 89.7857 75.8105 89.8014 74.822C89.859 74.9785 89.9086 75.0815 89.9819 75.2315C90.5738 75.3872 90.856 75.0881 91.3217 74.7464C91.698 74.4805 92.0869 74.1529 92.4484 73.8615L92.5079 74.1992C92.3402 74.4104 92.2813 74.427 92.0426 74.5667L91.9604 74.7669Z" fill="#906DCC"/>
<path d="M97.6014 76.1982L98.0449 76.2713L98.1342 76.4244L98.0409 76.7342C95.6045 76.8266 93.2529 77.3579 91.28 78.7837C90.8794 79.0732 90.3729 79.3046 90.031 79.6705C89.9859 79.949 89.7929 80.9856 90.0232 81.1187C91.2497 81.8269 94.2326 82.1264 95.5173 81.8313C94.9516 82.4201 91.9842 81.7668 91.2462 81.8722C91.2355 82.0292 91.2138 82.0727 91.2929 82.2062C92.221 82.2386 94.5587 82.5125 95.2941 82.4011L95.5402 82.5338C93.1537 82.9851 89.6631 81.8237 87.4257 81.6901C87.2642 81.3605 87.4789 81.2727 87.7416 81.0024C88.8019 79.9114 89.1747 78.8772 89.6248 77.4587L89.8118 77.5431C90.0025 78.1077 89.7548 78.3773 90.006 78.6464C90.3078 78.5222 90.3502 78.4721 90.5771 78.2512C91.5853 77.4295 96.2612 76.3936 97.6014 76.1982Z" fill="#623EAA"/>
<path d="M92.4484 73.8633L92.5079 74.201C92.3402 74.4122 92.2813 74.4288 92.0426 74.5685L91.9604 74.7687C91.4029 75.2579 90.9484 75.6419 90.4608 76.2015C90.4066 76.7615 90.1641 78.0246 90.1592 78.3416C90.3684 78.3394 90.3799 78.3305 90.5771 78.252C90.3502 78.4728 90.3078 78.523 90.006 78.6472C89.7548 78.378 90.0025 78.1085 89.8118 77.5439L89.6248 77.4594C89.6966 76.4991 89.7857 75.8123 89.8015 74.8238C89.859 74.9803 89.9086 75.0833 89.9819 75.2333C90.5738 75.389 90.856 75.0899 91.3217 74.7482C91.698 74.4823 92.0869 74.1547 92.4484 73.8633Z" fill="#5D37AE"/>
<path d="M97.6013 76.1983C98.8993 76.0709 100.996 76.3192 102.28 76.6074C101.298 77.0817 99.3849 76.6924 98.0408 76.7343L98.1342 76.4245L98.0449 76.2714L97.6013 76.1983Z" fill="#8766C3"/>
<path d="M83.8669 48.5158L84.0823 48.3313C85.0797 48.1516 85.6603 47.9534 86.5469 47.4893C89.3187 47.7258 92.3494 49.529 94.4192 51.445C94.4516 51.4751 94.4751 51.524 94.4972 51.5649C95.2951 52.2776 96.2787 53.4009 96.3884 54.5165C96.5228 55.8856 95.3547 57.009 95.1249 57.6642L94.8013 58.1318C94.0792 59.0561 93.5389 59.9786 92.7393 60.8475C92.7555 59.3901 90.6588 57.7082 89.638 56.797C88.5201 55.6902 84.9786 53.5457 83.4545 53.0498C83.0553 52.8308 82.2293 52.7248 81.7678 52.6751C82.0802 52.1939 82.7603 51.378 83.1357 50.8996C83.3938 50.4743 84.2363 49.361 84.5632 49.0062C84.5104 48.7128 84.1322 48.6366 83.8669 48.5158Z" fill="#FDAFB3"/>
<path d="M83.1357 50.8994C86.4444 50.9849 87.1562 51.1282 90.1324 53.2506C90.4077 53.4469 91.4647 54.4378 91.649 54.5137C92.9368 55.7645 93.7351 56.6314 94.8013 58.1316C94.0792 59.0559 93.5388 59.9783 92.7393 60.8473C92.7555 59.3899 90.6588 57.708 89.638 56.7968C88.5201 55.69 84.9786 53.5455 83.4545 53.0496C83.0553 52.8306 82.2293 52.7246 81.7678 52.6749C82.0802 52.1936 82.7603 51.3778 83.1357 50.8994Z" fill="#F6D8D9"/>
<path d="M91.6492 54.5144L91.768 54.4615C92.0161 54.5904 92.957 55.4017 92.8927 55.4034C93.8131 55.3777 94.359 55.1019 94.5554 56.7156C94.4876 56.9105 94.4676 56.9188 94.3189 57.0726L94.2781 57.1142L94.4155 57.2199L94.6751 57.0077L94.8164 57.0411L94.837 57.3189C97.2958 55.2207 96.0782 53.637 94.4415 51.7385L94.4974 51.5654C95.2953 52.2782 96.2789 53.4014 96.3886 54.5171C96.523 55.8862 95.3549 57.0095 95.1251 57.6647L94.8015 58.1323C93.7353 56.6321 92.937 55.7652 91.6492 54.5144Z" fill="#F88B93"/>
<path d="M95.1252 57.665C99.1599 59.1562 95.9043 65.2247 96.7451 65.8717C97.0933 66.8206 95.138 70.261 95.5545 70.9778C95.2576 71.3165 94.8488 71.491 94.4055 71.5302L94.2342 71.4018C93.966 72.2718 92.9783 73.0945 92.4485 73.8626C92.087 74.154 91.6981 74.4816 91.3219 74.7476C90.8561 75.0892 90.5739 75.3883 89.982 75.2326C89.9088 75.0826 89.8591 74.9797 89.8016 74.8231C89.8126 72.7778 89.8836 70.1105 89.7258 68.1185C89.7459 67.7899 89.7176 67.2473 89.7107 66.902C89.7487 66.3271 89.7426 66.2107 89.5859 65.6573C90.2396 64.5405 91.3242 63.0276 92.0684 61.921L92.7396 60.8484C93.5391 59.9794 94.0795 59.057 94.8016 58.1326L95.1252 57.665Z" fill="#8564C4"/>
<path d="M92.0684 61.9209L92.2604 62.1896C91.9448 62.4582 91.8482 63.3165 91.8465 63.6453C91.8381 65.1957 90.4386 65.9604 90.2988 66.9932C90.1788 67.8793 90.6949 69.3957 90.7911 70.3045C90.8858 71.199 90.797 74.0641 91.3219 74.7475C90.8561 75.0891 90.5739 75.3882 89.982 75.2325C89.9088 75.0825 89.8591 74.9795 89.8016 74.823C89.8126 72.7777 89.8836 70.1104 89.7258 68.1184C89.7459 67.7898 89.7176 67.2472 89.7107 66.9019C89.7487 66.327 89.7426 66.2106 89.5859 65.6572C90.2396 64.5404 91.3242 63.0275 92.0684 61.9209Z" fill="#6947B3"/>
<path d="M96.7451 65.8711C97.0932 66.82 95.138 70.2605 95.5545 70.9772C95.2575 71.3159 94.8488 71.4904 94.4055 71.5297L94.2341 71.4012C94.8004 69.8432 95.5154 68.2735 96.0359 66.6841C96.1647 66.2911 96.3555 66.0265 96.7451 65.8711Z" fill="#8766C3"/>
<path d="M96.745 65.872C96.7644 65.8491 96.7837 65.8263 96.8031 65.8035C99.1275 63.6948 103.87 62.5525 106.13 64.9954C106.449 65.7424 106.479 66.2194 106.125 67.0088C104.913 69.7158 102.768 71.9634 100.008 73.108C99.8856 73.1588 99.8559 73.165 99.7323 73.1886L99.669 73.2827C99.2225 73.4917 96.9317 73.2066 96.0947 73.3675C94.9487 73.5876 94.0216 73.796 92.9098 74.2788C92.6687 74.3835 92.1098 74.7193 91.9604 74.7684L92.0426 74.5682C92.2813 74.4284 92.3402 74.4118 92.5079 74.2006L92.4484 73.8629C92.9782 73.0949 93.9659 72.2722 94.2341 71.4021L94.4054 71.5306C94.8487 71.4913 95.2575 71.3168 95.5544 70.9781C95.1379 70.2614 97.0932 66.8209 96.745 65.872Z" fill="#A483DA"/>
<path d="M103.34 66.2686C102.359 67.0935 100.571 67.9461 99.4368 68.6936C98.0862 69.584 96.9677 70.5036 95.711 71.51C95.4368 71.8516 95.166 72.0982 95.1361 72.5252C95.6526 72.805 95.9424 72.3912 96.5715 72.6786C97.2378 72.6829 99.3077 72.6518 99.7323 73.1873L99.669 73.2814C99.2225 73.4903 96.9317 73.2053 96.0947 73.3661C94.9487 73.5862 94.0216 73.7947 92.9098 74.2775C92.6687 74.3822 92.1098 74.718 91.9604 74.7671L92.0426 74.5668C92.2813 74.4271 92.3402 74.4105 92.5079 74.1993L92.4484 73.8616C92.9782 73.0935 93.9659 72.2708 94.2341 71.4008L94.4054 71.5292C94.8487 71.49 95.2575 71.3155 95.5544 70.9768C98.2468 69.1117 100.254 67.5778 103.34 66.2686Z" fill="#7654BA"/>
<path d="M96.5715 72.6784C95.9114 72.7709 94.3361 73.186 93.8676 73.1665L93.803 73.0642C94.0407 72.6874 95.2773 71.8188 95.711 71.5098C95.4368 71.8514 95.166 72.098 95.1361 72.525C95.6526 72.8048 95.9424 72.391 96.5715 72.6784Z" fill="#8766C3"/>
<path d="M103.93 26.5459C104.169 26.0635 104.355 25.5355 104.74 25.2012L104.928 25.21C105.125 25.5473 105.275 26.0335 105.412 26.4144C105.753 27.3614 106.595 27.7943 107.401 28.3722C106.768 28.9511 105.442 29.5935 105.438 30.4591C105.23 30.8915 105.005 31.4381 104.486 31.3753C104.06 30.9481 103.955 29.8963 103.494 29.4376C103.132 29.076 102.14 28.8273 101.953 28.3268C102.37 27.7495 103.447 27.4373 103.896 26.6111L103.93 26.5459Z" fill="#FED96C"/>
<path d="M82.9257 48.9627C83.4422 48.88 84.0581 48.8467 84.5634 49.0061C84.2365 49.3608 83.394 50.4742 83.1359 50.8995C82.7605 51.3779 82.0804 52.1937 81.768 52.675C81.1486 53.3928 80.6103 54.1476 80.0545 54.914C78.3903 57.2088 76.6907 59.4421 75.135 61.8144C74.6573 62.5874 74.3177 63.0724 73.7634 63.7935C71.9949 66.4672 70.0156 68.9761 68.2698 71.6694C67.4348 72.9576 66.5478 74.0621 65.9305 75.4828C65.7627 76.1736 64.9242 82.2526 65.1941 82.6612C65.1996 82.6694 65.2086 82.6746 65.2158 82.6813C64.9449 83.1586 64.8644 84.1659 64.7614 84.767C64.7521 85.0037 64.7528 85.3092 64.7043 85.5349C63.6806 85.5462 62.4889 85.4372 61.4549 85.375C56.5082 85.0775 51.551 84.9419 46.6297 84.3377C44.6444 84.094 42.2211 84.4965 40.3232 83.8146C39.2397 84.2918 20.514 83.1644 18.0941 83.036C16.1223 83.0742 14.7102 82.2508 13.1912 81.1198C13.4824 80.975 13.5644 80.8796 13.9286 81.0383C14.4817 81.2794 15.1878 81.5296 15.7131 81.7888C17.3106 81.7482 19.7453 82.1484 21.435 82.2356C23.3483 82.3344 25.282 82.3702 27.1932 82.4601C29.1336 82.5514 33.3211 83.2008 35.0426 82.7675L34.9914 82.7474C35.3934 82.6585 36.0133 82.4807 36.3972 82.6233C37.0275 82.6733 39.1457 81.9814 39.6146 81.504C40.5614 80.5401 41.6032 77.6297 41.7623 76.3062C42.0764 73.6937 41.7874 70.8935 41.9419 68.2301C41.8456 66.9014 41.9196 64.5908 41.939 63.1859L42.038 55.5312C42.0604 54.2619 42.4013 51.8801 41.7877 50.7324C41.4175 50.0401 39.6838 49.2945 38.8756 49.1504L39.365 49.1284C41.232 48.9171 43.057 48.5542 43.3031 50.9531C43.3323 51.238 43.3144 51.6606 43.3849 51.9224C44.1433 50.6409 44.754 50.064 46.0774 49.4136C46.3649 49.3358 46.6426 49.2877 46.9346 49.2326L62.4314 49.6737C64.5335 49.7231 69.1584 49.6977 71.0746 49.9311L72.3978 49.9517L73.1395 49.7929C73.4206 49.6993 75.8098 49.5544 76.3219 49.5165C78.5255 49.3617 80.727 49.1771 82.9257 48.9627Z" fill="#D0BAF0"/>
<path d="M41.9419 68.2305C42.3594 71.0946 41.9888 74.8053 41.9843 77.7363C41.9829 78.6244 41.2508 79.6987 41.9065 80.2305L41.4872 80.3884L41.5505 80.5141L41.8202 80.5524C41.6227 81.537 40.0141 82.5599 39.5515 83.1167C40.2394 83.0374 40.5437 82.9465 41.2074 82.7513C42.7197 81.0979 42.0323 80.3608 42.7292 78.7046C42.8855 79.6616 43.0842 80.2918 43.4592 81.193C43.9484 81.979 44.4446 82.678 45.2912 83.1278C47.9264 83.9719 50.8059 84.0446 53.5602 84.1658C56.0636 84.2731 58.5659 84.4054 61.0667 84.5629C62.2125 84.6271 63.6691 84.6361 64.7614 84.7673C64.7521 85.004 64.7528 85.3096 64.7043 85.5352C63.6806 85.5466 62.4889 85.4375 61.4549 85.3753C56.5082 85.0779 51.551 84.9422 46.6297 84.3381C44.6444 84.0943 42.2211 84.4969 40.3232 83.8149C39.2397 84.2922 20.514 83.1648 18.0941 83.0363C16.1223 83.0746 14.7102 82.2511 13.1912 81.1201C13.4824 80.9754 13.5644 80.8799 13.9286 81.0386C14.4817 81.2797 15.1878 81.53 15.7131 81.7891C17.3106 81.7485 19.7453 82.1488 21.435 82.236C23.3483 82.3348 25.282 82.3706 27.1932 82.4604C29.1336 82.5517 33.3211 83.2011 35.0426 82.7679L34.9914 82.7478C35.3934 82.6588 36.0133 82.481 36.3972 82.6236C37.0275 82.6736 39.1457 81.9818 39.6146 81.5044C40.5614 80.5404 41.6032 77.6301 41.7623 76.3066C42.0764 73.6941 41.7874 70.8938 41.9419 68.2305Z" fill="#8766C3"/>
<path d="M41.9417 68.2305C42.3592 71.0946 41.9886 74.8053 41.9841 77.7363C41.9827 78.6244 41.2506 79.6987 41.9063 80.2305L41.4871 80.3884L41.5503 80.5141L41.82 80.5524C41.6225 81.537 40.0139 82.5599 39.5513 83.1167C37.5346 83.5178 30.7285 82.9024 28.4382 82.7936C25.3315 82.6459 21.9285 82.4919 18.8185 82.2854C17.9854 82.1841 16.4632 82.0326 15.7129 81.7891C17.3104 81.7485 19.7451 82.1488 21.4348 82.236C23.3481 82.3348 25.2818 82.3706 27.193 82.4604C29.1334 82.5517 33.3209 83.2011 35.0424 82.7679L34.9912 82.7478C35.3932 82.6588 36.0131 82.481 36.397 82.6236C37.0273 82.6736 39.1455 81.9818 39.6144 81.5044C40.5612 80.5404 41.603 77.6301 41.7621 76.3066C42.0762 73.6941 41.7872 70.8938 41.9417 68.2305Z" fill="#AB8ADE"/>
<path d="M13.1912 81.1197C13.4824 80.9749 13.5644 80.8795 13.9286 81.0382C14.4817 81.2793 15.1878 81.5296 15.7131 81.7887C16.4634 82.0322 17.9856 82.1836 18.8187 82.285C17.6957 82.344 16.3767 82.1322 15.7203 82.1964L15.7681 82.1835L15.6533 82.2934C16.0767 82.4798 17.9881 82.9368 18.0941 83.0359C16.1223 83.0742 14.7102 82.2507 13.1912 81.1197Z" fill="#9476CC"/>
<path d="M43.6501 82.985C43.1598 82.6443 43.0823 81.5992 43.4593 81.1943C43.9484 81.9803 44.4447 82.6793 45.2913 83.1291C44.7406 83.3994 44.4222 82.8929 43.6501 82.985Z" fill="#5D37AE"/>
<path d="M82.9256 48.9627C83.442 48.88 84.058 48.8467 84.5632 49.0061C84.2363 49.3608 83.3939 50.4742 83.1358 50.8995C82.7604 51.3779 82.0803 52.1937 81.7679 52.675C81.1484 53.3928 80.6101 54.1476 80.0543 54.914C78.3902 57.2088 76.6905 59.4421 75.1349 61.8144C74.8844 61.2583 75.1974 60.9692 75.1964 60.2022C75.1945 58.8339 74.9988 57.4921 74.9857 56.1299C74.9789 55.4292 75.3925 53.8804 75.1963 53.2526C74.7961 53.5167 74.7715 54.2379 74.5867 54.7739C74.648 53.2254 74.7511 52.1941 73.8855 50.9935C73.3107 50.6865 71.766 50.1902 71.0745 49.9311L72.3977 49.9517L73.1394 49.7929C73.4205 49.6993 75.8096 49.5544 76.3217 49.5165C78.5253 49.3617 80.7269 49.1771 82.9256 48.9627Z" fill="#AA8AD6"/>
<path d="M73.1396 49.7931C73.4208 49.6995 75.8099 49.5546 76.322 49.5166C78.5256 49.3619 80.7272 49.1773 82.9259 48.9629C82.2956 49.4793 80.2174 49.2606 79.9727 49.4625C80.4689 49.688 80.5982 49.7633 81.1556 49.7687C81.0747 49.8975 80.9713 49.9417 80.8404 50.0216C81.6886 50.117 81.9952 49.8157 82.4025 49.918C81.3913 50.498 75.36 50.5735 73.8581 50.5693C73.5357 50.5683 72.7315 50.04 72.3979 49.9519L73.1396 49.7931Z" fill="#9F83D6"/>
<path d="M39.3648 49.1296C41.2319 48.9183 43.0568 48.5554 43.3029 50.9544C43.3322 51.2392 43.3142 51.6618 43.3848 51.9237C43.0724 52.814 42.9595 53.0959 42.832 54.0321C42.641 60.2525 42.7894 66.4583 42.6723 72.6721C42.646 74.0665 42.8512 77.6414 42.729 78.7055C42.0321 80.3618 42.7195 81.0988 41.2073 82.7523C40.5436 82.9475 40.2392 83.0383 39.5513 83.1176C40.014 82.5608 41.6226 81.5379 41.82 80.5533L41.5504 80.515L41.4871 80.3893L41.9063 80.2314C41.2507 79.6997 41.9828 78.6253 41.9842 77.7372C41.9886 74.8062 42.3592 71.0956 41.9417 68.2314C41.8454 66.9027 41.9194 64.592 41.9389 63.1872L42.0379 55.5325C42.0602 54.2632 42.4011 51.8814 41.7876 50.7337C41.4174 50.0414 39.6836 49.2957 38.8755 49.1517L39.3648 49.1296Z" fill="#9F83D6"/>
<path d="M39.365 49.1296C41.232 48.9183 43.057 48.5554 43.3031 50.9544C43.3323 51.2392 43.3143 51.6618 43.3849 51.9237C43.0726 52.814 42.9597 53.0959 42.8321 54.0321C42.4478 53.0818 42.7055 52.3658 42.7838 51.285C42.016 49.6914 41.1467 49.19 39.365 49.1296Z" fill="#9476CC"/>
<path d="M74.5868 54.7752C74.7716 54.2391 74.7962 53.518 75.1964 53.2539C75.3927 53.8817 74.9791 55.4304 74.9859 56.1312C74.9989 57.4934 75.1946 58.8352 75.1965 60.2035C75.1975 60.9705 74.8845 61.2596 75.135 61.8157C74.6573 62.5886 74.3176 63.0736 73.7634 63.7948C73.8295 61.6373 73.8626 59.4082 74.0589 57.2613C74.151 56.2531 74.2145 55.4364 74.1942 54.4164C74.3204 54.6474 74.3708 55.2485 74.4095 55.5416C74.4164 55.2185 74.4829 55.0732 74.5868 54.7752Z" fill="#BFA4EB"/>
<path d="M53.5879 61.721L53.6509 61.7191C54.8311 61.6903 62.5251 61.8483 63.0155 62.3108C63.3592 63.2054 63.2086 66.8231 63.15 67.9275C60.6772 67.9859 57.966 67.8631 55.4608 67.8172L55.4857 69.8073C56.8595 69.8586 62.1958 69.925 63.1789 70.1548C63.2818 70.8026 63.4339 71.4105 63.1739 72.0226L62.9402 72.1107C61.8754 72.1188 53.9585 71.8551 53.4653 71.6382C53.1937 71.0922 53.1727 66.4137 53.5404 65.958C54.2447 65.7029 59.8917 65.9665 61.0667 65.9871C61.0742 65.3488 61.0893 64.7105 61.1121 64.0725C59.5909 64.0007 58.0688 63.9533 56.5462 63.93C55.7095 63.9136 54.3993 63.9278 53.6216 63.798C53.1197 63.431 53.2521 62.1739 53.5879 61.721Z" fill="#8766C3"/>
<path d="M16.8059 46.9714C18.8626 46.941 20.9592 47.0717 23.0188 47.1315L33.8351 47.3806C36.1944 47.418 37.6037 47.3121 39.4005 45.6527C41.5218 43.6937 41.0537 41.3466 41.272 38.8171C41.5165 35.9862 41.6765 33.3128 41.6146 30.4744C41.5944 29.5498 41.7411 28.5554 41.7051 27.6244C41.4253 24.6179 41.3025 21.7733 41.308 18.7524C41.4833 19.1249 41.3144 20.4263 41.5103 20.8696L41.6013 20.5076C41.6954 20.6286 41.6844 20.8683 41.7018 21.0498C41.8038 20.5869 42.3721 17.8956 42.5051 17.6743L42.6201 17.6533C42.8167 17.9582 42.5942 18.8645 42.4535 19.1922C41.9878 20.2769 42.829 22.1509 42.4783 23.0922C42.3465 22.7888 42.4055 21.9014 42.438 21.5432L42.4437 21.4857C42.0912 21.9432 41.9108 41.9522 42.3162 42.5607C42.8495 42.06 42.5982 37.5468 42.5971 36.5479L42.6039 24.616C42.6086 23.2276 42.6678 19.4398 42.9578 18.1842L43.132 18.0887C43.299 18.4643 42.9021 19.1989 42.8766 19.7935C42.8151 21.2294 42.8294 22.6828 42.8153 24.1179L42.7579 38.7771C42.7507 40.0178 42.8891 42.6147 42.8198 43.6771C43.065 45.2536 43.3856 46.1715 44.5361 47.3565L44.8619 47.7014C45.3725 48.1082 45.5153 48.1989 46.1175 48.4772C46.0211 48.7456 45.8858 49.0328 45.9031 49.3072L46.0773 49.4146C44.7539 50.065 44.1431 50.6419 43.3848 51.9234C43.3142 51.6616 43.3322 51.239 43.3029 50.9541C43.0568 48.5552 41.2319 48.9181 39.3648 49.1294L38.8755 49.1514C39.6836 49.2955 41.4174 50.0411 41.7876 50.7334C42.4011 51.8811 42.0602 54.2629 42.0379 55.5322L41.9389 63.1869C41.9194 64.5918 41.8454 66.9024 41.9417 68.2311C41.7872 70.8945 42.0762 73.6947 41.7622 76.3072C41.6031 77.6307 40.5613 80.5411 39.6144 81.505C39.1455 81.9824 37.0273 82.6743 36.3971 82.6243C36.0131 82.4817 35.3932 82.6595 34.9912 82.7485L35.0424 82.7685C33.3209 83.2018 29.1335 82.5524 27.1931 82.4611C25.2818 82.3712 23.3481 82.3354 21.4348 82.2367C19.7451 82.1494 17.3104 81.7492 15.7129 81.7898C15.1877 81.5307 14.4816 81.2804 13.9284 81.0393C13.5643 80.8806 13.4822 80.976 13.191 81.1208C10.862 79.6803 11.0418 75.509 11.0977 73.1533C11.2518 66.6655 10.7675 60.1478 11.2237 53.6721C11.4703 50.1717 13.0885 49.0547 16.2219 48.2224C15.9491 48.1726 15.6781 48.1137 15.4094 48.0457C13.5831 47.5759 12.7465 46.7732 11.8189 45.2131L11.8557 44.8735L12.0143 44.8381C12.3579 45.1105 12.9696 45.832 13.287 46.2092C14.1133 47.1911 15.5776 46.8569 16.8059 46.9714Z" fill="#D0BAF0"/>
<path d="M38.0753 49.124L38.8757 49.1507C39.6838 49.2948 41.4176 50.0404 41.7878 50.7327C42.4013 51.8804 42.0604 54.2622 42.038 55.5315L41.9391 63.1862C41.9196 64.5911 41.8456 66.9017 41.9419 68.2304C41.7874 70.8938 42.0764 73.694 41.7624 76.3065C41.6033 77.63 40.5615 80.5404 39.6146 81.5043C39.1457 81.9817 37.0275 82.6736 36.3972 82.6236C36.4163 82.5958 36.4113 82.539 36.414 82.4946C34.8154 82.292 32.3232 82.2424 30.6686 82.1573L21.9371 81.6641C20.1266 81.5728 17.1405 81.2062 15.5962 81.3053L15.5349 81.3096L15.4111 81.182C15.6359 81.0163 15.9821 81.0332 16.2774 81.0286C18.1633 80.9996 20.0149 81.2539 21.8993 81.3662C22.8816 81.4247 23.9929 81.3978 24.9417 81.4773C27.6401 81.7033 30.2515 81.8862 32.9627 81.9667C34.4355 82.0104 36.0815 82.1796 37.5651 81.9403C37.8948 81.8872 37.9146 81.5832 38.118 81.4897C39.0721 81.0921 39.4157 80.8118 39.9418 79.9336C41.3675 77.5536 40.8033 75.3008 40.7948 72.6511C40.7764 66.9432 41.3021 61.2089 41.0493 55.4936C40.9922 54.2029 41.1576 52.8238 40.837 51.5539C40.5013 50.3226 39.1423 49.6853 38.0753 49.124Z" fill="#BFA4EB"/>
<path d="M39.2142 48.3314C40.2228 48.4253 44.0847 48.33 44.8617 47.7012C45.3723 48.108 45.5151 48.1987 46.1174 48.477C46.021 48.7454 45.8856 49.0326 45.9029 49.307L46.0772 49.4145C44.7538 50.0648 44.143 50.6418 43.3847 51.9232C43.3141 51.6614 43.3321 51.2388 43.3028 50.9539C43.0567 48.555 41.2318 48.9179 39.3647 49.1292L38.8754 49.1512L38.075 49.1245C37.5393 49.0271 34.9726 48.967 34.3663 48.9488L25.682 48.7627C25.4956 48.3492 25.2962 48.4685 25.2466 48.1423C29.8359 48.2488 34.6291 48.5597 39.2142 48.3314Z" fill="#7856CA"/>
<path d="M39.2146 48.3313L39.2823 48.2642C39.8377 48.2296 41.8094 46.2172 42.1253 45.6519L42.1583 45.592C42.579 44.8393 41.8393 44.2051 42.82 43.6768C43.0653 45.2533 43.3858 46.1712 44.5364 47.3562L44.8621 47.7011C44.0851 48.3299 40.2232 48.4252 39.2146 48.3313Z" fill="#9577D6"/>
<path d="M16.1279 48.1479C17.1681 47.8875 24.3976 47.9252 25.2468 48.1423C25.2964 48.4685 25.4958 48.3493 25.6823 48.7628C23.9834 48.7505 22.1946 48.67 20.4938 48.6044C19.5115 48.5664 16.6844 48.779 16.1279 48.1479Z" fill="#9476CC"/>
<path d="M21.4828 60.5371C23.5237 60.4264 25.8322 60.7455 27.9004 60.7134C28.773 60.6998 29.9371 60.7405 30.7619 60.9514C31.1062 61.0394 31.0033 62.4256 30.7879 62.7253C30.0554 62.9194 24.6082 62.6712 23.4607 62.6617C23.439 64.4472 23.4418 66.233 23.4688 68.0183C24.2218 68.0308 25.0529 68.0927 25.8111 68.134C27.277 68.1768 28.7564 68.2259 30.2198 68.317C30.6731 68.3453 30.737 68.3285 30.9995 68.6315C31.1187 69.132 31.2157 69.973 30.766 70.3136C28.5819 70.6121 24.1497 70.027 21.7698 70.0212C20.9744 70.0193 21.1919 61.3447 21.4828 60.5371Z" fill="#8766C3"/>
<path d="M74.7533 44.0479C74.7768 44.8027 74.9 45.4485 74.5605 46.1637C73.9587 47.431 72.6859 48.0433 71.8773 49.1821L72.8366 49.1638L72.1601 49.3397C72.3414 49.3836 72.3948 49.397 72.5802 49.4065L72.4667 49.6168C72.7035 49.6881 72.894 49.7477 73.1396 49.7938L72.3979 49.9526L71.0747 49.932C69.1585 49.6986 64.5336 49.724 62.4315 49.6746L46.9347 49.2335C46.6427 49.2886 46.365 49.3367 46.0775 49.4145L45.9033 49.3071C45.886 49.0327 46.0213 48.7455 46.1178 48.4771C45.5155 48.1988 45.3727 48.108 44.8621 47.7013L44.5364 47.3564C44.7517 47.2472 44.9873 47.1373 45.2339 47.1392C46.5758 47.1493 48.0214 47.5366 49.3803 47.6325C51.9409 47.8133 69.0999 48.5552 70.5396 48.0909C71.7725 47.6934 73.5134 46.2036 74.2455 45.1616C74.4647 44.8495 74.5397 44.4596 74.7132 44.1244L74.7533 44.0479Z" fill="#D0BAF0"/>
<path d="M47.6117 48.8665C48.6695 48.6342 51.2973 48.7544 52.5079 48.7657C57.5521 48.813 62.5914 49.2659 67.6452 49.1656C69.0526 49.1376 70.4658 49.2646 71.8772 49.1823L72.8365 49.164L72.1599 49.3399C72.3413 49.3838 72.3947 49.3972 72.5801 49.4067L72.4666 49.6171C72.7034 49.6883 72.8938 49.7479 73.1395 49.7941L72.3978 49.9528L71.0745 49.9322C69.1584 49.6988 64.5335 49.7242 62.4314 49.6748L46.9346 49.2337C47.2731 49.1687 47.3528 49.0787 47.6117 48.8665Z" fill="#8766C3"/>
<path d="M46.1176 48.4766C46.7485 48.7098 46.9471 48.7618 47.6117 48.8658C47.3528 49.0779 47.2731 49.168 46.9345 49.233C46.6425 49.2881 46.3648 49.3362 46.0773 49.414L45.9031 49.3066C45.8858 49.0322 46.0212 48.745 46.1176 48.4766Z" fill="#5D37AE"/>
<path d="M63.7026 14.2592C66.2495 14.2396 68.9801 14.1591 71.5094 14.2479C72.3969 14.2792 76.1484 14.7929 76.883 15.0438C76.1206 15.3968 74.3316 14.7552 73.5014 14.6403C73.1227 14.5879 72.7382 14.5764 72.3675 14.487L72.2737 14.5378C73.0784 14.7468 73.1419 15.3682 73.5831 15.824C73.7476 15.9941 74.5313 16.5807 74.7665 16.7624C75.1096 18.0413 75.2224 21.3805 74.9882 22.6669C74.9075 22.0637 74.9665 19.6419 74.9236 18.7394C74.5352 18.2489 74.2293 17.8196 73.8158 17.3405C73.1721 16.5946 72.2717 15.9699 71.7919 15.1417C69.5213 14.2458 64.4326 14.6928 63.7026 14.2592Z" fill="#D0BAF0"/>
<path d="M54.0497 26.7174L55.5904 26.7119C55.6824 29.2142 55.6989 31.7187 55.6397 34.2219C58.0057 34.2276 60.3784 34.2362 62.7428 34.3247C63.5946 34.3565 63.5324 34.8809 63.516 35.5869C63.5076 35.9443 63.5037 36.1201 63.216 36.3212C60.1088 36.3828 56.7595 36.2989 53.6348 36.277C53.5646 33.6959 53.4323 29.7364 53.6722 27.031C53.6904 26.8256 53.868 26.7963 54.0497 26.7174Z" fill="#9476CC"/>
<path d="M21.9078 26.7485C24.6629 26.762 28.3533 26.6228 30.9918 26.8129C31.0808 27.8445 31.1519 35.7935 30.906 36.3132C30.8435 36.4452 30.7352 36.4499 30.6045 36.4998C30.0901 36.5191 29.5474 36.4924 29.0307 36.4768C28.8358 35.5814 28.9049 30.2233 28.8907 28.7815C27.7021 28.7219 26.5118 28.7003 25.3218 28.7167C24.3633 28.7358 22.517 28.8535 21.6497 28.6733C21.2023 28.2985 21.1979 27.5329 21.4012 27.0098C21.4724 26.8264 21.7212 26.8042 21.9078 26.7485Z" fill="#9476CC"/>
<path d="M65.9302 75.4834C66.4397 75.5408 69.4826 75.8013 69.6892 75.9409C69.7696 76.7754 69.7588 77.2495 70.4567 77.8352C71.3388 78.5755 73.8556 78.8396 74.526 79.7875C74.8881 80.9596 76.2951 82.5609 77.1452 83.5447L77.1517 83.6035C76.1226 84.4854 74.7374 84.9586 73.4812 85.4622C72.9587 85.6985 70.5105 86.8738 70.1917 86.8252C69.16 87.2864 66.7634 88.4572 65.8003 88.7785C65.6231 88.8021 65.5644 88.7851 65.3927 88.7591C65.049 88.5362 64.8822 88.1225 64.6906 87.753C64.5676 86.968 64.648 86.3261 64.704 85.5355C64.7525 85.3099 64.7518 85.0043 64.7611 84.7676C64.864 84.1665 64.9445 83.1592 65.2155 82.6819C65.2082 82.6752 65.1992 82.6701 65.1938 82.6619C64.9239 82.2532 65.7624 76.1743 65.9302 75.4834Z" fill="#FCDDC6"/>
<path d="M65.2155 82.6816C65.6072 82.8694 66.9116 83.479 67.2033 83.7552C68.6156 84.8272 69.2849 85.2881 70.1917 86.8249C69.16 87.2861 66.7634 88.4569 65.8003 88.7782C65.6231 88.8018 65.5644 88.7848 65.3927 88.7588C65.049 88.5359 64.8822 88.1222 64.6906 87.7527C64.5676 86.9677 64.648 86.3259 64.704 85.5352C64.7525 85.3096 64.7518 85.004 64.7611 84.7673C64.864 84.1662 64.9445 83.1589 65.2155 82.6816Z" fill="#513E6E"/>
<path d="M65.2155 82.6816C65.6072 82.8694 66.9116 83.479 67.2033 83.7552C66.8981 84.1143 66.9583 84.4296 66.8086 84.8503C66.4398 85.8864 65.8486 87.4327 64.6906 87.7527C64.5676 86.9677 64.648 86.3259 64.704 85.5352C64.7525 85.3096 64.7518 85.004 64.7611 84.7673C64.864 84.1662 64.9445 83.1589 65.2155 82.6816Z" fill="#77668F"/>
<path d="M65.7828 77.9707C66.2243 78.612 65.9542 79.7899 65.9383 80.5115L66.1762 79.9639L66.2862 79.9969C66.5689 80.4241 66.3443 81.3967 66.1304 81.8359C66.084 82.3299 66.1574 82.1513 65.8094 82.5371L65.6887 82.4897C65.788 81.4087 65.5904 80.2981 65.7484 79.2097C65.7969 78.8758 65.7782 78.3231 65.7828 77.9707Z" fill="#FBF9FC"/>
<path d="M8.83819 8.88488C8.24227 7.4967 8.33493 6.7298 6.7432 6.15826C6.28503 5.99374 5.81384 5.73906 5.82364 5.21842C6.26829 4.62414 7.13642 4.53499 7.70254 4.00608C8.27388 3.47227 8.76539 1.90566 9.22804 1.4707L9.41251 1.48595C10.1405 2.08304 10.3923 3.12662 10.839 3.96068C11.2629 4.27176 12.154 4.64454 12.6691 4.87813C12.9289 5.22144 12.9248 5.1128 12.945 5.48949C12.5591 6.24094 11.4052 6.23783 10.5807 7.14697C10.228 7.83932 9.96536 8.98811 9.43061 9.22532C9.11038 9.19961 9.11685 9.16629 8.83819 8.88488Z" fill="#FED96C"/>
<path d="M12.6688 4.87793C12.9286 5.22123 12.9245 5.11259 12.9447 5.48928C12.5588 6.24074 11.4049 6.23762 10.5804 7.14676C10.2277 7.83912 9.96506 8.9879 9.43031 9.22511C9.11008 9.1994 9.11655 9.16608 8.83789 8.88467C9.99623 7.9557 9.1945 7.49877 10.566 6.35642C10.8686 5.74688 11.8571 6.09895 12.6688 4.87793Z" fill="#FEB33B"/>
<path d="M106.676 8.26758C107.595 8.43894 107.284 9.63093 107.764 10.2368C108.208 10.7964 109.356 10.7605 109.446 11.5389C109.12 11.9961 108.181 12.3035 107.83 12.6908C107.39 13.1764 107.31 13.9451 106.775 14.4603C106.073 13.7909 106.246 13.0089 105.587 12.3434C105.145 11.8962 104.18 12.0464 103.834 11.5193C103.907 11.0998 104.175 10.9844 104.568 10.8694C105.92 10.4739 106.096 9.39372 106.676 8.26758Z" fill="#FEB33B"/>
<defs>
<filter id="filter0_f_1803_8787" x="-4.29153e-05" y="66.1765" width="111.647" height="32.6471" filterUnits="userSpaceOnUse" color-interpolation-filters="sRGB">
<feFlood flood-opacity="0" result="BackgroundImageFix"/>
<feBlend mode="normal" in="SourceGraphic" in2="BackgroundImageFix" result="shape"/>
<feGaussianBlur stdDeviation="4.41176" result="effect1_foregroundBlur_1803_8787"/>
</filter>
</defs>
</svg>
