<svg width="271" height="188" viewBox="0 0 271 188" fill="none" xmlns="http://www.w3.org/2000/svg">
<g filter="url(#filter0_i_1574_9690)">
<path d="M77.9499 15.8934C85.189 16.4503 99.6662 32.345 105.938 41.6836C105.993 41.6563 106.047 41.6294 106.1 41.6029C107.353 40.9818 108.222 40.6073 108.222 40.6073C101.327 30.2116 83.0506 13.0086 77.2917 14.579C72.6417 15.847 64.1384 47.4804 62.872 67.2235C62.3973 74.6242 62.3973 81.7017 62.3973 81.7017C66.5545 73.667 71.7292 67.2273 75.4943 63.1019C72.0269 54.7215 72.7005 15.4896 77.9499 15.8934Z" fill="black"/>
<path d="M105.938 41.6836C105.938 41.6836 107.933 44.848 108.881 44.1899C109.829 43.5318 108.222 40.6073 108.222 40.6073C108.222 40.6073 107.353 40.9818 106.1 41.6029L105.938 41.6836Z" fill="black"/>
<path d="M216.151 54.7218C215.732 39.2443 210.52 14.5773 206.28 14.5772C195.894 14.5771 178.84 33.4041 174.691 38.2689L173.375 39.7725C174.105 40.0721 174.81 40.3796 175.487 40.6944C175.942 40.084 176.412 39.4765 176.876 38.927C185.221 29.0555 199.558 16.0851 205.622 16.5515C210.228 16.9059 210.887 56.6958 206.28 64.3923C209.818 68.4858 213.197 73.1452 216.151 78.4132C216.151 78.4132 216.569 70.1993 216.151 54.7218Z" fill="black"/>
<path d="M173.375 39.7725C173.375 39.7725 169.931 44.85 172.059 44.85C172.456 44.85 173.388 43.5685 174.511 42.0236C174.824 41.5936 175.152 41.1432 175.487 40.6944C174.81 40.3796 174.105 40.0721 173.375 39.7725Z" fill="black"/>
<path d="M143.76 33.6622C127.965 33.6622 118.751 36.0006 108.222 40.6073C108.222 40.6073 109.829 43.5318 108.881 44.1899C107.933 44.848 105.938 41.6836 105.938 41.6836C99.6662 32.345 85.189 16.4503 77.9499 15.8934C72.7005 15.4896 72.0269 54.7215 75.4943 63.1019C71.7292 67.2273 66.5545 73.667 62.3973 81.7017C60.126 86.0915 58.1584 90.9573 56.8904 96.182C49.4489 126.843 60.6337 153.554 85.8469 172.522C103.482 185.789 123.359 187 140.469 187C150.342 187 176.387 186.342 195.937 171.856C235.894 142.249 223.301 96.5054 220.757 89.6012C220.449 88.7633 220.162 87.9638 219.886 87.1926C218.748 84.0174 217.783 81.3234 216.151 78.4132C213.197 73.1452 209.818 68.4858 206.28 64.3923C210.887 56.6958 210.228 16.9059 205.622 16.5515C199.558 16.0851 185.221 29.0555 176.876 38.927C176.412 39.4765 175.942 40.084 175.487 40.6944C175.152 41.1432 174.824 41.5936 174.511 42.0236C173.388 43.5685 172.456 44.85 172.059 44.85C169.931 44.85 173.375 39.7725 173.375 39.7725C164.492 36.1287 151.946 33.6622 143.76 33.6622Z" fill="#A289CB"/>
</g>
<path d="M181.272 44.1918C179.816 42.9591 177.826 41.7834 175.487 40.6944M108.222 40.6073C118.751 36.0006 127.965 33.6622 143.76 33.6622C151.946 33.6622 164.492 36.1287 173.375 39.7725M108.222 40.6073C101.327 30.2117 83.0506 13.0086 77.2917 14.579C72.6417 15.847 64.1384 47.4804 62.872 67.2235C62.3973 74.6242 62.3973 81.7017 62.3973 81.7017M108.222 40.6073C108.222 40.6073 109.829 43.5318 108.881 44.1899C107.933 44.848 105.938 41.6836 105.938 41.6836M105.938 41.6836C105.993 41.6563 106.047 41.6294 106.1 41.6029C107.353 40.9818 108.222 40.6073 108.222 40.6073M216.151 78.4132C216.151 78.4132 216.569 70.1993 216.151 54.7218C215.732 39.2443 210.52 14.5773 206.28 14.5772C195.894 14.5771 178.84 33.4041 174.691 38.2689L173.375 39.7725M80.5818 58.012C80.5818 58.012 78.4818 59.8284 75.4943 63.1019C71.7292 67.2273 66.5545 73.667 62.3973 81.7017C60.126 86.0915 58.1584 90.9573 56.8904 96.182C49.4489 126.843 60.6337 153.554 85.8469 172.522C103.482 185.789 123.359 187 140.469 187C150.342 187 176.387 186.342 195.937 171.856C235.894 142.249 223.301 96.5054 220.757 89.6012C220.449 88.7633 220.162 87.9638 219.886 87.1926C218.748 84.0174 217.783 81.3234 216.151 78.4132C213.197 73.1452 209.818 68.4858 206.28 64.3923C204.981 62.8895 203.66 61.4629 202.331 60.1106M99.6662 45.5081C101.62 43.9456 104.27 42.5108 106.1 41.6029M173.375 39.7725C173.375 39.7725 169.931 44.85 172.059 44.85C172.456 44.85 173.388 43.5685 174.511 42.0236C174.824 41.5936 175.152 41.1432 175.487 40.6944M173.375 39.7725C174.105 40.0721 174.81 40.3796 175.487 40.6944M206.28 64.3923C210.887 56.6958 210.228 16.9059 205.622 16.5515C199.558 16.0851 185.221 29.0555 176.876 38.927C176.412 39.4765 175.942 40.084 175.487 40.6944M105.938 41.6836C99.6662 32.345 85.189 16.4503 77.9499 15.8934C72.7005 15.4896 72.0269 54.7215 75.4943 63.1019M105.938 41.6836L106.1 41.6029" stroke="#1C1135" stroke-width="1.31621" stroke-linecap="round"/>
<path d="M195.324 48.6226C201.759 54.2353 204.753 55.324 205.909 56.7741C209.965 49.3121 209.19 17.2286 205.106 16.9003C199.731 16.4683 185.903 29.0783 178.543 38.6567C178.133 39.1899 178.944 38.0647 178.543 38.6567C178.543 38.6567 188.888 43.0099 195.324 48.6226Z" fill="url(#paint0_linear_1574_9690)"/>
<path d="M86.893 48.4866C80.8441 54.1931 76.1106 56.4401 75.0235 57.9142C73.0492 51.9913 73.7073 16.5961 77.7094 16.2469C82.2626 15.8496 95.7505 28.6193 102.665 38.3528C103.049 38.8946 102.287 37.7512 102.665 38.3528C102.665 38.3528 92.9419 42.7802 86.893 48.4866Z" fill="url(#paint1_linear_1574_9690)"/>
<path d="M11.4108 117.922C6.80408 121.641 4.82983 123.187 0.881213 127.794C1.95187 128.329 4.62489 127.048 7.4622 127.136C10.5873 127.233 12.6321 127.547 15.3594 128.452C19.9621 129.978 22.1134 131.99 25.8891 135.033C30.2778 138.57 34.4446 144.904 35.7607 145.563C35.5037 139.137 35.381 140.019 35.1026 133.595C34.8795 130.841 34.7244 122.275 35.1026 117.922C35.4866 113.502 37.0768 108.709 37.0768 107.393C37.0768 106.42 36.0901 103.444 34.4445 103.444C33.1282 103.444 27.2058 106.355 23.2567 108.709C18.0464 111.814 16.252 114.015 11.4108 117.922Z" fill="#A974D2"/>
<path d="M48.2646 115.29C42.9997 111.999 42.3416 108.709 41.0255 108.709C39.7094 108.709 38.588 114.225 37.512 117.922C35.7815 123.868 35.5376 128.209 35.1026 133.595C35.381 140.019 35.5037 139.137 35.7607 145.563C37.0768 146.221 41.4992 141.964 45.6321 140.956C50.6259 139.738 53.7062 140.226 58.7942 140.956C64.1062 141.718 71.9563 145.563 71.9563 145.563C71.9563 145.563 65.661 138.376 62.7428 133.059C60.0793 128.205 57.4781 119.897 57.4781 119.897C57.4781 119.897 51.5841 117.365 48.2646 115.29Z" fill="#A974D2"/>
<path d="M54.1876 108.051C54.1876 108.051 48.6712 105.34 45.6322 102.128C42.6924 99.0209 39.7094 92.9146 37.735 92.2564C35.7647 91.5995 31.1365 93.7339 27.2293 95.5357L27.2054 95.5467C20.0614 98.8413 14.7014 103.444 10.0947 108.709C4.25899 115.378 -0.435087 127.136 0.881213 127.794C4.82983 123.187 6.80408 121.641 11.4108 117.922C16.252 114.015 18.0464 111.814 23.2567 108.709C27.2058 106.355 33.1282 103.444 34.4445 103.444C36.0901 103.444 37.0768 106.42 37.0768 107.393C37.0768 108.709 35.4866 113.502 35.1026 117.922C34.7244 122.275 34.8795 130.841 35.1026 133.595C35.5376 128.209 35.7815 123.868 37.512 117.922C38.588 114.225 39.7094 108.709 41.0255 108.709C42.3416 108.709 42.9997 111.999 48.2646 115.29C51.5841 117.365 57.4781 119.897 57.4781 119.897L54.1876 108.051Z" fill="#43277B"/>
<path d="M27.2054 95.5467C20.0614 98.8413 14.7014 103.444 10.0947 108.709C4.25899 115.378 -0.435087 127.136 0.881213 127.794M27.2054 95.5467L27.2293 95.5357M57.4781 119.897L54.1876 108.051C54.1876 108.051 48.6712 105.34 45.6322 102.128C42.6924 99.0209 39.7094 92.9146 37.735 92.2564C35.7647 91.5995 31.1365 93.7339 27.2293 95.5357C27.2213 95.5394 27.2133 95.5431 27.2054 95.5467M0.881213 127.794C4.82983 123.187 6.80408 121.641 11.4108 117.922C16.252 114.015 18.0464 111.814 23.2567 108.709C27.2058 106.355 33.1282 103.444 34.4445 103.444C36.0901 103.444 37.0768 106.42 37.0768 107.393C37.0768 108.709 35.4866 113.502 35.1026 117.922C34.7244 122.275 34.8795 130.841 35.1026 133.595M0.881213 127.794C1.95187 128.329 4.62489 127.048 7.4622 127.136C10.5873 127.233 12.6321 127.547 15.3594 128.452C19.9621 129.978 22.1134 131.99 25.8891 135.033C30.2778 138.57 34.4446 144.904 35.7607 145.563M35.1026 133.595C35.381 140.019 35.5037 139.137 35.7607 145.563M35.1026 133.595C35.5376 128.209 35.7815 123.868 37.512 117.922C38.588 114.225 39.7094 108.709 41.0255 108.709C42.3416 108.709 42.9997 111.999 48.2646 115.29C51.5841 117.365 57.4781 119.897 57.4781 119.897M57.4781 119.897C57.4781 119.897 60.0793 128.205 62.7428 133.059C65.661 138.376 71.9563 145.563 71.9563 145.563C71.9563 145.563 64.1062 141.718 58.7942 140.956C53.7062 140.226 50.6259 139.738 45.6321 140.956C41.4992 141.964 37.0768 146.221 35.7607 145.563" stroke="#0D0C12" stroke-width="1.31621" stroke-linecap="round"/>
<path d="M230.559 102.127C228.094 104.823 223.32 108.05 223.32 108.05L221.345 117.921C221.345 117.921 224.502 116.23 226.61 114.631C228.637 113.093 231.217 110.023 231.875 110.024C233.849 110.025 235.824 123.844 235.824 129.767C235.824 121.029 235.824 107.392 235.824 107.392C235.824 105.746 236.895 103.581 238.456 104.101C242.405 105.417 246.011 107.579 250.96 111.341C254.58 114.092 256.969 116.011 260.173 119.238C263.121 122.206 265.438 125.161 268.071 127.793C270.703 127.135 264.829 115.295 260.173 108.708C257.848 105.417 252.276 99.9437 248.327 97.5204C243.892 94.7985 239.114 92.2552 236.482 92.9137C234.389 93.4373 233.445 98.9704 230.559 102.127Z" fill="#442679"/>
<path d="M250.96 111.341C246.011 107.579 242.405 105.417 238.456 104.101C236.895 103.581 235.824 105.746 235.824 107.392C235.824 107.392 235.824 121.029 235.824 129.767C235.824 136.348 235.165 140.955 234.507 146.22C237.798 140.955 241.981 136.348 245.695 133.716C247.669 132.316 251.366 129.651 255.567 128.451C260.173 127.134 264.122 127.135 268.071 127.793C265.438 125.161 263.121 122.206 260.173 119.238C256.969 116.011 254.58 114.092 250.96 111.341Z" fill="#AA74D2"/>
<path d="M235.824 129.767C235.824 123.844 233.849 110.025 231.875 110.024C231.217 110.023 228.637 113.093 226.61 114.631C224.502 116.23 221.345 117.921 221.345 117.921L219.371 123.844C218.06 127.776 216.857 129.481 214.764 133.058C212.494 136.938 208.841 142.93 208.841 142.93C208.841 142.93 217.68 140.086 223.32 140.955C227.989 141.675 231.217 143.587 234.507 146.22C235.165 140.955 235.824 136.348 235.824 129.767Z" fill="#AA74D2"/>
<path d="M219.371 123.844C218.06 127.776 216.857 129.481 214.764 133.058C212.494 136.938 208.841 142.93 208.841 142.93C208.841 142.93 217.68 140.086 223.32 140.955C227.989 141.675 231.217 143.587 234.507 146.22C237.798 140.955 241.981 136.348 245.695 133.716C247.669 132.316 251.366 129.651 255.567 128.451C260.173 127.134 264.122 127.135 268.071 127.793C270.703 127.135 264.829 115.295 260.173 108.708C257.848 105.417 252.276 99.9437 248.327 97.5204C243.892 94.7985 239.114 92.2552 236.482 92.9137C234.389 93.4373 233.445 98.9704 230.559 102.127C228.094 104.823 223.32 108.05 223.32 108.05L221.345 117.921M268.071 127.793C265.438 125.161 263.121 122.206 260.173 119.238C256.969 116.011 254.58 114.092 250.96 111.341C246.011 107.579 242.405 105.417 238.456 104.101C236.895 103.581 235.824 105.746 235.824 107.392M235.824 107.392C235.824 113.973 235.824 123.186 235.824 129.767M235.824 107.392C235.824 107.392 235.824 121.029 235.824 129.767M235.824 129.767C235.824 123.844 233.849 110.025 231.875 110.024C231.217 110.023 228.637 113.093 226.61 114.631C224.502 116.23 221.345 117.921 221.345 117.921M235.824 129.767C235.824 136.348 235.165 140.955 234.507 146.22M221.345 117.921C221.345 117.921 220.2 121.358 219.371 123.844M221.345 117.921L219.371 123.844" stroke="#0D0C12" stroke-width="1.31621" stroke-linecap="round"/>
<path d="M11.4108 117.922C6.80408 121.641 4.82983 123.187 0.881213 127.794C1.95187 128.329 4.62489 127.048 7.4622 127.136C10.5873 127.233 12.6321 127.547 15.3594 128.452C19.9621 129.978 22.1134 131.99 25.8891 135.033C30.2778 138.57 34.4446 144.904 35.7607 145.563C35.5037 139.137 35.381 140.019 35.1026 133.595C34.8795 130.841 34.7244 122.275 35.1026 117.922C35.4866 113.502 37.0768 108.709 37.0768 107.393C37.0768 106.42 36.0901 103.444 34.4445 103.444C33.1282 103.444 27.2058 106.355 23.2567 108.709C18.0464 111.814 16.252 114.015 11.4108 117.922Z" fill="#A974D2"/>
<path d="M48.2646 115.29C42.9997 111.999 42.3416 108.709 41.0255 108.709C39.7094 108.709 38.588 114.225 37.512 117.922C35.7815 123.868 35.5376 128.209 35.1026 133.595C35.381 140.019 35.5037 139.137 35.7607 145.563C37.0768 146.221 41.4992 141.964 45.6321 140.956C50.6259 139.738 53.7062 140.226 58.7942 140.956C64.1062 141.718 71.9563 145.563 71.9563 145.563C71.9563 145.563 65.661 138.376 62.7428 133.059C60.0793 128.205 57.4781 119.897 57.4781 119.897C57.4781 119.897 51.5841 117.365 48.2646 115.29Z" fill="#A974D2"/>
<path d="M54.1876 108.051C54.1876 108.051 48.6712 105.34 45.6322 102.128C42.6924 99.0209 39.7094 92.9146 37.735 92.2564C35.7647 91.5995 31.1365 93.7339 27.2293 95.5357L27.2054 95.5467C20.0614 98.8413 14.7014 103.444 10.0947 108.709C4.25899 115.378 -0.435087 127.136 0.881213 127.794C4.82983 123.187 6.80408 121.641 11.4108 117.922C16.252 114.015 18.0464 111.814 23.2567 108.709C27.2058 106.355 33.1282 103.444 34.4445 103.444C36.0901 103.444 37.0768 106.42 37.0768 107.393C37.0768 108.709 35.4866 113.502 35.1026 117.922C34.7244 122.275 34.8795 130.841 35.1026 133.595C35.5376 128.209 35.7815 123.868 37.512 117.922C38.588 114.225 39.7094 108.709 41.0255 108.709C42.3416 108.709 42.9997 111.999 48.2646 115.29C51.5841 117.365 57.4781 119.897 57.4781 119.897L54.1876 108.051Z" fill="#43277B"/>
<path d="M27.2054 95.5467C20.0614 98.8413 14.7014 103.444 10.0947 108.709C4.25899 115.378 -0.435087 127.136 0.881213 127.794M27.2054 95.5467L27.2293 95.5357M57.4781 119.897L54.1876 108.051C54.1876 108.051 48.6712 105.34 45.6322 102.128C42.6924 99.0209 39.7094 92.9146 37.735 92.2564C35.7647 91.5995 31.1365 93.7339 27.2293 95.5357C27.2213 95.5394 27.2133 95.5431 27.2054 95.5467M0.881213 127.794C4.82983 123.187 6.80408 121.641 11.4108 117.922C16.252 114.015 18.0464 111.814 23.2567 108.709C27.2058 106.355 33.1282 103.444 34.4445 103.444C36.0901 103.444 37.0768 106.42 37.0768 107.393C37.0768 108.709 35.4866 113.502 35.1026 117.922C34.7244 122.275 34.8795 130.841 35.1026 133.595M0.881213 127.794C1.95187 128.329 4.62489 127.048 7.4622 127.136C10.5873 127.233 12.6321 127.547 15.3594 128.452C19.9621 129.978 22.1134 131.99 25.8891 135.033C30.2778 138.57 34.4446 144.904 35.7607 145.563M35.1026 133.595C35.381 140.019 35.5037 139.137 35.7607 145.563M35.1026 133.595C35.5376 128.209 35.7815 123.868 37.512 117.922C38.588 114.225 39.7094 108.709 41.0255 108.709C42.3416 108.709 42.9997 111.999 48.2646 115.29C51.5841 117.365 57.4781 119.897 57.4781 119.897M57.4781 119.897C57.4781 119.897 60.0793 128.205 62.7428 133.059C65.661 138.376 71.9563 145.563 71.9563 145.563C71.9563 145.563 64.1062 141.718 58.7942 140.956C53.7062 140.226 50.6259 139.738 45.6321 140.956C41.4992 141.964 37.0768 146.221 35.7607 145.563" stroke="#0D0C12" stroke-width="1.31621" stroke-linecap="round"/>
<path d="M230.559 102.127C228.094 104.823 223.32 108.05 223.32 108.05L221.345 117.921C221.345 117.921 224.502 116.23 226.61 114.631C228.637 113.093 231.217 110.023 231.875 110.024C233.849 110.025 235.824 123.844 235.824 129.767C235.824 121.029 235.824 107.392 235.824 107.392C235.824 105.746 236.895 103.581 238.456 104.101C242.405 105.417 246.011 107.579 250.96 111.341C254.58 114.092 256.969 116.011 260.173 119.238C263.121 122.206 265.438 125.161 268.071 127.793C270.703 127.135 264.829 115.295 260.173 108.708C257.848 105.417 252.276 99.9437 248.327 97.5204C243.892 94.7985 239.114 92.2552 236.482 92.9137C234.389 93.4373 233.445 98.9704 230.559 102.127Z" fill="#442679"/>
<path d="M250.96 111.341C246.011 107.579 242.405 105.417 238.456 104.101C236.895 103.581 235.824 105.746 235.824 107.392C235.824 107.392 235.824 121.029 235.824 129.767C235.824 136.348 235.165 140.955 234.507 146.22C237.798 140.955 241.981 136.348 245.695 133.716C247.669 132.316 251.366 129.651 255.567 128.451C260.173 127.134 264.122 127.135 268.071 127.793C265.438 125.161 263.121 122.206 260.173 119.238C256.969 116.011 254.58 114.092 250.96 111.341Z" fill="#AA74D2"/>
<path d="M235.824 129.767C235.824 123.844 233.849 110.025 231.875 110.024C231.217 110.023 228.637 113.093 226.61 114.631C224.502 116.23 221.345 117.921 221.345 117.921L219.371 123.844C218.06 127.776 216.857 129.481 214.764 133.058C212.494 136.938 208.841 142.93 208.841 142.93C208.841 142.93 217.68 140.086 223.32 140.955C227.989 141.675 231.217 143.587 234.507 146.22C235.165 140.955 235.824 136.348 235.824 129.767Z" fill="#AA74D2"/>
<path d="M219.371 123.844C218.06 127.776 216.857 129.481 214.764 133.058C212.494 136.938 208.841 142.93 208.841 142.93C208.841 142.93 217.68 140.086 223.32 140.955C227.989 141.675 231.217 143.587 234.507 146.22C237.798 140.955 241.981 136.348 245.695 133.716C247.669 132.316 251.366 129.651 255.567 128.451C260.173 127.134 264.122 127.135 268.071 127.793C270.703 127.135 264.829 115.295 260.173 108.708C257.848 105.417 252.276 99.9437 248.327 97.5204C243.892 94.7985 239.114 92.2552 236.482 92.9137C234.389 93.4373 233.445 98.9704 230.559 102.127C228.094 104.823 223.32 108.05 223.32 108.05L221.345 117.921M268.071 127.793C265.438 125.161 263.121 122.206 260.173 119.238C256.969 116.011 254.58 114.092 250.96 111.341C246.011 107.579 242.405 105.417 238.456 104.101C236.895 103.581 235.824 105.746 235.824 107.392M235.824 107.392C235.824 113.973 235.824 123.186 235.824 129.767M235.824 107.392C235.824 107.392 235.824 121.029 235.824 129.767M235.824 129.767C235.824 123.844 233.849 110.025 231.875 110.024C231.217 110.023 228.637 113.093 226.61 114.631C224.502 116.23 221.345 117.921 221.345 117.921M235.824 129.767C235.824 136.348 235.165 140.955 234.507 146.22M221.345 117.921C221.345 117.921 220.2 121.358 219.371 123.844M221.345 117.921L219.371 123.844" stroke="#0D0C12" stroke-width="1.31621" stroke-linecap="round"/>
<g filter="url(#filter1_i_1574_9690)">
<path d="M77.9499 15.8934C85.189 16.4503 99.6662 32.345 105.938 41.6836C105.993 41.6563 106.047 41.6294 106.1 41.6029C107.353 40.9818 108.222 40.6073 108.222 40.6073C101.327 30.2116 83.0506 13.0086 77.2917 14.579C72.6417 15.847 64.1384 47.4804 62.872 67.2235C62.3973 74.6242 62.3973 81.7017 62.3973 81.7017C66.5545 73.667 71.7292 67.2273 75.4943 63.1019C72.0269 54.7215 72.7005 15.4896 77.9499 15.8934Z" fill="black"/>
<path d="M105.938 41.6836C105.938 41.6836 107.933 44.848 108.881 44.1899C109.829 43.5318 108.222 40.6073 108.222 40.6073C108.222 40.6073 107.353 40.9818 106.1 41.6029L105.938 41.6836Z" fill="black"/>
<path d="M216.151 54.7218C215.732 39.2443 210.52 14.5773 206.28 14.5772C195.894 14.5771 178.84 33.4041 174.691 38.2689L173.375 39.7725C174.105 40.0721 174.81 40.3796 175.487 40.6944C175.942 40.084 176.412 39.4765 176.876 38.927C185.221 29.0555 199.558 16.0851 205.622 16.5515C210.228 16.9059 210.887 56.6958 206.28 64.3923C209.818 68.4858 213.197 73.1452 216.151 78.4132C216.151 78.4132 216.569 70.1993 216.151 54.7218Z" fill="black"/>
<path d="M173.375 39.7725C173.375 39.7725 169.931 44.85 172.059 44.85C172.456 44.85 173.388 43.5685 174.511 42.0236C174.824 41.5936 175.152 41.1432 175.487 40.6944C174.81 40.3796 174.105 40.0721 173.375 39.7725Z" fill="black"/>
<path d="M143.76 33.6622C127.965 33.6622 118.751 36.0006 108.222 40.6073C108.222 40.6073 109.829 43.5318 108.881 44.1899C107.933 44.848 105.938 41.6836 105.938 41.6836C99.6662 32.345 85.189 16.4503 77.9499 15.8934C72.7005 15.4896 72.0269 54.7215 75.4943 63.1019C71.7292 67.2273 66.5545 73.667 62.3973 81.7017C60.126 86.0915 58.1584 90.9573 56.8904 96.182C49.4489 126.843 60.6337 153.554 85.8469 172.522C103.482 185.789 123.359 187 140.469 187C150.342 187 176.387 186.342 195.937 171.856C235.894 142.249 223.301 96.5054 220.757 89.6012C220.449 88.7633 220.162 87.9638 219.886 87.1926C218.748 84.0174 217.783 81.3234 216.151 78.4132C213.197 73.1452 209.818 68.4858 206.28 64.3923C210.887 56.6958 210.228 16.9059 205.622 16.5515C199.558 16.0851 185.221 29.0555 176.876 38.927C176.412 39.4765 175.942 40.084 175.487 40.6944C175.152 41.1432 174.824 41.5936 174.511 42.0236C173.388 43.5685 172.456 44.85 172.059 44.85C169.931 44.85 173.375 39.7725 173.375 39.7725C164.492 36.1287 151.946 33.6622 143.76 33.6622Z" fill="#A289CB"/>
</g>
<path d="M181.272 44.1918C179.816 42.9591 177.826 41.7834 175.487 40.6944M108.222 40.6073C118.751 36.0006 127.965 33.6622 143.76 33.6622C151.946 33.6622 164.492 36.1287 173.375 39.7725M108.222 40.6073C101.327 30.2117 83.0506 13.0086 77.2917 14.579C72.6417 15.847 64.1384 47.4804 62.872 67.2235C62.3973 74.6242 62.3973 81.7017 62.3973 81.7017M108.222 40.6073C108.222 40.6073 109.829 43.5318 108.881 44.1899C107.933 44.848 105.938 41.6836 105.938 41.6836M105.938 41.6836C105.993 41.6563 106.047 41.6294 106.1 41.6029C107.353 40.9818 108.222 40.6073 108.222 40.6073M216.151 78.4132C216.151 78.4132 216.569 70.1993 216.151 54.7218C215.732 39.2443 210.52 14.5773 206.28 14.5772C195.894 14.5771 178.84 33.4041 174.691 38.2689L173.375 39.7725M80.5818 58.012C80.5818 58.012 78.4818 59.8284 75.4943 63.1019C71.7292 67.2273 66.5545 73.667 62.3973 81.7017C60.126 86.0915 58.1584 90.9573 56.8904 96.182C49.4489 126.843 60.6337 153.554 85.8469 172.522C103.482 185.789 123.359 187 140.469 187C150.342 187 176.387 186.342 195.937 171.856C235.894 142.249 223.301 96.5054 220.757 89.6012C220.449 88.7633 220.162 87.9638 219.886 87.1926C218.748 84.0174 217.783 81.3234 216.151 78.4132C213.197 73.1452 209.818 68.4858 206.28 64.3923C204.981 62.8895 203.66 61.4629 202.331 60.1106M99.6662 45.5081C101.62 43.9456 104.27 42.5108 106.1 41.6029M173.375 39.7725C173.375 39.7725 169.931 44.85 172.059 44.85C172.456 44.85 173.388 43.5685 174.511 42.0236C174.824 41.5936 175.152 41.1432 175.487 40.6944M173.375 39.7725C174.105 40.0721 174.81 40.3796 175.487 40.6944M206.28 64.3923C210.887 56.6958 210.228 16.9059 205.622 16.5515C199.558 16.0851 185.221 29.0555 176.876 38.927C176.412 39.4765 175.942 40.084 175.487 40.6944M105.938 41.6836C99.6662 32.345 85.189 16.4503 77.9499 15.8934C72.7005 15.4896 72.0269 54.7215 75.4943 63.1019M105.938 41.6836L106.1 41.6029" stroke="#1C1135" stroke-width="1.31621" stroke-linecap="round"/>
<path d="M195.324 48.6226C201.759 54.2353 204.753 55.324 205.909 56.7741C209.965 49.3121 209.19 17.2286 205.106 16.9003C199.731 16.4683 185.903 29.0783 178.543 38.6567C178.133 39.1899 178.944 38.0647 178.543 38.6567C178.543 38.6567 188.888 43.0099 195.324 48.6226Z" fill="url(#paint2_linear_1574_9690)"/>
<path d="M86.893 48.4866C80.8441 54.1931 76.1106 56.4401 75.0235 57.9142C73.0492 51.9913 73.7073 16.5961 77.7094 16.2469C82.2626 15.8496 95.7505 28.6193 102.665 38.3528C103.049 38.8946 102.287 37.7512 102.665 38.3528C102.665 38.3528 92.9419 42.7802 86.893 48.4866Z" fill="url(#paint3_linear_1574_9690)"/>
<path d="M86.1502 71.0848C83.2697 71.4582 83.6282 85.5943 81.8279 87.6877C80.0276 89.7811 67.8892 92.7406 67.7854 95.6282C67.6816 98.5157 78.8029 102.847 80.0276 105.012C81.2522 107.178 80.2794 118.577 83.6433 119.45C87.0071 120.322 93.8843 107.794 96.1375 107.116C98.3908 106.438 111.515 112.875 113.513 110.48C115.512 108.086 108.017 99.2375 107.752 97.0719C107.488 94.9063 114.796 85.5222 113.513 83.3565C112.231 81.1909 100.551 83.2588 98.3908 82.2738C96.2304 81.2887 89.0307 70.7115 86.1502 71.0848Z" fill="#C3AEE6"/>
<g filter="url(#filter2_f_1574_9690)">
<circle cx="195.456" cy="139.517" r="7.89723" fill="#CD91D7"/>
</g>
<g filter="url(#filter3_f_1574_9690)">
<circle cx="86.2117" cy="139.517" r="7.89723" fill="#CD91D7"/>
</g>
<path d="M115.826 122.407C115.826 131.857 109.639 138.859 102.006 138.859C94.3734 138.859 87.5278 131.857 87.5278 122.407C87.5278 112.957 94.3734 105.296 102.006 105.296C109.639 105.296 115.826 112.957 115.826 122.407Z" fill="#040311"/>
<path d="M102.006 116.484C100.878 119.573 97.2993 121.357 94.7668 120.432C92.2343 119.508 91.007 116.282 92.1347 113.193C93.2623 110.104 96.8411 108.32 99.3736 109.244C101.906 110.169 103.134 113.395 102.006 116.484Z" fill="#FAFAF9"/>
<path d="M193.482 122.407C193.482 131.857 186.637 138.859 179.004 138.859C171.371 138.859 164.526 131.857 164.526 122.407C164.526 112.957 171.371 105.296 179.004 105.296C186.637 105.296 193.482 112.957 193.482 122.407Z" fill="#040311"/>
<path d="M179.051 117.035C177.924 120.124 174.345 121.909 171.812 120.984C169.28 120.06 168.052 116.834 169.18 113.745C170.308 110.656 173.886 108.872 176.419 109.796C178.952 110.721 180.179 113.947 179.051 117.035Z" fill="#FAFAF9"/>
<path d="M130.962 146.757C130.962 146.757 138.552 138.201 140.176 138.201C141.492 138.201 148.731 146.757 148.731 146.757" stroke="#0D0C12" stroke-width="2.63241" stroke-linecap="round"/>
<path d="M242.49 12.4927C240.694 10.9558 240.623 8.11049 242.458 6.63685C246.152 3.69776 251.212 2.30227 256.761 4.05513C262.854 5.97999 266.152 10.073 267.181 14.219C268.054 17.7741 267.356 23.6844 263.245 26.9482C258.684 30.5545 255.26 31.0127 252.718 33.4606C252.108 34.0378 251.695 34.5345 251.171 35.6521C250.339 37.4711 248.317 38.4575 246.398 37.8514C244.142 37.1388 242.916 34.6127 243.888 32.4389C244.461 31.1657 245.206 29.8898 246.342 28.8227C249.477 25.8495 253.986 24.9357 257.223 22.4509C260.639 19.8516 261.291 13.1853 254.601 11.072C251.568 10.1137 249.098 11.0728 247.281 12.5805C245.907 13.7717 243.867 13.6405 242.49 12.4927ZM248.048 49.7788C247.147 52.6309 244.076 54.2272 241.224 53.3262C238.372 52.4252 236.776 49.3545 237.677 46.5025C238.578 43.6504 241.649 42.0541 244.501 42.9551C247.353 43.8561 248.949 46.9268 248.048 49.7788Z" fill="#5D3C98"/>
<g filter="url(#filter4_i_1574_9690)">
<circle cx="84.2377" cy="170.449" r="16.4526" fill="#A289CB"/>
</g>
<circle cx="84.2377" cy="170.449" r="15.7945" stroke="black" stroke-width="1.31621"/>
<defs>
<filter id="filter0_i_1574_9690" x="53.9644" y="4.60687" width="171.336" height="183.051" filterUnits="userSpaceOnUse" color-interpolation-filters="sRGB">
<feFlood flood-opacity="0" result="BackgroundImageFix"/>
<feBlend mode="normal" in="SourceGraphic" in2="BackgroundImageFix" result="shape"/>
<feColorMatrix in="SourceAlpha" type="matrix" values="0 0 0 0 0 0 0 0 0 0 0 0 0 0 0 0 0 0 127 0" result="hardAlpha"/>
<feOffset dy="-9.21344"/>
<feGaussianBlur stdDeviation="6.58103"/>
<feComposite in2="hardAlpha" operator="arithmetic" k2="-1" k3="1"/>
<feColorMatrix type="matrix" values="0 0 0 0 0.380392 0 0 0 0 0.25098 0 0 0 0 0.607843 0 0 0 0.38 0"/>
<feBlend mode="normal" in2="shape" result="effect1_innerShadow_1574_9690"/>
</filter>
<filter id="filter1_i_1574_9690" x="53.9644" y="4.60687" width="171.336" height="183.051" filterUnits="userSpaceOnUse" color-interpolation-filters="sRGB">
<feFlood flood-opacity="0" result="BackgroundImageFix"/>
<feBlend mode="normal" in="SourceGraphic" in2="BackgroundImageFix" result="shape"/>
<feColorMatrix in="SourceAlpha" type="matrix" values="0 0 0 0 0 0 0 0 0 0 0 0 0 0 0 0 0 0 127 0" result="hardAlpha"/>
<feOffset dy="-9.21344"/>
<feGaussianBlur stdDeviation="6.58103"/>
<feComposite in2="hardAlpha" operator="arithmetic" k2="-1" k3="1"/>
<feColorMatrix type="matrix" values="0 0 0 0 0.380392 0 0 0 0 0.25098 0 0 0 0 0.607843 0 0 0 0.38 0"/>
<feBlend mode="normal" in2="shape" result="effect1_innerShadow_1574_9690"/>
</filter>
<filter id="filter2_f_1574_9690" x="182.294" y="126.355" width="26.3241" height="26.3246" filterUnits="userSpaceOnUse" color-interpolation-filters="sRGB">
<feFlood flood-opacity="0" result="BackgroundImageFix"/>
<feBlend mode="normal" in="SourceGraphic" in2="BackgroundImageFix" result="shape"/>
<feGaussianBlur stdDeviation="2.63241" result="effect1_foregroundBlur_1574_9690"/>
</filter>
<filter id="filter3_f_1574_9690" x="73.0496" y="126.355" width="26.3241" height="26.3246" filterUnits="userSpaceOnUse" color-interpolation-filters="sRGB">
<feFlood flood-opacity="0" result="BackgroundImageFix"/>
<feBlend mode="normal" in="SourceGraphic" in2="BackgroundImageFix" result="shape"/>
<feGaussianBlur stdDeviation="2.63241" result="effect1_foregroundBlur_1574_9690"/>
</filter>
<filter id="filter4_i_1574_9690" x="67.7852" y="150.047" width="32.9053" height="36.8539" filterUnits="userSpaceOnUse" color-interpolation-filters="sRGB">
<feFlood flood-opacity="0" result="BackgroundImageFix"/>
<feBlend mode="normal" in="SourceGraphic" in2="BackgroundImageFix" result="shape"/>
<feColorMatrix in="SourceAlpha" type="matrix" values="0 0 0 0 0 0 0 0 0 0 0 0 0 0 0 0 0 0 127 0" result="hardAlpha"/>
<feOffset dy="-3.94862"/>
<feGaussianBlur stdDeviation="2.63241"/>
<feComposite in2="hardAlpha" operator="arithmetic" k2="-1" k3="1"/>
<feColorMatrix type="matrix" values="0 0 0 0 0.556863 0 0 0 0 0.447059 0 0 0 0 0.737255 0 0 0 1 0"/>
<feBlend mode="normal" in2="shape" result="effect1_innerShadow_1574_9690"/>
</filter>
<linearGradient id="paint0_linear_1574_9690" x1="208.496" y1="14.1822" x2="181.165" y2="57.5976" gradientUnits="userSpaceOnUse">
<stop offset="0.137215" stop-color="#543291"/>
<stop offset="0.401763" stop-color="#A087CA"/>
<stop offset="1" stop-color="#A087CA"/>
</linearGradient>
<linearGradient id="paint1_linear_1574_9690" x1="74.5252" y1="13.485" x2="103.187" y2="55.5674" gradientUnits="userSpaceOnUse">
<stop offset="0.137215" stop-color="#543291"/>
<stop offset="0.401763" stop-color="#A087CA"/>
<stop offset="1" stop-color="#A087CA"/>
</linearGradient>
<linearGradient id="paint2_linear_1574_9690" x1="208.496" y1="14.1822" x2="181.165" y2="57.5976" gradientUnits="userSpaceOnUse">
<stop offset="0.137215" stop-color="#543291"/>
<stop offset="0.401763" stop-color="#A087CA"/>
<stop offset="1" stop-color="#A087CA"/>
</linearGradient>
<linearGradient id="paint3_linear_1574_9690" x1="74.5252" y1="13.485" x2="103.187" y2="55.5674" gradientUnits="userSpaceOnUse">
<stop offset="0.137215" stop-color="#543291"/>
<stop offset="0.401763" stop-color="#A087CA"/>
<stop offset="1" stop-color="#A087CA"/>
</linearGradient>
</defs>
</svg>
