<svg width="67" height="70" viewBox="0 0 67 70" fill="none" xmlns="http://www.w3.org/2000/svg">
<path d="M13.5816 6.34402C19.3616 2.21527 25.3893 0.00259831 32.5744 1.87162e-06C36.5701 -0.00142198 43.7068 0.80942 47.1363 2.92233C47.5889 1.87254 48.0299 1.23239 49.1425 0.811766C51.5526 -0.0995003 53.755 1.6371 54.1598 3.95563C55.3087 3.54992 56.3251 3.18583 57.4802 3.77815C59.9656 5.05259 59.5316 8.08942 57.5214 9.54635C58.2591 10.0539 60.007 11.9739 60.5526 12.7502C61.2116 12.4165 61.5838 12.2254 62.288 12.0091C63.3517 12.1987 64.2814 12.3749 64.9116 13.362C65.6856 14.5746 66.0408 16.3546 65.735 17.7521C65.4412 19.0945 65.2402 19.8526 64.1645 20.7194C64.0654 20.7993 64.2596 21.1997 64.3041 21.3119C64.9214 22.1161 65.3037 24.2652 65.5729 25.3196C67.7635 33.9001 66.0625 43.8369 61.2935 51.2708C60.8987 51.8861 60.4552 52.3791 60.0786 53.0383C61.2698 52.8418 64.1661 52.1685 65.1838 52.361C66.7933 52.6652 63.892 58.2518 63.6396 59.0501C64.1636 60.506 65.2566 62.2465 65.6521 63.7353C66.0963 65.4075 61.4055 65.5895 60.2574 65.7411C60.2681 66.3222 60.3917 67.1636 59.9852 67.6412C58.8902 68.9282 48.9456 69.4328 46.7597 69.5841C42.4497 69.8719 38.1311 70.0103 33.8114 69.9988C30.0721 69.9848 7.33938 69.1533 5.67348 67.6283C5.16332 67.1612 5.27161 66.2785 5.25645 65.653C4.324 65.6177 0.176898 65.2548 0.015165 64.2632C-0.170271 63.1265 1.39605 60.1569 1.92145 59.0545C1.33206 57.797 -0.0632301 54.5229 0.0118153 53.2303C0.0292366 52.9307 0.120279 52.6219 0.363926 52.4278C0.99888 51.9218 5.36869 52.8411 6.31262 52.9869C6.05783 52.6616 5.80531 52.3218 5.58553 51.9753C1.39831 45.3731 -0.461156 37.5118 0.408484 29.7386C0.74066 26.7694 1.38977 24.0932 2.4461 21.2848C2.72501 20.5431 3.08282 19.8238 3.36122 19.0719C4.96063 15.0342 9.8447 8.62051 13.5816 6.34402ZM11.459 43.8554C11.5063 43.4744 11.5885 42.9464 11.583 42.5746C11.4686 42.2291 11.4198 42.1538 11.2242 41.8435C11.2535 42.3997 11.2879 43.3383 11.459 43.8554Z" fill="#000004"/>
<path d="M11.2239 41.8428C11.4195 42.153 11.4683 42.2283 11.5827 42.5738C11.5882 42.9457 11.506 43.4736 11.4587 43.8547C11.2876 43.3376 11.2532 42.3989 11.2239 41.8428Z" fill="#4F338E" fill-opacity="0.964706"/>
<path d="M41.3236 9.23386C42.6186 7.98481 43.3786 8.0199 44.3387 7.26953C45.4488 8.88904 46.3476 10.3148 46.5911 12.3284C46.5894 12.9417 46.617 13.8863 46.5049 14.459C46.4427 15.4761 46.3178 16.4518 46.2277 17.4607C45.8233 17.163 45.7216 17.0256 45.2559 17.0821C46.412 18.4087 47.6586 19.4133 48.7276 20.8233C51.7754 24.7956 53.295 29.7239 52.931 34.7263C52.8643 35.6435 52.5567 37.8644 52.2421 38.7118C51.1223 41.7285 49.0953 43.4991 46.7921 45.5552C46.709 44.5567 46.4638 43.483 45.8057 42.6882L45.6463 43.1723C45.4829 42.9851 45.3106 42.8139 45.1365 42.6369C43.7212 41.5841 42.982 41.3653 41.247 41.2495C40.8045 41.2992 40.2144 41.3455 39.7966 41.4609L39.3236 41.5129C39.5326 41.2844 39.69 41.2067 39.4764 40.9473C38.0179 41.3061 37.2247 42.0181 36.2535 43.1402C36.065 43.358 35.679 43.9164 35.4874 44.0689C34.4991 42.7956 33.8999 42.4963 32.4284 41.923C31.7493 41.6653 31.2638 41.6191 30.5576 41.563L30.4128 41.5693C29.9051 41.7837 30.0478 41.7097 29.722 42.2463C28.6753 42.4313 28.1881 42.5559 27.2961 43.1936C27.1384 43.3064 26.6518 43.6701 26.4984 43.749C26.0912 44.0581 25.9168 44.291 25.7129 44.7642C25.6869 44.4668 25.6943 44.2674 25.5325 44.0171C24.8247 45.2272 24.7292 45.7936 24.5555 47.1929C23.4702 47.2679 23.3347 47.4281 22.5319 48.1354C20.1689 47.0177 18.7494 46.59 16.7426 44.5926C15.3231 43.1877 14.2105 41.5035 13.4752 39.6465C13.1324 38.7668 13.0727 38.1826 12.8501 37.3004C11.851 33.3408 12.3342 28.8312 13.9004 25.0758C14.2738 24.264 14.706 23.4697 15.1587 22.707C15.4565 22.2055 16.4877 20.943 16.4864 20.4417L16.3445 20.4064C15.9995 20.5367 15.7809 20.8229 15.53 21.0952C15.3623 20.5805 15.2405 19.9789 14.8817 19.1621C14.2366 17.6934 13.6654 11.3842 15.1713 10.4572C15.977 9.9612 22.5029 13.6065 22.6278 14.7842L22.5154 14.8645C22.0462 15.2819 21.09 15.8472 20.8801 16.266C21.2514 16.3622 22.5804 15.5636 23.1376 15.316C23.4218 15.5158 23.6025 15.6639 23.9307 15.7766C24.2287 15.743 24.1182 15.7962 24.3393 15.5588C24.2468 15.3827 24.0493 15.1946 23.9085 15.0442C24.3247 14.1951 28.1883 13.3295 29.1717 13.1005C30.6392 12.7589 35.6605 12.7551 36.8791 13.5832C36.9689 13.78 36.8968 14.3264 36.8795 14.5743L37.6822 13.7814C38.4952 13.8874 39.3205 14.0554 40.1277 14.2081C39.575 13.8099 38.6357 13.4648 37.9687 13.1427C38.5544 11.9331 40.2884 10.1363 41.3236 9.23386Z" fill="#8E6DB6"/>
<path d="M41.3237 9.23386C42.6187 7.98481 43.3787 8.0199 44.3388 7.26953C45.4489 8.88904 46.3476 10.3148 46.5912 12.3284C46.5894 12.9417 46.6171 13.8863 46.505 14.459C46.4428 15.4761 46.3179 16.4518 46.2278 17.4607C45.8234 17.163 45.7216 17.0256 45.256 17.0821L44.9862 16.9399C44.6738 17.0389 44.7745 16.9669 44.5766 17.1945C44.4926 17.464 44.5827 17.6766 44.6825 17.9398C43.6283 18.4555 44.6211 19.2539 43.8449 19.8335C43.6595 19.972 43.0615 20.1514 42.8257 20.2622C42.6099 20.4828 42.2285 21.5969 41.9922 21.7471L41.8696 21.6866L41.7935 21.7221C41.7504 22.2635 41.3787 22.7384 41.0162 23.1287C40.8179 23.039 40.7216 22.9859 40.5042 22.9418C40.3762 23.3927 40.9094 23.2747 40.2314 23.7909L40.3178 24.3255L40.2226 24.4242C39.9214 24.2643 39.947 24.2195 39.6504 24.2304L39.577 24.3641L39.5703 24.3022C39.6638 24.4601 39.6681 24.4652 39.6638 24.6444C39.4352 24.8287 39.544 24.7806 39.2493 24.8229C39.1077 24.6598 39.1094 24.5912 39.0558 24.3738L38.908 24.358C38.7677 24.497 38.7722 24.4878 38.7014 24.6714L38.5494 24.7204C38.9826 25.8591 40.7443 27.3658 41.515 28.364C41.6967 28.5993 41.5273 28.9797 41.8416 29.3187C42.6751 29.5033 44.2887 29.3439 44.7471 29.936L44.741 30.0612L44.6276 30.0283L44.7011 30.3463C44.8965 30.4053 45.0143 30.4258 45.18 30.5482L45.1458 30.65C44.8439 30.5572 44.5313 30.4691 44.2431 30.3418C42.4073 30.8492 41.3358 31.8156 40.3231 33.3618C40.1546 33.0665 40.3654 32.9761 40.5264 32.6988C40.1581 32.4405 39.4852 32.7619 38.825 32.5595C38.0601 31.69 39.0409 31.7236 38.9738 30.9836C38.8535 30.9331 38.799 30.9105 38.6832 30.8444C38.7206 30.2687 39.1193 30.4539 38.8892 29.8342C38.582 29.567 38.5599 29.7975 38.3292 29.7215C37.7188 29.5205 37.4853 28.4256 36.7258 28.3772L36.3975 28.6933C36.1204 28.6465 36.1529 28.4691 35.8827 28.204L35.6497 28.5496L35.5339 28.5039L35.5058 28.3345C35.2686 28.2263 35.2406 28.6458 34.6982 28.7126C34.4004 28.5582 34.3315 28.4489 34.3528 28.1347L34.2261 28.0442C33.1476 28.1828 33.1441 27.5812 32.2307 27.499C32.0861 27.682 32.0547 27.7381 31.8498 27.8445L31.6636 27.7825C31.5031 27.5946 31.4618 27.5312 31.2378 27.4161C30.9648 27.4912 31.0058 27.5275 30.7848 27.7831L30.6708 27.7566L30.6485 27.6162C30.3412 27.657 30.3474 27.8427 30.083 27.9183C30.0162 27.9374 30.0052 27.7544 29.6828 27.7755C29.6049 27.9947 29.5834 28.0813 29.452 28.2799C29.2598 28.3168 29.1224 28.3278 28.927 28.3429C28.9049 28.3762 28.7866 28.553 28.7833 28.5664C28.6779 29.0015 27.9775 29.231 27.6734 29.5487C27.6009 29.6322 27.4158 29.9481 27.3224 29.9833C26.8163 30.1743 26.3142 30.1619 25.7936 30.2732C25.7391 30.285 25.2677 30.8728 25.2135 30.9479C25.2099 30.9529 24.5238 30.9877 24.46 30.9955C23.5913 31.5913 22.6606 32.1259 21.7574 32.6607C21.6209 32.7584 21.179 33.0034 21.0986 33.1398C20.4857 34.1793 20.4137 34.4406 19.0538 34.0267C18.4447 33.4799 18.0265 30.3056 18.4693 29.5427C18.2141 28.9098 17.7919 26.8819 17.1501 26.7499C16.6157 27.8813 14.8729 28.395 14.8804 26.9038C14.8843 26.1398 15.869 24.1447 16.4429 23.5704C16.9425 23.0705 17.1741 23.732 17.4192 23.6607C18.6331 23.3078 19.2778 22.2171 19.7636 21.129C20.1935 20.166 20.879 20.6398 21.5806 19.9497C21.6058 19.9644 21.9817 20.1854 21.9782 20.1856C22.4909 20.1491 23.2682 19.7416 23.7079 20.034C24.2971 20.4258 24.3853 20.3794 24.951 20.0912C25.4432 20.1923 26.2838 20.2882 26.817 20.349C26.819 20.3492 27.1471 20.1901 27.1867 20.1708C27.2633 20.4728 26.9223 20.7873 27.0012 21.1218C27.2236 21.1127 27.623 20.805 27.8339 20.6647C27.9501 20.6938 28.0211 20.7529 28.1206 20.8193C28.2306 20.6656 28.265 20.6302 28.4016 20.4986C28.7686 20.4991 28.3976 20.5429 28.7107 20.731L28.778 20.5476C28.3696 19.8649 27.5076 20.0582 27.1765 19.9092C27.0975 19.2998 27.0582 19.4094 26.475 19.2562C26.4167 19.3707 26.4129 19.3728 26.3276 19.4695L26.2139 19.3616L26.0875 19.4286C25.9105 18.7941 26.5972 18.5857 25.8781 17.9025C25.7794 17.8088 25.8772 16.8304 25.8684 16.6571C25.855 16.3955 25.5835 15.5307 25.4349 15.301C25.2722 15.4757 25.3271 15.4716 25.1371 15.5071L25.0854 15.2859C24.8207 15.1104 24.4423 15.1983 24.3394 15.5588C24.2468 15.3827 24.0494 15.1946 23.9085 15.0442C24.3248 14.1951 28.1884 13.3295 29.1718 13.1005C30.6393 12.7589 35.6605 12.7551 36.8792 13.5832C36.969 13.78 36.8969 14.3264 36.8796 14.5743L37.6823 13.7814C38.4953 13.8874 39.3206 14.0554 40.1277 14.2081C39.575 13.8099 38.6358 13.4648 37.9688 13.1427C38.5545 11.9331 40.2885 10.1363 41.3237 9.23386Z" fill="#9476B9"/>
<path d="M41.3237 9.23386C42.6187 7.98481 43.3787 8.0199 44.3388 7.26953C45.4489 8.88904 46.3477 10.3148 46.5912 12.3284C46.5895 12.9417 46.6171 13.8863 46.505 14.459C46.3506 11.8753 46.5055 11.3094 45.1254 8.82974C44.6373 8.518 44.0009 8.25643 43.6491 7.83313C43.1156 8.13348 41.6598 9.18537 41.3237 9.23386Z" fill="#713F9C"/>
<path d="M39.6599 34.082C40.0595 32.8957 40.1783 32.8419 41.0638 31.9903C43.0047 30.1236 46.6992 31.2426 47.6955 33.6267C47.3785 33.9597 47.235 34.0717 46.8613 34.3432C45.5888 33.5159 44.4453 32.9463 42.9385 33.0041C42.6308 33.2067 42.2642 33.4188 42.0324 33.6976C41.2185 34.3269 41.0607 35.0295 40.5291 35.4856L40.2885 35.2966C39.9635 34.8548 39.8565 34.5809 39.6599 34.082Z" fill="#000004"/>
<path d="M34.9339 36.2618L34.8916 36.0857C35.0747 35.9332 35.2625 35.9367 35.506 35.903C35.4158 35.7613 35.3681 35.7324 35.2385 35.622C35.5324 34.7988 37.0934 34.8451 37.7771 35.0226C38.0098 35.0829 38.2166 35.5997 38.3407 35.7853C38.6271 36.0976 38.7561 35.9821 38.9875 36.4541C39.149 36.7832 39.1542 37.1527 39.2539 37.4001L39.2214 37.4348C39.6132 37.5926 39.6071 37.5247 39.8419 37.8148L39.8423 38.0861C38.5154 39.3483 38.9625 39.5066 38.2874 40.3581C38.0349 40.1426 37.7617 39.7614 37.5162 39.5019C37.0045 38.9609 36.4109 38.7358 35.7615 38.3911C35.4952 38.6544 35.2277 38.9148 34.9146 39.1227C34.4104 39.4574 34.1964 39.4295 33.9348 39.998C33.7128 40.2336 33.7174 40.5737 33.4258 40.7301C32.955 40.647 31.9335 39.2309 31.6162 38.8155C31.6162 38.8155 31.6248 38.4435 31.6259 38.3962C32.1225 38.1657 32.1026 38.3039 32.5221 38.5811C33.5094 39.2336 34.6321 38.811 35.2476 37.8692C35.7503 37.1 34.8149 37.0536 34.6906 36.6027C34.7735 36.4903 34.8546 36.3767 34.9339 36.2618Z" fill="#000004"/>
<path d="M34.9341 36.2618L34.8918 36.0857C35.0749 35.9332 35.2628 35.9367 35.5063 35.903C35.4161 35.7613 35.3684 35.7324 35.2388 35.622C35.5327 34.7988 37.0937 34.8451 37.7774 35.0226C38.0101 35.0829 38.2169 35.5997 38.3409 35.7853C38.6274 36.0976 38.7564 35.9821 38.9878 36.4541C39.1493 36.7832 39.1544 37.1527 39.2542 37.4001L39.2217 37.4348C38.8191 37.5901 38.1091 38.4112 37.4036 38.4081C36.8131 38.4055 36.1034 37.6062 35.7173 37.2021C35.9743 36.9997 36.2686 36.8047 36.4124 36.5158C36.421 36.2103 36.463 36.3201 36.2608 36.1036C35.7745 35.9541 35.4001 36.0892 34.9341 36.2618Z" fill="#9476B9"/>
<path d="M25.348 36.6515C26.8548 36.5937 27.9983 37.1633 29.2708 37.9906C29.6445 37.7191 29.788 37.6071 30.105 37.2741L30.2213 37.2036C30.2561 37.6236 29.2513 37.8675 30.728 38.2521C30.9614 38.3129 31.2521 38.4057 31.4926 38.4681L31.4574 38.4373C31.5303 38.4123 31.581 38.377 31.6262 38.3974C31.6251 38.4446 31.6164 38.8167 31.6164 38.8167C31.9337 39.232 32.9552 40.6482 33.426 40.7312C33.7176 40.5748 33.713 40.2347 33.9351 39.9991L34.0627 40.1646C33.9926 40.3091 33.9591 40.3914 33.9076 40.5436C34.0472 40.7291 34.5296 40.9328 34.5197 40.9942C34.4512 41.4201 34.3407 42.1065 33.851 42.2276C33.0973 41.9407 33.2279 41.8932 32.4287 41.9239C31.7496 41.6662 31.2641 41.62 30.5579 41.5639L30.4886 41.4856C30.7029 41.3156 30.7872 41.5348 31.0379 41.413C30.6785 41.0762 30.3242 40.2962 29.9159 40.001C29.2572 39.5248 28.1123 39.5452 27.333 39.2704C26.8227 39.0905 26.4348 38.8329 25.9842 38.5563L25.9364 38.3291C25.5404 38.2481 25.1673 38.0743 25.2011 37.6066L25.4273 37.4538C25.3962 37.2414 25.4409 37.3197 25.2486 37.175C24.8793 37.2246 24.8127 37.2728 24.4917 37.4715L24.4419 37.345C24.6737 37.0662 25.0403 36.8541 25.348 36.6515Z" fill="#9476B9"/>
<path d="M22.0693 37.7285C22.4689 36.5422 22.5877 36.4884 23.4733 35.6368C25.4141 33.7701 29.1086 34.8891 30.1049 37.2732C29.7879 37.6061 29.6444 37.7182 29.2707 37.9897C27.9983 37.1624 26.8547 36.5928 25.3479 36.6506C25.0402 36.8532 24.6736 37.0653 24.4418 37.3441C23.628 37.9734 23.4702 38.676 22.9385 39.1321L22.6979 38.9431C22.373 38.5012 22.2659 38.2274 22.0693 37.7285Z" fill="#000004"/>
<path d="M46.6111 36.1627C46.8944 35.901 46.8651 35.7391 47.0322 35.4671C47.3618 34.9308 48.9143 35.1723 49.4096 35.2907C49.693 35.5419 50.6051 36.5302 50.6475 36.837C50.4947 37.2875 49.8824 37.6546 49.4653 37.8574C48.8782 38.1475 48.197 38.1806 47.5847 37.9486C46.9579 37.7157 46.8129 37.5042 46.4942 36.9812L46.4702 36.9411C46.4829 36.5709 46.4845 36.5083 46.6111 36.1627Z" fill="#C96EA5"/>
<path d="M20.3374 39.2516C21.6223 39.1654 22.5768 39.0895 22.9888 40.5175C22.978 40.5651 22.9805 40.5612 22.9575 40.6254C22.7935 41.0837 22.4537 41.4579 22.0132 41.6652C19.826 42.6909 17.9938 40.2232 20.3374 39.2516Z" fill="#C96EA5"/>
<path d="M47.4539 34.497L47.6085 34.4893L47.4682 34.7435C48.905 35.0714 49.7323 35.0255 50.7618 36.3629C51.2855 37.0431 50.1081 38.1232 49.5655 38.3873C48.5407 38.8029 46.5276 38.2295 46.4704 36.9411L46.4943 36.9812C46.8131 37.5042 46.9581 37.7157 47.5848 37.9486C48.1972 38.1806 48.8784 38.1475 49.4654 37.8573C49.8825 37.6546 50.4949 37.2875 50.6477 36.8369C50.6052 36.5301 49.6931 35.5419 49.4097 35.2907C48.9145 35.1723 47.362 34.9308 47.0324 35.4671C46.8653 35.7391 46.8946 35.901 46.6113 36.1627C46.3702 35.8199 46.3406 35.7912 46.4254 35.405C47.0448 35.1549 47.0753 35.0494 47.4539 34.497Z" fill="#9476B9"/>
<path d="M42.4375 40.8389C43.813 40.8534 44.3279 41.3216 45.2603 42.1879C45.2045 42.3565 45.1739 42.464 45.1369 42.6375C43.7216 41.5847 42.9823 41.3659 41.2473 41.2502C41.4339 41.1851 41.6468 41.1499 41.7496 41.0185C41.5332 41.0089 41.3167 41.001 41.1001 40.9949C41.4398 40.8473 41.8755 41.0797 42.4375 40.8389Z" fill="#67061D"/>
<path d="M39.8424 38.0859C40.0368 38.5209 40.382 38.8606 40.7806 39.1084C40.5752 39.3885 39.2168 39.6926 38.8581 39.8775C38.6111 40.0047 38.6806 40.2907 38.3708 40.4424L38.2632 40.4177L38.2875 40.358C38.9626 39.5064 38.5155 39.3481 39.8424 38.0859Z" fill="#9476B9"/>
<path d="M27.2385 42.5192C28.0123 42.0264 29.4608 41.5836 30.413 41.5693C29.9052 41.7838 30.048 41.7097 29.7221 42.2463C28.6754 42.4314 28.1882 42.5559 27.2963 43.1936C27.1385 43.3064 26.652 43.6701 26.4985 43.749C26.6237 43.4907 27.065 42.8212 27.2385 42.5192Z" fill="#67061D"/>
<path d="M39.4765 40.9473C40.2852 40.7267 41.6056 40.7081 42.4373 40.8382C41.8753 41.079 41.4396 40.8467 41.0999 40.9943C41.3165 41.0004 41.533 41.0083 41.7494 41.0179C41.6465 41.1493 41.4336 41.1845 41.2471 41.2496C40.8046 41.2992 40.2146 41.3456 39.7967 41.4609L39.3237 41.5129C39.5327 41.2844 39.6902 41.2067 39.4765 40.9473Z" fill="#590007"/>
<path d="M25.533 44.0174C26.0525 43.2853 26.4359 42.917 27.2388 42.5195C27.0653 42.8215 26.624 43.491 26.4988 43.7493C26.0916 44.0584 25.9172 44.2913 25.7134 44.7645C25.6874 44.4671 25.6948 44.2678 25.533 44.0174Z" fill="#5E1F42"/>
<path d="M20.3374 39.2501C21.3742 38.8183 21.2108 38.9478 22.3553 39.1612C22.3788 39.0883 22.3836 39.0335 22.3722 38.9578L22.6978 38.9424L22.9384 39.1314C23.0122 39.3117 22.9646 40.1666 22.9889 40.516C22.5769 39.088 21.6223 39.1639 20.3374 39.2501Z" fill="#9476B9"/>
<path d="M20.8803 16.2667C20.7702 16.1212 20.8021 16.2018 20.7886 16.0141C21.2794 15.3463 21.6523 15.0595 22.4124 14.7207L22.5155 14.8651C22.0463 15.2825 21.0902 15.8478 20.8803 16.2667Z" fill="#9476B9"/>
<path d="M46.7158 33.3952L46.8479 33.3662C47.0795 33.5361 47.5137 33.8276 47.6737 34.0407C47.6783 34.2466 47.6976 34.3122 47.6085 34.4894L47.454 34.4971C47.4204 34.0595 47.0199 33.7348 46.7158 33.3952Z" fill="#9476B9"/>
<path d="M45.2601 42.1875L45.8059 42.6884L45.6465 43.1726C45.4831 42.9854 45.3108 42.8142 45.1367 42.6371C45.1737 42.4636 45.2043 42.3561 45.2601 42.1875Z" fill="#1A0003"/>
<path d="M21.7484 35.9326L21.9 36.0231C21.9427 36.1975 21.9561 36.1201 21.8791 36.2648L21.8033 36.3166L21.6838 36.2855C21.6483 36.0851 21.6575 36.15 21.7484 35.9326Z" fill="#9476B9"/>
<path d="M3.36122 19.0723C3.6779 19.5498 3.68578 19.3132 3.82741 19.5661C3.36817 21.064 2.76035 22.5466 2.33831 24.0304C0.841167 29.2932 0.479257 34.7398 1.68828 40.1036C1.99239 41.4527 2.74813 45.1058 3.62815 46.0359C3.9352 45.9021 3.74306 45.8274 3.94592 45.6213L4.21478 45.341C4.58364 45.6676 4.74353 45.9316 5.15854 45.9483L5.22061 46.1044L6.39353 46.3276L6.77973 46.3859L6.40182 46.4917C6.30441 46.6779 6.31672 46.5988 6.32426 46.8036C6.54052 46.9239 6.79237 47.0562 6.99665 47.1889C7.08736 47.4276 7.3723 48.004 7.55715 48.1398L7.75775 48.0169L8.10743 48.2204C8.26841 48.4308 8.37578 48.6644 8.48274 48.9059C8.89281 49.8322 9.55649 50.6091 10.0895 51.4505C10.7132 52.1995 12.8751 54.7116 13.6027 55.2824L13.7044 55.2757C14.2903 55.6663 14.7236 56.0153 15.1669 56.5672C15.5822 56.7405 18.6682 56.9375 19.31 56.9907C23.426 57.3314 28.9469 57.5881 32.9547 57.6424C35.4605 57.6764 50.8467 57.1584 51.7336 56.3889L51.9592 56.4542C52.4713 56.7312 55.6674 56.3791 56.3135 56.177C58.3009 54.3246 59.8461 51.9901 61.2745 49.6831C65.5474 42.7824 66.4799 34.0994 65.0493 26.2183C64.754 24.591 63.9675 22.8695 63.5713 21.2219C63.7131 21.0745 63.7292 21.0384 63.9163 20.9766C64.0474 21.1664 64.0913 21.2204 64.3041 21.3122C64.9214 22.1165 65.3037 24.2656 65.5729 25.32C67.7635 33.9004 66.0625 43.8373 61.2935 51.2711C60.8987 51.8865 60.4552 52.3795 60.0786 53.0386C61.2698 52.8421 64.1661 52.1688 65.1838 52.3613C66.7933 52.6656 63.892 58.2521 63.6396 59.0505C64.1636 60.5063 65.2566 62.2469 65.6521 63.7356C66.0963 65.4078 61.4055 65.5898 60.2574 65.7414C60.2681 66.3225 60.3917 67.1639 59.9852 67.6416C58.8902 68.9285 48.9456 69.4331 46.7597 69.5845C42.4497 69.8723 38.1311 70.0106 33.8114 69.9991C30.0721 69.9852 7.33938 69.1536 5.67348 67.6286C5.16332 67.1616 5.27161 66.2789 5.25645 65.6533C4.324 65.618 0.176898 65.2551 0.015165 64.2635C-0.170271 63.1268 1.39605 60.1572 1.92145 59.0548C1.33206 57.7973 -0.0632301 54.5233 0.0118153 53.2307C0.0292366 52.931 0.120279 52.6223 0.363926 52.4281C0.99888 51.9222 5.36869 52.8415 6.31262 52.9872C6.05783 52.662 5.80531 52.3222 5.58553 51.9756C1.39831 45.3734 -0.461156 37.5122 0.408484 29.7389C0.74066 26.7698 1.38977 24.0935 2.4461 21.2851C2.72501 20.5434 3.08282 19.8241 3.36122 19.0723Z" fill="#CA5490"/>
<path d="M4.21438 45.3408C4.58324 45.6674 4.74313 45.9314 5.15814 45.9481L5.22021 46.1042L6.39313 46.3274L6.77932 46.3857L6.40142 46.4915C6.30401 46.6777 6.31632 46.5986 6.32386 46.8034C6.54012 46.9237 6.79197 47.056 6.99625 47.1886C7.08696 47.4274 7.3719 48.0038 7.55675 48.1396L7.75734 48.0167L8.10703 48.2202C8.26801 48.4306 8.37538 48.6642 8.48234 48.9057C8.89241 49.832 9.55609 50.6089 10.0891 51.4503C10.7128 52.1993 12.8747 54.7114 13.6023 55.2822L13.704 55.2755C14.2899 55.6661 14.7232 56.0151 15.1665 56.567C14.0668 56.737 11.173 56.3178 9.97613 56.1072C7.57115 53.8803 5.59719 50.8982 4.31715 47.8836C4.19989 47.6074 3.91252 47.0113 3.91905 46.7555L4.08766 46.6715L4.02953 46.643C3.93304 46.4131 3.94745 45.8823 3.94552 45.6211L4.21438 45.3408Z" fill="#E68EB4"/>
<path d="M4.21441 45.3408C4.58328 45.6674 4.74317 45.9314 5.15818 45.9481L5.22024 46.1042L6.39316 46.3274L6.77936 46.3857L6.40145 46.4915C6.30404 46.6777 6.31636 46.5986 6.3239 46.8034C5.55811 46.7262 4.85414 46.7 4.08769 46.6715L4.02956 46.643C3.93308 46.4131 3.94748 45.8823 3.94556 45.6211L4.21441 45.3408Z" fill="#5E1F42"/>
<path d="M4.21441 45.3408C4.58328 45.6674 4.74317 45.9314 5.15818 45.9481L5.22024 46.1042C4.76126 46.2558 4.39742 46.0493 4.11165 46.2227C4.02688 46.4142 4.03233 46.4292 4.02956 46.643C3.93308 46.4131 3.94748 45.8823 3.94556 45.6211L4.21441 45.3408Z" fill="#5E1D47"/>
<path d="M10.0891 51.4502C10.7128 52.1991 12.8747 54.7112 13.6023 55.282C13.4909 55.35 13.4632 55.3432 13.3351 55.3601C12.5247 54.8782 10.4865 52.4723 9.84521 51.6524L10.0891 51.4502Z" fill="#C96EA5"/>
<path d="M7.55688 48.1396L7.75748 48.0166L8.10716 48.2201C8.26814 48.4305 8.37552 48.6641 8.48247 48.9057C8.89254 49.8319 9.55622 50.6089 10.0892 51.4503L9.84535 51.6525C9.01801 50.5248 8.25399 49.352 7.55688 48.1396Z" fill="#CD5287"/>
<path d="M25.403 61.2912C26.3388 61.217 27.4809 61.1842 28.2812 61.7267C28.7954 62.0797 29.1466 62.624 29.2563 63.2379C29.4144 64.1531 29.0545 64.9431 28.5432 65.6701C27.776 66.3006 26.3014 66.0924 25.3159 66.0368C25.2426 65.2944 25.1922 61.9197 25.403 61.2912Z" fill="white"/>
<path d="M26.43 62.3926L27.2917 62.4459C28.399 63.1449 28.7111 63.957 27.6016 64.8933C27.0867 65.26 26.8789 65.1756 26.2561 65.1049C26.296 64.5293 26.2268 62.7726 26.43 62.3926Z" fill="#CD5287"/>
<path d="M44.3347 61.2246L44.4652 61.2169C45.4067 61.1628 46.7074 61.0304 47.4404 61.72C48.2989 62.5276 47.4238 63.6267 46.8235 64.2557C47.2857 64.6286 48.0249 65.2174 47.7043 65.8524C47.4882 66.0352 47.1523 66.0025 46.857 66.0097C46.3685 65.5692 45.9798 64.4802 45.4842 64.4236C45.1714 64.9488 45.6746 65.5746 45.0088 65.9918C44.7725 66.0158 44.6317 66.055 44.4273 65.928C44.172 65.4455 44.308 62.0272 44.3347 61.2246Z" fill="white"/>
<path d="M45.6242 62.0791C46.1226 62.1182 46.4007 62.2837 46.5342 62.7707C46.4958 63.0827 46.3932 63.1459 46.1675 63.3667C45.7441 63.4016 45.8034 63.4559 45.4573 63.3009C45.1339 62.8787 45.274 62.4292 45.6242 62.0791Z" fill="#CD5287"/>
<path d="M20.7157 61.1899C21.6441 61.1247 21.7899 61.3627 22.2603 62.1713C22.64 62.824 22.9886 63.3352 23.4408 63.9355C23.4758 63.3262 23.074 60.6023 24.4616 61.3287C24.7115 61.8778 24.5328 65.3546 24.3431 66.0365C24.2384 66.0386 23.8589 66.0326 23.7731 65.9978C23.0122 65.6897 22.1076 63.8625 21.7108 63.172C21.6501 63.9883 21.9529 65.526 21.1779 65.8831C20.8495 65.8603 20.9286 65.9086 20.6744 65.7396C20.3976 65.1078 20.6658 62.0023 20.7157 61.1899Z" fill="white"/>
<path d="M34.6232 61.3623C34.857 61.3695 35.0277 61.3521 35.2261 61.4806C35.3209 61.9566 35.3782 65.7077 35.2331 66.0325C35.0271 66.173 34.9106 66.1757 34.6702 66.2139C33.9615 65.9803 34.1653 65.0502 34.1747 64.3935L32.5901 64.3897C32.5987 64.7868 32.6587 65.558 32.5023 65.9088C32.3879 66.1654 32.2209 66.1521 31.958 66.225C31.8318 66.1933 31.5239 66.1212 31.518 65.9842C31.4821 65.1382 31.3147 62.2129 31.5849 61.5326C31.8078 61.3921 32.0385 61.4363 32.3014 61.4536C32.6702 61.7994 32.5701 62.698 32.59 63.2824L34.1615 63.2868C34.1798 62.8103 34.1852 62.1314 34.2882 61.6647C34.3342 61.4559 34.4283 61.4586 34.6232 61.3623Z" fill="white"/>
<path d="M41.5315 61.1699C41.6044 61.19 41.8651 61.2692 41.9113 61.302C42.4906 61.7138 43.9318 65.6413 43.693 66.0181C42.9065 66.2885 42.8934 65.8244 42.4818 65.2913C42.3333 65.099 42.0069 65.1323 41.7785 65.1159L40.8343 65.2329C40.64 65.747 40.3827 66.3894 39.6528 66.032C39.4411 65.4318 40.8128 61.5482 41.5315 61.1699Z" fill="white"/>
<path d="M41.6504 62.9883C42.0267 63.3103 42.108 64.1015 41.6914 64.4731C41.3918 64.3455 41.4666 64.4246 41.3312 64.1934C41.2846 63.7918 41.4981 63.3735 41.6504 62.9883Z" fill="#E76485"/>
<path d="M14.6149 60.5059C14.8933 60.5539 15.3065 60.6776 15.59 60.7531C15.6381 61.3618 15.6475 62.0615 15.6696 62.6784C16.3479 61.9901 16.8222 60.6575 18.0072 60.8994C18.217 61.0694 18.1693 60.9794 18.1959 61.2305C17.9788 61.8759 17.1614 62.5414 16.6425 63.0233C17.0598 63.601 17.4669 64.1052 17.9178 64.6579C18.0664 64.8331 18.0924 64.9245 18.1813 65.1319C18.1469 65.4731 18.2021 65.3496 17.9791 65.6003C17.0171 65.9431 16.2107 64.1577 15.7742 63.4678C15.6319 64.1158 15.7726 64.9943 15.2193 65.3555C14.9542 65.3532 14.82 65.3756 14.6009 65.2178C14.3509 64.6828 14.5415 61.2229 14.6149 60.5059Z" fill="white"/>
<path d="M36.3748 61.3841C37.1199 61.3262 38.6297 61.0885 39.118 61.6895C39.3261 62.786 37.7645 62.2448 37.2046 62.5007C37.0518 62.7067 37.0138 62.7417 37.0144 62.9941C37.4093 63.4937 38.3592 63.0196 38.6449 63.4826C38.7454 64.5957 38.1409 64.1396 37.3186 64.3881C37.1008 64.6442 37.169 64.6757 37.1367 65.0867C37.6456 65.4806 38.9151 64.7961 39.1145 65.6154C39.0426 65.8723 39.0263 66.0915 38.7017 66.1193C37.8738 66.1899 36.938 66.1397 36.111 66.1205C35.9332 65.054 36.031 62.9024 36.1203 61.7721C36.1405 61.5167 36.211 61.4987 36.3748 61.3841Z" fill="white"/>
<path d="M49.5919 60.982C50.0925 60.9385 51.4647 60.7554 51.6169 61.4169C51.375 61.7913 50.8449 61.8219 50.4369 61.8882C50.4474 62.8138 50.5155 64.6842 50.4239 65.5306C50.2344 65.7604 50.1458 65.7193 49.7977 65.8178L49.5964 65.724C49.3464 65.3921 49.3703 62.6963 49.3487 62.0366C48.8289 62.0422 48.1884 62.2162 47.9136 61.7655C47.9241 61.4903 47.9179 61.4322 48.0891 61.2009C48.4386 60.9757 49.1316 61.0089 49.5919 60.982Z" fill="white"/>
<path d="M18.8562 61.084L19.923 61.1228C19.9107 62.2066 19.9354 64.839 19.731 65.7469C19.3977 65.7978 19.0525 65.9037 18.7986 65.6535C18.5528 64.9158 18.7873 62.0146 18.8562 61.084Z" fill="white"/>
<path d="M13.5811 6.34402C19.3611 2.21527 25.3889 0.00259831 32.574 1.87162e-06C36.5696 -0.00142198 43.7063 0.80942 47.1358 2.92233C47.5884 1.87254 48.0294 1.23239 49.142 0.811766C51.5521 -0.0995003 53.7545 1.6371 54.1593 3.95563C55.3082 3.54992 56.3246 3.18583 57.4798 3.77815C59.9651 5.05259 59.5311 8.08942 57.521 9.54635C58.2586 10.0539 60.0065 11.9739 60.5521 12.7502C61.2111 12.4165 61.5833 12.2254 62.2875 12.0091C63.3512 12.1987 64.2809 12.3749 64.9111 13.362C65.6851 14.5746 66.0403 16.3546 65.7345 17.7521C65.4408 19.0945 65.2398 19.8526 64.164 20.7194C64.0649 20.7993 64.2591 21.1997 64.3036 21.3119C64.0908 21.22 64.047 21.1661 63.9158 20.9763C63.7287 21.038 63.7126 21.0742 63.5708 21.2215C62.71 21.6452 62.154 21.902 61.2215 22.2181C61 22.2911 60.7776 22.3617 60.5546 22.4299C59.585 23.0257 59.0579 23.0634 58.0264 23.4773C57.2158 23.8027 56.398 24.4781 55.7009 25.0188C54.205 23.6654 53.6456 21.7796 52.8155 19.9747C52.1817 18.5965 52.8094 17.5658 54.0347 16.8335C54.4974 16.5557 55.0855 16.8078 55.5828 16.9385C54.9496 14.4712 54.6884 15.3517 55.5008 12.8256C55.4884 12.6108 55.4978 12.5871 55.6112 12.4036C55.3158 12.0433 54.8672 11.5843 54.5408 11.2322L54.184 11.4041C53.2262 11.7586 52.3901 12.0912 51.3714 12.1973C49.5723 11.05 49.0879 9.03402 47.6073 7.67759C46.9172 7.04523 45.6441 7.17178 45.2898 6.00891C45.0909 5.98965 44.7869 5.84894 44.5904 5.77021C44.4073 5.9337 44.3835 6.00632 44.164 6.05506C42.8393 5.73361 41.5265 5.36491 40.2281 4.94974L40.1133 5.02419C39.6271 4.87703 39.5871 4.73306 39.2994 5.17537L39.2509 5.11532C39.2936 5.00434 39.3246 4.89161 39.359 4.77762C38.83 4.4699 33.7128 4.33312 32.7344 4.15179L32.4968 4.27206C31.1675 4.09794 27.2897 4.53514 25.9428 4.88265C22.5136 5.76745 18.9138 7.38335 16.0741 9.49811C16.0124 9.54401 15.9416 9.61562 15.8901 9.67006C15.7018 9.67685 15.5043 9.57324 15.3226 9.49937C14.5543 9.60976 14.2268 10.2289 13.8747 10.8818C13.6658 11.527 13.2983 12.7927 13.208 13.4774C12.6844 17.4327 12.17 21.2888 13.0513 25.2831C11.7041 29.2521 11.1999 31.6059 11.7029 35.8803C10.2242 35.6191 9.67236 35.4684 8.46267 34.5585L7.85595 35.4504C6.9946 34.9051 4.72431 33.0915 4.15652 32.8911C4.19229 33.3599 4.19195 33.7643 4.19153 34.2321C4.23953 35.4566 4.66718 40.2646 5.47962 40.9974C5.25666 41.5253 5.0827 41.9323 5.00154 42.5072L5.16955 42.6794L5.36839 42.913C5.38841 43.2351 5.63147 43.2721 5.71372 43.5045C5.62837 43.8769 5.58725 43.7951 5.71983 44.088L5.51915 44.3085C5.15305 44.7975 5.06737 45.3466 5.15808 45.9479C4.74307 45.9313 4.58318 45.6673 4.21432 45.3407L3.94546 45.6209C3.7426 45.8271 3.93474 45.9018 3.62769 46.0356C2.74766 45.1054 1.99193 41.4524 1.68781 40.1033C0.478793 34.7395 0.840703 29.2929 2.33784 24.03C2.75989 22.5462 3.36771 21.0637 3.82694 19.5658C3.68531 19.3129 3.67744 19.5494 3.36076 19.0719C4.96016 15.0342 9.84423 8.62051 13.5811 6.34402Z" fill="#EDAAC5"/>
<path d="M13.5812 6.34402C19.3612 2.21527 25.3889 0.00259831 32.574 1.87162e-06C36.5697 -0.00142198 43.7064 0.80942 47.1359 2.92233C47.5885 1.87254 48.0295 1.23239 49.1421 0.811766C51.5522 -0.0995003 53.7546 1.6371 54.1594 3.95563C55.3083 3.54992 56.3247 3.18583 57.4798 3.77815C59.9652 5.05259 59.5312 8.08942 57.521 9.54635C58.2587 10.0539 60.0066 11.9739 60.5522 12.7502C61.2112 12.4165 61.5834 12.2254 62.2876 12.0091C63.3513 12.1987 64.281 12.3749 64.9112 13.362C65.6852 14.5746 66.0404 16.3546 65.7346 17.7521C65.4409 19.0945 65.2398 19.8526 64.1641 20.7194C64.065 20.7993 64.2592 21.1997 64.3037 21.3119C64.0909 21.22 64.0471 21.1661 63.9159 20.9763C63.7288 21.038 63.7127 21.0742 63.5709 21.2215C62.7101 21.6452 62.1541 21.902 61.2216 22.2181C61.0001 22.2911 60.7777 22.3617 60.5547 22.4299C59.5851 23.0257 59.058 23.0634 58.0265 23.4773C57.2158 23.8027 56.3981 24.4781 55.701 25.0188C54.2051 23.6654 53.6457 21.7796 52.8156 19.9747C52.1818 18.5965 52.8095 17.5658 54.0348 16.8335C54.4975 16.5557 55.0856 16.8078 55.5828 16.9385C54.9497 14.4712 54.6885 15.3517 55.5009 12.8256C55.4885 12.6108 55.4979 12.5871 55.6113 12.4036C55.3159 12.0433 54.8673 11.5843 54.5409 11.2322L54.1841 11.4041C53.2263 11.7586 52.3902 12.0912 51.3715 12.1973C49.5724 11.05 49.088 9.03402 47.6074 7.67759C46.9173 7.04523 45.6442 7.17178 45.2899 6.00891C46.3853 6.36329 46.8565 6.5669 47.7851 7.24876C47.0699 5.66828 46.9762 5.31642 47.0494 3.61508C46.0445 3.12888 44.9328 2.87418 43.8803 2.51009C34.1135 -0.868968 22.4471 0.526157 14.168 6.92495C13.6023 7.07287 11.7533 8.71499 11.3059 9.22548C11.2696 9.11903 11.2343 9.07774 11.175 8.98267L10.8428 8.95294C10.9467 8.43215 13.2215 7.08535 13.5812 6.34402Z" fill="#CE5489"/>
<path d="M57.4868 10.6846C58.8368 11.9103 59.5513 12.7662 60.4 14.3363L60.8836 13.5011C62.06 12.8601 62.1423 12.7806 63.4528 12.8649C64.5271 14.0692 65.0787 15.6511 64.9862 17.2623C64.8188 19.8978 63.3988 20.4826 61.1822 21.3069C60.9172 21.1493 60.4171 19.7201 60.0451 19.3001C59.2949 18.4534 58.0803 18.8838 57.3387 19.5864C56.6249 17.5248 54.8569 14.9891 56.3798 12.7797L56.1127 12.6051C56.5985 12.0541 56.8578 11.7658 57.4766 11.3837C57.495 11.2976 57.5835 11.185 57.6368 11.1038L57.4868 10.6846Z" fill="#EF98B1"/>
<path d="M57.4769 11.3838C57.4186 12.0131 56.9266 12.5015 56.3801 12.7798L56.113 12.6052C56.5988 12.0542 56.8581 11.7659 57.4769 11.3838Z" fill="#E68EB4"/>
<path d="M57.2665 12.6582C58.3534 12.7747 58.8742 14.3861 58.7862 15.3526C57.9642 14.9191 57.1473 13.6088 57.2665 12.6582Z" fill="#F5C9D6"/>
<path d="M55.6115 12.4033C55.7847 12.4936 55.9212 12.585 56.113 12.6055L56.3801 12.7801C54.8571 14.9895 56.6252 17.5253 57.3389 19.5868C58.0806 18.8842 59.2951 18.4539 60.0453 19.3006C60.4174 19.7205 60.9175 21.1497 61.1824 21.3073C59.9988 22.2623 58.1631 22.4043 56.9718 23.3462C56.5984 23.6415 56.1939 23.8445 55.7572 24.0282C55.7166 23.9823 55.6766 23.9359 55.6372 23.889C55.0112 23.1429 53.3773 20.0424 53.2221 19.0035C53.1927 18.8068 53.9206 17.1338 54.0537 16.9937L54.0349 16.8333C54.4976 16.5554 55.0857 16.8076 55.583 16.9382C54.9498 14.4709 54.6886 15.3514 55.5011 12.8253C55.4887 12.6105 55.498 12.5868 55.6115 12.4033Z" fill="#E76485"/>
<path d="M57.0149 10.0068C57.1638 10.2439 57.3227 10.4582 57.4871 10.6843L57.637 11.1035C57.5837 11.1847 57.4953 11.2973 57.4768 11.3834C56.858 11.7655 56.5987 12.0538 56.113 12.6048C55.9211 12.5843 55.7846 12.4929 55.6114 12.4026C55.316 12.0423 54.8674 11.5833 54.541 11.2312C55.7073 10.8982 56.0996 10.8065 57.0149 10.0068Z" fill="#EF98B1"/>
<path d="M49.8833 1.4808C52.5528 1.28833 52.883 2.858 53.5571 5.04898C58.5774 2.27682 60.2644 7.35311 55.8428 9.56661C55.0267 10.0289 53.9643 10.4829 53.1062 10.7915C51.7809 11.1726 51.6037 11.1479 50.7129 10.2456C48.8439 8.3524 45.4902 2.73086 49.8833 1.4808Z" fill="#EF98B1"/>
<path d="M5.22257 26.5912C5.22199 26.5468 5.22232 26.5023 5.22366 26.4579C5.2977 23.1486 9.48132 15.645 12.1098 13.3471C12.3518 13.1354 12.4725 13.0155 12.81 13.0306C13.1693 13.2173 13.069 13.1027 13.2083 13.4763C12.6847 17.4316 12.1702 21.2877 13.0515 25.282C11.7044 29.2509 11.2002 31.6047 11.7031 35.8791C10.2245 35.618 9.67262 35.4672 8.46293 34.5574L7.8562 35.4492C6.99485 34.904 4.72456 33.0904 4.15678 32.89C4.19254 33.3588 4.1922 33.7631 4.19179 34.231C3.96573 33.3189 4.18341 30.5874 4.3005 29.574C4.87524 29.6257 5.46119 29.6663 6.02169 29.8052C6.77541 29.9919 6.96093 30.9774 7.58374 31.3028C7.99967 31.1953 8.12832 31.4031 8.46737 31.2248L8.54484 30.9527C8.00453 30.9385 7.63022 30.1683 7.22342 29.784C6.47489 29.077 4.01481 29.0647 3.75282 28.0583C3.75131 27.7712 3.92787 27.5425 4.07863 27.29L3.6792 27.0717C4.20393 26.3762 4.32278 27.0728 4.56266 25.8891C4.64348 26.2227 4.63268 26.5291 4.81326 26.7161C5.02265 26.71 5.04677 26.7044 5.22257 26.5912Z" fill="#E68EB4"/>
<path d="M6.21855 26.8169C6.58549 26.9066 6.53984 26.9532 6.85309 26.8552C7.47481 26.1849 7.12513 25.3467 7.75966 25.1738C8.26856 25.4103 8.41472 26.2256 8.76063 26.5886C9.03736 26.879 9.8379 27.1666 10.1637 27.4321C8.54697 28.1005 8.91391 29.474 8.54496 30.9522C8.00465 30.9381 7.63034 30.1679 7.22354 29.7836C6.47501 29.0765 4.01493 29.0643 3.75294 28.0579C3.75143 27.7708 3.92799 27.542 4.07875 27.2896C4.56211 26.6793 5.47756 26.8529 6.21855 26.8169Z" fill="#EF98B1"/>
<path d="M6.44189 26.5282C6.81193 26.132 6.69819 24.6344 7.5597 24.5674C8.50866 24.4936 9.66944 26.5046 10.2126 27.1607C10.4126 27.4811 10.433 27.4036 10.4111 27.7196C10.1455 28.0481 9.80479 28.2769 9.62312 28.6408C9.12469 29.6395 9.43944 32.0667 7.58374 31.304C7.99967 31.1965 8.12832 31.4043 8.46737 31.226L8.54484 30.9539C8.91379 29.4757 8.54685 28.1022 10.1636 27.4338C9.83778 27.1682 9.03724 26.8807 8.76051 26.5903C8.4146 26.2273 8.26845 25.4119 7.75954 25.1755C7.12501 25.3484 7.47469 26.1866 6.85297 26.8569C6.53972 26.9549 6.58537 26.9082 6.21843 26.8185C5.47744 26.8545 4.56199 26.6809 4.07863 27.2912L3.6792 27.0729C4.20393 26.3774 4.32278 27.074 4.56266 25.8903C4.64348 26.2239 4.63268 26.5303 4.81326 26.7173C5.02265 26.7112 5.04677 26.7056 5.22257 26.5924C5.77285 26.4951 5.8855 26.4879 6.44189 26.5282Z" fill="#E76485"/>
<path d="M4.5625 25.8893C4.61443 25.5498 4.98966 24.4796 5.09854 24.0854C5.96642 20.9429 7.31933 18.3883 9.18692 15.737C9.97666 14.6159 12.6433 11.0975 13.8748 10.8809C13.6659 11.5261 13.2983 12.7918 13.2081 13.4765C13.0689 13.1029 13.1692 13.2176 12.8099 13.0308C12.4723 13.0157 12.3516 13.1357 12.1096 13.3473C9.48116 15.6452 5.29754 23.1489 5.2235 26.4582C5.22216 26.5025 5.22183 26.547 5.22241 26.5914C5.04661 26.7046 5.02249 26.7103 4.8131 26.7164C4.63252 26.5293 4.64332 26.2229 4.5625 25.8893Z" fill="#CD5287"/>
<path d="M3.679 27.0723L4.07843 27.2906C3.92767 27.5431 3.75112 27.7718 3.75262 28.0589C4.01461 29.0653 6.4747 29.0776 7.22322 29.7846C7.63003 30.1689 8.00433 30.9391 8.54464 30.9533L8.46717 31.2254C8.12813 31.4036 7.99948 31.1958 7.58354 31.3034C6.96073 30.978 6.77521 29.9925 6.02149 29.8057C5.461 29.6669 4.87504 29.6262 4.3003 29.5746C4.18321 30.588 3.96553 33.3195 4.19159 34.2316C4.23958 35.456 4.66724 40.264 5.47967 40.9969C5.25671 41.5247 5.08275 41.9318 5.00159 42.5067C4.35324 42.2585 4.53013 41.1395 4.37853 40.5324C3.4506 36.8154 3.57246 33.0595 3.70949 29.2657C3.71334 29.1603 3.18844 28.2822 3.0835 28.0835L3.679 27.0723Z" fill="#C96EA5"/>
<path d="M3.36084 19.0707C4.96025 15.033 9.84431 8.61926 13.5812 6.34277C13.2215 7.0841 10.9467 8.4309 10.8428 8.95169L11.175 8.98143C11.2343 9.07649 11.2696 9.11778 11.3059 9.22423C11.7533 8.71374 13.6023 7.07162 14.168 6.9237C13.5594 7.65088 11.9574 8.56742 11.5278 9.18889C10.8867 9.76463 10.5024 10.116 9.93276 10.7791C8.48504 12.291 5.47258 16.262 4.6604 18.2488C4.2587 18.6666 4.09128 19.0519 3.82703 19.5645C3.68539 19.3116 3.67752 19.5482 3.36084 19.0707Z" fill="#E68EB4"/>
<path d="M32.1987 3.45202C32.5465 3.4599 32.7714 3.4083 33.0388 3.57154C33.0324 3.82315 32.8951 3.94585 32.7346 4.15197L32.497 4.27225C31.1677 4.09812 27.2899 4.53532 25.943 4.88283C22.5138 5.76763 18.914 7.38353 16.0743 9.49829C16.0127 9.54419 15.9418 9.6158 15.8903 9.67024C15.702 9.67703 15.5045 9.57342 15.3228 9.49955C15.7084 9.14283 16.1852 8.83695 16.6056 8.5196C21.0001 5.20303 26.688 3.62984 32.1987 3.45202Z" fill="#CD5287"/>
<path d="M32.1985 3.4509C32.473 3.2658 39.3064 4.15738 39.6226 4.37188C39.732 4.82282 39.7831 4.77776 40.2281 4.94879L40.1133 5.02325C39.6271 4.87609 39.5871 4.73212 39.2994 5.17443L39.2509 5.11438C39.2936 5.0034 39.3246 4.89066 39.359 4.77667C38.83 4.46895 33.7128 4.33218 32.7344 4.15085C32.8949 3.94472 33.0322 3.82202 33.0386 3.57042C32.7712 3.40718 32.5463 3.45877 32.1985 3.4509Z" fill="#EF98B1"/>
<path d="M9.93276 10.7803L10.1747 11.0517C8.82207 12.4108 7.26396 14.8289 6.16441 16.4613C6.04129 16.644 5.45198 17.6283 5.32626 17.6656C5.0301 17.7536 4.89106 18.0165 4.72498 18.2893L4.6604 18.25C5.47258 16.2632 8.48504 12.2922 9.93276 10.7803Z" fill="#F6E0EB"/>
<path d="M39.6228 4.37253C40.8526 4.06355 43.5004 5.23053 44.5905 5.76992C44.4075 5.93341 44.3837 6.00603 44.1641 6.05477C42.8395 5.73332 41.5267 5.36462 40.2283 4.94944C39.7833 4.77841 39.7322 4.82347 39.6228 4.37253Z" fill="#C96EA5"/>
<path d="M5.16959 42.6797L5.36843 42.9133C5.38845 43.2354 5.63151 43.2723 5.71376 43.5048C5.62841 43.8771 5.58729 43.7954 5.71987 44.0883L5.51919 44.3087C5.15309 44.7978 5.06741 45.3469 5.15812 45.9482C4.74311 45.9315 4.58322 45.6675 4.21436 45.341C4.3776 44.7571 4.90618 43.1925 5.16959 42.6797Z" fill="#5E1F42"/>
<path d="M11.5282 9.18945C11.5112 9.86763 10.7056 10.6485 10.1751 11.0511L9.93311 10.7796C10.5027 10.1165 10.887 9.76519 11.5282 9.18945Z" fill="#F5C9D6"/>
<path d="M61.2216 22.2183C62.1542 21.9021 62.7101 21.6453 63.571 21.2217C63.9672 22.8693 64.7537 24.5909 65.049 26.2181C66.4796 34.0992 65.547 42.7822 61.2742 49.6829C59.8457 51.9899 58.3006 54.3244 56.3132 56.1768C55.6671 56.3789 52.4709 56.731 51.9589 56.454L51.7333 56.3887C50.8464 57.1582 35.4602 57.6762 32.9543 57.6422C28.9466 57.5879 23.4257 57.3312 19.3096 56.9905C18.6679 56.9373 15.5819 56.7403 15.1666 56.567C14.7232 56.0151 14.29 55.6661 13.7041 55.2756C13.8311 54.7173 15.7491 53.2224 16.2156 52.6679C16.4748 52.3598 16.8203 51.953 17.093 51.6508C18.8881 52.1095 20.0787 53.5715 21.4846 53.2209C21.8224 53.6514 22.3935 54.4561 22.6611 54.9275C24.2159 55.6785 25.8982 56.59 27.6616 55.982C28.5412 55.6787 28.9165 55.2524 29.6545 54.8983C30.7856 55.201 31.5422 55.3973 32.4804 56.1332C32.6873 55.9572 32.9544 55.7108 33.1857 55.5873L33.2776 55.3253C34.04 55.5324 36.7714 56.4919 37.1667 56.465L37.3586 56.6367C39.2542 55.8451 40.5559 55.2736 42.2776 54.1176C42.749 54.4739 43.244 54.9227 43.819 55.0286C45.1081 55.2669 46.4389 54.9799 47.5152 54.2315C49.1601 53.1037 49.3302 52.524 49.6605 50.7507C51.6917 51.34 54.2936 47.5136 55.1764 47.5362C55.4518 47.7174 55.3755 47.6799 55.533 48.0197L55.5818 48.0283C55.6868 47.7368 55.8043 47.5051 55.7394 47.205L55.3804 47.1046L55.4226 47.0081C55.8853 46.8629 56.961 44.4977 57.561 43.9543C58.9269 42.7173 60.7125 41.3849 62.5945 41.1883C63.0908 41.1364 63.1802 41.2812 63.5616 40.8887C63.7809 40.1697 62.861 38.4526 62.5251 37.7136C62.3186 37.4367 62.2021 37.2868 62.046 36.9799L62.2511 36.7333C62.3945 35.6952 62.5072 31.4056 62.3676 30.3766C62.2749 29.3929 62.1101 28.3555 61.9922 27.3653C62.115 26.7479 61.8077 26.0073 61.9143 25.619C62.3499 25.947 62.061 26.9106 62.5999 27.4524C62.4452 26.3394 61.8503 24.3652 61.5254 23.2595C61.407 22.8984 61.3044 22.5927 61.2216 22.2183Z" fill="#EFB0C8"/>
<path d="M61.9922 27.3644C62.1149 26.747 61.8076 26.0065 61.9143 25.6182C62.3499 25.9462 62.061 26.9098 62.5999 27.4515C63.0729 30.0249 63.1222 33.2227 62.8346 35.7956C62.7718 36.3578 62.7319 37.2169 62.5251 37.7127C62.3186 37.4358 62.202 37.2859 62.046 36.979L62.251 36.7324C62.3945 35.6944 62.5072 31.4047 62.3675 30.3758C62.2749 29.392 62.1101 28.3546 61.9922 27.3644Z" fill="#CD5287"/>
<path d="M51.7334 56.388C52.3282 55.835 56.8592 51.0965 57.0538 50.9951L57.0828 51.0831C56.9073 51.3536 56.6576 51.6647 56.4251 51.8883C55.2819 52.9877 53.4239 56.0124 51.959 56.4533L51.7334 56.388Z" fill="#C96EA5"/>
<path d="M33.2774 55.3242C34.0399 55.5313 36.7712 56.4908 37.1666 56.4639L37.3584 56.6356C36.6721 56.9694 33.9162 55.845 33.1855 55.5862L33.2774 55.3242Z" fill="#67061D"/>
<path d="M60.1291 45.3369L60.2521 45.5207C60.0354 46.418 58.6496 49.1986 58.0032 49.7253L57.9463 49.6259C57.9919 49.4264 58.6843 48.3043 58.8301 48.0667C59.4005 47.1373 59.6886 46.2947 60.1291 45.3369Z" fill="#E68EB4"/>
<path d="M35.4876 44.0689C35.6791 43.9164 36.0652 43.358 36.2537 43.1402C37.2248 42.0181 38.0181 41.3061 39.4765 40.9473C39.6902 41.2067 39.5328 41.2844 39.3238 41.5129L39.7967 41.4609C40.2146 41.3455 40.8047 41.2992 41.2472 41.2495C42.9822 41.3653 43.7214 41.5841 45.1367 42.6369C45.3107 42.8139 45.483 42.9851 45.6464 43.1723C46.5349 44.6913 46.4339 46.381 46.0409 48.0456C44.2052 47.954 42.8243 48.7449 41.7018 50.1822C41.8995 50.3738 42.1332 50.5485 42.1695 50.814C42.1298 51.2419 41.7363 51.4572 41.5282 52.0543C41.1054 52.348 41.0676 52.0455 40.8413 52.2794L40.9976 52.3462C40.9677 52.3998 40.9302 52.4669 40.8852 52.5476C39.5744 53.0566 38.3444 54.0038 37.0808 54.4611C36.7261 54.5894 36.0297 54.6011 35.7575 54.5474C34.2227 54.2445 32.4488 53.5488 30.9971 52.9504C30.8033 52.8704 30.2856 52.4043 30.1331 52.2651C29.8838 51.8196 29.6603 51.9517 29.3676 51.5159C29.294 51.2323 29.4609 50.8367 29.5546 50.541C28.835 49.9758 28.6347 49.5834 27.7852 49.1245C26.1445 49.1052 24.9403 49.3993 25.1392 47.2969C25.2366 46.2667 25.3137 45.7407 25.7131 44.7642C25.9169 44.291 26.0913 44.058 26.4985 43.749C26.652 43.6701 27.1385 43.3064 27.2963 43.1936C28.1882 42.5559 28.6754 42.4313 29.7221 42.2463C30.048 41.7097 29.9052 41.7837 30.413 41.5693L30.5578 41.563C31.2639 41.6191 31.7495 41.6653 32.4286 41.923C33.9001 42.4962 34.4993 42.7956 35.4876 44.0689Z" fill="#E76485"/>
<path d="M35.4877 44.0689C35.6793 43.9164 36.0653 43.358 36.2538 43.1402C37.225 42.0181 38.0182 41.3061 39.4767 40.9473C39.6904 41.2067 39.5329 41.2844 39.3239 41.5129C38.6136 41.7749 38.2808 41.8983 37.646 42.3471L38.3352 42.637C37.7888 43.1076 37.4913 43.373 37.0164 43.9101C36.5624 44.2221 36.2588 44.2962 35.8994 44.5316C35.8578 44.7439 35.8543 44.7776 35.7175 44.9432C35.5158 44.8833 35.3733 44.5788 35.2319 44.3664C35.3118 44.2485 35.391 44.1714 35.4877 44.0689Z" fill="#000004"/>
<path d="M35.8994 44.5322C36.182 43.7677 36.9593 42.8167 37.6461 42.3477L38.3352 42.6375C37.7888 43.1082 37.4914 43.3736 37.0164 43.9106C36.5624 44.2227 36.2588 44.2967 35.8994 44.5322Z" fill="#F14C62"/>
<path d="M30.5578 41.5635C31.2639 41.6196 31.7495 41.6658 32.4286 41.9235C33.9001 42.4968 34.4993 42.7961 35.4876 44.0695C35.3909 44.1719 35.3117 44.249 35.2318 44.3669C35.1919 44.3216 35.1423 44.2645 35.0977 44.2257C33.045 42.4339 32.3002 42.2121 29.7222 42.2468C30.048 41.7102 29.9053 41.7843 30.413 41.5698L30.5578 41.5635Z" fill="#931528"/>
<path d="M38.5916 42.5014C39.0092 42.4177 39.6594 42.2624 40.0514 42.4335C39.8829 42.8816 37.9196 43.5497 37.4456 43.9247C37.317 44.0264 37.1474 43.9593 37.0161 43.91C37.4911 43.3729 37.7885 43.1075 38.3349 42.6369L38.5916 42.5014Z" fill="#F5C9D6"/>
<path d="M39.3239 41.5139L39.7969 41.4619L39.7345 41.514C39.3252 41.8495 38.8208 41.9412 38.6454 42.1458C38.7425 42.2316 38.7349 42.2034 38.8955 42.2144C38.7739 42.3701 38.7518 42.3832 38.5918 42.5025L38.3351 42.638L37.646 42.3481C38.2808 41.8994 38.6135 41.7759 39.3239 41.5139Z" fill="#E64967"/>
<path d="M29.268 43.0959C29.8777 43.0533 31.0569 43.1912 31.2906 43.8754C30.7114 44.5095 29.1611 44.9195 28.5316 45.6073L27.6269 46.3934C27.3999 46.0935 27.1738 45.6546 26.9868 45.318C27.0367 45.1641 27.089 45.0111 27.1436 44.8588C27.528 43.7972 28.2998 43.5489 29.268 43.0959Z" fill="#F5C9D6"/>
<path d="M41.1079 42.4844C41.4529 42.5255 41.89 42.5645 42.1346 42.8058C42.2689 43.1375 42.2323 43.0342 42.1772 43.4181C41.4594 43.4876 41.1857 43.159 41.1079 42.4844Z" fill="#EF98B1"/>
<path d="M44.5905 5.76953C44.787 5.84826 45.091 5.98897 45.2899 6.00824C45.6442 7.17111 46.9173 7.04455 47.6074 7.67691C49.088 9.03334 49.5724 11.0493 51.3715 12.1966C52.3902 12.0905 53.2263 11.7579 54.1841 11.4034L54.5409 11.2315C54.8673 11.5836 55.3159 12.0426 55.6113 12.4029C55.4979 12.5864 55.4886 12.6101 55.5009 12.8249C54.6885 15.351 54.9497 14.4705 55.5829 16.9378C55.0856 16.8072 54.4975 16.5551 54.0348 16.8329C52.8095 17.5652 52.1818 18.5959 52.8156 19.9741C53.6457 21.7789 54.2051 23.6647 55.701 25.0181C56.3981 24.4774 57.2159 23.802 58.0265 23.4767C59.058 23.0627 59.5852 23.025 60.5547 22.4292C60.7778 22.361 61.0001 22.2904 61.2216 22.2175C61.3044 22.5919 61.4069 22.8976 61.5254 23.2587C61.8502 24.3644 62.4452 26.3386 62.5999 27.4516C62.061 26.9098 62.3499 25.9462 61.9142 25.6182C61.8076 26.0065 62.1149 26.7471 61.9922 27.3644C62.1101 28.3547 62.2749 29.3921 62.3675 30.3758L62.3025 30.7423C61.8882 30.8973 61.3702 30.5029 60.9871 30.2934C60.0126 31.0521 59.3685 31.2299 58.2772 31.7849C57.7575 32.0493 57.3039 32.3927 56.8147 32.6824C55.1132 32.1986 54.7794 33.8576 53.8701 34.9751C53.8665 33.5012 53.8621 31.816 53.6209 30.3699C53.0652 27.0387 51.771 23.4525 49.6 20.8429C49.7305 17.0359 47.9355 11.6658 46.0323 8.40425C45.583 7.63419 45.1266 6.78491 44.2296 6.52233C44.315 6.35675 44.3131 6.34929 44.3127 6.1595L44.1641 6.05439C44.3836 6.00564 44.4074 5.93302 44.5905 5.76953Z" fill="#EBA2C1"/>
<path d="M61.5255 23.2598C61.8504 24.3654 62.4453 26.3396 62.6 27.4526C62.0611 26.9109 62.35 25.9472 61.9144 25.6193C61.8077 26.0076 62.115 26.7481 61.9923 27.3655C61.7054 25.8466 61.4699 24.9402 61.0347 23.4526L61.5255 23.2598Z" fill="#E68EB4"/>
<path d="M60.5549 22.4295C60.778 22.3613 61.0003 22.2907 61.2218 22.2178C61.3046 22.5922 61.4071 22.8979 61.5256 23.259L61.0348 23.4518C60.7679 23.1305 60.6662 22.8223 60.5549 22.4295Z" fill="#C96EA5"/>
<path d="M54.1843 11.4033L54.5411 11.2314C54.8675 11.5836 55.3161 12.0425 55.6115 12.4029C55.4981 12.5864 55.4887 12.6101 55.5011 12.8248C55.0573 12.2581 54.6844 11.9153 54.1843 11.4033Z" fill="#C96EA5"/>
<path d="M15.8901 9.66994C15.9416 9.6155 16.0125 9.54389 16.0741 9.49799C18.9138 7.38323 22.5137 5.76732 25.9429 4.88252C27.2898 4.53502 31.1676 4.09781 32.4969 4.27194C31.2179 6.21651 29.3004 7.98586 27.8748 9.847C27.4058 10.4592 25.1312 12.5141 25.8095 13.2552C25.4331 13.5025 23.8451 14.0811 23.4133 14.2285C23.0581 14.0057 21.9279 12.9414 21.4741 12.5822C19.5325 11.0458 18.1522 10.4855 15.8901 9.66994Z" fill="#EF98B1"/>
<path d="M32.7346 4.15137C33.713 4.3327 38.8302 4.46947 39.3593 4.77719C39.3248 4.89118 39.2938 5.00392 39.2511 5.1149C38.9883 5.26775 38.0649 6.63197 37.7838 6.96607C36.4497 8.55158 35.1073 10.1274 33.6432 11.5961C33.5283 11.7113 33.4536 12.05 33.4201 12.2146C30.8642 12.0717 28.2127 12.3457 25.8096 13.2549C25.1314 12.5138 27.406 10.4589 27.875 9.8467C29.3006 7.98555 31.2181 6.21621 32.497 4.27164L32.7346 4.15137Z" fill="#F5C9D6"/>
<path d="M8.10717 48.2202C7.99242 48.0518 7.98371 48.0197 7.92969 47.8226C8.0472 47.5506 7.99879 47.6353 8.2957 47.4668C8.98024 47.8979 9.63739 48.3711 10.2631 48.8838C10.7313 49.264 12.1633 50.7532 12.497 50.7862C13.3938 50.2498 14.9699 48.9438 15.9974 48.9775C17.5822 49.0294 18.9191 50.1709 20.615 49.7538C20.684 49.7374 21.209 49.803 21.3079 49.8162C21.0077 50.9047 20.8607 52.2179 21.4847 53.2208C20.0788 53.5715 18.8882 52.1095 17.0931 51.6507C16.8204 51.953 16.4749 52.3597 16.2157 52.6679C15.7492 53.2223 13.8311 54.7173 13.7042 55.2755L13.6025 55.2822C12.8748 54.7114 10.7129 52.1993 10.0893 51.4503C9.55623 50.6089 8.89255 49.832 8.48248 48.9057C8.37552 48.6642 8.26815 48.4306 8.10717 48.2202Z" fill="#EDA4C4"/>
<path d="M39.2512 5.11453L39.2997 5.17458C39.5874 4.73227 39.6273 4.87624 40.1135 5.0234L40.2284 4.94894C41.5268 5.36412 42.8395 5.73281 44.1642 6.05427L44.3129 6.15939C44.3133 6.34918 44.3152 6.35663 44.2297 6.52222C42.7008 6.97852 39.7902 9.37788 38.8151 10.6302C38.2972 11.2952 37.7367 12.1233 37.2348 12.8306C36.2902 12.4869 34.4766 12.2981 33.4202 12.2143C33.4537 12.0496 33.5284 11.7109 33.6432 11.5957C35.1074 10.127 36.4498 8.55121 37.7839 6.9657C38.0649 6.6316 38.9884 5.26738 39.2512 5.11453Z" fill="#EDAAC5"/>
<path d="M4.15649 32.8906C4.72428 33.0911 6.99457 34.9046 7.85592 35.4499L8.46265 34.558C9.67233 35.4679 10.2242 35.6186 11.7028 35.8798C11.8728 37.2412 12.4026 38.4858 12.6119 39.6971C12.4518 39.589 12.1051 39.3512 11.9977 39.2314C11.4852 38.6597 10.8399 37.3373 9.86497 37.6271C8.35896 38.0747 6.56113 39.9581 5.47959 40.997C4.66715 40.2641 4.2395 35.4561 4.1915 34.2316C4.19192 33.7638 4.19226 33.3594 4.15649 32.8906Z" fill="#EDAAC5"/>
<path d="M5.7199 44.0881C6.65118 43.32 9.07048 40.9363 10.3292 40.9641C10.7454 41.2669 10.758 41.7481 10.8407 42.2745C11.1006 43.9506 11.3935 45.6214 11.7195 47.286C11.882 48.1292 12.1278 49.1508 12.2489 49.9818C10.885 48.0714 9.11043 46.8397 6.77933 46.3856L6.39313 46.3273L5.22021 46.1041L5.15815 45.948C5.06744 45.3467 5.15312 44.7976 5.51922 44.3086L5.7199 44.0881Z" fill="#9D58B6"/>
<path d="M5.51922 44.3076C5.83364 44.6336 6.59925 45.7859 6.50444 46.2221L6.39313 46.3264L5.22021 46.1032L5.15815 45.9471C5.06744 45.3458 5.15312 44.7967 5.51922 44.3076Z" fill="#C96EA5"/>
<path d="M41.5281 52.0547C41.657 52.6579 41.9618 52.8597 42.4158 53.2606C41.0089 54.1014 39.6894 54.9256 38.2025 55.6407C37.8988 55.7868 37.4778 56.2566 37.1666 56.4644C36.7713 56.4913 34.0399 55.5318 33.2775 55.3248C31.7479 54.9978 30.8054 54.5494 29.3965 53.9098C29.9726 53.1897 30.1119 53.1641 30.133 52.2654C30.2855 52.4047 30.8032 52.8708 30.997 52.9507C32.4487 53.5491 34.2226 54.2449 35.7574 54.5478C36.0295 54.6015 36.726 54.5897 37.0807 54.4614C38.3443 54.0042 39.5743 53.0569 40.8851 52.5479C40.9301 52.4673 40.9676 52.4002 40.9975 52.3466L40.8412 52.2797C41.0675 52.0458 41.1053 52.3483 41.5281 52.0547Z" fill="#CD5287"/>
<path d="M48.4404 47.4217C50.1071 47.175 50.4154 46.2068 51.9817 45.8931C53.0303 45.6831 54.5617 46.3929 55.4226 47.0076L55.3804 47.1041L55.7393 47.2045C55.8043 47.5046 55.6868 47.7364 55.5818 48.0279L55.533 48.0192C55.3755 47.6794 55.4518 47.717 55.1764 47.5358C54.2936 47.5131 51.6917 51.3395 49.6605 50.7503C49.819 49.6152 49.1212 48.2786 48.4404 47.4217Z" fill="#E68EB4"/>
<path d="M60.9871 30.293C61.3702 30.5024 61.8881 30.8969 62.3025 30.7419L62.3675 30.3754C62.5071 31.4043 62.3944 35.694 62.251 36.7321L62.0459 36.9786C60.6025 34.7037 59.0586 33.9288 56.8147 32.6819C57.3038 32.3923 57.7575 32.0488 58.2772 31.7845C59.3684 31.2294 60.0126 31.0516 60.9871 30.293Z" fill="#E68EB4"/>
<path d="M5.36865 42.9126C5.86214 40.9976 7.73711 39.6743 9.26473 38.582C9.58627 38.3521 9.85262 38.2002 10.2541 38.2342C10.5373 38.3601 12.8371 40.208 13.0711 40.6018C13.3169 41.0152 13.9841 41.8204 13.91 42.346L13.7558 42.4017C13.1282 42.2792 12.2695 41.652 11.705 41.2809C11.6925 41.8198 11.6774 42.0402 11.5828 42.5741C11.4684 42.2287 11.4196 42.1534 11.224 41.8431C11.1549 41.519 11.0023 40.8477 10.6732 40.6927C9.40612 40.0956 7.54773 42.1985 6.51686 42.8603C6.24415 43.0355 5.9655 43.4261 5.71398 43.5041C5.63173 43.2717 5.38867 43.2347 5.36865 42.9126Z" fill="#442275"/>
<path d="M46.5914 12.3291C46.8035 13.4608 47.1616 12.886 47.56 13.7303C48.2448 15.1813 48.6895 18.1262 48.6889 19.6851C48.1795 19.1778 46.9724 18.0196 46.6576 17.4634C46.4605 17.4276 46.4269 17.4327 46.228 17.4614C46.3181 16.4525 46.443 15.4768 46.5053 14.4597C46.6173 13.887 46.5897 12.9424 46.5914 12.3291Z" fill="#14072E"/>
<path d="M6.99658 47.1875C7.36662 47.2298 7.99964 47.267 8.29589 47.4657C7.99897 47.6342 8.04738 47.5494 7.92988 47.8214C7.9839 48.0185 7.99261 48.0507 8.10735 48.219L7.75767 48.0155L7.55708 48.1385C7.37223 48.0027 7.08729 47.4263 6.99658 47.1875Z" fill="#C96EA5"/>
<path d="M56.0034 33.0303C56.6764 33.1778 57.013 33.4663 57.5949 33.7703C60.0826 35.0704 61.5934 36.9797 62.7152 39.493C62.9225 39.8901 62.8964 39.9564 62.6828 40.3284C62.6425 40.6903 62.7072 40.6099 62.4837 40.8141C61.9577 40.9243 60.8998 40.8864 60.4384 41.0491C58.7408 41.6474 56.8317 43.4971 55.8869 44.9393C55.8123 45.0535 55.7393 45.1686 55.6677 45.2847L55.6249 45.4346C55.4049 45.5409 55.2824 45.5995 55.075 45.7398C54.872 45.7991 53.1279 45.3122 52.4675 45.3265C51.4884 45.3477 51.5196 45.3259 50.5177 45.5723C48.9957 46.5112 48.9605 46.768 47.1636 46.1526C49.3133 44.4875 51.8491 42.2113 52.5998 39.4901C53.136 39.2627 53.3282 39.1368 53.7349 38.7209C54.024 38.2061 54.1268 38.0297 54.511 37.5776L54.5503 37.5142C54.9768 37.3244 54.9603 37.3732 55.0582 36.9621C54.413 36.8385 53.4718 38.1823 53.0205 38.6677C53.3057 37.7663 53.5973 36.1277 54.1403 35.4509C54.7885 34.6429 55.3914 33.8788 56.0034 33.0303Z" fill="#8E6DB6"/>
<path d="M54.511 37.5762C54.7748 37.8088 54.803 38.4359 54.9096 38.8215C55.523 41.469 55.5546 43.0139 55.075 45.7385C54.872 45.7977 53.1279 45.3108 52.4675 45.3251C51.4884 45.3463 51.5196 45.3245 50.5177 45.5709C48.9957 46.5098 48.9605 46.7666 47.1636 46.1512C49.3133 44.4861 51.8491 42.2099 52.5998 39.4887C53.136 39.2613 53.3282 39.1354 53.7349 38.7195C54.024 38.2048 54.1268 38.0283 54.511 37.5762Z" fill="#9654B3"/>
<path d="M53.7349 38.7197C53.978 40.5413 52.8451 41.8108 51.9397 43.3012C51.6217 43.8247 50.6172 45.0058 50.5177 45.5711C48.9957 46.51 48.9605 46.7668 47.1636 46.1514C49.3133 44.4863 51.8491 42.2101 52.5998 39.4889C53.136 39.2615 53.3282 39.1356 53.7349 38.7197Z" fill="#713F9C"/>
<path d="M56.0034 33.0303C56.6765 33.1778 57.0131 33.4663 57.5949 33.7703C60.0827 35.0704 61.5934 36.9797 62.7152 39.493L62.5953 39.6125C62.57 39.6075 62.4076 39.5757 62.4076 39.5757C60.938 37.6178 58.3913 35.8603 55.9954 35.3429C55.8029 35.7807 55.6495 36.1133 55.6128 36.5943L55.4912 37.0684C55.3092 37.045 55.2833 37.0325 55.1111 36.9644L55.0582 36.9621C54.413 36.8385 53.4719 38.1823 53.0205 38.6677C53.3058 37.7663 53.5973 36.1277 54.1403 35.4509C54.7885 34.6429 55.3915 33.8788 56.0034 33.0303Z" fill="#432376"/>
<path d="M55.9956 35.3428C58.3915 35.8601 60.9382 37.6176 62.4078 39.5756C62.4078 39.5756 62.5702 39.6073 62.5955 39.6123L62.7154 39.4928C62.9228 39.89 62.8966 39.9562 62.6831 40.3282C61.3305 38.7124 59.8453 37.438 57.9429 36.5175C57.429 36.2687 56.7214 35.8278 56.1482 36.0407C55.7949 36.3935 55.9543 36.7268 55.9739 37.1958C56.0815 39.7798 55.8775 42.7136 55.668 45.2845L55.6252 45.4344C55.4052 45.5407 55.2826 45.5994 55.0752 45.7397C55.5548 43.0151 55.5233 41.4702 54.9098 38.8228C54.8033 38.4371 54.7751 37.8101 54.5112 37.5774L54.5505 37.5141C54.9771 37.3243 54.9606 37.373 55.0584 36.9619L55.1113 36.9642C55.2835 37.0323 55.3094 37.0448 55.4914 37.0682L55.613 36.5942C55.6497 36.1132 55.8031 35.7806 55.9956 35.3428Z" fill="#14072E"/>
<path d="M55.0584 36.9609L55.1113 36.9632C55.1429 37.3127 55.2531 37.8787 55.2174 38.1747C55.1849 38.4372 55.2342 38.7882 54.9098 38.8217C54.8033 38.4361 54.7751 37.809 54.5112 37.5764L54.5505 37.5131C54.9771 37.3233 54.9606 37.372 55.0584 36.9609Z" fill="#010019"/>
<path d="M55.1113 36.9638C55.2836 37.0319 55.3095 37.0444 55.4915 37.0678L55.613 36.5938C55.6059 37.0185 55.6387 37.7054 55.5076 38.0741C55.3859 38.1261 55.3453 38.1402 55.2174 38.1753C55.2531 37.8792 55.143 37.3133 55.1113 36.9638Z" fill="#442275"/>
<path d="M24.6061 55.0462C24.5923 55.0457 24.5786 55.0452 24.5648 55.0446C22.6793 54.4641 21.4772 52.5847 21.8845 50.7135C22.2725 48.9314 23.0203 48.6287 24.25 47.8018C24.3455 48.0445 24.5954 48.5399 24.6492 48.7062C24.7336 48.9677 24.3252 49.5945 24.4173 49.9264C24.6167 49.9512 24.7602 49.8426 24.9459 49.7422C25.5477 49.4379 26.5545 49.5897 27.2083 49.7694C28.525 50.1313 28.9635 50.5002 28.2956 51.7184C28.542 52.0855 28.9484 51.6895 29.4205 52.5153C29.4692 53.1741 29.1874 53.2941 28.6087 53.4247C28.8897 54.6675 29.2767 54.8763 27.5981 55.242C26.66 55.4463 25.4859 55.4793 24.6061 55.0462Z" fill="#8160AE"/>
<path d="M24.606 55.0462C25.128 54.9862 25.5399 55.178 26.0721 55.022C26.5882 54.8708 27.4647 54.723 27.2671 53.9779C26.8039 53.837 26.1085 54.4496 25.6709 54.1759C27.1362 54.279 26.9244 53.1744 28.6086 53.4247C28.8895 54.6675 29.2765 54.8763 27.598 55.242C26.6598 55.4464 25.4857 55.4793 24.606 55.0462Z" fill="#4F338E"/>
<path d="M12.7177 49.7103C12.5848 48.4933 10.8828 42.6409 12.5601 42.3115C12.8786 42.382 13.1127 42.63 13.3603 42.8475C13.5279 42.927 14.2443 43.2305 14.3251 43.2851C15.2314 43.8976 15.9591 44.8151 16.7794 45.5391C18.1897 46.7838 19.3205 47.501 21.0207 48.2435C18.9633 49.6245 18.0184 48.3962 16.0134 48.288C14.5663 48.7258 13.944 48.8251 12.7177 49.7103Z" fill="#8E6DB6"/>
<path d="M13.3603 42.8477C13.5279 42.9272 14.2443 43.2307 14.3251 43.2853C15.2314 43.8978 15.9591 44.8153 16.7794 45.5392C18.1897 46.7839 19.3205 47.5011 21.0207 48.2437C18.9633 49.6247 18.0184 48.3964 16.0134 48.2882C16.2114 48.0585 16.2875 47.9961 16.5245 47.8079C16.4669 46.7322 13.1747 44.3976 13.3603 42.8477Z" fill="#713F9C"/>
<path d="M46.9741 47.1221L47.0025 47.1433C47.9421 47.86 48.2311 48.42 48.796 49.4659C49.123 51.8874 48.0527 53.7365 45.5002 54.2317C45.1337 54.3028 43.4493 54.2108 43.1839 54.0115C43.03 53.6956 43.1543 53.2224 43.2341 52.8815C42.7585 52.8079 42.4261 52.7302 42.2529 52.2448C42.3426 51.6935 42.9341 51.3656 43.386 51.0303C43.1446 50.8723 42.9727 50.7588 42.7499 50.5758C42.4913 49.9427 43.0522 49.6562 43.5099 49.262C43.8646 49.3248 44.1019 49.4355 44.3516 49.1593C44.3037 48.1432 45.7787 48.9346 46.4092 48.6486C46.8665 48.2828 46.8757 47.7064 46.9741 47.1221Z" fill="#8E6DB6"/>
<path d="M48.7959 49.4658C49.1229 51.8873 48.0526 53.7365 45.5001 54.2316C45.1336 54.3027 43.4492 54.2107 43.1838 54.0114C43.0299 53.6955 43.1542 53.2223 43.234 52.8814C43.4174 52.9158 43.6039 52.9313 43.7905 52.9277C45.5273 52.877 47.4171 52.0422 48.3221 50.5258C48.5609 50.1257 48.8197 49.9948 48.7959 49.4658Z" fill="#713F9C"/>
</svg>
