<svg width="148" height="89" viewBox="0 0 148 89" fill="none" xmlns="http://www.w3.org/2000/svg">
<g filter="url(#filter0_i_1574_11221)">
<path d="M39.7606 1.05766C43.4531 1.3417 50.8377 9.44927 54.0369 14.2127C54.0648 14.1988 54.0923 14.1851 54.1195 14.1716C54.7584 13.8547 55.2016 13.6637 55.2016 13.6637C51.685 8.36109 42.3624 -0.413817 39.4249 0.38719C37.053 1.03398 32.7156 17.1695 32.0697 27.2401C31.8275 31.015 31.8275 34.6251 31.8275 34.6251C33.948 30.5268 36.5875 27.242 38.508 25.1377C36.7394 20.8631 37.083 0.85169 39.7606 1.05766Z" fill="black"/>
<path d="M54.0369 14.2127C54.0369 14.2127 55.0541 15.8268 55.5378 15.4911C56.0214 15.1554 55.2016 13.6637 55.2016 13.6637C55.2016 13.6637 54.7584 13.8547 54.1195 14.1716L54.0369 14.2127Z" fill="black"/>
<path d="M110.254 20.8632C110.04 12.9685 107.382 0.38631 105.219 0.386287C99.9217 0.386229 91.2229 9.98949 89.1063 12.4709L88.4349 13.2379C88.8074 13.3907 89.1673 13.5476 89.5122 13.7081C89.7446 13.3968 89.984 13.0869 90.2209 12.8066C94.4772 7.77136 101.791 1.15544 104.883 1.39334C107.233 1.5741 107.569 21.8701 105.219 25.7959C107.024 27.884 108.747 30.2606 110.254 32.9477C110.254 32.9477 110.468 28.758 110.254 20.8632Z" fill="black"/>
<path d="M88.4349 13.2379C88.4349 13.2379 86.6784 15.8278 87.7635 15.8278C87.9662 15.8278 88.4416 15.1742 89.0147 14.3861C89.1742 14.1668 89.3413 13.9371 89.5122 13.7081C89.1673 13.5476 88.8074 13.3907 88.4349 13.2379Z" fill="black"/>
<path d="M73.3289 10.1212C65.2725 10.1212 60.5725 11.3139 55.2016 13.6637C55.2016 13.6637 56.0214 15.1554 55.5378 15.4911C55.0541 15.8268 54.0369 14.2127 54.0369 14.2127C50.8377 9.44927 43.4531 1.3417 39.7606 1.05766C37.083 0.85169 36.7394 20.8631 38.508 25.1377C36.5875 27.242 33.948 30.5268 31.8275 34.6251C30.669 36.8643 29.6654 39.3462 29.0186 42.0112C25.2228 57.6509 30.928 71.2755 43.7887 80.9507C52.7842 87.718 62.9231 88.3357 71.6506 88.3357C76.6862 88.3357 89.9716 88.0001 99.9433 80.6113C120.325 65.5092 113.901 42.1762 112.604 38.6545C112.446 38.2271 112.3 37.8193 112.159 37.4259C111.579 35.8063 111.086 34.4322 110.254 32.9477C108.747 30.2606 107.024 27.884 105.219 25.7959C107.569 21.8701 107.233 1.5741 104.883 1.39334C101.791 1.15544 94.4772 7.77136 90.2209 12.8066C89.984 13.0869 89.7446 13.3968 89.5122 13.7081C89.3413 13.9371 89.1742 14.1668 89.0147 14.3861C88.4416 15.1742 87.9662 15.8278 87.7635 15.8278C86.6784 15.8278 88.4349 13.2379 88.4349 13.2379C83.9041 11.3793 77.5046 10.1212 73.3289 10.1212Z" fill="#A289CB"/>
</g>
<path d="M92.4631 15.4921C91.7207 14.8633 90.7057 14.2636 89.5122 13.7081M55.2016 13.6637C60.5725 11.3139 65.2725 10.1211 73.329 10.1211C77.5046 10.1211 83.9041 11.3793 88.4349 13.2379M55.2016 13.6637C51.685 8.36109 42.3624 -0.413817 39.4249 0.38719C37.053 1.03398 32.7156 17.1695 32.0697 27.2401C31.8275 31.015 31.8275 34.6251 31.8275 34.6251M55.2016 13.6637C55.2016 13.6637 56.0214 15.1554 55.5378 15.4911C55.0541 15.8268 54.0369 14.2127 54.0369 14.2127M54.0369 14.2127C54.0648 14.1988 54.0923 14.1851 54.1195 14.1716C54.7584 13.8547 55.2016 13.6637 55.2016 13.6637M110.254 32.9477C110.254 32.9477 110.468 28.758 110.254 20.8632C110.04 12.9685 107.382 0.38631 105.219 0.386287C99.9217 0.386229 91.2229 9.98949 89.1063 12.4709L88.4349 13.2379M41.1031 22.5415C41.1031 22.5415 40.0319 23.468 38.508 25.1377C36.5875 27.242 33.948 30.5268 31.8275 34.6251C30.669 36.8643 29.6654 39.3462 29.0186 42.0112C25.2228 57.6509 30.928 71.2754 43.7887 80.9507C52.7842 87.718 62.9231 88.3357 71.6506 88.3357C76.6862 88.3357 89.9716 88.0001 99.9433 80.6113C120.325 65.5092 113.901 42.1762 112.604 38.6545C112.446 38.2271 112.3 37.8193 112.159 37.4259C111.579 35.8063 111.086 34.4322 110.254 32.9477C108.747 30.2606 107.024 27.884 105.219 25.7959C104.557 25.0294 103.883 24.3018 103.205 23.6119M50.8377 16.1635C51.8343 15.3665 53.1858 14.6346 54.1195 14.1716M88.4349 13.2379C88.4349 13.2379 86.6784 15.8278 87.7635 15.8278C87.9662 15.8278 88.4416 15.1742 89.0147 14.3861C89.1742 14.1668 89.3413 13.9371 89.5122 13.7081M88.4349 13.2379C88.8074 13.3907 89.1673 13.5476 89.5122 13.7081M105.219 25.7959C107.569 21.8701 107.233 1.5741 104.883 1.39334C101.791 1.15544 94.4772 7.77136 90.2209 12.8066C89.984 13.0869 89.7446 13.3968 89.5122 13.7081M54.0369 14.2127C50.8377 9.44927 43.4531 1.3417 39.7606 1.05766C37.083 0.85169 36.7394 20.8631 38.508 25.1377M54.0369 14.2127L54.1195 14.1716" stroke="#1C1135" stroke-width="0.67137" stroke-linecap="round"/>
<path d="M99.6311 17.7513C102.914 20.6142 104.441 21.1696 105.031 21.9092C107.1 18.103 106.704 1.73786 104.621 1.57042C101.879 1.35003 94.8259 7.78215 91.0713 12.6679C90.8623 12.9399 91.2762 12.3659 91.0713 12.6679C91.0713 12.6679 96.3484 14.8884 99.6311 17.7513Z" fill="url(#paint0_linear_1574_11221)"/>
<path d="M44.3229 17.6822C41.2375 20.593 38.823 21.7391 38.2685 22.4911C37.2615 19.4699 37.5972 1.4155 39.6386 1.23739C41.9611 1.03475 48.841 7.54829 52.3677 12.5132C52.564 12.7895 52.1753 12.2063 52.3677 12.5132C52.3677 12.5132 47.4084 14.7715 44.3229 17.6822Z" fill="url(#paint1_linear_1574_11221)"/>
<path d="M5.82062 53.1009C3.47083 54.9976 2.4638 55.7864 0.44969 58.1362C0.995813 58.4092 2.35926 57.7556 3.80652 57.8005C5.40057 57.85 6.44358 58.0105 7.83474 58.4719C10.1825 59.2505 11.2798 60.2766 13.2057 61.8287C15.4443 63.6329 17.5697 66.864 18.241 67.1997C18.1099 63.9224 18.0473 64.3723 17.9053 61.0954C17.7916 59.6907 17.7124 55.3212 17.9053 53.1009C18.1012 50.8464 18.9123 48.4014 18.9123 47.73C18.9123 47.2339 18.4091 45.7159 17.5696 45.7159C16.8982 45.7159 13.8773 47.2007 11.863 48.4013C9.20531 49.9854 8.29 51.1077 5.82062 53.1009Z" fill="#A974D2"/>
<path d="M24.619 51.7582C21.9335 50.0798 21.5978 48.4013 20.9265 48.4013C20.2552 48.4013 19.6832 51.2149 19.1343 53.1009C18.2516 56.1338 18.1272 58.348 17.9053 61.0954C18.0473 64.3723 18.1099 63.9224 18.241 67.1997C18.9123 67.5354 21.1681 65.3641 23.2762 64.8499C25.8234 64.2286 27.3947 64.4774 29.9899 64.8499C32.6995 65.2388 36.7036 67.1997 36.7036 67.1997C36.7036 67.1997 33.4926 63.534 32.004 60.8217C30.6455 58.3462 29.3186 54.108 29.3186 54.108C29.3186 54.108 26.3122 52.8165 24.619 51.7582Z" fill="#A974D2"/>
<path d="M27.6402 48.0656C27.6402 48.0656 24.8264 46.6829 23.2763 45.0446C21.7767 43.4597 20.2551 40.345 19.2481 40.0093C18.2431 39.6742 15.8823 40.7629 13.8893 41.682L13.8771 41.6876C10.2331 43.3681 7.4991 45.7159 5.14931 48.4013C2.17263 51.8032 -0.221728 57.8005 0.44969 58.1362C2.4638 55.7864 3.47083 54.9976 5.82062 53.1009C8.29 51.1077 9.20531 49.9854 11.863 48.4013C13.8773 47.2007 16.8982 45.7159 17.5696 45.7159C18.4091 45.7159 18.9123 47.2339 18.9123 47.73C18.9123 48.4014 18.1012 50.8464 17.9053 53.1009C17.7124 55.3212 17.7916 59.6907 17.9053 61.0954C18.1272 58.348 18.2516 56.1338 19.1343 53.1009C19.6832 51.2149 20.2552 48.4013 20.9265 48.4013C21.5978 48.4013 21.9335 50.0798 24.619 51.7582C26.3122 52.8165 29.3186 54.108 29.3186 54.108L27.6402 48.0656Z" fill="#43277B"/>
<path d="M13.8771 41.6876C10.2331 43.3681 7.4991 45.7159 5.14931 48.4013C2.17263 51.8032 -0.221728 57.8005 0.44969 58.1362M13.8771 41.6876L13.8893 41.682M29.3186 54.108L27.6402 48.0656C27.6402 48.0656 24.8264 46.6829 23.2763 45.0446C21.7767 43.4597 20.2551 40.345 19.2481 40.0093C18.2431 39.6742 15.8823 40.7629 13.8893 41.682C13.8852 41.6839 13.8812 41.6858 13.8771 41.6876M0.44969 58.1362C2.4638 55.7864 3.47083 54.9976 5.82062 53.1009C8.29 51.1077 9.20531 49.9854 11.863 48.4013C13.8773 47.2007 16.8982 45.7159 17.5696 45.7159C18.4091 45.7159 18.9123 47.2339 18.9123 47.73C18.9123 48.4014 18.1012 50.8464 17.9053 53.1009C17.7124 55.3212 17.7916 59.6907 17.9053 61.0954M0.44969 58.1362C0.995813 58.4092 2.35926 57.7556 3.80652 57.8005C5.40057 57.85 6.44358 58.0105 7.83474 58.4719C10.1825 59.2505 11.2798 60.2766 13.2057 61.8287C15.4443 63.6329 17.5697 66.864 18.241 67.1997M17.9053 61.0954C18.0473 64.3723 18.1099 63.9224 18.241 67.1997M17.9053 61.0954C18.1272 58.348 18.2516 56.1338 19.1343 53.1009C19.6832 51.2149 20.2552 48.4013 20.9265 48.4013C21.5978 48.4013 21.9335 50.0798 24.619 51.7582C26.3122 52.8165 29.3186 54.108 29.3186 54.108M29.3186 54.108C29.3186 54.108 30.6455 58.3462 32.004 60.8217C33.4926 63.534 36.7036 67.1997 36.7036 67.1997C36.7036 67.1997 32.6995 65.2388 29.9899 64.8499C27.3947 64.4774 25.8234 64.2286 23.2762 64.8499C21.1681 65.3641 18.9123 67.5354 18.241 67.1997" stroke="#0D0C12" stroke-width="0.67137" stroke-linecap="round"/>
<path d="M117.604 45.0442C116.347 46.4193 113.911 48.0653 113.911 48.0653L112.904 53.1004C112.904 53.1004 114.515 52.2378 115.59 51.422C116.624 50.6377 117.94 49.072 118.275 49.0722C119.282 49.0729 120.289 56.1216 120.289 59.1428C120.289 54.6857 120.289 47.7297 120.289 47.7297C120.289 46.8903 120.836 45.7859 121.632 46.0513C123.646 46.7224 125.486 47.8252 128.01 49.7438C129.857 51.1472 131.076 52.1263 132.71 53.772C134.214 55.2862 135.395 56.7932 136.738 58.136C138.081 57.8002 135.084 51.761 132.71 48.4011C131.523 46.7225 128.682 43.9305 126.667 42.6944C124.405 41.306 121.968 40.0087 120.625 40.3447C119.558 40.6117 119.076 43.434 117.604 45.0442Z" fill="#442679"/>
<path d="M128.01 49.7438C125.486 47.8252 123.646 46.7224 121.632 46.0513C120.836 45.7859 120.289 46.8903 120.289 47.7297C120.289 47.7297 120.289 54.6857 120.289 59.1428C120.289 62.4994 119.954 64.8497 119.618 67.5349C121.297 64.8494 123.43 62.4996 125.325 61.1569C126.332 60.443 128.217 59.0838 130.36 58.4714C132.71 57.7998 134.724 57.8002 136.738 58.136C135.395 56.7932 134.214 55.2862 132.71 53.772C131.076 52.1263 129.857 51.1472 128.01 49.7438Z" fill="#AA74D2"/>
<path d="M120.289 59.1428C120.289 56.1216 119.282 49.0729 118.275 49.0722C117.94 49.072 116.624 50.6377 115.59 51.422C114.515 52.2378 112.904 53.1004 112.904 53.1004L111.897 56.1216C111.229 58.1269 110.615 58.9969 109.548 60.8214C108.39 62.8008 106.526 65.8567 106.526 65.8567C106.526 65.8567 111.035 64.4064 113.911 64.8497C116.293 65.2167 117.94 66.1922 119.618 67.5349C119.954 64.8497 120.289 62.4994 120.289 59.1428Z" fill="#AA74D2"/>
<path d="M111.897 56.1216C111.229 58.1269 110.615 58.9969 109.548 60.8214C108.39 62.8008 106.526 65.8567 106.526 65.8567C106.526 65.8567 111.035 64.4064 113.911 64.8497C116.293 65.2167 117.94 66.1922 119.618 67.5349C121.297 64.8494 123.43 62.4996 125.325 61.1569C126.332 60.443 128.217 59.0838 130.36 58.4714C132.71 57.7998 134.724 57.8002 136.738 58.136C138.081 57.8002 135.084 51.761 132.71 48.4011C131.523 46.7225 128.682 43.9305 126.667 42.6944C124.405 41.306 121.968 40.0087 120.625 40.3447C119.558 40.6117 119.076 43.434 117.604 45.0442C116.347 46.4193 113.911 48.0653 113.911 48.0653L112.904 53.1004M136.738 58.136C135.395 56.7932 134.214 55.2862 132.71 53.772C131.076 52.1263 129.857 51.1472 128.01 49.7438C125.486 47.8252 123.646 46.7224 121.632 46.0513C120.836 45.7859 120.289 46.8903 120.289 47.7297M120.289 47.7297C120.289 51.0863 120.289 55.7862 120.289 59.1428M120.289 47.7297C120.289 47.7297 120.289 54.6857 120.289 59.1428M120.289 59.1428C120.289 56.1216 119.282 49.0729 118.275 49.0722C117.94 49.072 116.624 50.6377 115.59 51.422C114.515 52.2378 112.904 53.1004 112.904 53.1004M120.289 59.1428C120.289 62.4994 119.954 64.8497 119.618 67.5349M112.904 53.1004C112.904 53.1004 112.32 54.8533 111.897 56.1216M112.904 53.1004L111.897 56.1216" stroke="#0D0C12" stroke-width="0.67137" stroke-linecap="round"/>
<path d="M5.82062 53.1009C3.47083 54.9976 2.4638 55.7864 0.44969 58.1362C0.995813 58.4092 2.35926 57.7556 3.80652 57.8005C5.40057 57.85 6.44358 58.0105 7.83474 58.4719C10.1825 59.2505 11.2798 60.2766 13.2057 61.8287C15.4443 63.6329 17.5697 66.864 18.241 67.1997C18.1099 63.9224 18.0473 64.3723 17.9053 61.0954C17.7916 59.6907 17.7124 55.3212 17.9053 53.1009C18.1012 50.8464 18.9123 48.4014 18.9123 47.73C18.9123 47.2339 18.4091 45.7159 17.5696 45.7159C16.8982 45.7159 13.8773 47.2007 11.863 48.4013C9.20531 49.9854 8.29 51.1077 5.82062 53.1009Z" fill="#A974D2"/>
<path d="M24.619 51.7582C21.9335 50.0798 21.5978 48.4013 20.9265 48.4013C20.2552 48.4013 19.6832 51.2149 19.1343 53.1009C18.2516 56.1338 18.1272 58.348 17.9053 61.0954C18.0473 64.3723 18.1099 63.9224 18.241 67.1997C18.9123 67.5354 21.1681 65.3641 23.2762 64.8499C25.8234 64.2286 27.3947 64.4774 29.9899 64.8499C32.6995 65.2388 36.7036 67.1997 36.7036 67.1997C36.7036 67.1997 33.4926 63.534 32.004 60.8217C30.6455 58.3462 29.3186 54.108 29.3186 54.108C29.3186 54.108 26.3122 52.8165 24.619 51.7582Z" fill="#A974D2"/>
<path d="M27.6402 48.0656C27.6402 48.0656 24.8264 46.6829 23.2763 45.0446C21.7767 43.4597 20.2551 40.345 19.2481 40.0093C18.2431 39.6742 15.8823 40.7629 13.8893 41.682L13.8771 41.6876C10.2331 43.3681 7.4991 45.7159 5.14931 48.4013C2.17263 51.8032 -0.221728 57.8005 0.44969 58.1362C2.4638 55.7864 3.47083 54.9976 5.82062 53.1009C8.29 51.1077 9.20531 49.9854 11.863 48.4013C13.8773 47.2007 16.8982 45.7159 17.5696 45.7159C18.4091 45.7159 18.9123 47.2339 18.9123 47.73C18.9123 48.4014 18.1012 50.8464 17.9053 53.1009C17.7124 55.3212 17.7916 59.6907 17.9053 61.0954C18.1272 58.348 18.2516 56.1338 19.1343 53.1009C19.6832 51.2149 20.2552 48.4013 20.9265 48.4013C21.5978 48.4013 21.9335 50.0798 24.619 51.7582C26.3122 52.8165 29.3186 54.108 29.3186 54.108L27.6402 48.0656Z" fill="#43277B"/>
<path d="M13.8771 41.6876C10.2331 43.3681 7.4991 45.7159 5.14931 48.4013C2.17263 51.8032 -0.221728 57.8005 0.44969 58.1362M13.8771 41.6876L13.8893 41.682M29.3186 54.108L27.6402 48.0656C27.6402 48.0656 24.8264 46.6829 23.2763 45.0446C21.7767 43.4597 20.2551 40.345 19.2481 40.0093C18.2431 39.6742 15.8823 40.7629 13.8893 41.682C13.8852 41.6839 13.8812 41.6858 13.8771 41.6876M0.44969 58.1362C2.4638 55.7864 3.47083 54.9976 5.82062 53.1009C8.29 51.1077 9.20531 49.9854 11.863 48.4013C13.8773 47.2007 16.8982 45.7159 17.5696 45.7159C18.4091 45.7159 18.9123 47.2339 18.9123 47.73C18.9123 48.4014 18.1012 50.8464 17.9053 53.1009C17.7124 55.3212 17.7916 59.6907 17.9053 61.0954M0.44969 58.1362C0.995813 58.4092 2.35926 57.7556 3.80652 57.8005C5.40057 57.85 6.44358 58.0105 7.83474 58.4719C10.1825 59.2505 11.2798 60.2766 13.2057 61.8287C15.4443 63.6329 17.5697 66.864 18.241 67.1997M17.9053 61.0954C18.0473 64.3723 18.1099 63.9224 18.241 67.1997M17.9053 61.0954C18.1272 58.348 18.2516 56.1338 19.1343 53.1009C19.6832 51.2149 20.2552 48.4013 20.9265 48.4013C21.5978 48.4013 21.9335 50.0798 24.619 51.7582C26.3122 52.8165 29.3186 54.108 29.3186 54.108M29.3186 54.108C29.3186 54.108 30.6455 58.3462 32.004 60.8217C33.4926 63.534 36.7036 67.1997 36.7036 67.1997C36.7036 67.1997 32.6995 65.2388 29.9899 64.8499C27.3947 64.4774 25.8234 64.2286 23.2762 64.8499C21.1681 65.3641 18.9123 67.5354 18.241 67.1997" stroke="#0D0C12" stroke-width="0.67137" stroke-linecap="round"/>
<path d="M117.604 45.0442C116.347 46.4193 113.911 48.0653 113.911 48.0653L112.904 53.1004C112.904 53.1004 114.515 52.2378 115.59 51.422C116.624 50.6377 117.94 49.072 118.275 49.0722C119.282 49.0729 120.289 56.1216 120.289 59.1428C120.289 54.6857 120.289 47.7297 120.289 47.7297C120.289 46.8903 120.836 45.7859 121.632 46.0513C123.646 46.7224 125.486 47.8252 128.01 49.7438C129.857 51.1472 131.076 52.1263 132.71 53.772C134.214 55.2862 135.395 56.7932 136.738 58.136C138.081 57.8002 135.084 51.761 132.71 48.4011C131.523 46.7225 128.682 43.9305 126.667 42.6944C124.405 41.306 121.968 40.0087 120.625 40.3447C119.558 40.6117 119.076 43.434 117.604 45.0442Z" fill="#442679"/>
<path d="M128.01 49.7438C125.486 47.8252 123.646 46.7224 121.632 46.0513C120.836 45.7859 120.289 46.8903 120.289 47.7297C120.289 47.7297 120.289 54.6857 120.289 59.1428C120.289 62.4994 119.954 64.8497 119.618 67.5349C121.297 64.8494 123.43 62.4996 125.325 61.1569C126.332 60.443 128.217 59.0838 130.36 58.4714C132.71 57.7998 134.724 57.8002 136.738 58.136C135.395 56.7932 134.214 55.2862 132.71 53.772C131.076 52.1263 129.857 51.1472 128.01 49.7438Z" fill="#AA74D2"/>
<path d="M120.289 59.1428C120.289 56.1216 119.282 49.0729 118.275 49.0722C117.94 49.072 116.624 50.6377 115.59 51.422C114.515 52.2378 112.904 53.1004 112.904 53.1004L111.897 56.1216C111.229 58.1269 110.615 58.9969 109.548 60.8214C108.39 62.8008 106.526 65.8567 106.526 65.8567C106.526 65.8567 111.035 64.4064 113.911 64.8497C116.293 65.2167 117.94 66.1922 119.618 67.5349C119.954 64.8497 120.289 62.4994 120.289 59.1428Z" fill="#AA74D2"/>
<path d="M111.897 56.1216C111.229 58.1269 110.615 58.9969 109.548 60.8214C108.39 62.8008 106.526 65.8567 106.526 65.8567C106.526 65.8567 111.035 64.4064 113.911 64.8497C116.293 65.2167 117.94 66.1922 119.618 67.5349C121.297 64.8494 123.43 62.4996 125.325 61.1569C126.332 60.443 128.217 59.0838 130.36 58.4714C132.71 57.7998 134.724 57.8002 136.738 58.136C138.081 57.8002 135.084 51.761 132.71 48.4011C131.523 46.7225 128.682 43.9305 126.667 42.6944C124.405 41.306 121.968 40.0087 120.625 40.3447C119.558 40.6117 119.076 43.434 117.604 45.0442C116.347 46.4193 113.911 48.0653 113.911 48.0653L112.904 53.1004M136.738 58.136C135.395 56.7932 134.214 55.2862 132.71 53.772C131.076 52.1263 129.857 51.1472 128.01 49.7438C125.486 47.8252 123.646 46.7224 121.632 46.0513C120.836 45.7859 120.289 46.8903 120.289 47.7297M120.289 47.7297C120.289 51.0863 120.289 55.7862 120.289 59.1428M120.289 47.7297C120.289 47.7297 120.289 54.6857 120.289 59.1428M120.289 59.1428C120.289 56.1216 119.282 49.0729 118.275 49.0722C117.94 49.072 116.624 50.6377 115.59 51.422C114.515 52.2378 112.904 53.1004 112.904 53.1004M120.289 59.1428C120.289 62.4994 119.954 64.8497 119.618 67.5349M112.904 53.1004C112.904 53.1004 112.32 54.8533 111.897 56.1216M112.904 53.1004L111.897 56.1216" stroke="#0D0C12" stroke-width="0.67137" stroke-linecap="round"/>
<g filter="url(#filter1_i_1574_11221)">
<path d="M39.7606 1.05766C43.4531 1.3417 50.8377 9.44927 54.0369 14.2127C54.0648 14.1988 54.0923 14.1851 54.1195 14.1716C54.7584 13.8547 55.2016 13.6637 55.2016 13.6637C51.685 8.36109 42.3624 -0.413817 39.4249 0.38719C37.053 1.03398 32.7156 17.1695 32.0697 27.2401C31.8275 31.015 31.8275 34.6251 31.8275 34.6251C33.948 30.5268 36.5875 27.242 38.508 25.1377C36.7394 20.8631 37.083 0.85169 39.7606 1.05766Z" fill="black"/>
<path d="M54.0369 14.2127C54.0369 14.2127 55.0541 15.8268 55.5378 15.4911C56.0214 15.1554 55.2016 13.6637 55.2016 13.6637C55.2016 13.6637 54.7584 13.8547 54.1195 14.1716L54.0369 14.2127Z" fill="black"/>
<path d="M110.254 20.8632C110.04 12.9685 107.382 0.38631 105.219 0.386287C99.9217 0.386229 91.2229 9.98949 89.1063 12.4709L88.4349 13.2379C88.8074 13.3907 89.1673 13.5476 89.5122 13.7081C89.7446 13.3968 89.984 13.0869 90.2209 12.8066C94.4772 7.77136 101.791 1.15544 104.883 1.39334C107.233 1.5741 107.569 21.8701 105.219 25.7959C107.024 27.884 108.747 30.2606 110.254 32.9477C110.254 32.9477 110.468 28.758 110.254 20.8632Z" fill="black"/>
<path d="M88.4349 13.2379C88.4349 13.2379 86.6784 15.8278 87.7635 15.8278C87.9662 15.8278 88.4416 15.1742 89.0147 14.3861C89.1742 14.1668 89.3413 13.9371 89.5122 13.7081C89.1673 13.5476 88.8074 13.3907 88.4349 13.2379Z" fill="black"/>
<path d="M73.3289 10.1212C65.2725 10.1212 60.5725 11.3139 55.2016 13.6637C55.2016 13.6637 56.0214 15.1554 55.5378 15.4911C55.0541 15.8268 54.0369 14.2127 54.0369 14.2127C50.8377 9.44927 43.4531 1.3417 39.7606 1.05766C37.083 0.85169 36.7394 20.8631 38.508 25.1377C36.5875 27.242 33.948 30.5268 31.8275 34.6251C30.669 36.8643 29.6654 39.3462 29.0186 42.0112C25.2228 57.6509 30.928 71.2755 43.7887 80.9507C52.7842 87.718 62.9231 88.3357 71.6506 88.3357C76.6862 88.3357 89.9716 88.0001 99.9433 80.6113C120.325 65.5092 113.901 42.1762 112.604 38.6545C112.446 38.2271 112.3 37.8193 112.159 37.4259C111.579 35.8063 111.086 34.4322 110.254 32.9477C108.747 30.2606 107.024 27.884 105.219 25.7959C107.569 21.8701 107.233 1.5741 104.883 1.39334C101.791 1.15544 94.4772 7.77136 90.2209 12.8066C89.984 13.0869 89.7446 13.3968 89.5122 13.7081C89.3413 13.9371 89.1742 14.1668 89.0147 14.3861C88.4416 15.1742 87.9662 15.8278 87.7635 15.8278C86.6784 15.8278 88.4349 13.2379 88.4349 13.2379C83.9041 11.3793 77.5046 10.1212 73.3289 10.1212Z" fill="#A289CB"/>
</g>
<path d="M92.4631 15.4921C91.7207 14.8633 90.7057 14.2636 89.5122 13.7081M55.2016 13.6637C60.5725 11.3139 65.2725 10.1211 73.329 10.1211C77.5046 10.1211 83.9041 11.3793 88.4349 13.2379M55.2016 13.6637C51.685 8.36109 42.3624 -0.413817 39.4249 0.38719C37.053 1.03398 32.7156 17.1695 32.0697 27.2401C31.8275 31.015 31.8275 34.6251 31.8275 34.6251M55.2016 13.6637C55.2016 13.6637 56.0214 15.1554 55.5378 15.4911C55.0541 15.8268 54.0369 14.2127 54.0369 14.2127M54.0369 14.2127C54.0648 14.1988 54.0923 14.1851 54.1195 14.1716C54.7584 13.8547 55.2016 13.6637 55.2016 13.6637M110.254 32.9477C110.254 32.9477 110.468 28.758 110.254 20.8632C110.04 12.9685 107.382 0.38631 105.219 0.386287C99.9217 0.386229 91.2229 9.98949 89.1063 12.4709L88.4349 13.2379M41.1031 22.5415C41.1031 22.5415 40.0319 23.468 38.508 25.1377C36.5875 27.242 33.948 30.5268 31.8275 34.6251C30.669 36.8643 29.6654 39.3462 29.0186 42.0112C25.2228 57.6509 30.928 71.2754 43.7887 80.9507C52.7842 87.718 62.9231 88.3357 71.6506 88.3357C76.6862 88.3357 89.9716 88.0001 99.9433 80.6113C120.325 65.5092 113.901 42.1762 112.604 38.6545C112.446 38.2271 112.3 37.8193 112.159 37.4259C111.579 35.8063 111.086 34.4322 110.254 32.9477C108.747 30.2606 107.024 27.884 105.219 25.7959C104.557 25.0294 103.883 24.3018 103.205 23.6119M50.8377 16.1635C51.8343 15.3665 53.1858 14.6346 54.1195 14.1716M88.4349 13.2379C88.4349 13.2379 86.6784 15.8278 87.7635 15.8278C87.9662 15.8278 88.4416 15.1742 89.0147 14.3861C89.1742 14.1668 89.3413 13.9371 89.5122 13.7081M88.4349 13.2379C88.8074 13.3907 89.1673 13.5476 89.5122 13.7081M105.219 25.7959C107.569 21.8701 107.233 1.5741 104.883 1.39334C101.791 1.15544 94.4772 7.77136 90.2209 12.8066C89.984 13.0869 89.7446 13.3968 89.5122 13.7081M54.0369 14.2127C50.8377 9.44927 43.4531 1.3417 39.7606 1.05766C37.083 0.85169 36.7394 20.8631 38.508 25.1377M54.0369 14.2127L54.1195 14.1716" stroke="#1C1135" stroke-width="0.67137" stroke-linecap="round"/>
<path d="M99.6311 17.7513C102.914 20.6142 104.441 21.1696 105.031 21.9092C107.1 18.103 106.704 1.73786 104.621 1.57042C101.879 1.35003 94.8259 7.78215 91.0713 12.6679C90.8623 12.9399 91.2762 12.3659 91.0713 12.6679C91.0713 12.6679 96.3484 14.8884 99.6311 17.7513Z" fill="url(#paint2_linear_1574_11221)"/>
<path d="M44.3229 17.6822C41.2375 20.593 38.823 21.7391 38.2685 22.4911C37.2615 19.4699 37.5972 1.4155 39.6386 1.23739C41.9611 1.03475 48.841 7.54829 52.3677 12.5132C52.564 12.7895 52.1753 12.2063 52.3677 12.5132C52.3677 12.5132 47.4084 14.7715 44.3229 17.6822Z" fill="url(#paint3_linear_1574_11221)"/>
<path d="M43.9436 29.209C42.4743 29.3994 42.6571 36.61 41.7388 37.6778C40.8205 38.7456 34.629 40.2552 34.5761 41.7281C34.5231 43.201 40.1959 45.4102 40.8205 46.5148C41.4452 47.6194 40.949 53.4337 42.6648 53.8789C44.3807 54.3241 47.8886 47.9338 49.0379 47.588C50.1873 47.2422 56.8817 50.5253 57.901 49.3038C58.9204 48.0823 55.0975 43.5692 54.9625 42.4645C54.8274 41.3598 58.5554 36.5732 57.901 35.4686C57.2467 34.3639 51.2892 35.4187 50.1873 34.9163C49.0853 34.4138 45.4129 29.0186 43.9436 29.209Z" fill="#C3AEE6"/>
<g filter="url(#filter2_f_1574_11221)">
<circle cx="99.6986" cy="61.4306" r="4.02822" fill="#CD91D7"/>
</g>
<g filter="url(#filter3_f_1574_11221)">
<circle cx="43.975" cy="61.4306" r="4.02822" fill="#CD91D7"/>
</g>
<path d="M58.0744 54.1978C58.0744 58.3607 55.0587 61.4456 51.6964 61.4456C48.334 61.4456 45.3184 58.3607 45.3184 54.1978C45.3184 50.0349 48.334 46.6602 51.6964 46.6602C55.0587 46.6602 58.0744 50.0349 58.0744 54.1978Z" fill="#040311"/>
<path d="M50.9784 51.1494C51.4751 52.5102 53.0517 53.2961 54.1674 52.8889C55.283 52.4816 55.8236 51.0606 55.3269 49.6999C54.8302 48.3391 53.2536 47.5531 52.138 47.9604C51.0224 48.3676 50.4816 49.7887 50.9784 51.1494Z" fill="#FAFAF9"/>
<path d="M85.2646 55.7238C85.2646 55.7238 85.8715 52.0313 90.6356 52.0312C95.3997 52.0312 96.0066 55.7238 96.0066 55.7238" stroke="#0D0C12" stroke-width="1.75817" stroke-linecap="round"/>
<path fill-rule="evenodd" clip-rule="evenodd" d="M70.9393 58.9535C70.3354 58.5029 69.388 58.2377 69.4828 57.6359C69.5776 57.0342 70.404 56.7146 71.3922 56.7332C72.1965 56.7483 73.1029 57.0341 73.2102 57.636C73.3175 58.2379 72.4207 58.5029 71.9677 58.9535C71.6571 61.2471 75.2424 62.137 75.6951 62.1499C80.9792 62.3001 79.9102 59.5939 80.665 60.6452C81.2229 61.4222 80.7814 62.0002 79.4226 62.4508C79.279 63.1654 78.9507 63.8855 78.5647 64.442C78.1394 65.0553 77.644 65.47 77.2483 65.4601C76.4934 65.441 75.7732 62.8585 75.4712 62.8585C73.954 62.8585 71.6941 61.5068 71.3922 61.5068C71.0902 61.5068 69.0856 63.0569 67.5759 63.0569C67.2739 63.3573 66.3593 65.4601 65.7554 65.4601C65.5334 65.4601 65.333 65.3382 65.1232 65.0871C64.8518 64.7621 64.5647 64.2205 64.1952 63.4461C64.0737 63.1916 63.9433 62.9118 63.8016 62.6064C63.0467 62.306 61.5152 61.8474 62.3386 60.9461C63.7133 59.4415 61.8604 62.1499 66.6872 62.1499C67.1402 62.1499 71.3466 61.548 70.9393 58.9535ZM78.5647 63.0519C78.5647 62.751 76.5011 62.7739 76.3904 63.0519C76.2797 63.3299 76.9447 64.8575 77.3222 64.8575C77.6998 64.8575 78.5647 63.3528 78.5647 63.0519ZM66.668 63.1755C66.3442 63.0521 65.0837 62.9352 64.9016 63.0556C64.6816 63.1755 65.3854 64.8575 65.7627 64.8575C66.14 64.8575 66.8237 63.2348 66.668 63.1755Z" fill="black"/>
<path d="M76.3904 63.0519C76.5011 62.7739 78.5647 62.751 78.5647 63.0519C78.5647 63.3528 77.6998 64.8575 77.3222 64.8575C76.9447 64.8575 76.2797 63.3299 76.3904 63.0519Z" fill="white"/>
<path d="M64.9016 63.0556C65.0837 62.9352 66.3442 63.0521 66.668 63.1755C66.8237 63.2348 66.14 64.8575 65.7627 64.8575C65.3854 64.8575 64.6816 63.1755 64.9016 63.0556Z" fill="white"/>
<path d="M66.295 69.5623C67.22 71.3122 68.8752 72.8848 71.8369 72.9192C75.4224 72.9607 77.0971 70.4759 77.8792 68.1457C77.8792 68.1457 76.2008 65.1982 72.1726 65.1982C68.1444 65.1982 66.295 69.5623 66.295 69.5623Z" fill="#F26C95"/>
<path d="M77.2483 65.4601C76.4934 65.441 75.7732 62.8585 75.4712 62.8585C73.954 62.8585 71.6941 61.5068 71.3922 61.5068C71.0902 61.5068 69.0856 63.0569 67.5759 63.0569C67.2739 63.3573 66.3593 65.4601 65.7554 65.4601C65.5334 65.4601 65.333 65.3382 65.1232 65.0871C65.1232 65.0871 65.1188 67.3371 66.295 69.5623C66.295 69.5623 68.1444 65.1982 72.1726 65.1982C76.2008 65.1982 77.8792 68.1457 77.8792 68.1457C78.5647 66.1036 78.5647 64.442 78.5647 64.442C78.1394 65.0553 77.644 65.47 77.2483 65.4601Z" fill="#B62C60"/>
<path d="M79.4226 62.4508C79.279 63.1654 78.9507 63.8855 78.5647 64.442C78.5647 64.442 78.5647 66.1036 77.8792 68.1457C77.0971 70.4759 75.4224 72.9607 71.8369 72.9192C68.8752 72.8848 67.22 71.3122 66.295 69.5623C65.1188 67.3371 65.1232 65.0871 65.1232 65.0871C64.8518 64.7621 64.5647 64.2205 64.1952 63.4461C64.1952 63.4461 63.9535 73.382 71.8369 73.5167C79.7203 73.6513 79.4226 62.4508 79.4226 62.4508Z" fill="black"/>
<path fill-rule="evenodd" clip-rule="evenodd" d="M100.371 48.9814C100.443 48.9815 100.514 49.0093 100.573 49.0608C100.631 49.1123 100.673 49.1846 100.693 49.2668L101.057 50.7599C101.136 51.0814 101.283 51.3743 101.484 51.6107C101.686 51.8472 101.936 52.0195 102.21 52.1113L103.484 52.5378C103.554 52.5614 103.616 52.611 103.66 52.6792C103.704 52.7475 103.727 52.8306 103.727 52.9161C103.727 53.0015 103.704 53.0847 103.66 53.1529C103.616 53.2211 103.554 53.2708 103.484 53.2943L102.21 53.7208C101.936 53.8127 101.686 53.985 101.484 54.2214C101.283 54.4579 101.136 54.7507 101.057 55.0722L100.693 56.5653C100.673 56.6475 100.631 56.7197 100.573 56.7712C100.514 56.8226 100.443 56.8504 100.371 56.8504C100.298 56.8504 100.227 56.8226 100.168 56.7712C100.11 56.7197 100.068 56.6475 100.048 56.5653L99.6839 55.0722C99.6055 54.7507 99.4585 54.4579 99.2568 54.2214C99.055 53.985 98.8052 53.8127 98.5308 53.7208L97.2569 53.2943C97.1868 53.2708 97.1252 53.2211 97.0813 53.1529C97.0374 53.0847 97.0137 53.0015 97.0137 52.9161C97.0137 52.8306 97.0374 52.7475 97.0813 52.6792C97.1252 52.611 97.1868 52.5614 97.2569 52.5378L98.5308 52.1113C98.8052 52.0195 99.055 51.8472 99.2568 51.6107C99.4585 51.3743 99.6055 51.0814 99.6839 50.7599L100.048 49.2668C100.068 49.1846 100.11 49.1123 100.168 49.0608C100.227 49.0093 100.298 48.9815 100.371 48.9814Z" fill="#FFE031"/>
<path d="M130.079 16.1338L133.52 19.8004L139.255 13.6895" stroke="#5D3C98" stroke-width="2.01411" stroke-linecap="round" stroke-linejoin="round"/>
<path d="M134.667 28.357C141.002 28.357 146.137 22.8852 146.137 16.135C146.137 9.38485 141.002 3.91309 134.667 3.91309C128.332 3.91309 123.197 9.38485 123.197 16.135C123.197 18.3606 123.755 20.4494 124.732 22.246L123.77 27.7459L128.932 26.7217C130.675 27.7958 132.654 28.3599 134.667 28.357Z" stroke="#5D3C98" stroke-width="2.01411" stroke-linecap="round" stroke-linejoin="round"/>
<g filter="url(#filter4_i_1574_11221)">
<ellipse cx="100.45" cy="73.4354" rx="3.94652" ry="3.94714" fill="#A289CB"/>
</g>
<path d="M100.45 69.8242C102.444 69.8242 104.062 71.4409 104.062 73.4355C104.061 75.4301 102.444 77.0469 100.45 77.0469C98.4562 77.0467 96.8399 75.43 96.8398 73.4355C96.8398 71.441 98.4561 69.8243 100.45 69.8242Z" stroke="black" stroke-width="0.67137"/>
<g filter="url(#filter5_i_1574_11221)">
<ellipse cx="97.0124" cy="80.2309" rx="8.05581" ry="8.05707" fill="#A289CB"/>
</g>
<path d="M97.0122 72.5098C101.276 72.5098 104.733 75.9662 104.733 80.2305C104.733 84.4949 101.276 87.9521 97.0122 87.9521C92.7486 87.9521 89.2925 84.4949 89.2925 80.2305C89.2927 75.9663 92.7488 72.5098 97.0122 72.5098Z" stroke="black" stroke-width="0.67137"/>
<defs>
<filter id="filter0_i_1574_11221" x="27.5259" y="-4.69959" width="87.3955" height="93.3715" filterUnits="userSpaceOnUse" color-interpolation-filters="sRGB">
<feFlood flood-opacity="0" result="BackgroundImageFix"/>
<feBlend mode="normal" in="SourceGraphic" in2="BackgroundImageFix" result="shape"/>
<feColorMatrix in="SourceAlpha" type="matrix" values="0 0 0 0 0 0 0 0 0 0 0 0 0 0 0 0 0 0 127 0" result="hardAlpha"/>
<feOffset dy="-4.69959"/>
<feGaussianBlur stdDeviation="3.35685"/>
<feComposite in2="hardAlpha" operator="arithmetic" k2="-1" k3="1"/>
<feColorMatrix type="matrix" values="0 0 0 0 0.380392 0 0 0 0 0.25098 0 0 0 0 0.607843 0 0 0 0.38 0"/>
<feBlend mode="normal" in2="shape" result="effect1_innerShadow_1574_11221"/>
</filter>
<filter id="filter1_i_1574_11221" x="27.5259" y="-4.69959" width="87.3955" height="93.3715" filterUnits="userSpaceOnUse" color-interpolation-filters="sRGB">
<feFlood flood-opacity="0" result="BackgroundImageFix"/>
<feBlend mode="normal" in="SourceGraphic" in2="BackgroundImageFix" result="shape"/>
<feColorMatrix in="SourceAlpha" type="matrix" values="0 0 0 0 0 0 0 0 0 0 0 0 0 0 0 0 0 0 127 0" result="hardAlpha"/>
<feOffset dy="-4.69959"/>
<feGaussianBlur stdDeviation="3.35685"/>
<feComposite in2="hardAlpha" operator="arithmetic" k2="-1" k3="1"/>
<feColorMatrix type="matrix" values="0 0 0 0 0.380392 0 0 0 0 0.25098 0 0 0 0 0.607843 0 0 0 0.38 0"/>
<feBlend mode="normal" in2="shape" result="effect1_innerShadow_1574_11221"/>
</filter>
<filter id="filter2_f_1574_11221" x="92.9849" y="54.7169" width="13.4276" height="13.4276" filterUnits="userSpaceOnUse" color-interpolation-filters="sRGB">
<feFlood flood-opacity="0" result="BackgroundImageFix"/>
<feBlend mode="normal" in="SourceGraphic" in2="BackgroundImageFix" result="shape"/>
<feGaussianBlur stdDeviation="1.34274" result="effect1_foregroundBlur_1574_11221"/>
</filter>
<filter id="filter3_f_1574_11221" x="37.2613" y="54.7169" width="13.4276" height="13.4276" filterUnits="userSpaceOnUse" color-interpolation-filters="sRGB">
<feFlood flood-opacity="0" result="BackgroundImageFix"/>
<feBlend mode="normal" in="SourceGraphic" in2="BackgroundImageFix" result="shape"/>
<feGaussianBlur stdDeviation="1.34274" result="effect1_foregroundBlur_1574_11221"/>
</filter>
<filter id="filter4_i_1574_11221" x="96.5039" y="67.4742" width="7.89307" height="9.90864" filterUnits="userSpaceOnUse" color-interpolation-filters="sRGB">
<feFlood flood-opacity="0" result="BackgroundImageFix"/>
<feBlend mode="normal" in="SourceGraphic" in2="BackgroundImageFix" result="shape"/>
<feColorMatrix in="SourceAlpha" type="matrix" values="0 0 0 0 0 0 0 0 0 0 0 0 0 0 0 0 0 0 127 0" result="hardAlpha"/>
<feOffset dy="-2.01411"/>
<feGaussianBlur stdDeviation="1.34274"/>
<feComposite in2="hardAlpha" operator="arithmetic" k2="-1" k3="1"/>
<feColorMatrix type="matrix" values="0 0 0 0 0.556863 0 0 0 0 0.447059 0 0 0 0 0.737255 0 0 0 1 0"/>
<feBlend mode="normal" in2="shape" result="effect1_innerShadow_1574_11221"/>
</filter>
<filter id="filter5_i_1574_11221" x="88.9565" y="70.1597" width="16.1118" height="18.1284" filterUnits="userSpaceOnUse" color-interpolation-filters="sRGB">
<feFlood flood-opacity="0" result="BackgroundImageFix"/>
<feBlend mode="normal" in="SourceGraphic" in2="BackgroundImageFix" result="shape"/>
<feColorMatrix in="SourceAlpha" type="matrix" values="0 0 0 0 0 0 0 0 0 0 0 0 0 0 0 0 0 0 127 0" result="hardAlpha"/>
<feOffset dy="-2.01411"/>
<feGaussianBlur stdDeviation="1.34274"/>
<feComposite in2="hardAlpha" operator="arithmetic" k2="-1" k3="1"/>
<feColorMatrix type="matrix" values="0 0 0 0 0.556863 0 0 0 0 0.447059 0 0 0 0 0.737255 0 0 0 1 0"/>
<feBlend mode="normal" in2="shape" result="effect1_innerShadow_1574_11221"/>
</filter>
<linearGradient id="paint0_linear_1574_11221" x1="106.35" y1="0.183931" x2="92.4091" y2="22.3293" gradientUnits="userSpaceOnUse">
<stop offset="0.137215" stop-color="#543291"/>
<stop offset="0.401763" stop-color="#A087CA"/>
<stop offset="1" stop-color="#A087CA"/>
</linearGradient>
<linearGradient id="paint1_linear_1574_11221" x1="38.0144" y1="-0.171392" x2="52.634" y2="21.294" gradientUnits="userSpaceOnUse">
<stop offset="0.137215" stop-color="#543291"/>
<stop offset="0.401763" stop-color="#A087CA"/>
<stop offset="1" stop-color="#A087CA"/>
</linearGradient>
<linearGradient id="paint2_linear_1574_11221" x1="106.35" y1="0.183931" x2="92.4091" y2="22.3293" gradientUnits="userSpaceOnUse">
<stop offset="0.137215" stop-color="#543291"/>
<stop offset="0.401763" stop-color="#A087CA"/>
<stop offset="1" stop-color="#A087CA"/>
</linearGradient>
<linearGradient id="paint3_linear_1574_11221" x1="38.0144" y1="-0.171392" x2="52.634" y2="21.294" gradientUnits="userSpaceOnUse">
<stop offset="0.137215" stop-color="#543291"/>
<stop offset="0.401763" stop-color="#A087CA"/>
<stop offset="1" stop-color="#A087CA"/>
</linearGradient>
</defs>
</svg>
