<svg width="132" height="85" viewBox="0 0 132 85" fill="none" xmlns="http://www.w3.org/2000/svg">
<g filter="url(#filter0_i_1202_6900)">
<path d="M37.9534 1.00923C41.4781 1.28036 48.527 9.01942 51.5808 13.5664C51.6074 13.5531 51.6337 13.54 51.6597 13.5271C52.2695 13.2246 52.6926 13.0423 52.6926 13.0423C49.3358 7.9807 40.4369 -0.395364 37.633 0.369236C35.3689 0.986623 31.2287 16.3888 30.6121 26.0016C30.3809 29.605 30.3809 33.051 30.3809 33.051C32.405 29.1389 34.9246 26.0035 36.7578 23.9948C35.0696 19.9144 35.3975 0.812623 37.9534 1.00923Z" fill="black"/>
<path d="M51.5808 13.5664C51.5808 13.5664 52.5518 15.1071 53.0135 14.7866C53.4752 14.4662 52.6926 13.0423 52.6926 13.0423C52.6926 13.0423 52.2695 13.2246 51.6597 13.5271L51.5808 13.5664Z" fill="black"/>
<path d="M105.243 19.9146C105.039 12.3787 102.501 0.368396 100.437 0.368373C95.3801 0.368318 87.0766 9.53508 85.0562 11.9038L84.4154 12.6358C84.7709 12.7817 85.1144 12.9314 85.4437 13.0847C85.6655 12.7875 85.894 12.4917 86.1202 12.2242C90.1831 7.41777 97.1641 1.10256 100.116 1.32965C102.359 1.50219 102.68 20.8757 100.437 24.6231C102.16 26.6162 103.804 28.8849 105.243 31.4498C105.243 31.4498 105.447 27.4505 105.243 19.9146Z" fill="black"/>
<path d="M84.4154 12.6358C84.4154 12.6358 82.7386 15.108 83.7745 15.108C83.9679 15.108 84.4217 14.4841 84.9688 13.7319C85.1211 13.5225 85.2806 13.3032 85.4437 13.0847C85.1144 12.9314 84.7709 12.7817 84.4154 12.6358Z" fill="black"/>
<path d="M69.996 9.66076C62.3057 9.66076 57.8194 10.7993 52.6926 13.0423C52.6926 13.0423 53.4752 14.4662 53.0135 14.7866C52.5518 15.1071 51.5808 13.5664 51.5808 13.5664C48.527 9.01942 41.4781 1.28036 37.9534 1.00923C35.3975 0.812623 35.0696 19.9144 36.7578 23.9948C34.9246 26.0035 32.405 29.1389 30.3809 33.051C29.275 35.1883 28.3171 37.5575 27.6997 40.1013C24.0764 55.0302 29.5223 68.0354 41.7985 77.2709C50.3851 83.7307 60.0632 84.3203 68.3939 84.3203C73.2007 84.3203 85.8822 83.9999 95.4007 76.9469C114.856 62.5313 108.724 40.2588 107.486 36.8972C107.335 36.4893 107.196 36.1 107.061 35.7245C106.507 34.1785 106.037 32.8668 105.243 31.4498C103.804 28.8849 102.16 26.6162 100.437 24.6231C102.68 20.8757 102.359 1.50219 100.116 1.32965C97.1641 1.10256 90.1831 7.41777 86.1202 12.2242C85.894 12.4917 85.6655 12.7875 85.4437 13.0847C85.2806 13.3032 85.1211 13.5225 84.9688 13.7319C84.4217 14.4841 83.9679 15.108 83.7745 15.108C82.7386 15.108 84.4154 12.6358 84.4154 12.6358C80.0905 10.8617 73.9818 9.66076 69.996 9.66076Z" fill="#A289CB"/>
</g>
<path d="M88.2605 14.7876C87.5518 14.1874 86.5829 13.6149 85.4437 13.0847M52.6926 13.0423C57.8194 10.7993 62.3057 9.66076 69.996 9.66076C73.9818 9.66076 80.0905 10.8617 84.4154 12.6358M52.6926 13.0423C49.3358 7.9807 40.4369 -0.395364 37.633 0.369236C35.3689 0.986623 31.2287 16.3888 30.6121 26.0016C30.3809 29.605 30.3809 33.051 30.3809 33.051M52.6926 13.0423C52.6926 13.0423 53.4752 14.4662 53.0135 14.7866C52.5518 15.1071 51.5808 13.5664 51.5808 13.5664M51.5808 13.5664C51.6074 13.5531 51.6337 13.54 51.6597 13.5271C52.2695 13.2246 52.6926 13.0423 52.6926 13.0423M105.243 31.4498C105.243 31.4498 105.447 27.4505 105.243 19.9146C105.039 12.3787 102.501 0.368396 100.437 0.368373C95.3801 0.368318 87.0766 9.53508 85.0562 11.9038L84.4154 12.6358M39.2349 21.5166C39.2349 21.5166 38.2124 22.401 36.7578 23.9948C34.9246 26.0035 32.405 29.1389 30.3809 33.051C29.275 35.1883 28.3171 37.5575 27.6997 40.1013C24.0764 55.0302 29.5223 68.0354 41.7985 77.2709C50.3851 83.7307 60.0632 84.3203 68.3939 84.3203C73.2007 84.3203 85.8822 83.9999 95.4007 76.9469C114.856 62.5313 108.724 40.2588 107.486 36.8972C107.335 36.4893 107.196 36.1 107.061 35.7245C106.507 34.1785 106.037 32.8668 105.243 31.4498C103.804 28.8849 102.16 26.6162 100.437 24.6231C99.8042 23.8914 99.1612 23.1968 98.514 22.5384M48.527 15.4285C49.4783 14.6677 50.7684 13.9691 51.6597 13.5271M84.4154 12.6358C84.4154 12.6358 82.7386 15.108 83.7745 15.108C83.9679 15.108 84.4217 14.4841 84.9688 13.7319C85.1211 13.5225 85.2806 13.3032 85.4437 13.0847M84.4154 12.6358C84.7709 12.7817 85.1144 12.9314 85.4437 13.0847M100.437 24.6231C102.68 20.8757 102.359 1.50219 100.116 1.32965C97.1641 1.10256 90.1831 7.41777 86.1202 12.2242C85.894 12.4917 85.6655 12.7875 85.4437 13.0847M51.5808 13.5664C48.527 9.01942 41.4781 1.28036 37.9534 1.00923C35.3975 0.812623 35.0696 19.9144 36.7578 23.9948M51.5808 13.5664L51.6597 13.5271" stroke="#1C1135" stroke-width="0.640854" stroke-linecap="round"/>
<path d="M95.1022 16.9455C98.2357 19.6783 99.6933 20.2084 100.256 20.9144C102.231 17.2813 101.854 1.65993 99.8652 1.5001C97.2482 1.28973 90.5154 7.42949 86.9315 12.0932C86.732 12.3528 87.1271 11.8049 86.9315 12.0932C86.9315 12.0932 91.9687 14.2127 95.1022 16.9455Z" fill="url(#paint0_linear_1202_6900)"/>
<path d="M42.3079 16.878C39.3627 19.6565 37.058 20.7505 36.5287 21.4683C35.5674 18.5844 35.8878 1.35068 37.8365 1.18066C40.0534 0.987226 46.6206 7.20471 49.987 11.9439C50.1744 12.2077 49.8034 11.651 49.987 11.9439C49.987 11.9439 45.2531 14.0996 42.3079 16.878Z" fill="url(#paint1_linear_1202_6900)"/>
<path d="M5.55583 50.6867C3.31284 52.4971 2.35158 53.2501 0.429017 55.4931C0.950317 55.7537 2.2518 55.1298 3.63327 55.1726C5.15486 55.2199 6.15047 55.3731 7.4784 55.8135C9.71941 56.5567 10.7669 57.5362 12.6052 59.0178C14.7421 60.7399 16.7709 63.8241 17.4117 64.1446C17.2866 61.0162 17.2268 61.4457 17.0913 58.3178C16.9827 56.9769 16.9071 52.806 17.0913 50.6867C17.2782 48.5346 18.0525 46.2007 18.0525 45.5598C18.0525 45.0863 17.5721 43.6373 16.7708 43.6373C16.1299 43.6373 13.2463 45.0546 11.3235 46.2007C8.78667 47.7128 7.91296 48.7841 5.55583 50.6867Z" fill="#A974D2"/>
<path d="M23.4998 49.405C20.9363 47.8028 20.6159 46.2007 19.9751 46.2007C19.3343 46.2007 18.7883 48.8864 18.2644 50.6867C17.4218 53.5817 17.3031 55.6952 17.0913 58.3178C17.2268 61.4457 17.2866 61.0162 17.4117 64.1446C18.0525 64.465 20.2057 62.3924 22.218 61.9016C24.6495 61.3086 26.1493 61.546 28.6266 61.9016C31.213 62.2729 35.0351 64.1446 35.0351 64.1446C35.0351 64.1446 31.97 60.6455 30.5492 58.0565C29.2523 55.6935 27.9858 51.6479 27.9858 51.6479C27.9858 51.6479 25.116 50.4151 23.4998 49.405Z" fill="#A974D2"/>
<path d="M26.3836 45.8802C26.3836 45.8802 23.6978 44.5603 22.2181 42.9965C20.7867 41.4837 19.3343 38.5106 18.373 38.1901C17.4136 37.8702 15.1602 38.9095 13.2578 39.7868L13.2461 39.7921C9.76776 41.3962 7.15802 43.6373 4.91503 46.2007C2.07364 49.4479 -0.211883 55.1727 0.429017 55.4931C2.35158 53.2501 3.31284 52.4971 5.55583 50.6867C7.91296 48.7841 8.78667 47.7128 11.3235 46.2007C13.2463 45.0546 16.1299 43.6373 16.7708 43.6373C17.5721 43.6373 18.0525 45.0863 18.0525 45.5598C18.0525 46.2007 17.2782 48.5346 17.0913 50.6867C16.9071 52.806 16.9827 56.9769 17.0913 58.3178C17.3031 55.6952 17.4218 53.5817 18.2644 50.6867C18.7883 48.8864 19.3343 46.2007 19.9751 46.2007C20.6159 46.2007 20.9363 47.8028 23.4998 49.405C25.116 50.4151 27.9858 51.6479 27.9858 51.6479L26.3836 45.8802Z" fill="#43277B"/>
<path d="M13.2461 39.7921C9.76776 41.3962 7.15802 43.6373 4.91503 46.2007C2.07364 49.4479 -0.211883 55.1727 0.429017 55.4931M13.2461 39.7921L13.2578 39.7868M27.9858 51.6479L26.3836 45.8802C26.3836 45.8802 23.6978 44.5603 22.2181 42.9965C20.7867 41.4837 19.3343 38.5106 18.373 38.1901C17.4136 37.8702 15.1602 38.9095 13.2578 39.7868C13.2539 39.7886 13.25 39.7904 13.2461 39.7921M0.429017 55.4931C2.35158 53.2501 3.31284 52.4971 5.55583 50.6867C7.91296 48.7841 8.78667 47.7128 11.3235 46.2007C13.2463 45.0546 16.1299 43.6373 16.7708 43.6373C17.5721 43.6373 18.0525 45.0863 18.0525 45.5598C18.0525 46.2007 17.2782 48.5346 17.0913 50.6867C16.9071 52.806 16.9827 56.9769 17.0913 58.3178M0.429017 55.4931C0.950317 55.7537 2.2518 55.1298 3.63327 55.1726C5.15486 55.2199 6.15047 55.3731 7.4784 55.8135C9.71941 56.5567 10.7669 57.5362 12.6052 59.0178C14.7421 60.7399 16.7709 63.8241 17.4117 64.1446M17.0913 58.3178C17.2268 61.4457 17.2866 61.0162 17.4117 64.1446M17.0913 58.3178C17.3031 55.6952 17.4218 53.5817 18.2644 50.6867C18.7883 48.8864 19.3343 46.2007 19.9751 46.2007C20.6159 46.2007 20.9363 47.8028 23.4998 49.405C25.116 50.4151 27.9858 51.6479 27.9858 51.6479M27.9858 51.6479C27.9858 51.6479 29.2523 55.6935 30.5492 58.0565C31.97 60.6455 35.0351 64.1446 35.0351 64.1446C35.0351 64.1446 31.213 62.2729 28.6266 61.9016C26.1493 61.546 24.6495 61.3086 22.218 61.9016C20.2057 62.3924 18.0525 64.465 17.4117 64.1446" stroke="#0D0C12" stroke-width="0.640854" stroke-linecap="round"/>
<path d="M112.258 42.9962C111.058 44.3087 108.733 45.8799 108.733 45.8799L107.772 50.6862C107.772 50.6862 109.309 49.8627 110.336 49.084C111.322 48.3354 112.579 46.8408 112.899 46.8411C113.86 46.8418 114.822 53.57 114.822 56.4539C114.822 52.1994 114.822 45.5596 114.822 45.5596C114.822 44.7583 115.343 43.7041 116.103 43.9574C118.026 44.5981 119.782 45.6507 122.191 47.4821C123.954 48.8217 125.117 49.7564 126.677 51.3272C128.113 52.7726 129.241 54.2111 130.523 55.4928C131.804 55.1724 128.944 49.4076 126.677 46.2004C125.545 44.5981 122.832 41.933 120.91 40.7531C118.75 39.4278 116.424 38.1895 115.142 38.5102C114.123 38.7651 113.664 41.4591 112.258 42.9962Z" fill="#442679"/>
<path d="M122.191 47.4821C119.782 45.6507 118.026 44.5981 116.103 43.9574C115.343 43.7041 114.822 44.7583 114.822 45.5596C114.822 45.5596 114.822 52.1994 114.822 56.4539C114.822 59.6579 114.501 61.9014 114.181 64.4646C115.783 61.9011 117.82 59.6581 119.628 58.3764C120.589 57.695 122.389 56.3976 124.434 55.813C126.677 55.1719 128.6 55.1724 130.523 55.4928C129.241 54.2111 128.113 52.7726 126.677 51.3272C125.117 49.7564 123.954 48.8217 122.191 47.4821Z" fill="#AA74D2"/>
<path d="M114.822 56.4539C114.822 53.57 113.86 46.8418 112.899 46.8411C112.579 46.8408 111.322 48.3354 110.336 49.084C109.309 49.8627 107.772 50.6862 107.772 50.6862L106.811 53.57C106.173 55.4842 105.587 56.3147 104.568 58.0562C103.463 59.9456 101.684 62.8627 101.684 62.8627C101.684 62.8627 105.987 61.4783 108.733 61.9014C111.007 62.2517 112.579 63.1828 114.181 64.4646C114.501 61.9014 114.822 59.6579 114.822 56.4539Z" fill="#AA74D2"/>
<path d="M106.811 53.57C106.173 55.4842 105.587 56.3147 104.568 58.0562C103.463 59.9456 101.684 62.8627 101.684 62.8627C101.684 62.8627 105.987 61.4783 108.733 61.9014C111.007 62.2517 112.579 63.1829 114.181 64.4646C115.783 61.9011 117.82 59.6581 119.628 58.3764C120.589 57.695 122.389 56.3976 124.434 55.813C126.677 55.1719 128.6 55.1724 130.523 55.4928C131.804 55.1724 128.944 49.4076 126.677 46.2004C125.545 44.5981 122.832 41.933 120.91 40.7531C118.75 39.4278 116.424 38.1895 115.142 38.5102C114.123 38.7651 113.664 41.4591 112.258 42.9962C111.058 44.3087 108.733 45.8799 108.733 45.8799L107.772 50.6862M130.523 55.4928C129.241 54.2111 128.113 52.7726 126.677 51.3272C125.117 49.7564 123.954 48.8217 122.191 47.4821C119.782 45.6507 118.026 44.5981 116.103 43.9574C115.343 43.7041 114.822 44.7583 114.822 45.5596M114.822 45.5596C114.822 48.7636 114.822 53.2498 114.822 56.4539M114.822 45.5596C114.822 45.5596 114.822 52.1994 114.822 56.4539M114.822 56.4539C114.822 53.57 113.86 46.8418 112.899 46.8411C112.579 46.8408 111.322 48.3354 110.336 49.084C109.309 49.8627 107.772 50.6862 107.772 50.6862M114.822 56.4539C114.822 59.6579 114.501 61.9014 114.181 64.4646M107.772 50.6862C107.772 50.6862 107.214 52.3594 106.811 53.57M107.772 50.6862L106.811 53.57" stroke="#0D0C12" stroke-width="0.640854" stroke-linecap="round"/>
<path d="M5.55583 50.6867C3.31284 52.4971 2.35158 53.2501 0.429017 55.4931C0.950317 55.7537 2.2518 55.1298 3.63327 55.1726C5.15486 55.2199 6.15047 55.3731 7.4784 55.8135C9.71941 56.5567 10.7669 57.5362 12.6052 59.0178C14.7421 60.7399 16.7709 63.8241 17.4117 64.1446C17.2866 61.0162 17.2268 61.4457 17.0913 58.3178C16.9827 56.9769 16.9071 52.806 17.0913 50.6867C17.2782 48.5346 18.0525 46.2007 18.0525 45.5598C18.0525 45.0863 17.5721 43.6373 16.7708 43.6373C16.1299 43.6373 13.2463 45.0546 11.3235 46.2007C8.78667 47.7128 7.91296 48.7841 5.55583 50.6867Z" fill="#A974D2"/>
<path d="M23.4998 49.405C20.9363 47.8028 20.6159 46.2007 19.9751 46.2007C19.3343 46.2007 18.7883 48.8864 18.2644 50.6867C17.4218 53.5817 17.3031 55.6952 17.0913 58.3178C17.2268 61.4457 17.2866 61.0162 17.4117 64.1446C18.0525 64.465 20.2057 62.3924 22.218 61.9016C24.6495 61.3086 26.1493 61.546 28.6266 61.9016C31.213 62.2729 35.0351 64.1446 35.0351 64.1446C35.0351 64.1446 31.97 60.6455 30.5492 58.0565C29.2523 55.6935 27.9858 51.6479 27.9858 51.6479C27.9858 51.6479 25.116 50.4151 23.4998 49.405Z" fill="#A974D2"/>
<path d="M26.3836 45.8802C26.3836 45.8802 23.6978 44.5603 22.2181 42.9965C20.7867 41.4837 19.3343 38.5106 18.373 38.1901C17.4136 37.8702 15.1602 38.9095 13.2578 39.7868L13.2461 39.7921C9.76776 41.3962 7.15802 43.6373 4.91503 46.2007C2.07364 49.4479 -0.211883 55.1727 0.429017 55.4931C2.35158 53.2501 3.31284 52.4971 5.55583 50.6867C7.91296 48.7841 8.78667 47.7128 11.3235 46.2007C13.2463 45.0546 16.1299 43.6373 16.7708 43.6373C17.5721 43.6373 18.0525 45.0863 18.0525 45.5598C18.0525 46.2007 17.2782 48.5346 17.0913 50.6867C16.9071 52.806 16.9827 56.9769 17.0913 58.3178C17.3031 55.6952 17.4218 53.5817 18.2644 50.6867C18.7883 48.8864 19.3343 46.2007 19.9751 46.2007C20.6159 46.2007 20.9363 47.8028 23.4998 49.405C25.116 50.4151 27.9858 51.6479 27.9858 51.6479L26.3836 45.8802Z" fill="#43277B"/>
<path d="M13.2461 39.7921C9.76776 41.3962 7.15802 43.6373 4.91503 46.2007C2.07364 49.4479 -0.211883 55.1727 0.429017 55.4931M13.2461 39.7921L13.2578 39.7868M27.9858 51.6479L26.3836 45.8802C26.3836 45.8802 23.6978 44.5603 22.2181 42.9965C20.7867 41.4837 19.3343 38.5106 18.373 38.1901C17.4136 37.8702 15.1602 38.9095 13.2578 39.7868C13.2539 39.7886 13.25 39.7904 13.2461 39.7921M0.429017 55.4931C2.35158 53.2501 3.31284 52.4971 5.55583 50.6867C7.91296 48.7841 8.78667 47.7128 11.3235 46.2007C13.2463 45.0546 16.1299 43.6373 16.7708 43.6373C17.5721 43.6373 18.0525 45.0863 18.0525 45.5598C18.0525 46.2007 17.2782 48.5346 17.0913 50.6867C16.9071 52.806 16.9827 56.9769 17.0913 58.3178M0.429017 55.4931C0.950317 55.7537 2.2518 55.1298 3.63327 55.1726C5.15486 55.2199 6.15047 55.3731 7.4784 55.8135C9.71941 56.5567 10.7669 57.5362 12.6052 59.0178C14.7421 60.7399 16.7709 63.8241 17.4117 64.1446M17.0913 58.3178C17.2268 61.4457 17.2866 61.0162 17.4117 64.1446M17.0913 58.3178C17.3031 55.6952 17.4218 53.5817 18.2644 50.6867C18.7883 48.8864 19.3343 46.2007 19.9751 46.2007C20.6159 46.2007 20.9363 47.8028 23.4998 49.405C25.116 50.4151 27.9858 51.6479 27.9858 51.6479M27.9858 51.6479C27.9858 51.6479 29.2523 55.6935 30.5492 58.0565C31.97 60.6455 35.0351 64.1446 35.0351 64.1446C35.0351 64.1446 31.213 62.2729 28.6266 61.9016C26.1493 61.546 24.6495 61.3086 22.218 61.9016C20.2057 62.3924 18.0525 64.465 17.4117 64.1446" stroke="#0D0C12" stroke-width="0.640854" stroke-linecap="round"/>
<path d="M112.258 42.9962C111.058 44.3087 108.733 45.8799 108.733 45.8799L107.772 50.6862C107.772 50.6862 109.309 49.8627 110.336 49.084C111.322 48.3354 112.579 46.8408 112.899 46.8411C113.86 46.8418 114.822 53.57 114.822 56.4539C114.822 52.1994 114.822 45.5596 114.822 45.5596C114.822 44.7583 115.343 43.7041 116.103 43.9574C118.026 44.5981 119.782 45.6507 122.191 47.4821C123.954 48.8217 125.117 49.7564 126.677 51.3272C128.113 52.7726 129.241 54.2111 130.523 55.4928C131.804 55.1724 128.944 49.4076 126.677 46.2004C125.545 44.5981 122.832 41.933 120.91 40.7531C118.75 39.4278 116.424 38.1895 115.142 38.5102C114.123 38.7651 113.664 41.4591 112.258 42.9962Z" fill="#442679"/>
<path d="M122.191 47.4821C119.782 45.6507 118.026 44.5981 116.103 43.9574C115.343 43.7041 114.822 44.7583 114.822 45.5596C114.822 45.5596 114.822 52.1994 114.822 56.4539C114.822 59.6579 114.501 61.9014 114.181 64.4646C115.783 61.9011 117.82 59.6581 119.628 58.3764C120.589 57.695 122.389 56.3976 124.434 55.813C126.677 55.1719 128.6 55.1724 130.523 55.4928C129.241 54.2111 128.113 52.7726 126.677 51.3272C125.117 49.7564 123.954 48.8217 122.191 47.4821Z" fill="#AA74D2"/>
<path d="M114.822 56.4539C114.822 53.57 113.86 46.8418 112.899 46.8411C112.579 46.8408 111.322 48.3354 110.336 49.084C109.309 49.8627 107.772 50.6862 107.772 50.6862L106.811 53.57C106.173 55.4842 105.587 56.3147 104.568 58.0562C103.463 59.9456 101.684 62.8627 101.684 62.8627C101.684 62.8627 105.987 61.4783 108.733 61.9014C111.007 62.2517 112.579 63.1828 114.181 64.4646C114.501 61.9014 114.822 59.6579 114.822 56.4539Z" fill="#AA74D2"/>
<path d="M106.811 53.57C106.173 55.4842 105.587 56.3147 104.568 58.0562C103.463 59.9456 101.684 62.8627 101.684 62.8627C101.684 62.8627 105.987 61.4783 108.733 61.9014C111.007 62.2517 112.579 63.1829 114.181 64.4646C115.783 61.9011 117.82 59.6581 119.628 58.3764C120.589 57.695 122.389 56.3976 124.434 55.813C126.677 55.1719 128.6 55.1724 130.523 55.4928C131.804 55.1724 128.944 49.4076 126.677 46.2004C125.545 44.5981 122.832 41.933 120.91 40.7531C118.75 39.4278 116.424 38.1895 115.142 38.5102C114.123 38.7651 113.664 41.4591 112.258 42.9962C111.058 44.3087 108.733 45.8799 108.733 45.8799L107.772 50.6862M130.523 55.4928C129.241 54.2111 128.113 52.7726 126.677 51.3272C125.117 49.7564 123.954 48.8217 122.191 47.4821C119.782 45.6507 118.026 44.5981 116.103 43.9574C115.343 43.7041 114.822 44.7583 114.822 45.5596M114.822 45.5596C114.822 48.7636 114.822 53.2498 114.822 56.4539M114.822 45.5596C114.822 45.5596 114.822 52.1994 114.822 56.4539M114.822 56.4539C114.822 53.57 113.86 46.8418 112.899 46.8411C112.579 46.8408 111.322 48.3354 110.336 49.084C109.309 49.8627 107.772 50.6862 107.772 50.6862M114.822 56.4539C114.822 59.6579 114.501 61.9014 114.181 64.4646M107.772 50.6862C107.772 50.6862 107.214 52.3594 106.811 53.57M107.772 50.6862L106.811 53.57" stroke="#0D0C12" stroke-width="0.640854" stroke-linecap="round"/>
<g filter="url(#filter1_i_1202_6900)">
<path d="M37.9534 1.00923C41.4781 1.28036 48.527 9.01942 51.5808 13.5664C51.6074 13.5531 51.6337 13.54 51.6597 13.5271C52.2695 13.2246 52.6926 13.0423 52.6926 13.0423C49.3358 7.9807 40.4369 -0.395364 37.633 0.369236C35.3689 0.986623 31.2287 16.3888 30.6121 26.0016C30.3809 29.605 30.3809 33.051 30.3809 33.051C32.405 29.1389 34.9246 26.0035 36.7578 23.9948C35.0696 19.9144 35.3975 0.812623 37.9534 1.00923Z" fill="black"/>
<path d="M51.5808 13.5664C51.5808 13.5664 52.5518 15.1071 53.0135 14.7866C53.4752 14.4662 52.6926 13.0423 52.6926 13.0423C52.6926 13.0423 52.2695 13.2246 51.6597 13.5271L51.5808 13.5664Z" fill="black"/>
<path d="M105.243 19.9146C105.039 12.3787 102.501 0.368396 100.437 0.368373C95.3801 0.368318 87.0766 9.53508 85.0562 11.9038L84.4154 12.6358C84.7709 12.7817 85.1144 12.9314 85.4437 13.0847C85.6655 12.7875 85.894 12.4917 86.1202 12.2242C90.1831 7.41777 97.1641 1.10256 100.116 1.32965C102.359 1.50219 102.68 20.8757 100.437 24.6231C102.16 26.6162 103.804 28.8849 105.243 31.4498C105.243 31.4498 105.447 27.4505 105.243 19.9146Z" fill="black"/>
<path d="M84.4154 12.6358C84.4154 12.6358 82.7386 15.108 83.7745 15.108C83.9679 15.108 84.4217 14.4841 84.9688 13.7319C85.1211 13.5225 85.2806 13.3032 85.4437 13.0847C85.1144 12.9314 84.7709 12.7817 84.4154 12.6358Z" fill="black"/>
<path d="M69.996 9.66076C62.3057 9.66076 57.8194 10.7993 52.6926 13.0423C52.6926 13.0423 53.4752 14.4662 53.0135 14.7866C52.5518 15.1071 51.5808 13.5664 51.5808 13.5664C48.527 9.01942 41.4781 1.28036 37.9534 1.00923C35.3975 0.812623 35.0696 19.9144 36.7578 23.9948C34.9246 26.0035 32.405 29.1389 30.3809 33.051C29.275 35.1883 28.3171 37.5575 27.6997 40.1013C24.0764 55.0302 29.5223 68.0354 41.7985 77.2709C50.3851 83.7307 60.0632 84.3203 68.3939 84.3203C73.2007 84.3203 85.8822 83.9999 95.4007 76.9469C114.856 62.5313 108.724 40.2588 107.486 36.8972C107.335 36.4893 107.196 36.1 107.061 35.7245C106.507 34.1785 106.037 32.8668 105.243 31.4498C103.804 28.8849 102.16 26.6162 100.437 24.6231C102.68 20.8757 102.359 1.50219 100.116 1.32965C97.1641 1.10256 90.1831 7.41777 86.1202 12.2242C85.894 12.4917 85.6655 12.7875 85.4437 13.0847C85.2806 13.3032 85.1211 13.5225 84.9688 13.7319C84.4217 14.4841 83.9679 15.108 83.7745 15.108C82.7386 15.108 84.4154 12.6358 84.4154 12.6358C80.0905 10.8617 73.9818 9.66076 69.996 9.66076Z" fill="#A289CB"/>
</g>
<path d="M88.2605 14.7876C87.5518 14.1874 86.5829 13.6149 85.4437 13.0847M52.6926 13.0423C57.8194 10.7993 62.3057 9.66076 69.996 9.66076C73.9818 9.66076 80.0905 10.8617 84.4154 12.6358M52.6926 13.0423C49.3358 7.9807 40.4369 -0.395364 37.633 0.369236C35.3689 0.986623 31.2287 16.3888 30.6121 26.0016C30.3809 29.605 30.3809 33.051 30.3809 33.051M52.6926 13.0423C52.6926 13.0423 53.4752 14.4662 53.0135 14.7866C52.5518 15.1071 51.5808 13.5664 51.5808 13.5664M51.5808 13.5664C51.6074 13.5531 51.6337 13.54 51.6597 13.5271C52.2695 13.2246 52.6926 13.0423 52.6926 13.0423M105.243 31.4498C105.243 31.4498 105.447 27.4505 105.243 19.9146C105.039 12.3787 102.501 0.368396 100.437 0.368373C95.3801 0.368318 87.0766 9.53508 85.0562 11.9038L84.4154 12.6358M39.2349 21.5166C39.2349 21.5166 38.2124 22.401 36.7578 23.9948C34.9246 26.0035 32.405 29.1389 30.3809 33.051C29.275 35.1883 28.3171 37.5575 27.6997 40.1013C24.0764 55.0302 29.5223 68.0354 41.7985 77.2709C50.3851 83.7307 60.0632 84.3203 68.3939 84.3203C73.2007 84.3203 85.8822 83.9999 95.4007 76.9469C114.856 62.5313 108.724 40.2588 107.486 36.8972C107.335 36.4893 107.196 36.1 107.061 35.7245C106.507 34.1785 106.037 32.8668 105.243 31.4498C103.804 28.8849 102.16 26.6162 100.437 24.6231C99.8042 23.8914 99.1612 23.1968 98.514 22.5384M48.527 15.4285C49.4783 14.6677 50.7684 13.9691 51.6597 13.5271M84.4154 12.6358C84.4154 12.6358 82.7386 15.108 83.7745 15.108C83.9679 15.108 84.4217 14.4841 84.9688 13.7319C85.1211 13.5225 85.2806 13.3032 85.4437 13.0847M84.4154 12.6358C84.7709 12.7817 85.1144 12.9314 85.4437 13.0847M100.437 24.6231C102.68 20.8757 102.359 1.50219 100.116 1.32965C97.1641 1.10256 90.1831 7.41777 86.1202 12.2242C85.894 12.4917 85.6655 12.7875 85.4437 13.0847M51.5808 13.5664C48.527 9.01942 41.4781 1.28036 37.9534 1.00923C35.3975 0.812623 35.0696 19.9144 36.7578 23.9948M51.5808 13.5664L51.6597 13.5271" stroke="#1C1135" stroke-width="0.640854" stroke-linecap="round"/>
<path d="M95.1022 16.9455C98.2357 19.6783 99.6933 20.2084 100.256 20.9144C102.231 17.2813 101.854 1.65993 99.8652 1.5001C97.2482 1.28973 90.5154 7.42949 86.9315 12.0932C86.732 12.3528 87.1271 11.8049 86.9315 12.0932C86.9315 12.0932 91.9687 14.2127 95.1022 16.9455Z" fill="url(#paint2_linear_1202_6900)"/>
<path d="M42.3079 16.878C39.3627 19.6565 37.058 20.7505 36.5287 21.4683C35.5674 18.5844 35.8878 1.35068 37.8365 1.18066C40.0534 0.987226 46.6206 7.20471 49.987 11.9439C50.1744 12.2077 49.8034 11.651 49.987 11.9439C49.987 11.9439 45.2531 14.0996 42.3079 16.878Z" fill="url(#paint3_linear_1202_6900)"/>
<path d="M41.9461 27.8817C40.5436 28.0634 40.7182 34.9462 39.8416 35.9655C38.965 36.9848 33.0549 38.4258 33.0044 39.8317C32.9539 41.2376 38.3687 43.3464 38.965 44.4008C39.5613 45.4552 39.0877 51.0052 40.7255 51.4302C42.3633 51.8552 45.7118 45.7554 46.8089 45.4252C47.906 45.0951 54.2962 48.2291 55.2692 47.0631C56.2422 45.8971 52.5931 41.5891 52.4642 40.5346C52.3352 39.4802 55.8938 34.9111 55.2692 33.8567C54.6446 32.8022 48.9579 33.8091 47.906 33.3295C46.8541 32.8499 43.3486 27.6999 41.9461 27.8817Z" fill="#C3AEE6"/>
<g filter="url(#filter2_f_1202_6900)">
<circle cx="95.1669" cy="58.6381" r="3.84513" fill="#CD91D7"/>
</g>
<g filter="url(#filter3_f_1202_6900)">
<circle cx="41.976" cy="58.6381" r="3.84513" fill="#CD91D7"/>
</g>
<path d="M55.4339 51.7341C55.4339 55.7078 52.5553 58.6524 49.3458 58.6524C46.1363 58.6524 43.2577 55.7078 43.2577 51.7341C43.2577 47.7604 46.1363 44.5391 49.3458 44.5391C52.5553 44.5391 55.4339 47.7604 55.4339 51.7341Z" fill="#040311"/>
<path d="M48.6609 48.8235C49.135 50.1224 50.64 50.8727 51.7049 50.4839C52.7698 50.0952 53.2859 48.7387 52.8117 47.4398C52.3376 46.1409 50.8327 45.3907 49.7678 45.7794C48.7028 46.1682 48.1867 47.5246 48.6609 48.8235Z" fill="#FAFAF9"/>
<path d="M81.3885 53.1907C81.3885 53.1907 81.9678 49.6661 86.5154 49.666C91.0629 49.666 91.6422 53.1907 91.6422 53.1907" stroke="#0D0C12" stroke-width="1.67826" stroke-linecap="round"/>
<path fill-rule="evenodd" clip-rule="evenodd" d="M67.7146 56.2715C67.1382 55.8414 66.2339 55.5882 66.3243 55.0138C66.4148 54.4394 67.2037 54.1343 68.1469 54.1521C68.9147 54.1666 69.7799 54.4394 69.8823 55.0139C69.9848 55.5884 69.1287 55.8414 68.6963 56.2715C68.3998 58.4608 71.8222 59.3103 72.2543 59.3226C77.2982 59.466 76.2777 56.8827 76.9983 57.8863C77.5308 58.628 77.1094 59.1797 75.8124 59.6098C75.6752 60.2919 75.3619 60.9793 74.9935 61.5106C74.5875 62.096 74.1146 62.4918 73.7369 62.4823C73.0163 62.4641 72.3288 59.999 72.0406 59.999C70.5923 59.999 68.4352 58.7087 68.1469 58.7087C67.8587 58.7087 65.9452 60.1884 64.5041 60.1884C64.2159 60.4752 63.3428 62.4823 62.7664 62.4823C62.5544 62.4823 62.3631 62.366 62.1629 62.1263C61.9038 61.8161 61.6298 61.2991 61.277 60.5599C61.1611 60.3169 61.0366 60.0499 60.9013 59.7583C60.1807 59.4716 58.7188 59.0338 59.5048 58.1736C60.8171 56.7373 59.0483 59.3226 63.6558 59.3226C64.0882 59.3226 68.1034 58.7481 67.7146 56.2715ZM74.9935 60.1836C74.9935 59.8964 73.0236 59.9183 72.918 60.1836C72.8123 60.4489 73.4471 61.9071 73.8075 61.9071C74.1678 61.9071 74.9935 60.4709 74.9935 60.1836ZM63.6375 60.3016C63.3284 60.1838 62.1252 60.0722 61.9514 60.1871C61.7413 60.3016 62.4131 61.9071 62.7733 61.9071C63.1335 61.9071 63.7861 60.3582 63.6375 60.3016Z" fill="black"/>
<path d="M72.918 60.1836C73.0236 59.9183 74.9935 59.8964 74.9935 60.1836C74.9935 60.4709 74.1678 61.9071 73.8075 61.9071C73.4471 61.9071 72.8123 60.4489 72.918 60.1836Z" fill="white"/>
<path d="M61.9514 60.1871C62.1252 60.0722 63.3284 60.1838 63.6375 60.3016C63.7861 60.3582 63.1335 61.9071 62.7733 61.9071C62.4131 61.9071 61.7413 60.3016 61.9514 60.1871Z" fill="white"/>
<path d="M63.2815 66.3981C64.1644 68.0685 65.7444 69.5696 68.5714 69.6024C71.994 69.642 73.5925 67.2702 74.3391 65.0459C74.3391 65.0459 72.737 62.2324 68.8919 62.2324C65.0467 62.2324 63.2815 66.3981 63.2815 66.3981Z" fill="#F26C95"/>
<path d="M73.7369 62.4823C73.0163 62.4641 72.3288 59.999 72.0406 59.999C70.5923 59.999 68.4352 58.7087 68.1469 58.7087C67.8587 58.7087 65.9452 60.1884 64.5041 60.1884C64.2159 60.4752 63.3428 62.4823 62.7664 62.4823C62.5544 62.4823 62.3631 62.366 62.1629 62.1263C62.1629 62.1263 62.1587 64.2741 63.2815 66.3981C63.2815 66.3981 65.0467 62.2324 68.8919 62.2324C72.737 62.2324 74.3391 65.0459 74.3391 65.0459C74.9935 63.0966 74.9935 61.5106 74.9935 61.5106C74.5875 62.096 74.1146 62.4918 73.7369 62.4823Z" fill="#B62C60"/>
<path d="M75.8124 59.6098C75.6752 60.2919 75.3619 60.9793 74.9935 61.5106C74.9935 61.5106 74.9935 63.0966 74.3391 65.0459C73.5925 67.2702 71.994 69.642 68.5714 69.6024C65.7444 69.5696 64.1644 68.0685 63.2815 66.3981C62.1587 64.2741 62.1629 62.1263 62.1629 62.1263C61.9038 61.8161 61.6298 61.2991 61.277 60.5599C61.277 60.5599 61.0464 70.0442 68.5714 70.1727C76.0965 70.3013 75.8124 59.6098 75.8124 59.6098Z" fill="black"/>
<path fill-rule="evenodd" clip-rule="evenodd" d="M95.8078 43.8984C95.8774 43.8985 95.9451 43.9234 96.0007 43.9695C96.0563 44.0157 96.0967 44.0805 96.1158 44.1541L96.4632 45.4917C96.538 45.7797 96.6783 46.042 96.8709 46.2539C97.0635 46.4657 97.302 46.6201 97.5639 46.7023L98.7799 47.0844C98.8468 47.1055 98.9056 47.15 98.9475 47.2111C98.9894 47.2722 99.0121 47.3467 99.0121 47.4233C99.0121 47.4998 98.9894 47.5743 98.9475 47.6354C98.9056 47.6966 98.8468 47.741 98.7799 47.7621L97.5639 48.1442C97.302 48.2265 97.0635 48.3808 96.8709 48.5926C96.6783 48.8045 96.538 49.0668 96.4632 49.3549L96.1158 50.6924C96.0967 50.766 96.0563 50.8308 96.0007 50.8768C95.9451 50.9229 95.8774 50.9478 95.8078 50.9478C95.7382 50.9478 95.6705 50.9229 95.6149 50.8768C95.5593 50.8308 95.5189 50.766 95.4997 50.6924L95.1524 49.3549C95.0776 49.0668 94.9373 48.8045 94.7447 48.5926C94.5521 48.3808 94.3136 48.2265 94.0517 48.1442L92.8357 47.7621C92.7688 47.741 92.71 47.6966 92.6681 47.6354C92.6262 47.5743 92.6035 47.4998 92.6035 47.4233C92.6035 47.3467 92.6262 47.2722 92.6681 47.2111C92.71 47.15 92.7688 47.1055 92.8357 47.0844L94.0517 46.7023C94.3136 46.6201 94.5521 46.4657 94.7447 46.2539C94.9373 46.042 95.0776 45.7797 95.1524 45.4917L95.4997 44.1541C95.5189 44.0805 95.5593 44.0157 95.6148 43.9695C95.6704 43.9234 95.7382 43.8985 95.8078 43.8984Z" fill="#FFE031"/>
<g filter="url(#filter4_i_1202_6900)">
<circle cx="95.8856" cy="70.0956" r="3.76744" fill="#A289CB"/>
</g>
<circle cx="95.8856" cy="70.0956" r="3.44701" stroke="black" stroke-width="0.640854"/>
<g filter="url(#filter5_i_1202_6900)">
<circle cx="92.6035" cy="76.5819" r="7.69025" fill="#A289CB"/>
</g>
<circle cx="92.6035" cy="76.5819" r="7.36983" stroke="black" stroke-width="0.640854"/>
<defs>
<filter id="filter0_i_1202_6900" x="26.2749" y="-4.48598" width="83.4231" height="89.1266" filterUnits="userSpaceOnUse" color-interpolation-filters="sRGB">
<feFlood flood-opacity="0" result="BackgroundImageFix"/>
<feBlend mode="normal" in="SourceGraphic" in2="BackgroundImageFix" result="shape"/>
<feColorMatrix in="SourceAlpha" type="matrix" values="0 0 0 0 0 0 0 0 0 0 0 0 0 0 0 0 0 0 127 0" result="hardAlpha"/>
<feOffset dy="-4.48598"/>
<feGaussianBlur stdDeviation="3.20427"/>
<feComposite in2="hardAlpha" operator="arithmetic" k2="-1" k3="1"/>
<feColorMatrix type="matrix" values="0 0 0 0 0.380392 0 0 0 0 0.25098 0 0 0 0 0.607843 0 0 0 0.38 0"/>
<feBlend mode="normal" in2="shape" result="effect1_innerShadow_1202_6900"/>
</filter>
<filter id="filter1_i_1202_6900" x="26.2749" y="-4.48598" width="83.4231" height="89.1266" filterUnits="userSpaceOnUse" color-interpolation-filters="sRGB">
<feFlood flood-opacity="0" result="BackgroundImageFix"/>
<feBlend mode="normal" in="SourceGraphic" in2="BackgroundImageFix" result="shape"/>
<feColorMatrix in="SourceAlpha" type="matrix" values="0 0 0 0 0 0 0 0 0 0 0 0 0 0 0 0 0 0 127 0" result="hardAlpha"/>
<feOffset dy="-4.48598"/>
<feGaussianBlur stdDeviation="3.20427"/>
<feComposite in2="hardAlpha" operator="arithmetic" k2="-1" k3="1"/>
<feColorMatrix type="matrix" values="0 0 0 0 0.380392 0 0 0 0 0.25098 0 0 0 0 0.607843 0 0 0 0.38 0"/>
<feBlend mode="normal" in2="shape" result="effect1_innerShadow_1202_6900"/>
</filter>
<filter id="filter2_f_1202_6900" x="88.7584" y="52.2296" width="12.8171" height="12.8173" filterUnits="userSpaceOnUse" color-interpolation-filters="sRGB">
<feFlood flood-opacity="0" result="BackgroundImageFix"/>
<feBlend mode="normal" in="SourceGraphic" in2="BackgroundImageFix" result="shape"/>
<feGaussianBlur stdDeviation="1.28171" result="effect1_foregroundBlur_1202_6900"/>
</filter>
<filter id="filter3_f_1202_6900" x="35.5674" y="52.2296" width="12.8171" height="12.8173" filterUnits="userSpaceOnUse" color-interpolation-filters="sRGB">
<feFlood flood-opacity="0" result="BackgroundImageFix"/>
<feBlend mode="normal" in="SourceGraphic" in2="BackgroundImageFix" result="shape"/>
<feGaussianBlur stdDeviation="1.28171" result="effect1_foregroundBlur_1202_6900"/>
</filter>
<filter id="filter4_i_1202_6900" x="92.1182" y="64.4056" width="7.53491" height="9.45772" filterUnits="userSpaceOnUse" color-interpolation-filters="sRGB">
<feFlood flood-opacity="0" result="BackgroundImageFix"/>
<feBlend mode="normal" in="SourceGraphic" in2="BackgroundImageFix" result="shape"/>
<feColorMatrix in="SourceAlpha" type="matrix" values="0 0 0 0 0 0 0 0 0 0 0 0 0 0 0 0 0 0 127 0" result="hardAlpha"/>
<feOffset dy="-1.92256"/>
<feGaussianBlur stdDeviation="1.28171"/>
<feComposite in2="hardAlpha" operator="arithmetic" k2="-1" k3="1"/>
<feColorMatrix type="matrix" values="0 0 0 0 0.556863 0 0 0 0 0.447059 0 0 0 0 0.737255 0 0 0 1 0"/>
<feBlend mode="normal" in2="shape" result="effect1_innerShadow_1202_6900"/>
</filter>
<filter id="filter5_i_1202_6900" x="84.9132" y="66.969" width="15.3805" height="17.3034" filterUnits="userSpaceOnUse" color-interpolation-filters="sRGB">
<feFlood flood-opacity="0" result="BackgroundImageFix"/>
<feBlend mode="normal" in="SourceGraphic" in2="BackgroundImageFix" result="shape"/>
<feColorMatrix in="SourceAlpha" type="matrix" values="0 0 0 0 0 0 0 0 0 0 0 0 0 0 0 0 0 0 127 0" result="hardAlpha"/>
<feOffset dy="-1.92256"/>
<feGaussianBlur stdDeviation="1.28171"/>
<feComposite in2="hardAlpha" operator="arithmetic" k2="-1" k3="1"/>
<feColorMatrix type="matrix" values="0 0 0 0 0.556863 0 0 0 0 0.447059 0 0 0 0 0.737255 0 0 0 1 0"/>
<feBlend mode="normal" in2="shape" result="effect1_innerShadow_1202_6900"/>
</filter>
<linearGradient id="paint0_linear_1202_6900" x1="101.516" y1="0.176633" x2="88.2085" y2="21.3154" gradientUnits="userSpaceOnUse">
<stop offset="0.137215" stop-color="#543291"/>
<stop offset="0.401763" stop-color="#A087CA"/>
<stop offset="1" stop-color="#A087CA"/>
</linearGradient>
<linearGradient id="paint1_linear_1202_6900" x1="36.2861" y1="-0.164093" x2="50.2412" y2="20.3256" gradientUnits="userSpaceOnUse">
<stop offset="0.137215" stop-color="#543291"/>
<stop offset="0.401763" stop-color="#A087CA"/>
<stop offset="1" stop-color="#A087CA"/>
</linearGradient>
<linearGradient id="paint2_linear_1202_6900" x1="101.516" y1="0.176633" x2="88.2085" y2="21.3154" gradientUnits="userSpaceOnUse">
<stop offset="0.137215" stop-color="#543291"/>
<stop offset="0.401763" stop-color="#A087CA"/>
<stop offset="1" stop-color="#A087CA"/>
</linearGradient>
<linearGradient id="paint3_linear_1202_6900" x1="36.2861" y1="-0.164093" x2="50.2412" y2="20.3256" gradientUnits="userSpaceOnUse">
<stop offset="0.137215" stop-color="#543291"/>
<stop offset="0.401763" stop-color="#A087CA"/>
<stop offset="1" stop-color="#A087CA"/>
</linearGradient>
</defs>
</svg>
