<svg width="66" height="70" viewBox="0 0 66 70" fill="none" xmlns="http://www.w3.org/2000/svg">
<path d="M1.76516 43.6126C1.34136 42.7674 0.865462 39.9124 0.737513 38.9009C-0.460708 29.4277 1.45643 19.9942 7.26558 12.3697C12.3244 5.75093 19.8014 1.40819 28.0571 0.293647C45.0255 -1.97941 60.2891 9.1759 63.8518 25.7174C64.0078 26.4417 64.1304 27.1268 64.2284 27.8631L64.0742 27.8864L64.0852 27.9392C64.2337 28.6721 64.6095 32.5823 64.4688 33.2563L64.3885 33.32C63.9752 32.6548 64.0835 28.7063 63.6187 28.1575C63.6898 29.0864 64.133 32.088 63.9681 32.819C64.1667 33.2015 64.3156 33.583 64.2442 34.0194L64.156 34.158L63.9534 34.1929C63.4095 34.3386 61.4617 34.8953 61.1718 35.3495L60.889 35.4659C60.8616 36.6634 60.7694 37.5404 60.5567 38.7346L60.467 39.0418C60.0779 39.3281 58.9976 39.1978 58.6648 38.8415C58.5745 39.4204 58.6289 39.7423 58.0597 40.0311C58.4583 40.6261 59.233 42.4028 59.6031 43.1427C59.7072 43.3056 59.7359 43.3589 59.8785 43.4878C59.8897 43.8645 59.9413 44.0347 60.0352 44.4036C60.3046 45.0237 60.7318 46.9655 60.7005 47.6192L60.7931 48.2146L60.8279 48.3453L60.8927 48.3503C61.0973 48.3669 61.1704 48.3661 61.3525 48.4743L61.1123 49.0105C60.6176 50.2103 60.242 51.9793 59.6928 53.0146C60.6057 52.7675 61.5492 52.6371 62.4778 52.4619C62.9939 52.3646 63.5308 52.1927 64.0547 52.1755C64.2981 52.1676 64.5475 52.1942 64.7641 52.3128C64.939 52.4086 65.0566 52.5525 65.1047 52.7474C65.2808 53.4613 63.5287 57.5298 63.1849 58.5042C63.701 59.9508 64.9662 61.9367 65.1849 63.4828C65.2335 63.8265 63.5895 64.29 63.2473 64.3493C62.4639 64.5468 60.6442 64.9657 59.8567 65.032C59.8521 65.5812 59.8894 66.829 59.6685 67.2745C59.4788 68.1062 58.1513 68.1921 57.4541 68.3349C53.0906 69.229 48.8097 69.456 44.3797 69.6882C38.9923 69.9701 33.5964 70.0606 28.2026 69.9603C25.1156 69.8819 21.5256 69.6052 18.4396 69.4869C16.8457 69.4258 6.86625 68.5347 6.02213 67.8388C5.15554 67.2333 5.28431 66.1111 5.27978 65.1677C4.31368 65.0595 2.82582 64.7018 1.88502 64.446C1.74507 64.4193 1.60619 64.3875 1.4687 64.3501C0.998967 64.2221 0.279265 64.0067 0.0359875 63.554C-0.28739 62.9522 1.66814 59.459 1.9248 58.5407L1.91413 58.5045C1.40706 56.8345 0.590853 55.3001 0.133849 53.6114C-0.266756 52.1311 0.64278 52.0588 1.80037 52.2826C3.25357 52.5636 4.72869 52.7263 6.18399 53.012C5.10337 51.7715 4.77031 51.0621 4.04575 49.6226C3.39191 48.5592 2.8265 46.7096 2.3245 46.0608C0.172093 46.5222 1.39374 44.6979 1.76516 43.6126Z" fill="black"/>
<path d="M43.0439 8.00586C44.237 8.46098 44.4364 7.77766 45.1758 9.397C45.3673 9.81608 45.748 11.0158 46.0377 11.2639C46.1576 11.6133 46.42 12.3884 46.3626 12.7434C46.1297 13.9592 46.2023 15.8309 45.9437 17.2392C45.5664 17.1615 45.5006 16.7968 45.1242 16.7981L45.0055 16.8662C45.0439 17.0577 45.7645 17.6963 45.9663 17.8747C50.0813 21.513 52.2494 26.5294 52.4223 31.9775C52.4461 32.7242 52.5067 34.0357 51.9641 34.6444C52.1381 34.921 52.3965 35.3119 52.7282 35.4123C53.3844 35.7554 53.4582 36.2522 53.8948 36.6152C54.1148 37.1451 54.3455 37.6833 54.5418 38.2213C54.8178 38.799 55.1614 39.6443 55.4382 40.1623C55.6757 39.6056 55.9064 38.7496 56.2402 38.3094L56.418 37.3387C56.7418 37.5585 56.8603 37.7409 57.006 38.112L56.7537 38.16C57.1183 38.4698 57.1581 39.224 57.0055 39.6404L57.1702 39.8777C57.2549 40.5016 57.3535 41.2798 57.5246 41.8736C57.8835 43.1197 58.2739 44.0485 58.4896 45.3494C58.6767 47.8109 59.0475 47.3813 58.1207 49.9506C57.9307 50.9686 57.542 51.9393 56.9767 52.8071C56.5342 53.4863 55.9579 54.1808 55.7286 54.9717C55.4551 55.3422 53.0054 56.3363 52.4846 56.7903C52.4596 56.8121 52.3872 56.8419 52.353 56.8554C51.0524 57.2179 48.7393 57.3649 47.3431 57.393L46.2064 57.3825C45.4409 57.7072 45.2894 57.8401 44.4887 57.5697C43.3267 56.9976 42.1066 56.4846 41.4312 55.3342L41.3781 55.2052C41.1835 55.0732 41.2029 55.1197 40.9147 55.1385C40.44 55.5499 37.4845 56.2787 37.0358 55.4163C37.1954 54.8131 38.6218 54.8621 38.6998 54.2315L38.5624 54.0784C38.3191 54.0345 37.9907 54.1735 37.7444 54.2544C35.6747 54.754 32.271 55.4145 30.2064 54.9863C29.8142 54.9748 28.9858 54.717 28.6966 54.9682C28.9573 55.3419 29.7528 55.2854 30.0055 55.5679C30.0122 57.2187 28.5494 56.6416 27.522 56.448C27.5219 56.4479 27.1871 56.5783 27.1519 56.5919C26.3785 56.4974 25.3647 56.128 25.0804 55.3133C24.9745 55.0098 25.165 54.7367 25.3092 54.477C25.0867 54.3486 24.2759 54.1354 23.8872 53.9585C23.071 53.587 22.432 52.5213 21.8825 51.8159C21.8454 51.7684 21.6597 51.2691 21.5544 51.0875L21.5274 51.0414L21.8292 50.9048C21.2107 50.7274 21.2639 51.2644 20.8606 51.3815C20.4378 51.5043 19.5279 51.3329 19.0786 51.4743C18.8141 51.5575 18.662 51.8343 18.2823 52.0015C17.622 51.9923 17.7484 51.2041 17.5322 51.1668C16.3098 50.9563 16.3136 51.1166 15.3443 50.3021C16.4069 49.4211 16.683 49.6765 18.019 49.7238C18.2793 49.7329 18.5048 49.5902 18.8086 49.6159C19.725 50.5159 20.2286 48.9382 20.5926 48.2147C21.3709 48.3153 22.8163 48.7989 23.5295 48.7312C24.1392 48.6897 26.1639 49.3871 26.6327 48.8747L26.5834 48.72C26.1333 48.4456 23.0789 48.2477 22.3429 47.9028C21.9347 47.7114 21.7571 47.6736 21.3708 47.3575C20.9754 47.0338 20.9505 46.8967 20.5331 47.1851C20.123 47.1495 19.2623 46.7179 18.8848 46.5173C10.8737 42.2593 9.71668 31.9171 13.5837 24.4306C14.2989 23.046 15.5851 21.7527 16.2862 20.4176C15.8775 20.6657 15.3962 21.114 15.0248 21.4391C14.6427 20.9007 13.8826 16.3669 13.7572 15.4633C13.5643 13.8714 13.6995 12.2944 14.6271 10.9397C17.9916 11.8359 19.8212 12.8186 22.3873 15.0986C21.9719 15.3876 20.8364 16.1118 20.692 16.5449C20.9804 16.6128 21.907 15.9536 22.1829 15.8147C22.382 15.7145 22.6616 15.6288 22.8767 15.5611C23.0645 15.7151 23.3426 16.0203 23.5761 15.9115C23.5708 15.6774 23.4511 15.4944 23.3436 15.2793C23.9666 14.7916 25.5366 14.2809 26.3275 14.0054C29.8606 12.7744 33.1957 12.7197 36.8058 13.5911C37.0182 13.8612 36.6842 13.8734 36.91 14.2556L37.0603 14.2767C37.3032 14.1787 37.3963 13.9456 37.5313 13.712C38.5658 14.0524 38.9112 14.1959 39.9949 14.2644C39.2616 13.8858 38.518 13.5556 37.7655 13.2192C38.8708 11.7322 39.4152 10.564 41.067 9.34076C41.4753 9.29734 42.6315 8.32083 43.0439 8.00586Z" fill="#9070B7"/>
<path d="M47.9267 31.1123C48.6586 31.8708 48.9384 32.3665 49.8146 33.0004L49.9166 33.1959C50.4578 33.7014 50.8657 33.5263 51.2829 33.9612L51.4925 34.1934L51.9642 34.6443C52.1382 34.9208 52.3965 35.3118 52.7283 35.4121C53.3845 35.7553 53.4583 36.2521 53.8949 36.6151C54.1148 37.145 54.3455 37.6832 54.5418 38.2212C54.8178 38.7989 55.1615 39.6441 55.4383 40.1622C55.6758 39.6055 55.9064 38.7495 56.2403 38.3092L56.4181 37.3385C56.7418 37.5584 56.8604 37.7407 57.0061 38.1119L56.7538 38.1598C57.1184 38.4697 57.1581 39.2239 57.0056 39.6403L57.1703 39.8776C57.255 40.5015 57.3536 41.2797 57.5247 41.8735C57.8836 43.1195 58.274 44.0484 58.4897 45.3493C58.6767 47.8108 59.0476 47.3812 58.1208 49.9505C57.9308 50.9685 57.5421 51.9392 56.9768 52.807C56.5343 53.4862 55.9579 54.1807 55.7287 54.9716C55.4552 55.3421 53.0055 56.3362 52.4846 56.7901C52.4597 56.8119 52.3872 56.8418 52.3531 56.8553C51.0525 57.2178 48.7394 57.3648 47.3432 57.3929L46.2065 57.3824C45.441 57.7071 45.2894 57.8399 44.4887 57.5696C43.3267 56.9975 42.1066 56.4845 41.4313 55.3341L41.3782 55.205C41.1836 55.0731 41.2029 55.1195 40.9147 55.1384L40.6994 54.7306C41.1304 55.0534 41.1502 55.021 41.682 55.0193C41.6256 54.7271 41.3001 54.3061 41.1188 54.057C38.8719 50.9699 39.0527 47.1293 40.7325 43.8412C41.082 43.1571 41.4584 42.6008 41.7197 41.8385C41.8744 41.3316 42.1405 40.0975 42.526 39.8429C43.1296 39.8898 43.6021 41.3221 43.9686 41.8071C44.0985 41.5944 44.1122 41.4731 44.1637 41.2352C44.2412 41.3069 44.2719 41.3086 44.3708 41.3443C44.6808 41.2225 44.9038 40.938 45.135 40.6912C45.846 39.7882 46.2911 38.1553 46.447 37.029C46.5963 35.95 46.2326 34.9309 45.8742 33.9311C45.7991 33.725 45.7196 33.5877 45.7766 33.384C47.1417 32.2866 47.0939 33.4035 47.9267 31.1123Z" fill="#FDE381"/>
<path d="M47.9267 31.1123C48.6586 31.8708 48.9384 32.3665 49.8146 33.0004L49.9166 33.1959C50.4578 33.7014 50.8657 33.5263 51.2829 33.9612L51.4925 34.1934L51.9642 34.6443C52.1382 34.9208 52.3965 35.3118 52.7283 35.4121C53.3845 35.7553 53.4583 36.2521 53.8949 36.6151C54.1148 37.145 54.3455 37.6832 54.5418 38.2212C54.8178 38.7989 55.1615 39.6441 55.4383 40.1622C55.6758 39.6055 55.9064 38.7495 56.2403 38.3092L56.4181 37.3385C56.7418 37.5584 56.8604 37.7407 57.0061 38.1119L56.7538 38.1598C57.1184 38.4697 57.1581 39.2239 57.0056 39.6403L57.1703 39.8776C57.255 40.5015 57.3536 41.2797 57.5247 41.8735C57.8836 43.1195 58.274 44.0484 58.4897 45.3493C58.6767 47.8108 59.0476 47.3812 58.1208 49.9505C58.2824 47.9663 57.6995 46.1431 56.7772 44.3565C56.6159 44.0439 56.0532 43.6002 55.7203 42.9885L55.7027 42.9556C54.9519 44.1273 54.1729 44.0774 53.8825 44.4651C53.8088 44.4979 53.7343 44.5289 53.6589 44.5576C53.0489 44.7844 52.6415 44.3352 52.4417 43.7956C52.0316 42.6362 51.9082 41.4204 51.3321 40.3116C51.0006 39.6734 49.7256 39.2897 50.1556 38.5373C49.6203 38.2295 49.33 38.0102 48.8374 37.6311C48.9611 40.0092 48.3401 42.2251 46.7986 44.1094C46.635 44.3095 46.1993 44.7076 45.9544 44.7914C43.9373 46.9254 43.1338 48.1056 42.9452 51.0597C42.3896 50.7077 42.0009 50.3678 41.6842 49.7758C41.4648 49.3657 41.5506 48.6914 41.3462 48.3561C41.3443 48.4475 41.3358 48.481 41.2805 48.5542L41.2117 48.1948L41.1241 48.1513C40.8193 48.4237 40.7478 48.8713 40.6511 49.2601C40.2999 50.6731 41.5767 52.7935 42.4632 53.8482C43.5616 55.155 45.434 55.9931 46.8816 56.8676C47.1731 57.0416 47.1178 57.2916 47.3432 57.3929L46.2065 57.3824C45.441 57.7071 45.2894 57.8399 44.4887 57.5696C43.3267 56.9975 42.1066 56.4845 41.4313 55.3341L41.3782 55.205C41.1836 55.0731 41.2029 55.1195 40.9147 55.1384L40.6994 54.7306C41.1304 55.0534 41.1502 55.021 41.682 55.0193C41.6256 54.7271 41.3001 54.3061 41.1188 54.057C38.8719 50.9699 39.0527 47.1293 40.7325 43.8412C41.082 43.1571 41.4584 42.6008 41.7197 41.8385C41.8744 41.3316 42.1405 40.0975 42.526 39.8429C43.1296 39.8898 43.6021 41.3221 43.9686 41.8071C44.0985 41.5944 44.1122 41.4731 44.1637 41.2352C44.2412 41.3069 44.2719 41.3086 44.3708 41.3443C44.6808 41.2225 44.9038 40.938 45.135 40.6912C45.846 39.7882 46.2911 38.1553 46.447 37.029C46.5963 35.95 46.2326 34.9309 45.8742 33.9311C45.7991 33.725 45.7196 33.5877 45.7766 33.384C47.1417 32.2866 47.0939 33.4035 47.9267 31.1123Z" fill="#EF7E5D"/>
<path d="M50.1555 38.5361C51.4369 39.5366 52.1924 40.5097 52.8539 42.0083C53.0864 42.5351 53.3558 42.7384 53.87 42.9706C54.3977 42.7814 55.0228 42.5749 55.5154 42.3282C56.0316 41.542 56.3498 40.0842 56.7551 39.7996C57.0258 39.7767 56.9165 39.759 57.1701 39.8765C57.2549 40.5003 57.3535 41.2785 57.5245 41.8724C57.8835 43.1184 58.2739 44.0472 58.4896 45.3481C58.6766 47.8096 59.0475 47.38 58.1206 49.9493C58.2823 47.9651 57.6994 46.142 56.7771 44.3554C56.6157 44.0427 56.0531 43.5991 55.7202 42.9874L55.7026 42.9545C54.9518 44.1261 54.1728 44.0763 53.8824 44.4639C53.8087 44.4968 53.7342 44.5277 53.6588 44.5565C53.0487 44.7833 52.6414 44.334 52.4416 43.7945C52.0315 42.635 51.908 41.4193 51.332 40.3104C51.0005 39.6722 49.7255 39.2886 50.1555 38.5361Z" fill="#F89B4C"/>
<path d="M47.9266 31.1123C48.6585 31.8708 48.9383 32.3665 49.8145 33.0004L49.9165 33.1959C50.4577 33.7014 50.8656 33.5263 51.2828 33.9612L51.4923 34.1934L51.964 34.6443C52.138 34.9208 52.3964 35.3118 52.7282 35.4121C53.3844 35.7553 53.4582 36.2521 53.8947 36.6151C54.1147 37.145 54.3454 37.6832 54.5417 38.2212C54.8177 38.7989 55.1613 39.6441 55.4382 40.1622C55.6756 39.6055 55.9063 38.7495 56.2401 38.3092L56.418 37.3385C56.7417 37.5584 56.8603 37.7407 57.0059 38.1119L56.7537 38.1598C56.7273 38.3914 56.8352 38.2214 56.8048 38.333C56.7315 38.6023 56.6674 38.7122 56.7046 38.9935L57.0037 39.1057L56.9958 39.2332C56.8442 39.2189 56.7255 39.2153 56.5731 39.2135C56.1904 39.6818 55.8184 40.62 55.3766 41.1042C55.1067 41.3999 54.8819 41.1447 54.7136 41.3372L54.8932 41.5705L54.8485 41.6339C54.6966 41.5599 54.4181 41.2111 54.2895 41.0645C54.2942 40.8825 54.3159 40.266 54.2577 40.1413C53.3601 38.2158 52.308 35.9564 50.9137 34.4011C50.7185 34.2435 50.3377 34.0318 50.1055 33.8793C49.4254 33.4325 49.088 33.0738 48.5597 32.4707C48.1559 32.6808 47.8071 32.874 47.5101 33.2216C46.9722 33.8339 46.538 33.4877 46.2795 33.9817C46.0852 33.9077 46.0684 33.8896 45.8741 33.9311C45.7989 33.725 45.7195 33.5877 45.7765 33.384C47.1415 32.2866 47.0937 33.4035 47.9266 31.1123Z" fill="#DE533D"/>
<path d="M54.5416 38.2217C54.8176 38.7994 55.1612 39.6446 55.438 40.1627C55.6755 39.606 55.9062 38.75 56.24 38.3097C56.6972 39.0325 55.5662 40.514 55.1483 41.1225C55.2175 39.9365 54.4966 39.0238 54.5416 38.2217Z" fill="#4F1E22"/>
<path d="M49.9165 33.1953C50.4577 33.7008 50.8656 33.5257 51.2828 33.9607L51.4923 34.1928C51.3081 34.2261 51.1246 34.2631 50.9419 34.304C50.4636 33.855 50.2778 33.9512 49.9165 33.1953Z" fill="#E15460"/>
<path d="M42.9633 42.5576C43.1119 42.7877 44.052 43.9332 44.0632 44.0064C43.8366 43.9284 43.6629 43.4471 43.3606 43.3388C43.2918 43.499 43.3124 43.7831 43.3449 43.9513C43.5365 44.9388 43.6818 45.5673 44.3758 46.3055C44.7188 45.9029 45.4883 44.9106 45.9544 44.7899C43.9372 46.924 43.1337 48.1042 42.9452 51.0582C42.3895 50.7062 42.0009 50.3663 41.6841 49.7743C41.4648 49.3642 41.5505 48.6899 41.3461 48.3546C41.1228 46.896 42.4074 43.915 42.9633 42.5576Z" fill="#FDC767"/>
<path d="M45.8738 33.931C46.0681 33.8895 46.0849 33.9076 46.2792 33.9816L46.6742 34.0926C46.5701 34.4813 46.7025 34.5948 46.8291 34.9549C47.516 36.9096 46.6782 40.0172 45.1376 41.4002C45.0865 41.1223 45.1106 40.9709 45.1345 40.6911C45.8455 39.7881 46.2906 38.1552 46.4465 37.0289C46.5959 35.9499 46.2321 34.9308 45.8738 33.931Z" fill="#DE533D"/>
<path d="M40.6992 54.7295C41.1303 55.0522 41.1501 55.0199 41.6819 55.0182C43.4639 56.0292 43.9615 56.8331 46.2063 57.3813C45.4408 57.706 45.2893 57.8388 44.4886 57.5685C43.3266 56.9963 42.1065 56.4834 41.4312 55.333L41.378 55.2039C41.1834 55.072 41.2028 55.1184 40.9146 55.1373L40.6992 54.7295Z" fill="#A0251F"/>
<path d="M44.1638 41.2344C44.2414 41.3061 44.272 41.3079 44.3709 41.3435C44.6809 41.2217 44.9039 40.9373 45.1351 40.6904C45.1112 40.9702 45.0871 41.1216 45.1382 41.3995C44.9196 41.6449 44.4546 42.2682 44.2115 42.3123L44.065 42.2345L43.9688 41.8063C44.0986 41.5936 44.1123 41.4724 44.1638 41.2344Z" fill="#E15460"/>
<path d="M47.5102 33.2197C48.0454 33.3431 47.8817 33.0781 48.246 33.1624C47.5458 33.5558 47.7009 33.7831 47.4125 33.9467C47.1137 33.8806 47.0963 33.9002 46.8771 34.1508L46.6746 34.0908L46.2795 33.9798C46.538 33.4858 46.9723 33.832 47.5102 33.2197Z" fill="#EF7E5D"/>
<path d="M48.2461 33.1641C48.4571 33.6496 48.4776 33.7982 48.3975 34.322C48.1327 34.1167 47.7832 34.0976 47.4126 33.9483C47.701 33.7847 47.5459 33.5574 48.2461 33.1641Z" fill="#EF7E5D"/>
<path d="M46.8772 34.1515C47.0964 33.9009 47.1138 33.8814 47.4125 33.9475C47.7831 34.0967 48.1326 34.1158 48.3975 34.3211C48.3702 34.4483 48.3381 34.4977 48.2805 34.6109L48.0741 34.6756C47.6974 34.6316 47.2259 34.3381 46.8772 34.1515Z" fill="#F6A888"/>
<path d="M55.7025 42.9561L55.7202 42.9889C56.0531 43.6006 56.6157 44.0443 56.777 44.3569C57.6993 46.1435 58.2822 47.9667 58.1206 49.9509C57.9306 50.9689 57.5419 51.9396 56.9767 52.8074C56.5341 53.4866 55.9578 54.1811 55.7285 54.972C55.455 55.3425 53.0054 56.3366 52.4845 56.7906C52.4596 56.8123 52.3871 56.8422 52.353 56.8557C51.0524 57.2182 48.7392 57.3652 47.343 57.3933C47.1176 57.292 47.173 57.042 46.8815 56.868C45.4338 55.9935 43.5615 55.1555 42.4631 53.8486C41.5766 52.7939 40.2997 50.6735 40.651 49.2605C40.7476 48.8717 40.8192 48.4241 41.124 48.1517L41.2116 48.1952L41.2804 48.5546C41.3356 48.4814 41.3442 48.4479 41.346 48.3565C41.5504 48.6918 41.4647 49.3661 41.6841 49.7762C42.0008 50.3682 42.3894 50.7081 42.9451 51.0601C43.5313 54.0181 44.652 55.5246 47.6669 56.2536C50.0691 56.8347 51.9777 56.1966 54.0811 55.0063C55.6913 54.0951 56.1656 52.5198 56.6237 50.846C57.0186 49.4277 56.1379 47.3145 55.2785 46.1873C54.7582 45.5048 54.4267 45.3147 53.8824 44.4655C54.1728 44.0778 54.9517 44.1277 55.7025 42.9561Z" fill="#FAB155"/>
<path d="M47.1094 45.5741C47.8463 45.5723 52.4517 45.4852 52.7603 45.7441C52.9098 46.0959 52.7759 46.8294 52.6412 47.1887C51.7758 49.4969 50.5284 51.6953 49.8513 54.0733C49.227 54.36 48.5251 54.2112 47.8861 54.0775C48.0834 52.9486 49.9521 48.6701 50.5042 47.4827C49.3487 47.5155 48.0529 47.5289 46.9055 47.42C46.8293 47.0591 46.7227 46.0525 46.8683 45.6907C46.906 45.597 46.9836 45.6072 47.1094 45.5741Z" fill="#4F1E22"/>
<path d="M41.382 40.9609C41.599 41.3305 41.6639 41.4194 41.7192 41.8379C41.4579 42.6003 41.0815 43.1565 40.732 43.8407C39.0523 47.1288 38.8715 50.9694 41.1183 54.0565C41.2997 54.3056 41.6251 54.7265 41.6816 55.0187C41.1498 55.0205 41.1299 55.0528 40.6989 54.7301C40.2044 54.0429 39.3845 52.1155 38.8583 51.2937L38.6449 50.024L38.6563 49.5725C38.2251 45.9397 40.3187 43.9963 41.382 40.9609Z" fill="#C83E2D"/>
<path d="M21.8291 50.9043C21.7751 51.8276 22.4678 52.3442 23.0415 52.9704C23.6205 53.0786 24.1547 53.704 24.6532 54.0195C24.8843 54.1657 25.2153 54.2655 25.4024 54.4325C25.4212 54.6759 25.3068 54.9011 25.2199 55.1227C25.9076 55.3829 25.5397 56.7106 27.4602 56.3039C27.9139 56.2078 29.5499 57.2708 29.8694 55.7489C29.5983 55.3388 28.9932 55.5639 28.6638 55.2798C28.5859 54.9958 28.5881 55.1159 28.6659 54.8225C28.7666 54.7223 28.8304 54.6262 29.0031 54.6653C29.4143 54.7583 30.4149 54.8205 30.7623 54.899C31.8477 55.1215 35.0273 53.2313 36.4353 54.3793C36.4082 54.3572 37.4578 54.1505 37.5437 54.1313C37.8463 54.0607 38.1128 53.9191 38.4244 53.8778C38.9686 53.8054 38.7937 54.6834 39.23 55.0836C39.6727 55.0278 39.6897 54.7042 40.2124 55.0996C40.3638 55.2142 40.5046 55.1526 40.6734 55.0988C40.5219 54.8427 40.4556 54.6307 40.3345 54.3636C39.8863 53.3755 39.1344 52.4183 38.7827 51.3991L38.8587 51.2938C39.3849 52.1157 40.2048 54.0431 40.6993 54.7303L40.9146 55.138C40.44 55.5494 37.4845 56.2782 37.0358 55.4158C37.1954 54.8126 38.6218 54.8617 38.6998 54.231L38.5624 54.0779C38.319 54.034 37.9907 54.1731 37.7443 54.2539C35.6747 54.7535 32.2709 55.414 30.2063 54.9858C29.8142 54.9743 28.9858 54.7165 28.6965 54.9677C28.9572 55.3414 29.7527 55.2849 30.0055 55.5674C30.0121 57.2182 28.5494 56.6411 27.522 56.4475C27.5218 56.4474 27.187 56.5778 27.1519 56.5914C26.3785 56.4969 25.3647 56.1275 25.0804 55.3129C24.9745 55.0093 25.165 54.7362 25.3092 54.4765C25.0866 54.3481 24.2758 54.1349 23.8871 53.958C23.0709 53.5865 22.432 52.5208 21.8824 51.8154C21.8454 51.7679 21.6596 51.2686 21.5544 51.087L21.5273 51.0409L21.8291 50.9043Z" fill="#693C94"/>
<path d="M41.3823 40.9605C41.4925 40.2385 41.3983 39.1672 41.8062 38.8341C42.4092 38.6933 43.1071 39.4247 43.4896 39.8437C43.8692 40.2597 44.0273 40.6972 44.1635 41.2343C44.112 41.4722 44.0983 41.5934 43.9684 41.8062C43.6019 41.3211 43.1294 39.8889 42.5258 39.842C42.1403 40.0965 41.8742 41.3307 41.7195 41.8375C41.6642 41.4191 41.5993 41.3301 41.3823 40.9605Z" fill="#DE533D"/>
<path d="M50.1345 32.1099C50.4954 31.8976 50.5968 31.8874 50.9973 31.9901C51.11 32.0194 51.2222 32.0507 51.3337 32.084C51.4127 32.8057 51.0789 33.2713 51.2827 33.961C50.8655 33.5261 50.4577 33.7011 49.9165 33.1956L49.8145 33.0002C50.0429 32.7405 50.1206 32.4443 50.1345 32.1099Z" fill="#AD4859"/>
<path d="M50.1348 32.1099C50.4956 31.8976 50.597 31.8874 50.9976 31.9901C51.1103 32.0194 51.2225 32.0507 51.334 32.084C51.2796 32.4766 51.2876 32.5067 51.0359 32.7361C50.5265 32.833 50.3132 32.5538 50.1348 32.1099Z" fill="#DE533D"/>
<path d="M35.8965 50.836C35.842 49.7804 36.7193 49.9494 37.533 49.8838L37.7804 50.2086C37.0482 50.3271 36.0986 50.3853 36.094 51.2927C36.0404 51.1287 35.97 50.9913 35.8965 50.836Z" fill="#512648"/>
<path d="M37.5332 49.8833C37.8835 49.8039 38.3053 49.6718 38.6569 49.5723L38.6456 50.0238C38.3751 50.0839 38.0489 50.1656 37.7806 50.2081L37.5332 49.8833Z" fill="#451E3D"/>
<path d="M35.8968 50.8359C35.9703 50.9912 36.0407 51.1287 36.0943 51.2926C35.9988 51.4037 36.0566 51.3594 35.9032 51.4115C35.8048 51.216 35.8597 51.0604 35.8968 50.8359Z" fill="#451E3D"/>
<path d="M43.2206 24.3242C44.1829 25.1861 43.4998 25.6631 42.877 26.5089C44.7475 27.2298 45.8734 28.6631 45.8595 30.7341C45.8488 32.3396 45.098 32.9725 44.0517 34.0034C42.9386 34.2786 42.5951 34.2928 41.4915 34.1035C40.1248 33.7707 39.4101 32.618 38.9909 31.299C38.9057 31.0308 38.8808 30.278 38.8808 29.7882C38.9909 29.2088 38.5839 29.8899 38.1387 29.6949L38.1006 29.4847C38.3974 28.9452 39.4371 28.2388 39.8761 27.7869C40.7667 26.8699 42.525 25.3142 43.2206 24.3242Z" fill="black"/>
<path d="M40.7075 28.0599C41.1608 28.0305 41.6849 28.1181 41.9572 28.4958C42.614 29.4074 41.8875 30.1049 41.2973 30.6053C41.2126 30.5972 41.128 30.5882 41.0435 30.5783C40.2751 30.4877 40.1386 30.2906 39.6807 29.7066C39.7118 29.1105 39.7644 28.9217 40.0642 28.4058C40.2716 28.2884 40.4961 28.173 40.7075 28.0599Z" fill="white"/>
<path d="M43.4992 31.3822C44.4996 31.2178 44.492 32.1117 43.9042 32.61C43.461 32.4385 43.0775 32.2755 43.0547 31.7531C43.2254 31.4706 43.1757 31.553 43.4992 31.3822Z" fill="#693C94"/>
<path d="M35.8343 33.7295C35.9239 33.734 35.9302 33.7529 36.0182 33.8015C36.0296 34.0124 35.7823 34.3141 35.6509 34.5092C35.7615 34.6501 35.8777 34.7866 35.9993 34.9181C36.2704 35.2054 36.7194 35.4223 37.1136 35.4111C38.0914 35.3834 38.4346 34.2847 38.9737 34.1951C39.4103 34.1225 38.9902 35.0595 38.9902 35.5481C38.9902 36.3359 39.7624 38.14 39.5216 39.4369C39.2277 41.02 38.2869 42.3041 36.1051 42.44L36.0625 42.432C35.2584 42.2751 34.9859 42.163 34.2974 41.7212C32.4158 40.5135 32.6951 38.3506 31.6735 36.6395C31.5976 36.5125 31.5933 36.2616 31.6665 36.13C31.9051 35.7875 32.576 36.2071 32.9593 36.3359C33.7503 36.6016 35.316 35.6605 34.8923 34.7438C34.7639 34.4663 34.3155 34.3772 34.0119 34.2847C34.7034 33.9773 35.0838 33.8111 35.8343 33.7295Z" fill="black"/>
<path d="M38.6111 35.2782C38.5218 36.958 39.1667 37.7782 39.0653 39.0806C38.9559 40.4875 37.7683 41.492 36.7274 41.8357C36.5326 41.8983 36.3359 41.9551 36.1378 42.0061C34.8514 41.5739 33.9868 41.1486 33.3502 39.8622L33.3314 39.824L33.1184 39.4578C32.8497 38.7644 32.5 36.9449 32.5 36.9449C32.5 36.9449 32.9691 36.9177 33.4763 36.8308L34.1667 37.5004V36.6671C35 36.3893 35.1184 35.822 35.4958 35.2305C36.2337 35.7094 36.8346 35.9706 37.5 35.8338L38.0555 36.3893L38.1847 35.556C38.3237 35.4797 38.4654 35.3875 38.6111 35.2782Z" fill="#931E28"/>
<path d="M35.3565 38.4279C36.2495 38.2344 36.6753 38.0912 37.5199 38.5135C37.7656 38.7086 38.3266 39.1038 38.6008 39.2625C39.0149 40.4964 37.7684 41.4921 36.7276 41.8358C36.5328 41.8984 36.3361 41.9552 36.1379 42.0063C34.8515 41.574 33.987 41.1487 33.3504 39.8624L33.3315 39.8242C33.4733 39.5874 33.8465 39.2729 34.0615 39.0744C34.682 38.7216 34.6799 38.6574 35.3565 38.4279Z" fill="#E15460"/>
<path d="M35.3564 38.4278L35.4086 38.2422C35.9476 37.9449 37.5129 37.5311 37.5198 38.5134C36.6752 38.0912 36.2494 38.2343 35.3564 38.4278Z" fill="#720E19"/>
<path d="M33.1184 39.4569C33.4736 39.1744 33.6033 38.9104 34.0613 39.0734C33.8464 39.2719 33.4732 39.5864 33.3314 39.8232L33.1184 39.4569Z" fill="#720E19"/>
<path d="M22.4493 31.3477C23.7144 31.5046 26.429 32.7932 28.0292 32.6774C28.2285 32.663 29.0968 32.7456 29.3376 32.6774L29.5632 32.8951C29.5632 33.2571 28.8888 33.3333 28.683 33.3765C29.5842 35.463 30.0699 37.1259 28.2415 38.9871C27.8273 39.3015 27.5289 39.5533 27.0266 39.6931C23.3375 40.7192 21.4553 36.5761 23.0954 33.7026C23.2904 33.3611 23.5391 33.0802 23.7265 32.7512C23.2746 32.5048 22.5468 32.1472 22.2062 31.7913C22.1959 31.5535 22.2421 31.5872 22.4493 31.3477Z" fill="black"/>
<path d="M24.7219 33.1113C25.6183 33.1816 25.7716 33.7432 26.0156 34.4774C25.9385 34.7618 25.8469 35.0555 25.7631 35.3392C25.3393 35.5639 25.1606 35.6261 24.7136 35.7747C23.0031 35.4828 23.0577 33.8207 24.7219 33.1113Z" fill="white"/>
<path d="M27.6699 37.1552C27.3745 37.5099 26.8063 38.1135 26.303 37.8648C26.2485 37.6814 26.2746 37.6519 26.3387 37.4602C26.4938 37.2772 27.0458 37.1912 27.3619 37.0514L27.4177 37.0264L27.6699 37.1552Z" fill="#15082D"/>
<path d="M27.4175 37.0263C27.4261 36.7726 27.4001 36.5219 27.5517 36.3299C27.8104 36.1698 27.6979 36.2001 27.9818 36.1875C28.2444 36.332 28.1638 36.2482 28.3027 36.4956C28.2794 36.9766 28.0799 37.0164 27.6697 37.1551L27.4175 37.0263Z" fill="#693C94"/>
<path d="M21.3142 38.9084C23.3885 38.6511 24.3877 40.8652 22.1886 41.391C20.0498 41.6269 19.2887 39.8759 21.3142 38.9084Z" fill="#BB76B5"/>
<path d="M57.0058 38.1123C57.3176 38.8779 57.3115 39.5065 57.8313 40.0858L58.0597 40.0317C58.4583 40.6267 59.233 42.4034 59.6031 43.1433C59.7072 43.3062 59.7359 43.3595 59.8785 43.4884C59.8897 43.8651 59.9413 44.0353 60.0352 44.4042C60.3046 45.0243 60.7318 46.9661 60.7005 47.6197L60.7931 48.2152L60.8279 48.3459L60.8927 48.3509C61.0973 48.3675 61.1704 48.3667 61.3525 48.4749L61.1123 49.0111C60.6176 50.2109 60.242 51.9799 59.6928 53.0152C60.6057 52.7681 61.5492 52.6377 62.4778 52.4625C62.9939 52.3652 63.5308 52.1932 64.0547 52.1761C64.2981 52.1682 64.5475 52.1948 64.7641 52.3134C64.939 52.4092 65.0566 52.5531 65.1047 52.748C65.2808 53.4619 63.5287 57.5304 63.1849 58.5048C63.701 59.9514 64.9662 61.9373 65.1849 63.4834C65.2335 63.8271 63.5895 64.2906 63.2473 64.3499C62.4639 64.5474 60.6442 64.9663 59.8567 65.0326C59.8521 65.5818 59.8894 66.8296 59.6685 67.2751C59.4788 68.1068 58.1513 68.1927 57.4541 68.3355C53.0906 69.2296 48.8097 69.4566 44.3797 69.6887C38.9923 69.9707 33.5964 70.0612 28.2026 69.9609C25.1156 69.8825 21.5256 69.6058 18.4396 69.4875C16.8457 69.4264 6.86625 68.5353 6.02213 67.8394C5.15554 67.2339 5.28431 66.1117 5.27978 65.1683C4.31368 65.0601 2.82582 64.7023 1.88502 64.4466C1.74507 64.4199 1.60619 64.388 1.4687 64.3507C0.998967 64.2227 0.279265 64.0073 0.0359875 63.5546C-0.28739 62.9528 1.66814 59.4596 1.9248 58.5413L1.91413 58.5051C1.40706 56.8351 0.590853 55.3007 0.133849 53.612C-0.266756 52.1317 0.64278 52.0594 1.80037 52.2832C3.25357 52.5642 4.72869 52.7269 6.18399 53.0126C5.10337 51.7721 4.77031 51.0627 4.04575 49.6232C4.22985 49.3623 4.37799 49.3973 4.58666 49.1804C5.84301 51.4678 7.17783 53.5403 8.9429 55.4747C9.23638 55.7964 9.72799 56.4053 10.0414 56.676C11.1635 56.7419 12.284 56.8339 13.4019 56.9517C13.7 56.982 14.9523 57.1418 15.1822 57.1224C15.3263 57.1251 15.4314 57.1314 15.5741 57.1113C16.2503 57.2904 17.3189 57.3775 18.0346 57.4498C19.7753 57.6375 21.5224 57.7594 23.2722 57.8153C29.4632 58.1193 35.6655 58.1105 41.8556 57.7892C42.2603 57.7686 44.26 57.7142 44.4885 57.57C45.2892 57.8404 45.4408 57.7075 46.2062 57.3828L47.343 57.3933C48.7391 57.3652 51.0523 57.2182 52.3529 56.8557C52.387 56.8422 52.4595 56.8124 52.4844 56.7906C53.0053 56.3366 55.455 55.3425 55.7285 54.972C55.9577 54.1811 56.5341 53.4866 56.9766 52.8074C57.5419 51.9396 57.9306 50.9689 58.1205 49.9509C59.0474 47.3816 58.6765 47.8112 58.4895 45.3497C58.2738 44.0488 57.8834 43.12 57.5244 41.874C57.3534 41.2801 57.2548 40.5019 57.17 39.878L57.0054 39.6407C57.1579 39.2243 57.1182 38.4701 56.7536 38.1603L57.0058 38.1123Z" fill="#CA4530"/>
<path d="M57.0058 38.1123C57.3176 38.8779 57.3115 39.5065 57.8313 40.0858L58.0597 40.0317C58.4583 40.6267 59.233 42.4034 59.6031 43.1433C59.7072 43.3062 59.7359 43.3595 59.8785 43.4884C59.8897 43.8651 59.9413 44.0353 60.0352 44.4042C60.3046 45.0243 60.7318 46.9661 60.7005 47.6197L60.7931 48.2152L60.8279 48.3459L60.8927 48.3509C61.0973 48.3675 61.1704 48.3667 61.3525 48.4749L61.1123 49.0111C60.6176 50.2109 60.242 51.9799 59.6928 53.0152C60.6057 52.7681 61.5492 52.6377 62.4778 52.4625C62.9939 52.3652 63.5308 52.1932 64.0547 52.1761C64.2981 52.1682 64.5475 52.1948 64.7641 52.3134C64.939 52.4092 65.0566 52.5531 65.1047 52.748C65.2808 53.4619 63.5287 57.5304 63.1849 58.5048C63.701 59.9514 64.9662 61.9373 65.1849 63.4834C65.2335 63.8271 63.5895 64.2906 63.2473 64.3499C62.4639 64.5474 60.6442 64.9663 59.8567 65.0326C59.8521 65.5818 59.8894 66.8296 59.6685 67.2751C59.4817 66.6919 59.9484 65.873 59.5501 65.4411C59.3865 65.5137 59.3702 65.5866 59.2767 65.7525C59.1752 65.1812 59.1847 64.5993 59.1709 64.0212C59.1119 61.5448 59.2209 59.0705 59.2495 56.5943C56.5829 56.867 53.7681 57.8348 51.1195 58.0015C44.7687 58.4012 38.3659 58.5272 32.0034 58.6841C30.4192 58.7232 28.834 58.5373 27.2533 58.4772C24.1753 58.4266 21.1912 58.3023 18.1152 58.0876C15.2016 57.8843 12.2977 57.4602 9.40209 57.0878C8.43335 56.9631 6.81137 56.5564 5.93287 56.5059C5.89872 57.9909 5.96061 59.5202 5.99966 61.0111C6.05696 63.1985 6.01527 65.3927 6.12715 67.5751C6.12948 67.6216 6.04301 67.7994 6.02213 67.8394C5.15554 67.2339 5.28431 66.1117 5.27978 65.1683C4.31368 65.0601 2.82582 64.7023 1.88502 64.4466C1.74507 64.4199 1.60619 64.388 1.4687 64.3507C0.998967 64.2227 0.279265 64.0073 0.0359875 63.5546C-0.28739 62.9528 1.66814 59.4596 1.9248 58.5413L1.91413 58.5051C1.40706 56.8351 0.590853 55.3007 0.133849 53.612C-0.266756 52.1317 0.64278 52.0594 1.80037 52.2832C3.25357 52.5642 4.72869 52.7269 6.18399 53.0126C5.10337 51.7721 4.77031 51.0627 4.04575 49.6232C4.22985 49.3623 4.37799 49.3973 4.58666 49.1804C5.84301 51.4678 7.17783 53.5403 8.9429 55.4747C9.23638 55.7964 9.72799 56.4053 10.0414 56.676C11.1635 56.7419 12.284 56.8339 13.4019 56.9517C13.7 56.982 14.9523 57.1418 15.1822 57.1224C15.3263 57.1251 15.4314 57.1314 15.5741 57.1113C16.2503 57.2904 17.3189 57.3775 18.0346 57.4498C19.7753 57.6375 21.5224 57.7594 23.2722 57.8153C29.4632 58.1193 35.6655 58.1105 41.8556 57.7892C42.2603 57.7686 44.26 57.7142 44.4885 57.57C45.2892 57.8404 45.4408 57.7075 46.2062 57.3828L47.343 57.3933C48.7391 57.3652 51.0523 57.2182 52.3529 56.8557C52.387 56.8422 52.4595 56.8124 52.4844 56.7906C53.0053 56.3366 55.455 55.3425 55.7285 54.972C55.9577 54.1811 56.5341 53.4866 56.9766 52.8074C57.5419 51.9396 57.9306 50.9689 58.1205 49.9509C59.0474 47.3816 58.6765 47.8112 58.4895 45.3497C58.2738 44.0488 57.8834 43.12 57.5244 41.874C57.3534 41.2801 57.2548 40.5019 57.17 39.878L57.0054 39.6407C57.1579 39.2243 57.1182 38.4701 56.7536 38.1603L57.0058 38.1123Z" fill="#A32D1F"/>
<path d="M4.58666 49.1787C5.84301 51.4661 7.17783 53.5386 8.9429 55.473C9.23638 55.7947 9.72799 56.4037 10.0414 56.6743C9.86444 56.7481 9.66994 56.8685 9.48343 56.7606C8.66215 56.2851 8.23161 55.4734 7.44863 54.9056C6.51992 55.2334 6.21867 55.3861 5.47067 56.0326C5.43523 56.5572 5.30768 60.9149 5.28838 60.9516L5.28257 60.0059L5.25867 60.0436C4.54799 61.1812 4.5501 62.1413 3.60737 63.2744C2.99069 64.0156 2.11419 64.0601 1.88502 64.4449C1.74507 64.4183 1.60619 64.3864 1.4687 64.3491C0.998967 64.2211 0.279265 64.0056 0.0359875 63.5529C-0.28739 62.9512 1.66814 59.458 1.9248 58.5397L1.91413 58.5034C1.40706 56.8334 0.590853 55.299 0.133849 53.6103C-0.266756 52.13 0.64278 52.0577 1.80037 52.2815C3.25357 52.5625 4.72869 52.7253 6.18399 53.0109C5.10337 51.7704 4.77031 51.0611 4.04575 49.6215C4.22985 49.3606 4.37799 49.3957 4.58666 49.1787Z" fill="#BF402C"/>
<path d="M59.6929 53.0161C60.6058 52.769 61.5493 52.6387 62.4779 52.4635C62.994 52.3661 63.531 52.1942 64.0548 52.1771C64.2983 52.1692 64.5476 52.1957 64.7642 52.3144C64.9391 52.4101 65.0567 52.554 65.1048 52.7489C65.281 53.4628 63.5289 57.5313 63.185 58.5057C63.7011 59.9523 64.9664 61.9382 65.1851 63.4843C65.2336 63.828 63.5896 64.2915 63.2474 64.3508C62.6406 63.9798 62.4114 63.8733 61.9354 63.2973C61.1221 62.3129 60.0428 60.4729 60.7313 59.2079C61.2383 58.2765 61.3682 58.335 60.5535 57.4149C60.3751 57.2153 60.1754 57.041 59.9666 56.8589C59.8841 57.0714 59.9764 57.1626 59.895 57.3416C59.9482 56.5661 59.7282 56.4125 59.7223 55.8182L59.9539 55.7466C60.2408 55.3621 60.5078 55.3055 60.5558 54.8581C60.5829 54.6065 60.6159 54.5563 60.7766 54.4526L60.9432 54.561C60.9933 54.3513 60.8583 54.2812 60.7809 54.0706C60.6257 53.6482 60.9674 53.2388 60.9119 52.9053C60.8099 52.8939 60.1773 53.0416 59.7697 53.0207L59.6929 53.0161Z" fill="#CA4530"/>
<path d="M57.006 38.1123C57.3178 38.8779 57.3116 39.5065 57.8314 40.0858L58.0598 40.0317C58.4585 40.6267 59.2331 42.4034 59.6033 43.1433C59.7073 43.3062 59.736 43.3595 59.8787 43.4884C59.8899 43.8651 59.9415 44.0353 60.0354 44.4042L59.9068 44.3256C59.8383 44.0655 59.6965 43.7059 59.4788 43.5399C59.4159 43.9544 59.6615 43.8681 59.5249 44.2419C60.2574 46.6814 60.452 49.9457 59.2402 52.2667C58.034 54.5771 55.2473 57.4666 52.353 56.8557C52.3872 56.8422 52.4596 56.8124 52.4846 56.7906C53.0054 56.3366 55.4551 55.3425 55.7286 54.972C55.9579 54.1811 56.5342 53.4866 56.9767 52.8074C57.542 51.9396 57.9307 50.9689 58.1207 49.9509C59.0475 47.3816 58.6767 47.8112 58.4896 45.3497C58.2739 44.0488 57.8835 43.12 57.5246 41.874C57.3535 41.2801 57.2549 40.5019 57.1702 39.878L57.0055 39.6407C57.158 39.2243 57.1183 38.4701 56.7537 38.1603L57.006 38.1123Z" fill="#DE533D"/>
<path d="M58.4895 45.3496C59.2105 47.4964 59.1364 48.1564 58.6825 50.3406C58.169 52.8113 57.5941 53.3302 55.7285 54.9719C55.9578 54.181 56.5341 53.4865 56.9766 52.8073C57.5419 51.9395 57.9306 50.9688 58.1206 49.9508C59.0474 47.3815 58.6766 47.8111 58.4895 45.3496Z" fill="#EF7E5D"/>
<path d="M57.8313 40.0844L58.0597 40.0303C58.4584 40.6252 59.233 42.402 59.6031 43.1418C59.7072 43.3048 59.7359 43.3581 59.8785 43.487C59.8898 43.8637 59.9413 44.0338 60.0353 44.4028L59.9067 44.3242C59.8381 44.0641 59.6964 43.7045 59.4787 43.5385C59.4158 43.9529 59.6613 43.8667 59.5248 44.2405C58.8747 42.914 58.387 41.4556 57.8313 40.0844Z" fill="#510707"/>
<path d="M60.7006 47.6182L60.7932 48.2137L60.8279 48.3443L60.8928 48.3493C61.0974 48.3659 61.1705 48.3651 61.3526 48.4733L61.1124 49.0095C60.9316 48.973 60.9079 48.9677 60.7676 48.8492C60.6321 48.483 60.6855 48.0173 60.7006 47.6182Z" fill="#A0251F"/>
<path d="M52.7972 60.9762C54.369 61.2011 55.557 59.9991 56.1438 62.2955C55.9542 62.7729 55.7803 63.1654 55.5169 63.6056C55.3411 63.8992 56.0973 64.4725 56.1805 64.9083C56.061 65.2604 55.7346 65.4447 55.379 65.3271C54.9503 64.9138 54.572 64.0281 54.143 63.8708C53.7406 64.2804 54.3652 65.3476 53.5768 65.5034C53.1565 65.5676 52.3969 65.72 52.007 65.6186C51.6391 65.5669 50.2859 65.7589 49.5745 65.7028C49.4521 64.6321 49.4695 62.2941 49.5459 61.2197C50.263 61.1652 51.4974 61.0234 52.218 61.1291C52.3306 61.1456 52.342 61.2447 52.3985 61.3677C52.4181 61.1639 52.4296 61.1248 52.501 60.9326C52.6709 60.8815 52.6008 60.8844 52.7972 60.9762Z" fill="white"/>
<path d="M52.7973 60.9762C54.3691 61.2011 55.5571 59.9991 56.1439 62.2955C55.9543 62.7729 55.7804 63.1654 55.517 63.6056C55.3412 63.8992 56.0973 64.4725 56.1806 64.9083C56.0611 65.2604 55.7346 65.4447 55.379 65.3271C54.9504 64.9138 54.5721 64.0281 54.1431 63.8708C53.7407 64.2804 54.3653 65.3476 53.5769 65.5034C53.1566 65.5676 52.397 65.72 52.0071 65.6186L52.3549 65.4921C52.5414 65.2112 52.4841 65.1259 52.5003 64.7484L52.8523 64.6968C52.8642 63.4871 52.8158 62.195 52.7973 60.9762Z" fill="white"/>
<path d="M52.5003 64.7488L52.8523 64.6973C52.9037 65.0457 52.8642 65.1945 53.0749 65.4232C53.2418 65.4528 53.4092 65.4797 53.5769 65.5038C53.1566 65.5681 52.397 65.7205 52.0071 65.619L52.3549 65.4925C52.5414 65.2116 52.4841 65.1264 52.5003 64.7488Z" fill="#DE533D"/>
<path d="M54.1245 61.7559C54.6224 61.769 55.0459 61.7867 55.1057 62.3817C55.0396 62.6372 54.8933 62.7124 54.6798 62.8722C54.3729 62.9811 54.2332 62.9992 53.9573 62.8433C53.7181 62.5013 53.7821 61.9859 54.1245 61.7559Z" fill="#DE533D"/>
<path d="M52.3987 61.3667C52.4183 61.1629 52.4298 61.1239 52.5012 60.9317C52.6711 60.8805 52.601 60.8835 52.7974 60.9753C52.8159 62.194 52.8643 63.4862 52.8523 64.6959L52.5004 64.7474C51.7947 64.5987 51.0231 65.0035 50.5615 64.5277C50.4785 64.2637 50.4821 64.2285 50.5231 63.9597C50.8411 63.6912 51.645 64.0258 52.0763 63.4373C52.0975 62.5185 50.9557 63.1107 50.4794 62.8711C50.4048 62.6446 50.4144 62.6057 50.4475 62.3675C50.788 61.899 51.3274 62.1623 51.8498 62.0446C52.3875 61.9235 52.3249 61.8061 52.3987 61.3667Z" fill="#CA4530"/>
<path d="M37.1376 61.7373C37.2164 61.7788 37.4726 61.9176 37.5071 61.9844C37.7959 62.5423 37.9411 65.9244 37.5687 66.2177C37.2359 66.2408 37.3064 66.2799 37.0272 66.152C36.6112 65.6377 36.9163 64.801 36.7259 64.1583L36.6283 64.1339C36.415 64.3413 35.867 65.3268 35.6301 65.6843C34.7862 65.1254 34.6641 64.6358 34.3186 63.7103C34.3085 64.1813 34.348 64.6695 34.3764 65.141C34.3864 65.4815 34.4359 65.9468 34.2213 66.1401C33.7029 66.6072 33.1511 66.3625 33.2324 65.6362C33.3195 64.8566 33.0235 62.3495 33.5678 61.8297C34.5667 61.6754 35.1408 63.3631 35.6181 64.146C35.9608 63.2219 36.2629 62.2783 37.1376 61.7373Z" fill="white"/>
<path d="M16.4642 61.2856C17.1335 61.2759 18.0054 61.4121 18.665 61.5151C20.0356 62.5075 19.9258 63.2908 18.6705 64.2098C18.9572 64.591 19.8374 65.5608 19.3423 65.9416C19.0795 65.9689 19.0317 65.9735 18.7638 65.9301C18.2847 65.3547 17.8369 64.581 17.4308 63.935C17.3516 64.4656 17.3192 65.1807 17.2799 65.7293C16.9447 65.7467 16.5751 65.8234 16.3273 65.5803C16.2146 64.9173 16.3249 61.9557 16.4642 61.2856Z" fill="white"/>
<path d="M17.3756 62.3381C17.8784 62.3427 18.482 62.2521 18.6812 62.7904C18.6534 63.0645 18.6403 63.0976 18.5112 63.342C18.0855 63.467 17.7653 63.6073 17.4149 63.3212C17.2864 63.0443 17.3522 62.6535 17.3756 62.3381Z" fill="#CA4530"/>
<path d="M39.9464 61.7605C40.1764 61.7318 40.3383 61.6922 40.5549 61.782C41.2334 62.4793 41.8911 64.8538 42.2404 65.8675C42.3243 66.1108 41.6914 66.2168 41.4399 66.165C40.9864 65.9185 41.3576 65.5157 40.6586 65.3777C40.1056 65.3733 39.4388 65.2604 39.2645 65.84C39.1717 66.1486 38.7233 66.4885 38.392 66.2795C38.0665 65.5461 39.3401 62.3388 39.9464 61.7605Z" fill="white"/>
<path d="M40.0766 63.2139L40.2051 63.2823C40.3845 63.6513 40.4638 64.067 40.4626 64.4759C40.1305 64.4278 40.123 64.4851 39.9429 64.29C39.8498 64.0017 40.0036 63.5291 40.0766 63.2139Z" fill="#DE533D"/>
<path d="M25.2626 61.6758C25.4923 61.7105 25.5818 61.6762 25.705 61.8627C26.1074 62.4715 27.4218 65.5705 27.3374 66.1416C27.1389 66.3367 27.2387 66.2902 26.963 66.3171C26.1451 66.0053 26.2374 65.4644 25.5809 65.3653C24.4757 65.3409 24.6045 65.213 24.1554 66.0807C24.0279 66.3272 23.5436 66.2332 23.3234 66.0167C23.2269 65.3828 24.4283 62.8418 24.7064 62.1247C24.8146 61.8457 24.9938 61.7575 25.2626 61.6758Z" fill="white"/>
<path d="M25.1952 63.2783L25.4426 63.4217C25.635 63.7077 25.8902 64.1612 25.568 64.4274C25.2589 64.4192 25.1147 64.4723 24.9118 64.2336C24.8638 63.9915 25.0931 63.5305 25.1952 63.2783Z" fill="#DE533D"/>
<path d="M28.5376 61.7861L28.6568 61.7978C28.8979 62.1217 28.8078 63.1109 28.798 63.5768C29.2531 63.0453 30.1062 61.7933 30.8294 61.8683C31.0331 61.9704 31.1472 61.9981 31.2479 62.1975C31.1923 62.3482 30.1371 63.5249 29.8974 63.9023C30.3263 64.8755 30.5981 65.1742 31.3468 65.924L31.3335 66.056C31.2076 66.2395 30.7639 66.3939 30.5781 66.3225C29.8938 66.0595 29.2844 64.9879 28.9153 64.3972C28.7828 65.0937 28.9469 65.7786 28.6378 66.1691C28.4112 66.3261 28.0869 66.2784 27.8022 66.2691C27.7598 65.3185 27.6457 62.771 27.8761 61.9344C28.0436 61.7815 28.3033 61.7998 28.5376 61.7861Z" fill="white"/>
<path d="M45.4514 62.5391C44.7717 62.816 44.0861 62.3818 43.57 62.7746L43.564 62.8998C44.0318 63.4783 45.6321 63.6801 45.7265 64.7274C45.8803 66.4334 42.2885 66.6657 42.4915 65.2311C43.0371 64.6264 43.5115 65.4552 44.2215 65.2966C45.5251 64.2424 41.9172 64.1715 42.5374 62.663C43.0425 61.4347 43.8626 61.3097 45.044 61.7032C45.3081 61.9958 45.3886 62.137 45.4514 62.5391Z" fill="white"/>
<path d="M10.3614 60.7841C10.9907 60.7266 12.4355 60.8789 12.1553 61.8158C11.6316 62.2538 10.5309 61.2107 10.235 61.9871C10.4136 62.7463 13.701 63.0335 11.5316 65.3613L10.6797 65.417C10.5093 65.4036 10.3407 65.3727 10.1766 65.3249C9.70785 65.1886 9.37856 65.0084 9.14689 64.5846C9.11002 64.3411 9.13731 64.2812 9.20448 64.0539C9.86594 63.4857 10.4717 65.1475 11.2592 64.0791C11.2262 63.4825 7.18883 62.2189 10.3614 60.7841Z" fill="white"/>
<path d="M20.3332 61.5693C21.1322 61.5808 22.1645 61.5533 22.9321 61.7485C23.0987 61.7908 23.0192 62.2438 22.8503 62.4292C22.4532 62.5928 21.7026 62.5104 21.2405 62.4966C21.2125 62.7706 21.2133 63.1209 21.206 63.402C21.7166 63.4136 22.0261 63.4099 22.5274 63.5176C22.7342 63.6877 22.6729 63.624 22.7371 63.9325C22.4728 64.6617 21.3756 63.6206 21.1533 64.6045C21.1556 64.6978 21.1577 65.0984 21.2104 65.139C21.7269 65.536 22.7382 64.9483 23.0593 65.6886C22.7823 66.4047 20.9331 66.0314 20.2449 65.9752C20.1386 64.9029 20.2545 62.6848 20.3332 61.5693Z" fill="white"/>
<path d="M45.796 61.5359C46.24 61.404 48.469 61.3248 48.9315 61.4449C49.0526 61.6663 49.1106 62.2175 48.8134 62.3111C48.6063 62.3763 48.2319 62.3646 48.0005 62.3695C48.0216 63.3178 48.1076 64.912 48.0601 65.8098C47.7621 65.8548 47.425 65.933 47.1414 65.8522C46.9778 65.4634 46.9716 62.9694 46.976 62.4315C46.6189 62.4454 46.0551 62.4506 45.7179 62.5059L45.4516 62.5384C45.3888 62.1363 45.3083 61.9952 45.0442 61.7025C45.2561 61.6334 45.5698 61.5807 45.796 61.5359Z" fill="white"/>
<path d="M45.0439 61.7027C45.2559 61.6336 45.5696 61.5809 45.7958 61.5361C45.7105 61.9458 45.6717 62.0828 45.7176 62.5062L45.4513 62.5386C45.3885 62.1365 45.308 61.9954 45.0439 61.7027Z" fill="#DE533D"/>
<path d="M12.6418 61.0678C13.6683 61.0446 14.9323 61.1204 15.9685 61.1638C15.9839 61.5291 15.9659 61.9305 15.9571 62.2986C15.602 62.218 15.1693 62.1727 14.8029 62.1246C14.7 62.7553 14.6925 63.7128 14.6687 64.3748L14.6392 65.584C14.3379 65.5793 13.9634 65.544 13.6568 65.5239C13.698 64.368 13.7256 63.2117 13.7398 62.0551C13.3829 62.0248 12.9284 62.0508 12.6869 61.8195C12.5661 61.5788 12.6174 61.3396 12.6418 61.0678Z" fill="white"/>
<path d="M1.76517 43.6126C1.34138 42.7674 0.865474 39.9124 0.737525 38.9009C-0.460696 29.4277 1.45644 19.9942 7.2656 12.3697C12.3245 5.75093 19.8014 1.40819 28.0571 0.293647C45.0255 -1.97941 60.2891 9.1759 63.8518 25.7174C64.0078 26.4417 64.1304 27.1268 64.2284 27.8631L64.0742 27.8864L64.0852 27.9392C64.2337 28.6721 64.6095 32.5823 64.4688 33.2563L64.3885 33.32C63.9752 32.6548 64.0835 28.7063 63.6187 28.1575C63.6898 29.0864 64.133 32.088 63.9681 32.819C63.45 32.1147 62.859 31.27 62.2967 30.6107C62.0642 30.3381 61.5227 29.987 61.2131 29.6515L61.1756 29.6103C61.0229 29.5147 60.8993 29.4317 60.7534 29.326C60.7919 28.9098 60.7117 28.5256 60.6477 28.1129C60.5355 27.8582 60.1997 26.2553 60.1168 25.8691C59.9245 25.404 59.6869 24.4181 59.4814 23.8461C59.1296 22.8666 58.7165 21.8481 58.3938 20.8722C58.22 20.6087 58.2829 20.6121 58.0378 20.5309C58.1626 20.3517 58.0997 20.4115 58.3589 20.3263C58.0162 20.0813 55.776 16.3809 55.6552 15.9315C55.5996 15.8539 55.3392 15.669 55.2475 15.5991C54.9254 15.0882 54.5704 14.5362 54.1603 14.095C53.992 13.908 53.8278 13.7457 53.6493 13.5693L53.6075 13.6276C53.3204 14.0253 52.5387 14.6741 52.5864 15.1607L52.3985 15.448C51.7701 15.5098 48.9583 15.1074 48.2971 14.7793C47.4027 12.668 46.2229 8.80484 44.789 7.0541C44.5332 6.84746 44.3072 6.67798 44.039 6.48755L44.1529 6.44247L44.1713 6.18298C42.1542 5.67607 41.3682 5.50585 39.3606 4.78762L39.3573 4.41279C38.5464 4.38173 36.8139 4.00931 35.8859 3.90483C35.0668 3.81255 33.4331 3.681 32.7183 3.50353L32.5103 4.04135L32.4657 4.06646C31.8979 3.95036 30.9058 4.09254 30.3008 4.1028C27.6033 4.14841 24.7736 4.84288 22.255 5.77121C20.7456 6.32758 15.6228 8.91249 15.1149 10.2696L14.8776 10.2128C13.9515 10.3036 13.775 10.9206 13.3889 11.6725C12.6518 11.9741 11.009 13.9695 10.3834 14.6181C10.1334 14.8771 9.69031 15.6644 9.36071 15.645L9.35702 15.7084C8.41625 17.0577 7.93286 18.3305 7.24856 19.8054C6.98689 20.3694 6.69709 20.9289 6.43497 21.4961C6.27462 21.8432 6.01543 22.8745 5.83918 23.1258C5.71946 23.5557 5.48266 24.2376 5.60472 24.6597L5.29141 24.4791C4.63213 26.7225 4.32086 29.2559 4.19126 31.5757C4.18071 31.7647 4.09748 32.5986 4.13736 32.7183C4.16948 34.468 4.2178 38.1091 4.58404 39.7343L4.15907 40.1176C3.64666 40.6736 3.30108 41.0617 2.88433 41.7008C2.73363 41.9319 2.39333 42.5116 2.25095 42.6926C2.12617 42.9783 1.97299 43.3984 1.76517 43.6126Z" fill="#F7A37A"/>
<path d="M1.76517 43.6126C1.34138 42.7674 0.865474 39.9124 0.737525 38.9009C-0.460696 29.4277 1.45644 19.9942 7.2656 12.3697C12.3245 5.75093 19.8014 1.40819 28.0571 0.293647C45.0255 -1.97941 60.2891 9.1759 63.8518 25.7174C64.0078 26.4417 64.1304 27.1268 64.2284 27.8631L64.0742 27.8864L64.0852 27.9392C64.2337 28.6721 64.6095 32.5823 64.4688 33.2563L64.3885 33.32C63.9752 32.6548 64.0835 28.7063 63.6187 28.1575L63.6039 28.1098C63.359 27.2974 63.2193 26.3158 63.0224 25.4754C60.9257 16.5237 55.3936 8.91513 47.3301 4.52557C39.9816 0.548844 31.3536 -0.343075 23.347 2.04643C13.6753 4.90953 5.87589 12.698 2.87197 22.3183C2.19514 24.4858 1.85273 25.6792 1.51936 27.9381C0.995353 31.4887 0.872191 34.8056 1.43453 38.3718C1.56747 39.2799 1.81782 41.9598 2.25095 42.6926C2.12617 42.9783 1.97299 43.3984 1.76517 43.6126Z" fill="#CA4530"/>
<path d="M44.7891 7.05391C45.0553 6.93246 45.1024 6.89838 45.4384 7.04471C46.3213 7.42934 49.1444 9.19252 49.7406 9.81628C50.1001 10.2648 51.3527 11.2061 51.8595 11.6626C52.4468 12.1915 52.9492 12.7995 53.4941 13.3053L53.6494 13.5691L53.6076 13.6275C53.3204 14.0251 52.5387 14.6739 52.5865 15.1606L52.3986 15.4479C51.7702 15.5096 48.9584 15.1073 48.2972 14.7791C47.4028 12.6678 46.2229 8.80465 44.7891 7.05391Z" fill="#F9BC9E"/>
<path d="M14.2422 9.83347C14.5103 9.47757 15.5303 8.7699 15.9203 8.48267C19.5108 5.83782 23.9312 4.22361 28.3353 3.61605C29.0462 3.51805 32.1964 3.116 32.7183 3.50267L32.5103 4.04049L32.4657 4.06559C31.8979 3.9495 30.9058 4.09168 30.3008 4.10193C27.6033 4.14754 24.7736 4.84202 22.255 5.77035C20.7456 6.32671 15.6228 8.91163 15.1149 10.2687L14.8776 10.2119C14.4006 10.1097 14.4732 10.1671 14.2422 9.83347Z" fill="#DE533D"/>
<path d="M4.74585 24.3026C3.32184 23.2598 4.98702 21.1796 5.55145 20.1056C6.08663 19.0873 6.36723 18.7537 7.17094 17.9803C7.59681 17.5707 8.41492 15.3629 9.21668 15.333L9.3284 15.5396L9.36074 15.6447L9.35705 15.7081C8.41628 17.0574 7.93289 18.3302 7.24859 19.8051C6.98692 20.3691 6.69712 20.9286 6.435 21.4958C6.27465 21.8429 6.01546 22.8742 5.83921 23.1255C5.71949 23.5554 5.48269 24.2373 5.60475 24.6594L5.29144 24.4788L4.83858 24.2746L4.74585 24.3026Z" fill="#FBCBB0"/>
<path d="M4.83887 24.2736C4.9573 23.6982 5.42026 22.853 5.7053 22.3271C5.64032 22.5567 5.51985 22.9156 5.53274 23.1401L5.65532 23.2042L5.8395 23.1245C5.71978 23.5544 5.48298 24.2364 5.60504 24.6585L5.29172 24.4778L4.83887 24.2736Z" fill="#F6A888"/>
<path d="M4.83884 24.2754L5.2917 24.4796C4.63243 26.723 4.32115 29.2564 4.19156 31.5762C4.181 31.7652 4.09777 32.5992 4.13765 32.7188C4.16977 34.4685 4.21809 38.1097 4.58433 39.7348L4.15937 40.1182C4.05963 39.8517 3.90757 38.6099 3.85955 38.2428C3.35656 34.3984 3.40692 30.4229 4.24395 26.6274C4.40694 25.8882 4.52462 25.0212 4.74611 24.3034L4.83884 24.2754Z" fill="#DE533D"/>
<path d="M14.2423 9.83398C14.4733 10.1676 14.4007 10.1102 14.8778 10.2124C13.9516 10.3033 13.7752 10.9203 13.3891 11.6721C12.652 11.9737 11.0092 13.9692 10.3835 14.6177C10.1336 14.8767 9.69048 15.6641 9.36088 15.6447L9.32854 15.5395C9.32673 15.4421 9.33947 15.345 9.36638 15.2514C9.65987 14.2219 13.1936 10.4269 14.2423 9.83398Z" fill="#D85540"/>
<path d="M58.394 20.8716L58.5273 20.8323L58.4596 20.7903C58.4326 20.4773 58.38 20.4672 58.5061 20.2363C59.4197 20.286 60.9621 25.2985 60.5225 25.947C60.2574 25.8148 60.3589 25.821 60.117 25.8686C59.9247 25.4035 59.6871 24.4176 59.4816 23.8455C59.1298 22.866 58.7167 21.8476 58.394 20.8716Z" fill="#F6A888"/>
<path d="M44.1809 5.87988C45.1652 6.18656 50.0675 8.74162 50.0961 9.54677C50 9.62042 49.8358 9.75522 49.7405 9.81522C49.1444 9.19146 46.3212 7.42828 45.4383 7.04365C45.1023 6.89732 45.0553 6.9314 44.789 7.05285C44.5332 6.84621 44.3072 6.67674 44.0391 6.48631L44.153 6.44122L44.1714 6.18174L44.1784 6.1742C44.1607 6.07959 44.1744 5.97721 44.1809 5.87988Z" fill="#DE533D"/>
<path d="M50.0963 9.54825C50.8452 9.4565 53.5809 12.075 53.8229 12.7014C53.7611 12.8208 53.7855 12.8239 53.6874 12.8687C53.5934 13.0267 53.5166 13.1238 53.4942 13.3058C52.9493 12.8 52.4469 12.192 51.8597 11.663C51.3529 11.2066 50.1002 10.2653 49.7407 9.81671C49.836 9.7567 50.0002 9.62191 50.0963 9.54825Z" fill="#F6A888"/>
<path d="M39.3574 4.41147C40.6834 4.25986 42.8813 5.37794 44.1811 5.8798C44.1745 5.97713 44.1609 6.07951 44.1785 6.17412L44.1715 6.18166C42.1543 5.67475 41.3684 5.50452 39.3608 4.7863L39.3574 4.41147Z" fill="#DE533D"/>
<path d="M55.6553 15.9318C55.7653 15.777 55.7821 15.7629 55.9614 15.7012C56.4525 16.3391 58.7021 19.5913 58.359 20.3265C58.0163 20.0816 55.776 16.3812 55.6553 15.9318Z" fill="#CA4530"/>
<path d="M54.2859 13.8271C54.8041 14.3855 55.6009 15.0816 55.9614 15.7C55.7821 15.7618 55.7653 15.7759 55.6553 15.9306C55.5996 15.8531 55.3392 15.6681 55.2476 15.5982C54.9254 15.0873 54.5704 14.5353 54.1604 14.0941L54.2859 13.8271Z" fill="#DE533D"/>
<path d="M60.1169 25.8689C60.3589 25.8214 60.2574 25.8151 60.5225 25.9473C60.5959 26.5256 60.9121 27.4003 60.9527 27.8192C60.7182 27.9738 60.7585 27.9051 60.6479 28.1127C60.5357 27.858 60.1999 26.2551 60.1169 25.8689Z" fill="#DE533D"/>
<path d="M60.6477 28.1128C60.7583 27.9052 60.718 27.9739 60.9525 27.8193C61.0038 28.2256 61.1677 29.2479 61.1756 29.6103C61.0229 29.5147 60.8993 29.4316 60.7534 29.326C60.7919 28.9098 60.7116 28.5256 60.6477 28.1128Z" fill="#CA4530"/>
<path d="M53.6874 12.8682C53.9595 13.0691 54.1687 13.5121 54.286 13.8278L54.1605 14.0947C53.9922 13.9078 53.828 13.7455 53.6494 13.569L53.4941 13.3053C53.5165 13.1233 53.5934 13.0262 53.6874 12.8682Z" fill="#EF7E5D"/>
<path d="M15.1152 10.268C15.6231 8.91093 20.746 6.32601 22.2553 5.76965C24.774 4.84132 27.6037 4.14684 30.3011 4.10123C30.9061 4.09098 31.8982 3.9488 32.4661 4.06489C31.9108 4.87615 30.793 5.95337 30.3789 6.53853C29.5521 7.70705 23.6932 13.2081 23.8069 14.081L23.8928 14.1664C23.7006 14.225 23.1466 14.4765 22.934 14.566C22.183 14.0605 21.4268 13.3584 20.7026 12.8184C19.4991 11.921 16.6048 10.5366 15.1152 10.268Z" fill="#EF7E5D"/>
<path d="M17.8022 52.8721C18.3604 53.2483 18.5027 53.3528 18.9812 53.8425C19.8882 53.8416 21.162 53.6872 21.9501 53.2145C22.6214 53.9275 23.4362 54.6335 24.3959 54.9091C24.4162 55.4886 24.3781 55.9705 24.8755 56.3592C25.9136 57.1703 27.3762 57.0316 28.6802 57.5467C29.5368 57.2981 29.7721 57.1729 30.4608 56.546L30.6388 55.7095C32.1632 55.7161 34.72 55.6736 36.2176 55.2886C36.5647 55.8731 36.9703 56.4076 37.6793 56.5312C38.8839 56.7411 40.6093 56.2086 41.431 55.3331C42.1064 56.4835 43.3264 56.9965 44.4885 57.5686C44.2599 57.7128 42.2602 57.7672 41.8555 57.7878C35.6655 58.1091 29.4631 58.1179 23.2722 57.8138C21.5224 57.758 19.7752 57.6361 18.0346 57.4484C17.3189 57.3761 16.2502 57.289 15.5741 57.1099C15.4314 57.13 15.3263 57.1237 15.1821 57.121C15.0469 56.9516 14.8684 56.83 14.6956 56.6961L14.8237 56.5046C14.7431 56.4562 12.9239 54.932 12.8804 54.8773C14.2634 53.6034 17.2148 54.095 17.8022 52.8721Z" fill="#EF7E5D"/>
<path d="M14.8239 56.5049C15.0785 56.6689 15.3423 56.981 15.5743 57.1102C15.4316 57.1303 15.3265 57.124 15.1824 57.1213C15.0471 56.9519 14.8686 56.8303 14.6958 56.6964L14.8239 56.5049Z" fill="#CA4530"/>
<path d="M32.5104 4.04173L32.7184 3.50391C33.4331 3.68137 35.0669 3.81292 35.8859 3.9052C36.814 4.00969 38.5464 4.3821 39.3573 4.41316L39.3607 4.78799L39.2232 4.76749C38.6225 5.65488 38.0476 6.3483 37.3223 7.13551C35.8451 8.73902 34.4267 10.3973 32.8761 11.9321C32.8094 11.9982 32.7944 12.206 32.7884 12.297C30.5755 12.289 28.4467 12.6143 26.3155 13.2464C25.5348 13.4779 24.6462 13.9282 23.8924 14.1683L23.8066 14.0829C23.6929 13.21 29.5518 7.70899 30.3785 6.54047C30.7926 5.95531 31.9104 4.87808 32.4657 4.06683L32.5104 4.04173Z" fill="#F9BC9E"/>
<path d="M32.5105 4.04173L32.7185 3.50391C33.4333 3.68137 35.067 3.81292 35.8861 3.9052C36.8141 4.00969 38.5465 4.3821 39.3574 4.41316L39.3608 4.78799L39.2234 4.76749C37.7576 4.42296 36.4081 4.19318 34.9001 4.12043C34.0983 4.08176 33.3078 4.11274 32.5105 4.04173Z" fill="#EF7E5D"/>
<path d="M53.6496 13.5693C53.8281 13.7457 53.9923 13.9081 54.1606 14.095C54.5706 14.5363 54.9256 15.0883 55.2478 15.5991C55.3395 15.669 55.5998 15.854 55.6555 15.9316C55.7763 16.3809 58.0165 20.0814 58.3592 20.3263C58.1 20.4116 58.1629 20.3517 58.0381 20.5309C56.8718 21.8197 56.3936 22.3107 54.9207 23.2367C54.0762 23.7676 52.8155 25.2168 52.2129 26.0378C51.8987 25.3948 51.6038 24.4624 51.29 23.7836C50.658 22.417 49.9811 21.3106 49.0307 20.1537C48.9486 18.3438 48.7031 16.5451 48.2974 14.7793C48.9586 15.1075 51.7704 15.5098 52.3988 15.4481L52.5867 15.1608C52.5389 14.6741 53.3206 14.0254 53.6078 13.6277L53.6496 13.5693Z" fill="#EF7E5D"/>
<path d="M53.6497 13.5693C53.8282 13.7457 53.9924 13.9081 54.1607 14.095C54.5708 14.5363 54.9258 15.0883 55.2479 15.5991C55.2056 15.8528 55.2547 15.811 55.1013 15.9278C54.9791 16.093 54.7855 16.3397 54.6873 16.5076C54.4795 16.7156 54.3669 16.8235 54.2 17.0674C53.9081 17.494 53.8416 18.6242 53.4957 18.8608C53.3624 18.4447 53.2528 18.0981 53.0649 17.699C52.78 17.094 51.8103 16.9794 51.8519 16.3299C51.991 16.0532 52.2266 15.8957 52.4684 15.7027L52.3989 15.4481L52.5868 15.1608C52.539 14.6741 53.3207 14.0254 53.6079 13.6277L53.6497 13.5693Z" fill="#FDC767"/>
<path d="M53.6495 13.5693C53.828 13.7457 53.9922 13.9081 54.1605 14.095C54.5706 14.5363 54.9256 15.0883 55.2477 15.5991C55.2054 15.8528 55.2545 15.811 55.1011 15.9278C54.9164 15.5142 54.5473 15.9328 54.2598 15.7394C53.8893 15.4902 53.8059 15.131 53.3441 15.0264C53.0228 15.1076 53.1116 15.0907 52.8485 15.3473L52.5866 15.1608C52.5388 14.6741 53.3205 14.0254 53.6077 13.6277L53.6495 13.5693Z" fill="#F7A37A"/>
<path d="M52.5863 15.1611L52.8482 15.3476L52.4679 15.703L52.3984 15.4484L52.5863 15.1611Z" fill="#F6A888"/>
<path d="M53.4951 18.8601C53.841 18.6234 53.9075 17.4932 54.1994 17.0667C54.3663 16.8228 54.4789 16.7148 54.6867 16.5068C54.872 16.984 54.8118 17.3917 54.8457 17.9109C55.1569 18.2773 55.7831 18.991 55.6191 19.4422C55.1343 20.7762 53.7589 19.7742 53.4951 18.8601Z" fill="#FAB155"/>
<path d="M5.29149 24.4795L5.60481 24.6601C5.82879 24.9001 5.97692 25.07 6.17625 25.3301C6.70864 25.9581 7.14861 26.2693 7.57583 26.9874C7.80569 26.4608 8.09157 25.9543 8.60647 25.6504C9.75192 26.494 10.3408 26.7555 11.7095 27.0646C10.7598 30.8134 10.5901 31.2481 10.7971 35.2241C10.1385 35.1985 9.69756 35.4227 9.08383 35.6576C8.07777 35.1894 4.90076 33.384 4.13745 32.7187C4.09757 32.599 4.1808 31.7651 4.19135 31.5761C4.32095 29.2562 4.63222 26.7229 5.29149 24.4795Z" fill="#EF7E5D"/>
<path d="M9.3571 15.709C9.85526 15.9101 10.3334 16.7612 10.7248 17.1426C11.0496 17.4592 11.6775 17.696 12.0149 17.9612C12.0394 18.1426 12.066 18.3228 12.081 18.5052C11.9754 20.2342 11.9224 23.6375 12.4418 25.2979C12.1294 25.8823 11.9099 26.432 11.7095 27.0647C10.3408 26.7557 9.7519 26.4942 8.60645 25.6506C8.09155 25.9545 7.80568 26.461 7.57582 26.9876C7.1486 26.2694 6.70863 25.9582 6.17624 25.3303C5.97691 25.0702 5.82877 24.9002 5.6048 24.6603C5.48274 24.2382 5.71954 23.5562 5.83925 23.1264C6.01551 22.8751 6.2747 21.8438 6.43505 21.4967C6.69717 20.9294 6.98696 20.3699 7.24864 19.806C7.93294 18.3311 8.41633 17.0583 9.3571 15.709Z" fill="#F9BC9E"/>
<path d="M6.17627 25.3285C6.7787 24.7608 6.98285 24.1991 7.44249 23.6621C7.78423 24.1622 8.49996 25.1047 8.60649 25.6488C8.09158 25.9527 7.80571 26.4592 7.57585 26.9858C7.14863 26.2677 6.70866 25.9565 6.17627 25.3285Z" fill="#FAB155"/>
<path d="M2.32471 46.0601C2.63944 46.0405 2.83545 46.0251 3.14786 46.0542C4.4437 46.2252 5.48565 46.5212 6.63351 47.1771C6.78278 47.2394 7.10551 47.3422 7.17495 47.4512C7.6272 47.7564 8.47245 48.3074 8.82444 48.6829C8.53065 48.6101 8.46815 48.5936 8.20369 48.45L8.03015 48.4594C7.9243 48.6971 8.04191 48.9942 8.11247 49.2572C9.11348 50.9545 9.87279 51.9896 11.3065 53.3753C11.5355 53.5965 12.778 54.7498 12.8806 54.8774C12.9242 54.9321 14.7434 56.4563 14.8239 56.5047L14.6958 56.6962C14.8686 56.8301 15.0471 56.9518 15.1824 57.1212C14.9525 57.1405 13.7003 56.9807 13.4021 56.9504C12.2842 56.8326 11.1637 56.7407 10.0416 56.6747C9.72819 56.4041 9.23659 55.7951 8.9431 55.4734C7.17804 53.539 5.84321 51.4665 4.58687 49.1791C4.37819 49.396 4.23005 49.361 4.04596 49.6219C3.39211 48.5586 2.8267 46.7089 2.32471 46.0601Z" fill="#F7A37A"/>
<path d="M6.6333 47.1777C6.78257 47.24 7.10531 47.3428 7.17474 47.4518C7.62699 47.7569 8.47225 48.308 8.82423 48.6835C8.53045 48.6107 8.46795 48.5942 8.20349 48.4506L8.02994 48.46C7.9241 48.6977 8.0417 48.9948 8.11227 49.2578C9.11327 50.9551 9.87258 51.9902 11.3063 53.3759C11.5353 53.597 12.7778 54.7504 12.8804 54.878C12.924 54.9327 14.7432 56.4569 14.8237 56.5053L14.6956 56.6968C14.6787 56.6889 14.6615 56.6813 14.6448 56.6731C12.0286 55.3893 7.5452 49.9665 6.6333 47.1777Z" fill="#D64D33"/>
<path d="M7.17481 47.4512C7.62707 47.7563 8.47232 48.3074 8.82431 48.6829C8.53052 48.6101 8.46802 48.5936 8.20356 48.45L8.03002 48.4594C7.92417 48.6971 8.04178 48.9942 8.11234 49.2572C7.81214 48.9724 7.14473 47.8831 7.17481 47.4512Z" fill="#EF7E5D"/>
<path d="M2.32471 46.0601C2.63944 46.0405 2.83545 46.0251 3.14786 46.0542C3.21133 46.4502 4.34072 48.5974 4.58687 49.1791C4.37819 49.396 4.23005 49.361 4.04596 49.6219C3.39211 48.5586 2.8267 46.7089 2.32471 46.0601Z" fill="#A0251F"/>
<path d="M58.0381 20.5293C58.2832 20.6106 58.2203 20.6071 58.3941 20.8706C58.7168 21.8466 59.1298 22.865 59.4817 23.8445C59.6872 24.4165 59.9248 25.4025 60.117 25.8675C60.2 26.2538 60.5358 27.8566 60.648 28.1113C60.7119 28.5241 60.7922 28.9082 60.7537 29.3245C59.0894 28.2199 57.2135 27.7626 55.2345 27.705C55.0889 27.8478 54.584 28.3466 54.511 28.4981C53.9258 29.7112 54.0851 30.1778 53.0427 31.1859C53.0046 29.5573 52.7304 27.5735 52.2129 26.0362C52.8155 25.2152 54.0762 23.766 54.9207 23.2351C56.3936 22.3091 56.8718 21.8181 58.0381 20.5293Z" fill="#F9BC9E"/>
<path d="M39.2229 4.7666L39.3604 4.78711C41.3679 5.50533 42.1539 5.67556 44.171 6.18247L44.1526 6.44196L44.0387 6.48704C41.5473 7.39599 38.2989 10.5528 37.1463 12.9264C35.6218 12.7168 34.3482 12.4432 32.7881 12.2961C32.7941 12.2052 32.809 11.9973 32.8758 11.9312C34.4264 10.3964 35.8448 8.73813 37.322 7.13462C38.0472 6.34742 38.6222 5.654 39.2229 4.7666Z" fill="#EF7E5D"/>
<path d="M8.11243 49.2564C8.04187 48.9934 7.92426 48.6963 8.0301 48.4586L8.20365 48.4492C8.46811 48.5928 8.53061 48.6093 8.8244 48.6822C9.0676 48.9589 9.3693 49.2861 9.59728 49.5678C10.4573 50.6307 10.8774 51.2249 11.7606 49.7568C12.4961 49.438 13.2178 49.0628 14.0413 49.0877C14.3372 49.0966 15.1499 49.0013 15.3673 49.1267C14.7482 49.5239 14.6593 49.5047 14.3023 50.1468C14.471 50.5024 14.5844 50.7566 14.8083 51.0857C15.5352 51.3948 16.3848 51.732 17.0339 52.1771C17.2564 52.3296 17.5764 52.6889 17.8025 52.8714C17.215 54.0944 14.2636 53.6028 12.8806 54.8767C12.778 54.749 11.5354 53.5957 11.3065 53.3745C9.87274 51.9889 9.11343 50.9538 8.11243 49.2564Z" fill="#F6A888"/>
<path d="M4.1377 32.7178C4.901 33.3832 8.07801 35.1885 9.08407 35.6567C9.6978 35.4218 10.1388 35.1976 10.7973 35.2232C11.0133 36.8616 11.3883 38.4752 11.9172 40.0409C11.6657 39.9216 11.1496 39.6848 10.968 39.5204C10.1139 38.747 9.6338 37.0882 8.13938 37.6841C6.82106 38.2098 5.70879 38.8688 4.58437 39.7338C4.21813 38.1086 4.16981 34.4675 4.1377 32.7178Z" fill="#F6A888"/>
<path d="M54.0307 33.7502C54.2785 33.2666 54.5274 32.9297 54.8968 32.5283C55.2106 33.222 55.5951 34.004 55.8203 34.7269C56.0328 35.4093 56.1412 36.7192 56.4178 37.3377L56.24 38.3084C55.9062 38.7487 55.6755 39.6046 55.438 40.1614C55.1612 39.6433 54.8176 38.7981 54.5416 38.2204C54.3453 37.6824 54.1146 37.1442 53.8946 36.6143C53.458 36.2513 53.3842 35.7545 52.728 35.4113C52.9707 34.4799 53.3882 34.3872 54.0307 33.7502Z" fill="#904DAF"/>
<path d="M54.0307 33.751C54.1345 34.2868 54.0695 36.1161 53.8946 36.615C53.458 36.2521 53.3842 35.7552 52.728 35.4121C52.9707 34.4807 53.3882 34.388 54.0307 33.751Z" fill="#693C94"/>
<path d="M13.7568 15.4619C13.8823 16.3654 14.6423 20.8993 15.0244 21.4377C14.7565 21.9899 13.6123 23.7532 13.0435 23.8767L12.9213 23.791C12.5165 22.0779 12.5017 19.162 12.954 17.4101C13.1091 16.8093 13.709 15.9488 13.7568 15.4619Z" fill="#15082D"/>
<path d="M9.36063 15.6435C9.69022 15.6629 10.1334 14.8755 10.3833 14.6165C11.0089 13.968 12.6517 11.9725 13.3888 11.6709C12.9367 13.6823 12.3499 15.6975 12.1472 17.7487C12.1252 17.9712 12.1226 18.2949 12.0809 18.5031C12.0659 18.3207 12.0392 18.1405 12.0147 17.9591C11.6773 17.6939 11.0494 17.4571 10.7246 17.1405C10.3333 16.7591 9.8551 15.908 9.35693 15.7069L9.36063 15.6435Z" fill="#F6A888"/>
<path d="M46.3625 12.7422C46.3974 13.9435 47.2257 13.3645 47.4911 14.7299C47.798 16.3088 48.0432 17.8919 48.3244 19.4756C47.793 18.911 47.241 18.3931 46.7236 17.8234C46.4528 17.5252 46.4855 17.1386 46.2106 16.9905C46.0209 17.0631 46.0807 17.0392 45.9436 17.238C46.2022 15.8297 46.1296 13.958 46.3625 12.7422Z" fill="#15082D"/>
<path d="M20.5705 47.9189C21.0985 48.2311 22.7278 48.4334 23.5294 48.7305C22.8162 48.7982 21.3708 48.3147 20.5925 48.214C20.2285 48.9375 19.7249 50.5152 18.8085 49.6152C18.5047 49.5895 18.2792 49.7323 18.0189 49.7231C16.6829 49.6758 16.4068 49.4204 15.3442 50.3014C16.3135 51.1159 16.3097 50.9556 17.5321 51.1661C17.7483 51.2034 17.6219 51.9916 18.2822 52.0008C18.6619 51.8336 18.814 51.5568 19.0785 51.4736C19.5278 51.3322 20.4377 51.5037 20.8605 51.3809C21.2638 51.2637 21.2106 50.7267 21.8291 50.9041L21.5273 51.0407C21.3301 51.1936 21.3114 51.2206 21.1867 51.4375C21.1406 51.733 21.4058 52.2403 21.5317 52.5445C21.5252 52.6022 21.526 52.7218 21.4877 52.7535C21.0982 53.0766 19.2526 53.2011 18.9144 52.8511C18.5695 51.7971 18.3716 52.3368 17.7726 51.9901C17.6198 51.8939 17.5138 51.3198 17.3735 51.301C16.6896 51.2096 15.4812 51.1753 15.3359 50.2276C15.6416 49.2354 17.6381 49.5126 18.4575 49.5844C19.0505 49.1085 18.8375 49.4182 19.3792 49.683C19.8169 49.5217 20.3168 48.3945 20.5705 47.9189Z" fill="#693C94"/>
<path d="M60.8893 35.4658C60.8619 36.6634 60.7697 37.5404 60.557 38.7346L60.4673 39.0417C60.0782 39.328 58.9979 39.1977 58.665 38.8414C59.0344 37.7156 59.9098 36.1366 60.8893 35.4658Z" fill="#F7A37A"/>
<path d="M41.0669 9.33993C41.7548 8.65405 43.238 7.69775 44.0604 7.11719C44.8456 8.89183 45.495 9.01908 46.0376 11.2631C45.748 11.015 45.3672 9.81526 45.1758 9.39617C44.4363 7.77683 44.2369 8.46015 43.0438 8.00503C42.6314 8.32001 41.4753 9.29651 41.0669 9.33993Z" fill="#693C94"/>
<path d="M10.471 41.8975C10.8687 42.2418 11.2108 42.4739 11.6438 42.7727C12.2636 43.0909 13.0292 43.4597 13.6114 43.8205L13.6693 43.8432C13.8725 43.9218 14.5151 44.0429 14.5947 44.1124C16.0007 45.343 17.3683 46.5508 19.0682 47.3772C19.3299 47.5045 19.6123 47.6632 19.8326 47.86L19.8382 47.9897C19.3323 48.3717 18.9789 48.0022 18.5346 48.767C17.9469 49.1403 16.9368 48.5757 16.3072 48.4476C15.6439 48.3589 14.9358 48.2553 14.2712 48.2213C12.7859 48.399 12.1401 48.7162 10.9828 49.6291C10.887 48.7171 10.5174 47.4826 10.3906 46.4981C10.1892 44.9355 10.3217 43.457 10.471 41.8975Z" fill="#9070B7"/>
<path d="M13.6114 43.8223L13.6693 43.845C13.8725 43.9235 14.5151 44.0446 14.5947 44.1142C16.0007 45.3447 17.3683 46.5525 19.0682 47.3789C19.3299 47.5062 19.6123 47.6649 19.8326 47.8617L19.8382 47.9915C19.3323 48.3734 18.9789 48.0039 18.5346 48.7687C17.947 49.142 16.9368 48.5775 16.3072 48.4493L16.4056 48.3799C17.0923 46.7671 13.596 45.5675 13.6114 43.8223Z" fill="#693C94"/>
<path d="M11.6439 42.7734C12.2637 43.0916 13.0293 43.4605 13.6115 43.8213C13.5961 45.5665 17.0924 46.7661 16.4057 48.3789L16.3073 48.4483C15.644 48.3596 14.9359 48.256 14.2713 48.222C14.3751 48.1515 14.855 48.145 15.013 48.136C14.2785 46.3375 12.6967 45.567 11.7712 43.9074C11.5448 43.5015 11.5108 43.2066 11.6439 42.7734Z" fill="#904DAF"/>
<path d="M8.6193 40.7295L8.82571 40.7972C9.22701 41.1508 9.2065 43.2481 9.36331 43.923C9.78737 45.7484 10.1106 47.6158 10.4978 49.4438C9.01275 47.9085 8.51572 47.3286 6.59173 46.3938C5.03768 45.6175 3.36308 45.5322 1.67188 45.5399C3.68966 43.2475 5.62805 41.6054 8.6193 40.7295Z" fill="#9070B7"/>
<path d="M56.1759 30.8609C56.4184 30.8333 56.6628 30.8277 56.9062 30.8443C57.5309 30.8915 58.1455 31.0434 58.7539 31.1537C60.788 31.5225 62.273 32.1624 63.6369 33.754C61.7635 34.1938 61.3704 34.3032 59.9084 35.5282C58.7218 36.6674 58.4886 37.6732 57.7783 39.0764L57.7516 39.0248C57.5786 38.6886 57.0013 37.5777 56.9317 37.2667C56.7077 36.162 56.6111 34.9883 56.4728 33.8668C56.3868 33.1702 55.9875 31.4485 56.1759 30.8609Z" fill="#9070B7"/>
<path d="M8.4739 38.2451C9.9304 38.0665 9.71727 39.0981 10.5806 39.7807C11.6753 40.6462 12.7287 40.9928 13.3802 42.3457C13.5103 42.6158 13.928 43.1013 14.145 43.3505C12.122 42.5758 12.0243 42.6521 10.4361 41.2365C10.0115 42.4988 9.94706 43.0507 10.0341 44.3933C9.70009 43.6093 9.49624 41.9843 9.36777 41.0871C9.27105 40.8046 8.99543 40.4459 8.81797 40.1904C7.77821 40.4202 6.68704 41.0328 5.71846 41.4671C5.15704 41.7189 2.69614 43.7966 2.45814 43.8193C2.41178 43.5433 2.64518 43.2732 2.78774 42.979C3.86549 40.7545 6.09087 38.9661 8.4739 38.2451Z" fill="#432477"/>
<path d="M55.4545 28.2891C56.0653 28.3159 57.0399 28.4297 57.6264 28.5473C59.5673 28.9367 62.0201 30.6977 63.0807 32.3462C62.5412 32.1833 61.7098 31.7617 61.1799 31.5087C59.6087 30.7586 58.1999 30.3389 56.4542 30.3025C56.3528 30.311 56.0977 30.3275 56.0296 30.3799C55.3212 30.926 56.0797 33.1604 55.9446 33.7739C55.5004 33.2228 55.3371 31.8513 55.2271 31.7209C55.0024 31.7539 53.5468 33.7322 53.1672 34.1035C53.1462 33.3299 53.1442 32.7159 53.1752 31.9363C53.4612 31.5758 53.6432 31.4394 53.9002 31.0337C54.3397 30.3402 54.9176 28.8159 55.4545 28.2891Z" fill="#432477"/>
<path d="M63.6188 28.1566C64.0836 28.7054 63.9753 32.654 64.3886 33.3192L64.4689 33.2554C64.6096 32.5815 64.2338 28.6712 64.0853 27.9384L64.0743 27.8856L64.2285 27.8623C64.6986 31.5346 64.8117 34.2846 64.3871 37.9709C63.924 41.9897 63.0182 44.8379 61.3526 48.4734C61.1706 48.3653 61.0974 48.3661 60.8928 48.3494L60.828 48.3445L60.7932 48.2138L60.7007 47.6183C60.7319 46.9646 60.3047 45.0229 60.0354 44.4028C59.9414 44.0338 59.8899 43.8637 59.8786 43.487C59.736 43.3581 59.7073 43.3048 59.6032 43.1418C59.2331 42.402 58.4585 40.6252 58.0598 40.0303C58.6291 39.7415 58.5746 39.4195 58.6649 38.8406C58.9977 39.1969 60.078 39.3273 60.4671 39.0409L60.5568 38.7338C60.7695 37.5396 60.8618 36.6626 60.8891 35.4651L61.1719 35.3487C61.4619 34.8944 63.4097 34.3378 63.9535 34.1921L64.1561 34.1571L64.2443 34.0186C64.3158 33.5822 64.1668 33.2007 63.9682 32.8182C64.1331 32.0872 63.6899 29.0856 63.6188 28.1566Z" fill="#F7A37A"/>
<path d="M63.6188 28.1566C64.0836 28.7054 63.9753 32.654 64.3886 33.3192L64.4689 33.2554C64.6096 32.5815 64.2338 28.6712 64.0853 27.9384L64.0743 27.8856L64.2285 27.8623C64.6985 31.5346 64.8117 34.2846 64.387 37.9709C63.924 41.9897 63.0181 44.8379 61.3526 48.4734C61.1705 48.3653 61.0974 48.3661 60.8928 48.3494L60.828 48.3445L60.7932 48.2138C61.1693 47.7244 62.6312 43.4905 62.7982 42.8294C63.1113 41.5895 64.4908 35.0684 63.9535 34.1921L64.1561 34.1571L64.2443 34.0186C64.3157 33.5822 64.1668 33.2007 63.9682 32.8182C64.1331 32.0872 63.6899 29.0856 63.6188 28.1566Z" fill="#A0251F"/>
<path d="M58.0596 40.0299C58.6288 39.741 58.5744 39.4191 58.6646 38.8402C58.9975 39.1965 60.0778 39.3269 60.4669 39.0405L60.5566 38.7334C60.5247 39.4257 60.0583 42.7349 59.603 43.1414C59.2328 42.4016 58.4582 40.6248 58.0596 40.0299Z" fill="#EF7E5D"/>
<path d="M61.1717 35.3496C61.3002 37.5957 60.6861 41.3795 59.8784 43.4879C59.7358 43.359 59.7071 43.3057 59.603 43.1428C60.0583 42.7362 60.5247 39.4271 60.5566 38.7348C60.7693 37.5405 60.8616 36.6636 60.8889 35.466L61.1717 35.3496Z" fill="#CA4530"/>
</svg>
