<svg width="65" height="70" viewBox="0 0 65 70" fill="none" xmlns="http://www.w3.org/2000/svg">
<path d="M1.20072 41.0331C0.51932 35.5008 0.19143 31.1485 1.3328 25.6325C3.85718 13.433 12.8455 3.35103 25.2137 0.765259C29.312 -0.0915489 33.6904 -0.309011 37.7609 0.527308C39.3501 0.496037 45.4398 2.57702 46.7443 3.48367C47.4201 3.14565 48.4174 2.56337 49.0626 2.32285C51.1474 1.54585 53.951 1.54384 56.0477 2.24388C58.6513 3.11651 60.7975 4.99479 62.0075 7.45976C63.7011 10.8604 63.427 15.5737 60.9075 18.5111C60.7282 18.6484 60.5938 18.7812 60.5576 19.0229C59.9152 19.6476 59.235 20.2324 58.5209 20.7739L58.0992 20.9741C58.267 21.8073 58.6276 22.4643 58.8776 23.2515C59.1923 24.2425 59.6592 25.5403 59.8555 26.5565C60.7081 30.9688 60.551 35.4804 59.8532 39.9014C59.8073 40.1924 59.5531 41.3567 59.4321 41.5476C59.7107 41.7385 59.6427 41.6395 59.7458 41.9126C60.174 42.9693 61.0253 44.7597 61.1617 45.7919C61.1075 46.1883 61.1667 46.2176 60.9524 46.4884L60.8105 46.5491C61.1445 47.8355 55.8044 55.2905 54.7204 56.4232C54.9455 56.4587 55.1364 56.5299 55.3248 56.3702C55.9399 55.8487 56.4696 55.1154 57.0279 54.5181C57.4711 54.7337 59.0386 55.457 59.0451 55.9744C59.056 56.845 59.0763 64.6964 58.9569 64.9043C58.7658 64.9315 58.7367 64.9332 58.5678 64.7865C58.5939 65.0581 58.5485 65.06 58.7075 65.2386L58.9229 65.1746C59.1074 65.7317 58.92 66.3065 59.117 66.803C59.1027 67.0563 59.1123 67.3307 58.9077 67.4891C57.7427 68.3907 55.3735 68.4826 53.9358 68.7292C50.0086 69.4026 46.0429 69.5745 42.0705 69.7719C33.5599 70.1815 25.0316 70.0393 16.5393 69.3463C13.6775 69.115 10.8198 68.6871 7.97373 68.3103C7.20004 68.208 5.62111 67.8888 5.43506 66.9952C5.25028 66.5976 5.29819 65.46 5.30035 64.9616C3.82795 64.9148 2.37064 64.65 0.97602 64.1755C0.638005 64.0615 0.177839 63.9329 0.0151878 63.6045C-0.175883 62.5947 1.48923 59.7553 2.01258 58.5353C1.6388 57.4869 -0.0261995 53.6038 0.146417 52.7464C0.191015 52.5248 0.296732 52.3632 0.489432 52.2408C0.705161 52.104 0.991591 52.0837 1.23985 52.097C1.78381 52.1262 2.34301 52.3019 2.87962 52.4048C4.03477 52.6262 5.20852 52.8007 6.34801 53.0921C4.708 50.2345 2.31083 46.5692 1.86693 43.1892C0.426204 43.2352 0.982648 41.9594 1.20072 41.0331ZM8.09239 47.558C8.22271 45.7967 8.12457 42.5352 8.08209 40.6965C7.76148 41.1611 8.30903 45.899 7.76364 46.5014C7.83726 46.8081 7.99297 47.2472 8.09239 47.558Z" fill="#000001"/>
<path d="M7.76367 46.5012C8.30906 45.8988 7.76152 41.161 8.08212 40.6963C8.1246 42.535 8.22274 45.7965 8.09242 47.5578C7.99301 47.247 7.8373 46.8079 7.76367 46.5012Z" fill="#7F56AD" fill-opacity="0.988235"/>
<path d="M16.8905 12.0017C18.7629 10.967 18.5028 12.2832 20.0978 12.4392C21.3313 13.1671 23.1769 14.7635 23.8383 16.0565C22.9947 16.4317 22.6715 16.5171 22.123 17.2824C22.9293 17.0532 23.4227 16.8122 24.1494 16.3854C24.3852 16.6698 24.5176 16.859 24.8403 17.0492L24.9696 17.0531C25.1131 16.8142 25.0151 16.7224 24.8466 16.5049C24.9374 16.3 25.3327 16.1873 25.5871 16.0796C27.1793 15.5646 28.0299 15.3351 29.6989 15.2549C29.8326 15.2079 30.5758 15.2038 30.7576 15.1944C33.4343 15.0568 35.5739 15.8437 38.0916 16.595C37.8601 16.9257 37.6598 17.0999 37.6391 17.4644L37.772 17.5578C38.2631 17.4689 38.4297 17.2078 38.7462 16.8391C39.3071 17.1031 39.8036 17.4592 40.4259 17.4816L40.4468 17.3818C39.9912 16.941 39.5763 16.7718 39.0114 16.5072C39.7421 15.2598 41.2761 14.2487 42.44 13.3864C43.3655 16.4694 43.3845 17.1909 45.7498 19.5964C44.8387 21.1615 45.1434 22.179 44.7098 23.1816C45.0315 23.0791 45.8201 22.8531 46.1117 23.0542C46.1882 23.0343 46.6094 22.8301 46.707 22.7842C49.9939 27.4955 51.8183 31.9888 50.8923 37.8666C50.0633 43.1279 46.7345 47.0288 41.7076 48.7759C41.1807 48.9661 38.5511 49.6446 38.369 49.8569L38.372 50.0106L38.5154 50.0906C39.0185 50.117 40.4089 49.9129 40.5776 50.2446C42.3624 53.755 38.6128 53.1142 37.1299 54.7694C36.9639 54.9548 37.0974 55.9879 36.8574 56.2665L36.8267 56.1637C36.6349 56.1554 34.6691 57.1082 34.0641 56.7697C33.7724 56.6065 33.6019 56.446 33.6877 56.1503C34.1368 55.7547 34.8193 55.9336 35.0261 55.3814C34.9771 55.1963 34.9242 55.1507 34.788 55.0182C34.4293 55.0041 34.2153 55.099 33.826 55.126C32.2046 55.2385 30.6232 55.3295 28.9955 55.2591C29.0082 55.2597 28.738 55.1078 28.7184 55.0944C28.2197 54.7562 27.1663 55.1241 26.7181 55.0465C26.1123 54.9418 25.0535 54.5491 24.4216 54.5465C24.3677 54.5463 24.3021 54.6771 24.2588 54.7417L24.1403 54.8945C21.6335 55.0822 22.4618 54.4662 21.3063 52.8222C21.0656 52.4798 20.0213 52.2071 19.5453 52.0423L19.6619 52.1907L19.5499 52.0989L19.5964 52.0613C19.2737 51.4433 18.8968 50.5791 18.6059 49.9397C18.7175 49.6552 18.7537 49.5532 18.9212 49.2986C19.2395 49.1036 19.3942 49.2481 19.8373 49.1597L19.8948 49.1478C20.2621 49.1573 20.5315 49.384 20.9415 49.1454L20.8975 49.0434C20.4638 48.7751 20.209 48.7167 19.7266 48.5741C19.6637 45.2832 18.3658 47.9397 17.0167 47.0406C15.2323 45.8515 13.7093 44.3934 12.7519 42.4464C12.4674 41.8679 11.9221 40.0303 11.6087 39.7668C11.4148 39.3628 11.2891 38.2184 11.2571 37.7488C11.0058 34.06 11.4455 30.2576 12.9969 26.8715C13.5916 25.5736 14.4007 24.3718 15.1969 23.1898C15.5165 22.8934 16.3074 21.8564 16.5866 21.4895C16.3597 21.3626 16.4153 21.2218 16.4569 21.0254C16.1762 20.2564 15.8302 17.6896 15.7755 16.8369C15.7453 15.4619 16.2222 13.2445 16.8905 12.0017Z" fill="#9172B8"/>
<path d="M25.5869 16.0786C27.1791 15.5637 28.0297 15.3341 29.6987 15.2539C29.8348 16.3441 26.9468 16.887 26.1683 16.9758C25.9956 16.7157 25.7312 16.3428 25.5869 16.0786Z" fill="#B97EBF"/>
<path d="M16.4568 21.0249C16.7399 20.7163 16.9963 20.3595 17.381 20.2285L17.4654 20.3148C17.2926 20.8154 16.9527 21.1012 16.5865 21.489C16.3596 21.362 16.4153 21.2212 16.4568 21.0249Z" fill="#000001"/>
<path d="M44.7095 23.1797C45.0312 23.0772 45.8198 22.8512 46.1114 23.0523C45.6749 23.3121 45.0552 23.7149 44.7095 23.1797Z" fill="#44257C"/>
<path d="M40.1587 33.0011C40.4076 32.9655 40.4521 32.9994 40.601 33.1596C40.6554 33.9701 39.9443 33.9939 39.7664 34.3312C40.3408 34.7287 40.5775 34.8257 40.98 35.4541C42.1306 37.251 41.7083 40.2742 39.6167 41.2053C38.6923 41.6167 37.8772 41.6377 36.914 41.4272C34.6721 40.6089 34.0238 38.7182 34.6468 36.4717C35.1285 34.7351 37.0864 34.2111 38.5633 33.7206C39.0492 33.5591 39.6678 33.2397 40.1587 33.0011Z" fill="#000001"/>
<path d="M37.0223 34.7578C38.1369 34.9535 38.2404 35.3061 38.5318 36.3436C38.1338 37.0061 37.9539 37.3075 37.2304 37.547C35.5385 37.5106 35.4429 35.5464 37.0223 34.7578Z" fill="white"/>
<path d="M39.1832 38.668C39.4165 38.6805 39.4648 38.6742 39.6489 38.8125C39.8044 39.0897 39.7834 38.9681 39.7394 39.2691C39.5185 39.5113 39.6009 39.44 39.2389 39.5169C38.894 39.4978 38.8113 39.5348 38.6121 39.2728L38.6391 39.0766C38.8182 38.8221 38.9037 38.7998 39.1832 38.668Z" fill="#9F59B8"/>
<path d="M19.2454 20.3984C19.7408 21.3227 19.8082 22.0262 19.9516 23.0516C20.1791 23.6809 20.5027 24.2282 20.7662 24.8367C21.2085 25.0795 21.2542 25.3634 21.4301 25.8607C22.4891 28.8554 19.9586 31.826 16.8856 30.3235C15.6506 29.7197 15.3247 28.1948 15.4984 26.8118C16.1142 24.8318 18.0267 22.1754 19.2454 20.3984Z" fill="#ABDFF4"/>
<path d="M19.245 20.3984C19.7404 21.3227 19.8078 22.0262 19.9512 23.0516C19.6752 22.371 19.3888 22.3202 19.2866 21.5618C19.2259 23.4562 20.0393 25.4214 19.9348 27.3018C19.7646 27.5681 19.6473 27.821 19.3592 27.9378C18.7924 27.895 19.0098 27.4202 18.6346 27.3013C17.8626 27.6363 17.6842 28.8888 16.6177 27.8338C16.0954 27.6537 16.1242 27.513 15.9914 26.9859L15.8512 27.7569C15.6959 27.5687 15.5625 27.0599 15.498 26.8118C16.1138 24.8318 18.0263 22.1754 19.245 20.3984Z" fill="white"/>
<path d="M19.245 20.3984C19.7404 21.3227 19.8078 22.0262 19.9512 23.0516C19.6752 22.371 19.3888 22.3202 19.2866 21.5618C19.2536 21.3295 19.286 21.3022 19.153 21.1309C19.1692 21.1241 16.4642 25.5514 16.3396 25.8621C16.2816 26.0085 16.2302 26.1575 16.1856 26.3085C16.1364 26.4857 16.0514 26.8274 15.9914 26.9859L15.8512 27.7569C15.6959 27.5687 15.5625 27.0599 15.498 26.8118C16.1138 24.8318 18.0263 22.1754 19.245 20.3984Z" fill="#81A4DE"/>
<path d="M16.1857 26.3096L16.2828 26.5288C16.4177 26.5556 16.5369 26.5769 16.6731 26.5971C16.7965 26.9378 16.5543 27.4011 16.6177 27.8349C16.0955 27.6548 16.1242 27.5141 15.9915 26.987C16.0515 26.8285 16.1365 26.4868 16.1857 26.3096Z" fill="#CBEAF7"/>
<path d="M20.7659 24.8379C21.2082 25.0806 21.254 25.3646 21.4299 25.8619C22.4889 28.8565 19.9584 31.8271 16.8854 30.3247C15.6503 29.7209 15.3244 28.196 15.4982 26.813C15.5626 27.0611 15.6961 27.5699 15.8513 27.7581C15.9616 28.4302 15.9799 28.6176 16.3723 29.1945L16.8989 29.5908C16.9726 29.6393 17.0477 29.6856 17.124 29.7297C18.3416 30.427 20.381 29.7554 21.0257 28.5375C21.6167 27.4209 21.1017 25.9621 20.7659 24.8379Z" fill="#81A4DE"/>
<path d="M19.49 31.5293C20.1843 32.1923 21.7305 32.8522 22.585 33.3791C22.9002 33.5734 23.837 33.8187 23.8566 34.1513C23.3376 34.4972 23.6063 34.5446 23.7534 35.0954C24.2954 37.1253 23.5431 39.0725 21.4288 39.6576C18.6422 40.3486 16.6754 38.4178 17.2225 35.5433C17.5015 34.0775 18.3991 33.3885 19.6144 32.6436C19.5179 32.3715 19.3846 32.5695 19.1068 32.2944C19.1282 32.0494 19.351 31.7509 19.49 31.5293Z" fill="#000001"/>
<path d="M19.4039 33.2667C20.579 33.1821 20.6813 33.42 21.0681 34.4588C20.8023 35.1966 20.7826 35.3685 20.1677 35.9107C18.9031 36.0572 18.8957 35.5553 18.501 34.4951C18.7633 33.948 18.8814 33.5927 19.4039 33.2667Z" fill="white"/>
<path d="M21.8303 36.7363C22.1608 36.7584 22.2886 36.8694 22.4271 37.1631C22.4163 37.5098 22.4551 37.3739 22.2705 37.6769C22.0217 37.8493 21.9745 37.8484 21.6795 37.8689C21.431 37.8107 21.0673 37.6803 20.8145 37.598C21.1941 37.1689 21.3664 37.0347 21.8303 36.7363Z" fill="#673A97"/>
<path d="M26.3798 41.6821C25.8966 40.7053 24.8996 39.832 25.1058 39.1237L25.237 39.0661C25.5283 39.3012 25.5857 39.5435 25.9408 39.6815C26.6512 39.9577 28.4184 39.7764 28.3328 38.7171C28.1791 38.4232 27.9619 38.1739 27.974 37.8833C28.2026 37.402 29.3356 37.4198 29.5028 37.963C29.4287 38.3439 29.1948 38.5852 28.9331 38.8717C29.7211 40.1375 30.7534 40.7635 32.0342 39.7297C32.3766 39.8578 32.5418 40.1008 32.3925 40.4575L32.3297 40.4905C31.6132 40.875 31.6543 41.8789 30.7792 41.8761C30.3822 42.3657 28.9184 42.7159 28.2938 42.46C27.5297 42.147 27.4172 41.8535 27.0786 41.173C26.8483 41.3504 26.6267 41.5285 26.3798 41.6821Z" fill="#000001"/>
<path d="M27.9491 40.168C28.5631 40.3868 28.8996 40.4057 29.5563 40.4222C30.8087 40.8574 30.2004 40.8993 30.7792 41.8769C30.3823 42.3665 28.9184 42.7166 28.2938 42.4608C27.5297 42.1478 27.4173 41.8542 27.0786 41.1737C27.2658 40.5527 27.3766 40.5005 27.9491 40.168Z" fill="#AC70AE"/>
<path d="M27.949 40.1673C28.7732 39.5053 28.8903 39.6182 29.5562 40.4215C28.8995 40.405 28.563 40.3862 27.949 40.1673Z" fill="#9F59B8"/>
<path d="M42.0233 40.5242C44.0597 40.2875 45.1159 42.5336 42.5805 43.1254C41.3254 43.2293 40.8884 42.8987 40.458 41.7184C40.5653 41.4619 40.635 41.1758 40.7087 40.9061C41.2082 40.7224 41.4947 40.6037 42.0233 40.5242Z" fill="#B97EBF"/>
<path d="M1.86693 43.1889C2.20271 43.1717 2.58896 43.1323 2.91268 43.2018L3.42254 43.256C4.50901 43.6249 5.37828 44.0138 5.8871 45.1281C6.58493 45.8611 7.68514 47.9948 8.01525 48.149L7.83614 48.2366C7.68809 49.1418 10.3117 51.7399 10.4607 52.4797L10.4935 52.4776C10.7178 52.8694 11.3374 53.5502 11.66 53.9055C11.9209 54.2696 13.0325 55.2887 13.4117 55.6572C13.6419 55.894 14.4097 56.563 14.4712 56.7505L14.3648 56.9166C15.512 57.2403 18.2049 57.33 19.5102 57.4355C23.5688 57.7635 27.6419 57.9571 31.7141 57.9759C33.2982 57.9832 34.8683 58.0775 36.4479 57.9962C37.174 57.837 39.5881 57.8793 40.5436 57.8164C43.4089 57.6277 46.4124 57.4846 49.2553 57.1044C49.3966 57.1126 49.6925 57.1393 49.8189 57.1182C51.3833 56.8423 53.095 56.987 54.7204 56.4228C54.9455 56.4583 55.1364 56.5295 55.3248 56.3698C55.9399 55.8484 56.4696 55.115 57.0279 54.5178C57.4711 54.7334 59.0386 55.4566 59.0451 55.974C59.056 56.8446 59.0763 64.6961 58.9569 64.9039C58.7658 64.9312 58.7367 64.9328 58.5678 64.7862C58.5939 65.0577 58.5485 65.0597 58.7075 65.2382L58.9229 65.1742C59.1074 65.7314 58.92 66.3061 59.117 66.8027C59.1027 67.056 59.1123 67.3303 58.9077 67.4888C57.7427 68.3903 55.3735 68.4822 53.9358 68.7288C50.0086 69.4023 46.0429 69.5741 42.0705 69.7716C33.5599 70.1811 25.0316 70.0389 16.5393 69.3459C13.6775 69.1146 10.8198 68.6867 7.97373 68.31C7.20004 68.2076 5.62111 67.8884 5.43506 66.9949C5.25028 66.5972 5.29819 65.4596 5.30035 64.9612C3.82795 64.9145 2.37064 64.6496 0.97602 64.1751C0.638005 64.0612 0.177839 63.9325 0.0151878 63.6042C-0.175883 62.5943 1.48923 59.7549 2.01258 58.5349C1.6388 57.4865 -0.0261995 53.6035 0.146417 52.746C0.191015 52.5244 0.296732 52.3628 0.489432 52.2405C0.705161 52.1036 0.991591 52.0833 1.23985 52.0967C1.78381 52.1259 2.34301 52.3015 2.87962 52.4044C4.03477 52.6258 5.20852 52.8003 6.34801 53.0918C4.708 50.2341 2.31083 46.5688 1.86693 43.1889Z" fill="#3068BA"/>
<path d="M1.86693 43.1889C2.20271 43.1717 2.58896 43.1323 2.91268 43.2018L3.42254 43.256C4.50901 43.6249 5.37828 44.0138 5.8871 45.1281C6.58493 45.8611 7.68514 47.9948 8.01525 48.149L7.83614 48.2366C7.68809 49.1418 10.3117 51.7399 10.4607 52.4797L10.4935 52.4776C10.7178 52.8694 11.3374 53.5502 11.66 53.9055C11.9209 54.2696 13.0325 55.2887 13.4117 55.6572C13.6419 55.894 14.4097 56.563 14.4712 56.7505L14.3648 56.9166C15.512 57.2403 18.2049 57.33 19.5102 57.4355C23.5688 57.7635 27.6419 57.9571 31.7141 57.9759C33.2982 57.9832 34.8683 58.0775 36.4479 57.9962C36.6537 58.0152 36.7544 58.0386 36.9564 57.985L37.1212 58.1229L37.1965 58.1094L37.134 58.0061L37.2721 58.0486C36.8498 58.1639 35.4039 58.1665 35.2566 58.2657C35.8738 58.2868 36.5855 58.2946 37.1932 58.3454C36.5919 58.3786 32.6243 58.3255 32.4953 58.4626C28.3531 58.5098 24.187 58.2658 20.0403 58.2097C18.3093 58.1863 16.46 57.8253 14.7281 57.6996C11.5257 57.441 8.9916 57.0864 5.86826 56.3768C5.87936 57.1904 5.99275 63.3668 5.83512 63.6874C5.71271 63.3437 5.85037 62.7072 5.81947 62.3212C5.66607 60.4026 5.87912 58.4981 5.65489 56.567L5.61249 56.5501C5.40831 59.2799 5.75758 62.2259 5.45119 64.97C5.4044 65.389 5.61457 66.7324 5.43506 66.9949C5.25028 66.5972 5.29819 65.4596 5.30035 64.9612C3.82795 64.9145 2.37064 64.6496 0.97602 64.1751C0.638005 64.0612 0.177839 63.9325 0.0151878 63.6042C-0.175883 62.5943 1.48923 59.7549 2.01258 58.5349C1.6388 57.4865 -0.0261995 53.6035 0.146417 52.746C0.191015 52.5244 0.296732 52.3628 0.489432 52.2405C0.705161 52.1036 0.991591 52.0833 1.23985 52.0967C1.78381 52.1259 2.34301 52.3015 2.87962 52.4044C4.03477 52.6258 5.20852 52.8003 6.34801 53.0918C4.708 50.2341 2.31083 46.5688 1.86693 43.1889Z" fill="#2959AC"/>
<path d="M2.91264 43.2031L3.4225 43.2573C4.50897 43.6262 5.37825 44.0151 5.88707 45.1294C6.5849 45.8625 7.6851 47.9961 8.01521 48.1503L7.8361 48.2379C7.68806 49.1431 10.3117 51.7412 10.4607 52.481L10.4934 52.4789C10.7177 52.8707 11.3374 53.5515 11.66 53.9068C11.9209 54.2709 13.0325 55.2901 13.4116 55.6585C13.6419 55.8953 14.4097 56.5644 14.4712 56.7518L14.3648 56.9179L14.3299 56.9804C14.0025 57.0533 10.4054 56.5382 9.80479 56.4623C9.35849 55.6136 7.70714 53.7671 7.0712 52.8558C5.80554 51.0422 2.56864 45.2917 2.91264 43.2031Z" fill="#81A4DE"/>
<path d="M5.88721 45.1289C6.58504 45.862 7.68524 47.9956 8.01535 48.1498L7.83624 48.2374C7.6882 49.1426 10.3118 51.7407 10.4608 52.4805L10.261 52.7139C9.24061 51.6983 6.70905 47.4552 6.02815 45.9513C5.93672 45.7494 5.90206 45.3581 5.88721 45.1289Z" fill="#3068BA"/>
<path d="M10.4606 52.4806L10.4934 52.4785C10.7177 52.8703 11.3373 53.5511 11.6599 53.9064C11.9208 54.2705 13.0324 55.2896 13.4116 55.6581C13.3224 55.7601 13.2844 55.7736 13.1698 55.8385C12.519 55.1739 10.6979 53.3076 10.2607 52.714L10.4606 52.4806Z" fill="#4A7BC7"/>
<path d="M57.0277 54.5186C57.471 54.7342 59.0385 55.4574 59.0449 55.9748C59.0558 56.8454 59.0762 64.6969 58.9568 64.9047C58.7657 64.9319 58.7365 64.9336 58.5676 64.7869C58.6247 64.0388 58.5708 62.6039 58.5764 61.7708C58.5877 60.0804 58.6735 58.149 58.5764 56.4807C57.5417 56.612 56.506 56.8947 55.467 57.0595C53.9687 57.2969 52.487 57.4496 50.9818 57.6172C50.1486 57.7099 49.2842 57.9121 48.4446 57.9941C45.7818 58.2513 43.084 58.3373 40.4092 58.3722C37.8097 58.4059 35.093 58.5809 32.4951 58.4634C32.6242 58.3262 36.5918 58.3793 37.193 58.3462C36.5853 58.2953 35.8736 58.2876 35.2564 58.2665C35.4037 58.1673 36.8496 58.1647 37.2719 58.0494L37.1338 58.0069L37.1964 58.1102L37.121 58.1237L36.9562 57.9858C36.7542 58.0394 36.6535 58.016 36.4477 57.997C37.1738 57.8378 39.5879 57.8801 40.5434 57.8172C43.4087 57.6285 46.4122 57.4854 49.2552 57.1051C49.3964 57.1134 49.6924 57.1401 49.8187 57.1189C51.3832 56.8431 53.0949 56.9878 54.7203 56.4236C54.9454 56.4591 55.1362 56.5303 55.3246 56.3706C55.9397 55.8491 56.4694 55.1158 57.0277 54.5186Z" fill="#31449E"/>
<path d="M41.0083 61.8574L41.3517 61.9203L41.3229 62.4901L41.1394 62.4907L40.9705 62.2548L41.0083 61.8574Z" fill="#3068BA"/>
<path d="M1.20051 41.0331C0.519104 35.5008 0.191214 31.1485 1.33258 25.6325C3.85696 13.433 12.8453 3.35103 25.2135 0.765259C29.3118 -0.0915489 33.6901 -0.309011 37.7607 0.527308C39.3498 0.496037 45.4396 2.57702 46.7441 3.48367C46.5033 3.71292 46.4208 3.7986 46.1343 3.96414C45.4696 4.62156 44.8575 5.33025 44.3039 6.08374C44.2367 6.18172 44.0871 6.3867 44.0405 6.48252C43.6334 7.11224 42.8111 8.7683 42.7998 9.494C42.5653 10.2389 42.2455 11.669 42.4229 12.4278C42.0856 12.8164 41.6321 13.0876 41.2156 13.3964C40.2026 14.1475 39.0513 15.002 38.3956 16.0986C36.4538 15.1661 34.421 14.7621 32.2924 14.5041C29.351 14.3146 27.318 14.7944 24.5277 15.5948C24.0636 15.0109 23.6972 14.5684 23.1876 14.0264C22.3089 13.2091 17.6468 9.10352 16.5627 10.7671C14.9322 13.2689 13.9527 17.7724 13.6466 20.7471C13.632 20.6311 13.6136 20.485 13.5914 20.3087C12.6354 19.1279 11.6176 17.928 10.6903 16.7266C10.3324 16.2628 10.0955 15.8118 9.85292 15.3556L9.78832 15.3723L9.51706 15.8734C9.04122 16.6484 8.53104 17.5445 7.96033 18.2405L7.75447 18.2104C7.37214 17.7902 7.93734 17.5675 7.78785 17.1044C7.62903 17.2519 7.49064 17.3615 7.37901 17.5473C8.10966 18.2782 5.60533 21.6849 5.54312 22.7789L5.74267 22.9167C5.80991 23.288 5.55071 24.0059 5.43109 24.397C5.35475 24.81 5.27642 24.8344 5.21413 25.0876C4.69765 26.8353 4.32569 30.2218 4.2266 32.0893C4.18763 32.8249 4.2793 34.8877 4.18882 35.4661C4.19729 35.7777 4.19154 36.1846 4.2662 36.4785L4.27355 36.8559L4.09396 36.9228L3.96404 37.2161C3.74221 37.5355 3.61884 37.5597 3.38719 37.8213C2.82567 38.4551 2.32786 39.0613 1.91367 39.8046L1.58284 40.5317C1.42202 40.8126 1.25433 40.8561 1.20051 41.0331Z" fill="#81A4DE"/>
<path d="M32.5722 3.9248C33.0054 4.05576 33.9012 4.03229 34.4135 4.06726C35.0903 4.11597 35.7643 4.19726 36.4333 4.31073C36.8195 4.37685 38.7856 4.8047 39.0113 4.76701L39.4082 4.92088C40.0856 5.06086 43.3533 6.14869 44.0406 6.48264C43.6336 7.11235 42.8112 8.76841 42.7999 9.49411C42.5654 10.2391 42.2456 11.6691 42.423 12.4279C42.0857 12.8165 41.6322 13.0877 41.2157 13.3965C40.2027 14.1476 39.0514 15.0021 38.3957 16.0987C36.4539 15.1662 34.4211 14.7622 32.2925 14.5042C29.3511 14.3147 27.3181 14.7946 24.5278 15.5949C24.0637 15.011 23.6974 14.5685 23.1877 14.0265C23.4092 13.6535 24.8924 12.3938 25.2679 11.9966C26.6593 10.5248 31.6174 5.5371 32.2725 4.01528L32.5722 3.9248Z" fill="#AAC1E7"/>
<path d="M39.4081 4.9209C40.0856 5.06088 43.3532 6.14871 44.0405 6.48265C43.6335 7.11237 42.8112 8.76843 42.7999 9.49413C42.5653 10.2391 42.2456 11.6691 42.423 12.4279C42.0857 12.8165 41.6322 13.0877 41.2157 13.3965C40.2027 14.1476 39.0513 15.0021 38.3957 16.0987C36.4538 15.1662 34.4211 14.7622 32.2925 14.5042C32.3104 13.7349 33.7781 12.1467 34.3084 11.5054C35.4146 10.1671 36.4791 8.81562 37.5436 7.44288C38.1973 6.59987 38.921 5.88647 39.4081 4.9209Z" fill="#81A4DE"/>
<path d="M10.6698 14.2244C13.1236 11.5845 14.1863 10.3654 17.295 8.30986C20.9481 5.91596 25.1306 4.45051 29.479 4.04103C30.2505 3.96685 31.5441 3.86607 32.2725 4.01603C31.6174 5.53786 26.6593 10.5256 25.2679 11.9974C24.8924 12.3945 23.4092 13.6542 23.1877 14.0273C22.309 13.21 17.6469 9.10439 16.5628 10.768C14.9323 13.2697 13.9528 17.7732 13.6467 20.748C13.6321 20.632 13.6137 20.4858 13.5915 20.3096C12.6355 19.1287 11.6177 17.9289 10.6904 16.7274C10.3325 16.2637 10.0956 15.8127 9.85303 15.3564C9.97464 15.1448 10.4893 14.4882 10.6698 14.2244Z" fill="#81A4DE"/>
<path d="M1.20051 41.0331C0.519104 35.5008 0.191214 31.1485 1.33258 25.6325C3.85696 13.433 12.8453 3.35103 25.2135 0.765259C29.3118 -0.0915489 33.6901 -0.309011 37.7607 0.527308L37.8239 0.66756C38.0637 0.684313 39.074 0.783282 39.2117 0.971287C38.0228 1.25666 37.9081 0.865299 36.8509 0.990108C14.8212 -2.01891 -1.17942 16.8973 1.49445 38.0732C1.54555 38.478 1.59729 39.6023 1.91367 39.8046L1.58284 40.5317C1.42202 40.8126 1.25433 40.8561 1.20051 41.0331Z" fill="#3068BA"/>
<path d="M10.3699 13.9128C10.3827 13.8881 10.3956 13.8634 10.4085 13.8387C13.9309 9.06466 19.4191 5.71533 25.0947 4.19678C26.312 3.87114 32.0084 2.96945 32.7159 3.3953C32.755 3.66424 32.7125 3.63286 32.5723 3.9248L32.2726 4.01527C31.5442 3.86531 30.2506 3.96608 29.4791 4.04027C25.1308 4.44975 20.9482 5.9152 17.2952 8.3091C14.1864 10.3647 13.1237 11.5838 10.67 14.2237C10.4488 14.1475 10.5063 14.1543 10.3699 13.9128Z" fill="#3068BA"/>
<path d="M37.7609 0.527692C39.3501 0.496422 45.4398 2.57741 46.7443 3.48405C46.5036 3.71331 46.4211 3.79899 46.1346 3.96452C44.8973 3.52909 43.6766 2.89243 42.4986 2.4621C40.8934 1.87558 38.5222 1.25873 36.8511 0.990493C37.9083 0.865684 38.023 1.25704 39.2119 0.971671C39.0742 0.783667 38.0639 0.684698 37.8242 0.667945L37.7609 0.527692Z" fill="#4A7BC7"/>
<path d="M3.97273 36.1241C3.6296 34.0649 3.84401 30.5686 3.99892 28.4815C4.04803 27.8206 4.65012 24.9166 5.06391 24.5732C5.22769 24.8047 5.1801 24.7754 5.21444 25.0884C4.69795 26.8361 4.326 30.2226 4.2269 32.0901C4.18793 32.8257 4.2796 34.8885 4.18913 35.4669C4.14393 35.7065 4.13124 35.9581 3.97273 36.1241Z" fill="#3068BA"/>
<path d="M7.37921 17.5479C8.10986 18.2787 5.60553 21.6855 5.54333 22.7795C5.40997 22.9967 5.34346 23.1917 5.06405 23.1312C4.45662 22.2538 6.06069 19.1082 6.64473 18.3154C6.85019 18.0365 7.11618 17.7749 7.37921 17.5479Z" fill="#DBE1F0"/>
<path d="M39.0112 4.76738C39.0219 4.52766 39.0177 4.4867 39.1679 4.30368C39.9017 4.08464 42.825 5.34631 43.6178 5.71643C43.8107 5.8065 44.046 5.97706 44.3039 6.08423C44.2368 6.18221 44.0871 6.38719 44.0405 6.48301C43.3532 6.14907 40.0856 5.06124 39.4081 4.92126L39.0112 4.76738Z" fill="#4A7BC7"/>
<path d="M10.3698 13.9131C10.5063 14.1546 10.4488 14.1478 10.6699 14.224C10.4893 14.4877 9.97467 15.1443 9.85306 15.3559L9.78846 15.3726C9.31621 14.9422 10.0719 14.2591 10.3698 13.9131Z" fill="#4A7BC7"/>
<path d="M4.18865 35.4668C4.19712 35.7784 4.19137 36.1853 4.26603 36.4792L4.27337 36.8566L4.09379 36.9235L3.96387 37.2168L3.97225 36.1241C4.13076 35.9581 4.14345 35.7064 4.18865 35.4668Z" fill="#31449E"/>
<path d="M46.7442 3.48508C47.42 3.14706 48.4173 2.56478 49.0625 2.32426C51.1473 1.54726 53.9509 1.54525 56.0477 2.24529C58.6513 3.11791 60.7974 4.9962 62.0074 7.46117C63.701 10.8618 63.4269 15.5751 60.9074 18.5125C60.7281 18.6498 60.5937 18.7826 60.5575 19.0243C59.9151 19.649 59.2349 20.2338 58.5209 20.7753L58.0992 20.9755C55.6375 22.3648 53.0786 22.8905 50.3335 22.1166C50.125 22.0569 49.9202 21.9846 49.7203 21.9004C49.7206 22.5347 49.7479 23.4221 49.6502 24.0275C49.6092 23.437 49.7856 22.0538 49.521 21.6724C48.8877 21.1983 47.1856 22.3073 46.7068 22.7847C46.6092 22.8305 46.188 23.0348 46.1115 23.0547C45.8199 22.8535 45.0313 23.0796 44.7096 23.182C45.1433 22.1795 44.8385 21.1619 45.7496 19.5968C43.3844 17.1913 43.3653 16.4699 42.4398 13.3869C42.6329 13.1846 42.6009 13.067 42.619 12.8128L42.423 12.4292C42.2457 11.6704 42.5654 10.2403 42.7999 9.49541C42.8112 8.76971 43.6336 7.11365 44.0406 6.48393C44.0872 6.38811 44.2369 6.18313 44.304 6.08515C44.8576 5.33166 45.4697 4.62297 46.1345 3.96555C46.421 3.80001 46.5035 3.71433 46.7442 3.48508Z" fill="#31449E"/>
<path d="M42.7999 9.49512C42.8747 9.77939 42.7115 10.5064 42.6743 10.9171C42.61 11.6265 42.8204 12.0923 42.6412 12.6522C42.6203 12.7172 42.6216 12.7465 42.619 12.8125L42.423 12.4289C42.2457 11.6701 42.5654 10.2401 42.7999 9.49512Z" fill="#44257C"/>
<path d="M46.6493 19.3137C44.5984 17.8952 43.0216 14.3252 43.1428 11.8555C43.5689 3.16598 53.6132 -0.746393 59.7534 5.6299C60.5102 6.40167 61.3859 7.69057 61.6796 8.72203C62.0201 9.65909 62.3717 10.6148 62.3941 11.6062C62.4874 15.7412 60.1455 19.5077 56.2524 20.998C54.3789 21.7151 51.7343 21.9891 49.8957 21.1888C49.3699 20.9668 48.8973 20.8847 48.3346 20.8538C47.4025 21.3924 46.7149 21.7939 45.746 22.3006C45.9729 21.112 46.1207 20.3958 46.6493 19.3137Z" fill="white"/>
<path d="M61.6794 8.72266C62.0199 9.65972 62.3715 10.6155 62.3939 11.6068C62.4872 15.7418 60.1453 19.5083 56.2522 20.9986C54.3787 21.7158 51.7341 21.9897 49.8955 21.1895C50.1264 21.0117 50.1597 20.9925 50.4367 20.904C51.5975 21.0504 53.3809 21.115 54.5133 20.8256C56.5711 20.2999 59.2171 18.6909 60.3233 16.8333C61.5248 14.8157 62.0837 12.3119 61.5523 10.0221C61.6713 9.64264 61.6642 9.12974 61.6794 8.72266Z" fill="#D3C6DF"/>
<path d="M59.7534 5.62988C60.5102 6.40166 61.3859 7.69055 61.6796 8.72201C61.6644 9.1291 61.6715 9.64199 61.5525 10.0214C61.3651 9.48284 61.1757 9.00245 60.9717 8.48756C60.6863 7.76689 59.7897 6.28435 59.7534 5.62988Z" fill="#DBE1F0"/>
<path d="M48.3345 20.8531C48.4586 20.646 48.5457 20.4023 48.7789 20.3455C49.2154 20.2393 50.0297 20.7095 50.4368 20.9026C50.1597 20.9912 50.1265 21.0104 49.8956 21.1881C49.3698 20.966 48.8971 20.884 48.3345 20.8531Z" fill="#DBE1F0"/>
<path d="M55.7862 7.13477C56.3637 7.2555 57.1444 7.62322 57.3521 8.21908C57.8133 9.54152 55.7969 11.1359 54.9098 12.0402C55.5477 12.7655 57.3757 14.2537 57.3778 15.2272C57.3795 16.0074 56.4345 16.449 55.9185 16.9168L55.8614 16.969C54.4768 16.0495 53.8968 15.1056 52.7261 14.2007C52.3601 14.608 51.9864 15.0085 51.6054 15.4019C51.0831 15.942 50.2442 16.9458 49.5308 16.9579C46.2048 15.7207 49.3699 13.3782 50.6809 12.0282C49.9904 11.3809 49.2214 10.4727 48.5166 9.82531C47.3113 8.7184 48.5995 7.24856 49.6862 7.29942C50.5307 7.33895 52.1809 9.19647 52.7447 9.89031C53.6105 9.09179 54.7027 7.6015 55.7862 7.13477Z" fill="#31449E"/>
<path d="M58.3946 46.3423C59.3597 46.3303 59.8773 46.3273 60.8104 46.5494C61.1444 47.8357 55.8043 55.2908 54.7204 56.4235C53.095 56.9876 51.3833 56.8429 49.8188 57.1188C49.6925 57.14 49.3965 57.1132 49.2553 57.105C46.4123 57.4853 43.4088 57.6284 40.5435 57.8171C39.588 57.88 37.1739 57.8377 36.4478 57.9969C34.8682 58.0782 33.2981 57.9839 31.714 57.9765C27.6419 57.9578 23.5688 57.7641 19.5101 57.4362C18.2048 57.3307 15.5119 57.2409 14.3647 56.9173L14.4712 56.7512C14.4097 56.5637 13.6418 55.8946 13.4116 55.6579C13.0325 55.2894 11.9209 54.2703 11.66 53.9061C11.3374 53.5509 10.7177 52.87 10.4934 52.4783C11.1114 51.8851 13.0029 50.7032 13.8213 50.5189C14.2755 50.8235 14.2603 51.007 14.4223 51.5855C14.6345 51.771 14.9467 52.0274 15.1377 52.2212C15.5068 52.4759 16.3762 52.6794 17.084 53.1501C17.6868 53.0484 18.3403 52.9055 18.9444 52.7861C19.479 53.6302 19.9611 54.0506 20.792 54.5644C20.8821 55.5281 21.2425 56.0966 22.1567 56.4933C23.9729 57.2816 25.6202 57.9511 26.6402 55.7897C28.391 56.2114 30.8156 56.3278 32.6061 56.1632C33.1991 57.7857 34.4322 57.584 35.8902 57.3502C36.9709 57.1769 37.5383 56.9427 38.4176 56.2854C39.0688 54.6207 39.152 55.3907 40.7185 54.6419C40.9209 54.5451 41.2184 54.0787 41.3732 53.9256C41.6479 53.7709 42.4931 54.0178 42.8344 54.0425C43.9734 54.1248 44.8542 53.1117 45.814 52.5571C46.585 52.1116 48.1856 51.5089 48.4291 50.5824C48.5194 50.2388 48.0097 49.7881 47.7763 49.5586C49.0042 49.4842 50.1232 49.4349 51.2387 50.0573C51.6263 50.2003 52.2854 51.1087 52.7067 50.7178C54.1333 49.3942 54.8942 47.9107 56.8451 47.1659C57.5733 46.8479 57.5829 47.1771 58.3946 46.3423Z" fill="#87A5DE"/>
<path d="M58.3947 46.3423C59.3598 46.3303 59.8773 46.3273 60.8105 46.5494C61.1445 47.8357 55.8043 55.2908 54.7204 56.4235C53.095 56.9876 51.3833 56.8429 49.8188 57.1188C49.9205 56.8654 50.0643 56.8442 50.3428 56.6614C50.3457 56.4811 50.3205 56.4457 50.2547 56.273C50.3971 56.0521 51.7981 54.8245 52.1768 54.4522C53.7731 52.883 55.1457 51.1652 56.3538 49.2785C56.5292 49.0048 56.8055 48.2413 56.9925 47.8692C56.9855 47.6806 56.9846 47.4919 56.9894 47.3033L56.8451 47.1659C57.5733 46.8479 57.583 47.1771 58.3947 46.3423Z" fill="#81A4DE"/>
<path d="M56.9924 47.8682L57.0985 47.94C56.6059 50.1305 52.3538 55.4049 50.4779 56.5805C50.4335 56.6083 50.3885 56.6348 50.3427 56.6604C50.3457 56.48 50.3204 56.4446 50.2546 56.272C50.3971 56.051 51.798 54.8235 52.1768 54.4511C53.773 52.8819 55.1457 51.1642 56.3538 49.2775C56.5291 49.0037 56.8055 48.2403 56.9924 47.8682Z" fill="#4366BA"/>
<path d="M13.8213 50.5186C14.2755 50.8231 14.2603 51.0066 14.4223 51.5851C14.6345 51.7706 14.9467 52.027 15.1377 52.2208C14.5973 52.6364 14.6115 52.4581 14.1943 53.0697C13.7587 53.2248 11.9764 53.9404 11.66 53.9057C11.3374 53.5505 10.7177 52.8697 10.4934 52.4779C11.1114 51.8848 13.0029 50.7028 13.8213 50.5186Z" fill="#AAC1E7"/>
<path d="M50.2547 56.2734C50.3205 56.4461 50.3458 56.4815 50.3428 56.6618C50.0644 56.8446 49.9205 56.8658 49.8189 57.1192C49.6926 57.1404 49.3966 57.1136 49.2554 57.1054C49.4789 57.0249 50.0442 56.4659 50.2547 56.2734Z" fill="#3068BA"/>
<path d="M58.0991 20.9736C58.2669 21.8068 58.6275 22.4638 58.8775 23.251C59.1922 24.242 59.659 25.5398 59.8554 26.556C60.708 30.9683 60.5509 35.4799 59.8531 39.9009C59.8072 40.1919 59.553 41.3562 59.4319 41.5471C58.7367 40.542 58.0883 39.7861 57.1692 39.1159C55.2464 37.7133 53.7502 36.6025 52.3172 39.2701C52.2183 39.4542 51.5269 39.9744 51.2786 39.9993C51.3129 40.1523 51.6573 37.6174 51.683 37.3961C52.213 32.8181 51.2764 29.7786 49.4473 25.6666C49.6595 25.1529 49.6392 24.5762 49.6502 24.0256C49.7478 23.4202 49.7206 22.5328 49.7203 21.8985C49.9202 21.9827 50.125 22.055 50.3335 22.1147C53.0786 22.8886 55.6375 22.3629 58.0991 20.9736Z" fill="#8EABE0"/>
<path d="M9.85298 15.3555C10.0956 15.8117 10.3325 16.2628 10.6903 16.7265C11.6176 17.9279 12.6354 19.1278 13.5914 20.3086C13.6136 20.4849 13.6321 20.631 13.6467 20.747C13.5834 22.077 13.4661 22.8622 13.6996 24.1626L13.7109 24.2241C12.9671 25.3788 12.5411 26.2767 12.0207 27.5399C10.8142 27.2174 9.81777 26.1908 8.52535 25.9445C8.18422 25.8795 7.74839 25.7989 7.4412 25.6552C7.22456 25.7063 7.29714 25.6821 7.13121 25.9175C7.04816 26.1975 6.8229 26.4645 6.51315 26.4458C6.31448 26.203 6.40527 26.1937 6.3473 25.878C6.24381 25.3147 5.54622 24.9513 5.43115 24.3969C5.55077 24.0058 5.80997 23.2879 5.74274 22.9166L5.54319 22.7788C5.60539 21.6848 8.10972 18.2781 7.37907 17.5472C7.49071 17.3614 7.62909 17.2518 7.78792 17.1043C7.9374 17.5674 7.3722 17.7901 7.75454 18.2103L7.9604 18.2404C8.5311 17.5444 9.04128 16.6483 9.51712 15.8733L9.78838 15.3722L9.85298 15.3555Z" fill="#AAC1E7"/>
<path d="M7.96078 18.2412C8.20848 18.4804 8.1105 18.8899 8.19491 19.2109C8.42656 20.0916 8.63545 20.6011 8.57684 21.533C7.88788 22.1617 7.3028 22.5453 6.49517 23.0134C6.17209 23.0415 6.15819 23.0984 5.93213 22.9619C6.12042 22.2229 7.5366 18.8099 7.96078 18.2412Z" fill="#DBE1F0"/>
<path d="M5.21427 25.087C5.27656 24.8339 5.35489 24.8095 5.43123 24.3965C5.5463 24.9508 6.24389 25.3142 6.34738 25.8776C6.40535 26.1932 6.31456 26.2026 6.51323 26.4453C6.82298 26.4641 7.04824 26.1971 7.13129 25.917C7.29722 25.6816 7.22463 25.7059 7.44127 25.6547C7.74847 25.7985 8.1843 25.8791 8.52543 25.9441C9.81784 26.1904 10.8143 27.217 12.0208 27.5395C11.6314 28.4241 11.2413 29.8167 10.9485 30.774C10.8324 31.2291 10.6499 32.5559 10.5396 32.82C7.78272 33.2528 8.75628 36.0478 5.78929 33.8933C5.27608 33.5178 4.77436 33.1269 4.28471 32.7212C4.28159 33.9511 4.2998 35.2541 4.26634 36.478C4.19168 36.1841 4.19743 35.7771 4.18896 35.4655C4.27944 34.8872 4.18777 32.8243 4.22674 32.0887C4.32583 30.2212 4.69779 26.8348 5.21427 25.087Z" fill="#7595D7"/>
<path d="M7.13135 25.9176C7.29728 25.6822 7.2247 25.7065 7.44134 25.6553C7.74853 25.799 8.18436 25.8797 8.52549 25.9447C9.8179 26.1909 10.8144 27.2175 12.0209 27.54C11.6314 28.4246 11.2414 29.8173 10.9485 30.7745C8.83292 29.7527 8.38719 27.4906 7.45882 25.8203C7.32379 25.8016 7.25464 25.8553 7.13135 25.9176Z" fill="#81A4DE"/>
<path d="M17.9491 48.5769C18.438 48.4901 19.1514 48.9662 19.8946 49.1469L19.8371 49.1588C19.3941 49.2472 19.2393 49.1028 18.921 49.2978C18.7536 49.5524 18.7173 49.6544 18.6058 49.9388C18.8966 50.5783 19.2735 51.4425 19.5963 52.0604L19.5497 52.0981L19.6617 52.1899L19.5451 52.0415C20.0211 52.2063 21.0654 52.4789 21.3061 52.8214C22.4616 54.4654 21.6333 55.0814 24.1401 54.8937L24.2586 54.7408C24.302 54.6763 24.3675 54.5454 24.4214 54.5457C25.0533 54.5482 26.1121 54.941 26.718 55.0457C27.1661 55.1233 28.2195 54.7554 28.7183 55.0936C28.7378 55.107 29.008 55.2588 28.9953 55.2583C30.623 55.3286 32.2044 55.2377 33.8259 55.1252C34.2152 55.0982 34.4292 55.0032 34.7878 55.0174C34.924 55.1499 34.9769 55.1955 35.026 55.3805C34.8192 55.9328 34.1366 55.7539 33.6876 56.1495C33.6017 56.4451 33.7722 56.6056 34.0639 56.7689C34.669 57.1074 36.6347 56.1546 36.8265 56.1629L36.8572 56.2657C37.0972 55.9871 36.9638 54.954 37.1298 54.7686C38.6126 53.1134 42.3623 53.7542 40.5774 50.2438C40.4087 49.9121 39.0184 50.1162 38.5152 50.0898C39.8895 49.8682 40.6382 49.8017 41.9846 49.4184C42.0706 49.8396 42.1261 50.3846 42.4795 50.6431C42.8799 50.2598 42.1625 49.8271 43.3013 49.8501C43.494 49.8547 43.6866 49.8607 43.8792 49.8683C44.0649 50.0409 44.3063 50.2799 44.5096 50.4176C44.721 50.8061 44.8498 50.9478 45.1315 51.2757L44.9227 52.298C43.8213 53.2617 43.2986 53.8913 41.7966 53.2239C41.6446 53.1564 41.3262 53.11 41.1537 53.0882C41.4389 52.6345 41.7601 52.1175 41.7858 51.567L41.6786 51.5028C41.3044 51.6514 40.7996 52.6316 40.6071 52.9991C40.18 53.8145 38.4239 54.4261 38.2027 55.0389C37.8893 55.9074 38.2067 55.9656 36.9653 56.4748C36.8455 56.5245 36.7224 56.5658 36.597 56.5985C36.1677 56.7792 34.9604 56.8657 34.4662 56.9353C33.9545 57.0073 33.5817 56.675 33.4465 56.1817C33.6623 55.4847 34.6436 56.0614 34.8388 55.2033C32.408 55.4311 29.9672 55.522 27.5272 55.333C26.7034 55.2691 24.8923 54.6329 24.3179 54.7527C24.453 55.6418 25.5407 55.1218 25.8477 55.6964C25.8181 57.3536 22.4558 56.0105 21.7427 55.4951C21.454 55.2866 21.4875 54.5624 21.4933 54.2331C20.0335 53.2876 19.4742 52.4758 18.8436 50.8623C18.7581 50.6433 18.6621 50.3478 18.4767 50.2111L18.2635 50.2457C18.2104 51.3414 18.7273 51.74 18.3854 52.3331C17.7333 52.7578 16.3215 52.0724 16.0634 51.4191L16.0349 51.0635C16.8714 50.7671 17.065 50.5444 17.737 49.9697C17.852 49.8617 17.9743 49.7803 18.1022 49.689L18.37 49.2163C18.0754 48.9432 17.9039 49.1167 17.9491 48.5769Z" fill="#673A97"/>
<path d="M18.37 49.217L18.5748 49.1875C18.7173 49.4667 18.5737 49.642 18.3788 49.8406L18.2301 49.8711L18.1023 49.6897L18.37 49.217Z" fill="#0C0424"/>
<path d="M7.97966 37.7324C8.34219 38.2875 8.45071 38.4198 8.43546 39.0721C8.23439 39.6066 8.2482 39.7649 8.10974 40.226L8.08195 40.6981C7.76134 41.1627 8.30889 45.9005 7.7635 46.503C7.15127 45.0846 4.64566 42.7987 3.0336 42.5873C2.54259 42.4511 1.98122 42.5925 1.68896 42.2431C1.90792 41.7389 1.99041 41.5155 2.33106 41.079L2.1149 40.7647C2.28418 40.6692 2.47711 40.5029 2.62867 40.3732C4.23698 38.9964 5.96626 38.3151 7.97966 37.7324Z" fill="#9F59B8"/>
<path d="M7.97951 37.7324C8.34204 38.2875 8.45056 38.4198 8.4353 39.0721C8.23424 39.6066 8.24805 39.7649 8.10959 40.226L8.11542 38.3352C6.18794 38.5173 3.62787 39.6118 2.33091 41.079L2.11475 40.7647C2.28403 40.6692 2.47696 40.5029 2.62852 40.3732C4.23682 38.9964 5.96611 38.3151 7.97951 37.7324Z" fill="#03000B"/>
<path d="M8.01522 48.1497C8.65468 47.9179 9.23353 47.6537 9.81845 47.3383C10.9064 46.7517 13.8011 47.9367 14.6343 48.6861L13.9043 49.3302C13.8344 49.6752 13.7188 50.11 13.761 50.4497L13.8214 50.519C13.003 50.7032 11.1114 51.8852 10.4934 52.4783L10.4607 52.4804C10.3117 51.7406 7.68807 49.1425 7.83611 48.2373L8.01522 48.1497Z" fill="#7595D7"/>
<path d="M2.04834 40.6558C3.30753 38.3967 5.7463 35.7732 8.54377 35.8936C9.20264 37.0792 9.30006 37.3973 10.463 38.064C10.6262 38.7269 10.7643 39.5934 10.8929 40.2773C10.3985 39.9981 9.87587 39.3445 9.28624 39.5421C9.16087 39.6961 8.7569 41.3002 8.58314 41.7574C8.5175 40.8696 8.51056 39.9943 8.43565 39.0715C8.45091 38.4191 8.34239 38.2868 7.97986 37.7318C5.96646 38.3144 4.23717 38.9958 2.62887 40.3726C2.47731 40.5022 2.28438 40.6685 2.1151 40.764L2.09138 40.7503L2.04834 40.6558Z" fill="#44257C"/>
<path d="M4.28448 32.7227C4.77413 33.1284 5.27585 33.5193 5.78906 33.8947C8.75605 36.0493 7.78249 33.2543 10.5394 32.8215C10.4382 34.0639 10.3817 35.282 10.4022 36.5283C10.4071 36.8202 10.4039 37.0834 10.3598 37.3722L10.2577 37.4107C9.36142 36.8715 9.08002 34.9376 7.79687 35.2504C6.60874 35.5399 5.06216 36.7013 4.27346 36.8569L4.26611 36.4795C4.29957 35.2556 4.28136 33.9526 4.28448 32.7227Z" fill="#81A4DE"/>
<path d="M15.6918 16.0146C15.7093 16.2597 15.7231 16.6063 15.7754 16.8368C15.8301 17.6895 16.1761 20.2563 16.4568 21.0253C16.4152 21.2217 16.3596 21.3624 16.5864 21.4894C16.3073 21.8563 15.5164 22.8933 15.1968 23.1897L15.1428 23.0892C14.8274 22.9191 14.0088 23.5212 14.182 21.7905C14.2931 20.6804 14.2147 18.8631 14.4272 17.851C14.5678 17.1818 15.4812 17.089 15.6918 16.0146Z" fill="#0C0424"/>
<path d="M16.3528 47.7744C16.549 47.8234 16.7444 47.8758 16.9389 47.9314C17.3786 48.0593 17.7251 48.171 17.9492 48.5768C17.904 49.1166 18.0754 48.9431 18.37 49.2162L18.1023 49.6889C17.9743 49.7802 17.8521 49.8616 17.7371 49.9696C17.0651 50.5443 16.8714 50.767 16.035 51.0634L15.7252 50.9831L15.0616 51.1083C15.0527 50.8739 14.9899 50.6365 14.9398 50.4056C14.7537 50.2223 14.5316 49.9007 14.3699 49.6816C14.9789 49.165 15.3164 49.1048 16.0749 49.033C16.142 48.5708 16.2355 48.2233 16.3528 47.7744Z" fill="#7F56AD"/>
<path d="M14.9397 50.4062C15.3209 50.545 15.4792 50.643 15.7251 50.9838L15.0615 51.109C15.0526 50.8746 14.9898 50.6372 14.9397 50.4062Z" fill="#673A97"/>
<path d="M46.2555 49.624C47.0542 49.7687 47.2704 50.029 47.8878 50.5408C47.4074 51.0071 46.5161 51.8073 45.8308 51.8745C45.3385 51.6837 45.6073 51.3753 45.1317 51.2749C44.8499 50.9469 44.7211 50.8053 44.5098 50.4167C45.1513 50.1664 45.6703 49.86 46.2555 49.624Z" fill="#44257C"/>
<path d="M11.6084 39.7656C11.9217 40.0291 12.4671 41.8668 12.7516 42.4452C13.709 44.3923 15.232 45.8503 17.0164 47.0395C18.3655 47.9385 19.6634 45.2821 19.7263 48.573C19.3713 48.4299 18.7989 48.25 18.641 47.9253C18.7849 47.6658 18.9151 47.4544 18.8362 47.1624L18.6632 47.1233C18.2309 47.2634 18.1339 47.2884 17.7875 47.5734C14.7383 46.3032 12.2639 42.9653 11.6084 39.7656Z" fill="#7F56AD"/>
<path d="M1.58311 40.5312L1.70185 40.6944C1.87265 40.7029 1.8903 40.7102 2.04833 40.6545L2.09137 40.749L2.11508 40.7627L2.33124 41.077C1.99059 41.5135 1.90811 41.7369 1.68915 42.2411C1.98141 42.5905 2.54277 42.4491 3.03379 42.5853C2.47681 42.6398 1.5106 42.4843 1.24884 42.7488C1.36176 42.9167 1.36359 42.9303 1.54318 43.0068C2.40263 42.6117 2.66295 42.7182 3.42259 43.256L2.91273 43.2018C2.58901 43.1322 2.20276 43.1717 1.86698 43.1888C0.426252 43.2347 0.982696 41.959 1.20077 41.0326C1.25459 40.8557 1.42228 40.8122 1.58311 40.5312Z" fill="#1A0132"/>
<path d="M2.09135 40.75L2.11507 40.7637L2.33123 41.078C1.99058 41.5145 1.90809 41.7379 1.68914 42.2421C1.35535 41.5007 1.60298 41.2325 2.09135 40.75Z" fill="#0C0424"/>
<path d="M17.2043 10.9648C18.1207 11.4811 19.2021 11.7845 20.0978 12.4386C18.5029 12.2826 18.7629 10.9664 16.8905 12.0011C16.2222 13.2439 15.7453 15.4613 15.7755 16.8363C15.7233 16.6058 15.7094 16.2592 15.6919 16.0142C15.7695 13.9086 16.2335 12.7447 17.2043 10.9648Z" fill="#673A97"/>
<path d="M15.7252 50.9834L16.0349 51.0637L16.0634 51.4192C15.829 51.7831 15.5804 51.7832 15.2227 51.6165C15.0307 51.3476 15.0814 51.4547 15.0615 51.1085L15.7252 50.9834Z" fill="#673A97"/>
<path d="M50.897 43.0784C51.3962 42.7769 51.9552 42.2738 52.4106 41.8877C52.5664 43.5466 52.6743 45.3014 52.5755 46.9683C52.5183 47.9341 52.3021 48.9495 52.2485 49.9365C50.9611 48.9644 49.5497 48.7225 47.9725 48.8144C46.3452 49.2142 45.8824 48.7567 44.6514 49.9149C44.2865 49.5873 44.1031 49.4415 43.8312 49.0244L43.7678 48.6025C44.4237 48.0711 45.7178 47.6556 46.7196 46.7887C47.9838 45.6947 48.3525 44.8714 49.4902 43.814C49.7717 43.5523 50.5193 43.2449 50.897 43.0784Z" fill="#9F59B8"/>
<path d="M43.7676 48.6032C44.4234 48.0719 45.7176 47.6563 46.7194 46.7894C47.9835 45.6955 48.3523 44.8721 49.49 43.8147C49.7714 43.553 50.519 43.2456 50.8968 43.0791C50.9974 44.0942 48.0862 47.4121 47.1384 48.0475C47.0214 48.126 46.9704 48.2979 46.971 48.4279C47.2174 48.5811 47.4858 48.4941 47.9182 48.6678C47.7851 48.7439 47.5251 48.7487 47.3611 48.7638C47.6153 48.8049 47.7142 48.8121 47.9723 48.8151C46.345 49.215 45.8822 48.7574 44.6511 49.9156C44.2862 49.588 44.1029 49.4422 43.831 49.0252L43.7676 48.6032Z" fill="#673A97"/>
<path d="M52.6931 49.6748C53.1017 47.7963 53.2909 45.7837 53.5918 43.8841C53.6918 43.2521 53.7316 41.2722 54.0491 40.8548C55.2615 40.551 58.3495 43.2501 59.2837 44.0861C59.4024 43.8182 59.2925 43.7152 59.1846 43.463C59.4059 43.4013 59.4344 43.3948 59.6463 43.4794C59.7795 43.616 59.908 43.757 60.0318 43.9022C60.1425 44.3795 60.2228 44.5864 60.0593 45.0529L60.4214 45.9339C58.956 46.0546 57.977 45.8899 56.5953 46.5367C54.8508 47.3534 54.0281 48.3617 52.6931 49.6748Z" fill="#9F59B8"/>
<path d="M59.1848 43.4627C59.4061 43.4011 59.4346 43.3945 59.6465 43.4791C59.7796 43.6157 59.9082 43.7567 60.032 43.9019C60.1426 44.3793 60.223 44.5861 60.0595 45.0527C59.8057 44.7267 59.5471 44.4043 59.2839 44.0858C59.4026 43.8179 59.2927 43.715 59.1848 43.4627Z" fill="#4A2977"/>
<path d="M8.52298 47.2577C8.5055 44.6279 8.49607 42.3682 9.66072 39.9014C9.8578 39.9388 9.97454 40.1201 10.1434 40.2891C11.5132 41.2735 11.4894 41.7552 12.2408 43.1692C13.0619 44.7139 14.6065 46.4998 16.0831 47.4353C15.6794 47.6206 15.3853 47.7748 14.9992 47.9892C14.6822 47.8633 13.7255 47.4505 13.464 47.2771C11.1211 46.3235 10.9139 46.2068 8.52298 47.2577Z" fill="#9F59B8"/>
<path d="M10.1433 40.2891C11.5131 41.2734 11.4893 41.7552 12.2407 43.1691C13.0618 44.7138 14.6064 46.4997 16.083 47.4352C15.6792 47.6206 15.3852 47.7747 14.9991 47.9892C14.6821 47.8632 13.7254 47.4504 13.4639 47.277C13.5162 46.822 11.0101 43.7353 10.6757 42.8372C10.2554 41.7086 10.1097 41.5817 10.1433 40.2891Z" fill="#673A97"/>
<path d="M53.9055 38.2451C56.4056 38.7443 57.556 39.9112 59.0286 41.9908C59.3053 42.3816 59.9207 43.4439 60.0319 43.9017C59.9081 43.7565 59.7796 43.6155 59.6465 43.4789C59.4345 43.3943 59.406 43.4009 59.1847 43.4625C57.953 42.2812 57.0778 41.6942 55.595 40.8842C52.4937 39.1902 53.8478 42.3269 52.9999 44.1352C52.9715 42.9735 53.051 42.3371 52.4238 41.3174C51.3412 42.3255 51.188 42.4386 49.8491 43.0617C50.2306 42.359 50.4317 41.7255 50.8022 41.0851C51.0222 40.7049 52.0351 40.2647 52.38 39.9179C52.9052 39.39 53.3932 38.7975 53.9055 38.2451Z" fill="#44257C"/>
<path d="M43.831 49.0255C43.4962 49.1955 43.1161 49.3933 42.7344 49.331L42.7461 49.2043C42.9835 48.9215 43.4218 48.7626 43.7676 48.6035L43.831 49.0255Z" fill="#44257C"/>
<path d="M60.5573 19.0225C60.5936 18.7809 60.728 18.6481 60.9073 18.5107C61.4662 19.4497 61.8043 20.3696 62.1848 21.4053C64.598 27.9744 64.6759 35.441 63.0958 42.2042C62.4837 44.8241 59.9524 51.3755 57.996 53.1216C59.826 52.7681 61.7196 52.3681 63.554 52.0259C64.0138 51.9402 64.338 52.5137 64.5657 52.8583C64.0233 54.3697 62.9047 57.1045 62.5143 58.5196C63.006 59.6505 64.4657 62.5446 64.6967 63.5007C63.2861 64.3966 60.7842 64.9015 59.1402 64.9657C59.1466 65.5244 59.1751 66.2626 59.1167 66.8027C58.9197 66.3062 59.1071 65.7314 58.9227 65.1743L58.7072 65.2382C58.5483 65.0597 58.5937 65.0578 58.5676 64.7862C58.7365 64.9329 58.7656 64.9312 58.9567 64.904C59.0761 64.6961 59.0557 56.8446 59.0449 55.9741C59.0384 55.4566 57.4709 54.7334 57.0276 54.5178C56.4694 55.115 55.9396 55.8484 55.3245 56.3698C55.1362 56.5295 54.9453 56.4584 54.7202 56.4228C55.8041 55.2901 61.1443 47.8351 60.8102 46.5488L60.9521 46.4881C61.1665 46.2172 61.1073 46.188 61.1614 45.7915C61.0251 44.7593 60.1737 42.969 59.7456 41.9123C59.6425 41.6392 59.7105 41.7381 59.4318 41.5473C59.5529 41.3564 59.8071 40.192 59.853 39.901C60.5508 35.4801 60.7079 30.9684 59.8553 26.5562C59.6589 25.54 59.1921 24.2422 58.8774 23.2512C58.6274 22.4639 58.2668 21.807 58.099 20.9738L58.5207 20.7735C59.2348 20.232 59.9149 19.6473 60.5573 19.0225Z" fill="#3068BA"/>
<path d="M60.5575 19.0244C60.7872 19.5737 60.8765 20.1507 61.0882 20.6676C63.7022 27.0486 63.9617 34.1711 62.6745 40.8926C62.4517 42.0558 61.7506 44.5543 61.3333 45.695C61.2581 45.7468 61.2446 45.7689 61.1615 45.7934C61.0252 44.7612 60.1738 42.9709 59.7457 41.9142C59.6426 41.6411 59.7106 41.74 59.4319 41.5492C59.553 41.3583 59.8072 40.1939 59.8531 39.9029C60.5509 35.482 60.708 30.9703 59.8554 26.5581C59.659 25.5419 59.1922 24.244 58.8775 23.2531C58.6275 22.4658 58.2669 21.8089 58.0991 20.9757L58.5208 20.7754C59.2349 20.2339 59.915 19.6492 60.5575 19.0244Z" fill="#81A4DE"/>
<path d="M58.5208 20.7734C59.3142 22.8768 60.0489 24.8197 60.4763 27.0577C61.1122 30.3872 60.9978 34.0036 60.6963 37.3742C60.5531 38.7285 60.0386 40.6164 59.7457 41.9122C59.6426 41.6391 59.7106 41.738 59.4319 41.5472C59.553 41.3563 59.8072 40.1919 59.8531 39.901C60.5509 35.48 60.708 30.9684 59.8554 26.5561C59.659 25.5399 59.1922 24.2421 58.8775 23.2511C58.6275 22.4638 58.2669 21.8069 58.0991 20.9737L58.5208 20.7734Z" fill="#4F72C5"/>
</svg>
