<svg width="65" height="70" viewBox="0 0 65 70" fill="none" xmlns="http://www.w3.org/2000/svg">
<path d="M4.50928 16.0099C5.11331 15.2614 5.55054 14.3616 6.08309 13.5593C6.68909 12.6464 7.38905 11.7794 8.0994 10.9464C13.3672 4.8817 20.7416 1.04395 28.731 0.209388C37.142 -0.764096 45.5914 1.6832 52.18 7.00116C58.6963 12.2783 63.1265 20.8424 63.9065 29.1451C64.1229 31.4488 64.2738 35.3202 63.8839 37.5742C63.7985 41.8616 60.9791 49.8682 58.1574 53.0754C58.7045 52.9436 59.8004 52.6949 60.3528 52.6581C61.1969 52.434 62.5466 52.2563 63.4135 52.0518C64.5254 51.7894 64.6214 53.2526 64.1986 53.9373C63.6687 55.469 63.182 56.9919 62.4367 58.4168C65.6193 64.3359 65.4083 63.8841 59.2178 64.9779C59.2653 67.135 59.3593 67.8498 56.9051 68.1998C54.9444 68.4797 52.9534 68.9477 50.9682 69.132C36.2683 70.4954 21.2138 70.36 6.62837 67.949C5.289 67.7276 5.43301 66.0122 5.41315 64.9842C4.14052 64.8947 2.69928 64.4875 1.46254 64.1662C0.958875 64.0353 -0.20676 63.771 0.0317993 63.0337C0.542867 61.4542 1.40761 60.0189 2.02113 58.4528C1.59511 57.4967 1.26029 56.4299 0.890932 55.4427C0.593579 54.6477 -0.0516057 53.351 0.122796 52.5345C0.304503 52.2797 0.534289 52.1331 0.845411 52.0803C1.30702 52.002 5.66144 52.8255 6.16473 53.0216C6.13907 52.8 4.75524 50.5316 4.53155 50.1645C3.2067 47.9896 2.42299 45.8649 1.65681 43.4411L1.63078 43.3788C1.38414 42.4007 1.2545 41.3643 1.05842 40.3983C0.0656955 35.5067 0.117123 30.565 1.15277 25.6839C1.28286 25.0707 1.36706 24.4639 1.53018 23.8358C1.72949 23.0685 2.10156 22.1176 2.22089 21.3551C1.97094 21.1072 1.82821 21.3529 1.47224 21.1165C1.23215 20.4766 3.00882 16.2702 3.66575 15.8936C3.91743 15.8118 4.24307 15.9371 4.50928 16.0099ZM54.6998 35.5161C54.78 35.8683 54.9336 36.6841 55.1255 36.9431L55.213 36.9151C55.3255 36.5416 55.2004 35.7023 55.0941 35.3296C54.9381 35.4799 54.915 35.4893 54.6998 35.5161ZM10.1171 41.2568L9.90722 41.2156C9.91903 41.4849 9.87976 41.5781 10.0054 41.785C10.1123 41.592 10.1016 41.4763 10.1171 41.2568Z" fill="#000004"/>
<path d="M63.8839 37.5742C63.7985 41.8616 60.9791 49.8682 58.1574 53.0754C58.7045 52.9436 59.8004 52.6949 60.3528 52.658C61.1969 52.434 62.5466 52.2563 63.4135 52.0517C64.5254 51.7894 64.6214 53.2526 64.1986 53.9373C63.6687 55.469 63.182 56.9919 62.4367 58.4168C65.6193 64.3359 65.4083 63.8841 59.2178 64.9778C59.2653 67.135 59.3593 67.8497 56.9051 68.1997C54.9444 68.4796 52.9534 68.9476 50.9682 69.132C36.2683 70.4954 21.2138 70.3599 6.62837 67.949C5.289 67.7275 5.43301 66.0122 5.41315 64.9842C4.14052 64.8947 2.69928 64.4875 1.46254 64.1662C0.958875 64.0353 -0.20676 63.771 0.0317993 63.0337C0.542867 61.4542 1.40761 60.0189 2.02113 58.4527C1.59511 57.4966 1.26029 56.4299 0.890932 55.4426C0.593579 54.6477 -0.0516057 53.3509 0.122796 52.5345C0.304503 52.2796 0.534289 52.1331 0.845411 52.0802C1.30702 52.002 5.66144 52.8254 6.16473 53.0216C7.45037 53.279 8.37795 55.9962 9.69971 56.5288C9.82431 56.579 10.2788 56.5934 10.439 56.6022C11.5827 56.6472 12.7284 56.7871 13.8663 56.8948C14.292 56.935 15.1268 57.05 15.511 57.0401L15.5853 56.943C16.0606 57.1722 17.3707 57.2593 17.8735 57.4851C18.4606 57.4802 18.763 57.7842 19.2603 57.4759C22.5698 57.9652 27.549 58.0393 30.9663 58.0349C30.9633 57.6632 30.9829 57.2316 30.9918 56.8552C31.185 57.2729 31.0035 57.4595 31.1463 57.8798L31.3113 57.929C31.7283 57.6123 31.4165 57.0709 31.5174 56.5126C31.3555 55.0172 31.3126 53.3327 31.1987 51.8C32.0318 52.1723 32.8211 52.8324 33.8519 52.9658C35.0223 53.1173 35.9275 52.3778 36.7907 51.7217L36.8106 51.6411C37.0525 51.4646 37.1115 51.4371 37.3899 51.3234C37.3742 53.1673 37.4673 56.2543 37.317 57.9609C40.26 57.9309 43.2327 57.8145 46.1729 57.6373C47.0733 57.5831 48.7628 57.1134 49.269 57.1006C49.6859 57.1635 49.8012 57.16 50.2225 57.1217C50.6943 57.0389 51.1635 56.9418 51.6295 56.8307C51.8649 56.7991 52.11 56.7568 52.3456 56.7195C52.501 56.6532 52.8003 56.4956 52.9149 56.3883C53.6111 55.7368 53.9839 53.4107 54.0379 52.5031L55.0769 52.265C56.0232 51.1057 56.2711 50.878 56.515 49.3828L56.5015 48.8633C57.3865 48.5985 60.4274 39.8698 60.1201 39.0118C60.3539 38.9136 60.4074 38.88 60.6154 38.7407C61.3041 38.3068 62.1138 38.1948 62.9034 38.0468C63.2146 37.9826 63.2877 37.8609 63.4757 37.6201L63.8839 37.5742Z" fill="#7347A6"/>
<path d="M60.6154 38.7407C61.3042 38.3069 62.1139 38.1949 62.9035 38.0469L63.0644 38.1378C63.1183 38.8619 62.8841 39.8822 62.7677 40.6096C62.0696 44.973 60.0182 49.0954 57.6206 52.7681C56.7527 54.0974 55.7601 55.0784 54.8762 56.5555C54.0625 56.662 53.2481 56.7632 52.433 56.859C52.346 56.7733 52.3648 56.8239 52.3457 56.7196C52.5011 56.6532 52.8004 56.4957 52.915 56.3884C53.6112 55.7369 53.984 53.4107 54.038 52.5032L55.077 52.2651C56.0233 51.1057 56.2712 50.878 56.5151 49.3828L56.5016 48.8634C57.3866 48.5986 60.4275 39.8699 60.1202 39.0118C60.354 38.9137 60.4075 38.88 60.6154 38.7407Z" fill="#D6C0E0"/>
<path d="M60.1204 39.0123C60.3541 38.9141 60.4076 38.8805 60.6156 38.7412C60.0239 41.7433 59.0383 45.2113 57.5242 47.9269C57.3619 48.2181 56.5695 49.2137 56.5153 49.3833L56.5017 48.8638C57.3867 48.5991 60.4276 39.8704 60.1204 39.0123Z" fill="#8366B0"/>
<path d="M31.1987 51.8009C32.0318 52.1733 32.8212 52.8334 33.852 52.9668C35.0223 53.1182 35.9275 52.3788 36.7907 51.7227C36.6627 53.0179 36.7186 54.6184 36.6929 55.9599C36.6658 56.083 36.6326 56.2345 36.5931 56.4141C36.1144 56.9327 35.6474 57.3175 35.3653 57.9852C34.2632 57.9422 32.8884 58.0297 31.6986 57.9988C31.6861 57.4709 31.6356 57.0269 31.5175 56.5136C31.3555 55.0181 31.3126 53.3336 31.1987 51.8009Z" fill="#9374B9"/>
<path d="M63.8838 37.5742C63.7984 41.8616 60.9789 49.8682 58.1572 53.0754C58.7043 52.9436 59.8003 52.6949 60.3526 52.658L60.4395 52.7461C60.0216 52.9052 59.7468 52.8251 59.4937 52.9053C58.2176 53.3097 58.0047 53.2255 57.1993 54.2455C57.6861 54.526 59.0251 55.2204 59.1629 55.8061C59.4265 56.9258 59.0333 58.2768 59.0885 59.3743C59.1679 60.9535 59.0299 62.7734 59.134 64.3163L59.0445 64.3838C58.6777 63.8145 59.1096 59.1404 58.8009 58.7617C58.6859 59.054 58.8451 60.4659 58.7468 60.8499C58.5883 61.4694 58.8059 64.6269 58.6305 64.8985C58.4219 62.3155 58.7267 59.0364 58.6342 56.4025C55.6164 56.9441 52.9184 57.4324 49.8771 57.8249C49.7541 57.7922 49.6722 57.7862 49.5886 57.6921C49.9796 57.442 50.0245 57.5011 50.2224 57.1217C50.6941 57.0389 51.1633 56.9418 51.6293 56.8307C51.8647 56.7991 52.1098 56.7568 52.3455 56.7195C52.3646 56.8238 52.3458 56.7733 52.4327 56.859C53.2478 56.7631 54.0622 56.6619 54.876 56.5554C55.7598 55.0783 56.7525 54.0973 57.6203 52.768C60.0179 49.0953 62.0694 44.973 62.7675 40.6095C62.8839 39.8821 63.1181 38.8618 63.0642 38.1377L62.9033 38.0468C63.2145 37.9826 63.2875 37.8609 63.4756 37.6201L63.8838 37.5742Z" fill="#68419D"/>
<path d="M36.8106 51.642C37.0525 51.4654 37.1115 51.4379 37.3899 51.3242C37.3742 53.1681 37.4673 56.2551 37.317 57.9618C40.26 57.9317 43.2327 57.8153 46.1729 57.6382C47.0733 57.5839 48.7628 57.1142 49.269 57.1015C49.6859 57.1644 49.8012 57.1608 50.2225 57.1225C50.0247 57.5019 49.9797 57.4428 49.5888 57.6929C49.6724 57.787 49.7542 57.793 49.8773 57.8257C49.374 57.8793 48.7832 57.9656 48.2825 57.981C42.1225 58.169 35.9358 58.6799 29.7736 58.462C28.1816 58.4058 26.615 58.3365 25.0351 58.2827C23.6215 58.2393 22.2083 58.1867 20.7954 58.125C19.8248 58.0812 18.6818 58.1313 17.8735 57.4859C18.4606 57.481 18.763 57.785 19.2603 57.4768C22.5698 57.9661 27.549 58.0401 30.9663 58.0357C30.9633 57.664 30.9829 57.2324 30.9918 56.856C31.185 57.2738 31.0036 57.4603 31.1463 57.8806L31.3113 57.9298C31.7283 57.6131 31.4165 57.0717 31.5175 56.5134C31.6356 57.0267 31.6861 57.4707 31.6986 57.9987C32.8884 58.0296 34.2632 57.9421 35.3653 57.9851C35.6474 57.3174 36.1144 56.9325 36.5931 56.414C36.6326 56.2344 36.6658 56.0829 36.6929 55.9597C36.7186 54.6183 36.6627 53.0178 36.7907 51.7225L36.8106 51.642Z" fill="#4D2983"/>
<path d="M35.3652 57.9843C35.6473 57.3166 36.1143 56.9318 36.5931 56.4132C36.6325 56.2336 36.6658 56.0822 36.6929 55.959C36.6947 56.6173 36.7148 57.3698 36.6538 58.0175C36.3724 58.0125 35.5842 58.0432 35.3652 57.9843Z" fill="#905CB7"/>
<path d="M39.0481 61.6912C40.3041 61.4473 41.5187 62.2717 41.7558 63.529C41.9929 64.7862 41.162 65.9964 39.9036 66.2268C38.6546 66.4554 37.4554 65.6322 37.2201 64.3844C36.9847 63.1366 37.8016 61.9332 39.0481 61.6912Z" fill="#FEFEFE"/>
<path d="M39.3223 62.54C39.8938 62.5491 40.4467 62.9451 40.6241 63.4934C40.7481 63.8815 40.7081 64.3033 40.5135 64.6612C40.2887 65.0745 40.0664 65.2101 39.6352 65.3397C37.9254 65.3477 37.6882 63.3071 39.3223 62.54Z" fill="#7347A6"/>
<path d="M24.0121 61.6508C24.8963 61.4578 25.8118 61.7995 26.3534 62.5248C26.8949 63.2499 26.9624 64.2247 26.5263 65.0177C26.2141 65.5852 25.6778 65.9954 25.0484 66.1481C24.1009 66.3781 23.111 65.9876 22.5756 65.1727C22.0402 64.3578 22.0747 63.2942 22.6619 62.5158C22.9941 62.0753 23.4731 61.7685 24.0121 61.6508Z" fill="#FEFEFE"/>
<path d="M24.1395 62.4772C26.0594 62.4334 26.1337 64.6092 24.8548 65.2899C24.3794 65.3123 23.8997 65.2622 23.6102 64.8538C22.9224 63.8837 23.4304 63.0931 24.1395 62.4772Z" fill="#7347A6"/>
<path d="M19.0624 61.2853C19.4882 61.2557 19.9412 61.2871 20.3384 61.453C20.9811 61.7278 21.4847 62.2518 21.7339 62.9048C21.9609 63.4977 21.9427 64.1567 21.6832 64.7361C21.3843 65.4033 20.9196 65.7133 20.266 65.9629C17.9969 66.2276 17.2799 64.6309 17.5344 62.6568C17.959 62.1529 18.4651 61.5689 19.0624 61.2853Z" fill="#FEFEFE"/>
<path d="M19.2526 62.3221C19.3625 62.3147 19.4811 62.3083 19.5908 62.316C19.9737 62.3455 20.3294 62.5253 20.5802 62.8162C21.2245 63.5769 20.777 64.4535 20.1197 65.0116C18.4691 65.543 17.8205 63.2535 19.2526 62.3221Z" fill="#7347A6"/>
<path d="M35.1769 64.6732C35.2539 64.1678 35.7294 62.2746 36.0575 62.0376C37.3392 61.1113 36.6958 63.1854 36.6201 63.511C36.4299 64.2669 36.1278 66.0064 35.3462 66.3356C34.452 66.3147 34.1947 64.3675 34.0753 63.6635C33.9024 64.4322 33.6092 66.4054 32.6081 66.312C32.0435 66.0062 31.78 64.8949 31.6424 64.2948C31.4893 63.6273 30.9181 62.4335 31.0874 61.8084C31.3421 61.7858 31.7336 61.732 31.9465 61.8731C32.5649 62.2832 32.6666 63.8989 32.781 64.6543C32.9941 63.9402 33.3787 62.0756 34.1413 61.9106C34.8332 62.1571 35.0827 64.0389 35.1769 64.6732Z" fill="#FEFEFE"/>
<path d="M49.8423 61.0195C49.9984 61.0637 50.5015 61.1942 50.5295 61.3812C50.7069 62.6668 50.7277 64.1321 50.5994 65.4232C50.5748 65.6707 49.9727 65.5865 49.7913 65.4919C49.4572 65.0772 49.4998 63.9739 49.4477 63.3515C49.0689 64.2527 48.9645 64.4975 48.3224 65.2216C47.9106 64.6796 47.5168 64.0242 47.1683 63.4377L47.1559 65.1127C47.1191 65.5587 47.0477 65.9959 46.4858 65.9379C45.8833 65.5838 45.9741 61.7402 46.6967 61.3209C47.4112 61.3898 47.9217 63.1611 48.382 63.6025C48.7037 63.2624 49.2535 61.6082 49.8423 61.0195Z" fill="#FEFEFE"/>
<path d="M13.8598 60.966C14.809 60.9779 16.6293 60.8166 16.8371 62.0671C16.9235 62.5868 16.8619 62.7837 16.5946 63.2306C16.7019 64.2152 17.3043 63.7606 16.8045 65.2328C16.0906 65.7642 14.632 65.4567 13.757 65.3473C13.7259 63.9231 13.7944 62.3873 13.8598 60.966Z" fill="#FEFEFE"/>
<path d="M14.7364 63.6607C15.1244 63.6572 15.6319 63.5846 15.9093 63.8819C16.0334 64.1227 15.9596 64.3184 15.9033 64.5873C15.486 64.6728 15.1627 64.7525 14.8287 64.5324C14.6718 64.2967 14.7244 63.9539 14.7364 63.6607Z" fill="#905CB7"/>
<path d="M14.8352 61.9434C15.1525 61.9386 15.5007 61.9048 15.7232 62.1692C15.8189 62.4029 15.7818 62.4825 15.723 62.7209C15.6189 62.7434 15.5145 62.764 15.4096 62.7828C15.121 62.832 15.063 62.818 14.8572 62.6743C14.7313 62.4461 14.7987 62.2084 14.8352 61.9434Z" fill="#7347A6"/>
<path d="M42.5887 61.6091C44.0869 61.5114 44.613 61.2099 45.5008 62.5577C45.526 63.5118 45.3954 63.5924 44.7907 64.347C45.0781 64.9304 45.5498 65.3617 45.4552 65.8627C45.1184 66.2363 44.8129 66.0633 44.5162 65.7963C44.0923 65.3535 43.8942 64.999 43.5569 64.4999L43.4648 64.4993C43.18 64.8718 43.4847 65.7323 43.1481 66.0581C43.0283 66.174 42.4084 66.1994 42.3761 65.9735C42.2434 65.0444 42.1451 62.4871 42.3843 61.6778L42.5887 61.6091Z" fill="#FEFEFE"/>
<path d="M43.4914 62.3857C44.2593 62.414 44.9297 62.8934 44.1806 63.5838C43.9692 63.6064 43.5927 63.6742 43.4151 63.5244C43.0678 63.2316 43.2072 62.7006 43.4914 62.3857Z" fill="#7347A6"/>
<path d="M27.2409 61.7207L28.2541 61.7383C28.2961 62.2616 28.2907 62.8957 28.2989 63.4293C28.8674 62.9006 30.0056 61.2327 30.7331 61.9746C30.7333 62.3896 29.8034 63.2203 29.4005 63.824C29.8174 64.678 29.9588 64.932 30.6193 65.604C30.7409 65.7278 30.7409 65.7392 30.803 65.9049C30.2408 67.3784 28.7629 64.8583 28.3592 64.3353C28.26 64.9088 28.503 66.8993 27.3346 66.0642C27.0737 65.4469 27.2198 62.5873 27.2409 61.7207Z" fill="#FEFEFE"/>
<path d="M4.5094 16.0099C5.11343 15.2614 5.55066 14.3616 6.08322 13.5593C6.68921 12.6464 7.38918 11.7794 8.09953 10.9464C13.3673 4.8817 20.7417 1.04395 28.7312 0.209388C37.1421 -0.764096 45.5915 1.6832 52.1801 7.00116C58.6964 12.2783 63.1267 20.8424 63.9066 29.1451C64.123 31.4488 64.2739 35.3202 63.884 37.5742L63.4758 37.6201C63.4402 37.2448 63.4228 37.2004 63.2348 36.8728C62.461 35.6415 61.9487 34.7631 60.8863 33.7526L60.863 33.6942C60.6857 33.5823 60.6421 33.5446 60.4919 33.3977C60.5822 33.3146 60.5461 33.3668 60.569 33.2179C60.5682 31.0029 59.9882 25.967 59.07 24.0999C58.6111 23.2072 58.2223 21.9078 57.8051 20.9603C57.4021 19.9861 56.7722 18.9899 56.3872 18.02C56.0934 17.2801 55.2664 16.5991 55.099 15.9904L54.8136 16.2397L55.0085 16.4666C54.8417 16.9662 54.6347 17.0428 54.1434 16.9304C53.7509 16.5772 53.316 15.6352 52.7341 15.8224C52.3442 15.7088 52.3268 14.7391 52.2804 14.377C52.4541 13.9266 52.6347 13.4789 52.8222 13.0341L52.6895 12.7725C52.4463 12.7115 49.9674 10.2863 49.5413 9.94429C46.5547 7.54696 43.3524 6.26011 39.838 5.00524C39.8597 4.84295 39.9137 4.61353 39.9473 4.44695C38.6804 4.29662 37.364 3.98204 36.0909 3.77603C35.5136 3.68265 33.7269 3.59093 33.3394 3.44692L32.9347 3.93697L32.7733 4.07135C31.8345 3.97557 30.5248 4.173 29.5937 4.23402C21.2902 4.77824 13.6735 9.50556 8.93628 16.2647C8.79205 16.4705 8.69822 16.5977 8.45888 16.659C8.48401 16.2802 8.49071 16.1875 8.61147 15.8314C8.59348 15.3571 8.54067 14.5335 8.16755 14.2408C7.93467 14.2169 7.88795 14.2069 7.66012 14.2862C7.27804 14.4447 7.00101 14.3216 6.59929 14.2217C6.06885 14.9908 5.39205 16.6496 4.89268 16.9763C4.59841 16.9957 4.57892 16.9334 4.42994 16.6536C4.38141 16.4984 4.47238 16.1863 4.5094 16.0099Z" fill="#D6C0E0"/>
<path d="M4.5094 16.0099C5.11343 15.2614 5.55066 14.3616 6.08322 13.5593C6.68921 12.6464 7.38918 11.7794 8.09953 10.9464C13.3673 4.8817 20.7417 1.04395 28.7312 0.209388C37.1421 -0.764096 45.5915 1.6832 52.1801 7.00116C58.6964 12.2783 63.1267 20.8424 63.9066 29.1451C64.123 31.4488 64.2739 35.3202 63.884 37.5742L63.4758 37.6201C63.4402 37.2448 63.4228 37.2004 63.2348 36.8728C63.3666 36.6189 63.3989 35.6855 63.4123 35.3548C63.5303 32.4694 63.3205 29.5799 62.7867 26.7419C59.8571 11.1058 46.5747 -0.208283 30.4572 0.818449C27.6356 0.998125 24.1204 1.70765 21.4699 2.65253C15.4218 4.85295 10.2194 8.90047 6.59929 14.2217C6.06885 14.9908 5.39205 16.6496 4.89268 16.9763C4.59841 16.9957 4.57892 16.9334 4.42994 16.6536C4.38141 16.4984 4.47238 16.1863 4.5094 16.0099Z" fill="#905CB7"/>
<path d="M8.61157 15.8317C8.90261 15.6125 9.86441 14.0713 10.1905 13.6587C14.44 8.28075 20.7763 4.80928 27.5169 3.75838C29.4259 3.46073 31.4103 3.26977 33.3395 3.44726L32.9348 3.93731L32.7734 4.07169C31.8346 3.97591 30.5249 4.17334 29.5938 4.23436C21.2903 4.77858 13.6736 9.5059 8.93639 16.265C8.79215 16.4708 8.69833 16.5981 8.45898 16.6594C8.48411 16.2805 8.49081 16.1878 8.61157 15.8317Z" fill="#905CB7"/>
<path d="M52.6894 12.7731C52.858 12.7878 52.8669 12.7822 53.0316 12.7337L53.1289 12.5391C53.2407 12.6018 53.5186 12.7382 53.581 12.8242C54.4153 13.9513 55.1801 14.8738 55.9575 16.0644C58.7322 20.3146 60.6141 25.553 60.8702 30.6438C60.8962 31.1602 60.9864 33.2307 60.921 33.5996C60.9121 33.6514 60.9004 33.7027 60.8861 33.7533L60.8629 33.6949C60.6855 33.583 60.642 33.5452 60.4917 33.3984C60.5821 33.3152 60.546 33.3675 60.5688 33.2186C60.5681 31.0036 59.988 25.9677 59.0699 24.1006C58.611 23.2079 58.2221 21.9085 57.8049 20.9609C57.4019 19.9868 56.7721 18.9906 56.387 18.0207C56.0933 17.2808 55.2662 16.5998 55.0989 15.9911L54.8135 16.2404L55.0084 16.4673C54.8416 16.9669 54.6346 17.0435 54.1432 16.931C53.7508 16.5779 53.3159 15.6358 52.7339 15.8231C52.344 15.7095 52.3266 14.7398 52.2803 14.3777C52.4539 13.9273 52.6346 13.4796 52.822 13.0348L52.6894 12.7731Z" fill="#9374B9"/>
<path d="M52.822 13.0352C52.9423 13.2082 53.5851 15.1584 53.8994 15.7872C54.133 15.9109 54.4604 16.071 54.6792 16.2033L54.8135 16.2408L55.0084 16.4677C54.8416 16.9673 54.6346 17.0439 54.1432 16.9314C53.7508 16.5783 53.3159 15.6362 52.7339 15.8235C52.344 15.7099 52.3266 14.7402 52.2803 14.3781C52.4539 13.9277 52.6346 13.48 52.822 13.0352Z" fill="#9374B9"/>
<path d="M52.6895 12.7731C52.8581 12.7878 52.867 12.7822 53.0317 12.7337L53.129 12.5391C53.2407 12.6018 53.5187 12.7382 53.5811 12.8242C52.9647 13.8197 55.0155 15.1551 54.9148 16.0064L54.6793 16.2029C54.4605 16.0706 54.1331 15.9105 53.8995 15.7868C53.5852 15.158 52.9424 13.2078 52.8221 13.0348L52.6895 12.7731Z" fill="#B695D0"/>
<path d="M60.5693 33.2191C60.6401 32.9896 60.7014 32.7469 60.817 32.5391C60.881 32.7662 60.8744 33.4383 60.8634 33.6954C60.686 33.5836 60.6424 33.5458 60.4922 33.3989C60.5826 33.3158 60.5464 33.3681 60.5693 33.2191Z" fill="#905CB7"/>
<path d="M39.9471 4.44922C40.8436 4.45012 41.6884 4.94431 42.5135 5.24309C46.3523 6.63324 49.2295 8.64647 52.1518 11.481C52.2948 11.6197 53.0771 12.4212 53.1289 12.5406L53.0316 12.7353C52.8669 12.7838 52.858 12.7894 52.6894 12.7747C52.4462 12.7138 49.9673 10.2886 49.5411 9.94656C46.5546 7.54923 43.3523 6.26238 39.8379 5.00751C39.8596 4.84521 39.9136 4.6158 39.9471 4.44922Z" fill="#A784CA"/>
<path d="M12.7688 41.2013L13.0341 41.1623L13.0225 41.0166C13.7951 41.2385 14.8691 41.5091 15.5777 41.8226C17.5746 42.2844 20.1273 43.3069 22.1079 43.9354L26.9367 45.4305C27.5828 45.6243 29.9734 46.3386 30.5487 46.6541C30.7005 46.699 30.9215 46.7728 31.0721 46.7923C31.5974 46.2708 32.1201 46.1257 32.7997 45.9077L32.8207 46.0688C32.9977 46.1934 33.1823 46.1537 33.4109 46.1444L33.6534 46.1161C34.2649 45.9641 34.5908 46.1585 35.1436 46.088L35.1516 45.9698C35.5927 46.0099 36.0075 46.1666 36.3936 46.3814C36.5439 46.5094 36.5878 46.5381 36.762 46.6314C37.1486 46.6471 37.5919 46.413 37.9741 46.2603L38.2097 46.2589C37.9853 46.3599 37.6824 46.4726 37.6274 46.7137C37.3131 48.0912 37.5254 49.8683 37.3903 51.3239C37.1119 51.4376 37.0529 51.465 36.811 51.6416L36.7911 51.7222C35.9279 52.3783 35.0227 53.1178 33.8524 52.9663C32.8216 52.8329 32.0322 52.1728 31.1991 51.8005C31.313 53.3332 31.3559 55.0177 31.5179 56.5131C31.4169 57.0714 31.7287 57.6128 31.3117 57.9294L31.1467 57.8802C31.004 57.4599 31.1854 57.2734 30.9922 56.8557C30.9834 57.232 30.9637 57.6637 30.9667 58.0354C27.5494 58.0398 22.5702 57.9657 19.2607 57.4764C18.1759 56.9851 17.0865 56.7312 15.9404 56.4227C15.5447 55.2857 15.4357 54.0202 15.009 52.7724C15.5186 52.4918 15.7798 52.3935 15.9705 51.7648C16.226 50.9221 16.0781 49.5425 15.6567 48.7816C15.1122 47.7987 14.5399 47.5763 13.565 47.2752C13.1292 45.9204 12.8654 44.517 12.6009 43.1206C12.5102 42.6421 12.2035 41.5566 12.5131 41.1936L12.7688 41.2013Z" fill="#905CB7"/>
<path d="M32.7996 45.9082L32.8206 46.0693C32.9976 46.1939 33.1822 46.1542 33.4108 46.1449L33.6533 46.1165C34.2648 45.9646 34.5907 46.159 35.1435 46.0885L35.1515 45.9703C35.5926 46.0104 36.0074 46.167 36.3935 46.3818C36.5438 46.5099 36.5877 46.5386 36.7619 46.6319C37.1485 46.6476 37.5917 46.4135 37.974 46.2608L38.2095 46.2594C37.9852 46.3603 37.6823 46.473 37.6273 46.7142C37.313 48.0917 37.5253 49.8687 37.3902 51.3244C37.1118 51.438 37.0528 51.4655 36.8109 51.6421L36.791 51.7227C35.9278 52.3788 35.0226 53.1183 33.8523 52.9668C32.8215 52.8334 32.0321 52.1733 31.199 51.8009C31.0877 51.3581 31.024 48.1467 30.9863 47.4202C31.5865 47.5786 32.1973 47.6938 32.8139 47.7652L32.9549 47.7175C32.7947 47.5601 31.8676 47.6734 31.4005 47.3387L31.3771 47.1883L31.6004 47.0028L31.573 46.9082C31.3267 46.9137 31.2959 46.8986 31.072 46.7928C31.5973 46.2713 32.12 46.1262 32.7996 45.9082Z" fill="#905CB7"/>
<path d="M32.799 45.9082L32.8199 46.0693C32.9969 46.1939 33.1815 46.1542 33.4102 46.1449L33.6527 46.1165C34.2641 45.9646 34.59 46.159 35.1428 46.0885L35.1509 45.9703C35.5919 46.0104 36.0067 46.167 36.3928 46.3818C36.5431 46.5099 36.5871 46.5386 36.7612 46.6319C37.1478 46.6476 37.5911 46.4135 37.9733 46.2608L38.2089 46.2594C37.9845 46.3603 37.6816 46.473 37.6266 46.7142C37.3123 48.0917 37.5246 49.8687 37.3895 51.3244C37.1111 51.438 37.0521 51.4655 36.8102 51.6421C36.7108 50.5585 36.8682 48.4711 36.9407 47.3451C35.8392 47.7193 33.9787 47.9865 32.8132 47.7652L32.9543 47.7175C32.7941 47.5601 31.867 47.6734 31.3999 47.3387L31.3764 47.1883L31.5997 47.0028L31.5723 46.9082C31.3261 46.9137 31.2953 46.8986 31.0713 46.7928C31.5966 46.2713 32.1193 46.1262 32.799 45.9082Z" fill="#4B2A80"/>
<path d="M32.799 45.9082L32.8199 46.0693C32.9969 46.1939 33.1815 46.1542 33.4102 46.1449L33.6527 46.1165C34.2641 45.9646 34.59 46.159 35.1428 46.0885L35.1509 45.9703C35.5919 46.0104 36.0067 46.167 36.3928 46.3818C36.3333 46.5083 36.2484 46.6706 36.2153 46.8026C36.1607 47.5778 32.2947 47.4399 31.5997 47.0028L31.5723 46.9082C31.3261 46.9137 31.2953 46.8986 31.0713 46.7928C31.5966 46.2713 32.1193 46.1262 32.799 45.9082Z" fill="#E4DDE7"/>
<path d="M32.799 45.9082L32.8199 46.0693C32.9969 46.1939 33.1815 46.1542 33.4102 46.1449C32.9279 46.2796 31.9454 46.5883 31.5723 46.9082C31.3261 46.9137 31.2953 46.8986 31.0713 46.7928C31.5966 46.2713 32.1193 46.1262 32.799 45.9082Z" fill="#120618"/>
<path d="M35.1515 45.9688C35.5926 46.0089 36.0074 46.1655 36.3935 46.3803C36.3339 46.5068 36.2491 46.6691 36.216 46.8011C35.1452 46.2228 34.8834 46.0997 33.6533 46.115C34.2648 45.963 34.5907 46.1575 35.1435 46.087L35.1515 45.9688Z" fill="#1B0938"/>
<path d="M30.5483 46.6533C30.7002 46.6982 30.9211 46.772 31.0717 46.7915C31.2957 46.8973 31.3265 46.9125 31.5727 46.9069L31.6001 47.0015L31.3768 47.187L31.4003 47.3374C31.8674 47.6721 32.7945 47.5588 32.9547 47.7163L32.8136 47.7639C32.197 47.6926 31.5863 47.5773 30.9861 47.4189C31.0238 48.1454 31.0874 51.3569 31.1988 51.7997C31.3126 53.3324 31.3556 55.0169 31.5175 56.5123C31.4165 57.0706 31.7283 57.612 31.3113 57.9286L31.1463 57.8794C31.0036 57.4591 31.1851 57.2726 30.9919 56.8549C30.9696 55.585 30.7538 47.3584 30.5365 46.8269C30.5063 46.753 30.5287 46.7289 30.5483 46.6533Z" fill="#3D1D6F"/>
<path d="M12.7686 41.2013L13.0339 41.1623L13.0223 41.0166C13.7949 41.2385 14.8689 41.5091 15.5775 41.8226C15.2748 41.913 15.2236 41.7341 14.7727 41.7641L14.6718 41.9051L14.6366 41.8688L14.8862 42.0341L14.8475 42.0817C14.2102 41.9171 13.2816 41.6179 12.7686 41.2013Z" fill="#7347A6"/>
<path d="M21.4425 48.4512C21.5575 48.6758 21.5487 48.6611 21.5987 48.908C21.6482 49.1517 21.932 49.5389 22.0431 49.7565C22.7334 51.1074 23.3034 51.3393 24.5398 52.0943C23.78 52.701 23.5118 52.686 22.8196 53.5262C22.7832 53.2229 22.7677 52.829 22.5425 52.6337C21.121 52.6627 19.8436 52.012 18.4761 51.5224C20.1358 50.3034 20.8268 50.7548 21.4425 48.4512Z" fill="#FEFEFE"/>
<path d="M7.65977 14.2871C7.8876 14.2078 7.93433 14.2178 8.1672 14.2417C8.54032 14.5345 8.59314 15.358 8.61112 15.8323C8.49036 16.1884 8.48366 16.2811 8.45853 16.6599L8.34311 16.8304L8.54198 16.8194C9.12683 17.2355 8.70066 18.8616 11.3086 19.7513C12.2765 20.1153 13.3433 21.3386 14.094 22.1116L14.1923 22.567C14.251 23.418 14.4677 25.3719 14.268 26.0796C14.0105 26.9917 13.5276 28.0102 13.274 28.9931C12.5048 31.84 12.5381 35.805 13.1363 38.6718C12.6432 38.3085 12.204 37.991 11.8142 37.508C11.0759 36.593 11.189 36.1053 10.1411 35.4822C7.97225 35.7311 6.00018 36.8238 4.44803 38.33L4.18604 38.5817C3.72925 39.1823 3.23477 39.7355 2.85142 40.3769C2.57784 40.8348 2.38883 41.4078 2.14234 41.8491C1.94875 42.3421 1.59715 42.9197 1.63055 43.3797C1.38391 42.4016 1.25427 41.3652 1.0582 40.3992C0.0654718 35.5076 0.116899 30.5659 1.15255 25.6848C1.28264 25.0716 1.36683 24.4648 1.52996 23.8367C1.72927 23.0694 2.10134 22.1185 2.22067 21.356C1.97072 21.1081 1.82799 21.3538 1.47202 21.1174C1.23193 20.4775 3.00859 16.2711 3.66553 15.8945C3.91721 15.8127 4.24285 15.938 4.50905 16.0108C4.47203 16.1872 4.38107 16.4993 4.4296 16.6545C4.57858 16.9343 4.59806 16.9966 4.89233 16.9772C5.39171 16.6505 6.0685 14.9917 6.59895 14.2227C7.00066 14.3225 7.2777 14.4456 7.65977 14.2871Z" fill="#C4A8D7"/>
<path d="M7.65977 14.2871C7.8876 14.2078 7.93433 14.2178 8.1672 14.2417C8.54032 14.5345 8.59314 15.358 8.61112 15.8323C8.49036 16.1884 8.48366 16.2811 8.45853 16.6599L8.34311 16.8304L8.54198 16.8194C8.41565 17.1033 8.30941 17.3185 8.2377 17.6211L8.29075 17.7385C8.07684 18.1943 7.49801 18.9895 7.45309 19.3111C7.68656 19.6481 8.17818 19.4004 8.47689 19.6795C8.63016 20.2838 8.1055 20.3049 7.81281 20.7039C7.68031 20.8845 7.89039 21.4556 7.79415 21.6717C7.76631 21.4201 7.75827 21.0364 7.59936 20.8602C7.27589 20.8511 7.02188 21.19 6.80669 21.4167C6.66253 21.9836 6.52311 22.6139 6.28053 23.1402L5.77378 22.886C5.74368 23.1499 5.71532 23.489 5.67258 23.7446C3.78516 27.5664 4.20357 33.9716 4.38408 38.2185C4.38513 38.2429 4.43351 38.3101 4.44803 38.33L4.18604 38.5817C3.72925 39.1823 3.23477 39.7355 2.85142 40.3769C2.57784 40.8348 2.38883 41.4078 2.14234 41.8491C1.94875 42.3421 1.59715 42.9197 1.63055 43.3797C1.38391 42.4016 1.25427 41.3652 1.0582 40.3992C0.0654718 35.5076 0.116899 30.5659 1.15255 25.6848C1.28264 25.0716 1.36683 24.4648 1.52996 23.8367C1.72927 23.0694 2.10134 22.1185 2.22067 21.356C1.97072 21.1081 1.82799 21.3538 1.47202 21.1174C1.23193 20.4775 3.00859 16.2711 3.66553 15.8945C3.91721 15.8127 4.24285 15.938 4.50905 16.0108C4.47203 16.1872 4.38107 16.4993 4.4296 16.6545C4.57858 16.9343 4.59806 16.9966 4.89233 16.9772C5.39171 16.6505 6.0685 14.9917 6.59895 14.2227C7.00066 14.3225 7.2777 14.4456 7.65977 14.2871Z" fill="#D6C0E0"/>
<path d="M7.65987 14.2871C7.8877 14.2078 7.93442 14.2178 8.16729 14.2417C8.54042 14.5345 8.59323 15.358 8.61122 15.8323C8.49045 16.1884 8.48376 16.2811 8.45863 16.6599L8.34321 16.8304L8.54207 16.8194C8.41574 17.1033 8.3095 17.3185 8.2378 17.6211L8.29084 17.7385C8.07693 18.1943 7.4981 18.9895 7.45318 19.3111C7.68666 19.6481 8.17828 19.4004 8.47699 19.6795C8.63025 20.2838 8.1056 20.3049 7.81291 20.7039C7.68041 20.8845 7.89048 21.4556 7.79425 21.6717C7.76641 21.4201 7.75836 21.0364 7.59945 20.8602C7.27599 20.8511 7.02197 21.19 6.80679 21.4167C6.66262 21.9836 6.5232 22.6139 6.28062 23.1402L5.77388 22.886L5.6486 21.8324C5.4611 22.3264 5.33958 22.6636 5.08301 23.125C4.56468 22.4662 4.98911 22.1526 4.82832 21.6941C4.38342 21.2397 3.8158 21.1249 3.23095 20.964C2.89071 20.9552 2.60705 21.0029 2.34205 20.8475C2.27682 20.6197 2.38622 20.4354 2.47658 20.2012C2.654 19.5728 2.87295 18.9768 3.18964 18.4042C3.59422 17.4358 3.65975 17.3309 4.42969 16.6545C4.57867 16.9343 4.59816 16.9966 4.89243 16.9772C5.3918 16.6505 6.06859 14.9917 6.59904 14.2227C7.00076 14.3225 7.27779 14.4456 7.65987 14.2871Z" fill="#FEFEFE"/>
<path d="M7.65999 14.2872C7.88782 14.2079 7.93454 14.2179 8.16741 14.2418C8.54053 14.5345 8.59335 15.3581 8.61133 15.8324C8.49057 16.1885 8.48388 16.2812 8.45875 16.66L8.34333 16.8304L8.30698 16.8578C7.5317 16.1734 7.65028 15.2431 7.65999 14.2872Z" fill="#E4DDE7"/>
<path d="M3.18962 18.4023C3.58411 18.7219 3.60804 18.64 4.12058 18.5628L4.20282 18.6403C4.11629 19.7595 3.51007 20.099 2.47656 20.1994C2.65398 19.571 2.87293 18.9749 3.18962 18.4023Z" fill="#E4DDE7"/>
<path d="M8.34367 16.8293L8.54254 16.8184C8.41621 17.1022 8.30996 17.3175 8.23826 17.6201C8.03255 17.8985 7.45839 19.1142 7.16141 19.1827L7.08301 19.0315C7.13146 18.5311 7.98831 17.3636 8.30733 16.8567L8.34367 16.8293Z" fill="#B695D0"/>
<path d="M1.63055 43.3791C1.38391 42.4011 1.25427 41.3646 1.0582 40.3986C0.0654718 35.507 0.116899 30.5653 1.15255 25.6842C1.28264 25.071 1.36683 24.4642 1.52996 23.8361C1.72927 23.0688 2.10134 22.1179 2.22067 21.3554C1.97072 21.1075 1.82799 21.3532 1.47202 21.1168C1.23193 20.4769 3.00859 16.2705 3.66553 15.8939C3.91721 15.8121 4.24285 15.9374 4.50905 16.0102C4.47203 16.1866 4.38107 16.4987 4.4296 16.6539C3.65966 17.3303 3.59412 17.4352 3.18955 18.4036C2.87286 18.9762 2.65391 19.5722 2.47649 20.2006C2.38612 20.4348 2.27672 20.6191 2.34196 20.8469C2.60696 21.0023 2.89062 20.9546 3.23086 20.9634C2.78197 22.2039 1.67638 26.016 1.50212 27.2811C1.02005 30.7806 0.682667 38.6371 2.14234 41.8485C1.94875 42.3415 1.59715 42.9191 1.63055 43.3791Z" fill="#895CB7"/>
<path d="M5.6486 21.8301L5.77388 22.8837C5.74378 23.1476 5.71542 23.4867 5.67268 23.7423C3.78526 27.5641 4.20367 33.9693 4.38417 38.2162C4.38523 38.2406 4.43361 38.3078 4.44813 38.3277L4.18614 38.5793C4.17049 38.5566 4.10548 38.462 4.10119 38.443C3.06986 33.8672 3.71122 27.3754 5.08301 23.1227C5.33959 22.6613 5.4611 22.3241 5.6486 21.8301Z" fill="#9374B9"/>
<path d="M11.3087 19.75C12.2766 20.114 13.3435 21.3373 14.0941 22.1103L14.1924 22.5657C14.2511 23.4167 14.4679 25.3706 14.2681 26.0783C14.0106 26.9904 13.5277 28.0089 13.2742 28.9918C11.9683 28.702 7.48827 24.3357 7.8641 23.2732C7.93167 23.2986 8.35881 24.1856 8.45738 24.3672C8.63758 24.0596 8.61456 23.3616 8.68528 23.0559C8.81628 22.4895 9.57238 20.9104 10.0076 20.5324C10.1585 20.4014 10.9622 20.0009 11.253 19.7909L11.3087 19.75Z" fill="#D6C0E0"/>
<path d="M5.77405 22.8828L6.2808 23.1371C6.20052 23.3834 6.12031 23.7293 5.93755 23.8953L5.80686 23.8956L5.67285 23.7414C5.71559 23.4859 5.74395 23.1468 5.77405 22.8828Z" fill="#D6C0E0"/>
<path d="M53.1731 40.6095C53.7351 40.3966 54.0758 40.2453 54.6115 39.9727L54.6696 40.1589C54.751 40.1951 54.8131 40.2292 54.8995 40.2483C55.1887 40.2078 55.5108 40.1337 55.7809 40.2272C56.0229 40.5679 54.9838 45.8369 54.8022 46.6424C54.635 46.6688 54.4141 46.6939 54.2556 46.7387C52.0907 47.3497 51.7917 50.1155 52.6737 51.8277L53.3889 52.1957C53.2896 53.2551 52.9176 54.5567 52.6478 55.6123C52.0422 56.1479 51.7035 56.3065 50.9565 56.6158C51.1678 56.9475 51.2415 56.8626 51.6298 56.8305C51.1639 56.9416 50.6946 57.0387 50.2229 57.1215C49.8015 57.1598 49.6863 57.1634 49.2694 57.1005C48.7631 57.1132 47.0737 57.5829 46.1733 57.6372C43.2331 57.8144 40.2604 57.9307 37.3174 57.9608C37.4676 56.2541 37.3746 53.1671 37.3902 51.3232C37.5254 49.8676 37.313 48.0906 37.6273 46.7131C37.6823 46.4719 37.9852 46.3592 38.2096 46.2582L37.974 46.2597C38.4227 45.9735 39.7179 45.5573 40.2675 45.3561L44.8205 43.676L49.3585 41.9331C50.3002 41.5638 52.2147 40.8026 53.1731 40.6095Z" fill="#8958B4"/>
<path d="M49.269 57.1008C49.8282 56.9284 50.3907 56.7668 50.9562 56.6162C51.1675 56.9479 51.2412 56.863 51.6295 56.8309C51.1635 56.942 50.6943 57.0391 50.2226 57.1219C49.8012 57.1602 49.686 57.1637 49.269 57.1008Z" fill="#1B0938"/>
<path d="M53.1729 40.6095C53.7349 40.3966 54.0756 40.2453 54.6113 39.9727L54.6694 40.1589C54.7507 40.1951 54.8129 40.2292 54.8993 40.2483C54.4733 40.4001 53.553 40.8236 53.1729 40.6095Z" fill="#1B0938"/>
<path d="M48.5342 47.502C49.6641 47.5172 49.451 48.2313 49.3067 49.002C49.2933 49.0741 49.5816 49.5173 49.6263 49.6174C49.8743 50.1731 49.9152 50.9466 49.7503 51.5329C49.4096 52.4615 48.7872 52.3768 48.0326 52.1309C48.0179 52.5435 48.0239 53.3911 47.8682 53.7531C47.2357 55.2226 45.1135 55.9311 43.6694 55.312C42.4427 54.786 42.9705 53.6802 42.6818 52.8238L42.5662 52.8806C42.3686 53.2458 42.2305 53.4829 41.8348 53.632C41.1687 53.5926 40.8148 52.7217 40.8498 52.178C40.968 50.3436 41.52 48.5763 43.3646 50.3634C43.395 50.5817 43.4056 50.7874 43.5254 50.9728C44.1074 50.8633 44.6787 48.6825 46.6932 50.3657C46.8807 49.1445 47.3447 48.0733 48.5342 47.502Z" fill="#4B2A80"/>
<path d="M8.45868 16.6603C8.69802 16.599 8.79185 16.4718 8.93609 16.266C13.6733 9.50688 21.29 4.77955 29.5935 4.23533C30.5246 4.17431 31.8343 3.97688 32.7731 4.07266C31.3161 5.79696 29.5567 7.49162 28.0989 9.17815C27.2611 10.1475 23.5932 13.6113 23.298 14.5841C21.1124 12.6738 19.808 11.7581 17.0334 10.9009C15.9857 11.5631 15.7808 12.0418 15.4827 13.2651C14.6623 16.6318 14.2158 19.0766 14.1924 22.5675L14.0942 22.112C13.3435 21.339 12.2766 20.1157 11.3087 19.7517C8.70081 18.8621 9.12697 17.2359 8.54212 16.8198L8.34326 16.8308L8.45868 16.6603Z" fill="#B695D0"/>
<path d="M52.2805 14.3776C52.3269 14.7398 52.3443 15.7095 52.7342 15.8231C53.3162 15.6358 53.751 16.5779 54.1435 16.931C54.6348 17.0435 54.8418 16.9669 55.0086 16.4672L54.8137 16.2404L55.0991 15.9911C55.2665 16.5998 56.0935 17.2807 56.3873 18.0207C56.7724 18.9906 57.4022 19.9868 57.8052 20.9609C58.2224 21.9084 58.6112 23.2078 59.0701 24.1006C58.2733 24.8508 57.5962 25.6385 56.7932 26.3732C56.0852 27.2811 52.2343 30.1243 52.1714 30.2506C51.9427 29.0737 51.4267 27.6299 51.0059 26.5078C50.5002 25.108 49.2557 23.7773 49.2392 22.3782C49.2124 20.0915 48.7022 18.1854 48.2173 15.9811C48.7652 15.8451 49.1931 15.7439 49.7068 15.5014C50.8658 14.9541 50.9992 14.3294 52.2805 14.3776Z" fill="#B695D0"/>
<path d="M53.6211 24.457C54.1755 25.4841 54.8002 26.4718 55.4906 27.4128C55.8777 27.0733 56.3571 26.6221 56.7931 26.3733C56.0852 27.2812 52.2342 30.1244 52.1713 30.2507C51.9426 29.0738 51.4266 27.63 51.0059 26.508C51.1009 26.4144 51.5304 26.2251 51.7443 26.0568C52.3965 25.5434 53.0046 25.0102 53.6211 24.457Z" fill="#C9ADDA"/>
<path d="M52.7339 15.8232C53.3158 15.6359 53.7507 16.578 54.1432 16.9311L53.951 17.4012C53.655 18.2686 53.3793 18.4844 52.7885 19.1729C52.6404 18.9307 52.0267 17.603 51.9772 17.568C51.8307 17.4132 51.6728 17.3303 51.4917 17.218L51.4976 17.0855C51.6921 17.0605 51.8286 17.0609 52.0217 17.0599C52.1628 16.9463 52.5828 16.0837 52.7339 15.8232Z" fill="#FEFEFE"/>
<path d="M53.9511 17.4004C54.2685 17.8877 54.8629 18.4393 55.2874 18.8628C54.7612 19.2014 54.274 19.5172 53.8586 19.9948C53.7432 20.6376 53.611 21.3759 53.2399 21.9295L53.0918 21.998C52.6321 21.7043 52.594 20.1095 52.077 19.4694C51.8732 19.2171 51.156 18.529 51.1187 18.4219C51.4202 18.063 51.4924 18.4337 51.7215 17.9359L51.8051 18.0718C51.725 18.2662 51.7265 18.2439 51.4715 18.3523C51.3946 18.3843 51.3174 18.4151 51.2396 18.4447C51.2767 18.5924 52.6527 19.5363 52.5805 20.2923C52.5391 20.7255 52.8965 21.5268 53.0777 21.8993C53.79 21.3496 53.472 20.1208 53.977 19.6259C53.5301 19.1111 53.0939 19.4503 52.6575 19.1781C52.4525 19.0502 51.9684 17.8653 51.9131 17.6043L51.9773 17.5672C52.0268 17.6022 52.6406 18.9299 52.7886 19.172C53.3794 18.4836 53.6551 18.2678 53.9511 17.4004Z" fill="#905CB7"/>
<path d="M33.3392 3.44727C33.7268 3.59128 35.5135 3.683 36.0907 3.77637C37.3638 3.98238 38.6803 4.29696 39.9471 4.4473C39.9136 4.61388 39.8596 4.84329 39.8379 5.00558L39.8087 4.98805C39.5305 5.5653 38.6227 6.32923 38.2319 6.89323C36.4524 9.46159 33.8407 11.808 32.1843 14.3905C29.3093 14.6552 27.3643 15.0421 24.6545 16.0846C24.2585 15.6595 23.672 14.9119 23.2981 14.5831C23.5933 13.6103 27.2611 10.1465 28.099 9.17718C29.5568 7.49065 31.3162 5.79599 32.7732 4.07169L32.9345 3.93731L33.3392 3.44727Z" fill="#D6C0E0"/>
<path d="M33.3393 3.44727C33.7269 3.59128 35.5135 3.683 36.0908 3.77637C37.3639 3.98238 38.6804 4.29696 39.9472 4.44729C39.9136 4.61388 39.8596 4.84329 39.8379 5.00558L39.8087 4.98805C39.146 4.64947 36.0989 4.24603 35.2348 4.19659C34.6939 4.16567 33.3338 4.14099 32.9346 3.93731L33.3393 3.44727Z" fill="#B695D0"/>
<path d="M39.809 4.98828L39.8382 5.00581C43.3525 6.26068 46.5549 7.54753 49.5414 9.94486C49.9676 10.2869 52.4465 12.7121 52.6896 12.773L52.8223 13.0346C52.6349 13.4795 52.4542 13.9271 52.2806 14.3775C50.9993 14.3293 50.8658 14.954 49.7069 15.5013C49.1931 15.7438 48.7652 15.845 48.2173 15.981C48.0139 14.9555 46.1554 9.40237 45.0755 9.31051C43.2485 9.15513 38.4445 13.5717 37.9103 15.298C36.2229 14.6711 33.975 14.4638 32.1846 14.3907C33.8409 11.8082 36.4527 9.46182 38.2321 6.89346C38.6229 6.32945 39.5307 5.56553 39.809 4.98828Z" fill="#C3A7D7"/>
<path d="M1.65674 43.4409C1.94642 43.3356 2.97105 43.5122 3.31588 43.5808C4.12871 43.6022 4.69806 43.5807 5.39539 44.0525L5.87566 44.1253C5.84834 44.4995 7.19621 47.3451 7.51554 47.9462C8.18992 49.2157 9.33419 50.7132 10.1813 51.9082C11.5083 53.3887 13.4414 55.0712 14.9621 56.3341L15.0846 56.3026C15.1368 56.1329 15.1408 56.1046 15.1407 55.927C15.2281 56.2562 15.2703 56.497 15.4659 56.7774L15.5023 56.8304C15.5304 56.8708 15.5552 56.9042 15.5852 56.9428L15.5109 57.0399C15.1267 57.0498 14.292 56.9349 13.8663 56.8946C12.7283 56.7869 11.5826 56.6471 10.4389 56.602C10.2787 56.5933 9.82423 56.5788 9.69963 56.5286C8.37787 55.996 7.4503 53.2788 6.16466 53.0214C6.139 52.7998 4.75517 50.5314 4.53148 50.1643C3.20663 47.9894 2.42292 45.8647 1.65674 43.4409Z" fill="#D6C0E0"/>
<path d="M1.65674 43.4409C1.94642 43.3356 2.97105 43.5122 3.31588 43.5808L2.7135 43.5898C2.41261 44.076 3.49894 46.3257 3.75694 46.9359C5.29856 50.5813 7.56143 53.6976 10.2749 56.5399C10.2945 56.5604 10.4044 56.5932 10.4389 56.602C10.2787 56.5933 9.82423 56.5788 9.69963 56.5286C8.37787 55.996 7.4503 53.2788 6.16466 53.0214C6.139 52.7998 4.75517 50.5314 4.53148 50.1643C3.20663 47.9894 2.42292 45.8647 1.65674 43.4409Z" fill="#905CB7"/>
<path d="M5.39551 44.0537L5.87577 44.1265C5.84846 44.5007 7.19633 47.3463 7.51565 47.9474C8.19004 49.2169 9.3343 50.7144 10.1814 51.9094C11.5084 53.3898 13.4415 55.0724 14.9622 56.3353L15.0847 56.3038C15.1369 56.1341 15.141 56.1058 15.1408 55.9282C15.2282 56.2574 15.2704 56.4982 15.466 56.7786L15.5024 56.8316C15.5306 56.872 15.5553 56.9054 15.5853 56.944L15.511 57.0411C15.2817 56.6181 14.6266 56.725 14.3274 56.4868C10.6639 53.5696 7.80744 50.0261 5.89232 45.7417C5.71709 45.3497 5.42628 44.4711 5.39551 44.0537Z" fill="#9975BF"/>
<path d="M35.1514 45.9693C35.2672 45.5751 35.5122 45.1898 35.7861 44.8875C37.2347 43.2892 44.7259 40.4055 47.1674 39.4556C48.5476 38.9186 50.7565 37.8762 52.1959 37.8105C52.7378 38.1109 52.2559 38.6364 52.6172 39.1939C53.2332 39.0913 53.4102 39.0587 54.0278 39.1221C54.2332 39.3949 54.456 39.6702 54.6113 39.9728C54.0756 40.2455 53.7349 40.3968 53.1729 40.6097C52.2145 40.8027 50.3 41.5639 49.3583 41.9333L44.8203 43.6762L40.2673 45.3562C39.7177 45.5575 38.4226 45.9737 37.9738 46.2598C37.5916 46.4126 37.1483 46.6466 36.7618 46.6309C36.5876 46.5376 36.5436 46.5089 36.3933 46.3809C36.0072 46.1661 35.5924 46.0094 35.1514 45.9693Z" fill="#FEFEFE"/>
<path d="M15.0839 40.4231C15.2129 38.0979 16.4552 39.1096 17.9063 39.455C22.5161 40.5525 27.222 42.2414 31.3642 44.5559C31.8759 44.8419 32.4328 45.4669 32.7994 45.9074C32.1198 46.1254 31.5971 46.2705 31.0717 46.792C30.9212 46.7725 30.7002 46.6987 30.5484 46.6538C29.9731 46.3382 27.5824 45.624 26.9363 45.4302L22.1076 43.9351C20.127 43.3065 17.5742 42.2841 15.5773 41.8222C14.8688 41.5087 13.7948 41.2381 13.0222 41.0163C13.2573 40.636 13.4852 40.4345 13.8594 40.184C14.2634 40.2754 14.6729 40.3794 15.0839 40.4231Z" fill="#FEFEFE"/>
<path d="M59.0701 24.0996C59.9883 25.9667 60.5683 31.0026 60.569 33.2176C60.5462 33.3665 60.5823 33.3142 60.4919 33.3974C59.4817 32.5362 57.0116 31.3349 55.6241 31.3699C54.8213 31.3902 54.5512 31.4811 54.0028 32.0218C53.6931 33.2791 53.3918 33.7939 52.4488 34.6343C52.5716 33.3553 52.3187 31.5452 52.1714 30.2496C52.2342 30.1233 56.0852 27.2801 56.7931 26.3722C57.5962 25.6375 58.2733 24.8498 59.0701 24.0996Z" fill="#D6C0E0"/>
<path d="M5.87541 44.126C7.78413 45.0459 8.8141 46.632 10.0472 48.2648C10.6504 47.7994 12.2259 46.375 12.8852 47.1445C13.0806 47.8783 12.4452 48.6378 12.0981 49.2351C12.1285 50.3954 12.2809 51.9082 13.1499 52.7904C13.5383 53.1848 13.8519 53.1751 14.3672 53.1768C14.6548 54.1027 14.8703 55.0581 15.1404 55.9277C15.1406 56.1053 15.1365 56.1336 15.0843 56.3033L14.9618 56.3348C13.4411 55.0719 11.508 53.3894 10.1811 51.9089C9.33394 50.7139 8.18967 49.2164 7.51529 47.9469C7.19597 47.3458 5.8481 44.5002 5.87541 44.126Z" fill="#D6C0E0"/>
<path d="M60.1203 39.0117C60.4276 39.8698 57.3866 48.5985 56.5016 48.8633C56.498 47.7813 56.3888 47.163 55.3906 46.6407C55.6175 45.7896 55.7465 44.8032 56.023 43.9656C56.1063 43.7131 56.2657 43.9508 56.5117 43.5609C57.6735 41.7205 58.2286 40.2706 60.1203 39.0117Z" fill="#C9ADDA"/>
<path d="M42.1274 11.6541C42.7098 11.1682 44.111 10.0288 44.8687 10.0592C45.3182 10.2377 45.5784 11.0724 45.7911 11.4883C46.4832 12.8414 46.7565 13.8973 46.7788 15.4048L46.8471 15.6598C47.1088 15.7429 47.42 15.7139 47.4849 15.9208C48.041 17.6947 48.2781 19.7442 48.2459 21.5394C47.8163 21.0819 46.9241 20.1221 46.3378 19.9554C45.7537 19.6609 45.4734 19.5233 44.8547 19.3249L44.9035 19.381C45.5228 20.0833 46.3862 20.6395 47.1105 21.513C50.4975 25.5976 52.0369 30.0835 51.7538 35.3606C51.7207 35.9301 51.6742 36.4988 51.6145 37.0661C49.1622 38.4137 45.5789 39.4451 42.9466 40.5648C41.4365 41.2071 40.074 41.8634 38.6159 42.6183C38.0131 42.9304 37.1475 43.4473 36.5564 43.697C35.5917 43.2462 34.3111 42.2226 33.4171 42.6234C32.5674 43.0043 31.7806 43.4032 30.8892 43.7351C27.466 41.7917 23.2287 40.442 19.4738 39.2867C18.366 38.9459 16.7099 38.4103 15.593 38.3592C15.1094 38.7647 14.6412 39.2382 14.2763 39.7541C12.8466 34.294 12.9433 29.746 15.7567 24.6858C16.0829 24.099 18.052 21.4952 18.0539 21.2582C17.6364 21.2906 17.2827 21.759 17.0219 22.0532C16.4679 22.7353 15.8453 23.2875 15.3005 24.0522L15.1788 24.031C15.019 23.8261 15.0487 23.2818 15.0223 23.0041C14.8509 21.1998 15.0625 19.5443 15.6042 17.8165C15.5894 17.8567 16.0296 17.4414 16.0497 17.4208C15.8494 14.7098 15.9624 14.123 16.9347 11.5688C19.2532 12.2062 22.547 14.4184 23.9621 16.3724C23.7703 16.7879 22.8215 17.2154 22.5404 17.6534C22.7042 17.7072 24.1122 17.1282 24.4528 17.0209C24.6642 17.2317 24.9846 17.6576 25.277 17.497C25.3134 17.2521 25.125 16.9927 24.9971 16.7657C26.9564 15.5679 31.658 15.0435 33.9016 15.2723C35.1607 15.4006 36.3907 15.6543 37.6487 15.8889C37.5082 16.2015 37.3166 16.446 37.5463 16.7293L37.7184 16.6902C37.9769 16.5123 38.0655 16.2806 38.2089 16.0015C39.0922 16.2667 39.6648 16.5987 40.5016 16.9054C39.8481 15.9627 39.4628 15.8793 38.3986 15.6606C39.23 14.3211 40.7893 12.5452 42.1274 11.6541Z" fill="#9374B9"/>
<path d="M16.0499 17.4199C16.2082 18.1399 16.7847 21.681 17.0221 22.0524C16.4681 22.7344 15.8455 23.2866 15.3007 24.0514L15.179 24.0302C15.0192 23.8253 15.0489 23.281 15.0225 23.0033C14.8511 21.1989 15.0627 19.5435 15.6044 17.8156C15.5895 17.8559 16.0298 17.4405 16.0499 17.4199Z" fill="#1B0938"/>
<path d="M46.7078 15.3828L46.779 15.4052L46.8472 15.6603C47.109 15.7434 47.4202 15.7143 47.485 15.9213C48.0411 17.6951 48.2783 19.7447 48.246 21.5399C47.8165 21.0823 46.9242 20.1226 46.3379 19.9558C46.5696 19.5284 46.7346 16.0578 46.7078 15.3828Z" fill="#1B0938"/>
<path d="M42.1274 11.6541C42.7098 11.1682 44.111 10.0288 44.8687 10.0592C45.3183 10.2377 45.5784 11.0724 45.7912 11.4883C46.4832 12.8414 46.7565 13.8973 46.7788 15.4048L46.7077 15.3823C46.6842 14.2519 45.9295 11.6605 45.1631 10.8358C44.9362 10.7172 43.8372 10.7025 43.6046 10.8113C43.0117 11.0886 42.8298 11.521 42.1274 11.6541Z" fill="#7347A6"/>
<path d="M23.1952 31.1289C24.7352 31.2056 26.7506 33.0129 28.4062 33.3936C28.8565 33.497 28.9667 33.1068 29.3112 33.1591C29.556 33.7575 28.9862 33.9501 28.6496 34.1357C28.554 34.5758 29.0742 35.5642 28.9956 36.3798C28.8803 37.5773 28.3423 38.5701 27.4698 39.3682C26.9311 39.7519 26.1317 39.9919 25.4704 39.9891C22.3129 39.9759 21.2452 36.0273 22.8343 33.7445C23.112 33.3454 23.7852 32.7628 24.1486 32.4146C23.7398 32.0526 23.4833 31.9875 23.0915 31.5955C23.0276 31.3355 23.0409 31.4205 23.1952 31.1289Z" fill="#000004"/>
<path d="M25.1181 33.2793C25.3956 33.3045 25.6052 33.4453 25.804 33.6846C26.3672 34.3623 25.804 35.9278 24.5784 35.5789C23.8465 35.3706 23.5798 34.2212 24.1224 33.6846C24.3253 33.484 24.8339 33.2536 25.1181 33.2793Z" fill="#FEFEFE"/>
<path d="M26.8245 37.1461C27.0251 37.094 27.064 37.0648 27.2419 37.1417C27.2819 37.6039 26.7424 37.7303 26.3838 37.7753C26.3477 37.7707 26.3118 37.7656 26.276 37.7598C26.0519 37.7233 25.868 37.6939 25.7344 37.5124L25.7884 37.3946C26.0861 37.1983 26.4656 37.1885 26.8245 37.1461Z" fill="#1B0938"/>
<path d="M44.4857 30.7715C44.5967 30.7729 44.7162 30.8603 44.8168 30.919C45.1363 31.4907 44.062 32.0718 43.6288 32.3523C47.0891 34.8032 44.9396 41.0879 40.6116 39.3841C40.2223 39.1636 39.8715 38.8813 39.5728 38.5483C38.0876 36.9012 39.1294 35.0894 38.6006 34.5153C38.3925 34.4494 38.357 34.4539 38.2324 34.2892C38.333 33.8314 39.436 33.7388 39.8788 33.5182C41.4009 32.76 43.1685 31.8431 44.4857 30.7715Z" fill="#000004"/>
<path d="M41.3544 33.5059C41.6319 33.531 41.8415 33.6719 42.0404 33.9112C42.6035 34.5888 42.0404 36.1543 40.8147 35.8055C40.0829 35.5972 39.8161 34.4477 40.3587 33.9112C40.5616 33.7106 41.0702 33.4801 41.3544 33.5059Z" fill="#FEFEFE"/>
<path d="M43.2385 36.417C43.6209 36.6193 43.5499 37.427 43.3181 37.7789C43.0732 37.8971 43.1231 37.854 42.8009 37.7926C42.49 37.6168 42.4973 37.6863 42.3789 37.4165C42.4487 37.0447 42.9391 36.6868 43.2385 36.417Z" fill="#1B0938"/>
<path d="M33.8102 37.0052C34.2084 36.9842 34.8041 36.9782 34.8041 37.4504C34.8041 37.7788 34.2249 37.8083 34.2203 37.9755C34.1928 38.9582 35.5027 39.294 36.8704 39.0295C37.0476 38.8288 37.1914 38.6133 37.4443 38.5539C37.6998 38.5915 37.6084 38.5461 37.7916 38.7207C37.9221 39.3139 37.5121 39.4404 37.0611 39.6015C36.9268 39.9745 36.7701 40.5608 36.4659 40.7819C36.0189 40.7297 35.885 39.8241 35.5429 39.6015C35.2626 39.6042 34.7142 39.506 34.3574 39.1353C34.3435 39.1126 34.2462 39.0535 34.2167 39.034L34.0399 39.0784C33.7603 39.5107 33.1592 39.6004 32.6925 39.695C32.4932 40.2072 31.9984 40.8349 31.7557 40.8349C31.4901 40.7252 31.2154 40.262 31.0088 39.7566C31.0088 39.7566 30.2691 39.6736 30.269 39.3801C30.269 39.0867 30.2962 38.9029 30.5102 38.748C30.8574 38.4965 31.0099 39.1101 31.4901 39.243C32.1306 39.428 32.8557 39.206 33.4426 38.9307C33.9355 38.6993 33.9266 38.3404 33.7801 37.9755C33.6979 37.7708 33.2266 37.714 33.2266 37.4504C33.2266 37.1047 33.5419 37.0194 33.8102 37.0052Z" fill="#000004"/>
<path d="M9.1251 38.5485C10.3161 38.4332 9.52057 40.5355 9.55488 41.3115C9.63584 43.1439 9.7624 44.972 9.7803 46.8062C9.0081 45.6631 7.76271 44.5321 6.53719 43.8941C4.89339 43.0546 4.38236 42.8781 2.4917 42.9344C4.40786 40.5099 6.24442 39.4776 9.1251 38.5485Z" fill="#905CB7"/>
<path d="M55.541 34.1865C58.5506 34.4918 60.4415 35.3597 62.5598 37.4204C61.2169 37.5672 59.6632 38.4617 58.6889 39.3982C57.5865 40.3258 56.735 41.5877 56.1522 42.8951C56.2456 42.5162 56.3297 42.0948 56.404 41.6682C56.4764 41.2521 56.5685 40.4725 56.4536 40.0512C56.4336 39.9781 56.1354 39.7546 56.1272 39.7031C55.865 38.0629 55.6052 36.3493 55.4485 34.6949C55.4307 34.508 55.4909 34.3149 55.541 34.1865Z" fill="#905CB7"/>
<path d="M3.8457 40.2664C5.05897 38.2555 7.01207 36.8003 9.28593 36.2132C10.7371 35.8366 10.7795 37.3068 11.508 37.9351C12.2579 38.5819 12.9466 38.9458 13.7088 39.6787C13.3328 40.0229 13.1972 40.0945 12.7394 40.3162C11.9514 39.9474 11.5074 39.7626 11.0524 38.9839C10.3665 39.8171 10.3418 40.1989 10.1173 41.2565L9.90743 41.2153C9.92488 40.6376 10.5428 38.1187 9.33131 38.1854C7.9729 38.26 5.12337 39.6823 4.14674 40.5683C3.99777 40.4892 3.94931 40.4017 3.8457 40.2664Z" fill="#4B2A80"/>
<path d="M52.4727 35.513C52.7866 35.1312 53.532 34.4244 53.7479 34.0629C54.8339 32.2435 54.2861 31.7807 56.748 32.2613C59.2281 32.7453 60.9428 34.4089 62.3226 36.4511C60.4483 35.133 58.4392 33.9516 56.0868 33.8744C55.0308 33.8398 55.0262 34.5378 55.0942 35.3304C54.9382 35.4808 54.9151 35.4902 54.6999 35.517C54.0163 34.6217 53.3583 36.9021 52.5903 37.2117L52.4654 37.1333C52.2869 36.5818 52.3982 36.0842 52.4727 35.513Z" fill="#4B2A80"/>
<path d="M11.0435 39.625C11.3452 39.7883 11.9096 40.3499 12.0462 40.735C11.9925 41.0179 11.939 40.9769 11.6523 41.2104C11.7382 42.4024 12.5145 44.9828 12.8364 46.2766C12.5231 46.3008 12.1706 46.3634 11.8568 46.4114L10.319 46.995C10.0626 43.9186 10.1434 42.5824 11.0435 39.625Z" fill="#905CB7"/>
<path d="M54.1236 47.1401C56.5938 46.9856 55.9049 49.0338 55.4151 50.6389C55.2839 51.0689 54.9521 51.5512 54.5219 51.7272C54.3735 51.7532 54.2233 51.7675 54.0726 51.77C53.0141 51.794 52.7885 51.002 52.7695 50.0952C52.7457 48.963 53.3455 47.9172 54.1236 47.1401Z" fill="#7E56B3"/>
<path d="M13.5194 47.8535C13.6146 47.8749 13.7084 47.9017 13.8005 47.9337C14.5145 48.1813 14.9592 48.4937 15.3373 49.1898C15.813 50.0657 15.1684 50.3704 15.5119 51.2208C15.5689 51.3619 15.5379 51.8326 15.5236 52.0056C15.3096 52.0762 15.1039 52.1602 14.8943 52.2426C13.1255 52.9379 12.8401 51.2598 12.7733 49.8728C12.7387 49.1559 13.0032 48.3678 13.5194 47.8535Z" fill="#7A54A9"/>
<path d="M33.8987 42.835C34.5991 42.8473 35.4763 43.5321 36.2623 43.8628L35.4834 44.2696C35.2675 44.5946 34.9373 45.2245 34.7178 45.5947C34.3107 45.6627 33.939 45.694 33.5293 45.7311C33.4938 45.7311 33.2332 45.6871 33.2283 45.681C32.4698 44.7319 32.2574 44.3246 31.0696 43.9574C32.2237 43.683 32.8204 43.2756 33.8987 42.835Z" fill="#7347A6"/>
<path d="M54.1216 35.9551C54.6197 36.2858 55.9157 39.3154 55.3803 39.7818C55.1251 39.6974 55.2134 39.7669 55.0639 39.4912C54.5746 38.4637 54.0756 38.5291 53.0182 38.4322C53.002 38.1508 53.0215 37.8105 53.0303 37.5237C53.5153 36.946 53.7548 36.6073 54.1216 35.9551Z" fill="#905CB7"/>
<path d="M55.0942 35.3301C55.2005 35.7028 55.3256 36.5421 55.2131 36.9156L55.1256 36.9436C54.9337 36.6846 54.7801 35.8688 54.7 35.5166C54.9151 35.4898 54.9382 35.4804 55.0942 35.3301Z" fill="#3D1D6F" fill-opacity="0.988235"/>
<path d="M3.84548 40.2666C3.94909 40.4019 3.99754 40.4894 4.14652 40.5685C3.92268 40.8307 3.172 41.4147 2.88525 41.6275C3.18471 41.1767 3.52962 40.7098 3.84548 40.2666Z" fill="#3D1D6F"/>
<path d="M9.90723 41.2158L10.1171 41.257C10.1016 41.4765 10.1123 41.5922 10.0054 41.7852C9.87976 41.5783 9.91904 41.4851 9.90723 41.2158Z" fill="#3D1D6F" fill-opacity="0.976471"/>
</svg>
