<svg width="66" height="70" viewBox="0 0 66 70" fill="none" xmlns="http://www.w3.org/2000/svg">
<path d="M4.20135 50.1593C2.93266 47.6323 2.28009 45.8635 1.45192 43.1727C-0.495249 36.8466 -0.471137 30.0992 1.44731 23.7638C1.85208 22.4271 2.16571 21.213 2.72575 19.9253C6.22135 11.8769 12.7552 5.53556 20.9045 2.28216C22.6056 1.61954 25.7342 0.64054 27.5527 0.347806C30.5504 -0.134753 34.8669 -0.0964477 37.8755 0.346931C39.7496 0.623125 43.7051 1.85952 45.4324 2.63376C51.2495 5.24134 56.9329 9.83309 60.2252 15.3428C60.6486 16.0512 61.4113 17.2139 61.6989 17.9665C61.7478 18.3904 62.8473 20.1951 63.1097 20.9101L62.3528 21.2489L62.3286 21.095L62.1921 21.0013L62.1273 21.1324C61.124 21.2475 59.6408 21.1368 59.0141 22.0302L58.8156 21.8144C58.3944 22.41 59.4236 24.6545 59.6232 25.488C60.5285 29.2689 60.8089 33.0613 60.4185 36.9312C60.3575 37.5369 60.2936 39.0044 59.6121 39.2063C59.7927 39.5776 59.9752 39.9466 60.1416 40.3246C60.5115 41.1239 60.7703 41.3607 59.9696 41.9487C59.5932 42.9372 59.7284 43.7696 59.0934 44.5819C59.144 45.5339 57.6244 47.6872 57.6592 47.9387C57.6473 48.9177 56.4887 49.5673 56.2643 50.9008C56.6714 51.138 56.9144 51.3199 57.0534 51.7918C57.2114 52.3282 57.5531 53.3172 57.4379 53.8435L57.4217 53.9202C57.4078 53.9844 57.3941 54.0379 57.3767 54.1007L57.5137 54.15C57.7635 54.0706 57.9981 53.7001 58.2788 53.4672L58.3278 53.4269L58.7753 53.3289L58.8609 53.4355L58.7878 54.0153L58.7557 54.118C59.1175 54.3269 62.7068 53.827 63.2712 54.1884C64.4913 54.9695 62.158 58.7018 61.7069 59.8335C62.2784 60.7335 64.1212 63.3354 63.658 64.5688C63.3167 65.4776 59.1659 65.3826 59.0323 65.6391C57.9847 67.6494 56.9638 67.61 54.9101 67.9115C54.0346 68.0409 53.122 68.2077 52.2892 68.3573C39.4179 70.5784 26.2586 70.547 13.398 68.264C11.2117 67.8758 7.34305 67.9192 6.61491 65.3831C5.48462 65.3351 3.19258 65.0214 2.08837 64.7815C1.80919 64.5039 1.68437 64.3058 1.46619 63.9853C1.98833 62.3719 2.68386 60.9394 3.73452 59.6099C2.69729 57.9024 2.09374 56.5207 1.58065 54.5938C1.68668 54.2757 1.84349 53.9147 1.97107 53.5999C3.09032 53.5159 5.47434 53.8335 6.68595 53.9628C6.3767 53.5761 6.17278 53.2935 5.90013 52.8799C5.69851 52.6549 5.35121 52.0844 5.17245 51.8082C4.89573 51.5515 4.33269 50.5406 4.20135 50.1593Z" fill="black"/>
<path d="M5.90025 52.8788C5.93807 52.7858 5.97988 52.7214 6.02967 52.6349C6.23405 52.5999 6.35979 52.6339 6.5631 52.6657C6.79409 52.9329 7.41053 53.7022 7.69922 53.806L7.88564 53.7958C8.10398 54.4832 8.17503 55.0546 9.09058 54.8357C10.8608 54.7641 12.3276 55.1313 14.0616 55.3752C14.4448 55.429 15.505 55.6189 15.8354 55.5954C16.1952 55.7568 16.2859 55.7796 16.6766 55.8497C18.3886 56.1731 20.7735 56.3642 22.5092 56.5183L23.3824 56.5516C23.8201 56.6564 26.3386 56.8288 26.7669 56.7523C27.0049 56.8063 27.2616 56.8839 27.5001 56.8678C27.7772 56.9727 28.1319 56.9518 28.4348 56.9536C28.5544 56.4617 28.8228 55.6978 29.1292 55.3016C29.5869 55.6326 32.7514 55.5505 33.0925 55.3115C33.505 56.0361 33.6614 56.3802 34.257 56.9661L34.6183 57.0274L34.7323 56.9961C34.9197 57.0515 34.9458 57.0726 35.1273 57.0264C35.2545 56.9941 35.3777 56.9431 35.4961 56.9817C35.9207 57.0411 38.6435 56.9759 38.9232 56.7559C39.2228 56.9197 39.3561 56.865 39.7305 56.8488C42.1182 56.6001 44.9687 56.52 47.2752 56.115C47.8596 55.9995 48.4449 55.8888 49.0311 55.7828C49.6851 55.9996 53.6994 55.044 54.719 54.9211L56.1338 54.8176C56.45 54.8753 56.5128 54.8869 56.8307 54.8568C57.1313 54.7114 57.236 54.4026 57.3768 54.0996L57.5139 54.149C57.7636 54.0696 57.9983 53.6991 58.2789 53.4662L58.3279 53.4258L58.7754 53.3279L58.861 53.4345L58.7879 54.0143L58.7558 54.117C59.1177 54.3258 62.7069 53.826 63.2713 54.1874C64.4914 54.9685 62.1581 58.7007 61.7071 59.8325C62.2785 60.7325 64.1213 63.3344 63.6582 64.5677C63.3168 65.4766 59.1661 65.3815 59.0324 65.6381C57.9848 67.6483 56.9639 67.609 54.9102 67.9105C54.0348 68.0398 53.1221 68.2067 52.2893 68.3562C39.418 70.5774 26.2587 70.5459 13.3982 68.2629C11.2118 67.8747 7.34317 67.9182 6.61503 65.3821C5.48474 65.3341 3.1927 65.0203 2.08849 64.7805C1.80932 64.5029 1.6845 64.3048 1.46631 63.9843C1.98845 62.3709 2.68398 60.9383 3.73464 59.6089C2.69741 57.9013 2.09387 56.5196 1.58077 54.5927C1.6868 54.2746 1.84361 53.9137 1.97119 53.5988C3.09044 53.5149 5.47446 53.8324 6.68608 53.9618C6.37682 53.575 6.17291 53.2925 5.90025 52.8788Z" fill="#ECA92A"/>
<path d="M29.1289 55.3037C29.5867 55.6348 32.7511 55.5527 33.0923 55.3136C33.5047 56.0382 33.6612 56.3824 34.2567 56.9683L34.6181 57.0296C34.1286 57.1663 29.1952 57.0174 28.4346 56.9557C28.5542 56.4638 28.8225 55.6999 29.1289 55.3037Z" fill="#4C2E78"/>
<path d="M9.35461 55.4666C10.7482 55.3378 13.2473 56.2458 14.7616 56.3446C17.6034 56.5301 20.4436 57.0369 23.2709 57.3341C26.3571 57.6594 29.458 57.8267 32.5613 57.835C39.0057 57.8778 45.1417 57.0345 51.5235 56.2872C52.1964 56.2084 52.862 56.0395 53.5293 55.947C55.3474 55.695 56.262 55.0246 57.6182 56.6261C57.8228 57.6447 57.8949 59.3648 57.9997 60.4453C58.1023 61.8846 58.2822 63.3171 58.2876 64.7611C58.2928 66.1619 57.5892 66.55 56.4032 66.9302C53.6387 67.6708 51.1641 67.8811 48.3363 68.2377C40.0143 69.3675 31.5928 69.5733 23.2256 68.8515C21.0666 68.667 18.9289 68.3556 16.7797 68.0911C14.6359 67.8273 10.4845 67.3597 8.59525 66.595C8.13425 66.4083 7.73286 66.1626 7.54153 65.6839C7.40458 65.3412 7.3551 64.9652 7.34191 64.5984C7.2991 63.4097 7.60451 57.411 7.97875 56.5398C8.2402 55.931 8.77869 55.6976 9.35461 55.4666Z" fill="#FEE7A3"/>
<path d="M29.4345 61.4817C30.7412 61.181 32.0459 61.9901 32.3576 63.2941C32.6691 64.5983 31.8711 65.9098 30.5696 66.2323C29.2527 66.5587 27.9221 65.749 27.6068 64.4293C27.2914 63.1096 28.1123 61.7859 29.4345 61.4817Z" fill="#A45714"/>
<path d="M29.4595 62.3076C29.694 62.2855 30.131 62.2311 30.3491 62.3139C31.6144 62.7944 31.5144 64.7725 30.4026 65.3375C28.2823 65.6276 28.183 63.0333 29.4595 62.3076Z" fill="#FEE7A3"/>
<path d="M33.6186 61.4779C34.3737 61.4484 35.1146 61.3939 35.7834 61.8487C36.4828 62.3242 36.7449 63.2536 36.18 63.9507C35.6544 64.5991 35.0183 64.6697 34.2404 64.766C34.2005 64.7595 34.0849 64.7733 34.0378 64.7773C33.8216 65.1057 34.0864 65.6841 33.8456 66.1569C33.5786 66.3487 33.1902 66.3225 32.9903 66.0649C32.9092 65.3653 32.89 62.2778 33.0458 61.6719C33.2488 61.4725 33.2732 61.529 33.6186 61.4779Z" fill="#A45714"/>
<path d="M34.0357 62.3091C34.9566 62.247 35.9185 62.7212 35.078 63.65C33.7598 64.3025 33.7652 63.2826 34.0357 62.3091Z" fill="#FEE7A3"/>
<path d="M24.1501 61.0684C24.5441 61.104 28.278 61.0507 27.3355 62.1368C27.0179 62.2773 26.4232 62.234 26.0532 62.2318C26.0238 63.1407 25.9387 64.1601 25.8826 65.0762C25.8683 65.427 25.669 66.3958 25.169 66.202C24.8113 65.7361 25.0014 62.9068 25.0243 62.1337C24.5254 62.1491 24.018 62.2268 23.8459 61.6673C23.9102 61.3491 23.9366 61.3152 24.1501 61.0684Z" fill="#A45714"/>
<path d="M39.9544 61.2157C40.0366 61.2123 40.4581 61.1941 40.4803 61.3225C40.7182 62.6994 40.6365 64.1978 40.6827 65.6042C40.6925 65.9026 40.6566 66.0265 40.4138 66.1821C39.9871 66.1597 39.967 66.0183 39.8588 65.6812C39.8091 65.0328 39.7655 63.1723 39.6487 62.6935C39.3622 62.5426 39.0579 62.8411 38.6841 62.6841C38.3925 62.068 39.4952 61.4786 39.9544 61.2157Z" fill="#A45714"/>
<path d="M2.82861 54.416C4.46624 54.4123 6.46782 54.8342 8.32126 54.8876C7.7761 56.0255 7.24536 55.9282 7.06722 57.4318C6.78191 59.8406 6.57131 62.1617 6.61965 64.5894C6.26406 64.5764 5.82469 64.5201 5.46419 64.4839C4.59912 64.4582 2.86075 64.1997 1.95264 64.0836C2.61318 62.7673 3.76718 60.7647 4.29776 59.5608C4.09899 59.1042 3.81252 58.282 3.61382 57.8071C3.34722 57.17 2.18686 55.0826 2.26396 54.5785C2.4912 54.4087 2.50593 54.4565 2.82861 54.416Z" fill="#FBCE5D"/>
<path d="M60.7367 54.744C61.6688 54.6682 62.2129 54.7028 63.1412 54.8064C62.8913 55.6462 61.4118 59.1017 60.9382 59.7597C61.41 60.3521 62.9979 63.392 63.3233 64.1387C62.7238 64.3759 62.2982 64.4376 61.6609 64.5538C60.7663 64.6831 59.8729 64.7009 58.9731 64.8207C58.8616 62.3022 58.7026 59.0397 58.2091 56.5426C58.1479 56.2329 57.5446 55.4677 57.3487 55.0084L57.321 54.9421C58.4614 54.9124 59.6006 54.8463 60.7367 54.744Z" fill="#FBD26E"/>
<path d="M4.20135 50.1593C2.93266 47.6323 2.28009 45.8635 1.45192 43.1727C-0.495249 36.8466 -0.471137 30.0992 1.44731 23.7638C1.85208 22.4271 2.16571 21.213 2.72575 19.9253C6.22135 11.8769 12.7552 5.53556 20.9045 2.28216C22.6056 1.61954 25.7342 0.64054 27.5527 0.347805C30.5504 -0.134753 34.8669 -0.0964476 37.8755 0.346931C39.7496 0.623125 43.7051 1.85952 45.4324 2.63376C51.2495 5.24134 56.9329 9.83309 60.2252 15.3428C60.6486 16.0512 61.4113 17.2139 61.6989 17.9665C61.7478 18.3904 62.8473 20.1951 63.1097 20.9101L62.3528 21.2489L62.3286 21.095L62.1921 21.0013L62.1273 21.1324C61.124 21.2475 59.6408 21.1368 59.0141 22.0302L58.8157 21.8144C58.4085 21.3657 57.4956 22.1224 57.0984 21.3662L57.1767 21.2379C57.6073 21.1108 58.1081 20.8894 58.5303 20.7169C58.3731 20.3823 58.1168 19.7841 57.9044 19.5096L57.8502 19.2724C57.7684 19.1773 57.4162 18.5744 57.3044 18.4177C56.6675 17.525 56.0165 16.2748 55.3575 15.4305C55.2416 15.4277 55.2255 15.4602 55.1077 15.5206C54.8639 15.502 54.9276 15.5413 54.7596 15.4105L54.8091 15.3455L54.7253 15.4348C54.842 15.1563 54.8899 15.1596 54.8623 14.8956C54.1768 13.7252 53.4064 13.0593 52.3804 12.2261C52.3029 12.0999 52.1076 12.0238 51.9584 11.9397L51.892 12.3063C50.4797 12.0588 46.0344 7.21193 43.8467 7.56729C43.8328 7.12769 43.7663 6.88365 43.6683 6.46239C43.005 5.85118 42.8652 5.65654 41.8994 5.7058C41.3588 5.81535 41.2796 5.92628 40.8227 6.21037C40.5085 5.51323 35.505 4.8266 34.6202 4.70493C34.6268 4.50684 34.649 4.2773 34.6638 4.07676C34.5197 2.85287 33.8272 2.62103 32.7246 2.32382C32.0755 2.55658 31.3818 2.81382 31.0754 3.49876C30.987 3.70053 30.9326 3.91549 30.914 4.13506C30.9349 4.37596 30.9628 4.62453 30.961 4.8655C29.9348 4.62476 25.4316 5.4929 24.7145 6.01006C24.4097 5.82256 24.2148 5.74477 23.882 5.60675C23.3536 5.42186 22.538 5.76717 22.1616 6.14754C21.9821 6.59151 21.765 7.04277 21.7235 7.51604C21.3055 7.37971 19.7141 7.98548 19.3382 8.27862L19.1287 8.72658C18.6571 8.6135 18.0821 8.80284 17.6673 8.48576C17.3937 8.58688 17.294 8.80806 17.1676 9.07872L17.204 9.46362C17.0317 9.57747 16.7024 9.78108 16.5531 9.9006C16.2761 9.8782 16.229 9.87276 15.9679 9.7731C14.2403 10.922 11.8499 13.1229 10.5715 14.767C9.96145 15.2226 7.40105 19.13 7.36123 19.7798C6.05072 22.2283 5.4972 24.1269 4.83182 26.8249C4.61249 27.7142 4.49956 28.6595 4.2829 29.5531L4.24938 29.6801L4.74114 29.8323L5.33456 29.8426C6.16273 30.1044 7.00081 30.5619 7.28313 31.4511C7.16153 32.0369 7.33929 32.124 7.68498 32.5699C7.68613 33.3121 7.66826 34.1191 7.75265 34.8512L8.26083 35.3288C7.42199 36.2665 6.61714 37.1829 6.08425 38.3409C5.84796 38.8544 5.6689 39.4575 5.42793 39.9598C5.33663 40.2038 5.15174 40.6518 5.08361 40.884C4.90087 41.5424 4.55426 42.2981 5.3845 42.6421C5.48071 42.7693 5.5117 42.8119 5.58504 42.9528C6.25648 45.2439 7.03234 46.7145 8.12066 48.8446C8.41603 49.4227 8.9137 49.8423 9.18137 50.5357C8.04441 51.2712 7.55993 52.4594 7.88552 53.7969L7.6991 53.8071C7.41041 53.7033 6.79397 52.9339 6.56297 52.6667C6.35967 52.635 6.23393 52.601 6.02955 52.6359C5.97976 52.7224 5.93795 52.7869 5.90013 52.8799C5.69851 52.6549 5.35121 52.0844 5.17245 51.8082C4.89573 51.5515 4.33269 50.5406 4.20135 50.1593Z" fill="#FEEFC1"/>
<path d="M4.20135 50.1593C2.93266 47.6323 2.28009 45.8635 1.45192 43.1727C-0.495249 36.8466 -0.471137 30.0992 1.44731 23.7638C1.85208 22.4271 2.16571 21.213 2.72575 19.9253C6.22135 11.8769 12.7552 5.53556 20.9045 2.28216C22.6056 1.61954 25.7342 0.64054 27.5527 0.347806C30.5504 -0.134753 34.8669 -0.0964477 37.8755 0.346931C39.7496 0.623125 43.7051 1.85952 45.4324 2.63376C51.2495 5.24134 56.9329 9.83309 60.2252 15.3428C60.6486 16.0512 61.4113 17.2139 61.6989 17.9665C61.542 18.2399 61.528 18.223 61.1797 18.361C60.0326 16.2909 58.782 14.2067 57.2758 12.377C54.7309 9.28548 50.8099 6.17362 47.2837 4.27761C46.5128 3.86302 45.6755 3.53536 44.8721 3.18613C44.0961 2.84888 43.3257 2.48807 42.5105 2.25454C36.2591 0.463666 31.3098 0.0723097 24.9564 1.70915C22.6736 2.29735 20.1132 3.22795 18.0513 4.37941C11.5615 8.00367 6.41238 13.2486 3.44084 20.099C2.9622 21.2024 2.48363 22.3143 2.15842 23.4744C1.8863 24.4451 1.7047 25.4504 1.50854 26.4386C0.120891 33.4285 0.641502 40.0684 3.38 46.6702C3.72248 47.4958 4.03035 48.3683 4.44777 49.1585C4.54727 49.8219 4.7248 49.9875 4.82154 50.7862L4.75273 50.8567C4.62453 50.6831 4.35034 50.2945 4.20135 50.1593Z" fill="#ECA92A"/>
<path d="M5.33471 29.8434C6.16289 30.1051 7.00096 30.5627 7.28329 31.4518C7.16169 32.0377 7.33944 32.1247 7.68514 32.5706C7.68629 33.3128 7.66841 34.1199 7.7528 34.8519L8.26099 35.3295C7.42215 36.2672 6.61729 37.1836 6.08441 38.3416C5.84811 38.8552 5.66905 39.4583 5.42808 39.9605C5.12596 39.623 5.1229 39.5245 5.0227 39.0865C5.00506 38.6832 4.77152 37.6951 4.72687 37.1117C4.54958 34.7944 4.37819 32.134 4.7413 29.833L5.33471 29.8434Z" fill="#FEE7A3"/>
<path d="M61.6989 17.9668C61.7478 18.3907 62.8473 20.1955 63.1097 20.9104L62.3528 21.2492L62.3286 21.0954L62.1921 21.0016L62.1273 21.1327C61.124 21.2478 59.6408 21.1371 59.0141 22.0306L58.8157 21.8148C58.4085 21.366 57.4956 22.1227 57.0984 21.3665L57.1767 21.2382C57.6073 21.1111 58.1081 20.8898 58.5303 20.7172C58.3731 20.3827 58.1168 19.7844 57.9044 19.5099L57.8502 19.2728L57.9347 19.1437C58.3256 19.1182 58.466 19.3409 58.8582 19.3742L59.0351 19.9553C59.0734 20.1401 59.2159 20.5312 59.2816 20.7272C59.5749 20.352 60.8576 18.8435 61.265 18.7137L61.1797 18.3613C61.528 18.2233 61.542 18.2402 61.6989 17.9668Z" fill="#FDF8DE"/>
<path d="M61.6988 17.9668C61.7478 18.3907 62.8472 20.1955 63.1096 20.9104L62.3527 21.2492L62.3285 21.0954L62.1921 21.0016C61.8425 20.443 61.6392 19.4416 61.2649 18.7137L61.1797 18.3613C61.5279 18.2233 61.542 18.2402 61.6988 17.9668Z" fill="#FEE7A3"/>
<path d="M43.668 6.46191C44.1899 6.60676 44.7426 6.94524 45.2334 7.18537C47.3513 8.22137 49.4164 9.50579 51.1671 11.0927C51.4386 11.3388 51.8015 11.6094 51.9581 11.9392L51.8916 12.3058C50.4794 12.0584 46.034 7.21145 43.8464 7.56681C43.8325 7.12722 43.7659 6.88317 43.668 6.46191Z" fill="#F9BB42"/>
<path d="M4.2494 29.6797L4.74116 29.8318C4.37805 32.1328 4.54944 34.7932 4.72674 37.1106C4.77139 37.6939 5.00492 38.682 5.02256 39.0853C4.944 39.3668 4.92559 39.6794 4.63406 39.8121C3.92657 36.7702 3.88798 32.7585 4.2494 29.6797Z" fill="#ECA92A"/>
<path d="M34.6637 4.07715C36.6811 4.31866 38.5823 4.62415 40.5204 5.25048C40.7346 5.31968 41.7547 5.69315 41.8993 5.70619C41.3587 5.81574 41.2795 5.92668 40.8226 6.21076C40.5084 5.51362 35.5049 4.82699 34.6201 4.70532C34.6267 4.50723 34.6489 4.27769 34.6637 4.07715Z" fill="#F9BB42"/>
<path d="M23.8818 5.60698C24.1383 5.56593 25.2332 5.15756 25.616 5.05069C27.0608 4.64746 29.4173 4.10146 30.9138 4.13529C30.9347 4.37618 30.9626 4.62475 30.9608 4.86572C29.9346 4.62498 25.4315 5.49313 24.7143 6.01029C24.4095 5.82279 24.2146 5.74499 23.8818 5.60698Z" fill="#ECA92A"/>
<path d="M18.3828 7.869C20.0639 7.57057 20.699 6.71201 22.1613 6.14844C21.9818 6.59241 21.7647 7.04366 21.7232 7.51694C21.3052 7.38061 19.7138 7.98638 19.3379 8.27952C18.8921 8.15194 18.7758 8.11903 18.3828 7.869Z" fill="#F9BB42"/>
<path d="M4.44759 49.1602C4.84936 49.9519 5.15601 50.6193 5.679 51.3343C5.50638 51.4861 5.3221 51.6371 5.17227 51.8099C4.89555 51.5532 4.33251 50.5422 4.20117 50.1609C4.35016 50.2961 4.62435 50.6848 4.75255 50.8583L4.82136 50.7879C4.72462 49.9892 4.54709 49.8235 4.44759 49.1602Z" fill="#FEE7A3"/>
<path d="M17.6674 8.48619C17.8456 8.33137 17.8869 8.30621 17.963 8.08587C17.8097 7.95376 17.7183 8.01192 17.4568 8.02657C17.3279 7.9151 17.3646 7.98322 17.3398 7.81743C17.638 7.65241 18.074 7.77931 18.3833 7.86853C18.7763 8.11855 18.8925 8.15147 19.3384 8.27905L19.1288 8.72701C18.6573 8.61393 18.0822 8.80327 17.6674 8.48619Z" fill="#5C381E"/>
<path d="M5.67909 51.333C5.97522 51.8202 6.20983 52.2191 6.56288 52.6671C6.35958 52.6354 6.23384 52.6014 6.02946 52.6363C5.97967 52.7228 5.93786 52.7873 5.90004 52.8803C5.69842 52.6553 5.35112 52.0848 5.17236 51.8086C5.32219 51.6358 5.50647 51.4848 5.67909 51.333Z" fill="#FBCE5D"/>
<path d="M5.02278 39.0859C5.12297 39.524 5.12604 39.6224 5.42816 39.96C5.33686 40.204 5.15197 40.652 5.08385 40.8842C4.7347 40.5846 4.71337 40.2622 4.63428 39.8128C4.92581 39.68 4.94422 39.3675 5.02278 39.0859Z" fill="#F9BB42"/>
<path d="M58.8584 19.375C58.9785 19.0681 58.9925 19.0062 59.2469 18.8037L59.4364 18.7705C59.7588 19.144 59.3606 19.7205 59.0353 19.9561L58.8584 19.375Z" fill="#FEE7A3"/>
<path d="M15.968 9.77446C16.2849 9.54338 16.8117 9.27533 17.1677 9.08008L17.2042 9.46497C17.0319 9.57882 16.7025 9.78243 16.5532 9.90196C16.2763 9.87956 16.2291 9.87411 15.968 9.77446Z" fill="#F9BB42"/>
<path d="M43.8467 7.56744C46.0344 7.21208 50.4797 12.059 51.892 12.3064L51.9584 11.9399C52.1076 12.0239 52.3029 12.1 52.3804 12.2262C53.4064 13.0595 54.1768 13.7254 54.8623 14.8957C54.8899 15.1597 54.842 15.1564 54.7253 15.4349L54.8091 15.3456L54.7596 15.4107C54.9276 15.5415 54.8639 15.5022 55.1077 15.5208C55.2255 15.4604 55.2416 15.4279 55.3575 15.4306C56.0165 16.2749 56.6675 17.5252 57.3044 18.4178C57.4161 18.5745 57.7684 19.1775 57.8501 19.2726L57.9044 19.5097C58.1168 19.7842 58.3731 20.3825 58.5303 20.7171C58.1081 20.8896 57.6073 21.1109 57.1767 21.2381L57.0984 21.3663C57.4956 22.1225 58.4085 21.3659 58.8156 21.8146C58.3944 22.4102 59.4236 24.6547 59.6232 25.4882C60.5285 29.2691 60.8089 33.0614 60.4185 36.9313C60.3575 37.5371 60.2935 39.0046 59.6121 39.2064C58.5006 37.1027 55.6532 34.768 53.3136 34.2631C52.2441 34.0324 52.0911 34.9001 51.9 35.6456C51.5733 36.9201 50.6593 37.7814 49.6682 38.5608C49.7059 38.4644 49.7411 38.367 49.7738 38.2688C51.414 33.3319 50.7448 28.4484 48.4459 23.8752C48.6917 22.4977 48.4273 18.1936 48.1612 16.7146C47.9496 15.5376 47.059 11.3743 46.0753 10.5955C45.3345 10.0091 43.389 11.5682 42.7025 12.0022C42.3687 12.2131 41.7153 13.0861 41.2657 13.1621L41.1973 13.0686C41.2352 12.7024 41.6007 11.7567 41.7249 11.4624C42.1521 10.4504 41.9457 8.94446 43.2447 8.72712C43.5201 8.68101 43.7741 7.85614 43.8467 7.56744Z" fill="#FDE5A2"/>
<path d="M51.9916 14.3398L52.2007 14.4654C52.1652 15.9153 54.057 16.4868 54.1227 16.8352C53.9057 17.1103 53.2766 17.2367 53.1034 17.4353C52.6284 17.98 52.5296 18.5859 52.0705 19.2524C51.8878 18.8071 51.642 18.0889 51.3776 17.7277L51.3463 17.6856C50.9796 17.1806 50.3534 17.1414 50.0391 16.7562C50.1723 16.3719 51.4542 16.1907 51.9916 14.3398Z" fill="#FDF8DE"/>
<path d="M55.3574 15.4307C56.0164 16.275 56.6674 17.5252 57.3043 18.4178C57.4161 18.5746 57.7683 19.1775 57.8501 19.2726L57.9043 19.5098C57.8492 19.5641 57.7182 19.6641 57.6522 19.7173C57.0131 19.6887 54.8588 16.111 55.3574 15.4307Z" fill="#FBCE5D"/>
<path d="M52.3803 12.2266C53.4064 13.0598 54.1768 13.7257 54.8623 14.8961C54.795 14.9847 54.8168 14.9534 54.6987 15.0038C54.5859 14.9705 54.024 14.7991 53.9548 14.7565C53.3517 14.3854 52.6044 13.3586 52.3564 12.7345C52.2517 12.5135 52.3049 12.4307 52.3803 12.2266Z" fill="#FBCE5D"/>
<path d="M51.9585 11.9404C52.1077 12.0245 52.303 12.1006 52.3805 12.2268C52.305 12.431 52.2518 12.5137 52.3565 12.7348C52.2713 13.3293 52.2113 13.8661 52.2003 14.4662L51.9913 14.3406C51.9938 13.8922 51.9558 12.7447 51.8921 12.307L51.9585 11.9404Z" fill="#FEE7A3"/>
<path d="M52.4165 24.7314C52.6964 24.6051 53.0962 24.4983 53.3579 24.3354C54.1891 23.8182 54.5406 22.661 54.7376 21.75C55.0971 21.8378 55.0216 21.767 55.2524 22.0078C55.2943 22.2557 55.2995 22.2905 55.2551 22.5417C55.3029 22.7001 55.3967 23.0386 55.4576 23.1789L55.5933 23.5527C55.7708 23.5358 55.859 23.4852 56.0191 23.4156C56.1649 23.8344 56.392 24.0722 56.7205 24.3687C57.0173 24.4395 57.8123 24.6784 58.0119 24.8948C58.2394 25.7117 56.3625 25.9786 56.0205 26.7593C55.8944 27.3226 55.6376 29.1408 54.8772 28.9392C54.6513 28.7112 54.5627 28.4581 54.5025 28.1433C54.3715 27.5432 54.1081 26.233 53.4742 25.962C53.1383 25.8184 51.8777 25.4837 51.9927 24.9793C52.153 24.8034 52.1855 24.7955 52.4165 24.7314Z" fill="#EBAB42"/>
<path d="M52.4165 24.7315C52.7505 24.703 52.9551 24.6024 53.2724 24.7058L53.3094 24.7918L53.0368 25.044L53.0453 25.1056C53.2465 25.1788 53.5184 25.268 53.7303 25.2874C54.1494 25.7407 54.9396 26.7264 54.8741 27.3565C54.9295 27.637 54.9592 28.1048 55.1064 28.2891C55.3983 28.0307 55.407 26.9904 55.8521 26.672L56.0205 26.7594C55.8944 27.3228 55.6376 29.141 54.8772 28.9394C54.6513 28.7114 54.5627 28.4583 54.5025 28.1435C54.3715 27.5434 54.1081 26.2332 53.4742 25.9622C53.1383 25.8186 51.8777 25.4838 51.9927 24.9795C52.153 24.8036 52.1855 24.7957 52.4165 24.7315Z" fill="#DA8B1B"/>
<path d="M52.416 24.7314C52.6959 24.6051 53.0957 24.4983 53.3574 24.3354C54.1886 23.8182 54.5401 22.661 54.7371 21.75C55.0966 21.8378 55.0211 21.767 55.2519 22.0078C55.2938 22.2557 55.299 22.2905 55.2546 22.5417C54.7858 22.9457 55.03 23.8046 54.1851 24.5138C53.9727 24.618 53.898 24.6419 53.7473 24.8347C53.6855 25.0463 53.6791 25.0737 53.7297 25.2873C53.5178 25.2678 53.246 25.1786 53.0448 25.1054L53.0363 25.0438L53.3089 24.7917L53.2719 24.7056C52.9546 24.6022 52.75 24.7028 52.416 24.7314Z" fill="#ECA92A"/>
<path d="M55.255 22.542C55.3028 22.7003 55.3966 23.0388 55.4575 23.1791C55.4079 23.6165 55.3406 23.9962 55.2626 24.4274C54.9879 24.5341 54.5381 24.7473 54.2654 24.7213C54.176 24.5832 54.1899 24.6532 54.1855 24.514C55.0304 23.8049 54.7862 22.9459 55.255 22.542Z" fill="#FEE7A3"/>
<path d="M56.0191 23.4141C56.1649 23.8329 56.392 24.0707 56.7205 24.3672C56.5321 24.5223 56.5551 24.4795 56.2883 24.528C55.8346 24.3505 55.9205 23.9423 55.5933 23.5512C55.7708 23.5343 55.8589 23.4837 56.0191 23.4141Z" fill="#ECA92A"/>
<path d="M57.6656 29.8994C58.0685 30.532 59.4302 31.3411 59.4099 31.9918C59.2376 32.5299 58.3073 33.009 57.7967 33.3462C57.7022 33.4679 57.6746 33.4885 57.555 33.5873C57.1551 32.9948 56.6992 32.442 56.1934 31.9367C56.6069 31.1881 56.9964 30.4365 57.6656 29.8994Z" fill="#FEE7A3"/>
<path d="M54.7373 21.7508C54.8901 21.4004 54.8191 21.4314 55.0908 21.2236C55.6547 21.2977 55.8545 22.8824 56.0188 23.4164C55.8586 23.4861 55.7705 23.5366 55.5929 23.5536L55.4572 23.1797C55.3964 23.0394 55.3026 22.7009 55.2548 22.5426C55.2992 22.2913 55.294 22.2566 55.2521 22.0086C55.0212 21.7679 55.0968 21.8387 54.7373 21.7508Z" fill="#DA8B1B"/>
<path d="M19.3378 8.27934C19.7138 7.9862 21.3051 7.38043 21.7232 7.51676C22.4777 9.00357 22.7873 8.54187 23.1441 8.94449C23.3756 9.20587 24.212 12.8439 24.1681 13.1033L24.0628 13.1625C23.6368 12.9414 23.4254 12.3947 23.1098 12.1355C21.895 11.1381 20.8601 10.0491 19.2825 9.70048C17.3927 11.6359 16.054 17.7416 15.9064 20.4511C15.7197 23.88 16.1406 23.358 14.5048 26.5687C13.2435 29.0446 13.037 34.663 13.8462 37.3923C13.1457 36.8011 12.5256 36.159 11.9925 35.4219C11.5952 34.8724 11.8033 33.9176 11.0031 33.8198C10.0231 33.7 8.89785 34.7013 8.26048 35.3295L7.75229 34.8519C7.6679 34.1199 7.68578 33.3128 7.68463 32.5706C7.33893 32.1247 7.16118 32.0377 7.28278 31.4518C7.00045 30.5627 6.16238 30.1051 5.33421 29.8434L4.74079 29.833L4.24902 29.6809L4.28255 29.5538C4.4992 28.6602 4.61213 27.7149 4.83147 26.8256C5.49685 24.1276 6.05037 22.2291 7.36088 19.7805C7.40069 19.1307 9.96109 15.2234 10.5712 14.7677C11.8496 13.1236 14.2399 10.9228 15.9675 9.77382C16.2286 9.87348 16.2758 9.87892 16.5527 9.90132C16.702 9.7818 17.0314 9.57819 17.2037 9.46434L17.1673 9.07944C17.2937 8.80878 17.3933 8.5876 17.6669 8.48648C18.0817 8.80356 18.6567 8.61422 19.1283 8.7273L19.3378 8.27934Z" fill="#FEE5A3"/>
<path d="M5.33462 29.8422L5.05176 29.7148C5.18011 29.4697 6.36188 29.0358 6.66929 28.4613C6.96074 27.9166 6.85119 27.0975 7.26194 26.834C7.39573 26.9632 7.44836 27.1437 7.49439 27.3195C7.90998 28.9053 8.16537 28.8939 9.60078 29.5939C9.01518 29.8191 8.18379 30.0505 7.91052 30.6569C7.79613 30.9108 7.67913 31.3799 7.47383 31.5157L7.28319 31.4507C7.00087 30.5615 6.16279 30.104 5.33462 29.8422Z" fill="#FDF8DE"/>
<path d="M7.36128 19.7793C7.38031 20.461 6.59226 21.0576 6.79073 21.5147C7.04398 21.4234 7.4769 20.5507 7.62919 20.2747C7.64959 20.5754 7.03961 21.4706 6.89821 21.9038C6.61113 22.7837 6.30495 23.5727 6.01196 24.4744C5.48598 26.0929 5.30331 27.8498 4.68573 29.4398C4.65512 29.5186 4.37188 29.5465 4.28296 29.5526C4.49961 28.659 4.61254 27.7137 4.83188 26.8244C5.49726 24.1264 6.05078 22.2278 7.36128 19.7793Z" fill="#FBCE5D"/>
<path d="M10.5715 14.7673C11.85 13.1232 14.2403 10.9224 15.9679 9.77344C16.229 9.87309 16.2762 9.87854 16.5531 9.90094C15.0637 11.3563 13.3167 12.6132 11.9458 14.2241C11.7697 14.431 11.352 15.0146 11.1297 15.1285L11.105 15.0549L11.1563 15.0026C11.4545 14.6956 11.6355 14.3472 11.8408 14.1386C11.4953 14.0875 11.5784 14.0537 11.2761 14.1662C11.1197 14.36 10.8395 14.7674 10.5715 14.7673Z" fill="#FBCE5D"/>
<path d="M17.168 9.07831C17.2944 8.80765 17.3941 8.58647 17.6676 8.48535C18.0825 8.80243 18.6575 8.61309 19.129 8.72617C18.5675 9.34928 18.2107 10.3389 17.6867 10.5938C17.1668 10.5623 17.2196 9.86506 17.2044 9.4632L17.168 9.07831Z" fill="#A45714"/>
<path d="M9.76701 20.584C10.3996 20.7729 10.4249 21.7242 10.6467 22.3345C10.9014 23.0351 12.3602 23.5145 12.4095 24.0065C12.1499 24.2584 11.4372 24.5149 11.0629 24.6728C10.4481 25.5933 10.4965 26.431 10.0167 27.0889C9.38396 26.771 9.50732 25.4347 9.00366 24.8592C8.57435 24.3687 7.35575 24.5908 7.36826 23.8246C7.77571 23.4301 8.59069 23.1029 9.23137 22.5138C9.48952 21.893 9.44648 21.1443 9.76701 20.584Z" fill="#ECA92A"/>
<path d="M9.91098 22.3779C10.0389 22.4622 10.7488 23.414 10.8093 23.5523C11.0958 24.2074 10.7633 24.4954 10.1545 24.6753C9.83886 24.6279 9.45143 24.4354 9.22013 24.2222C8.58053 23.633 9.58339 22.7372 9.91098 22.3779Z" fill="#FBCE5D"/>
<path d="M12.8994 15.6289C13.0729 15.7806 13.3719 16.5186 13.5531 16.7162C13.7739 16.9569 14.1101 17.0498 14.3097 17.3324C14.2091 17.5438 13.0825 18.4208 12.8158 18.6386C12.7091 18.6986 12.7337 18.6779 12.5872 18.6652C12.2557 18.0542 11.9427 17.7729 11.3931 17.382C12.2245 16.8108 12.3874 16.4813 12.8994 15.6289Z" fill="#FDF8DE"/>
<path d="M45.7871 48.804C45.9087 48.8093 46.0303 48.8137 46.152 48.8169C47.8579 48.8612 48.3421 48.3002 49.4864 47.2129C49.699 47.4957 50.0181 48.0772 50.2149 48.3064C50.8226 49.0145 52.1609 50.6807 52.9173 51.1214C52.3421 51.6178 52.2339 51.9241 51.909 52.597C49.7968 52.924 49.5621 53.0495 48.5701 54.9931C47.8829 55.2867 47.6696 55.4975 47.2752 56.1167C44.9687 56.5217 42.1182 56.6018 39.7304 56.8505C39.2571 56.6053 39.2984 55.9994 38.9774 55.6407C38.038 54.5907 36.9761 53.5611 36.1603 52.4132C36.0838 52.3055 35.8517 51.4074 35.8032 51.2283C37.1573 51.1202 38.2426 50.6945 39.6389 50.8958C40.1955 50.9759 40.9873 50.4832 41.4975 50.2328C43.5406 50.5084 44.238 49.9266 45.7871 48.804Z" fill="#5E358E"/>
<path d="M14.7504 47.7119C15.9645 48.5599 16.4234 48.782 17.9355 48.5618C19.0348 49.6881 20.2247 50.3967 21.8379 50.4594C22.3291 50.4785 22.7905 50.2439 23.1625 50.2328C23.4064 50.2256 24.3181 50.7227 24.6542 50.8006C25.2425 50.9369 25.9625 50.9625 26.5328 51.0795C26.122 52.2012 25.9719 52.3999 25.0922 53.2242C24.965 53.7342 24.9134 53.9971 24.855 54.5194C24.6094 54.6131 24.1257 54.7864 23.9359 54.9417C23.1728 55.5657 23.4125 56.2501 22.5091 56.5197C20.7734 56.3656 18.3885 56.1745 16.6765 55.851C16.5243 55.5548 15.9787 54.925 15.9367 54.8205C15.0508 52.6133 14.9409 53.1947 12.9618 52.4726C12.6198 51.8028 12.512 51.4968 11.9146 51.0244C12.7021 50.1758 14.0971 48.6681 14.7504 47.7119Z" fill="#5E358E"/>
<path d="M17.2772 51.8477L17.329 51.9002C17.3133 52.2611 16.3018 53.3049 15.8938 53.3221L15.7857 53.2056C15.7804 53.0405 16.0094 52.9399 16.1631 52.8376C16.6079 52.5413 16.9278 52.2491 17.2772 51.8477Z" fill="#4C2E78"/>
<path d="M51.8551 44.1909C52.163 44.4132 53.339 45.4425 53.6238 44.9597C54.9288 42.7478 56.8369 40.7149 59.6834 41.7221L59.9696 41.9485C59.5932 42.937 59.7284 43.7694 59.0934 44.5817C59.1441 45.5336 57.6244 47.6869 57.6593 47.9384C57.6474 48.9175 56.4888 49.567 56.2644 50.9006C56.061 50.826 55.7831 50.6532 55.5857 50.5392C54.5809 50.1556 54.2464 50.3617 53.4105 50.9114C52.2004 49.6949 51.0174 48.3112 49.8794 47.0177C50.9778 46.5167 51.4494 45.2664 51.8551 44.1909Z" fill="#FEE7A3"/>
<path d="M55.5859 50.5393C55.9994 50.2259 56.6332 48.1733 57.6595 47.9385C57.6476 48.9176 56.489 49.5671 56.2646 50.9007C56.0612 50.8261 55.7833 50.6533 55.5859 50.5393Z" fill="#FBCE5D"/>
<path d="M59.6835 41.7227L59.9697 41.949C59.5933 42.9375 59.7285 43.7699 59.0935 44.5822L58.9832 44.4383C58.8393 43.969 59.5016 42.217 59.6835 41.7227Z" fill="#FBCE5D"/>
<path d="M5.38477 42.641C6.13507 42.1251 6.6576 41.6585 7.62218 41.5375C9.55763 41.2946 10.8073 42.6413 12.148 43.7106C12.1749 45.2397 12.4471 45.3614 13.6267 46.2965L13.6354 46.3356C13.7445 46.8161 13.8476 46.9678 14.1216 47.3548C14.2032 47.47 13.1119 48.8461 12.9768 49.0001C12.4795 49.5669 11.9737 50.0643 11.5497 50.6893C10.8531 50.3866 10.539 50.2329 9.75618 50.2821L9.18164 50.5347C8.91397 49.8412 8.41629 49.4216 8.12093 48.8435C7.0326 46.7134 6.25675 45.2429 5.58531 42.9517C5.51196 42.8108 5.48097 42.7682 5.38477 42.641Z" fill="#FEE6A2"/>
<path d="M5.58496 42.9528C5.87196 42.9198 5.88224 42.8648 6.06046 43.0061C6.59289 44.2843 8.69666 49.7904 9.75583 50.2832L9.18129 50.5358C8.91362 49.8423 8.41595 49.4227 8.12058 48.8446C7.03225 46.7145 6.2564 45.244 5.58496 42.9528Z" fill="#FBCE5D"/>
<path d="M11.286 46.582C11.4808 46.5928 11.4086 46.5773 11.5817 46.6842L11.6244 46.8716C11.5375 47.1977 11.1997 47.6548 11.003 47.9522L10.2946 47.7005C9.97002 47.5785 9.58144 47.3755 9.26367 47.2207C9.83753 46.9786 10.6705 46.7612 11.286 46.582Z" fill="#FEEFC1"/>
<path d="M33.8081 50.876C34.7782 51.0905 35.0305 51.0372 35.4407 52.0055C35.9334 53.1685 37.0295 53.8644 37.4312 55.0512L38.4632 55.6578C38.6145 56.0252 38.7679 56.3919 38.9232 56.7577C38.6434 56.9777 35.9206 57.0429 35.496 56.9835C35.3776 56.9449 35.2544 56.996 35.1272 57.0283C34.9458 57.0744 34.9196 57.0533 34.7322 56.9979C34.6238 56.6099 33.971 56.1138 33.9487 55.848C33.8773 54.9948 34.416 55.156 33.4643 54.8297C33.081 54.4016 32.5689 52.8396 32.3499 52.2375C32.9447 51.7644 33.3259 51.4632 33.8081 50.876Z" fill="white"/>
<path d="M35.1273 57.0274C35.0589 56.7975 34.9102 56.3565 34.9009 56.1364L34.9728 56.0085L34.9056 55.9336L34.9422 55.9367C35.186 56.2529 35.3314 56.6188 35.4961 56.9827C35.3777 56.9441 35.2545 56.9951 35.1273 57.0274Z" fill="#BDBCBA"/>
<path d="M35.5555 54.3721C36.4046 54.4235 36.8414 54.8233 36.518 55.698C35.9509 55.6601 35.4817 54.9353 35.5555 54.3721Z" fill="black"/>
<path d="M34.6203 4.7041C35.5051 4.82578 40.5086 5.51241 40.8228 6.20955C40.5228 6.77266 40.5562 7.34137 40.536 7.97453C39.4272 8.22095 37.8642 9.17732 36.6683 9.70146C35.8966 8.43883 34.9743 7.31398 34.2368 6.03156C33.8641 5.3836 34.4268 5.59825 34.6203 4.7041Z" fill="#FEE7A3"/>
<path d="M24.7144 6.01106C25.4315 5.4939 29.9347 4.62575 30.9608 4.8665L30.9777 4.93063C31.1767 5.66276 31.5552 5.5341 31.1468 6.17961C30.2937 7.52839 29.443 8.32059 28.5968 9.73535C27.2861 9.12099 26.3739 8.28499 25.034 7.95618C25.0571 7.30008 25.163 6.53213 24.7144 6.01106Z" fill="#FEE7A3"/>
<path d="M9.65264 50.8669C11.9995 50.7466 11.5698 51.5872 12.5916 52.8937C12.6211 52.9315 14.6722 53.1085 14.9002 53.8037C15.3926 54.4311 15.2678 54.8168 15.8354 55.5952C15.505 55.6187 14.4448 55.4288 14.0616 55.3749C12.3276 55.1311 10.8607 54.7639 9.09053 54.8355C8.73026 54.3955 7.77887 53.0544 8.44087 52.6896C9.38804 52.1677 8.56109 51.9081 9.10955 51.2912C9.16625 51.2274 9.55751 50.9379 9.65264 50.8669Z" fill="white"/>
<path d="M10.4471 53.2356C11.3255 53.2241 11.7514 53.6828 11.6368 54.5596C10.9473 54.3985 10.2426 54.042 10.4471 53.2356Z" fill="black"/>
<path d="M27.0109 51.2068C27.5955 51.1018 28.1835 50.8403 28.7091 50.9087C28.9357 51.072 28.8757 51.0713 28.9746 51.4022C28.8902 52.153 28.7817 52.9233 28.6826 53.6674C28.6567 53.8618 28.8751 54.5277 28.8874 54.9313L28.3745 54.9452C28.2944 55.6708 28.045 56.2224 27.5306 56.751L27.5 56.8693C27.2615 56.8854 27.0049 56.8078 26.7668 56.7537C26.3386 56.8303 23.82 56.6578 23.3823 56.5531C23.6936 55.96 24.066 55.3099 24.7095 54.9938C26.3684 54.1789 24.4621 53.6296 26.5862 52.6885C26.7394 52.2439 26.8829 51.6706 27.0109 51.2068Z" fill="white"/>
<path d="M27.475 55.6864C27.6734 55.3152 28.0197 55.1396 28.3746 54.9453C28.2946 55.6709 28.0452 56.2225 27.5307 56.7511C27.145 56.0513 27.7325 56.2762 27.475 55.6864Z" fill="#DFDEE5"/>
<path d="M27.4746 55.6855C27.7322 56.2754 27.1447 56.0504 27.5303 56.7502L27.4998 56.8685C27.2613 56.8847 27.0047 56.8071 26.7666 56.753C26.9478 56.4228 27.255 56.0041 27.4746 55.6855Z" fill="#BDBCBA"/>
<path d="M26.6968 54.1279L26.8616 54.2605C27.1583 54.8456 26.7114 55.3242 26.2098 55.5759C25.3832 55.0492 26.1905 54.5044 26.6968 54.1279Z" fill="black"/>
<path d="M52.3542 52.9989L52.3665 52.9499C52.6868 51.713 53.9501 50.5989 55.2698 50.9624C55.0571 51.8972 55.2521 53.5876 55.092 54.79C54.9706 54.8241 54.8219 54.8565 54.7192 54.9224C53.6996 55.0452 49.6852 56.0009 49.0312 55.784C49.3747 53.6069 50.297 53.075 52.3542 52.9989Z" fill="white"/>
<path d="M53.7758 53.7008L53.9393 53.6982C54.0252 53.7668 54.1096 53.7971 54.1003 53.9038C54.0332 54.6671 53.493 54.8568 52.8963 54.9184C52.6302 54.7815 52.6571 54.8452 52.5337 54.6174C52.6974 54.1593 53.3117 53.9433 53.7758 53.7008Z" fill="black"/>
<path d="M30.6001 52.3685C30.9596 52.3569 31.4456 52.3267 31.7943 52.3536C32.3331 53.2646 32.5049 54.2934 33.0923 55.3133C32.7511 55.5524 29.5866 55.6345 29.1289 55.3034C29.6984 54.3817 30.1702 52.9907 30.6001 52.3685Z" fill="#5E358E"/>
<path d="M55.2697 50.9619C57.1332 51.8034 55.9722 52.4063 56.2688 52.8149C57.336 53.121 56.5232 54.262 56.1338 54.8184L54.719 54.9219C54.8217 54.856 54.9705 54.8236 55.0918 54.7895C55.252 53.5871 55.0569 51.8967 55.2697 50.9619Z" fill="#DFDEE5"/>
<path d="M28.9745 51.4014C29.2393 51.7889 29.6112 51.96 30.0303 52.1625C29.6277 52.9573 28.9877 54.0811 28.8874 54.9305C28.8751 54.5269 28.6567 53.861 28.6825 53.6666C28.7817 52.9225 28.8901 52.1522 28.9745 51.4014Z" fill="#DFDEE5"/>
<path d="M19.4207 10.2617C21.9079 11.6432 23.752 13.2531 25.3154 15.6437C24.902 15.8744 23.7233 16.3921 23.7433 16.9071L23.8507 16.9435C24.287 16.6958 24.879 16.3769 25.353 16.1945C25.5144 16.1324 25.9833 16.2373 26.078 16.1874C28.3885 14.9686 32.276 15.0484 34.8437 15.3045C35.9604 15.4159 37.777 15.9092 38.8572 16.2271C38.8315 16.4692 38.7725 16.7244 38.8654 16.9356C39.0507 16.8201 39.1482 16.5372 39.2487 16.3235C39.5748 16.4672 40.269 16.8576 40.5348 16.8709L40.6303 16.774C40.5586 16.3338 40.0686 16.1311 39.7078 15.9146C40.9143 14.0522 42.8969 12.459 44.7979 11.3076C45.0159 11.1756 45.3362 11.1088 45.5802 11.1497C46.2169 11.2564 46.8289 13.6705 46.8004 14.0531C46.6432 16.1574 46.1945 18.2216 45.8728 20.2895C45.6069 20.1392 45.4405 20.0185 45.136 19.9964L45.0582 20.0689C45.099 20.1974 47.2112 22.9236 47.516 23.4199C49.8957 27.2944 50.4322 31.449 49.8672 35.8898C49.6914 37.2717 48.8763 38.8972 48.2052 40.1047C47.1428 40.5054 46.8985 40.5485 46.3094 41.5008C44.1742 41.4343 43.1938 41.7954 41.8576 43.5178C40.0182 42.9758 38.7261 43.334 37.2936 44.6072C36.23 44.257 35.0642 44.9078 34.1174 45.3793C33.2717 46.1057 33.012 46.3239 32.4055 47.2381C31.4331 46.9415 31.1922 46.9889 30.1913 47.2351C29.6768 46.4845 29.3353 46.0355 28.6664 45.4151C27.8164 44.8616 26.9565 44.6117 25.9538 44.627C24.7337 43.2155 23.4143 43.0088 21.6653 43.3898C20.922 42.1857 20.2409 41.6149 18.8178 41.4581C18.5349 41.427 18.1092 41.3491 17.8175 41.2883C17.7166 41.3021 17.488 40.8342 17.4875 40.8342C16.9571 40.8818 16.7358 40.931 16.3134 40.4285C12.0853 35.3986 13.9185 27.7494 17.0998 22.6675C18.0178 21.201 19.1883 20.5477 19.8612 18.9637C19.5414 19.1821 19.11 19.6369 18.8225 19.9231C18.4986 18.036 18.1599 16.1513 18.1618 14.2331C18.1618 14.1528 18.0041 13.8786 17.9562 13.7999L17.9368 13.7685C17.9923 12.8656 19.0016 11.1106 19.4207 10.2617Z" fill="#8A69B8"/>
<path d="M28.666 45.4149C29.1446 45.1258 33.5695 44.8877 34.117 45.3791C33.2713 46.1055 33.0117 46.3237 32.4051 47.2379C31.4327 46.9413 31.1919 46.9887 30.1909 47.2349C29.6765 46.4843 29.3349 46.0353 28.666 45.4149Z" fill="#5E358E"/>
<path d="M40.9242 30.2158L41.1639 30.2187L41.216 30.3007C41.092 30.5351 40.6747 30.8335 40.4502 31.016C41.9943 32.1915 42.6986 32.7903 42.5085 34.9201C42.3009 37.2483 40.843 38.0939 38.6818 37.8824C38.6508 37.8775 38.62 37.8721 38.5892 37.8662C36.1128 37.392 36.3457 34.5284 36.6766 32.7185C36.6738 32.734 36.4328 32.3966 36.4082 32.3599C36.4357 32.3151 40.5508 30.3961 40.9242 30.2158Z" fill="black"/>
<path d="M38.5397 31.9231C39.5896 31.6517 40.1032 33.6135 38.4087 34.1838C36.7754 34.0311 36.7943 32.3766 38.5397 31.9231Z" fill="white"/>
<path d="M21.6723 29.8299C22.4445 29.7877 25.3782 31.5158 26.4958 31.9895L26.4945 32.0956L26.2162 32.2391C25.8325 32.8044 27.8135 35.0767 24.7255 37.404C23.5251 38.1676 21.9421 37.6846 21.1804 36.5186C20.5632 35.5607 20.3523 34.3967 20.5942 33.2832C20.8644 31.9919 21.4603 31.2867 22.5145 30.601C22.2155 30.3661 21.8886 30.1394 21.6723 29.8299Z" fill="black"/>
<path d="M22.5369 31.3066C23.8425 31.3564 24.0316 33.4502 22.3051 33.8861L22.2703 33.8747C20.6028 33.3235 21.2424 31.9196 22.5369 31.3066Z" fill="white"/>
<path d="M30.8392 35.8511C31.1392 35.8235 31.522 35.7349 31.7418 35.9592C31.7335 36.1958 31.4441 36.4705 31.2769 36.6623C32.1304 37.915 33.0143 38.0784 34.1575 37.1813C34.4323 37.1938 34.3243 37.1553 34.5632 37.3695L34.5521 37.5075C34.3542 37.7517 33.9064 37.9233 33.6076 38.0647C33.367 39.154 32.9835 40.2641 31.8231 40.6634C30.7179 40.8983 29.7999 40.4863 29.2784 39.4684C29.0007 38.9263 29.0181 38.521 28.986 37.9276C28.6178 37.8083 28.2803 37.7861 28.1694 37.4041C28.2369 37.121 28.1766 37.2011 28.3704 37.0597C28.7834 37.0933 29.2735 38.0511 30.0414 37.6272C30.3586 37.4522 30.8632 37.2348 31.0153 36.877C31.058 36.5632 30.8856 36.2765 30.7482 35.9808L30.8392 35.8511Z" fill="black"/>
<path d="M30.4553 37.7783C31.4364 37.3778 31.0547 37.4284 32.1733 37.8378C32.3836 37.9148 32.8712 38.1422 32.9921 38.31C33.0358 38.7308 32.7859 38.9963 32.8001 39.2814C32.7751 39.335 32.7491 39.388 32.722 39.4405C32.0587 40.7222 30.0838 40.6353 29.6473 39.1637C29.6552 38.9553 29.6739 38.8616 29.5736 38.6729C29.5538 38.4366 29.5301 38.3229 29.6052 38.0921C29.8313 37.883 30.1179 37.8695 30.4553 37.7783Z" fill="#DC577B"/>
<path d="M30.4549 37.7783C31.436 37.3778 31.0543 37.4284 32.1729 37.8378C32.3832 37.9148 32.8709 38.1422 32.9917 38.31C33.0354 38.7308 32.7855 38.9963 32.7997 39.2814C32.6623 38.8535 31.6288 38.2261 31.1655 38.1985C30.7845 38.0592 30.748 38.131 30.3223 38.204L30.4549 37.7783Z" fill="#6A1727"/>
<path d="M29.5736 38.6729C29.5538 38.4366 29.5301 38.3229 29.6052 38.0921C29.8313 37.883 30.1179 37.8695 30.4553 37.7783L30.3226 38.204C30.7483 38.1311 30.7849 38.0593 31.1658 38.1986C30.6983 38.485 30.0752 38.8442 29.6473 39.1638C29.6552 38.9553 29.6739 38.8617 29.5736 38.6729Z" fill="#5B1022"/>
<path d="M29.5736 38.6729C29.5538 38.4366 29.5301 38.3229 29.6052 38.0921C29.8313 37.883 30.1179 37.8695 30.4553 37.7783L30.3226 38.204C30.0107 38.4547 29.9357 38.5106 29.5736 38.6729Z" fill="#8A2733"/>
<path d="M43.1948 36.624C44.3607 36.6676 44.6653 37.3816 44.186 38.4504C44.019 38.8227 43.6619 38.9009 43.2827 39.0066C42.3438 39.1193 42.2266 38.672 42.1053 37.8037C42.0584 37.4686 42.179 37.1231 42.3146 36.8178C42.5291 36.6743 42.9237 36.6569 43.1948 36.624Z" fill="#B271BC"/>
<path d="M19.1847 36.4347C20.4302 36.2597 21.2258 38.2454 20.1507 38.6177L20.1608 38.4051L20.0266 38.4574C18.2806 39.1235 17.2782 37.3175 19.1847 36.4347Z" fill="#B271BC"/>
<path d="M32.3395 5.56836C32.5021 5.57572 32.8552 5.58332 32.996 5.61332L33.0705 5.60442C33.0889 5.616 33.1074 5.62743 33.1256 5.63925C33.6728 5.99476 35.9801 9.71476 36.4704 10.4822C36.8517 10.3336 37.4733 9.87702 37.903 9.67993C38.9141 9.21609 39.9616 8.88896 40.9126 8.30613C40.9936 8.21729 41.1918 8.1685 41.3143 8.12669L41.2616 7.91725C40.4497 6.97752 41.9112 5.49486 43.1391 6.92965C43.4496 7.90743 42.8999 8.71819 41.8191 8.36697C41.7832 9.03427 40.4733 14.1312 40.2143 14.4898C38.6118 16.1316 39.0004 15.5077 36.8822 15.1401C35.0772 14.8378 32.8278 14.604 31.0182 14.6939C30.0207 14.7436 28.8626 14.9448 27.8433 15.0489C27.1676 15.1505 26.6326 15.2535 25.9657 15.4037C25.6299 15.0784 25.4296 14.8688 25.129 14.5102C25.067 14.4212 25.0098 14.1185 24.9811 13.9963C24.8273 12.9882 24.0477 9.76593 23.7212 8.8328C23.7276 8.64124 23.7457 8.46164 23.7638 8.27146C23.9492 8.05825 23.939 8.11549 24.2627 8.02872C25.6111 8.96215 27.3169 9.47448 28.7234 10.4535C28.9872 9.99432 29.0789 9.82631 29.4394 9.43044L30.951 7.41635C31.2714 6.87265 31.5861 6.38817 31.9986 5.91029C32.0323 5.86457 32.283 5.62436 32.3395 5.56836Z" fill="#FBCE5D"/>
<path d="M27.0496 13.7212C27.2776 13.733 29.4955 13.4322 29.9558 13.3799C32.0716 13.1392 33.2766 13.2826 35.3181 13.4294C35.7085 13.4076 35.9691 13.4129 36.3379 13.2685C36.7507 13.2952 37.1855 13.3389 37.5948 13.2951C37.7534 13.3921 38.1204 13.6015 38.2545 13.7007C38.0425 13.8327 38.1091 13.7567 38.0083 13.9928C38.3091 14.0979 38.7859 14.2811 39.0811 14.3535C39.4756 14.4519 39.5916 14.4962 39.932 14.3106L40.2144 14.4883C38.6119 16.1301 39.0005 15.5062 36.8823 15.1386C35.0773 14.8363 32.8279 14.6026 31.0183 14.6925C30.0208 14.7421 28.8627 14.9433 27.8434 15.0474C27.1677 15.149 26.6327 15.2521 25.9658 15.4022C25.63 15.077 25.4297 14.8673 25.1292 14.5087C25.212 14.3674 25.6005 14.242 25.777 14.1706C26.1414 14.0618 26.7426 13.91 27.0496 13.7212Z" fill="#FEE7A3"/>
<path d="M39.932 14.3115L40.2144 14.4893C38.6119 16.1311 39.0005 15.5072 36.8823 15.1395C37.3504 15.0829 38.008 14.7569 38.5572 14.7823C38.7849 14.7928 38.9431 14.6831 39.1005 14.5292L39.0811 14.3545C39.4756 14.4528 39.5916 14.4972 39.932 14.3115Z" fill="#ECA92A"/>
<path d="M25.1292 14.51C25.212 14.3687 25.6005 14.2432 25.777 14.1719C26.5375 14.709 26.9065 14.1054 27.1351 14.7135C27.2216 14.9437 27.0616 14.8053 27.3055 15.0116C27.5389 15.0488 27.6099 15.0517 27.8434 15.0487C27.1677 15.1503 26.6327 15.2533 25.9658 15.4034C25.63 15.0782 25.4297 14.8686 25.1292 14.51Z" fill="#FBCE5D"/>
<path d="M36.3381 13.2695C36.7509 13.2962 37.1858 13.3399 37.5951 13.2962C37.7536 13.3931 38.1206 13.6026 38.2548 13.7018C38.0428 13.8337 38.1093 13.7577 38.0086 13.9938C37.1673 13.7284 36.1946 13.58 35.3184 13.4304C35.7088 13.4086 35.9693 13.4139 36.3381 13.2695Z" fill="#E4671B"/>
<path d="M41.2617 7.91471C40.4498 6.97499 41.9113 5.49233 43.1392 6.92711C43.4497 7.90489 42.9 8.71565 41.8191 8.36443C41.7832 9.03173 40.4734 14.1287 40.2144 14.4873L39.9319 14.3095C39.5915 14.4952 39.4755 14.4508 39.0811 14.3525C38.7858 14.28 38.3091 14.0968 38.0083 13.9917C38.109 13.7556 38.0425 13.8316 38.2545 13.6997L38.5064 13.7343C38.7574 13.3449 38.9974 12.9486 39.226 12.5457C39.7263 11.6506 40.7579 9.69511 41.0046 8.62673C40.9678 8.49723 40.9372 8.38952 40.9127 8.3036C40.9937 8.21476 41.1919 8.16596 41.3143 8.12415L41.2617 7.91471Z" fill="#ECA92A"/>
<path d="M41.2617 7.91471C40.4498 6.97499 41.9113 5.49233 43.1392 6.92711C42.6767 7.61773 41.9564 7.70465 41.2617 7.91471Z" fill="#FEE7A3"/>
<path d="M38.2545 13.7012L38.5064 13.7359C38.9189 14.0872 39.4805 14.0898 39.9319 14.311C39.5915 14.4967 39.4755 14.4523 39.0811 14.354C38.7858 14.2815 38.3091 14.0983 38.0083 13.9932C38.109 13.7571 38.0425 13.8331 38.2545 13.7012Z" fill="#A45714"/>
<path d="M32.7135 9.61426C33.2147 10.1595 33.4853 10.558 33.8723 11.1957C33.5531 11.7849 33.2585 12.4395 32.6185 12.7359L32.5085 12.7031C31.8758 12.2373 31.6636 11.8821 31.3447 11.155C31.7578 10.6855 32.2851 10.0488 32.7135 9.61426Z" fill="#68274E"/>
<path d="M32.5083 12.7031L32.6184 12.736C32.9658 13.1058 35.5815 13.0919 36.3377 13.2692C35.969 13.4135 35.7084 13.4082 35.318 13.43C33.2765 13.2833 32.0714 13.1399 29.9557 13.3805C29.4954 13.4329 27.2775 13.7337 27.0494 13.7219L27.0369 13.6349L27.2735 13.4425C28.0019 13.0068 31.6852 13.1174 32.5083 12.7031Z" fill="#F18D1C"/>
<path d="M26.8437 13.4805C26.7962 13.4116 26.5593 12.8356 26.5274 12.7444C26.3065 12.114 25.192 10.2905 25.4275 9.68443C25.5557 9.65973 25.5512 9.63564 25.6645 9.71934C27.1218 10.7962 26.9221 12.1059 27.2592 13.3889L27.2736 13.4423L27.0369 13.6347L26.8437 13.4805Z" fill="#FDF8DE"/>
<path d="M29.4395 9.4301L30.951 7.41602C31.1233 7.67164 31.1549 7.69174 31.4432 7.80344C31.093 8.2992 30.1561 9.79053 29.4395 9.4301Z" fill="#FEE7A3"/>
<path d="M31.9988 5.91016C32.4572 6.36487 31.9014 7.46946 31.4433 7.80364C31.155 7.69194 31.1235 7.67184 30.9512 7.41622C31.2715 6.87251 31.5863 6.38804 31.9988 5.91016Z" fill="#FEE7A3"/>
<path d="M26.8438 13.4805L27.037 13.6346L27.0496 13.7216C26.7427 13.9104 26.1414 14.0622 25.7771 14.171C25.6005 14.2424 25.212 14.3678 25.1292 14.5091C25.0671 14.4201 25.0099 14.1175 24.9812 13.9952C25.7642 13.905 26.1243 13.7677 26.8438 13.4805Z" fill="#A45714"/>
<path d="M42.0603 44.1282C42.5218 43.239 43.3515 42.6338 44.2226 42.2745C44.961 41.97 45.8723 41.8201 46.3779 42.1278C46.4605 42.178 47.2034 41.1636 47.4718 40.9918C47.9726 40.671 48.7471 40.8087 49.2232 40.583C49.2168 40.2755 49.0072 40.4538 48.7915 40.0888C49.1151 39.6564 49.2972 39.3671 49.5719 38.9014C49.996 39.3825 50.3185 39.6756 50.799 40.1062C50.8655 40.5087 50.8638 40.8873 50.8728 41.2934C50.7284 41.4954 50.5021 41.7466 50.3343 41.9348C50.3748 42.1895 50.5755 42.253 50.8404 42.4479C51.1895 42.9846 51.3578 43.3241 51.2257 43.9869C51.0899 44.6673 50.3276 45.9216 49.8841 46.4343C49.0733 46.6653 48.7392 47.095 48.1726 47.6677C47.3961 48.4523 46.6257 48.1723 45.6544 48.0767C45.4986 48.0614 45.0169 48.8274 44.8338 48.9074C43.9435 49.6036 42.4584 50.0452 41.4158 49.4627C41.3234 49.4108 41.2326 49.3559 41.1436 49.2981C40.327 50.413 40.2175 50.3837 38.8386 50.3369L38.1232 49.8051C36.8645 51.1301 35.5204 50.9794 33.9418 50.356C33.9487 50.144 33.9521 49.6745 33.9904 49.489C33.9982 48.5555 33.3852 47.9676 32.6982 47.442C33.941 46.4602 34.3927 45.2702 36.3397 45.0511C36.5781 44.8963 37.3962 45.3071 37.5513 45.1479C39.0287 43.6298 40.0959 43.3945 42.0603 44.1282Z" fill="white"/>
<path d="M50.84 42.4473C51.1892 42.9839 51.3575 43.3235 51.2253 43.9862C51.0895 44.6667 50.3272 45.921 49.8837 46.4337C49.073 46.6646 48.7389 47.0944 48.1722 47.667C47.3957 48.4516 46.6253 48.1716 45.654 48.0761C45.4983 48.0608 45.0166 48.8268 44.8334 48.9067C43.9432 49.6029 42.4581 50.0445 41.4155 49.4621C41.323 49.4101 41.2323 49.3552 41.1433 49.2975C40.3266 50.4123 40.2171 50.3831 38.8383 50.3363L38.1228 49.8044C36.8641 51.1294 35.52 50.9787 33.9414 50.3554C33.9483 50.1434 33.9517 49.6738 33.99 49.4883C35.0046 50.1058 42.1074 48.7308 43.3858 48.2205C45.5501 47.3566 47.686 46.8343 49.3429 45.1006C50.3238 44.0742 50.1647 43.014 50.84 42.4473Z" fill="#DFDEE5"/>
<path d="M38.2921 47.0463C38.512 47.002 38.6254 47.0338 38.7953 47.1573C38.8066 47.858 37.8723 47.921 37.3527 47.9704C37.0524 47.8888 36.8221 47.8859 36.7588 47.5614C36.9842 47.2414 37.8968 47.1253 38.2921 47.0463Z" fill="black"/>
<path d="M47.8418 43.9365C48.0824 44.0264 48.1311 44.1042 48.2953 44.292C48.3852 44.9616 47.4925 45.0997 47.0042 45.1843C46.7494 45.1741 46.73 45.215 46.5449 45.0819C46.591 44.7151 47.4418 44.258 47.8418 43.9365Z" fill="black"/>
<path d="M43.4244 45.865C43.5833 45.8576 43.6514 45.9067 43.801 45.9749C43.8535 46.1531 43.8471 46.0829 43.7595 46.2897C43.3122 46.6674 43.0714 46.7156 42.5203 46.8665L42.3184 46.787C42.0956 46.3668 43.107 46.0123 43.4244 45.865Z" fill="black"/>
<path d="M14.3048 45.6493C14.0224 45.7053 13.8909 45.696 13.6609 45.5274C12.4716 44.6577 12.4289 43.7113 13.4356 42.6671C13.5769 42.5206 13.7064 42.3492 13.6332 42.1494C13.0721 40.6172 12.8885 40.1127 14.6109 39.0723C14.89 39.4169 15.6266 40.25 15.7473 40.6244C15.6858 40.7997 15.649 40.8685 15.5583 41.0313C15.8449 41.5391 16.9286 41.2129 17.2976 41.6201C17.4643 41.8041 17.3229 41.9804 17.596 42.0775C17.9393 41.7918 17.9239 41.7952 18.3774 41.841C19.5307 41.9574 20.8719 42.9002 21.4298 43.9191C23.1135 43.3877 24.7562 43.4899 25.5732 45.3091C26.5379 45.1177 27.1301 45.0672 28.0258 45.6081C28.7243 46.0299 29.1991 46.9934 29.6868 47.3878C27.8886 48.6895 28.7356 49.9443 28.419 50.375C27.2403 51.0491 25.1406 50.497 23.9958 49.9293C23.7405 49.8027 23.5574 49.364 23.2965 49.2912C22.9568 49.7577 22.6747 49.8418 22.0943 49.8333C20.9518 49.8166 19.661 49.4872 18.7711 48.7469C18.4738 48.4996 18.3892 47.9892 18.1413 47.7672C16.8283 48.3356 15.1313 47.7963 14.3193 46.5802C14.2517 46.4789 14.3964 45.9316 14.3048 45.6493Z" fill="white"/>
<path d="M18.1746 47.7347C18.2394 47.7355 18.7095 47.719 18.7052 47.7168C20.9343 48.866 23.1463 48.9753 25.5788 49.2537C26.1827 49.3228 26.7547 49.4646 27.3985 49.5019C26.8528 49.7804 24.1191 48.8723 23.6264 49.2101C23.5774 49.9162 26.1332 50.5103 26.7138 50.5688C27.2016 50.6178 27.9686 50.3168 28.4186 50.3763C27.2399 51.0504 25.1402 50.4983 23.9954 49.9306C23.7401 49.804 23.557 49.3653 23.2961 49.2925C22.9564 49.759 22.6743 49.8431 22.0939 49.8346C20.9514 49.8179 19.6606 49.4885 18.7707 48.7482C18.4734 48.5009 18.3888 47.9905 18.1409 47.7685L18.1746 47.7347Z" fill="#DFDEE5"/>
<path d="M14.3043 45.6502L14.4207 45.5752C15.076 45.847 15.6194 46.5165 16.2355 46.8659C16.7683 47.1681 17.9193 47.0823 18.1745 47.7344L18.1408 47.7681C16.8277 48.3365 15.1308 47.7972 14.3187 46.5811C14.2511 46.4798 14.3958 45.9325 14.3043 45.6502Z" fill="#DFDEE5"/>
<path d="M22.7403 46.4014C23.1839 46.428 24.1791 46.7978 24.4597 47.1385C24.4872 47.3911 24.5117 47.2872 24.3296 47.5294C23.8636 47.4744 22.7228 47.3275 22.5317 46.8794C22.5316 46.6605 22.6157 46.5768 22.7403 46.4014Z" fill="black"/>
<path d="M16.3886 44.3243C16.8783 44.319 17.9354 44.8751 18.0431 45.3366L17.9208 45.4954C17.4505 45.499 16.4873 45.2534 16.2521 44.7985C16.2486 44.499 16.2379 44.5995 16.3886 44.3243Z" fill="black"/>
<path d="M13.2905 44.0059C13.4705 44.0922 13.8414 44.7814 13.8338 45.009C13.4617 44.9531 13.2828 44.3458 13.2905 44.0059Z" fill="#DFDEE5"/>
<path d="M53.6747 36.7793C56.4363 37.5479 58.0802 39.2058 59.7936 41.3727C58.847 41.1282 58.235 40.9637 57.2508 41.1855C55.4333 41.6076 54.5989 42.4386 53.5996 43.945C53.9673 41.7046 53.5906 39.0829 53.6747 36.7793Z" fill="#8A69B8"/>
<path d="M10.2531 36.417C10.3054 36.4278 10.4332 36.4774 10.4903 36.4976C10.6257 36.8899 10.6084 37.8887 10.7007 38.3584C10.9677 39.7179 11.3002 41.2611 11.7318 42.5675C10.5235 41.4993 9.70166 41.386 8.15088 41.0958C7.41745 41.1531 6.47773 41.4256 5.771 41.6313C6.2142 39.692 8.63275 37.4512 10.2531 36.417Z" fill="#8A69B8"/>
<path d="M30.3745 47.6728C30.6492 47.5695 30.9357 47.4538 31.2192 47.3838C31.655 47.4704 31.9556 47.5072 32.337 47.7529C32.7608 48.1033 33.0075 48.4876 33.2826 48.9585C33.4475 49.5656 33.4512 50.1906 33.1287 50.7501C32.8397 51.2421 32.3629 51.5952 31.8081 51.728C30.6863 52.0073 29.8493 51.5032 29.1378 50.697C28.9163 50.1485 28.9172 49.6342 29.0183 49.062C29.1194 48.5745 29.4143 48.3069 29.7843 48.0126C29.9248 47.916 30.2145 47.7629 30.3745 47.6728Z" fill="#FBCE5D"/>
<path d="M30.3745 47.6719C30.9513 47.7592 31.9816 48.0874 32.0956 48.7341C32.0087 49.1269 31.7832 49.2791 31.4454 49.4594L31.239 49.3103C30.7828 49.5254 30.6287 50.8189 29.3826 49.7808L29.378 49.8315C29.1027 49.6236 29.0941 49.4064 29.0183 49.0611C29.1193 48.5735 29.4143 48.306 29.7843 48.0117C29.9248 47.9151 30.2145 47.762 30.3745 47.6719Z" fill="#FEE7A3"/>
<path d="M29.9992 49.0439C29.9976 48.5424 29.9482 48.1756 30.5359 48.0811C31.1128 48.2692 31.1132 48.7302 31.0416 49.233C30.9021 49.3926 30.8797 49.4307 30.6778 49.4845C30.4443 49.4712 30.1873 49.2051 29.9992 49.0439Z" fill="white"/>
<path d="M33.2828 48.957C33.4477 49.5641 33.4514 50.1891 33.1288 50.7486C32.8399 51.2406 32.3631 51.5938 31.8083 51.7266C30.6865 52.0058 29.8495 51.5017 29.1379 50.6955C29.381 50.6791 29.631 50.7557 29.8797 50.8023C30.7667 50.9684 31.8069 50.9279 32.5119 50.2918C32.8065 50.0259 33.2576 49.3619 33.2828 48.957Z" fill="#DA8B1B"/>
<path d="M52.7751 34.8203C53.0159 34.8434 53.262 34.9018 53.4967 34.9598C56.4178 35.6817 58.0004 37.5268 59.4816 40.0273C58.8985 39.6069 58.1914 38.8459 57.5996 38.3728C57.0465 37.9306 56.5278 37.6257 55.925 37.2616C55.3863 36.9134 53.8755 36.0836 53.3222 36.5979C53.2047 36.9684 53.2522 37.6052 53.2604 38.0146C52.9651 37.8231 52.6631 37.561 52.3881 37.3354C52.0441 37.7641 51.0582 39.2478 50.4937 39.1016L50.4109 38.9414C50.4653 38.4772 51.1337 37.9764 51.4696 37.6108C52.0482 36.9812 52.2523 35.2403 52.7751 34.8203Z" fill="#4C2E78"/>
<path d="M52.3721 37.7871L52.5706 37.9059C53.3823 39.1228 53.2076 42.7674 53.1985 44.3399C52.8077 44.128 52.3469 43.9319 51.9385 43.7464C51.6962 42.8184 51.5862 42.632 51.075 41.831C51.6454 40.9984 51.7287 40.3745 51.009 39.6505C51.5804 39.1698 51.9398 38.4282 52.3721 37.7871Z" fill="#8A69B8"/>
<path d="M10.4859 34.2109C10.5764 34.2128 10.95 34.2053 10.9777 34.2417C11.5824 35.0582 11.7827 36.1203 12.4426 36.9531C12.7323 37.3189 14.1341 38.1942 14.1801 38.5488C13.6494 38.6018 12.579 37.493 12.0208 37.2323C11.4945 36.9865 11.7038 36.9483 11.1398 37.0879C10.897 36.9614 10.7257 36.2866 10.6 35.9496C10.2363 36.0597 10.084 36.1314 9.74076 36.3008C8.79735 36.8388 7.94448 37.5225 7.23345 38.3527C6.98657 38.641 6.58625 39.3038 6.33638 39.4967L6.27002 39.4181C6.30838 38.9052 6.60574 38.5461 6.82876 38.1103C7.6119 36.58 9.04654 35.1322 10.4859 34.2109Z" fill="#4C2E78"/>
<path d="M11.3722 37.4082C12.1223 37.6493 13.0205 38.5871 13.6235 39.1439C12.3632 40.3663 12.5261 40.4228 12.7898 42.1347C12.753 42.4061 12.614 43.0035 12.3244 43.0662C11.5929 42.5693 11.3657 38.3562 11.3722 37.4082Z" fill="#8A69B8"/>
<path d="M32.8015 2.94824C33.3475 3.15369 33.5619 3.22358 33.9741 3.66203C34.1057 3.98271 34.2563 4.3963 34.1642 4.74974C34.027 5.2758 33.2964 5.38996 33.0705 5.60278L32.996 5.61167C32.8552 5.58168 32.5021 5.57408 32.3395 5.56672C31.3988 5.21489 31.0445 4.31659 31.7543 3.53621C32.1481 3.184 32.2951 3.10168 32.8015 2.94824Z" fill="#F9BB42"/>
<path d="M31.7544 3.53621C32.1482 3.184 32.2952 3.10168 32.8015 2.94824C33.2081 3.95985 33.301 4.10408 32.4487 4.88385C31.959 4.32457 31.8226 4.26603 31.7544 3.53621Z" fill="#FEEFC1"/>
<path d="M33.9742 3.66309C34.1058 3.98377 34.2564 4.39736 34.1643 4.7508C34.0271 5.27686 33.2964 5.39101 33.0706 5.60383L32.9961 5.61273C33.1535 4.75387 34.0103 4.69426 33.9742 3.66309Z" fill="#ECA92A"/>
<path d="M23.4314 6.07227C24.5172 6.07518 25.0074 7.1741 24.2629 8.0272C23.9392 8.11397 23.9494 8.05674 23.7641 8.26994C23.746 8.46013 23.7278 8.63972 23.7214 8.83129L23.6513 8.51291C23.1657 7.87553 22.2266 8.44356 22.3696 7.01598C22.7106 6.46192 22.8728 6.38643 23.4314 6.07227Z" fill="#FEE7A3"/>
<path d="M23.4314 6.07227C24.5172 6.07518 25.0074 7.1741 24.2629 8.0272C23.9392 8.11397 23.9494 8.05674 23.764 8.26994C23.7459 8.46013 23.7278 8.63972 23.7214 8.83129L23.6513 8.51291C23.7187 8.19269 23.6401 7.84699 23.59 7.51987C23.823 7.02634 23.9706 6.4155 23.4314 6.07227Z" fill="#F9BB42"/>
<path d="M22.3696 7.0166C22.5792 7.56744 23.071 7.64155 23.5901 7.52049C23.6402 7.84761 23.7187 8.19331 23.6513 8.51353C23.1657 7.87615 22.2266 8.44418 22.3696 7.0166Z" fill="#ECA92A"/>
<path d="M62.192 21.0004L62.3284 21.0941L62.3526 21.248L63.1095 20.9092C63.5085 21.9026 63.7141 22.8623 64.0147 23.8754C65.512 28.9225 65.639 34.2597 64.7788 39.4321C64.4846 41.2012 63.8669 42.7559 63.5291 44.3505C63.4535 44.9196 63.0566 46.0023 62.7753 46.4958C62.419 47.4467 61.963 48.3853 61.5343 49.3076C60.9279 50.606 60.1653 51.6017 59.5558 52.7871C59.2928 53.3161 59.1375 53.534 58.7877 54.0144L58.8608 53.4346L58.7752 53.328L58.3277 53.426L58.2786 53.4663C57.998 53.6992 57.7633 54.0697 57.5136 54.1491L57.3766 54.0998C57.3939 54.037 57.4076 53.9835 57.4216 53.9193L57.4377 53.8426C57.553 53.3163 57.2112 52.3273 57.0533 51.7909C56.9143 51.319 56.6713 51.1371 56.2642 50.8999C56.4886 49.5664 57.6472 48.9168 57.6591 47.9378C57.6242 47.6863 59.1439 45.533 59.0932 44.581C59.7282 43.7687 59.593 42.9363 59.9694 41.9478C60.7701 41.3598 60.5114 41.123 60.1414 40.3237C59.9751 39.9457 59.7925 39.5767 59.612 39.2054C60.2934 39.0035 60.3573 37.5361 60.4184 36.9303C60.8087 33.0604 60.5284 29.268 59.623 25.4871C59.4235 24.6537 58.3942 22.4091 58.8155 21.8135L59.014 22.0293C59.6407 21.1359 61.1238 21.2466 62.1271 21.1315L62.192 21.0004Z" fill="#FEEFC1"/>
<path d="M63.1097 20.9092C63.5087 21.9026 63.7143 22.8623 64.0149 23.8754C65.5122 28.9225 65.6392 34.2597 64.779 39.4321C64.4848 41.2012 63.867 42.7559 63.5293 44.3505L63.3388 44.4502C63.133 44.3872 62.986 44.3706 62.8558 44.2074C62.9701 43.6131 63.2793 42.8267 63.4284 42.2124C64.7613 36.7198 65.057 31.477 63.7991 25.9459C63.4245 24.2989 63.2413 22.7922 62.3528 21.248L63.1097 20.9092Z" fill="#ECA92A"/>
<path d="M58.8156 21.8154L59.0141 22.0312C59.5823 23.0349 59.7228 23.9213 60.066 24.9963C61.385 29.1283 61.5468 33.5779 60.8267 37.8393C60.7129 38.5124 60.744 39.9965 60.1416 40.3256C59.9752 39.9476 59.7927 39.5786 59.6121 39.2073C60.2935 39.0054 60.3575 37.5379 60.4185 36.9322C60.8089 33.0623 60.5285 29.2699 59.6232 25.489C59.4236 24.6555 58.3944 22.411 58.8156 21.8154Z" fill="#FBCE5D"/>
<path d="M61.0696 49.2207L61.5345 49.3085C60.9281 50.6068 60.1655 51.6025 59.5561 52.788C59.2931 53.3169 59.1377 53.5348 58.7879 54.0152L58.861 53.4355L58.7754 53.3288L58.3279 53.4268L58.38 53.3271C58.46 53.0078 60.7026 49.7096 61.0696 49.2207Z" fill="#FEE7A3"/>
<path d="M58.3802 53.3267C58.8054 53.1396 59.086 52.6336 59.5563 52.7875C59.2933 53.3165 59.138 53.5344 58.7881 54.0148L58.8612 53.435L58.7756 53.3284L58.3281 53.4263L58.3802 53.3267Z" fill="#F9BB42"/>
<path d="M62.1321 46.0176C62.3472 46.1428 62.6662 46.2902 62.7752 46.4954C62.419 47.4463 61.963 48.385 61.5342 49.3073L61.0693 49.2195C61.2011 48.1317 61.7142 47.0375 62.1321 46.0176Z" fill="#F9BB42"/>
<path d="M63.5292 44.3506C63.4536 44.9197 63.0567 46.0024 62.7754 46.4959C62.6664 46.2907 62.3474 46.1433 62.1323 46.0181C62.5589 45.0375 62.8235 45.2796 63.3388 44.4503L63.5292 44.3506Z" fill="#FEE7A3"/>
</svg>
