<svg width="60" height="60" viewBox="0 0 60 60" fill="none" xmlns="http://www.w3.org/2000/svg">
<path d="M29.0424 0.0321356C29.1114 0.025106 29.1805 0.0195728 29.2497 0.0155487C30.5514 -0.0558616 32.3568 0.132186 33.6554 0.304946C39.5495 1.08906 44.9257 3.37268 49.3717 7.22801C55.8552 12.8502 59.4395 20.8066 59.9551 29.1369C60.4012 36.3451 57.497 44.7449 52.4785 50.1215C46.972 56.0344 39.2395 59.5774 31.0056 59.9603C30.9495 59.9658 30.8933 59.9701 30.837 59.9731C23.4701 60.3163 15.3903 57.3538 9.92467 52.6033C3.98857 47.3418 0.437798 40.0409 0.0393172 32.2772C-0.387722 23.7769 2.67751 15.4568 8.57083 9.11969C13.9566 3.37567 21.0849 0.417674 29.0424 0.0321356Z" fill="#FDEBC0"/>
<path d="M30.1475 32.1973C29.7083 31.358 29.2428 30.9565 28.4833 30.384C28.2392 30.2001 27.9843 30.0692 27.7787 29.845C28.7326 29.3279 29.4935 28.7207 29.8439 27.6306C30.0875 26.8733 29.9229 25.9231 29.9875 25.1508C30.026 25.6168 29.98 26.7606 30.2108 26.9939C30.5072 26.6808 30.2819 20.1644 30.3712 19.092C30.4304 19.5458 30.4175 20.5481 30.4202 21.0211L30.4034 25.2881C30.4055 27.6439 30.3307 28.4277 32.4422 29.841L32.3335 29.8648L32.4891 29.9626C32.4183 30.2197 32.4116 30.2764 32.237 30.476L32.0639 30.5918C31.5524 30.3416 30.9726 30.9962 30.6639 31.3516C30.402 31.6271 30.3103 31.8597 30.1475 32.1973Z" fill="#FEDC98"/>
<path d="M47.3297 30.5821C47.51 30.7101 47.6982 30.8005 47.7832 30.9812C47.5279 31.3245 45.2192 30.703 44.6222 30.6391C41.2285 30.5222 37.8086 30.5949 34.4134 30.6116C33.8218 30.6145 33.3695 30.3372 32.7083 30.314C33.1286 30.2528 32.9742 30.2194 33.2995 30.05L41.4159 30.0452C42.6571 30.0431 45.0368 30.0869 46.2522 29.9456C46.0697 30.0292 46.1134 29.9803 46.0092 30.1303C46.1288 30.2643 46.2927 30.2659 46.4806 30.3C46.7384 30.3817 47.0889 30.5769 47.3297 30.5821Z" fill="#FEDC98"/>
<path d="M47.3297 30.5821C47.51 30.7101 47.6982 30.8005 47.7832 30.9812C47.5279 31.3245 45.2193 30.703 44.6222 30.6391C45.6485 30.6704 45.7738 30.343 46.4806 30.3C46.7384 30.3817 47.0889 30.5769 47.3297 30.5821Z" fill="#FEF6E5"/>
<path d="M32.2377 30.4756C32.4123 30.2759 32.4191 30.2192 32.4898 29.9621L32.3342 29.8643L32.4429 29.8405C32.7474 29.9305 32.9923 29.986 33.3 30.0515C32.9747 30.2209 33.1291 30.2543 32.7088 30.3154L32.2377 30.4756Z" fill="#FFCF75"/>
<path d="M30.0059 46.0053C29.6639 46.2799 29.4183 47.1642 28.7536 47.7357C28.3553 48.0793 27.8718 48.3093 27.3539 48.4013C26.4966 48.5528 25.5073 48.5172 24.6277 48.5201L21.0727 48.5268L16.9011 48.5239C14.7953 48.5202 13.3548 48.8133 11.8504 47.0504L11.6119 47.1357C11.1022 46.8741 10.8261 45.6963 10.8171 45.1491C10.7558 41.4569 10.8608 37.7442 10.8098 34.0549C10.8098 33.6956 10.7917 33.406 10.8098 33.0588C10.8743 31.8257 11.4498 30.6392 12.0717 30.2866C12.3142 30.2233 12.7257 30.145 12.9094 29.9978C12.8908 30.0125 13.2326 29.8751 13.36 29.8751C13.7207 29.8751 13.5786 29.8824 14.1435 30.0289C15.9581 30.0882 17.6887 30.0281 19.4895 30.0417C22.0037 30.0608 24.4561 30.0591 26.971 30.0164C27.2047 29.9678 27.558 29.9062 27.7785 29.8442C27.9841 30.0684 28.239 30.1992 28.483 30.3832C29.2425 30.9557 29.708 31.3572 30.1472 32.1964C30.3101 31.8588 30.4017 31.6263 30.6636 31.3508C30.9723 30.9954 31.5522 30.3407 32.0637 30.5909C31.6013 30.8143 31.1036 31.2815 30.8286 31.7136C30.5973 32.0699 30.4523 32.4753 30.4053 32.8975C30.3232 33.6754 30.3777 34.7254 30.3848 35.5214C30.4139 38.7968 30.2989 42.075 30.4165 45.3489C30.4306 45.74 30.678 46.4693 30.7728 46.8929L30.7095 46.8934L30.54 46.5626L30.4633 46.5704C30.3762 46.8914 30.7312 46.9669 30.7178 47.233C30.4122 46.9169 30.1854 46.4073 30.0059 46.0053Z" fill="#FEF6E5"/>
<path d="M48.4034 45.991C47.9669 46.671 47.9425 46.7584 47.3047 47.3142C46.9225 47.6485 46.4586 47.8721 45.9617 47.9616C45.1392 48.109 44.19 48.0743 43.346 48.0771L39.9352 48.0836L35.9326 48.0808C33.9122 48.0772 32.3979 48.2499 30.9309 46.8581C30.8323 46.7647 30.7708 46.7173 30.6865 46.6104C30.1978 45.9912 30.1039 45.3307 30.0952 44.7985C30.0365 41.2075 30.1371 37.5966 30.0883 34.0085C30.0253 33.7045 30.0449 33.3959 30.0449 33.1438C30.0449 31.9952 30.1909 31.0993 31.299 30.3435C31.4197 30.2612 31.778 30.1324 32.1027 30.0625C32.5424 29.968 33.2524 30.0135 33.2524 30.0135C34.9935 30.0712 36.6564 30.0002 38.3842 30.0135C40.7966 30.032 42.6607 30.0135 45.5932 30.0135C45.8807 30.0135 46.0234 30.0169 46.3263 30.0807C46.6517 30.1493 46.8109 30.2585 47.0451 30.4374C47.7738 30.9942 48.2204 31.3847 48.6418 32.2009C48.6418 32.2009 48.8895 32.4906 48.8895 32.8828C48.8895 33.9769 48.863 34.6606 48.8697 35.4348C48.8977 38.6204 48.8695 40.5753 48.8697 43.7615C48.8697 44.0165 48.6419 45.6194 48.4034 45.991Z" fill="#FEF6E5"/>
<path d="M48.2522 31.3564C47.3418 29.9228 46.3789 29.9961 45.6345 29.9863L45.9601 30.2571C46.9725 30.2439 47.4683 30.8763 48.1249 31.7385C48.4972 32.2273 48.9675 34.1017 48.889 33.394C48.7617 32.2479 48.6071 31.9153 48.2522 31.3564Z" fill="#FFD17D"/>
<path d="M12.231 47.6643C10.7239 46.5933 10.8272 45.6991 10.8181 45.1518C10.7569 41.4596 10.8109 38.3902 10.8109 34.0577C10.8109 33.6983 10.7927 33.2814 10.8109 32.9342C10.8753 31.701 11.0833 31.1219 11.9601 30.3873C12.2082 30.1794 12.527 30.1252 12.8515 30.0052C12.9781 29.9584 13.2336 29.8779 13.2336 29.8779C13.2336 29.8779 11.578 28.8591 11.7054 28.4771C11.7954 28.2069 12.9412 29.55 12.9412 29.55C13.4655 29.8433 13.5796 29.8852 14.1445 30.0317C14.2388 30.1361 14.2119 30.0882 14.2242 30.2495C14.0964 30.3377 13.8286 30.3085 13.6023 30.3503L13.5601 30.3585C12.897 30.6752 12.5186 30.829 12.0922 31.3828C11.8458 31.7029 11.7388 31.9769 11.6132 32.2995C11.3196 33.0533 11.4507 40.1896 11.4507 45.4143C11.4507 46.2056 12.0779 47.187 12.4695 47.579C12.5968 47.7065 13.7581 48.3749 13.3609 48.2159C12.7242 47.9611 12.4695 47.8338 12.231 47.6643Z" fill="#FFD17D"/>
<path d="M33.099 30.0019C34.0595 30.0019 31.9529 30.0738 31.0615 31.0204C30.8302 31.3766 30.4525 32.4746 30.4055 32.8968C30.3234 33.6747 30.3779 34.7248 30.385 35.5207C30.4141 38.7961 30.4167 42.0996 30.4167 45.3482C30.4167 46.6844 32.0803 48.2122 31.3162 47.5756C30.7025 47.0642 30.334 46.7275 30.17 46.175C30.0061 45.6226 29.9987 43.4337 30.0027 42.2029L29.9918 36.7204C29.9898 35.7535 30.0324 33.6859 29.9063 32.8034C29.497 31.7078 29.0944 30.9723 27.9512 30.4462C27.8314 30.3917 27.7095 30.3423 27.5855 30.2979C27.3333 30.2669 27.0964 30.2894 26.9554 30.1353L26.9712 30.0157C27.2049 29.9672 27.4348 29.8089 27.7504 29.8745C28.0661 29.9402 28.6525 30.2622 28.8966 30.4462C29.5333 31.0416 29.9154 31.5301 30.0427 31.9121C30.2056 31.5745 30.4176 31.0415 30.6794 30.766C31.1548 30.2908 31.8355 29.9425 32.335 29.8745C32.6383 29.8333 32.714 30.0019 33.099 30.0019Z" fill="#FFCF75"/>
<path d="M46.6876 30.2995C46.7267 30.2771 45.6561 30.2657 45.7074 30.2651C44.5714 30.2768 43.031 30.238 41.9267 30.2499C40.0108 30.275 38.0947 30.2801 36.1787 30.265C35.405 30.2658 34.6324 30.285 33.863 30.2999C33.5408 30.3061 33.2458 30.284 32.689 30.3568L32.6613 30.3566L32.5746 30.3566C32.4472 30.3566 32.0801 30.3852 32.3348 30.2578C32.6628 30.0938 32.9558 30.0157 33.23 30.0157C35.0091 30.0032 36.774 29.9895 38.5748 30.0032C41.1218 30.0032 43.5414 30.0032 46.0575 30.0032V30.1369C46.1985 30.291 46.4354 30.2685 46.6876 30.2995Z" fill="#FFD17D"/>
<path d="M27.8404 30.2995C27.8795 30.2771 26.8088 30.2657 26.8602 30.2651C25.7242 30.2768 24.1838 30.238 23.0795 30.2499C21.1636 30.275 19.2475 30.2801 17.3314 30.265C16.5577 30.2658 15.7851 30.285 15.0158 30.2999C14.6936 30.3061 14.3985 30.284 13.8418 30.3568L13.8141 30.3566L13.7273 30.3566C13.6 30.3566 13.2329 30.3852 13.4876 30.2578C13.8156 30.0938 14.1086 30.0157 14.3828 30.0157C16.1619 30.0032 17.9268 29.9895 19.7276 30.0032C22.2746 30.0032 24.6942 30.0032 27.2103 30.0032V30.1369C27.3512 30.291 27.5882 30.2685 27.8404 30.2995Z" fill="#FFD17D"/>
<path d="M21.3363 35.9541C21.108 35.958 20.849 35.9421 20.6826 36.1284C20.2991 36.5577 20.5321 39.9531 20.544 40.6782C20.0958 40.6729 18.493 40.5477 18.2734 40.803C17.2088 42.0404 20.0805 41.7348 20.6826 41.7272C21.5172 41.7206 22.3533 41.7595 23.1861 41.7528C23.8263 41.7476 24.4512 41.9055 24.532 41.1027C24.2942 40.4299 22.3904 40.6662 21.7711 40.6825C21.7151 39.3435 21.8026 38.0368 21.7448 36.7083C21.7272 36.3032 21.6291 36.1921 21.3363 35.9541Z" fill="#473290"/>
<path d="M26.9713 30.0185C24.4564 30.0612 22.004 30.0629 19.4898 30.0438C17.689 30.0301 15.9584 30.0902 14.1438 30.031C13.5789 29.8845 13.4648 29.8426 12.9404 29.5493C12.8199 29.4061 12.5038 29.2121 12.2539 28.9636C11.5171 28.2309 11.4729 27.2794 11.45 26.6933C11.3923 25.2266 11.4541 23.703 11.45 22.2362V16.6329C11.4542 15.2635 11.2136 14.2133 12.0867 12.9398C12.3414 12.5683 13.1475 11.9966 13.4875 11.921C14.6336 11.6663 15.6347 11.7927 15.9071 11.7937H19.2182H24.1069C25.1181 11.7937 25.999 11.7012 26.7317 11.7937C27.242 11.858 27.7505 11.8786 28.3872 12.3031C29.1513 12.8125 29.4678 13.3682 29.707 13.9007C29.707 13.9007 29.9101 14.2708 29.9155 14.3406C30.0435 15.9961 29.9928 17.3406 29.9907 18.3797L29.9875 25.152C29.9229 25.9243 30.0875 26.8745 29.844 27.6318C29.4935 28.7219 28.7327 29.3291 27.7788 29.8462C27.5583 29.9083 27.205 29.9699 26.9713 30.0185Z" fill="#FEF6E5"/>
<path d="M12.2548 28.9619C11.5327 29.1125 10.8608 27.2956 10.8379 26.7096C10.7802 25.2429 10.8318 23.7448 10.8277 22.278L10.8141 16.6381C10.8184 15.2687 10.5315 13.3483 11.7055 12.1742C12.2149 11.6649 13.1781 11.2625 14.1252 11.2625C14.8295 11.2625 15.7114 11.2615 15.9838 11.2625L19.1828 11.2765L24.0919 11.2756C25.1031 11.2757 26.1542 11.2384 27.1553 11.3647C27.6656 11.4291 28.1404 11.684 28.5579 11.9798C29.1181 12.3767 29.7611 13.1671 30.0439 13.7967C30.0656 13.845 30.0753 13.8569 30.1078 13.899C30.0813 14.1294 30.0377 14.1907 29.9315 14.3946C28.7014 11.3192 26.8408 11.7831 24.0696 11.7843L19.02 11.7876L15.6555 11.7879C14.3708 11.7895 13.5225 11.6279 12.4612 12.5504C11.2825 13.5751 11.4437 14.7212 11.4437 16.9211L11.457 21.227L11.4622 25.0294C11.4616 26.4634 11.247 27.808 12.2548 28.9619Z" fill="#FFD17D"/>
<path d="M23.6497 23.055C22.7775 23.1658 19.9111 23.5286 19.0846 23.0576C18.9268 22.9677 18.6475 22.3877 18.6496 22.2318C18.6586 21.5377 18.8045 18.8718 18.7912 18.4606C18.8534 18.2291 19.0251 18.1099 19.2146 17.9404C19.4144 17.8745 19.4551 17.8531 19.6605 17.8857C20.4587 18.2588 19.7894 21.3642 20.0829 22.2035C20.841 22.1775 25.2232 21.4226 23.6497 23.055Z" fill="#473290"/>
<path d="M37.2334 41.5202C38.1109 41.5752 40.9946 41.7547 41.7894 41.232C41.9411 41.1322 42.1829 40.5356 42.1709 40.3801C42.1177 39.688 41.8023 37.0368 41.7894 36.6257C41.7125 36.3986 41.5336 36.2905 41.3337 36.1334C41.1301 36.0804 41.0881 36.0617 40.8852 36.1072C40.1124 36.5305 40.9781 39.5869 40.7388 40.4432C39.9805 40.4656 35.5591 39.9913 37.2334 41.5202Z" fill="#473290"/>
<path d="M44.8641 46.8454C45.5368 46.5292 46.3324 46.1043 46.5645 45.3729C46.6125 45.2218 46.7076 44.949 46.8168 44.8486C46.9092 44.9171 46.8861 44.8752 46.9171 44.9744C47.2765 46.1237 47.9067 46.3935 48.8902 46.8943C47.7384 47.3245 47.2024 47.636 47.0057 48.891L46.8811 49.0209C46.774 48.901 46.6181 48.5575 46.5371 48.4049C46.0012 47.3951 45.7684 47.3786 44.8641 46.8454Z" fill="#FFCF75"/>
<path d="M43.7501 49.0088C44.2127 49.367 43.7473 49.798 44.9813 50.35C44.3908 50.769 44.1824 50.8697 43.9454 51.5587L43.9342 51.592L43.8133 51.6139C43.2956 50.8986 43.2031 50.7928 42.4242 50.4361C43.183 49.9056 43.3338 49.8337 43.7501 49.0088Z" fill="#FFCF75"/>
<path d="M28.4234 15.8404C27.7299 15.6334 27.3567 14.8459 27.6869 14.2056C28.3558 12.9242 29.5986 11.905 31.3691 11.7063C33.3134 11.4881 34.7448 12.2238 35.5476 13.2563C36.2336 14.1428 36.7724 15.8835 36.0275 17.3076C35.199 18.8834 34.2977 19.437 33.8906 20.4377C33.7916 20.6751 33.7375 20.8654 33.7297 21.2433C33.723 21.8556 33.2795 22.3829 32.6673 22.4517C31.9475 22.5324 31.2904 21.9779 31.2924 21.2488C31.2946 20.8213 31.3447 20.3716 31.5299 19.9319C32.0379 18.7104 33.1863 17.8946 33.7836 16.7971C34.4167 15.6453 33.7709 13.6987 31.6364 13.9383C30.6684 14.0469 30.0962 14.6222 29.7751 15.2698C29.5385 15.7739 28.9513 15.9906 28.4234 15.8404ZM34.6107 25.5846C34.7128 26.4947 34.0518 27.3229 33.1417 27.4251C32.2316 27.5272 31.4034 26.8662 31.3013 25.9561C31.1991 25.046 31.8602 24.2178 32.7703 24.1157C33.6804 24.0135 34.5085 24.6745 34.6107 25.5846Z" fill="#FFCF75"/>
<path d="M38.5673 13.3327C37.738 12.7708 37.573 11.5757 38.2755 10.8679C39.6919 9.4545 41.7569 8.62632 44.1771 9.10094C46.8348 9.62213 48.4183 11.1893 49.0485 12.8866C49.5851 14.3424 49.5719 16.8649 47.9957 18.4349C46.246 20.1705 44.8256 20.5261 43.8716 21.6779C43.6421 21.95 43.4915 22.1788 43.3239 22.6744C43.0602 23.48 42.2552 23.9916 41.4183 23.8275C40.4344 23.6345 39.7978 22.6289 40.1038 21.6671C40.2848 21.1037 40.538 20.5309 40.9656 20.0275C42.1447 18.6263 44.0003 18.0272 45.2457 16.8268C46.561 15.5698 46.5187 12.7311 43.6009 12.1589C42.2777 11.8994 41.2829 12.4207 40.5895 13.1421C40.0672 13.7091 39.2017 13.7507 38.5673 13.3327ZM42.6799 28.7726C42.436 30.0167 41.2185 30.8349 39.9745 30.5909C38.7305 30.347 37.9122 29.1295 38.1562 27.8855C38.4002 26.6415 39.6176 25.8232 40.8616 26.0672C42.1057 26.3111 42.9239 27.5286 42.6799 28.7726Z" fill="#FFCF75"/>
</svg>
