<svg width="42" height="42" viewBox="0 0 42 42" fill="none" xmlns="http://www.w3.org/2000/svg">
<path fill-rule="evenodd" clip-rule="evenodd" d="M9.24104 23.4131C9.44185 23.4131 9.63718 23.4786 9.79748 23.5995C9.95778 23.7205 10.0743 23.8903 10.1295 24.0834L11.1313 27.5903C11.347 28.3456 11.7516 29.0334 12.307 29.5888C12.8624 30.1442 13.5502 30.5489 14.3055 30.7646L17.8124 31.7664C18.0054 31.8216 18.1751 31.9382 18.2959 32.0985C18.4167 32.2588 18.4821 32.4541 18.4821 32.6548C18.4821 32.8555 18.4167 33.0508 18.2959 33.2111C18.1751 33.3714 18.0054 33.488 17.8124 33.5432L14.3055 34.545C13.5502 34.7607 12.8624 35.1654 12.307 35.7208C11.7516 36.2762 11.347 36.964 11.1313 37.7192L10.1295 41.2262C10.0742 41.4191 9.9576 41.5888 9.79732 41.7097C9.63703 41.8305 9.44176 41.8958 9.24104 41.8958C9.04032 41.8958 8.84505 41.8305 8.68476 41.7097C8.52448 41.5888 8.40788 41.4191 8.3526 41.2262L7.3508 37.7192C7.1351 36.964 6.73044 36.2762 6.17505 35.7208C5.61965 35.1654 4.93184 34.7607 4.17659 34.545L0.669666 33.5432C0.476705 33.488 0.306986 33.3714 0.186168 33.2111C0.0653492 33.0508 0 32.8555 0 32.6548C0 32.4541 0.0653492 32.2588 0.186168 32.0985C0.306986 31.9382 0.476705 31.8216 0.669666 31.7664L4.17659 30.7646C4.93184 30.5489 5.61965 30.1442 6.17505 29.5888C6.73044 29.0334 7.1351 28.3456 7.3508 27.5903L8.3526 24.0834C8.40776 23.8903 8.5243 23.7205 8.6846 23.5995C8.8449 23.4786 9.04023 23.4131 9.24104 23.4131Z" fill="#FFE031"/>
<path fill-rule="evenodd" clip-rule="evenodd" d="M30.1886 0C30.4429 5.24459e-05 30.6904 0.0829545 30.8934 0.236162C31.0965 0.38937 31.2441 0.604546 31.314 0.849133L32.583 5.29147C32.8562 6.24818 33.3688 7.11945 34.0724 7.82299C34.7759 8.52653 35.6472 9.03913 36.6039 9.31236L41.0462 10.5814C41.2906 10.6514 41.5056 10.7991 41.6587 11.0021C41.8117 11.2052 41.8945 11.4525 41.8945 11.7068C41.8945 11.9611 41.8117 12.2084 41.6587 12.4114C41.5056 12.6145 41.2906 12.7622 41.0462 12.8322L36.6039 14.1012C35.6472 14.3745 34.7759 14.8871 34.0724 15.5906C33.3688 16.2941 32.8562 17.1654 32.583 18.1221L31.314 22.5645C31.2439 22.8089 31.0963 23.0239 30.8932 23.1769C30.6902 23.33 30.4428 23.4127 30.1886 23.4127C29.9343 23.4127 29.6869 23.33 29.4839 23.1769C29.2809 23.0239 29.1332 22.8089 29.0631 22.5645L27.7941 18.1221C27.5209 17.1654 27.0083 16.2941 26.3048 15.5906C25.6012 14.8871 24.7299 14.3745 23.7732 14.1012L19.3309 12.8322C19.0865 12.7622 18.8715 12.6145 18.7184 12.4114C18.5654 12.2084 18.4826 11.9611 18.4826 11.7068C18.4826 11.4525 18.5654 11.2052 18.7184 11.0021C18.8715 10.7991 19.0865 10.6514 19.3309 10.5814L23.7732 9.31236C24.7299 9.03913 25.6012 8.52653 26.3048 7.82299C27.0083 7.11945 27.5209 6.24818 27.7941 5.29147L29.0631 0.849133C29.133 0.604546 29.2806 0.38937 29.4837 0.236162C29.6868 0.0829545 29.9342 5.24459e-05 30.1886 0Z" fill="#FFE031"/>
</svg>
