<svg width="65" height="70" viewBox="0 0 65 70" fill="none" xmlns="http://www.w3.org/2000/svg">
<path d="M14.5113 5.33328C16.0454 4.01191 19.5267 2.62131 21.3942 1.95748C30.1613 -1.1591 39.1542 -0.49571 47.5662 3.53056C47.8312 3.02894 48.3986 2.77701 48.8349 2.42651C49.0586 2.24678 49.4622 1.99007 49.7183 1.88687C50.1087 1.72946 50.8836 2.52985 51.0186 2.82915C50.8014 3.39812 50.6557 3.46944 51.1753 4.00713C51.9246 4.78249 51.4365 4.7961 50.9333 5.32278C51.4426 5.56197 55.3937 8.8739 55.9219 9.41665C56.2792 9.30933 56.8656 8.49611 57.881 8.09536C58.3252 8.47742 58.5279 8.73674 58.8799 9.19296C59.4486 10.1657 58.3745 10.8683 57.5452 11.0558L57.4814 11.1171C58.7344 13.0616 60.2314 15.2935 61.2768 17.3302C62.5558 19.822 63.3333 22.8628 64.1152 25.5479C65.0241 29.8419 64.9766 35.4246 64.1362 39.7315C63.9342 40.7669 63.5103 41.9811 63.2231 43.0004C62.2236 46.5468 60.6579 49.8964 58.4052 52.8399C59.4825 52.6826 60.7097 52.5339 61.7111 52.3627C63.1015 52.125 65.0103 51.8801 64.222 54.0301C63.6723 55.5296 62.9753 57.4672 62.3294 58.924C62.9718 60.5509 63.8083 62.0513 64.4265 63.6603C64.6819 64.3252 64.0625 64.7762 63.5045 64.8962C62.0856 65.316 60.4787 65.3104 59.0587 65.6405C59.0965 67.7099 59.055 68.0778 56.8217 68.4029C55.9884 68.5238 55.1079 68.6281 54.2677 68.7309C45.985 69.7563 37.6372 70.1611 29.2942 69.9425C26.4291 69.886 23.6586 69.7382 20.8073 69.4928C16.1402 69.0923 11.4363 68.8736 6.81424 68.0821C5.361 67.833 5.39243 66.6968 5.38063 65.5682C-2.38249 64.7426 -0.0210201 64.5627 2.07587 58.9632C1.52581 57.4564 0.897963 55.9899 0.304039 54.5279C0.0295115 53.8522 -0.353886 52.3856 0.669275 52.3092C2.18472 52.1961 4.55538 52.6124 6.05859 52.8567C1.25145 46.1099 -0.799474 36.1774 0.583694 28.0471C0.690449 27.4196 1.5667 23.4727 1.83387 22.9809C1.91647 22.0357 1.86635 22.4253 1.36766 21.7495C1.27143 21.1399 2.37156 20.1384 2.83397 19.4687C2.95187 19.1118 4.71231 16.0267 5.00544 15.5794C4.22082 15.2874 3.93261 15.5238 3.02751 14.7555C2.27954 13.9928 3.10014 13.3389 3.59399 12.6878C3.83658 12.368 4.13972 12.0997 4.49115 11.9013C5.71606 11.3635 5.76755 12.2586 6.60148 12.7688C6.93742 12.2498 7.535 11.7862 7.90938 11.3003C9.04464 9.82674 10.1239 8.77918 11.5281 7.55832C10.3488 6.27743 12.7497 4.83441 13.7614 4.40411C13.9835 4.61101 14.3159 5.07635 14.5113 5.33328Z" fill="#000002"/>
<path d="M56.5109 11.1856C56.8825 10.989 57.1049 11.1949 57.4814 11.1171C58.7344 13.0616 60.2314 15.2935 61.2768 17.3302C62.5558 19.822 63.3333 22.8628 64.1152 25.5479C65.0241 29.8418 64.9766 35.4246 64.1362 39.7315C63.9342 40.7669 63.5103 41.9811 63.2231 43.0003C62.2236 46.5468 60.6579 49.8964 58.4052 52.8399C59.4825 52.6826 60.7097 52.5339 61.7111 52.3627C63.1015 52.125 65.0103 51.8801 64.222 54.0301C63.6723 55.5295 62.9753 57.4672 62.3294 58.924C62.9718 60.5508 63.8083 62.0512 64.4265 63.6602C64.6819 64.3252 64.0625 64.7762 63.5045 64.8962C62.0856 65.316 60.4787 65.3104 59.0587 65.6405C59.0965 67.7099 59.055 68.0777 56.8217 68.4029C55.9884 68.5238 55.1079 68.6281 54.2677 68.7309C45.985 69.7563 37.6372 70.1611 29.2942 69.9424C26.4291 69.8859 23.6586 69.7382 20.8073 69.4927C16.1402 69.0923 11.4363 68.8736 6.81424 68.0821C5.361 67.833 5.39243 66.6968 5.38063 65.5682C-2.38249 64.7426 -0.0210201 64.5627 2.07587 58.9631C1.52581 57.4564 0.897963 55.9899 0.304039 54.5279C0.0295115 53.8522 -0.353886 52.3856 0.669275 52.3092C2.18472 52.196 4.55538 52.6124 6.05859 52.8567C1.25145 46.1099 -0.799474 36.1774 0.583694 28.0471C0.690449 27.4196 1.5667 23.4727 1.83387 22.9809C1.91647 22.0357 1.86635 22.4252 1.36766 21.7495C1.27143 21.1399 2.37156 20.1384 2.83397 19.4687C2.95187 19.1118 4.71231 16.0267 5.00544 15.5794C5.26035 15.6328 5.36014 15.632 5.53089 15.8277C5.55486 15.9343 5.59831 16.0448 5.55638 16.137C5.10465 17.344 4.7173 17.8519 4.17636 18.8974C4.98408 20.0003 5.36673 20.1949 6.74306 20.0928C6.50003 20.5143 6.32935 20.7447 6.24209 21.2293C6.13969 21.5101 6.04519 21.7938 5.95887 22.08L6.22326 21.884C6.35846 21.9129 6.30936 21.8868 6.40589 22.0283C6.63545 21.8556 6.57397 21.5492 6.74458 21.4665C6.64667 22.449 5.85821 22.2556 5.56594 22.8992C5.74423 23.108 5.7519 23.1372 5.72714 23.4511C5.66689 24.2151 4.85554 27.1308 4.93303 27.7263L4.43329 27.844L4.4393 27.8705C5.09864 28.07 5.15064 28.761 5.34058 29.3293C5.30416 29.5928 5.29503 29.9058 5.12022 30.0943C4.9016 30.2314 4.69362 30.2445 4.43865 30.285C4.08033 30.5522 3.92826 30.2847 3.71724 30.5593C3.73506 30.8236 3.75888 30.8585 3.8859 31.084L3.91762 31.1379C3.95534 31.342 3.98641 31.4475 3.96592 31.6571C4.16991 34.9807 4.10003 36.9039 5.05722 40.1693C6.05127 40.8528 6.40893 40.6048 6.79389 40.8357C6.37533 41.4778 6.05192 42.1746 5.64734 42.832C5.54545 43.068 5.34811 43.482 5.30648 43.7178C4.9935 44.5154 4.85902 45.1159 4.6026 45.8971C4.36196 46.2109 3.94557 46.5638 3.86273 46.8463L3.7457 46.8889C3.79603 47.102 3.88322 47.4329 4.03645 47.5992C4.21814 47.4724 4.29201 47.5837 4.58094 47.481C5.36253 47.39 6.56303 47.1316 7.20891 47.5193C7.3113 47.5213 7.69561 47.5214 7.77035 47.5442C7.52269 48.0088 8.38081 49.2529 8.67308 49.6797C8.78438 49.817 9.54402 50.6702 9.58718 50.7501C9.54171 51.3675 10.9943 52.5592 11.4551 53.2329L11.4546 53.3555C11.3178 53.3926 11.2364 53.4075 11.0964 53.4296C10.9225 54.083 12.5596 55.2533 12.9667 55.7681C13.1021 55.9393 13.3612 56.2583 13.5291 56.3739C14.3634 56.4838 15.2549 56.5242 16.1018 56.6146C26.3324 57.707 36.6783 57.9404 46.9214 56.8582C47.3778 56.81 49.4006 56.7505 49.6369 56.529C50.3349 56.6392 53.8822 56.1925 54.7651 56.0785C55.8838 54.9748 56.99 53.4044 58.0067 52.1837C58.4594 51.64 58.9139 50.6776 59.291 50.0511C60.4176 48.1792 61.4872 46.2435 62.1406 44.1498C62.9283 41.8578 63.0748 40.5983 63.4932 38.3158C64.4972 33.2599 64.0141 28.4875 62.6627 23.5597C61.7169 19.7397 59.9497 16.2231 57.6776 13.0253C57.3298 12.5357 56.6185 11.8762 56.4018 11.4109L56.5109 11.1856Z" fill="#8655B3"/>
<path d="M3.89415 27.7197L4.43321 27.8437L4.43922 27.8703C5.09856 28.0697 5.15056 28.7607 5.34051 29.329C5.30408 29.5925 5.29496 29.9055 5.12014 30.0941C4.90152 30.2311 4.69354 30.2442 4.43857 30.2848C4.08026 30.552 3.92818 30.2845 3.71716 30.559C3.73498 30.8233 3.7588 30.8582 3.88582 31.0837L3.91754 31.1376C3.95527 31.3417 3.98633 31.4472 3.96584 31.6568C4.16983 34.9804 4.09995 36.9036 5.05714 40.1691C6.05119 40.8525 6.40885 40.6046 6.79381 40.8354C6.37525 41.4775 6.05185 42.1743 5.64726 42.8317C5.54537 43.0678 5.34804 43.4818 5.3064 43.7176C4.99342 44.5152 4.85894 45.1156 4.60252 45.8969C4.36188 46.2106 3.94549 46.5636 3.86265 46.846L3.74562 46.8887C1.32922 41.3198 0.397905 34.493 1.49759 28.5041L1.51029 28.5613C1.60349 28.9998 1.39718 29.2801 1.57549 29.4844C1.80142 29.1073 1.8481 29.0277 1.99745 28.6033C2.01487 28.8201 2.03075 28.9541 2.00789 29.1746C2.03071 29.0672 2.04685 28.8795 2.0607 28.764C2.07129 28.357 2.15127 28.3149 2.48159 28.1273C3.06699 27.7866 3.24168 27.7695 3.89415 27.7197Z" fill="#D3BBDE"/>
<path d="M3.71767 31.0596L3.88596 31.0835L3.91768 31.1374C3.95541 31.3416 3.98648 31.4471 3.96598 31.6566C4.16998 34.9802 4.1001 36.9034 5.05729 40.1689C6.05134 40.8523 6.409 40.6044 6.79396 40.8352C6.3754 41.4774 6.05199 42.1741 5.6474 42.8315C5.54551 43.0676 5.34818 43.4816 5.30654 43.7174C5.28438 43.5281 5.09378 43.0439 5.03129 42.7904C4.80434 41.8699 4.35985 40.4383 4.15303 39.5832C3.74512 37.8967 3.35451 32.6379 3.71767 31.0596Z" fill="#9268B9"/>
<path d="M5.05713 40.1689C6.05118 40.8524 6.40884 40.6045 6.7938 40.8353C6.37524 41.4774 6.05183 42.1742 5.64724 42.8316C5.37677 42.3963 5.12491 40.7266 5.05713 40.1689Z" fill="#BA9AD2"/>
<path d="M3.894 27.7197L4.43307 27.8437L4.43908 27.8703C5.09842 28.0697 5.15042 28.7607 5.34036 29.329C5.30394 29.5925 5.29481 29.9055 5.12 30.0941C4.90138 30.2311 4.6934 30.2442 4.43843 30.2848C3.91385 30.2803 3.07115 30.2924 2.5872 30.0951L2.47488 30.032L2.48249 30.0844C2.33739 30.1032 2.25103 30.1117 2.1048 30.1153C1.96535 29.8463 2.01122 29.567 2.00865 29.2467L2.00774 29.1746C2.03057 29.0672 2.04671 28.8795 2.06056 28.764C2.07115 28.357 2.15113 28.3149 2.48145 28.1273C3.06684 27.7866 3.24154 27.7695 3.894 27.7197Z" fill="#9AC6C6"/>
<path d="M3.894 27.7197L4.43307 27.8437L4.43908 27.8703C3.89263 28.0203 3.08349 29.7158 2.5872 30.0951L2.47488 30.032L2.48249 30.0844C2.33739 30.1032 2.25103 30.1117 2.1048 30.1153C1.96535 29.8463 2.01122 29.567 2.00865 29.2467L2.00774 29.1746C2.03057 29.0672 2.04671 28.8795 2.06056 28.764C2.07115 28.357 2.15113 28.3149 2.48145 28.1273C3.06684 27.7866 3.24154 27.7695 3.894 27.7197Z" fill="#8BBB8F"/>
<path d="M2.48193 28.1279C2.57312 28.3919 2.508 28.7879 2.35052 29.0166L2.22587 29.0377C2.12813 28.9176 2.11485 28.9075 2.06104 28.7646C2.07163 28.3576 2.15161 28.3156 2.48193 28.1279Z" fill="#6F8A7C"/>
<path d="M2.00884 29.2471C2.01141 29.5674 1.96554 29.8467 2.10499 30.1157C2.25122 30.1121 2.33759 30.1036 2.48268 30.0848L2.47507 30.0324L2.58739 30.0955C3.07134 30.2928 3.91404 30.2807 4.43862 30.2851C4.0803 30.5524 3.92823 30.2849 3.71721 30.5594C3.73503 30.8237 3.75885 30.8586 3.88587 31.0841L3.71757 31.0601C3.69817 30.9998 3.65537 30.8282 3.59172 30.8139C2.76066 30.6275 2.117 30.277 1.37158 29.8667C1.54371 29.6693 1.81245 29.4315 2.00884 29.2471Z" fill="#899B90"/>
<path d="M4.58087 47.4804C5.36245 47.3894 6.56296 47.131 7.20883 47.5187C7.31123 47.5207 7.69554 47.5208 7.77027 47.5436C7.52261 48.0082 8.38074 49.2523 8.67301 49.6791C8.78431 49.8164 9.54395 50.6696 9.58711 50.7495C9.54163 51.3669 10.9942 52.5586 11.4551 53.2323L11.4545 53.3549C11.3178 53.392 11.2363 53.4069 11.0963 53.429C10.9224 54.0824 12.5596 55.2527 12.9667 55.7675C13.102 55.9387 13.3611 56.2577 13.529 56.3733C12.2935 56.2327 11.0548 56.1233 9.81384 56.0451C8.65331 54.7445 7.1832 52.9143 6.20045 51.4687C5.46666 50.3893 4.70999 48.7319 4.03638 47.5986C4.21807 47.4718 4.29193 47.5831 4.58087 47.4804Z" fill="#BA9AD2"/>
<path d="M8.67291 49.6797C8.78421 49.8169 9.54385 50.6702 9.58701 50.7501C9.54154 51.3674 10.9941 52.5591 11.455 53.2328C11.3578 53.2611 11.2605 53.3126 11.1942 53.2663C10.2955 52.6377 8.97865 50.8676 8.5498 49.9584L8.67291 49.6797Z" fill="#9072B7"/>
<path d="M7.20874 47.5195C7.31114 47.5216 7.69545 47.5216 7.77018 47.5444C7.52252 48.0091 8.38064 49.2532 8.67291 49.68L8.54981 49.9587C8.20808 49.4091 7.3682 48.0831 7.20874 47.5195Z" fill="#643D95"/>
<path d="M4.17627 18.8975C4.98399 20.0004 5.36664 20.195 6.74297 20.0929C6.49994 20.5144 6.32926 20.7448 6.242 21.2294C6.1396 21.5102 6.0451 21.7939 5.95878 22.0801L6.22317 21.8841C6.35837 21.913 6.30927 21.8869 6.4058 22.0284C6.63536 21.8557 6.57388 21.5493 6.74449 21.4666C6.64658 22.4491 5.85812 22.2557 5.56585 22.8993C5.74414 23.1081 5.75182 23.1373 5.72705 23.4512C5.6668 24.2152 4.85546 27.1309 4.93294 27.7264L4.4332 27.8441L3.89414 27.7201C3.24167 27.7698 3.06698 27.7869 2.48158 28.1276C2.15126 28.3153 2.07128 28.3573 2.06069 28.7643C2.04684 28.8799 2.0307 29.0676 2.00788 29.1749C2.03074 28.9545 2.01487 28.8204 1.99744 28.6037C1.84809 29.028 1.80141 29.1076 1.57548 29.4847C1.39717 29.2804 1.60348 29.0002 1.51028 28.5616L1.49758 28.5044C1.41116 27.5994 2.69326 22.8007 2.9817 21.8848C3.05945 21.7035 3.1361 21.5217 3.21162 21.3395C3.31662 21.1114 3.31438 20.8913 3.40939 20.6323C3.62874 20.0344 3.88827 19.4643 4.17627 18.8975Z" fill="#E1CEE6"/>
<path d="M5.566 22.8984C5.74429 23.1073 5.75197 23.1365 5.7272 23.4503C5.66695 24.2144 4.8556 27.13 4.93309 27.7255L4.43335 27.8432L3.89429 27.7192C3.93817 27.3205 4.35702 26.5864 4.50236 26.1255C4.84713 25.0319 4.91079 23.855 5.566 22.8984Z" fill="#9072B7"/>
<path d="M2.83381 19.4677C2.82884 19.3703 1.80923 23.0138 1.83371 22.98C1.91631 22.0348 1.86619 22.4243 1.3675 21.7485C1.27127 21.139 2.3714 20.1374 2.83381 19.4677Z" fill="#B182CF"/>
<path d="M2.98173 21.8841C2.8419 21.6704 2.71406 21.9034 2.45337 21.3716L2.50657 21.2648C2.7599 21.1894 2.9546 21.2695 3.21165 21.3388C3.13613 21.521 3.05947 21.7028 2.98173 21.8841Z" fill="#D3BBDE"/>
<path d="M41.4848 61.2157C42.1118 61.1559 42.6003 61.1065 43.1861 61.412C44.3784 62.0337 44.6888 63.717 44.0788 64.8459C43.7616 65.4329 43.2158 65.7926 42.5766 65.9736C41.9355 65.9983 41.5304 66.0355 40.932 65.7303C39.8541 65.1806 39.4619 63.9237 39.8509 62.8127C40.1384 61.9917 40.7436 61.5754 41.4848 61.2157Z" fill="white"/>
<path d="M41.8184 62.1599C42.5859 62.112 42.7391 62.1819 43.2713 62.7416C43.5217 63.9459 43.5205 64.4233 42.3663 65.0375C41.6507 65.0462 41.0706 64.8481 40.8361 64.102C40.7011 63.6785 40.7453 63.2181 40.9583 62.8279C41.1664 62.453 41.4177 62.2734 41.8184 62.1599Z" fill="#8655B3"/>
<path d="M45.2421 61.0883C45.9303 61.038 46.7531 61.009 47.4327 61.0726C49.2394 62.1747 47.8109 62.6593 47.9027 63.3156C48.0323 63.5026 48.2337 63.529 48.4642 63.6007C48.4844 63.8129 48.5017 64.0253 48.5163 64.2379C48.5452 64.6842 48.5527 64.8461 48.2644 65.1748C47.25 65.7499 46.4234 65.6815 45.2624 65.7816C45.1054 65.1722 45.0003 61.8173 45.1146 61.1771L45.2421 61.0883Z" fill="white"/>
<path d="M46.1431 63.8033C46.6374 63.7901 47.1412 63.7134 47.3937 64.1981C47.3922 64.4675 47.3577 64.5084 47.221 64.7359C46.7989 64.8962 46.4882 65.0459 46.1619 64.6888C46.0626 64.4002 46.1145 64.1079 46.1431 63.8033Z" fill="#8655B3"/>
<path d="M46.1926 61.8529C46.6001 61.845 46.9364 61.8355 47.1456 62.2173C47.143 62.4824 47.1033 62.5244 46.9607 62.7442C46.6795 62.8354 46.6266 62.8551 46.3309 62.8602C45.9033 62.6274 46.0737 62.2611 46.1926 61.8529Z" fill="#8655B3"/>
<path d="M19.0111 60.9918C20.8813 60.9277 22.9422 60.912 22.3003 63.4587C22.034 63.7011 21.8103 63.8437 21.5142 64.042C21.7644 64.5326 22.4294 65.2143 22.2313 65.6997C22.036 65.8411 21.8152 65.8138 21.5693 65.8165C21.0818 65.3907 20.6464 64.3093 20.3198 64.157L20.1936 64.2341C19.9866 64.6689 20.0071 65.0952 19.9683 65.5869C19.5504 65.6149 19.2683 65.5771 18.8571 65.5343C18.8151 64.4853 18.91 62.0219 19.0111 60.9918Z" fill="white"/>
<path d="M20.1433 61.8936C20.9218 61.8637 21.7081 62.1706 21.1508 63.0752C20.8397 63.2524 20.5995 63.3108 20.2772 63.1572C19.9956 62.7677 20.0962 62.3694 20.1433 61.8936Z" fill="#8655B3"/>
<path d="M15.8284 60.6283C16.5846 60.5519 18.3263 60.7648 18.0775 61.8198C17.4314 62.5258 17.0071 61.3516 16.1198 61.5588C14.4917 61.9392 14.8245 64.8337 16.6537 64.4175C16.9075 64.3597 17.1332 64.2762 17.2836 64.0497C17.1109 63.7824 16.501 63.8305 16.2448 63.3984C16.1704 63.126 16.2405 62.9578 16.3133 62.684C17.0218 62.6878 17.5912 62.742 18.2799 62.8999C18.2976 63.7079 18.4576 64.8572 17.5994 65.2111C14.4072 66.5272 12.4129 62.0527 15.8284 60.6283Z" fill="white"/>
<path d="M28.2764 61.3304C28.5377 61.3249 28.8384 61.3127 29.0778 61.4313C29.2259 61.5041 29.348 61.6206 29.4276 61.7652C29.8133 62.4535 30.6101 65.1578 30.8882 66.041C28.9751 66.1984 30.1537 65.3355 29.2371 65.1876C28.7909 65.178 28.328 65.183 27.8803 65.182C27.6329 65.6672 27.2183 66.5517 26.5427 65.8704C26.5058 65.3091 27.9449 61.8998 28.2764 61.3304Z" fill="white"/>
<path d="M28.5929 62.7646L28.7338 62.8787C28.8009 63.1852 28.9658 63.8918 28.9383 64.1822L28.7862 64.271C28.6452 64.2563 28.5115 64.2374 28.3712 64.2173L28.2848 64.0979C28.2441 63.698 28.4856 63.2227 28.5929 62.7646Z" fill="#8655B3"/>
<path d="M23.3211 61.2239C24.249 61.2139 25.2522 61.2206 26.1703 61.347C26.1801 63.4568 24.4413 61.1481 24.1292 62.6991C24.3852 63.2594 25.2544 62.8545 25.705 63.3788C25.7839 63.5893 25.7559 63.6838 25.7261 63.9012C25.3616 64.4328 24.9246 63.8747 24.2413 64.2095C24.0882 64.4473 24.1431 64.4953 24.1397 64.8295L24.1968 64.9519C24.4036 65.0541 25.7164 65.1224 26.1033 65.1758L25.8848 65.9898C24.8148 65.9875 24.0027 65.981 22.938 65.7974C22.9851 65.1946 23.1432 61.5581 23.3211 61.2239Z" fill="white"/>
<path d="M31.1653 61.3756C31.6976 61.3657 34.0607 61.2331 34.379 61.5156C34.4413 61.7555 34.5014 62.107 34.321 62.3069C34.1008 62.4418 33.6186 62.363 33.3362 62.343C33.2487 62.9217 33.2396 64.3737 33.2208 65.0213C33.2227 65.4526 33.2891 65.7642 33.0092 66.0646C32.7393 66.1708 32.3995 66.0853 32.1045 66.041C32.1038 64.8335 32.0821 63.626 32.0396 62.4192C31.7543 62.3944 31.1997 62.4171 31.0185 62.279C30.8684 61.9713 30.9185 61.8235 30.9941 61.477L31.1653 61.3756Z" fill="white"/>
<path d="M38.1665 61.3792C38.4848 61.3504 38.8668 61.3456 39.191 61.333C39.3589 63.1822 39.896 66.361 37.1048 66.1181C36.761 65.9401 36.192 65.6392 36.2594 65.1923C36.6773 64.8502 37.424 65.1126 38.0008 64.9799C38.2878 64.3711 37.8583 62.0184 38.1665 61.3792Z" fill="white"/>
<path d="M49.546 60.7002C49.6005 60.709 49.6549 60.7185 49.709 60.7289C49.7985 60.7465 50.0516 60.8122 50.0739 60.9072C50.2553 61.6787 50.1264 62.9619 50.0364 63.7537C50.0172 63.9236 49.8475 63.9651 49.7134 64.0323C49.5357 64.0208 49.5249 64.0233 49.3668 63.9478C49.074 63.4723 49.085 61.6989 49.1839 61.1031C49.2241 60.8612 49.3656 60.8131 49.546 60.7002Z" fill="white"/>
<path d="M49.4482 64.4896C49.6393 64.4128 49.8571 64.4471 50.0154 64.5788C50.1737 64.7106 50.2469 64.9186 50.2061 65.1204C50.1653 65.3223 50.017 65.4855 49.82 65.5454C49.533 65.6327 49.2283 65.4784 49.1286 65.1955C49.029 64.9126 49.1699 64.6013 49.4482 64.4896Z" fill="white"/>
<path d="M14.5111 5.33328C16.0451 4.01191 19.5265 2.62131 21.394 1.95748C30.1611 -1.1591 39.154 -0.49571 47.566 3.53056C47.7754 3.87447 47.8143 3.94572 47.7029 4.35176L47.4046 4.57154C44.2485 2.5825 40.7197 1.9325 37.1381 1.20562L37.2844 1.59305C37.5069 2.05719 38.0752 3.10483 38.0108 3.56221L37.8812 3.79097C37.6977 3.94985 37.6425 4.00518 37.6954 4.27702C37.5888 4.35958 37.3482 4.53627 37.2594 4.61955L37.1319 4.8688C37.7451 4.90299 38.4101 5.03717 39.0195 5.14493C37.8711 6.80035 36.3543 7.91555 35.0043 9.33309C33.8834 10.5101 32.8461 12.2237 31.7227 13.4567C31.6128 13.5773 31.5847 13.783 31.5482 13.9381C28.2048 14.09 26.2639 14.6688 23.2209 16.0735C22.9138 16.2561 22.8161 16.3045 22.5812 16.5679L22.393 16.6067L22.374 16.5765C21.3925 15.0402 17.0132 13.2884 15.1591 12.8747C14.5055 12.7289 14.1528 12.7068 13.5317 12.9304C11.4888 16.0278 12.0947 24.4614 13.284 28.0088C13.3369 28.1664 12.756 30.0212 12.7636 30.3263C12.2839 32.8002 12.3329 37.9307 13.7509 39.9842C11.4367 39.2865 12.107 37.6666 10.083 37.9785C9.36399 38.7445 7.73906 39.9571 6.79367 40.8357C6.40871 40.6048 6.05105 40.8528 5.057 40.1693C4.09981 36.9039 4.16969 34.9807 3.96569 31.6571C3.98619 31.4475 3.95512 31.342 3.91739 31.1379L3.88567 31.084C3.75866 30.8585 3.73483 30.8236 3.71702 30.5593C3.92804 30.2847 4.08011 30.5522 4.43842 30.285C4.6934 30.2445 4.90138 30.2314 5.12 30.0944C5.29481 29.9058 5.30394 29.5928 5.34036 29.3293C5.15041 28.761 5.09842 28.07 4.43907 27.8706L4.43306 27.844L4.9328 27.7263C4.85532 27.1308 5.66667 24.2152 5.72691 23.4511C5.75168 23.1373 5.74401 23.1081 5.56572 22.8992C5.85799 22.2556 6.64645 22.449 6.74436 21.4665C6.57374 21.5492 6.63522 21.8556 6.40567 22.0283C6.30914 21.8868 6.35824 21.9129 6.22304 21.884L5.95865 22.0801C6.04497 21.7939 6.13947 21.5101 6.24186 21.2293C6.32912 20.7447 6.49981 20.5144 6.74283 20.0928C5.3665 20.1949 4.98386 20.0003 4.17613 18.8974C4.71708 17.8519 5.10443 17.3441 5.55616 16.137C5.59809 16.0449 5.55464 15.9344 5.53067 15.8277C5.35991 15.632 5.26012 15.6328 5.00522 15.5794C4.2206 15.2874 3.93238 15.5238 3.02729 14.7555C2.27931 13.9928 3.09992 13.3389 3.59377 12.6878C3.83636 12.368 4.13949 12.0997 4.49092 11.9013C5.71584 11.3635 5.76732 12.2586 6.60126 12.7688C6.9372 12.2498 7.53477 11.7862 7.90916 11.3003C9.04442 9.82674 10.1237 8.77918 11.5278 7.55832C10.3486 6.27743 12.7495 4.83441 13.7611 4.40411C13.9832 4.61101 14.3156 5.07635 14.5111 5.33328Z" fill="#BEA0D4"/>
<path d="M14.5111 5.33328C16.0451 4.01191 19.5265 2.62131 21.394 1.95748C30.1611 -1.1591 39.154 -0.49571 47.566 3.53056C47.7754 3.87447 47.8143 3.94572 47.7029 4.35176L47.4046 4.57154C44.2485 2.5825 40.7197 1.9325 37.1381 1.20562L37.2844 1.59305C37.2218 1.69687 37.1214 1.85096 37.0733 1.95581C36.6884 1.86095 36.1574 2.43296 35.7641 2.24859C35.5783 2.46171 34.8802 3.33388 34.7659 3.54599C34.3932 3.71196 33.3889 3.7011 33.0068 3.54295C32.3027 3.38233 30.0637 3.47763 29.2958 3.58299C25.9882 4.03668 22.5261 5.02073 19.4912 6.4256C18.275 6.98856 17.0687 7.93995 15.8529 8.56396C14.1701 9.64397 11.8444 11.9202 10.6031 13.5047C10.2732 13.9258 9.61071 14.5363 9.34321 14.9647C8.55815 16.222 7.36988 18.1975 6.85291 19.545L6.82886 19.8221C7.01316 19.9885 7.07747 19.9345 7.39146 19.9541C7.30167 19.9865 7.19217 20.0259 7.06306 20.0725C6.81713 20.4359 6.4838 20.8809 6.24186 21.2293C6.32912 20.7447 6.49981 20.5144 6.74283 20.0928C5.3665 20.1949 4.98386 20.0003 4.17613 18.8974C4.71708 17.8519 5.10443 17.3441 5.55616 16.137C5.59809 16.0449 5.55464 15.9344 5.53067 15.8277C5.35991 15.632 5.26012 15.6328 5.00522 15.5794C4.2206 15.2874 3.93238 15.5238 3.02729 14.7555C2.27931 13.9928 3.09992 13.3389 3.59377 12.6878C3.83636 12.368 4.13949 12.0997 4.49092 11.9013C5.71584 11.3635 5.76732 12.2586 6.60126 12.7688C6.9372 12.2498 7.53477 11.7862 7.90916 11.3003C9.04442 9.82674 10.1237 8.77918 11.5278 7.55832C10.3486 6.27743 12.7495 4.83441 13.7611 4.40411C13.9832 4.61101 14.3156 5.07635 14.5111 5.33328Z" fill="#D3BBDE"/>
<path d="M14.5112 5.33328C16.0453 4.01191 19.5267 2.62131 21.3941 1.95748C30.1613 -1.1591 39.1541 -0.49571 47.5662 3.53056C47.7755 3.87447 47.8145 3.94572 47.703 4.35176L47.4047 4.57154C44.2486 2.5825 40.7199 1.9325 37.1382 1.20562L36.6746 1.1421C30.3015 0.382967 23.1721 1.46923 17.5084 4.56307C16.5745 5.07323 15.6836 5.41395 14.9001 6.16888L14.5138 5.52677L14.5112 5.33328Z" fill="#8655B3"/>
<path d="M4.49117 11.9007C5.71608 11.3628 5.76757 12.2579 6.60151 12.7682C6.98046 13.1695 7.00566 13.2172 7.5453 13.2818L7.62662 13.4785C8.00427 14.0648 8.16127 14.7007 8.20233 15.3914C7.89311 15.9042 6.94316 17.3972 6.08345 16.8471C5.93999 16.7553 5.72448 16.3238 5.5564 16.1364C5.59833 16.0442 5.55488 15.9337 5.53091 15.827C5.36016 15.6314 5.26037 15.6322 5.00546 15.5788C4.22084 15.2867 3.93263 15.5232 3.02753 14.7548C2.27956 13.9922 3.10017 13.3382 3.59401 12.6872C3.8366 12.3673 4.13974 12.0991 4.49117 11.9007Z" fill="#F6A97F"/>
<path d="M7.62643 13.4785C8.00408 14.0648 8.16108 14.7007 8.20214 15.3914C7.89292 15.9042 6.94297 17.3972 6.08326 16.8471C5.9398 16.7553 5.72429 16.3238 5.55621 16.1364C5.59814 16.0442 5.55469 15.9337 5.53072 15.827C5.35997 15.6314 5.26018 15.6322 5.00528 15.5788C4.22065 15.2867 3.93244 15.5232 3.02734 14.7548C3.27577 14.5603 3.86784 14.6355 4.20849 14.6384C4.91497 14.8667 5.06415 15.3196 6.32136 15.6149C7.46277 14.9352 7.47646 14.763 7.62643 13.4785Z" fill="#E3666E"/>
<path d="M3.02729 14.7556C2.27931 13.9929 3.09992 13.339 3.59377 12.6879C3.83636 12.368 4.13949 12.0998 4.49092 11.9014C5.157 13.4711 3.50064 13.8347 4.00284 14.5469L4.20843 14.6391C3.86779 14.6362 3.27572 14.561 3.02729 14.7556Z" fill="#EA8F7E"/>
<path d="M11.528 7.55753C10.3487 6.27664 12.7497 4.83361 13.7613 4.40332C13.9834 4.61021 14.3158 5.07555 14.5113 5.33249L14.5139 5.52598L14.9001 6.16809C15.0158 6.35738 15.0316 6.38302 15.2174 6.50243C14.8306 7.19625 13.9112 7.96277 13.2759 8.46591C13.4773 8.60669 13.5029 8.57062 13.5417 8.76426L13.3817 9.08137C13.1955 9.13242 12.5961 9.42448 12.394 9.51659C12.2906 9.13539 12.2454 8.65238 12.1952 8.25388C12.2803 8.03728 12.2579 7.8616 12.1622 7.66021C11.9534 7.49996 11.7942 7.53957 11.528 7.55753Z" fill="#EA8F7E"/>
<path d="M13.2759 8.46728L13.0464 8.31824C13.033 8.27125 13.0169 8.2152 12.9983 8.15002C13.3909 7.36576 14.1598 6.54087 14.3908 5.67681C14.4161 5.58231 14.4163 5.61019 14.5138 5.52734L14.9001 6.16945C15.0158 6.35875 15.0316 6.38438 15.2174 6.5038C14.8306 7.19761 13.9112 7.96413 13.2759 8.46728Z" fill="#E2BF6B"/>
<path d="M11.5281 7.55781C11.7943 7.53985 11.9535 7.50024 12.1623 7.66049C12.258 7.86188 12.2805 8.03756 12.1953 8.25415C10.5623 9.40832 8.58981 11.5645 7.54536 13.2819C7.00571 13.2173 6.98051 13.1697 6.60156 12.7683C6.9375 12.2493 7.53507 11.7856 7.90946 11.2997C9.04472 9.82623 10.124 8.77866 11.5281 7.55781Z" fill="#8655B3"/>
<path d="M13.2759 8.46641C13.9112 7.96326 14.8306 7.19674 15.2174 6.50293C15.4547 7.14055 15.2162 7.01013 15.2014 7.48011C14.7102 7.90135 14.0388 8.99606 13.4955 9.16167L13.3817 9.08187L13.5417 8.76476C13.5029 8.57112 13.4773 8.60718 13.2759 8.46641Z" fill="#BE9B5F"/>
<path d="M36.6745 1.1416L37.1381 1.20512L37.2845 1.59256C37.2218 1.69637 37.1214 1.85046 37.0733 1.95531C36.6884 1.86045 36.1574 2.43246 35.7642 2.24809C36.0345 1.79846 36.2742 1.47878 36.6745 1.1416Z" fill="#F6A97F"/>
<path d="M15.2015 7.48047C14.907 8.06081 14.282 9.42483 13.4956 9.16203C14.0389 8.99642 14.7103 7.90171 15.2015 7.48047Z" fill="#988F96"/>
<path d="M37.0735 1.95553C37.1217 1.85067 37.222 1.69659 37.2847 1.59277C37.5071 2.05691 38.0754 3.10455 38.0111 3.56193L37.8814 3.79069C37.6979 3.94957 37.6428 4.0049 37.6956 4.27674C37.589 4.3593 37.3485 4.53599 37.2596 4.61927L37.1322 4.86852C37.7453 4.9027 38.4103 5.03689 39.0197 5.14465C37.8713 6.80007 36.3546 7.91527 35.0046 9.33281C33.8836 10.5098 32.8464 12.2234 31.7229 13.4564C31.613 13.577 31.585 13.7827 31.5484 13.9379C28.205 14.0897 26.2641 14.6685 23.2212 16.0732C23.2047 15.9776 23.1935 15.8612 23.1816 15.763C23.6206 14.65 25.894 12.1041 26.8178 11.2012C27.3201 10.7102 27.8167 9.88563 28.3116 9.37394C28.896 8.76977 29.4953 8.16431 30.0537 7.53052C30.7207 6.77371 31.9512 4.71797 32.6573 4.19528L32.7662 4.16204C32.7809 3.94131 32.9047 3.74601 33.007 3.54267C33.3891 3.70082 34.3934 3.71168 34.7661 3.54571C34.8805 3.3336 35.5786 2.46143 35.7644 2.24831C36.1577 2.43268 36.6886 1.86067 37.0735 1.95553Z" fill="#D3BBDE"/>
<path d="M37.0737 1.95553C37.1218 1.85067 37.2222 1.69659 37.2849 1.59277C37.5073 2.05691 38.0756 3.10455 38.0113 3.56193L37.8816 3.79069C37.6981 3.94957 37.6429 4.0049 37.6958 4.27674C37.5892 4.3593 37.3487 4.53599 37.2598 4.61927L37.041 4.59016C37.1423 4.35944 37.3742 4.40434 37.4595 4.10736L37.3754 4.07282C36.8026 4.4412 36.4907 4.93565 35.8612 5.04855C34.9854 5.113 34.6788 4.28985 34.7663 3.54571C34.8807 3.3336 35.5787 2.46143 35.7646 2.24831C36.1578 2.43268 36.6888 1.86067 37.0737 1.95553Z" fill="#F6A092"/>
<path d="M37.0734 1.95553C37.1215 1.85067 37.2219 1.69659 37.2845 1.59277C37.507 2.05691 38.0753 3.10455 38.0109 3.56193L37.8813 3.79069C37.6978 3.94957 37.6426 4.0049 37.6955 4.27674C37.5889 4.3593 37.3483 4.53599 37.2595 4.61927L37.0407 4.59016C37.1419 4.35944 37.3739 4.40434 37.4592 4.10736L37.3751 4.07282C36.8022 4.4412 36.4904 4.93565 35.8608 5.04855C36.5846 4.25922 36.8523 4.44583 37.4673 3.21998C37.4095 2.83835 37.2142 2.31384 37.0734 1.95553Z" fill="#EA8F7E"/>
<path d="M34.766 3.54601C34.6785 4.29015 34.9851 5.1133 35.8609 5.04885C36.4904 4.93596 36.8023 4.4415 37.3752 4.07312L37.4592 4.10767C37.3739 4.40464 37.142 4.35975 37.0407 4.59046L37.2595 4.61957L37.1321 4.86883C35.6004 6.11365 35.2537 5.5121 33.9886 4.30985C33.5473 4.22476 33.2183 4.14243 32.7661 4.16234C32.7808 3.94162 32.9046 3.74631 33.0069 3.54297C33.389 3.70112 34.3933 3.71199 34.766 3.54601Z" fill="#EB848A"/>
<path d="M6.85303 19.5438C7.37 18.1963 8.55827 16.2208 9.34333 14.9636C9.61083 14.5351 10.2733 13.9246 10.6032 13.5035C11.8445 11.9191 14.1702 9.64282 15.853 8.56281C17.0688 7.93881 18.2751 6.98741 19.4913 6.42445C22.5262 5.01958 25.9884 4.03553 29.2959 3.58184C30.0638 3.47648 32.3028 3.38118 33.0069 3.5418C32.9046 3.74514 32.7808 3.94045 32.7661 4.16117L32.6572 4.19441C31.8616 4.16812 30.6841 4.3727 29.8758 4.44301C26.1248 4.76903 23.0415 5.58399 19.7126 7.39431C18.2553 8.18683 17.7582 8.30284 16.2982 9.44773C16.2677 9.67222 16.2316 10.2014 16.1054 10.347L15.9691 10.3541C15.7889 10.1045 15.7326 9.84797 15.5361 9.79576C15.0358 10.2699 14.4019 11.0983 13.9268 11.4686C12.5348 12.5534 11.7958 13.4824 10.9565 15.024C10.831 15.2544 10.1239 15.7438 9.95256 15.9848C9.26157 16.8087 8.73489 17.7873 8.21488 18.7259C7.97069 19.1666 7.64808 20.1954 6.94413 19.7633L6.85303 19.5438Z" fill="#9072B7"/>
<path d="M4.43333 27.8442L4.93307 27.7266L4.96117 27.7881C5.44092 28.8176 6.50565 29.6315 6.05037 30.8436C5.82139 31.4532 5.59249 31.4384 5.4389 32.0753C5.07117 32.3528 4.33405 31.764 3.96596 31.6574C3.98645 31.4478 3.95539 31.3423 3.91766 31.1381L3.88594 31.0843C3.75892 30.8588 3.7351 30.8239 3.71729 30.5595C3.9283 30.285 4.08038 30.5525 4.43869 30.2853C4.69367 30.2447 4.90164 30.2316 5.12027 30.0946C5.29508 29.9061 5.3042 29.5931 5.34063 29.3296C5.15068 28.7612 5.09869 28.0702 4.43934 27.8708L4.43333 27.8442Z" fill="#988F96"/>
<path d="M5.34063 29.3301C5.62522 29.9398 6.01279 31.0072 5.23186 31.5077C4.92597 31.7037 4.1617 31.3549 3.91766 31.1387L3.88594 31.0848C3.75892 30.8593 3.7351 30.8244 3.71729 30.5601C3.9283 30.2855 4.08038 30.553 4.43869 30.2858C4.69367 30.2453 4.90164 30.2322 5.12027 30.0951C5.29508 29.9066 5.3042 29.5936 5.34063 29.3301Z" fill="#8BBB8F"/>
<path d="M7.50823 24.7614C7.62532 23.7023 7.59121 23.2021 8.83763 23.3078C9.36829 23.4762 10.718 26.3053 10.5616 26.969C10.4366 27.1505 10.4631 27.1135 10.3174 27.2188C10.0549 27.4085 9.91344 28.2262 9.80235 28.5787C9.37872 28.1608 8.62147 27.575 8.31819 27.2216C8.03505 27.0057 7.84163 26.6723 7.65313 26.3734C7.25014 26.3931 6.43025 26.4815 6.20409 26.1571C5.5 25.1473 6.90558 24.7948 7.50823 24.7614Z" fill="#B182CF"/>
<path d="M8.83755 23.3076C9.36821 23.4761 10.7179 26.3051 10.5616 26.9688C10.4366 27.1504 10.4631 27.1133 10.3174 27.2186C10.0549 27.4084 9.91336 28.226 9.80227 28.5785C9.37864 28.1606 8.62139 27.5749 8.31812 27.2214C9.03966 27.1837 10.1398 28.0752 9.77968 26.0218C9.63695 25.2076 9.18833 24.5885 8.74124 23.9087C8.70829 23.6394 8.74993 23.5627 8.83755 23.3076Z" fill="#9072B7"/>
<path d="M23.9789 7.12289C24.6552 7.00579 25.8169 8.7266 26.1569 9.21954C25.6154 10.0192 25.3467 10.6471 24.3161 10.7933C23.9429 10.7988 22.32 9.18586 22.1808 8.81502C21.9001 8.06726 23.5111 7.2394 23.9789 7.12289Z" fill="#6F8A7C"/>
<path d="M23.9644 7.30546C24.6799 7.2694 25.5364 8.49663 25.5336 9.19682C25.5346 9.54072 25.3956 9.87014 25.1486 10.1094C24.9056 10.3479 24.6269 10.5781 24.2823 10.5763C23.7713 9.45483 23.406 9.52138 22.5689 8.76652C22.0425 8.29177 23.6499 7.46116 23.9644 7.30546Z" fill="#8BBB8F"/>
<path d="M37.1382 1.20508C40.7199 1.93195 44.2487 2.58195 47.4047 4.57099L47.703 4.35121C47.8145 3.94518 47.7755 3.87392 47.5662 3.53002C47.8311 3.0284 48.3986 2.77646 48.8349 2.42597C49.0586 2.24623 49.4622 1.98952 49.7182 1.88633C50.1087 1.72891 50.8835 2.52931 51.0185 2.8286C50.8013 3.39757 50.6556 3.4689 51.1753 4.00659C51.9245 4.78194 51.4365 4.79555 50.9332 5.32223C51.4425 5.56142 55.3936 8.87335 55.9218 9.41611C56.2791 9.30879 56.8655 8.49556 57.8809 8.09481C58.3251 8.47688 58.5279 8.7362 58.8799 9.19242C59.4486 10.1652 58.3744 10.8678 57.5452 11.0552L57.4813 11.1166C57.1048 11.1943 56.8824 10.9885 56.5108 11.1851L56.4017 11.4104C56.6184 11.8756 57.3297 12.5352 57.6776 13.0247C59.9497 16.2225 61.7168 19.7392 62.6627 23.5592C64.014 28.487 64.4972 33.2594 63.4932 38.3152C63.0747 40.5978 62.9282 41.8572 62.1405 44.1493C61.4871 46.243 60.4176 48.1787 59.2909 50.0506C58.9138 50.677 58.4594 51.6395 58.0066 52.1831C56.99 53.4039 55.8838 54.9742 54.7651 56.078C53.8821 56.192 50.3348 56.6386 49.6369 56.5285C49.8914 56.1958 51.1101 55.219 51.5176 54.8209C51.7577 54.5862 52.9142 53.3261 53.0525 53.2284C53.569 52.7238 53.9688 52.052 54.4758 51.5297C54.6676 51.332 55.0403 51.0434 55.2654 50.8572C55.2371 50.5644 55.4763 50.3626 55.6596 50.1624C55.8373 49.8658 56.3343 49.247 56.0885 48.9787L55.8354 48.9764C56.102 48.8073 56.49 48.3133 56.7317 48.2084C57.8229 47.7346 58.6904 48.6951 59.3323 47.2939C59.0029 46.6522 58.5862 46.3949 58.2433 45.8028C58.4005 45.6732 58.5096 45.6071 58.5768 45.4115C58.5169 44.8341 59.6274 41.7366 59.7999 40.9318C60.0353 39.9481 60.1884 38.9439 60.3338 37.9436C60.3732 37.6722 60.5266 37.0426 60.428 36.8125C60.6184 36.7578 60.8293 36.6848 61.0199 36.6232L61.1552 36.4057L61.1136 36.1401C62.6161 35.9241 62.5435 35.367 61.4664 34.4162L61.2036 34.2986C61.1626 34.1664 61.0577 33.9854 60.9901 33.8579C60.9855 33.4506 60.9166 33.144 61.2222 32.8664L61.2805 32.8863L61.445 32.6529L61.2618 32.2933C61.0189 31.858 60.9169 31.7705 60.5613 31.425L60.6352 31.3717C60.9661 30.7317 59.976 26.5715 60.1075 25.3403C60.2764 25.1203 60.3974 25.0451 60.6552 24.9879C61.0429 24.7018 61.7598 23.9226 61.8111 23.4174C61.7001 23.1426 61.7188 23.2148 61.4618 23.0089C61.1659 22.6469 60.5832 22.4585 60.1503 22.337C59.9125 22.3295 59.7998 22.3193 59.5636 22.28C59.259 21.1902 57.9901 18.4177 57.3542 17.4818C56.8995 16.8864 56.6443 16.3489 56.2885 15.6955L56.4062 15.4845L56.4466 15.4333C56.3526 14.8582 55.8246 14.886 55.3264 14.8027C54.9909 14.2855 55.0134 14.0149 54.4407 13.7461C54.1774 13.8266 54.1469 13.8975 53.9863 14.12C53.9756 14.0086 53.9545 13.9142 53.9334 13.8047C52.399 12.2108 50.3953 10.9367 48.7231 9.48642C48.2941 9.11421 47.5604 8.79268 47.0468 8.57283L46.7123 8.23935C46.3086 7.83918 45.5423 7.66647 45.0717 7.38145C43.0716 6.17008 41.2948 5.67461 39.0197 5.14438C38.4102 5.03663 37.7452 4.90244 37.1321 4.86826L37.2595 4.61901C37.3484 4.53573 37.589 4.35903 37.6955 4.27648C37.6427 4.00463 37.6979 3.94931 37.8814 3.79043L38.011 3.56166C38.0754 3.10429 37.507 2.05665 37.2846 1.59251L37.1382 1.20508Z" fill="#D3BBDE"/>
<path d="M37.6955 4.27734C39.8248 4.3037 43.4262 5.68264 45.3909 6.57444C46.6421 7.14232 48.7517 8.5944 50.0021 9.3258C51.042 9.93402 52.3528 11.3896 53.3035 12.183C53.7971 12.644 54.1985 13.3699 54.6478 13.6326L54.4407 13.7469C54.1773 13.8274 54.1469 13.8983 53.9863 14.1209C53.9756 14.0095 53.9545 13.9151 53.9334 13.8056C52.399 12.2117 50.3953 10.9376 48.7231 9.48729C48.2941 9.11507 47.5604 8.79355 47.0468 8.57369L46.7123 8.24022C46.3086 7.84005 45.5423 7.66734 45.0717 7.38231C43.0716 6.17094 41.2948 5.67547 39.0197 5.14525C38.4102 5.03749 37.7452 4.9033 37.1321 4.86912L37.2595 4.61987C37.3484 4.53659 37.589 4.3599 37.6955 4.27734Z" fill="#946DBA"/>
<path d="M47.5662 3.5302C47.8311 3.02858 48.3986 2.77664 48.8349 2.42615C49.0586 2.24642 49.4621 1.9897 49.7182 1.88651C50.1087 1.72909 50.8835 2.52949 51.0185 2.82878C50.8013 3.39775 50.6556 3.46908 51.1753 4.00677C51.9245 4.78212 51.4365 4.79574 50.9332 5.32242C50.668 5.35261 50.4301 5.34972 50.2272 5.51736C50.1647 5.6191 50.088 5.72215 50.0644 5.83628L49.9723 5.95395C49.8229 5.96894 49.6603 6.11276 49.4906 6.11906C48.8991 6.14086 48.0687 5.99139 47.7253 5.45552C47.4875 5.08446 47.6135 4.73737 47.703 4.35139C47.8145 3.94536 47.7755 3.8741 47.5662 3.5302Z" fill="#E2BF6B"/>
<path d="M55.922 9.41602C56.2793 9.3087 56.8656 8.49547 57.881 8.09473C58.3252 8.47679 58.528 8.73611 58.88 9.19233C59.4487 10.1651 58.3746 10.8677 57.5453 11.0552L57.4815 11.1165C57.105 11.1943 56.8826 10.9884 56.5109 11.185C56.1849 11.1543 55.8121 11.0872 55.4848 11.0368L55.2982 10.8285C55.2237 10.4922 55.3573 10.3062 55.4955 9.95349L55.674 9.78172L55.922 9.41602Z" fill="#EB848A"/>
<path d="M56.8405 10.6309C57.391 10.3741 57.842 10.3998 58.3489 9.82501C58.5429 9.60501 58.6237 9.44106 58.8423 9.22866L58.88 9.19238C59.4487 10.1651 58.3746 10.8677 57.5453 11.0552L57.4815 11.1165C57.105 11.1943 56.8826 10.9884 56.5109 11.185C56.1849 11.1543 55.8121 11.0873 55.4848 11.0368L55.2982 10.8285C55.2237 10.4922 55.3573 10.3062 55.4955 9.95354L55.674 9.78177C55.9254 10.5277 56.0318 10.5984 56.8405 10.6309Z" fill="#E3666E"/>
<path d="M50.9332 5.32227C51.4425 5.56145 55.3937 8.87338 55.9219 9.41614L55.6738 9.78184L55.4953 9.95361L55.2038 9.97251C54.8518 9.49616 50.758 6.31146 50.0645 5.83613C50.088 5.722 50.1648 5.61895 50.2272 5.51721C50.4301 5.34957 50.668 5.35246 50.9332 5.32227Z" fill="#8655B3"/>
<path d="M60.1073 25.3407C60.2762 25.1207 60.3972 25.0455 60.655 24.9883C60.5276 25.6189 60.9489 27.1644 61.0515 27.858C61.2018 28.8738 61.4619 31.3678 61.2616 32.2937C61.0187 31.8584 60.9167 31.7709 60.5611 31.4254L60.635 31.3721C60.9659 30.7321 59.9758 26.5719 60.1073 25.3407Z" fill="#8655B3"/>
<path d="M61.4451 32.6533C62.2655 33.4243 63.1252 34.8369 63.2836 35.9736C62.3539 36.3571 62.1676 36.3653 61.1553 36.4061L61.1138 36.1405C62.6163 35.9245 62.5436 35.3674 61.4666 34.4166L61.2038 34.299C61.1628 34.1668 61.0579 33.9858 60.9902 33.8583C60.9857 33.451 60.9168 33.1444 61.2223 32.8668L61.2806 32.8867L61.4451 32.6533Z" fill="#190E34"/>
<path d="M61.2223 32.8662L61.2806 32.8861C61.6149 33.2224 62.0332 33.8808 62.1504 34.3356L62.11 34.4377C61.8863 34.4061 61.646 34.3299 61.4666 34.416L61.2038 34.2984C61.1628 34.1662 61.0579 33.9853 60.9902 33.8577C60.9857 33.4504 60.9168 33.1439 61.2223 32.8662Z" fill="#643D95"/>
<path d="M61.0196 36.623C61.0121 37.1112 60.8878 38.5816 60.7747 39.0145C60.3709 40.5598 59.387 44.2071 58.5766 45.4113C58.5167 44.834 59.6272 41.7365 59.7997 40.9316C60.035 39.948 60.1881 38.9438 60.3335 37.9435C60.3729 37.6721 60.5263 37.0425 60.4277 36.8123C60.6181 36.7577 60.829 36.6847 61.0196 36.623Z" fill="#8655B3"/>
<path d="M59.3323 47.2939C59.4667 47.6582 59.1819 47.9764 58.85 48.0747C58.5754 48.1561 58.2721 48.2004 58.0094 48.3132C57.7831 48.4457 57.3431 49.2211 57.116 49.2906C56.8104 49.5735 56.4041 50.935 55.7554 51.2109C55.5052 51.2 55.5911 51.2371 55.4199 51.0882C55.4395 50.6793 55.6269 50.526 55.8819 50.2067L55.6595 50.1624C55.8373 49.8659 56.3342 49.2471 56.0885 48.9787L55.8354 48.9765C56.102 48.8073 56.49 48.3133 56.7317 48.2084C57.8229 47.7346 58.6904 48.6951 59.3323 47.2939Z" fill="#BA9AD2"/>
<path d="M55.8819 50.2069C56.4855 49.561 57.0643 48.3928 57.7977 48.1846C57.7899 48.3199 57.2534 49.0523 57.116 49.2907C56.8104 49.5736 56.4041 50.9351 55.7554 51.211C55.5052 51.2001 55.5911 51.2372 55.4199 51.0883C55.4395 50.6794 55.6269 50.5261 55.8819 50.2069Z" fill="#D3BBDE"/>
<path d="M55.2039 9.973L55.4954 9.9541C55.3573 10.3068 55.2237 10.4928 55.2982 10.8291L55.4848 11.0374C55.812 11.0878 56.1849 11.1549 56.5109 11.1856L56.4019 11.4109C56.2114 11.4686 56.1049 11.5666 55.819 11.6461C55.2349 11.5735 54.9378 11.0772 54.5322 10.6103C54.7574 10.3509 54.9464 10.1943 55.2039 9.973Z" fill="#BC6FB1"/>
<path d="M55.2654 50.8574L55.3869 51.0695C55.0758 51.6133 53.5986 53.3702 53.0525 53.2286C53.569 52.724 53.9688 52.0522 54.4758 51.5299C54.6676 51.3323 55.0402 51.0437 55.2654 50.8574Z" fill="#9072B7"/>
<path d="M47.4048 4.57134L47.7031 4.35156C47.6136 4.73754 47.4876 5.08463 47.7254 5.45568C48.0688 5.99156 48.8992 6.14103 49.4907 6.11923C49.6604 6.11293 49.823 5.96911 49.9724 5.95412C49.7366 6.47544 49.3937 6.61079 48.8507 6.47957C47.8164 6.22959 47.2001 5.61587 47.4048 4.57134Z" fill="#BE9B5F"/>
<path d="M54.648 13.6309C55.2095 14.3505 56.3219 14.6196 56.9815 14.9962L56.4468 15.4324C56.3528 14.8574 55.8248 14.8851 55.3266 14.8019C54.9911 14.2846 55.0136 14.014 54.4409 13.7452L54.648 13.6309Z" fill="#E58E50"/>
<path d="M39.0197 5.14355C41.2948 5.67378 43.0716 6.16925 45.0717 7.38062C45.5423 7.66565 46.3086 7.83836 46.7123 8.23853L47.0468 8.572C47.5605 8.79186 48.2941 9.11338 48.7232 9.4856C50.3953 10.9359 52.399 12.21 53.9334 13.8039C53.9545 13.9134 53.9756 14.0078 53.9863 14.1192C54.1469 13.8967 54.1774 13.8258 54.4407 13.7452C55.0134 14.014 54.991 14.2847 55.3265 14.8019C55.8246 14.8851 56.3527 14.8574 56.4467 15.4324L56.4062 15.4836L56.2885 15.6947C56.6443 16.3481 56.8995 16.8855 57.3542 17.481C57.9901 18.4169 59.259 21.1894 59.5636 22.2792C59.7998 22.3185 59.9125 22.3287 60.1503 22.3362C60.5832 22.4577 61.1659 22.6461 61.4618 23.0081C61.7188 23.214 61.7001 23.1418 61.8111 23.4166C61.7599 23.9217 61.0429 24.701 60.6552 24.987C60.3974 25.0442 60.2764 25.1195 60.1076 25.3395C59.976 26.5707 60.9661 30.7308 60.6352 31.3708L60.5613 31.4241C58.7796 30.1895 57.4981 29.5244 55.3331 29.11C53.922 29.5135 53.7565 30.5582 52.9328 31.8437C52.9026 31.5286 52.8679 31.2141 52.8288 30.9C52.6826 29.8164 52.4344 28.749 52.0874 27.712C51.4061 25.7339 49.4504 21.9229 47.7861 20.6377C47.6734 19.1361 47.4107 17.6496 47.0021 16.2003C46.4375 14.1203 44.3086 8.82495 42.464 7.77166C40.1449 8.1194 38.1169 10.5166 36.8104 12.3169C36.3964 12.8874 36.0128 13.724 35.7021 14.3726C34.2392 13.9662 33.0426 13.9549 31.5483 13.9368C31.5849 13.7817 31.6129 13.5759 31.7229 13.4553C32.8463 12.2223 33.8835 10.5088 35.0045 9.33171C36.3545 7.91418 37.8712 6.79898 39.0197 5.14355Z" fill="#BA9AD2"/>
<path d="M60.1502 22.3379C60.5831 22.4594 61.1658 22.6478 61.4617 23.0098C61.7187 23.2157 61.7 23.1435 61.811 23.4183C61.7598 23.9234 61.0428 24.7027 60.6551 24.9887C60.3973 25.0459 60.2763 25.1212 60.1074 25.3412C59.3779 25.6867 58.6773 25.3116 58.0186 24.9899C57.7888 25.0042 56.6208 24.3469 56.5649 24.0439L56.6874 23.8794C57.1732 23.3856 58.0586 23.1765 58.7121 23.022L58.7413 22.9984C59.6575 22.6401 59.2854 22.3889 60.1502 22.3379Z" fill="#EB848A"/>
<path d="M61.462 23.0098C61.719 23.2157 61.7004 23.1435 61.8114 23.4183C61.7601 23.9234 61.0432 24.7027 60.6555 24.9887C60.3977 25.0459 60.2767 25.1212 60.1078 25.3412C59.3782 25.6867 58.6777 25.3116 58.019 24.9899C57.9877 24.8324 57.9804 24.9056 58.0297 24.7621C58.2513 24.9424 58.3256 24.978 58.5813 25.1061L58.5855 25.0718L58.2219 24.6203C58.537 24.8102 58.8777 24.9779 59.2058 25.1465C59.33 25.1179 59.8794 24.9912 59.9657 24.937C60.3967 24.6666 61.4357 24.0598 61.6129 23.6204C61.6165 23.3088 61.6292 23.4133 61.4274 23.1264L61.462 23.0098Z" fill="#E3666E"/>
<path d="M56.6875 23.8789C57.1733 23.3851 58.0587 23.176 58.7122 23.0215C58.2051 23.5961 57.7676 23.817 57.0199 23.8629C56.9092 23.8695 56.7984 23.8748 56.6875 23.8789Z" fill="#E3666E"/>
<path d="M54.4407 13.7471C55.0134 14.0159 54.991 14.2865 55.3265 14.8038C55.8246 14.887 56.3527 14.8592 56.4467 15.4343L56.4062 15.4855L56.2885 15.6965C56.0044 15.838 55.9941 15.9094 55.8372 16.1727C55.4667 16.946 55.1412 18.0166 54.2708 18.2511C54.1981 18.1703 54.0816 18.0663 54.0004 17.9891C53.9632 17.8601 53.9251 17.7313 53.8863 17.6027C53.5218 16.3989 53.1994 16.2546 52.124 15.6806C52.829 15.292 53.4146 15.2134 53.7641 14.5091L53.9863 14.121C54.147 13.8985 54.1774 13.8276 54.4407 13.7471Z" fill="#E2BF6B"/>
<path d="M54.0005 17.988L54.0345 17.975C54.7409 17.7102 54.9948 16.5306 55.6078 15.9916C55.8384 15.7888 56.1388 15.6328 56.4063 15.4844L56.2886 15.6954C56.0045 15.8369 55.9942 15.9083 55.8373 16.1716C55.4668 16.9449 55.1413 18.0155 54.2709 18.25C54.1983 18.1692 54.0817 18.0652 54.0005 17.988Z" fill="#E58E50"/>
<path d="M57.354 17.4814C57.9899 18.4173 59.2588 21.1899 59.5634 22.2796C59.7996 22.319 59.9123 22.3291 60.1501 22.3366C59.2853 22.3876 59.6574 22.6388 58.7412 22.9971L58.8632 22.7852C58.9039 21.1418 58.009 19.5169 57.228 18.0989L57.354 17.4814Z" fill="#8655B3"/>
<path d="M53.7641 14.5088C53.4146 15.2131 52.829 15.2917 52.124 15.6803C53.1994 16.2543 53.5218 16.3986 53.8863 17.6024C53.9252 17.731 53.9632 17.8598 54.0004 17.9888C54.0816 18.066 54.1982 18.17 54.2708 18.2508C53.1347 17.8593 52.4388 16.575 51.8296 15.5889C52.6404 15.235 53.09 15.0691 53.7641 14.5088Z" fill="#E3666E"/>
<path d="M55.8374 16.1725C55.9943 15.9092 56.0046 15.8378 56.2887 15.6963C56.6445 16.3497 56.8997 16.8872 57.3544 17.4826L57.2284 18.1001C56.9282 17.7879 56.1438 16.6105 55.8374 16.1725Z" fill="#9072B7"/>
<path d="M46.7124 8.24023L47.0469 8.57371C46.5869 8.82738 46.6984 9.10299 46.2971 9.36492L46.2158 9.32002C46.2945 8.77097 46.3458 8.65597 46.7124 8.24023Z" fill="#A07D9D"/>
<path d="M48.1018 11.29C49.2962 11.6253 49.4542 12.2057 48.7695 13.1648C48.4096 13.1237 47.6765 12.112 47.7856 11.7081C47.8621 11.4248 47.8973 11.4512 48.1018 11.29Z" fill="#8BBB8F"/>
<path d="M55.1422 47.8857C55.4574 48.311 55.603 48.5014 55.8352 48.977L56.0884 48.9792C56.3341 49.2476 55.8372 49.8664 55.6594 50.1629C55.4761 50.3632 55.2369 50.5649 55.2653 50.8578C55.0401 51.044 54.6675 51.3326 54.4756 51.5302C53.9687 52.0525 53.5688 52.7243 53.0524 53.2289C52.9141 53.3267 51.7576 54.5868 51.5175 54.8214C51.11 55.2196 49.8913 56.1964 49.6367 56.5291C49.4004 56.7506 47.3776 56.81 46.9212 56.8583C36.6781 57.9404 26.3322 57.707 16.1016 56.6147C15.2547 56.5242 14.3632 56.4839 13.5289 56.3739C13.361 56.2584 13.1019 55.9393 12.9665 55.7681C12.5594 55.2533 10.9223 54.0831 11.0962 53.4296C11.2362 53.4075 11.3176 53.3927 11.4544 53.3555L11.4549 53.2329C10.9941 52.5592 9.5415 51.3675 9.58698 50.7501C10.1901 50.3698 11.0307 50.0251 11.572 49.6197C12.0239 50.0363 12.7294 50.9155 13.0298 51.1312C13.3034 51.0008 13.7664 50.6266 13.9822 50.4154C14.6963 49.7166 15.6341 49.2733 16.6277 49.1695C16.9682 49.1339 18.189 49.7939 18.5974 49.9946C18.6155 50.1802 18.5709 50.6185 18.521 50.7992C18.2961 51.6139 19.1319 52.1487 19.6599 52.6264C20.9314 53.7768 22.7963 53.5025 24.2856 53.0023C25.5149 54.3822 25.6095 54.3782 27.4076 54.9596C27.4983 55.2345 27.6204 55.6488 27.7481 55.8958C29.2307 56.835 32.7428 57.3595 33.1261 54.9846C34.568 55.0076 36.6288 54.8437 37.9924 54.3626C38.3747 54.8439 39.1136 55.5469 39.7491 55.5846C40.7964 55.6469 42.3526 55.1809 43.1949 54.5216C43.6171 54.191 43.9941 53.6335 44.1668 53.1074C44.2153 52.9595 43.9279 52.7423 44.135 52.5903C44.3576 52.4269 44.7743 52.1764 45.0117 52.078C45.8989 52.0857 47.1769 52.0441 48.0399 51.9266C49.462 51.7331 51.5301 50.2753 52.3434 49.1193C52.4325 49.1578 52.5393 49.2039 52.6638 49.2577C53.6287 49.029 54.128 48.1467 55.1422 47.8857Z" fill="#D3BBDE"/>
<path d="M15.2555 54.4746C16.0174 54.4433 16.5321 54.803 17.2491 55.1138C16.7437 55.4297 16.5815 55.5553 16.1581 55.9643L15.9334 56.1385C15.4172 56.2066 14.5661 55.5881 14.6765 54.9235C14.7909 54.6881 15.02 54.6019 15.2555 54.4746Z" fill="#BA9AD2"/>
<path d="M49.8857 53.524C50.6851 53.5024 51.098 54.0912 50.5691 54.7749C50.3018 55.1203 49.8423 55.0685 49.4294 55.0765C49.2029 55.0905 49.0968 55.1106 48.8783 55.0316C48.5662 54.5655 49.5173 53.7472 49.8857 53.524Z" fill="white"/>
<path d="M53.1701 50.8477C53.4487 50.9199 53.6855 51.0563 53.857 51.2887C53.6149 51.2897 53.4417 51.3093 53.2219 51.2078C53.0971 51.022 53.1192 51.1136 53.1701 50.8477Z" fill="#9072B7"/>
<path d="M49.3257 43.809C52.3569 42.2694 52.6148 40.8275 56.0174 42.2793C56.2023 42.2619 56.2764 42.259 56.3711 42.075C57.2152 40.437 58.6445 37.5863 60.4281 36.8125C60.5267 37.0426 60.3733 37.6722 60.3339 37.9436C60.1885 38.9439 60.0354 39.9482 59.8 40.9318C59.6275 41.7366 58.517 44.8341 58.5769 45.4115C58.5097 45.6071 58.4006 45.6732 58.2435 45.8028C58.5863 46.395 59.003 46.6523 59.3324 47.2939C58.6905 48.6951 57.823 47.7346 56.7318 48.2084C56.4901 48.3133 56.1021 48.8073 55.8355 48.9764C55.6032 48.5009 55.4576 48.3104 55.1425 47.8852C54.1283 48.1462 53.629 49.0285 52.664 49.2572C52.5396 49.2034 52.4327 49.1573 52.3436 49.1187C52.3555 49.076 52.3659 49.033 52.375 48.9896L52.3882 48.9271C52.6559 47.6926 51.7409 46.8508 50.5084 47.0396C50.4104 46.7485 50.5463 46.3868 50.493 46.2462C50.1578 45.3617 49.9022 44.5356 49.3257 43.809Z" fill="#BA9AD2"/>
<path d="M56.8267 44.2998L56.8513 44.3152C57.3741 44.648 58.0589 45.1817 58.2435 45.8035C58.5864 46.3957 59.0031 46.653 59.3325 47.2946C58.6906 48.6958 57.8231 47.7353 56.7319 48.2091C56.4902 48.314 56.1022 48.808 55.8356 48.9771C55.6033 48.5016 55.4577 48.3111 55.1425 47.8859C54.6117 47.0367 55.3305 47.3481 55.4093 46.7965C55.2645 46.5333 54.9938 46.3973 54.7373 46.2357C55.4745 45.8217 56.3751 45.0186 56.8267 44.2998Z" fill="#9072B7"/>
<path d="M56.1015 40.8596C56.0805 38.8379 56.0315 36.8769 55.8767 34.8575C55.8198 34.1154 55.4288 33.1363 55.5904 32.5386C56.2838 31.7336 60.2736 33.909 61.2038 34.2992L61.4666 34.4168C62.5437 35.3675 62.6163 35.9246 61.1138 36.1406C58.6084 36.3465 57.319 38.9617 56.1015 40.8596Z" fill="#9C59B6"/>
<path d="M50.5087 47.0401C51.7411 46.8513 52.6561 47.6931 52.3885 48.9276L52.3752 48.9901C52.3662 49.0335 52.3557 49.0765 52.3439 49.1192C51.5306 50.2753 49.4625 51.7331 48.0404 51.9266C47.1774 52.044 45.8994 52.0857 45.0122 52.078C45.1399 51.3079 45.8287 49.8751 46.2299 49.1872C46.6768 49.1833 47.2257 49.2308 47.6549 49.3547C48.5533 49.6144 50.4257 47.8654 50.5087 47.0401Z" fill="#9072B7"/>
<path d="M52.8599 34.7342C52.9252 34.3297 52.9724 33.1425 53.0604 32.8875C53.4354 31.9438 54.1429 31.1091 54.6888 30.2606C55.2717 29.3547 55.6461 29.8505 56.4717 30.0287C58.6249 30.4934 59.628 31.4704 61.2222 32.8671C60.9167 33.1447 60.9855 33.4512 60.9901 33.8586C58.8541 32.6795 57.9885 32.2989 55.5788 31.6267C55.0733 32.9974 55.261 33.5496 55.2843 35.0058C55.0985 34.4147 54.9194 33.5569 54.2297 33.4588C53.7023 33.5991 53.2264 34.2945 52.8599 34.7342Z" fill="#452375"/>
<path d="M7.77038 47.5439C8.97697 47.9251 10.6222 48.7831 11.5722 49.6194C11.031 50.0248 10.1904 50.3695 9.58722 50.7499C9.54406 50.67 8.78442 49.8167 8.67312 49.6795C8.38085 49.2527 7.52272 48.0086 7.77038 47.5439Z" fill="#BA9AD2"/>
<path d="M3.74561 46.8893L3.86263 46.8466C3.94547 46.5642 4.36186 46.2112 4.6025 45.8975C4.5471 46.1959 4.33652 47.1844 4.46353 47.4285L4.58085 47.4813C4.29191 47.584 4.21805 47.4728 4.03635 47.5995C3.88312 47.4333 3.79593 47.1023 3.74561 46.8893Z" fill="#BA9AD2"/>
<path d="M39.3852 10.5928C40.5192 9.42501 40.8259 9.12811 42.3381 8.4873C43.2047 9.45688 44.1636 11.1224 44.514 12.3445C44.773 13.1454 44.63 16.9873 44.6321 18.011C44.3103 17.8058 44.0873 17.6305 43.7052 17.5808L43.5842 17.6331C43.7059 18.0577 45.0166 18.922 45.4134 19.2618C47.4211 20.9814 48.6001 22.4946 49.8932 24.7849C53.1639 30.5779 53.3207 38.2189 47.9115 42.7968C47.6637 42.4697 47.4351 42.0394 46.9969 42.025C46.6971 42.3619 47.2485 42.8685 47.4815 43.1101C46.6972 43.8395 45.8387 44.5243 44.8891 45.0316C44.3835 45.3018 43.8625 45.3041 43.6127 45.7762L43.6639 45.8739C44.1435 45.9482 44.5983 45.745 45.0396 45.5722L45.3392 45.4882C45.4954 45.5776 45.55 45.61 45.6041 45.8308C46.125 47.953 45.3045 49.6662 44.2816 51.4585C44.0638 51.8402 43.7454 52.1049 43.5083 52.429L43.3929 53.3915C42.8098 54.004 42.2177 54.4088 41.3989 54.6437C40.6912 54.8466 39.3432 55.2537 39.0348 54.2921C39.1557 53.723 40.2394 53.7052 40.6433 52.891L40.4062 52.8129C38.3827 53.6166 35.8116 54.2914 33.631 54.3389C33.1318 54.3497 31.3245 54.1 31.0259 54.3608C31.1837 54.5689 32.1618 54.8655 32.1469 55.234C32.0826 56.1648 30.5047 56.0452 29.8658 55.9737C28.5432 55.8256 28.1325 55.5678 28.0101 54.2856C26.3369 54.0857 24.9847 52.9944 24.3232 51.4841C23.9376 50.6038 23.8534 49.9386 23.7081 49.0011C24.5446 49.1776 25.3516 49.2495 26.2023 49.3213C26.599 49.3323 27.2551 49.3895 27.5961 49.2487C27.6234 49.0472 27.633 49.1304 27.5193 48.9209C27.1144 48.6269 26.009 48.7645 25.3366 48.6811C24.4744 48.676 22.9566 48.2137 22.1646 47.8735C22.3877 47.6685 22.7366 47.4364 22.7229 47.1342C22.2747 46.8599 21.944 47.2891 21.7278 47.6057C21.7026 47.6007 21.6774 47.5957 21.6523 47.5908C19.1229 46.6798 17.0685 44.7184 15.6285 42.4882C13.9203 39.8427 12.6572 34.5979 13.3628 31.4966C13.5057 29.6635 14.4238 26.9217 15.1908 25.2468C15.4769 24.622 16.3012 23.4631 16.3576 22.9717L16.2591 22.9014C15.9141 23.0187 15.5666 23.6124 15.369 23.9246C14.8572 24.6143 14.4753 25.7137 14.015 26.4991C13.827 26.0534 13.643 25.6061 13.4625 25.1574C12.7656 23.3814 12.7462 19.7229 13.5304 17.9184C13.0663 16.0596 13.3923 15.2182 14.0845 13.4497C15.3363 13.6445 17.9618 14.448 19.0219 15.0934C20.1434 15.416 21.0793 16.3457 21.8184 17.1857C21.0528 17.7223 20.6313 18.0788 20.1322 18.8619C20.4936 18.7004 21.8326 17.7744 22.2733 17.4829C22.4935 17.7281 22.7358 17.9669 23.0385 18.098C23.2611 18.0721 23.1799 18.1119 23.3403 17.941C23.2471 17.5247 23.0188 17.6387 22.9639 17.3092C25.319 15.4367 29.4643 14.6161 32.4222 14.7116C32.8952 14.7269 35.364 14.8684 35.6336 15.149C35.5387 15.2972 35.4428 15.4447 35.346 15.5917L35.3992 15.6793C35.951 15.7958 35.913 15.4138 36.3742 15.2315C36.843 15.0462 37.8153 15.4627 38.1875 15.3213C38.0336 14.9626 36.8025 14.6381 36.4173 14.5304C37.0275 13.6667 37.4315 12.6325 38.1316 11.8279C38.5148 11.3875 38.9573 10.9896 39.3852 10.5928Z" fill="#9072B7"/>
<path d="M45.0396 45.5713L45.3391 45.4873C45.4953 45.5767 45.5499 45.6091 45.604 45.8299C46.1249 47.9521 45.3044 49.6653 44.2815 51.4576C44.0638 51.8393 43.7453 52.104 43.5083 52.4281L43.3928 53.3905C42.8097 54.0031 42.2177 54.4078 41.3989 54.6427C40.6911 54.8457 39.3431 55.2528 39.0347 54.2912C39.1556 53.7221 40.2393 53.7042 40.6432 52.8901L40.4061 52.8119C38.3826 53.6157 35.8116 54.2904 33.6309 54.3379C33.1317 54.3488 31.3244 54.099 31.0258 54.3599C31.1836 54.5679 32.1617 54.8646 32.1468 55.2331C32.0825 56.1638 30.5046 56.0443 29.8657 55.9727C28.5431 55.8247 28.1324 55.5668 28.01 54.2846C26.3368 54.0848 24.9846 52.9935 24.3231 51.4832C23.9376 50.6029 23.8533 49.9377 23.708 49.0002C24.5446 49.1767 25.3515 49.2486 26.2022 49.3204C25.3114 49.5661 24.7771 49.2936 23.8799 49.2293C23.9279 49.6206 24.1627 51.0236 24.4183 51.2654C24.7046 51.5363 25.6461 51.5473 25.9616 51.6557C28.4908 52.517 27.818 55.2455 31.0221 53.3472C31.7628 52.9083 35.7547 53.7554 36.8863 53.2294C37.1429 53.1101 38.0752 52.9713 38.2846 53.3516C39.0842 53.0891 39.9133 52.8384 40.6594 52.4454C40.8634 52.338 40.9307 52.2479 41.1685 52.2251C41.175 52.2111 41.1816 52.1971 41.1882 52.1831C42.1936 51.1879 43.1434 50.0902 44.4899 49.5462C44.7579 49.4379 44.8606 49.5844 45.0609 49.6897L45.1199 49.6374C45.216 48.6488 46.2935 46.2205 45.0396 45.5713Z" fill="#643D95"/>
<path d="M41.2715 52.3701L41.3258 52.4808C41.1425 52.6526 40.8699 52.7748 40.6429 52.8911L40.4058 52.8129C40.6833 52.6381 40.9529 52.4412 41.2715 52.3701Z" fill="#190E34"/>
<path d="M13.5304 17.917C13.6268 18.2492 13.7597 18.7652 13.8835 19.0736C14.1691 20.1394 14.9373 22.9003 15.369 23.9231C14.8572 24.6129 14.4753 25.7122 14.015 26.4977C13.827 26.052 13.643 25.6047 13.4625 25.156C12.7656 23.38 12.7462 19.7214 13.5304 17.917Z" fill="#190E34"/>
<path d="M39.3853 10.5928C40.5193 9.42501 40.826 9.12811 42.3381 8.4873C43.2047 9.45688 44.1636 11.1224 44.5141 12.3445C44.1057 12.0636 44.0671 11.6768 43.8693 11.2219C43.7269 10.7455 43.3528 10.8039 42.8373 10.7318C41.9755 10.6112 41.4142 10.4167 40.6435 9.96676C40.1329 9.66869 40.0894 10.3689 39.7646 10.4662C40.2758 10.8237 41.595 10.9793 42.4802 11.5629L42.4526 11.5965C41.6845 11.3153 40.8813 11.0287 40.1057 10.7704C39.9046 10.7034 39.7109 10.706 39.3853 10.5928Z" fill="#643D95"/>
<path d="M13.3626 31.4971C13.3965 32.1302 13.4749 33.0572 13.4544 33.6612C13.3742 34.8654 13.5999 36.0228 13.8107 37.2018C13.8417 37.3756 14.1279 37.6449 14.1536 37.9309C14.4174 40.9162 16.1966 43.4366 18.3301 45.4395C19.1327 46.193 20.5208 47.0818 21.614 47.2851C21.9415 47.3459 22.0061 46.8524 22.2827 46.7461C22.5638 46.7973 22.6009 46.8236 22.8421 46.9759C23.1445 47.4844 22.5138 47.5505 22.5273 47.8576C23.2225 48.2488 25.0507 48.3987 25.3363 48.6816C24.4742 48.6765 22.9564 48.2142 22.1644 47.874C22.3875 47.669 22.7363 47.4368 22.7227 47.1346C22.2745 46.8604 21.9437 47.2896 21.7276 47.6062C21.7024 47.6012 21.6772 47.5962 21.6521 47.5913C19.1227 46.6803 17.0683 44.7189 15.6282 42.4887C13.9201 39.8432 12.657 34.5984 13.3626 31.4971Z" fill="#643D95"/>
<path d="M14.0843 13.4492C15.336 13.6439 17.9616 14.4475 19.0217 15.0928L18.9911 15.0891C18.5205 15.0283 15.4775 13.8457 15.3799 13.9233C15.2986 13.9879 15.2714 14.11 15.2394 14.2047C14.7362 14.3385 14.1162 14.1013 13.8273 14.6061C12.9144 16.2004 14.0882 18.3692 13.8832 19.0745C13.7595 18.7661 13.6266 18.2501 13.5301 17.9179C13.0661 16.0591 13.3921 15.2177 14.0843 13.4492Z" fill="#643D95"/>
<path d="M36.1355 34.5103C36.3351 34.4907 36.4538 34.4549 36.6244 34.5516C36.6651 34.8269 36.4472 34.9321 36.3734 35.1651C35.981 36.4054 37.9532 36.4823 38.6855 36.0518C39.43 35.6142 39.4093 35.61 39.6723 34.8684C40.0598 36.2721 39.5073 35.7867 39.5412 36.5635C39.6298 38.5971 40.3439 41.5394 38.3016 42.9148C37.5248 43.438 36.9938 43.5792 36.0835 43.404C33.6773 42.8932 32.318 40.1814 32.1633 37.9149C32.0075 37.775 31.9325 37.6889 31.8001 37.5337C31.7115 37.1611 31.7932 36.7689 32.216 36.6589C32.6718 36.5404 32.711 36.8799 33.053 37.0794C34.2504 37.7777 35.1162 36.5769 35.7101 35.7155C35.2924 35.5488 34.7606 35.44 34.9424 34.8857C35.2849 34.5368 35.6591 34.5546 36.1355 34.5103Z" fill="#000002"/>
<path d="M36.2522 36.3076C37.1989 37.1523 37.8751 36.9646 38.9657 36.4877C38.7107 37.6239 38.9396 38.5695 39.101 39.7193C39.1699 40.0495 39.0093 40.0549 39.0517 40.322C39.1807 41.6429 38.0719 42.899 36.75 42.9735C35.2428 43.0583 33.984 42.0276 33.6382 40.5914C33.6303 40.5583 33.6374 40.4717 33.6416 40.4338C33.5919 40.3327 33.5314 40.2719 33.4588 40.1868C32.9335 39.464 32.859 38.5217 32.7842 37.6669C34.1487 37.8575 35.346 37.3233 36.2522 36.3076Z" fill="#851E25"/>
<path d="M34.1991 39.929C34.4469 39.8589 34.8441 39.5867 35.3554 39.4704C36.5109 39.2074 37.0673 39.0426 38.1252 39.6389C38.4512 39.8645 38.7481 40.0637 39.0516 40.321C39.1805 41.6419 38.0718 42.898 36.7499 42.9725C35.2427 43.0573 33.9838 42.0266 33.6381 40.5904C33.6302 40.5573 33.6373 40.4706 33.6415 40.4328L34.1991 39.929Z" fill="#E3666E"/>
<path d="M38.1252 39.6397C38.551 39.3423 38.566 39.8134 39.0286 39.8698L39.101 39.7191C39.1699 40.0493 39.0093 40.0547 39.0517 40.3219C38.7482 40.0646 38.4513 39.8653 38.1252 39.6397Z" fill="#58030C"/>
<path d="M33.4587 40.1863C33.7561 39.9892 33.8586 39.8929 34.1992 39.9295L33.6415 40.4333C33.5918 40.3322 33.5314 40.2714 33.4587 40.1863Z" fill="#58030C"/>
<path d="M24.8041 32.7119C25.593 32.7298 26.9736 33.1276 27.714 33.444C28.7917 33.9047 28.8795 33.8257 30.0157 33.7065L30.0892 33.7832C30.1117 34.4111 29.5139 34.323 29.0815 34.3399C29.9483 35.3363 30.2152 37.2197 29.7447 38.4414C29.4769 39.1366 29.1046 39.4682 28.5676 39.9352C26.5257 41.3696 24.0088 40.7164 23.0874 38.3828C22.4066 36.6587 22.843 35.2382 24.0122 33.8766C24.2609 33.5869 24.6688 33.0584 24.8041 32.7119Z" fill="#000002"/>
<path d="M24.6576 33.9843C26.3525 33.8166 27.0452 35.4918 25.3996 36.6844C25.1466 36.7416 24.9544 36.7765 24.694 36.7269C24.3906 36.671 24.1232 36.4938 23.9534 36.2362C23.4318 35.4274 23.9091 34.4581 24.6576 33.9843Z" fill="white"/>
<path d="M27.55 37.5227C27.8219 37.3346 27.7344 37.3323 27.9979 37.3694C28.2798 37.6202 28.299 38.2331 28.1311 38.5377C27.8186 38.7067 27.3242 38.7956 26.9923 38.6398C26.7706 38.1323 27.2082 37.836 27.55 37.5227Z" fill="#452375"/>
<path d="M27.5498 37.5227C27.8217 37.3346 27.7342 37.3323 27.9978 37.3694C28.2796 37.6202 28.2989 38.2331 28.1309 38.5377L27.9463 38.5279C27.838 38.4231 27.6376 37.7449 27.5498 37.5227Z" fill="#812087"/>
<path d="M42.7065 31.4989C41.9068 32.0665 41.305 34.2331 40.3593 34.0481C39.4153 33.3056 40.0399 31.4514 40.5651 30.5985C41.0993 29.7312 42.4732 28.8821 43.4381 28.6025C44.8527 29.1921 47.1815 30.3745 46.5182 32.4879C46.4763 32.6218 46.2992 32.8012 46.1595 32.8305C45.048 33.0634 44.8126 31.7308 43.9187 31.302C43.4661 31.3509 43.1492 31.3771 42.7065 31.4989Z" fill="#000002"/>
<path d="M42.729 31.1913C42.7752 30.9083 42.7982 30.8792 42.989 30.6673C43.4905 30.4625 43.6243 30.7143 43.8268 31.1343L43.9187 31.302C43.4661 31.3509 43.1492 31.3771 42.7065 31.4989L42.729 31.1913Z" fill="#A07D9D"/>
<path d="M42.7292 31.1898C43.0849 31.1844 43.4697 31.154 43.8271 31.1328L43.9189 31.3005C43.4664 31.3494 43.1495 31.3756 42.7068 31.4974L42.7292 31.1898Z" fill="#190E34"/>
<path d="M22.0434 40.0625C22.1828 40.0523 22.3845 40.032 22.5225 40.0356C24.5804 40.09 24.269 42.2889 22.3425 42.6992C21.9375 42.7464 21.3762 42.7274 21.0036 42.5241C20.4054 42.1975 20.2999 41.4742 20.6375 40.907C20.9803 40.331 21.4321 40.2189 22.0434 40.0625Z" fill="#BC6FB1"/>
<path d="M47.6229 32.7485C47.913 32.7143 48.3968 32.6605 48.6239 32.8241C50.0213 33.83 49.6756 34.7536 48.2144 35.1321C46.7248 35.374 45.9139 34.4236 46.6978 33.0418C47.0673 32.884 47.233 32.8414 47.6229 32.7485Z" fill="#BC6FB1"/>
<path d="M12.4811 41.9023C12.6849 42.4224 12.8898 42.3472 13.0087 42.5397C13.6959 42.8406 13.8486 42.9369 14.4741 43.3898C14.7895 43.4843 15.3095 43.6116 15.5204 43.8389C16.4661 44.8583 17.2243 45.8084 18.3643 46.6374C18.7877 46.9452 20.2468 47.6259 20.4327 47.9393C20.4174 48.2567 20.0493 48.5872 19.8258 48.8249C18.4708 48.8167 17.7016 48.4471 16.6471 48.4309C15.4184 48.7298 14.3644 48.9832 13.5229 49.9149C13.0431 48.722 12.8123 47.0546 12.5992 45.759C12.4585 45.5397 12.6121 44.9166 12.5404 44.6924C12.4197 44.3152 12.2338 44.4931 12.2261 44.0558C12.3409 43.9004 12.343 43.8179 12.3823 43.6303C12.4388 43.064 12.5147 42.468 12.4811 41.9023Z" fill="#8655B3"/>
<path d="M14.474 43.3906C14.7894 43.4851 15.3095 43.6124 15.5203 43.8397C16.466 44.8591 17.2242 45.8093 18.3642 46.6383C18.7876 46.9461 20.2468 47.6267 20.4326 47.9401C20.4174 48.2575 20.0492 48.588 19.8257 48.8258C18.4707 48.8175 17.7015 48.4479 16.647 48.4318C17.119 48.2606 17.1704 48.5518 17.4669 47.9904C17.4049 47.3986 14.1603 44.8047 14.474 43.3906Z" fill="#643D95"/>
<path d="M12.4811 41.9023C12.6849 42.4224 12.8898 42.3472 13.0087 42.5397C12.535 43.1987 12.7579 45.1263 12.5992 45.759C12.4585 45.5397 12.6121 44.9166 12.5404 44.6924C12.4197 44.3152 12.2338 44.4931 12.2261 44.0558C12.3409 43.9004 12.343 43.8179 12.3823 43.6303C12.4388 43.064 12.5147 42.468 12.4811 41.9023Z" fill="#00000D"/>
<path d="M10.926 41.2021C11.0371 41.2187 11.0445 41.2384 11.1441 41.2985C11.4727 41.977 11.6161 43.7636 11.7792 44.6069C12.0967 46.2477 12.5927 48.0551 12.7544 49.6965C11.5817 48.7556 10.8959 48.1255 9.49532 47.4266C7.70897 46.691 7.05694 46.7007 5.19238 46.7125C5.987 44.6544 8.97328 42.2333 10.926 41.2021Z" fill="#A15FBA"/>
<path d="M53.8081 34.2643L54.2769 33.7324C54.8252 34.9008 55.4192 36.8831 55.5345 38.1706C55.6205 39.1293 55.5529 40.1911 55.784 41.1511C55.1237 40.9739 53.1942 40.7033 52.6213 40.9736C51.9411 41.5831 51.4117 41.886 50.5698 42.229C50.0094 42.4351 49.2001 42.9262 48.6289 43.2252C49.3238 42.4765 49.4959 42.4397 50.103 41.5028C50.2734 40.9788 51.3147 39.8234 51.572 39.2756C52.5529 37.1869 52.2393 36.115 53.8081 34.2643Z" fill="#8655B3"/>
<path d="M53.8081 34.2646C53.781 36.6047 52.9206 38.5269 52.4346 40.7621C52.4238 40.8117 52.5671 40.947 52.6213 40.9739C51.9411 41.5834 51.4117 41.8863 50.5698 42.2293C50.0094 42.4355 49.2001 42.9265 48.6289 43.2255C49.3238 42.4769 49.4959 42.44 50.103 41.5032C50.2734 40.9792 51.3147 39.8238 51.572 39.276C52.5529 37.1873 52.2393 36.1154 53.8081 34.2646Z" fill="#643D95"/>
<path d="M48.6289 43.2243C49.3238 42.4757 49.4959 42.4388 50.103 41.502C50.0225 41.7223 49.8263 42.103 49.8917 42.2683C50.1166 42.3187 50.3398 42.2642 50.5698 42.2281C50.0094 42.4342 49.2001 42.9253 48.6289 43.2243Z" fill="#573474"/>
<path d="M5.43945 45.4316C5.93108 43.2673 6.53858 42.1028 8.12781 40.4399C8.65174 39.8917 10.1514 38.6336 10.8995 38.6289C11.3189 38.7866 11.8315 39.4177 12.1913 39.641C14.0868 40.8174 14.2133 41.1079 15.1536 43.0827C14.7004 42.8867 12.7913 41.7962 12.5348 41.7552L12.4814 41.9018C12.515 42.4674 12.4392 43.0634 12.3827 43.6298C12.3433 43.8173 12.3412 43.8998 12.2264 44.0552L12.0648 43.3932C12.0509 42.9961 11.9556 42.5756 11.8975 42.1852C11.7053 40.8953 11.4117 40.3272 10.0931 41.1627C8.84871 41.9511 7.62575 42.8764 6.56892 43.9037C6.22705 44.2475 5.77495 44.9977 5.43945 45.4316Z" fill="#452375"/>
<path d="M12.0647 43.3936L12.1518 43.1379L12.2548 43.1006C12.3557 43.3286 12.357 43.3921 12.3826 43.6302C12.3433 43.8177 12.3412 43.9002 12.2263 44.0556L12.0647 43.3936Z" fill="#573474"/>
<path d="M47.9887 43.3789C48.6938 43.7873 49.2934 44.8903 49.708 45.5898C49.5524 46.998 50.0988 47.3544 48.6456 48.3073C48.3664 48.4904 48.2904 48.914 47.8438 48.8519L47.7455 48.6911C47.3552 48.1831 46.839 48.4339 46.2963 48.5648L46.6228 47.574C46.4674 47.1427 46.4031 46.5515 46.3264 46.0888C46.2403 45.5697 46.2016 45.6649 45.981 45.2264C46.8092 44.5638 47.2713 44.1548 47.9887 43.3789Z" fill="#724DA3"/>
<path d="M21.3673 48.1992C21.8885 48.4887 22.8127 48.7499 23.4033 48.9099C23.2736 50.064 23.6032 51.094 24.0046 52.15C23.9178 52.1966 23.8303 52.2417 23.7419 52.2853C22.8115 52.7414 21.8515 52.8161 20.8742 52.4823L20.2219 52.0873C20.5067 51.882 21.0463 51.5686 20.9824 51.199C20.3955 50.9281 20.0153 51.6393 19.5225 51.5538C19.2825 51.2235 19.2314 50.4123 19.3342 50.0214C19.5185 49.9472 19.6746 50.0454 19.9094 50.1157C20.2536 50.0351 20.9806 48.7035 21.3673 48.1992Z" fill="#7351AC"/>
</svg>
