<svg width="148" height="117" viewBox="0 0 148 117" fill="none" xmlns="http://www.w3.org/2000/svg">
<g filter="url(#filter0_f_1389_1629)">
<ellipse cx="77.5101" cy="95.5642" rx="44.4875" ry="6.22825" fill="#5E3E99" fill-opacity="0.46"/>
</g>
<g filter="url(#filter1_i_1389_1629)">
<path d="M42.7457 1.13723C46.7154 1.44259 54.6543 10.1588 58.0937 15.2799C58.1237 15.2649 58.1533 15.2501 58.1826 15.2356C58.8694 14.895 59.3459 14.6896 59.3459 14.6896C55.5653 8.98896 45.5427 -0.444713 42.3848 0.416429C39.8348 1.11177 35.1718 18.4587 34.4773 29.2852C34.217 33.3436 34.217 37.2247 34.217 37.2247C36.4967 32.8187 39.3344 29.2874 41.3991 27.0251C39.4977 22.4295 39.8671 0.9158 42.7457 1.13723Z" fill="#1C1135"/>
<path d="M58.0937 15.2799C58.0937 15.2799 59.1873 17.0151 59.7073 16.6542C60.2272 16.2934 59.3459 14.6896 59.3459 14.6896C59.3459 14.6896 58.8694 14.895 58.1826 15.2356L58.0937 15.2799Z" fill="#1C1135"/>
<path d="M118.531 22.4297C118.302 13.9422 115.443 0.415483 113.118 0.415457C107.423 0.415395 98.0714 10.7396 95.7959 13.4074L95.0741 14.2319C95.4746 14.3962 95.8615 14.5648 96.2323 14.7374C96.4821 14.4027 96.7395 14.0696 96.9942 13.7682C101.57 8.35495 109.433 1.24235 112.758 1.49812C115.284 1.69244 115.645 23.5122 113.118 27.7327C115.059 29.9775 116.911 32.5326 118.531 35.4214C118.531 35.4214 118.761 30.9171 118.531 22.4297Z" fill="#1C1135"/>
<path d="M95.0741 14.2319C95.0741 14.2319 93.1857 17.0162 94.3523 17.0162C94.5702 17.0162 95.0813 16.3135 95.6975 15.4663C95.869 15.2305 96.0486 14.9835 96.2323 14.7374C95.8615 14.5648 95.4746 14.3962 95.0741 14.2319Z" fill="#1C1135"/>
<path d="M78.8341 10.8812C70.1728 10.8812 65.12 12.1634 59.3459 14.6896C59.3459 14.6896 60.2272 16.2934 59.7073 16.6542C59.1873 17.0151 58.0937 15.2799 58.0937 15.2799C54.6543 10.1588 46.7154 1.44259 42.7457 1.13723C39.8671 0.9158 39.4977 22.4295 41.3991 27.0251C39.3344 29.2874 36.4967 32.8187 34.217 37.2247C32.9715 39.632 31.8926 42.3003 31.1972 45.1653C27.1165 61.9792 33.2499 76.6265 47.0762 87.0281C56.747 94.3035 67.6471 94.9676 77.0297 94.9676C82.4434 94.9676 96.7261 94.6067 107.447 86.6632C129.358 70.4273 122.452 45.3427 121.057 41.5566C120.888 41.0971 120.731 40.6587 120.58 40.2358C119.956 38.4946 119.426 37.0173 118.531 35.4214C116.911 32.5326 115.059 29.9775 113.118 27.7327C115.645 23.5122 115.284 1.69244 112.758 1.49812C109.433 1.24235 101.57 8.35495 96.9942 13.7682C96.7395 14.0696 96.4821 14.4027 96.2323 14.7374C96.0486 14.9835 95.869 15.2305 95.6975 15.4663C95.0813 16.3135 94.5702 17.0162 94.3523 17.0162C93.1857 17.0162 95.0741 14.2319 95.0741 14.2319C90.2032 12.2337 83.3232 10.8812 78.8341 10.8812Z" fill="#A289CB"/>
</g>
<path d="M99.4048 16.6553C98.6066 15.9793 97.5153 15.3346 96.2323 14.7374M59.3459 14.6896C65.12 12.1634 70.1728 10.8812 78.8341 10.8812C83.3232 10.8812 90.2032 12.2337 95.0741 14.2319M59.3459 14.6896C55.5653 8.98896 45.5427 -0.444713 42.3848 0.416429C39.8348 1.11177 35.1718 18.4587 34.4773 29.2852C34.217 33.3436 34.217 37.2247 34.217 37.2247M59.3459 14.6896C59.3459 14.6896 60.2272 16.2934 59.7073 16.6542C59.1873 17.0151 58.0937 15.2799 58.0937 15.2799M58.0937 15.2799C58.1237 15.2649 58.1533 15.2501 58.1826 15.2356C58.8694 14.895 59.3459 14.6896 59.3459 14.6896M118.531 35.4214C118.531 35.4214 118.761 30.9171 118.531 22.4297C118.302 13.9422 115.443 0.415483 113.118 0.415457C107.423 0.415395 98.0714 10.7396 95.7959 13.4074L95.0741 14.2319M44.189 24.2339C44.189 24.2339 43.0374 25.23 41.3991 27.0251C39.3344 29.2874 36.4967 32.8187 34.217 37.2247C32.9715 39.632 31.8926 42.3003 31.1972 45.1653C27.1165 61.9792 33.2499 76.6265 47.0762 87.0281C56.747 94.3035 67.6471 94.9676 77.0297 94.9676C82.4434 94.9676 96.7261 94.6067 107.447 86.6632C129.358 70.4273 122.452 45.3427 121.057 41.5566C120.888 41.0971 120.731 40.6587 120.58 40.2358C119.956 38.4946 119.426 37.0173 118.531 35.4214C116.911 32.5326 115.059 29.9775 113.118 27.7327C112.406 26.9086 111.682 26.1263 110.953 25.3847M54.6543 17.3771C55.7257 16.5203 57.1788 15.7335 58.1826 15.2356M95.0741 14.2319C95.0741 14.2319 93.1857 17.0162 94.3524 17.0162C94.5702 17.0162 95.0813 16.3135 95.6975 15.4663C95.869 15.2305 96.0486 14.9835 96.2323 14.7374M95.0741 14.2319C95.4746 14.3962 95.8615 14.5648 96.2323 14.7374M113.118 27.7327C115.645 23.5122 115.284 1.69244 112.758 1.49812C109.433 1.24235 101.57 8.35495 96.9942 13.7682C96.7395 14.0696 96.4821 14.4027 96.2323 14.7374M58.0937 15.2799C54.6543 10.1588 46.7154 1.44259 42.7457 1.13723C39.8671 0.9158 39.4977 22.4295 41.3991 27.0251M58.0937 15.2799L58.1826 15.2356" stroke="#1C1135" stroke-width="0.721772" stroke-linecap="round"/>
<path d="M107.11 19.0859C110.639 22.1637 112.281 22.7608 112.915 23.5559C115.139 19.464 114.714 1.87026 112.475 1.69025C109.527 1.45332 101.944 8.36831 97.908 13.6209C97.6833 13.9133 98.1282 13.2962 97.908 13.6209C97.908 13.6209 103.581 16.008 107.11 19.0859Z" fill="url(#paint0_linear_1389_1629)"/>
<path d="M47.65 19.0104C44.3329 22.1397 41.7372 23.3719 41.141 24.1802C40.0584 20.9323 40.4193 1.52248 42.6139 1.331C45.1108 1.11314 52.5072 8.11568 56.2987 13.4533C56.5098 13.7504 56.0918 13.1234 56.2987 13.4533C56.2987 13.4533 50.967 15.8811 47.65 19.0104Z" fill="url(#paint1_linear_1389_1629)"/>
<path d="M6.25737 57.0865C3.73117 59.1255 2.64854 59.9736 0.483224 62.4998C1.07035 62.7933 2.53616 62.0906 4.09206 62.1389C5.80578 62.1921 6.9271 62.3646 8.42269 62.8607C10.9467 63.6977 12.1264 64.8009 14.1969 66.4695C16.6035 68.4091 18.8885 71.8828 19.6102 72.2437C19.4693 68.7203 19.402 69.204 19.2493 65.6811C19.127 64.171 19.0419 59.4734 19.2493 57.0865C19.4599 54.6627 20.3319 52.0341 20.3319 51.3123C20.3319 50.779 19.7909 49.147 18.8884 49.147C18.1666 49.147 14.9189 50.7432 12.7533 52.0341C9.89616 53.7371 8.91213 54.9436 6.25737 57.0865Z" fill="#A974D2"/>
<path d="M26.467 55.6429C23.5799 53.8385 23.219 52.0341 22.4973 52.0341C21.7756 52.034 21.1606 55.0589 20.5705 57.0865C19.6216 60.347 19.4879 62.7274 19.2493 65.6811C19.402 69.204 19.4693 68.7203 19.6102 72.2437C20.3319 72.6046 22.757 70.2703 25.0234 69.7175C27.7619 69.0496 29.4511 69.317 32.2412 69.7175C35.1541 70.1356 39.4589 72.2437 39.4589 72.2437C39.4589 72.2437 36.0067 68.3028 34.4065 65.3869C32.9459 62.7255 31.5194 58.1691 31.5194 58.1691C31.5194 58.1691 28.2873 56.7807 26.467 55.6429Z" fill="#A974D2"/>
<path d="M29.715 51.6732C29.715 51.6732 26.69 50.1866 25.0235 48.4253C23.4114 46.7215 21.7755 43.373 20.6929 43.012C19.6124 42.6518 17.0744 43.8222 14.9318 44.8103L14.9187 44.8164C11.0011 46.623 8.06186 49.147 5.53566 52.0341C2.33551 55.6913 -0.2386 62.1389 0.483224 62.4998C2.64854 59.9736 3.73117 59.1255 6.25737 57.0865C8.91213 54.9436 9.89616 53.7371 12.7533 52.0341C14.9189 50.7432 18.1666 49.147 18.8884 49.147C19.7909 49.147 20.3319 50.779 20.3319 51.3123C20.3319 52.0341 19.4599 54.6627 19.2493 57.0865C19.0419 59.4734 19.127 64.171 19.2493 65.6811C19.4879 62.7274 19.6216 60.347 20.5705 57.0865C21.1606 55.0589 21.7756 52.034 22.4973 52.0341C23.219 52.0341 23.5799 53.8385 26.467 55.6429C28.2873 56.7807 31.5194 58.1691 31.5194 58.1691L29.715 51.6732Z" fill="#43277B"/>
<path d="M14.9187 44.8164C11.0011 46.623 8.06186 49.147 5.53566 52.0341C2.33551 55.6913 -0.2386 62.1389 0.483224 62.4998M14.9187 44.8164L14.9318 44.8103M31.5194 58.1691L29.715 51.6732C29.715 51.6732 26.69 50.1866 25.0235 48.4253C23.4114 46.7215 21.7755 43.373 20.6929 43.012C19.6124 42.6518 17.0744 43.8222 14.9318 44.8103C14.9274 44.8123 14.9231 44.8143 14.9187 44.8164M0.483224 62.4998C2.64854 59.9736 3.73117 59.1255 6.25737 57.0865C8.91213 54.9436 9.89616 53.7371 12.7533 52.0341C14.9189 50.7432 18.1666 49.147 18.8884 49.147C19.7909 49.147 20.3319 50.779 20.3319 51.3123C20.3319 52.0341 19.4599 54.6627 19.2493 57.0865C19.0419 59.4734 19.127 64.171 19.2493 65.6811M0.483224 62.4998C1.07035 62.7933 2.53616 62.0906 4.09206 62.1389C5.80578 62.1921 6.9271 62.3646 8.42269 62.8607C10.9467 63.6977 12.1264 64.8009 14.1969 66.4695C16.6035 68.4091 18.8885 71.8828 19.6102 72.2437M19.2493 65.6811C19.402 69.204 19.4693 68.7203 19.6102 72.2437M19.2493 65.6811C19.4879 62.7274 19.6216 60.347 20.5705 57.0865C21.1606 55.0589 21.7756 52.034 22.4973 52.0341C23.219 52.0341 23.5799 53.8385 26.467 55.6429C28.2873 56.7807 31.5194 58.1691 31.5194 58.1691M31.5194 58.1691C31.5194 58.1691 32.9459 62.7255 34.4065 65.3869C36.0067 68.3028 39.4589 72.2437 39.4589 72.2437C39.4589 72.2437 35.1541 70.1356 32.2412 69.7175C29.4511 69.317 27.7619 69.0496 25.0234 69.7175C22.757 70.2703 20.3319 72.6046 19.6102 72.2437" stroke="#0D0C12" stroke-width="0.721772" stroke-linecap="round"/>
<path d="M126.432 48.4265C125.081 49.9048 122.463 51.6744 122.463 51.6744L121.38 57.0875C121.38 57.0875 123.111 56.1601 124.267 55.283C125.379 54.4398 126.793 52.7566 127.154 52.7568C128.237 52.7576 129.32 60.3355 129.32 63.5834C129.32 58.7917 129.32 51.3136 129.32 51.3136C129.32 50.4111 129.907 49.2239 130.763 49.5091C132.928 50.2306 134.906 51.4162 137.62 53.4788C139.605 54.9876 140.915 56.0403 142.672 57.8095C144.289 59.4374 145.559 61.0574 147.003 62.501C148.446 62.1401 145.225 55.6475 142.672 52.0353C141.397 50.2307 138.342 47.2291 136.176 45.9002C133.744 44.4076 131.124 43.0129 129.68 43.3741C128.533 43.6612 128.015 46.6954 126.432 48.4265Z" fill="#442679"/>
<path d="M137.62 53.4788C134.906 51.4162 132.928 50.2306 130.763 49.5091C129.907 49.2239 129.32 50.4111 129.32 51.3136C129.32 51.3136 129.32 58.7917 129.32 63.5834C129.32 67.192 128.959 69.7188 128.598 72.6056C130.402 69.7185 132.696 67.1923 134.733 65.7487C135.815 64.9813 137.842 63.5201 140.146 62.8617C142.672 62.1396 144.838 62.1401 147.003 62.501C145.559 61.0574 144.289 59.4374 142.672 57.8095C140.915 56.0403 139.605 54.9876 137.62 53.4788Z" fill="#AA74D2"/>
<path d="M129.32 63.5834C129.32 60.3355 128.237 52.7576 127.154 52.7568C126.793 52.7566 125.379 54.4398 124.267 55.283C123.111 56.1601 121.38 57.0875 121.38 57.0875L120.297 60.3355C119.579 62.4913 118.919 63.4266 117.771 65.3881C116.526 67.516 114.523 70.8014 114.523 70.8014C114.523 70.8014 119.37 69.2422 122.463 69.7188C125.024 70.1133 126.793 71.162 128.598 72.6056C128.959 69.7188 129.32 67.192 129.32 63.5834Z" fill="#AA74D2"/>
<path d="M120.297 60.3355C119.579 62.4913 118.919 63.4266 117.771 65.3881C116.526 67.516 114.523 70.8014 114.523 70.8014C114.523 70.8014 119.37 69.2422 122.463 69.7188C125.024 70.1133 126.793 71.162 128.598 72.6056C130.402 69.7185 132.696 67.1923 134.733 65.7487C135.815 64.9813 137.842 63.5201 140.146 62.8617C142.672 62.1396 144.838 62.1401 147.003 62.501C148.446 62.1401 145.225 55.6475 142.672 52.0353C141.397 50.2307 138.342 47.2291 136.176 45.9002C133.744 44.4076 131.124 43.0129 129.68 43.3741C128.533 43.6612 128.015 46.6954 126.432 48.4265C125.081 49.9048 122.463 51.6744 122.463 51.6744L121.38 57.0875M147.003 62.501C145.559 61.0574 144.289 59.4374 142.672 57.8095C140.915 56.0403 139.605 54.9876 137.62 53.4788C134.906 51.4162 132.928 50.2306 130.763 49.5091C129.907 49.2239 129.32 50.4111 129.32 51.3136M129.32 51.3136C129.32 54.9222 129.32 59.9748 129.32 63.5834M129.32 51.3136C129.32 51.3136 129.32 58.7917 129.32 63.5834M129.32 63.5834C129.32 60.3355 128.237 52.7576 127.154 52.7568C126.793 52.7566 125.379 54.4398 124.267 55.283C123.111 56.1601 121.38 57.0875 121.38 57.0875M129.32 63.5834C129.32 67.192 128.959 69.7188 128.598 72.6056M121.38 57.0875C121.38 57.0875 120.752 58.9719 120.297 60.3355M121.38 57.0875L120.297 60.3355" stroke="#0D0C12" stroke-width="0.721772" stroke-linecap="round"/>
<path d="M6.25737 57.0865C3.73117 59.1255 2.64854 59.9736 0.483224 62.4998C1.07035 62.7933 2.53616 62.0906 4.09206 62.1389C5.80578 62.1921 6.9271 62.3646 8.42269 62.8607C10.9467 63.6977 12.1264 64.8009 14.1969 66.4695C16.6035 68.4091 18.8885 71.8828 19.6102 72.2437C19.4693 68.7203 19.402 69.204 19.2493 65.6811C19.127 64.171 19.0419 59.4734 19.2493 57.0865C19.4599 54.6627 20.3319 52.0341 20.3319 51.3123C20.3319 50.779 19.7909 49.147 18.8884 49.147C18.1666 49.147 14.9189 50.7432 12.7533 52.0341C9.89616 53.7371 8.91213 54.9436 6.25737 57.0865Z" fill="#A974D2"/>
<path d="M26.467 55.6429C23.5799 53.8385 23.219 52.0341 22.4973 52.0341C21.7756 52.034 21.1606 55.0589 20.5705 57.0865C19.6216 60.347 19.4879 62.7274 19.2493 65.6811C19.402 69.204 19.4693 68.7203 19.6102 72.2437C20.3319 72.6046 22.757 70.2703 25.0234 69.7175C27.7619 69.0496 29.4511 69.317 32.2412 69.7175C35.1541 70.1356 39.4589 72.2437 39.4589 72.2437C39.4589 72.2437 36.0067 68.3028 34.4065 65.3869C32.9459 62.7255 31.5194 58.1691 31.5194 58.1691C31.5194 58.1691 28.2873 56.7807 26.467 55.6429Z" fill="#A974D2"/>
<path d="M29.715 51.6732C29.715 51.6732 26.69 50.1866 25.0235 48.4253C23.4114 46.7215 21.7755 43.373 20.6929 43.012C19.6124 42.6518 17.0744 43.8222 14.9318 44.8103L14.9187 44.8164C11.0011 46.623 8.06186 49.147 5.53566 52.0341C2.33551 55.6913 -0.2386 62.1389 0.483224 62.4998C2.64854 59.9736 3.73117 59.1255 6.25737 57.0865C8.91213 54.9436 9.89616 53.7371 12.7533 52.0341C14.9189 50.7432 18.1666 49.147 18.8884 49.147C19.7909 49.147 20.3319 50.779 20.3319 51.3123C20.3319 52.0341 19.4599 54.6627 19.2493 57.0865C19.0419 59.4734 19.127 64.171 19.2493 65.6811C19.4879 62.7274 19.6216 60.347 20.5705 57.0865C21.1606 55.0589 21.7756 52.034 22.4973 52.0341C23.219 52.0341 23.5799 53.8385 26.467 55.6429C28.2873 56.7807 31.5194 58.1691 31.5194 58.1691L29.715 51.6732Z" fill="#43277B"/>
<path d="M14.9187 44.8164C11.0011 46.623 8.06186 49.147 5.53566 52.0341C2.33551 55.6913 -0.2386 62.1389 0.483224 62.4998M14.9187 44.8164L14.9318 44.8103M31.5194 58.1691L29.715 51.6732C29.715 51.6732 26.69 50.1866 25.0235 48.4253C23.4114 46.7215 21.7755 43.373 20.6929 43.012C19.6124 42.6518 17.0744 43.8222 14.9318 44.8103C14.9274 44.8123 14.9231 44.8143 14.9187 44.8164M0.483224 62.4998C2.64854 59.9736 3.73117 59.1255 6.25737 57.0865C8.91213 54.9436 9.89616 53.7371 12.7533 52.0341C14.9189 50.7432 18.1666 49.147 18.8884 49.147C19.7909 49.147 20.3319 50.779 20.3319 51.3123C20.3319 52.0341 19.4599 54.6627 19.2493 57.0865C19.0419 59.4734 19.127 64.171 19.2493 65.6811M0.483224 62.4998C1.07035 62.7933 2.53616 62.0906 4.09206 62.1389C5.80578 62.1921 6.9271 62.3646 8.42269 62.8607C10.9467 63.6977 12.1264 64.8009 14.1969 66.4695C16.6035 68.4091 18.8885 71.8828 19.6102 72.2437M19.2493 65.6811C19.402 69.204 19.4693 68.7203 19.6102 72.2437M19.2493 65.6811C19.4879 62.7274 19.6216 60.347 20.5705 57.0865C21.1606 55.0589 21.7756 52.034 22.4973 52.0341C23.219 52.0341 23.5799 53.8385 26.467 55.6429C28.2873 56.7807 31.5194 58.1691 31.5194 58.1691M31.5194 58.1691C31.5194 58.1691 32.9459 62.7255 34.4065 65.3869C36.0067 68.3028 39.4589 72.2437 39.4589 72.2437C39.4589 72.2437 35.1541 70.1356 32.2412 69.7175C29.4511 69.317 27.7619 69.0496 25.0234 69.7175C22.757 70.2703 20.3319 72.6046 19.6102 72.2437" stroke="#0D0C12" stroke-width="0.721772" stroke-linecap="round"/>
<path d="M126.432 48.4265C125.081 49.9048 122.463 51.6744 122.463 51.6744L121.38 57.0875C121.38 57.0875 123.111 56.1601 124.267 55.283C125.379 54.4398 126.793 52.7566 127.154 52.7568C128.237 52.7576 129.32 60.3355 129.32 63.5834C129.32 58.7917 129.32 51.3136 129.32 51.3136C129.32 50.4111 129.907 49.2239 130.763 49.5091C132.928 50.2306 134.906 51.4162 137.62 53.4788C139.605 54.9876 140.915 56.0403 142.672 57.8095C144.289 59.4374 145.559 61.0574 147.003 62.501C148.446 62.1401 145.225 55.6475 142.672 52.0353C141.397 50.2307 138.342 47.2291 136.176 45.9002C133.744 44.4076 131.124 43.0129 129.68 43.3741C128.533 43.6612 128.015 46.6954 126.432 48.4265Z" fill="#442679"/>
<path d="M137.62 53.4788C134.906 51.4162 132.928 50.2306 130.763 49.5091C129.907 49.2239 129.32 50.4111 129.32 51.3136C129.32 51.3136 129.32 58.7917 129.32 63.5834C129.32 67.192 128.959 69.7188 128.598 72.6056C130.402 69.7185 132.696 67.1923 134.733 65.7487C135.815 64.9813 137.842 63.5201 140.146 62.8617C142.672 62.1396 144.838 62.1401 147.003 62.501C145.559 61.0574 144.289 59.4374 142.672 57.8095C140.915 56.0403 139.605 54.9876 137.62 53.4788Z" fill="#AA74D2"/>
<path d="M129.32 63.5834C129.32 60.3355 128.237 52.7576 127.154 52.7568C126.793 52.7566 125.379 54.4398 124.267 55.283C123.111 56.1601 121.38 57.0875 121.38 57.0875L120.297 60.3355C119.579 62.4913 118.919 63.4266 117.771 65.3881C116.526 67.516 114.523 70.8014 114.523 70.8014C114.523 70.8014 119.37 69.2422 122.463 69.7188C125.024 70.1133 126.793 71.162 128.598 72.6056C128.959 69.7188 129.32 67.192 129.32 63.5834Z" fill="#AA74D2"/>
<path d="M120.297 60.3355C119.579 62.4913 118.919 63.4266 117.771 65.3881C116.526 67.516 114.523 70.8014 114.523 70.8014C114.523 70.8014 119.37 69.2422 122.463 69.7188C125.024 70.1133 126.793 71.162 128.598 72.6056C130.402 69.7185 132.696 67.1923 134.733 65.7487C135.815 64.9813 137.842 63.5201 140.146 62.8617C142.672 62.1396 144.838 62.1401 147.003 62.501C148.446 62.1401 145.225 55.6475 142.672 52.0353C141.397 50.2307 138.342 47.2291 136.176 45.9002C133.744 44.4076 131.124 43.0129 129.68 43.3741C128.533 43.6612 128.015 46.6954 126.432 48.4265C125.081 49.9048 122.463 51.6744 122.463 51.6744L121.38 57.0875M147.003 62.501C145.559 61.0574 144.289 59.4374 142.672 57.8095C140.915 56.0403 139.605 54.9876 137.62 53.4788C134.906 51.4162 132.928 50.2306 130.763 49.5091C129.907 49.2239 129.32 50.4111 129.32 51.3136M129.32 51.3136C129.32 54.9222 129.32 59.9748 129.32 63.5834M129.32 51.3136C129.32 51.3136 129.32 58.7917 129.32 63.5834M129.32 63.5834C129.32 60.3355 128.237 52.7576 127.154 52.7568C126.793 52.7566 125.379 54.4398 124.267 55.283C123.111 56.1601 121.38 57.0875 121.38 57.0875M129.32 63.5834C129.32 67.192 128.959 69.7188 128.598 72.6056M121.38 57.0875C121.38 57.0875 120.752 58.9719 120.297 60.3355M121.38 57.0875L120.297 60.3355" stroke="#0D0C12" stroke-width="0.721772" stroke-linecap="round"/>
<g filter="url(#filter2_i_1389_1629)">
<path d="M42.7457 1.13723C46.7154 1.44259 54.6543 10.1588 58.0937 15.2799C58.1237 15.2649 58.1533 15.2501 58.1826 15.2356C58.8694 14.895 59.3459 14.6896 59.3459 14.6896C55.5653 8.98896 45.5427 -0.444713 42.3848 0.416429C39.8348 1.11177 35.1718 18.4587 34.4773 29.2852C34.217 33.3436 34.217 37.2247 34.217 37.2247C36.4967 32.8187 39.3344 29.2874 41.3991 27.0251C39.4977 22.4295 39.8671 0.9158 42.7457 1.13723Z" fill="#1C1135"/>
<path d="M58.0937 15.2799C58.0937 15.2799 59.1873 17.0151 59.7073 16.6542C60.2272 16.2934 59.3459 14.6896 59.3459 14.6896C59.3459 14.6896 58.8694 14.895 58.1826 15.2356L58.0937 15.2799Z" fill="#1C1135"/>
<path d="M118.531 22.4297C118.302 13.9422 115.443 0.415483 113.118 0.415457C107.423 0.415395 98.0714 10.7396 95.7959 13.4074L95.0741 14.2319C95.4746 14.3962 95.8615 14.5648 96.2323 14.7374C96.4821 14.4027 96.7395 14.0696 96.9942 13.7682C101.57 8.35495 109.433 1.24235 112.758 1.49812C115.284 1.69244 115.645 23.5122 113.118 27.7327C115.059 29.9775 116.911 32.5326 118.531 35.4214C118.531 35.4214 118.761 30.9171 118.531 22.4297Z" fill="#1C1135"/>
<path d="M95.0741 14.2319C95.0741 14.2319 93.1857 17.0162 94.3523 17.0162C94.5702 17.0162 95.0813 16.3135 95.6975 15.4663C95.869 15.2305 96.0486 14.9835 96.2323 14.7374C95.8615 14.5648 95.4746 14.3962 95.0741 14.2319Z" fill="#1C1135"/>
<path d="M78.8341 10.8812C70.1728 10.8812 65.12 12.1634 59.3459 14.6896C59.3459 14.6896 60.2272 16.2934 59.7073 16.6542C59.1873 17.0151 58.0937 15.2799 58.0937 15.2799C54.6543 10.1588 46.7154 1.44259 42.7457 1.13723C39.8671 0.9158 39.4977 22.4295 41.3991 27.0251C39.3344 29.2874 36.4967 32.8187 34.217 37.2247C32.9715 39.632 31.8926 42.3003 31.1972 45.1653C27.1165 61.9792 33.2499 76.6265 47.0762 87.0281C56.747 94.3035 67.6471 94.9676 77.0297 94.9676C82.4434 94.9676 96.7261 94.6067 107.447 86.6632C129.358 70.4273 122.452 45.3427 121.057 41.5566C120.888 41.0971 120.731 40.6587 120.58 40.2358C119.956 38.4946 119.426 37.0173 118.531 35.4214C116.911 32.5326 115.059 29.9775 113.118 27.7327C115.645 23.5122 115.284 1.69244 112.758 1.49812C109.433 1.24235 101.57 8.35495 96.9942 13.7682C96.7395 14.0696 96.4821 14.4027 96.2323 14.7374C96.0486 14.9835 95.869 15.2305 95.6975 15.4663C95.0813 16.3135 94.5702 17.0162 94.3523 17.0162C93.1857 17.0162 95.0741 14.2319 95.0741 14.2319C90.2032 12.2337 83.3232 10.8812 78.8341 10.8812Z" fill="#A289CB"/>
</g>
<path d="M99.4048 16.6553C98.6066 15.9793 97.5153 15.3346 96.2323 14.7374M59.3459 14.6896C65.12 12.1634 70.1728 10.8812 78.8341 10.8812C83.3232 10.8812 90.2032 12.2337 95.0741 14.2319M59.3459 14.6896C55.5653 8.98896 45.5427 -0.444713 42.3848 0.416429C39.8348 1.11177 35.1718 18.4587 34.4773 29.2852C34.217 33.3436 34.217 37.2247 34.217 37.2247M59.3459 14.6896C59.3459 14.6896 60.2272 16.2934 59.7073 16.6542C59.1873 17.0151 58.0937 15.2799 58.0937 15.2799M58.0937 15.2799C58.1237 15.2649 58.1533 15.2501 58.1826 15.2356C58.8694 14.895 59.3459 14.6896 59.3459 14.6896M118.531 35.4214C118.531 35.4214 118.761 30.9171 118.531 22.4297C118.302 13.9422 115.443 0.415483 113.118 0.415457C107.423 0.415395 98.0714 10.7396 95.7959 13.4074L95.0741 14.2319M44.189 24.2339C44.189 24.2339 43.0374 25.23 41.3991 27.0251C39.3344 29.2874 36.4967 32.8187 34.217 37.2247C32.9715 39.632 31.8926 42.3003 31.1972 45.1653C27.1165 61.9792 33.2499 76.6265 47.0762 87.0281C56.747 94.3035 67.6471 94.9676 77.0297 94.9676C82.4434 94.9676 96.7261 94.6067 107.447 86.6632C129.358 70.4273 122.452 45.3427 121.057 41.5566C120.888 41.0971 120.731 40.6587 120.58 40.2358C119.956 38.4946 119.426 37.0173 118.531 35.4214C116.911 32.5326 115.059 29.9775 113.118 27.7327C112.406 26.9086 111.682 26.1263 110.953 25.3847M54.6543 17.3771C55.7257 16.5203 57.1788 15.7335 58.1826 15.2356M95.0741 14.2319C95.0741 14.2319 93.1857 17.0162 94.3524 17.0162C94.5702 17.0162 95.0813 16.3135 95.6975 15.4663C95.869 15.2305 96.0486 14.9835 96.2323 14.7374M95.0741 14.2319C95.4746 14.3962 95.8615 14.5648 96.2323 14.7374M113.118 27.7327C115.645 23.5122 115.284 1.69244 112.758 1.49812C109.433 1.24235 101.57 8.35495 96.9942 13.7682C96.7395 14.0696 96.4821 14.4027 96.2323 14.7374M58.0937 15.2799C54.6543 10.1588 46.7154 1.44259 42.7457 1.13723C39.8671 0.9158 39.4977 22.4295 41.3991 27.0251M58.0937 15.2799L58.1826 15.2356" stroke="#1C1135" stroke-width="0.721772" stroke-linecap="round"/>
<path d="M107.11 19.0859C110.639 22.1637 112.281 22.7608 112.915 23.5559C115.139 19.464 114.714 1.87026 112.475 1.69025C109.527 1.45332 101.944 8.36831 97.908 13.6209C97.6833 13.9133 98.1282 13.2962 97.908 13.6209C97.908 13.6209 103.581 16.008 107.11 19.0859Z" fill="url(#paint2_linear_1389_1629)"/>
<path d="M47.65 19.0104C44.3329 22.1397 41.7372 23.3719 41.141 24.1802C40.0584 20.9323 40.4193 1.52248 42.6139 1.331C45.1108 1.11314 52.5072 8.11568 56.2987 13.4533C56.5098 13.7504 56.0918 13.1234 56.2987 13.4533C56.2987 13.4533 50.967 15.8811 47.65 19.0104Z" fill="url(#paint3_linear_1389_1629)"/>
<path d="M47.2425 31.4018C45.6629 31.6065 45.8595 39.3584 44.8722 40.5063C43.885 41.6543 37.2286 43.2772 37.1717 44.8607C37.1148 46.4441 43.2134 48.8192 43.885 50.0067C44.5566 51.1943 44.0231 57.4451 45.8677 57.9237C47.7124 58.4023 51.4836 51.5323 52.7193 51.1605C53.9549 50.7887 61.1519 54.3183 62.2478 53.0052C63.3436 51.692 59.2338 46.84 59.0886 45.6524C58.9434 44.4648 62.9512 39.3188 62.2478 38.1312C61.5443 36.9437 55.1396 38.0777 53.9549 37.5375C52.7702 36.9973 48.8221 31.1971 47.2425 31.4018Z" fill="#C3AEE6"/>
<g filter="url(#filter3_f_1389_1629)">
<circle cx="107.183" cy="66.0435" r="4.33063" fill="#CD91D7"/>
</g>
<g filter="url(#filter4_f_1389_1629)">
<circle cx="47.2761" cy="66.0435" r="4.33063" fill="#CD91D7"/>
</g>
<path d="M62.4333 58.2676C62.4333 62.7431 59.1913 66.0595 55.5765 66.0595C51.9617 66.0595 48.7197 62.7431 48.7197 58.2676C48.7197 53.7921 51.9617 50.1641 55.5765 50.1641C59.1913 50.1641 62.4333 53.7921 62.4333 58.2676Z" fill="#040311"/>
<path d="M54.8051 54.9887C55.3392 56.4516 57.0342 57.2966 58.2335 56.8587C59.4329 56.4209 60.0142 54.8932 59.4801 53.4303C58.9461 51.9674 57.2512 51.1224 56.0518 51.5602C54.8524 51.998 54.2711 53.5258 54.8051 54.9887Z" fill="#FAFAF9"/>
<path d="M91.6651 59.9072C91.6651 59.9072 92.3175 55.9376 97.4392 55.9375C102.561 55.9374 103.213 59.9072 103.213 59.9072" stroke="#0D0C12" stroke-width="1.89017" stroke-linecap="round"/>
<path fill-rule="evenodd" clip-rule="evenodd" d="M76.2646 63.3781C75.6154 62.8936 74.5969 62.6085 74.6988 61.9616C74.8007 61.3146 75.6892 60.9711 76.7516 60.9911C77.6163 61.0073 78.5907 61.3146 78.7061 61.9616C78.8215 62.6087 77.8572 62.8936 77.3703 63.3781C77.0364 65.8438 80.8908 66.8006 81.3776 66.8144C87.0583 66.9759 85.909 64.0665 86.7205 65.1968C87.3203 66.0321 86.8456 66.6535 85.3849 67.1379C85.2304 67.9061 84.8775 68.6803 84.4626 69.2786C84.0053 69.9379 83.4727 70.3838 83.0473 70.3731C82.2358 70.3526 81.4614 67.5763 81.1368 67.5763C79.5057 67.5763 77.0762 66.123 76.7516 66.123C76.4269 66.123 74.2718 67.7896 72.6488 67.7896C72.3241 68.1125 71.3409 70.3731 70.6916 70.3731C70.4529 70.3731 70.2374 70.2421 70.012 69.9721C69.7201 69.6227 69.4115 69.0405 69.0142 68.208C68.8836 67.9343 68.7434 67.6335 68.5911 67.3052C67.7795 66.9822 66.133 66.4892 67.0183 65.5203C68.4962 63.9027 66.5041 66.8144 71.6934 66.8144C72.1803 66.8144 76.7025 66.1673 76.2646 63.3781ZM84.4626 67.7841C84.4626 67.4606 82.244 67.4853 82.125 67.7841C82.006 68.083 82.7209 69.7253 83.1268 69.7253C83.5327 69.7253 84.4626 68.1077 84.4626 67.7841ZM71.6727 67.917C71.3246 67.7844 69.9695 67.6587 69.7737 67.7881C69.5372 67.917 70.2938 69.7253 70.6994 69.7253C71.1051 69.7253 71.8401 67.9808 71.6727 67.917Z" fill="#1C1135"/>
<path d="M82.125 67.7841C82.244 67.4853 84.4626 67.4606 84.4626 67.7841C84.4626 68.1077 83.5327 69.7253 83.1268 69.7253C82.7209 69.7253 82.006 68.083 82.125 67.7841Z" fill="white"/>
<path d="M69.7737 67.7881C69.9695 67.6587 71.3246 67.7844 71.6727 67.917C71.8401 67.9808 71.1051 69.7253 70.6994 69.7253C70.2938 69.7253 69.5372 67.917 69.7737 67.7881Z" fill="white"/>
<path d="M71.2718 74.7833C72.2662 76.6646 74.0456 78.3553 77.2297 78.3922C81.0844 78.4368 82.8847 75.7655 83.7256 73.2604C83.7256 73.2604 81.9212 70.0916 77.5906 70.0916C73.2599 70.0916 71.2718 74.7833 71.2718 74.7833Z" fill="#F26C95"/>
<path d="M83.0473 70.3731C82.2358 70.3526 81.4614 67.5763 81.1368 67.5763C79.5057 67.5763 77.0762 66.123 76.7516 66.123C76.4269 66.123 74.2718 67.7896 72.6488 67.7896C72.3241 68.1125 71.3409 70.3731 70.6916 70.3731C70.4529 70.3731 70.2374 70.2421 70.012 69.9721C70.012 69.9721 70.0072 72.3911 71.2718 74.7833C71.2718 74.7833 73.2599 70.0916 77.5906 70.0916C81.9212 70.0916 83.7256 73.2604 83.7256 73.2604C84.4626 71.0649 84.4626 69.2786 84.4626 69.2786C84.0053 69.9379 83.4727 70.3838 83.0473 70.3731Z" fill="#B62C60"/>
<path d="M85.3849 67.1379C85.2304 67.9061 84.8775 68.6803 84.4626 69.2786C84.4626 69.2786 84.4626 71.0649 83.7256 73.2604C82.8847 75.7655 81.0844 78.4368 77.2297 78.3922C74.0456 78.3553 72.2662 76.6646 71.2718 74.7833C70.0072 72.3911 70.012 69.9721 70.012 69.9721C69.7201 69.6227 69.4115 69.0405 69.0142 68.208C69.0142 68.208 68.7545 78.8898 77.2297 79.0345C85.7049 79.1793 85.3849 67.1379 85.3849 67.1379Z" fill="#1C1135"/>
<path fill-rule="evenodd" clip-rule="evenodd" d="M107.905 49.4414C107.983 49.4414 108.06 49.4695 108.122 49.5215C108.185 49.5734 108.23 49.6464 108.252 49.7294L108.643 51.2358C108.727 51.5602 108.885 51.8557 109.102 52.0943C109.319 52.3328 109.588 52.5067 109.883 52.5993L111.252 53.0297C111.328 53.0534 111.394 53.1035 111.441 53.1723C111.488 53.2412 111.514 53.3251 111.514 53.4113C111.514 53.4975 111.488 53.5814 111.441 53.6502C111.394 53.7191 111.328 53.7692 111.252 53.7929L109.883 54.2233C109.588 54.3159 109.319 54.4898 109.102 54.7283C108.885 54.9669 108.727 55.2624 108.643 55.5868L108.252 57.0932C108.23 57.1761 108.185 57.249 108.122 57.3009C108.06 57.3528 107.983 57.3809 107.905 57.3809C107.827 57.3809 107.75 57.3528 107.688 57.3009C107.625 57.249 107.58 57.1761 107.558 57.0932L107.167 55.5868C107.083 55.2624 106.925 54.9669 106.708 54.7283C106.491 54.4898 106.222 54.3159 105.927 54.2233L104.558 53.7929C104.482 53.7692 104.416 53.7191 104.369 53.6502C104.322 53.5814 104.296 53.4975 104.296 53.4113C104.296 53.3251 104.322 53.2412 104.369 53.1723C104.416 53.1035 104.482 53.0534 104.558 53.0297L105.927 52.5993C106.222 52.5067 106.491 52.3328 106.708 52.0943C106.925 51.8557 107.083 51.5602 107.167 51.2358L107.558 49.7294C107.58 49.6464 107.625 49.5734 107.688 49.5215C107.75 49.4695 107.827 49.4414 107.905 49.4414Z" fill="#FFE031"/>
<g filter="url(#filter5_i_1389_1629)">
<ellipse cx="107.994" cy="78.9459" rx="4.24347" ry="4.24281" fill="#A289CB"/>
</g>
<path d="M107.993 75.0645C110.138 75.0645 111.876 76.8024 111.876 78.9463C111.876 81.09 110.137 82.8281 107.993 82.8281C105.849 82.828 104.112 81.0899 104.111 78.9463C104.111 76.8025 105.849 75.0646 107.993 75.0645Z" stroke="#1C1135" stroke-width="0.721772"/>
<g filter="url(#filter6_i_1389_1629)">
<ellipse cx="104.297" cy="86.2504" rx="8.66194" ry="8.66059" fill="#A289CB"/>
</g>
<path d="M104.297 77.9512C108.881 77.9513 112.597 81.6665 112.598 86.25C112.598 90.8337 108.881 94.5497 104.297 94.5498C99.7123 94.5498 95.9962 90.8337 95.9962 86.25C95.9964 81.6665 99.7125 77.9512 104.297 77.9512Z" stroke="#1C1135" stroke-width="0.721772"/>
<defs>
<filter id="filter0_f_1389_1629" x="18.6224" y="74.9357" width="117.775" height="41.2575" filterUnits="userSpaceOnUse" color-interpolation-filters="sRGB">
<feFlood flood-opacity="0" result="BackgroundImageFix"/>
<feBlend mode="normal" in="SourceGraphic" in2="BackgroundImageFix" result="shape"/>
<feGaussianBlur stdDeviation="7.20013" result="effect1_foregroundBlur_1389_1629"/>
</filter>
<filter id="filter1_i_1389_1629" x="29.5926" y="-5.0524" width="93.9565" height="100.381" filterUnits="userSpaceOnUse" color-interpolation-filters="sRGB">
<feFlood flood-opacity="0" result="BackgroundImageFix"/>
<feBlend mode="normal" in="SourceGraphic" in2="BackgroundImageFix" result="shape"/>
<feColorMatrix in="SourceAlpha" type="matrix" values="0 0 0 0 0 0 0 0 0 0 0 0 0 0 0 0 0 0 127 0" result="hardAlpha"/>
<feOffset dy="-5.0524"/>
<feGaussianBlur stdDeviation="3.60886"/>
<feComposite in2="hardAlpha" operator="arithmetic" k2="-1" k3="1"/>
<feColorMatrix type="matrix" values="0 0 0 0 0.380392 0 0 0 0 0.25098 0 0 0 0 0.607843 0 0 0 0.38 0"/>
<feBlend mode="normal" in2="shape" result="effect1_innerShadow_1389_1629"/>
</filter>
<filter id="filter2_i_1389_1629" x="29.5926" y="-5.0524" width="93.9565" height="100.381" filterUnits="userSpaceOnUse" color-interpolation-filters="sRGB">
<feFlood flood-opacity="0" result="BackgroundImageFix"/>
<feBlend mode="normal" in="SourceGraphic" in2="BackgroundImageFix" result="shape"/>
<feColorMatrix in="SourceAlpha" type="matrix" values="0 0 0 0 0 0 0 0 0 0 0 0 0 0 0 0 0 0 127 0" result="hardAlpha"/>
<feOffset dy="-5.0524"/>
<feGaussianBlur stdDeviation="3.60886"/>
<feComposite in2="hardAlpha" operator="arithmetic" k2="-1" k3="1"/>
<feColorMatrix type="matrix" values="0 0 0 0 0.380392 0 0 0 0 0.25098 0 0 0 0 0.607843 0 0 0 0.38 0"/>
<feBlend mode="normal" in2="shape" result="effect1_innerShadow_1389_1629"/>
</filter>
<filter id="filter3_f_1389_1629" x="99.9655" y="58.8258" width="14.4354" height="14.4363" filterUnits="userSpaceOnUse" color-interpolation-filters="sRGB">
<feFlood flood-opacity="0" result="BackgroundImageFix"/>
<feBlend mode="normal" in="SourceGraphic" in2="BackgroundImageFix" result="shape"/>
<feGaussianBlur stdDeviation="1.44354" result="effect1_foregroundBlur_1389_1629"/>
</filter>
<filter id="filter4_f_1389_1629" x="40.0584" y="58.8258" width="14.4354" height="14.4363" filterUnits="userSpaceOnUse" color-interpolation-filters="sRGB">
<feFlood flood-opacity="0" result="BackgroundImageFix"/>
<feBlend mode="normal" in="SourceGraphic" in2="BackgroundImageFix" result="shape"/>
<feGaussianBlur stdDeviation="1.44354" result="effect1_foregroundBlur_1389_1629"/>
</filter>
<filter id="filter5_i_1389_1629" x="103.75" y="72.5378" width="8.48694" height="10.6516" filterUnits="userSpaceOnUse" color-interpolation-filters="sRGB">
<feFlood flood-opacity="0" result="BackgroundImageFix"/>
<feBlend mode="normal" in="SourceGraphic" in2="BackgroundImageFix" result="shape"/>
<feColorMatrix in="SourceAlpha" type="matrix" values="0 0 0 0 0 0 0 0 0 0 0 0 0 0 0 0 0 0 127 0" result="hardAlpha"/>
<feOffset dy="-2.16532"/>
<feGaussianBlur stdDeviation="1.44354"/>
<feComposite in2="hardAlpha" operator="arithmetic" k2="-1" k3="1"/>
<feColorMatrix type="matrix" values="0 0 0 0 0.556863 0 0 0 0 0.447059 0 0 0 0 0.737255 0 0 0 1 0"/>
<feBlend mode="normal" in2="shape" result="effect1_innerShadow_1389_1629"/>
</filter>
<filter id="filter6_i_1389_1629" x="95.6348" y="75.4245" width="17.3239" height="19.4856" filterUnits="userSpaceOnUse" color-interpolation-filters="sRGB">
<feFlood flood-opacity="0" result="BackgroundImageFix"/>
<feBlend mode="normal" in="SourceGraphic" in2="BackgroundImageFix" result="shape"/>
<feColorMatrix in="SourceAlpha" type="matrix" values="0 0 0 0 0 0 0 0 0 0 0 0 0 0 0 0 0 0 127 0" result="hardAlpha"/>
<feOffset dy="-2.16532"/>
<feGaussianBlur stdDeviation="1.44354"/>
<feComposite in2="hardAlpha" operator="arithmetic" k2="-1" k3="1"/>
<feColorMatrix type="matrix" values="0 0 0 0 0.556863 0 0 0 0 0.447059 0 0 0 0 0.737255 0 0 0 1 0"/>
<feBlend mode="normal" in2="shape" result="effect1_innerShadow_1389_1629"/>
</filter>
<linearGradient id="paint0_linear_1389_1629" x1="114.333" y1="0.199672" x2="99.3461" y2="24.0075" gradientUnits="userSpaceOnUse">
<stop offset="0.137215" stop-color="#543291"/>
<stop offset="0.401763" stop-color="#A087CA"/>
<stop offset="1" stop-color="#A087CA"/>
</linearGradient>
<linearGradient id="paint1_linear_1389_1629" x1="40.8678" y1="-0.183548" x2="56.5849" y2="22.8933" gradientUnits="userSpaceOnUse">
<stop offset="0.137215" stop-color="#543291"/>
<stop offset="0.401763" stop-color="#A087CA"/>
<stop offset="1" stop-color="#A087CA"/>
</linearGradient>
<linearGradient id="paint2_linear_1389_1629" x1="114.333" y1="0.199672" x2="99.3461" y2="24.0075" gradientUnits="userSpaceOnUse">
<stop offset="0.137215" stop-color="#543291"/>
<stop offset="0.401763" stop-color="#A087CA"/>
<stop offset="1" stop-color="#A087CA"/>
</linearGradient>
<linearGradient id="paint3_linear_1389_1629" x1="40.8678" y1="-0.183548" x2="56.5849" y2="22.8933" gradientUnits="userSpaceOnUse">
<stop offset="0.137215" stop-color="#543291"/>
<stop offset="0.401763" stop-color="#A087CA"/>
<stop offset="1" stop-color="#A087CA"/>
</linearGradient>
</defs>
</svg>
