<svg width="66" height="70" viewBox="0 0 66 70" fill="none" xmlns="http://www.w3.org/2000/svg">
<path d="M31.1225 0.0563076C32.0201 -0.0276875 33.1192 0.000315597 34.027 0.0258495C40.9343 0.220166 47.5072 2.70407 52.9144 6.99811C58.0816 11.0765 61.8719 16.6433 63.7729 22.9457C64.1167 24.0609 64.5602 25.373 64.7486 26.5117C65.49 30.9944 65.4833 35.659 64.8048 40.1484C64.6189 41.3784 64.1852 42.6156 63.8221 43.8041C62.7694 47.4964 60.988 50.9615 58.8387 54.1324C59.8279 54.0227 61.9437 54.0896 62.9043 54.1864C65.1368 54.4117 62.5926 58.4387 62.0751 59.7267C64.606 64.4558 65.744 65.0154 59.1281 65.2544C58.4291 67.2232 56.8283 67.4749 54.9597 67.7755C52.153 68.2271 49.3179 68.7605 46.5041 69.1329C42.4951 69.646 38.4603 69.9333 34.419 69.9935C30.416 70.0156 26.4836 70.0034 22.4995 69.5827C19.4352 69.2597 16.4267 68.9173 13.3974 68.3382C11.5481 67.9847 9.62361 67.864 7.84836 67.1818C6.89331 66.8221 6.49849 66.2968 6.10313 65.3917C4.94992 65.3051 2.60019 65.2333 1.65574 64.6816C0.645274 64.0913 2.89303 60.4353 3.36095 59.7773C2.70126 58.6269 1.63005 56.4958 1.39095 55.2205C1.11867 53.7689 5.66479 54.2326 6.52555 54.2403C3.13533 50.0116 0.492078 42.3094 0.104504 36.8137C-0.582861 27.0671 2.10498 18.2994 8.63015 10.904C14.3802 4.43214 22.4781 0.52665 31.1225 0.0563076Z" fill="#EEEEEE"/>
<path d="M54.0103 20.0938C54.7694 20.2107 54.7413 21.9956 55.2018 22.6749C55.7704 23.5138 56.6269 23.4407 57.292 24.0524C57.3048 24.0959 57.3198 24.1467 57.3369 24.2049C57.1025 24.4789 55.8259 24.846 55.6154 25.0422C54.9271 25.6841 54.6684 26.861 54.2752 27.7195L54.0859 27.7981C54.0397 27.7754 53.9847 27.7484 53.9209 27.717C53.4249 26.7074 53.4795 26.0446 52.8241 25.0508C50.8521 24.0369 50.4285 24.215 52.8389 23.0702C53.8308 21.7197 53.5086 20.8812 54.0103 20.0938Z" fill="#EEEEEE"/>
<path d="M54.1126 21.0938C54.2769 21.7906 54.3319 21.9832 54.6189 22.6347C54.7321 22.7835 55.0436 23.2138 55.1662 23.3094C55.3639 23.4408 55.5122 23.5178 55.6303 23.7273L55.4207 23.5994C55.0641 24.4266 54.404 24.9019 53.3094 24.8393C53.2273 24.8346 52.8406 24.4795 52.7136 24.4488C52.4993 24.343 52.1722 24.2944 52.0547 24.1152C52.1343 23.9498 52.388 23.8029 52.5629 23.786C53.7882 22.9214 53.7741 22.5607 54.1126 21.0938Z" fill="#EEEEEE"/>
<path d="M20.4102 7.04235C23.1527 5.80148 25.0122 4.96076 28.0077 4.46175C48.1605 1.10423 64.5245 19.2032 60.8457 38.8566C60.7921 39.1427 60.6279 39.085 60.532 39.2491C60.4495 39.186 60.2609 38.8035 60.1983 38.6863L60.2348 38.6269C60.9036 37.5608 60.7505 34.8521 60.7607 33.4998C60.7854 30.2446 60.0505 26.718 59.077 23.6059C58.6591 22.2699 57.5127 20.6679 57.0681 19.2442C56.9634 18.9089 56.1033 17.6673 55.8626 17.3007C51.6823 11.0381 45.2256 6.65157 37.8634 5.07266C34.9763 4.48088 30.7869 4.41602 27.8966 4.95596C26.8102 5.15902 21.6216 6.70919 20.8435 7.22063L20.4102 7.04235Z" fill="#B5B5B5" fill-opacity="0.7"/>
<path d="M17.2594 8.81008C17.8488 9.07602 18.3352 8.38691 18.6414 8.97144L18.4844 9.25277C17.7128 8.38919 15.382 11.3315 14.7807 11.7607C14.2336 12.1514 13.639 12.3505 13.1972 12.8852C11.7856 14.4782 10.4211 16.2895 9.2372 18.0564C8.97729 18.4444 8.2615 19.3355 8.09107 19.6696C7.47689 20.8733 6.17001 23.2991 6.02389 24.5677C5.97725 24.2247 5.9774 24.14 5.7373 23.9018C6.39158 20.9892 8.78895 17.3183 10.5427 14.8731C11.5144 13.5182 13.5868 11.8015 14.7862 10.5223C15.14 10.145 16.7077 9.23197 17.2594 8.81008Z" fill="#B5B5B5" fill-opacity="0.7"/>
<path d="M59.8779 40.3587C60.1133 40.3588 60.3496 40.3137 60.5835 40.2783C60.525 41.1169 60.1522 41.9992 59.9328 42.8174C59.4459 44.6327 58.8281 46.1206 57.9581 47.791C56.6422 50.3175 54.9238 52.7258 53.009 54.8342C52.8863 54.9692 52.8755 54.8996 52.9898 55.0341L53.3834 55.0924C53.1593 55.1641 52.7776 55.108 52.5282 55.086L52.2505 54.6121C53.3923 54.339 53.6491 52.8052 54.2445 51.988C54.4843 51.6589 55.3002 50.9304 55.5982 50.636C57.1792 49.074 59.9407 42.3795 59.8779 40.3587Z" fill="#B5B5B5" fill-opacity="0.7"/>
<path d="M5.73738 23.9014C5.97748 24.1396 5.97733 24.2242 6.02397 24.5672C5.2812 27.6366 4.41831 30.7579 4.51336 33.9456C4.53516 34.6752 4.61503 37.6725 4.88272 38.2749L4.58195 38.7921C4.16876 38.293 4.17273 36.8828 4.12745 36.1996C3.84505 31.9359 4.27303 27.9347 5.73738 23.9014Z" fill="#EEEEEE"/>
<path d="M17.2598 8.80942C17.8106 8.38571 18.5223 7.87152 19.2307 7.8418C19.072 8.14828 18.8111 8.69234 18.6417 8.97078C18.3355 8.38624 17.8492 9.07535 17.2598 8.80942Z" fill="#9D9D9D"/>
<path d="M10.6233 12.4092C11.1132 12.81 10.9942 13.7292 10.6334 14.1706C10.1422 13.8887 10.3896 12.8048 10.6233 12.4092Z" fill="#EEEEEE"/>
<path d="M8.21769 24.2803C9.20596 25.0035 9.50018 25.3969 9.80376 26.5629L9.84576 26.8926C9.53996 27.2397 9.52929 28.6217 9.00032 28.6636C8.04368 27.8317 9.0382 27.0813 6.92285 26.2882C7.63064 25.5185 7.76425 25.2399 8.21769 24.2803Z" fill="#EEEEEE"/>
<path d="M10.1717 26.2246L10.2916 26.4494C10.2151 26.7002 10.0903 26.7777 9.84571 26.8932L9.80371 26.5636L10.1717 26.2246Z" fill="#EEEEEE"/>
<path d="M33.5754 45.9787C33.5881 44.808 33.8341 42.9718 34.4454 41.9512L34.6849 42.1933C34.4511 43.0593 34.3339 43.8879 34.2591 44.7788C34.2223 45.2162 34.264 45.789 33.9793 46.1035C33.795 46.1323 33.7063 46.1625 33.5754 45.9787Z" fill="#EEEEEE"/>
<path d="M39.98 39.2148L40.8311 39.261C40.3982 39.5424 39.9591 39.8185 39.546 40.1277C39.159 40.2646 38.7722 40.532 38.4634 40.8009C38.7181 40.0485 39.3702 39.7158 39.98 39.2148Z" fill="#EEEEEE"/>
<path d="M41.8756 37.9783C43.3096 37.6137 45.1185 37.3617 46.5184 38.0183L46.4464 38.1046C46.6628 38.2386 46.6128 38.1655 46.6708 38.3685C47.0878 38.5526 47.5032 38.7113 47.7673 39.0947L47.2388 39.1254L47.1688 39.1228C46.9977 38.9927 46.6693 38.8862 46.457 38.8058C46.0416 38.7034 45.7104 38.6016 45.2786 38.6094C44.8571 38.7638 44.2633 38.6515 44.0327 38.7501C42.0814 39.5845 40.2707 39.8242 38.8674 41.4958C39.028 40.7874 39.0488 40.679 39.546 40.1282C39.9591 39.819 40.3982 39.5428 40.8311 39.2614L39.98 39.2153C40.4704 38.8003 40.7651 38.6846 41.3493 38.4738C41.3829 38.4181 41.4226 38.3235 41.4512 38.2616L41.2992 38.1583L41.8756 37.9783Z" fill="#EEEEEE"/>
<path d="M47.8477 39.9482C48.3592 40.3538 48.6784 40.6822 49.138 41.1516C48.8102 41.4348 48.2224 41.7537 47.7889 41.6118C47.4721 41.2683 47.605 40.2736 47.8477 39.9482Z" fill="#EEEEEE"/>
<path d="M46.4569 38.8057C46.6692 38.8861 46.9975 38.9926 47.1686 39.1227C47.0836 39.4349 47.1543 39.3474 46.9291 39.4927C46.6507 39.5065 46.5435 39.4475 46.2852 39.3455C46.4289 39.1227 46.4274 39.0586 46.4569 38.8057Z" fill="#EEEEEE"/>
<path d="M37.5557 57.6779H38.7186H39.6058H41.0444H42.554H43C43 57.6779 46.894 57.4277 49 57C50.8108 56.6322 52.9534 55.9013 52.9534 55.9013L52.9882 55.869C54.5449 55.292 57.5646 54.6593 57.8248 57.1381C58.0933 59.6967 58.3916 62.3631 58.3657 64.935C58.3566 65.4052 58.0132 65.9103 57.6496 66.1393C56.2836 67.0001 53.9805 67.2049 52.4092 67.5527C50.2959 68.0204 48.1696 68.1746 46.0447 68.4248C35.1839 69.7702 24.1854 69.5332 13.3926 67.721C12.248 67.5208 11.0845 67.2582 9.96402 67.0087C9.07246 66.8101 7.62999 66.5658 7.12083 65.7494C6.67106 64.8923 6.80063 63.3839 6.86412 62.4444C6.98242 60.694 6.96976 58.9183 7.21352 57.1935C7.36131 56.1477 8.2415 55.386 9.3108 55.5039C11.5287 55.7486 13.6876 56.219 15.8855 56.5787C17.3473 56.8145 18.8674 56.8123 20.321 56.9899C24.2849 57.4743 28.2143 57.7676 32.2095 57.7185C32.8172 57.7111 34.8115 57.6779 34.8115 57.6779H35.5H37.5557Z" fill="#B5B5B5" fill-opacity="0.7"/>
<path d="M58.868 54.935C60.4565 54.8723 61.8166 54.8443 63.4029 54.9183C62.9556 56.5399 61.9986 58.0213 61.3632 59.6214C61.8171 61.1998 63.2025 62.1857 63.4662 63.9487L63.3493 64.1642C62.9122 64.4272 59.8157 64.5698 59.1394 64.5702C59.1315 62.1552 58.94 59.2988 58.5965 56.9111C58.5205 56.3821 57.9021 55.4413 57.6035 54.9868C58.026 54.9876 58.4462 54.9588 58.868 54.935Z" fill="#B5B5B5" fill-opacity="0.7"/>
<path d="M1.96109 54.9291C4.12454 54.8134 5.3792 54.9121 7.49943 55.0804C6.72145 55.924 6.55216 56.6793 6.42922 57.7927C6.1738 60.1061 6.07937 62.4243 6.14301 64.7506L5.4023 64.6678C4.3564 64.6274 2.92757 64.4543 1.85156 64.3509C2.0883 62.3246 3.3012 61.418 4.0301 59.8265C3.70944 58.5578 1.94745 55.8059 1.96109 54.9291Z" fill="#B5B5B5" fill-opacity="0.7"/>
<path d="M32.9788 18.833C37.3259 18.8332 40.8235 22.2543 40.8235 26.4775V28.6494C43.2634 29.411 45.0411 31.6198 45.0413 34.2578V41.252C45.0413 44.518 42.3336 47.166 38.9954 47.166H27.0061C23.6664 47.166 20.9583 44.518 20.9583 41.252V34.2578C20.9584 31.6198 22.7376 29.411 25.176 28.6494V26.4775C25.1904 22.2541 28.689 18.833 32.9788 18.833ZM32.9924 34.9609C32.3016 34.9611 31.7405 35.5099 31.7405 36.1855V39.3105C31.7405 40.0003 32.3016 40.5497 32.9924 40.5498C33.6978 40.5498 34.259 40.0004 34.259 39.3105V36.1855C34.259 35.5098 33.6978 34.9609 32.9924 34.9609ZM33.0071 21.2969C30.0849 21.2969 27.71 23.6055 27.6956 26.4492V28.3438H38.3049V26.4775C38.3049 23.6197 35.9293 21.2969 33.0071 21.2969Z" fill="#B5B5B5" fill-opacity="0.7"/>
</svg>
