<svg width="242" height="177" viewBox="0 0 242 177" fill="none" xmlns="http://www.w3.org/2000/svg">
<g filter="url(#filter0_f_2798_7942)">
<ellipse cx="125.589" cy="154.59" rx="67" ry="12" fill="#280F3A" fill-opacity="0.1"/>
</g>
<g filter="url(#filter1_i_2798_7942)">
<path d="M69.7891 1.85662C76.2703 2.35518 89.2318 16.5858 94.8471 24.9467C94.8961 24.9222 94.9444 24.8981 94.9922 24.8744C96.1135 24.3183 96.8914 23.983 96.8914 23.983C90.7191 14.6758 74.3557 -0.726142 69.1998 0.679804C65.0366 1.81506 57.4236 30.1365 56.2898 47.8126C55.8648 54.4385 55.8648 60.775 55.8648 60.775C59.5867 53.5815 64.2196 47.816 67.5906 44.1225C64.4863 36.6195 65.0893 1.4951 69.7891 1.85662Z" fill="black"/>
<path d="M94.8471 24.9467C94.8471 24.9467 96.6326 27.7797 97.4815 27.1905C98.3304 26.6013 96.8914 23.983 96.8914 23.983C96.8914 23.983 96.1135 24.3183 94.9922 24.8744L94.8471 24.9467Z" fill="black"/>
<path d="M193.521 36.6198C193.146 22.7627 188.479 0.678259 184.683 0.678218C175.385 0.678117 160.117 17.534 156.402 21.8895L155.223 23.2356C155.877 23.5039 156.509 23.7792 157.114 24.061C157.522 23.5146 157.942 22.9707 158.358 22.4787C165.829 13.6407 178.666 2.02824 184.094 2.44582C188.219 2.76309 188.808 38.3871 184.683 45.2778C187.851 48.9428 190.876 53.1143 193.521 57.8308C193.521 57.8308 193.896 50.4769 193.521 36.6198Z" fill="black"/>
<path d="M155.223 23.2356C155.223 23.2356 152.14 27.7815 154.045 27.7815C154.401 27.7815 155.235 26.6342 156.241 25.251C156.521 24.8661 156.814 24.4629 157.114 24.061C156.509 23.7792 155.877 23.5039 155.223 23.2356Z" fill="black"/>
<path d="M128.709 17.7651C114.568 17.7651 106.319 19.8586 96.8914 23.983C96.8914 23.983 98.3304 26.6013 97.4815 27.1905C96.6326 27.7797 94.8471 24.9467 94.8471 24.9467C89.2318 16.5858 76.2703 2.35518 69.7891 1.85662C65.0893 1.4951 64.4863 36.6195 67.5906 44.1225C64.2196 47.816 59.5867 53.5815 55.8648 60.775C53.8313 64.7052 52.0697 69.0616 50.9345 73.7392C44.272 101.19 54.2858 125.104 76.8593 142.087C92.6484 153.965 110.444 155.049 125.763 155.049C134.602 155.049 157.92 154.46 175.423 141.491C211.197 114.983 199.922 74.0288 197.645 67.8475C197.369 67.0973 197.112 66.3815 196.865 65.691C195.846 62.8483 194.982 60.4363 193.521 57.8308C190.876 53.1143 187.851 48.9428 184.683 45.2778C188.808 38.3871 188.219 2.76309 184.094 2.44582C178.666 2.02824 165.829 13.6407 158.358 22.4787C157.942 22.9707 157.522 23.5146 157.114 24.061C156.814 24.4629 156.521 24.8661 156.241 25.251C155.235 26.6342 154.401 27.7815 154.045 27.7815C152.14 27.7815 155.223 23.2356 155.223 23.2356C147.271 19.9733 136.038 17.7651 128.709 17.7651Z" fill="#A289CB"/>
</g>
<path d="M162.294 27.1923C160.991 26.0886 159.209 25.036 157.114 24.061M96.8914 23.983C106.319 19.8586 114.568 17.7651 128.709 17.7651C136.038 17.7651 147.271 19.9733 155.223 23.2356M96.8914 23.983C90.7191 14.6758 74.3557 -0.726142 69.1998 0.679804C65.0366 1.81506 57.4236 30.1365 56.2898 47.8126C55.8648 54.4385 55.8648 60.775 55.8648 60.775M96.8914 23.983C96.8914 23.983 98.3304 26.6013 97.4815 27.1905C96.6326 27.7797 94.8471 24.9467 94.8471 24.9467M94.8471 24.9467C94.8961 24.9222 94.9444 24.8981 94.9922 24.8744C96.1135 24.3183 96.8914 23.983 96.8914 23.983M193.521 57.8308C193.521 57.8308 193.896 50.4769 193.521 36.6198C193.146 22.7627 188.479 0.678259 184.683 0.678218C175.385 0.678117 160.117 17.534 156.402 21.8895L155.223 23.2356M72.1455 39.5655C72.1455 39.5655 70.2653 41.1917 67.5906 44.1225C64.2196 47.816 59.5867 53.5815 55.8648 60.775C53.8313 64.7052 52.0697 69.0616 50.9345 73.7392C44.272 101.19 54.2858 125.104 76.8593 142.087C92.6484 153.965 110.444 155.049 125.763 155.049C134.602 155.049 157.92 154.46 175.423 141.491C211.197 114.983 199.922 74.0288 197.645 67.8475C197.369 67.0973 197.112 66.3815 196.865 65.691C195.846 62.8483 194.982 60.4363 193.521 57.8308C190.876 53.1143 187.851 48.9428 184.683 45.2778C183.52 43.9324 182.338 42.6552 181.148 41.4444M89.2318 28.3707C90.981 26.9718 93.3533 25.6873 94.9922 24.8744M155.223 23.2356C155.223 23.2356 152.14 27.7815 154.045 27.7815C154.401 27.7815 155.235 26.6342 156.241 25.251C156.521 24.8661 156.814 24.4629 157.114 24.061M155.223 23.2356C155.877 23.5039 156.509 23.7792 157.114 24.061M184.683 45.2778C188.808 38.3871 188.219 2.76309 184.094 2.44582C178.666 2.02824 165.829 13.6407 158.358 22.4787C157.942 22.9707 157.522 23.5146 157.114 24.061M94.8471 24.9467C89.2318 16.5858 76.2703 2.35518 69.7891 1.85662C65.0893 1.4951 64.4863 36.6195 67.5906 44.1225M94.8471 24.9467L94.9922 24.8744" stroke="#1C1135" stroke-width="1.1784" stroke-linecap="round"/>
<path d="M174.874 31.1598C180.636 36.1848 183.316 37.1596 184.351 38.4578C187.983 31.7771 187.288 3.05265 183.632 2.75875C178.82 2.37192 166.44 13.6617 159.85 22.2373C159.483 22.7147 160.209 21.7073 159.85 22.2373C159.85 22.2373 169.112 26.1347 174.874 31.1598Z" fill="url(#paint0_linear_2798_7942)"/>
<path d="M77.7959 31.0367C72.3803 36.1457 68.1424 38.1574 67.1691 39.4772C65.4015 34.1744 65.9907 2.48493 69.5738 2.1723C73.6504 1.81662 85.7261 13.2493 91.9163 21.9638C92.2609 22.4489 91.5786 21.4251 91.9163 21.9638C91.9163 21.9638 83.2116 25.9276 77.7959 31.0367Z" fill="url(#paint1_linear_2798_7942)"/>
<path d="M10.2162 93.2028C6.09178 96.5319 4.32423 97.9165 0.789017 102.041C1.74758 102.52 4.14074 101.373 6.681 101.452C9.47891 101.539 11.3096 101.82 13.7514 102.63C17.8722 103.997 19.7983 105.798 23.1786 108.522C27.1079 111.689 30.8384 117.36 32.0167 117.949C31.7866 112.197 31.6768 112.987 31.4275 107.235C31.2278 104.769 31.089 97.0998 31.4275 93.2028C31.7714 89.2456 33.1951 84.954 33.1951 83.7756C33.1951 82.9048 32.3117 80.2404 30.8383 80.2404C29.6598 80.2404 24.3575 82.8466 20.8218 84.954C16.1571 87.7344 14.5505 89.7043 10.2162 93.2028Z" fill="#A974D2"/>
<path d="M43.2115 90.846C38.4979 87.9 37.9087 84.954 36.7304 84.954C35.5521 84.954 34.5481 89.8925 33.5846 93.2028C32.0354 98.5262 31.817 102.413 31.4275 107.235C31.6768 112.987 31.7866 112.197 32.0167 117.949C33.1951 118.539 37.1544 114.727 40.8547 113.825C45.3256 112.734 48.0834 113.171 52.6387 113.825C57.3946 114.508 64.4227 117.949 64.4227 117.949C64.4227 117.949 58.7866 111.515 56.1739 106.754C53.7893 102.409 51.4604 94.9704 51.4604 94.9704C51.4604 94.9704 46.1835 92.7036 43.2115 90.846Z" fill="#A974D2"/>
<path d="M48.5144 84.3648C48.5144 84.3648 43.5756 81.9377 40.8548 79.0621C38.2227 76.2804 35.552 70.8134 33.7844 70.2241C32.0203 69.636 27.8766 71.5469 24.3785 73.1601L24.3571 73.17C17.9611 76.1196 13.1623 80.2404 9.03789 84.954C3.81315 90.9251 -0.389471 101.452 0.789017 102.041C4.32423 97.9165 6.09178 96.5319 10.2162 93.2028C14.5505 89.7043 16.1571 87.7344 20.8218 84.954C24.3575 82.8466 29.6598 80.2404 30.8383 80.2404C32.3117 80.2404 33.1951 82.9048 33.1951 83.7756C33.1951 84.954 31.7714 89.2456 31.4275 93.2028C31.089 97.0998 31.2278 104.769 31.4275 107.235C31.817 102.413 32.0354 98.5262 33.5846 93.2028C34.5481 89.8925 35.5521 84.954 36.7304 84.954C37.9087 84.954 38.4979 87.9 43.2115 90.846C46.1835 92.7036 51.4604 94.9704 51.4604 94.9704L48.5144 84.3648Z" fill="#43277B"/>
<path d="M24.3571 73.17C17.9611 76.1196 13.1623 80.2404 9.03789 84.954C3.81315 90.9251 -0.389471 101.452 0.789017 102.041M24.3571 73.17L24.3785 73.1601M51.4604 94.9704L48.5144 84.3648C48.5144 84.3648 43.5756 81.9377 40.8548 79.0621C38.2227 76.2804 35.552 70.8134 33.7844 70.2241C32.0203 69.636 27.8766 71.5469 24.3785 73.1601C24.3714 73.1634 24.3643 73.1667 24.3571 73.17M0.789017 102.041C4.32423 97.9165 6.09178 96.5319 10.2162 93.2028C14.5505 89.7043 16.1571 87.7344 20.8218 84.954C24.3575 82.8466 29.6598 80.2404 30.8383 80.2404C32.3117 80.2404 33.1951 82.9048 33.1951 83.7756C33.1951 84.954 31.7714 89.2456 31.4275 93.2028C31.089 97.0998 31.2278 104.769 31.4275 107.235M0.789017 102.041C1.74758 102.52 4.14074 101.373 6.681 101.452C9.47891 101.539 11.3096 101.82 13.7514 102.63C17.8722 103.997 19.7983 105.798 23.1786 108.522C27.1079 111.689 30.8384 117.36 32.0167 117.949M31.4275 107.235C31.6768 112.987 31.7867 112.197 32.0167 117.949M31.4275 107.235C31.817 102.413 32.0354 98.5262 33.5846 93.2028C34.5481 89.8925 35.5521 84.954 36.7304 84.954C37.9087 84.954 38.4979 87.9 43.2115 90.846C46.1835 92.7035 51.4604 94.9704 51.4604 94.9704M51.4604 94.9704C51.4604 94.9704 53.7893 102.409 56.1739 106.754C58.7866 111.515 64.4227 117.949 64.4227 117.949C64.4227 117.949 57.3946 114.508 52.6387 113.825C48.0834 113.171 45.3256 112.734 40.8547 113.825C37.1544 114.727 33.1951 118.539 32.0167 117.949" stroke="#0D0C12" stroke-width="1.1784" stroke-linecap="round"/>
<path d="M206.421 79.0617C204.214 81.4752 199.939 84.3644 199.939 84.3644L198.172 93.2021C198.172 93.2021 200.998 91.688 202.885 90.2561C204.7 88.8795 207.01 86.1313 207.599 86.1317C209.367 86.133 211.134 98.5049 211.134 103.808C211.134 95.9846 211.134 83.7753 211.134 83.7753C211.134 82.302 212.093 80.3636 213.491 80.8293C217.026 82.0073 220.255 83.9429 224.686 87.3105C227.927 89.7738 230.066 91.4924 232.935 94.3809C235.574 97.0387 237.648 99.6837 240.005 102.041C242.362 101.451 237.103 90.8512 232.935 84.9537C230.853 82.0074 225.864 77.1068 222.329 74.9372C218.358 72.5003 214.08 70.2233 211.724 70.8129C209.85 71.2817 209.005 76.2354 206.421 79.0617Z" fill="#442679"/>
<path d="M224.686 87.3105C220.255 83.9429 217.026 82.0073 213.491 80.8293C212.093 80.3636 211.134 82.302 211.134 83.7753C211.134 83.7753 211.134 95.9846 211.134 103.808C211.134 109.699 210.545 113.825 209.956 118.538C212.902 113.824 216.648 109.7 219.972 107.343C221.74 106.09 225.049 103.704 228.81 102.629C232.935 101.451 236.47 101.451 240.005 102.041C237.648 99.6837 235.574 97.0387 232.935 94.3809C230.066 91.4924 227.927 89.7738 224.686 87.3105Z" fill="#AA74D2"/>
<path d="M211.134 103.808C211.134 98.5049 209.367 86.133 207.599 86.1317C207.01 86.1313 204.7 88.8795 202.885 90.2561C200.998 91.688 198.172 93.2021 198.172 93.2021L196.404 98.5049C195.231 102.025 194.153 103.552 192.28 106.754C190.247 110.228 186.977 115.592 186.977 115.592C186.977 115.592 194.89 113.047 199.939 113.825C204.12 114.469 207.01 116.181 209.956 118.538C210.545 113.825 211.134 109.699 211.134 103.808Z" fill="#AA74D2"/>
<path d="M196.404 98.5049C195.231 102.025 194.153 103.552 192.28 106.754C190.247 110.228 186.977 115.592 186.977 115.592C186.977 115.592 194.89 113.047 199.939 113.825C204.12 114.469 207.01 116.181 209.956 118.538C212.902 113.824 216.648 109.7 219.972 107.343C221.74 106.09 225.049 103.704 228.81 102.629C232.935 101.451 236.47 101.451 240.005 102.041C242.362 101.451 237.103 90.8512 232.935 84.9537C230.853 82.0074 225.864 77.1068 222.329 74.9372C218.358 72.5003 214.08 70.2233 211.724 70.8129C209.85 71.2817 209.005 76.2354 206.421 79.0617C204.214 81.4752 199.939 84.3644 199.939 84.3644L198.172 93.2021M240.005 102.041C237.648 99.6837 235.574 97.0387 232.935 94.3809C230.066 91.4924 227.927 89.7738 224.686 87.3105C220.255 83.9429 217.026 82.0073 213.491 80.8293C212.093 80.3636 211.134 82.302 211.134 83.7753M211.134 83.7753C211.134 89.6669 211.134 97.9162 211.134 103.808M211.134 83.7753C211.134 83.7753 211.134 95.9846 211.134 103.808M211.134 103.808C211.134 98.5049 209.367 86.133 207.599 86.1317C207.01 86.1313 204.7 88.8795 202.885 90.2561C200.998 91.688 198.172 93.2021 198.172 93.2021M211.134 103.808C211.134 109.699 210.545 113.825 209.956 118.538M198.172 93.2021C198.172 93.2021 197.146 96.2788 196.404 98.5049M198.172 93.2021L196.404 98.5049" stroke="#0D0C12" stroke-width="1.1784" stroke-linecap="round"/>
<path d="M10.2162 93.2028C6.09178 96.5319 4.32423 97.9165 0.789017 102.041C1.74758 102.52 4.14074 101.373 6.681 101.452C9.47891 101.539 11.3096 101.82 13.7514 102.63C17.8722 103.997 19.7983 105.798 23.1786 108.522C27.1079 111.689 30.8384 117.36 32.0167 117.949C31.7866 112.197 31.6768 112.987 31.4275 107.235C31.2278 104.769 31.089 97.0998 31.4275 93.2028C31.7714 89.2456 33.1951 84.954 33.1951 83.7756C33.1951 82.9048 32.3117 80.2404 30.8383 80.2404C29.6598 80.2404 24.3575 82.8466 20.8218 84.954C16.1571 87.7344 14.5505 89.7043 10.2162 93.2028Z" fill="#A974D2"/>
<path d="M43.2115 90.846C38.4979 87.9 37.9087 84.954 36.7304 84.954C35.5521 84.954 34.5481 89.8925 33.5846 93.2028C32.0354 98.5262 31.817 102.413 31.4275 107.235C31.6768 112.987 31.7866 112.197 32.0167 117.949C33.1951 118.539 37.1544 114.727 40.8547 113.825C45.3256 112.734 48.0834 113.171 52.6387 113.825C57.3946 114.508 64.4227 117.949 64.4227 117.949C64.4227 117.949 58.7866 111.515 56.1739 106.754C53.7893 102.409 51.4604 94.9704 51.4604 94.9704C51.4604 94.9704 46.1835 92.7036 43.2115 90.846Z" fill="#A974D2"/>
<path d="M48.5144 84.3648C48.5144 84.3648 43.5756 81.9377 40.8548 79.0621C38.2227 76.2804 35.552 70.8134 33.7844 70.2241C32.0203 69.636 27.8766 71.5469 24.3785 73.1601L24.3571 73.17C17.9611 76.1196 13.1623 80.2404 9.03789 84.954C3.81315 90.9251 -0.389471 101.452 0.789017 102.041C4.32423 97.9165 6.09178 96.5319 10.2162 93.2028C14.5505 89.7043 16.1571 87.7344 20.8218 84.954C24.3575 82.8466 29.6598 80.2404 30.8383 80.2404C32.3117 80.2404 33.1951 82.9048 33.1951 83.7756C33.1951 84.954 31.7714 89.2456 31.4275 93.2028C31.089 97.0998 31.2278 104.769 31.4275 107.235C31.817 102.413 32.0354 98.5262 33.5846 93.2028C34.5481 89.8925 35.5521 84.954 36.7304 84.954C37.9087 84.954 38.4979 87.9 43.2115 90.846C46.1835 92.7036 51.4604 94.9704 51.4604 94.9704L48.5144 84.3648Z" fill="#43277B"/>
<path d="M24.3571 73.17C17.9611 76.1196 13.1623 80.2404 9.03789 84.954C3.81315 90.9251 -0.389471 101.452 0.789017 102.041M24.3571 73.17L24.3785 73.1601M51.4604 94.9704L48.5144 84.3648C48.5144 84.3648 43.5756 81.9377 40.8548 79.0621C38.2227 76.2804 35.552 70.8134 33.7844 70.2241C32.0203 69.636 27.8766 71.5469 24.3785 73.1601C24.3714 73.1634 24.3643 73.1667 24.3571 73.17M0.789017 102.041C4.32423 97.9165 6.09178 96.5319 10.2162 93.2028C14.5505 89.7043 16.1571 87.7344 20.8218 84.954C24.3575 82.8466 29.6598 80.2404 30.8383 80.2404C32.3117 80.2404 33.1951 82.9048 33.1951 83.7756C33.1951 84.954 31.7714 89.2456 31.4275 93.2028C31.089 97.0998 31.2278 104.769 31.4275 107.235M0.789017 102.041C1.74758 102.52 4.14074 101.373 6.681 101.452C9.47891 101.539 11.3096 101.82 13.7514 102.63C17.8722 103.997 19.7983 105.798 23.1786 108.522C27.1079 111.689 30.8384 117.36 32.0167 117.949M31.4275 107.235C31.6768 112.987 31.7867 112.197 32.0167 117.949M31.4275 107.235C31.817 102.413 32.0354 98.5262 33.5846 93.2028C34.5481 89.8925 35.5521 84.954 36.7304 84.954C37.9087 84.954 38.4979 87.9 43.2115 90.846C46.1835 92.7035 51.4604 94.9704 51.4604 94.9704M51.4604 94.9704C51.4604 94.9704 53.7893 102.409 56.1739 106.754C58.7866 111.515 64.4227 117.949 64.4227 117.949C64.4227 117.949 57.3946 114.508 52.6387 113.825C48.0834 113.171 45.3256 112.734 40.8547 113.825C37.1544 114.727 33.1951 118.539 32.0167 117.949" stroke="#0D0C12" stroke-width="1.1784" stroke-linecap="round"/>
<path d="M206.421 79.0617C204.214 81.4752 199.939 84.3644 199.939 84.3644L198.172 93.2021C198.172 93.2021 200.998 91.688 202.885 90.2561C204.7 88.8795 207.01 86.1313 207.599 86.1317C209.367 86.133 211.134 98.5049 211.134 103.808C211.134 95.9846 211.134 83.7753 211.134 83.7753C211.134 82.302 212.093 80.3636 213.491 80.8293C217.026 82.0073 220.255 83.9429 224.686 87.3105C227.927 89.7738 230.066 91.4924 232.935 94.3809C235.574 97.0387 237.648 99.6837 240.005 102.041C242.362 101.451 237.103 90.8512 232.935 84.9537C230.853 82.0074 225.864 77.1068 222.329 74.9372C218.358 72.5003 214.08 70.2233 211.724 70.8129C209.85 71.2817 209.005 76.2354 206.421 79.0617Z" fill="#442679"/>
<path d="M224.686 87.3105C220.255 83.9429 217.026 82.0073 213.491 80.8293C212.093 80.3636 211.134 82.302 211.134 83.7753C211.134 83.7753 211.134 95.9846 211.134 103.808C211.134 109.699 210.545 113.825 209.956 118.538C212.902 113.824 216.648 109.7 219.972 107.343C221.74 106.09 225.049 103.704 228.81 102.629C232.935 101.451 236.47 101.451 240.005 102.041C237.648 99.6837 235.574 97.0387 232.935 94.3809C230.066 91.4924 227.927 89.7738 224.686 87.3105Z" fill="#AA74D2"/>
<path d="M211.134 103.808C211.134 98.5049 209.367 86.133 207.599 86.1317C207.01 86.1313 204.7 88.8795 202.885 90.2561C200.998 91.688 198.172 93.2021 198.172 93.2021L196.404 98.5049C195.231 102.025 194.153 103.552 192.28 106.754C190.247 110.228 186.977 115.592 186.977 115.592C186.977 115.592 194.89 113.047 199.939 113.825C204.12 114.469 207.01 116.181 209.956 118.538C210.545 113.825 211.134 109.699 211.134 103.808Z" fill="#AA74D2"/>
<path d="M196.404 98.5049C195.231 102.025 194.153 103.552 192.28 106.754C190.247 110.228 186.977 115.592 186.977 115.592C186.977 115.592 194.89 113.047 199.939 113.825C204.12 114.469 207.01 116.181 209.956 118.538C212.902 113.824 216.648 109.7 219.972 107.343C221.74 106.09 225.049 103.704 228.81 102.629C232.935 101.451 236.47 101.451 240.005 102.041C242.362 101.451 237.103 90.8512 232.935 84.9537C230.853 82.0074 225.864 77.1068 222.329 74.9372C218.358 72.5003 214.08 70.2233 211.724 70.8129C209.85 71.2817 209.005 76.2354 206.421 79.0617C204.214 81.4752 199.939 84.3644 199.939 84.3644L198.172 93.2021M240.005 102.041C237.648 99.6837 235.574 97.0387 232.935 94.3809C230.066 91.4924 227.927 89.7738 224.686 87.3105C220.255 83.9429 217.026 82.0073 213.491 80.8293C212.093 80.3636 211.134 82.302 211.134 83.7753M211.134 83.7753C211.134 89.6669 211.134 97.9162 211.134 103.808M211.134 83.7753C211.134 83.7753 211.134 95.9846 211.134 103.808M211.134 103.808C211.134 98.5049 209.367 86.133 207.599 86.1317C207.01 86.1313 204.7 88.8795 202.885 90.2561C200.998 91.688 198.172 93.2021 198.172 93.2021M211.134 103.808C211.134 109.699 210.545 113.825 209.956 118.538M198.172 93.2021C198.172 93.2021 197.146 96.2788 196.404 98.5049M198.172 93.2021L196.404 98.5049" stroke="#0D0C12" stroke-width="1.1784" stroke-linecap="round"/>
<g filter="url(#filter2_i_2798_7942)">
<path d="M69.7891 1.85662C76.2703 2.35518 89.2318 16.5858 94.8471 24.9467C94.8961 24.9222 94.9444 24.8981 94.9922 24.8744C96.1135 24.3183 96.8914 23.983 96.8914 23.983C90.7191 14.6758 74.3557 -0.726142 69.1998 0.679804C65.0366 1.81506 57.4236 30.1365 56.2898 47.8126C55.8648 54.4385 55.8648 60.775 55.8648 60.775C59.5867 53.5815 64.2196 47.816 67.5906 44.1225C64.4863 36.6195 65.0893 1.4951 69.7891 1.85662Z" fill="black"/>
<path d="M94.8471 24.9467C94.8471 24.9467 96.6326 27.7797 97.4815 27.1905C98.3304 26.6013 96.8914 23.983 96.8914 23.983C96.8914 23.983 96.1135 24.3183 94.9922 24.8744L94.8471 24.9467Z" fill="black"/>
<path d="M193.521 36.6198C193.146 22.7627 188.479 0.678259 184.683 0.678218C175.385 0.678117 160.117 17.534 156.402 21.8895L155.223 23.2356C155.877 23.5039 156.509 23.7792 157.114 24.061C157.522 23.5146 157.942 22.9707 158.358 22.4787C165.829 13.6407 178.666 2.02824 184.094 2.44582C188.219 2.76309 188.808 38.3871 184.683 45.2778C187.851 48.9428 190.876 53.1143 193.521 57.8308C193.521 57.8308 193.896 50.4769 193.521 36.6198Z" fill="black"/>
<path d="M155.223 23.2356C155.223 23.2356 152.14 27.7815 154.045 27.7815C154.401 27.7815 155.235 26.6342 156.241 25.251C156.521 24.8661 156.814 24.4629 157.114 24.061C156.509 23.7792 155.877 23.5039 155.223 23.2356Z" fill="black"/>
<path d="M128.709 17.7651C114.568 17.7651 106.319 19.8586 96.8914 23.983C96.8914 23.983 98.3304 26.6013 97.4815 27.1905C96.6326 27.7797 94.8471 24.9467 94.8471 24.9467C89.2318 16.5858 76.2703 2.35518 69.7891 1.85662C65.0893 1.4951 64.4863 36.6195 67.5906 44.1225C64.2196 47.816 59.5867 53.5815 55.8648 60.775C53.8313 64.7052 52.0697 69.0616 50.9345 73.7392C44.272 101.19 54.2858 125.104 76.8593 142.087C92.6484 153.965 110.444 155.049 125.763 155.049C134.602 155.049 157.92 154.46 175.423 141.491C211.197 114.983 199.922 74.0288 197.645 67.8475C197.369 67.0973 197.112 66.3815 196.865 65.691C195.846 62.8483 194.982 60.4363 193.521 57.8308C190.876 53.1143 187.851 48.9428 184.683 45.2778C188.808 38.3871 188.219 2.76309 184.094 2.44582C178.666 2.02824 165.829 13.6407 158.358 22.4787C157.942 22.9707 157.522 23.5146 157.114 24.061C156.814 24.4629 156.521 24.8661 156.241 25.251C155.235 26.6342 154.401 27.7815 154.045 27.7815C152.14 27.7815 155.223 23.2356 155.223 23.2356C147.271 19.9733 136.038 17.7651 128.709 17.7651Z" fill="#A289CB"/>
</g>
<path d="M162.294 27.1923C160.991 26.0886 159.209 25.036 157.114 24.061M96.8914 23.983C106.319 19.8586 114.568 17.7651 128.709 17.7651C136.038 17.7651 147.271 19.9733 155.223 23.2356M96.8914 23.983C90.7191 14.6758 74.3557 -0.726142 69.1998 0.679804C65.0366 1.81506 57.4236 30.1365 56.2898 47.8126C55.8648 54.4385 55.8648 60.775 55.8648 60.775M96.8914 23.983C96.8914 23.983 98.3304 26.6013 97.4815 27.1905C96.6326 27.7797 94.8471 24.9467 94.8471 24.9467M94.8471 24.9467C94.8961 24.9222 94.9444 24.8981 94.9922 24.8744C96.1135 24.3183 96.8914 23.983 96.8914 23.983M193.521 57.8308C193.521 57.8308 193.896 50.4769 193.521 36.6198C193.146 22.7627 188.479 0.678259 184.683 0.678218C175.385 0.678117 160.117 17.534 156.402 21.8895L155.223 23.2356M72.1455 39.5655C72.1455 39.5655 70.2653 41.1917 67.5906 44.1225C64.2196 47.816 59.5867 53.5815 55.8648 60.775C53.8313 64.7052 52.0697 69.0616 50.9345 73.7392C44.272 101.19 54.2858 125.104 76.8593 142.087C92.6484 153.965 110.444 155.049 125.763 155.049C134.602 155.049 157.92 154.46 175.423 141.491C211.197 114.983 199.922 74.0288 197.645 67.8475C197.369 67.0973 197.112 66.3815 196.865 65.691C195.846 62.8483 194.982 60.4363 193.521 57.8308C190.876 53.1143 187.851 48.9428 184.683 45.2778C183.52 43.9324 182.338 42.6552 181.148 41.4444M89.2318 28.3707C90.981 26.9718 93.3533 25.6873 94.9922 24.8744M155.223 23.2356C155.223 23.2356 152.14 27.7815 154.045 27.7815C154.401 27.7815 155.235 26.6342 156.241 25.251C156.521 24.8661 156.814 24.4629 157.114 24.061M155.223 23.2356C155.877 23.5039 156.509 23.7792 157.114 24.061M184.683 45.2778C188.808 38.3871 188.219 2.76309 184.094 2.44582C178.666 2.02824 165.829 13.6407 158.358 22.4787C157.942 22.9707 157.522 23.5146 157.114 24.061M94.8471 24.9467C89.2318 16.5858 76.2703 2.35518 69.7891 1.85662C65.0893 1.4951 64.4863 36.6195 67.5906 44.1225M94.8471 24.9467L94.9922 24.8744" stroke="#1C1135" stroke-width="1.1784" stroke-linecap="round"/>
<path d="M174.874 31.1598C180.636 36.1848 183.316 37.1596 184.351 38.4578C187.983 31.7771 187.288 3.05265 183.632 2.75875C178.82 2.37192 166.44 13.6617 159.85 22.2373C159.483 22.7147 160.209 21.7073 159.85 22.2373C159.85 22.2373 169.112 26.1347 174.874 31.1598Z" fill="url(#paint2_linear_2798_7942)"/>
<path d="M77.7959 31.0367C72.3803 36.1457 68.1424 38.1574 67.1691 39.4772C65.4015 34.1744 65.9907 2.48493 69.5738 2.1723C73.6504 1.81662 85.7261 13.2493 91.9163 21.9638C92.2609 22.4489 91.5786 21.4251 91.9163 21.9638C91.9163 21.9638 83.2116 25.9276 77.7959 31.0367Z" fill="url(#paint3_linear_2798_7942)"/>
<path d="M77.1305 55.9832C74.5515 56.3175 74.8725 68.9736 73.2607 70.8479C71.6489 72.7221 60.7813 75.3717 60.6884 77.957C60.5955 80.5422 70.5524 84.4198 71.6488 86.3587C72.7453 88.2975 71.8743 98.5029 74.886 99.2844C77.8977 100.066 84.0548 88.8494 86.0722 88.2424C88.0895 87.6354 99.8398 93.3981 101.629 91.2541C103.418 89.1101 96.7081 81.1885 96.4711 79.2496C96.234 77.3106 102.777 68.9091 101.629 66.9701C100.48 65.0312 90.0237 66.8826 88.0895 66.0007C86.1553 65.1188 79.7094 55.649 77.1305 55.9832Z" fill="#C3AEE6"/>
<g filter="url(#filter3_f_2798_7942)">
<circle cx="174.993" cy="112.537" r="7.07042" fill="#CD91D7"/>
</g>
<g filter="url(#filter4_f_2798_7942)">
<circle cx="77.1857" cy="112.537" r="7.07042" fill="#CD91D7"/>
</g>
<path d="M103.7 101.933C103.7 110.393 98.16 116.663 91.3264 116.663C84.4929 116.663 78.364 110.393 78.364 101.933C78.364 93.4719 84.4929 86.6133 91.3264 86.6133C98.16 86.6133 103.7 93.4719 103.7 101.933Z" fill="#040311"/>
<path d="M91.3266 96.6299C90.317 99.3954 87.1127 100.993 84.8454 100.165C82.578 99.3374 81.4792 96.4493 82.4888 93.6838C83.4983 90.9182 86.7024 89.3208 88.9698 90.1485C91.2372 90.9762 92.3361 93.8643 91.3266 96.6299Z" fill="#FAFAF9"/>
<path d="M173.225 101.933C173.225 110.393 167.097 116.663 160.263 116.663C153.429 116.663 147.301 110.393 147.301 101.933C147.301 93.4719 153.429 86.6133 160.263 86.6133C167.097 86.6133 173.225 93.4719 173.225 101.933Z" fill="#040311"/>
<path d="M160.306 97.1221C159.296 99.8876 156.092 101.485 153.824 100.657C151.557 99.8296 150.458 96.9415 151.468 94.176C152.477 91.4104 155.681 89.813 157.949 90.6407C160.216 91.4684 161.315 94.3565 160.306 97.1221Z" fill="#FAFAF9"/>
<path d="M117.981 119.018C122.105 118.428 124.462 113.715 125.051 113.715C125.641 113.715 127.997 118.428 132.122 119.018" stroke="black" stroke-width="2.35681" stroke-linecap="round"/>
<path d="M172.662 118.499C169.409 122.619 165.816 115.534 162.132 115.247C166.77 110.804 175.874 114.338 172.662 118.499Z" fill="#00B8F0"/>
<path d="M162.082 115.211L162.351 115.247C167.152 112.84 173.921 115.952 171.252 119.57C171.809 119.344 172.296 118.974 172.662 118.497C175.874 114.337 166.771 110.802 162.082 115.211Z" fill="#4ACFFF"/>
<path d="M172.662 118.499C169.409 122.619 165.816 115.534 162.132 115.247C166.77 110.804 175.874 114.338 172.662 118.499Z" stroke="#45413C" stroke-width="0.589202" stroke-linecap="round" stroke-linejoin="round"/>
<path d="M78.8992 118.499C82.1524 122.619 85.7451 115.534 89.4292 115.247C84.7907 110.804 75.6869 114.338 78.8992 118.499Z" fill="#00B8F0"/>
<path d="M89.4796 115.211L89.2108 115.247C84.4092 112.84 77.6407 115.952 80.3092 119.57C79.7523 119.344 79.2657 118.974 78.8995 118.497C75.6871 114.337 84.791 110.802 89.4796 115.211Z" fill="#4ACFFF"/>
<path d="M78.8992 118.499C82.1524 122.619 85.7451 115.534 89.4292 115.247C84.7907 110.804 75.6869 114.338 78.8992 118.499Z" stroke="#45413C" stroke-width="0.589202" stroke-linecap="round" stroke-linejoin="round"/>
<defs>
<filter id="filter0_f_2798_7942" x="48.5894" y="132.59" width="154" height="44" filterUnits="userSpaceOnUse" color-interpolation-filters="sRGB">
<feFlood flood-opacity="0" result="BackgroundImageFix"/>
<feBlend mode="normal" in="SourceGraphic" in2="BackgroundImageFix" result="shape"/>
<feGaussianBlur stdDeviation="5" result="effect1_foregroundBlur_2798_7942"/>
</filter>
<filter id="filter1_i_2798_7942" x="48.3147" y="-8.24882" width="153.398" height="163.887" filterUnits="userSpaceOnUse" color-interpolation-filters="sRGB">
<feFlood flood-opacity="0" result="BackgroundImageFix"/>
<feBlend mode="normal" in="SourceGraphic" in2="BackgroundImageFix" result="shape"/>
<feColorMatrix in="SourceAlpha" type="matrix" values="0 0 0 0 0 0 0 0 0 0 0 0 0 0 0 0 0 0 127 0" result="hardAlpha"/>
<feOffset dy="-8.24882"/>
<feGaussianBlur stdDeviation="5.89202"/>
<feComposite in2="hardAlpha" operator="arithmetic" k2="-1" k3="1"/>
<feColorMatrix type="matrix" values="0 0 0 0 0.380392 0 0 0 0 0.25098 0 0 0 0 0.607843 0 0 0 0.38 0"/>
<feBlend mode="normal" in2="shape" result="effect1_innerShadow_2798_7942"/>
</filter>
<filter id="filter2_i_2798_7942" x="48.3147" y="-8.24882" width="153.398" height="163.887" filterUnits="userSpaceOnUse" color-interpolation-filters="sRGB">
<feFlood flood-opacity="0" result="BackgroundImageFix"/>
<feBlend mode="normal" in="SourceGraphic" in2="BackgroundImageFix" result="shape"/>
<feColorMatrix in="SourceAlpha" type="matrix" values="0 0 0 0 0 0 0 0 0 0 0 0 0 0 0 0 0 0 127 0" result="hardAlpha"/>
<feOffset dy="-8.24882"/>
<feGaussianBlur stdDeviation="5.89202"/>
<feComposite in2="hardAlpha" operator="arithmetic" k2="-1" k3="1"/>
<feColorMatrix type="matrix" values="0 0 0 0 0.380392 0 0 0 0 0.25098 0 0 0 0 0.607843 0 0 0 0.38 0"/>
<feBlend mode="normal" in2="shape" result="effect1_innerShadow_2798_7942"/>
</filter>
<filter id="filter3_f_2798_7942" x="163.209" y="100.753" width="23.5681" height="23.5679" filterUnits="userSpaceOnUse" color-interpolation-filters="sRGB">
<feFlood flood-opacity="0" result="BackgroundImageFix"/>
<feBlend mode="normal" in="SourceGraphic" in2="BackgroundImageFix" result="shape"/>
<feGaussianBlur stdDeviation="2.35681" result="effect1_foregroundBlur_2798_7942"/>
</filter>
<filter id="filter4_f_2798_7942" x="65.4016" y="100.753" width="23.5681" height="23.5679" filterUnits="userSpaceOnUse" color-interpolation-filters="sRGB">
<feFlood flood-opacity="0" result="BackgroundImageFix"/>
<feBlend mode="normal" in="SourceGraphic" in2="BackgroundImageFix" result="shape"/>
<feGaussianBlur stdDeviation="2.35681" result="effect1_foregroundBlur_2798_7942"/>
</filter>
<linearGradient id="paint0_linear_2798_7942" x1="186.667" y1="0.325158" x2="162.198" y2="39.1951" gradientUnits="userSpaceOnUse">
<stop offset="0.137215" stop-color="#543291"/>
<stop offset="0.401763" stop-color="#A087CA"/>
<stop offset="1" stop-color="#A087CA"/>
</linearGradient>
<linearGradient id="paint1_linear_2798_7942" x1="66.723" y1="-0.300427" x2="92.3836" y2="37.3761" gradientUnits="userSpaceOnUse">
<stop offset="0.137215" stop-color="#543291"/>
<stop offset="0.401763" stop-color="#A087CA"/>
<stop offset="1" stop-color="#A087CA"/>
</linearGradient>
<linearGradient id="paint2_linear_2798_7942" x1="186.667" y1="0.325158" x2="162.198" y2="39.1951" gradientUnits="userSpaceOnUse">
<stop offset="0.137215" stop-color="#543291"/>
<stop offset="0.401763" stop-color="#A087CA"/>
<stop offset="1" stop-color="#A087CA"/>
</linearGradient>
<linearGradient id="paint3_linear_2798_7942" x1="66.723" y1="-0.300427" x2="92.3836" y2="37.3761" gradientUnits="userSpaceOnUse">
<stop offset="0.137215" stop-color="#543291"/>
<stop offset="0.401763" stop-color="#A087CA"/>
<stop offset="1" stop-color="#A087CA"/>
</linearGradient>
</defs>
</svg>
