<svg width="66" height="70" viewBox="0 0 66 70" fill="none" xmlns="http://www.w3.org/2000/svg">
<path d="M13.2982 7.26268C15.5375 5.4383 19.2558 3.184 21.9256 2.11386C29.6491 -0.98208 39.5368 -0.741889 46.8865 3.26208C50.7244 5.29677 54.3846 7.42341 57.1974 10.883C63.2317 18.106 66.0365 27.6868 64.948 37.0249C64.3207 42.4069 62.5108 48.408 59.3321 52.8482C60.1555 52.7553 64.3838 51.9669 64.8188 52.3369C65.0301 52.5165 65.0969 52.8227 65.104 53.0876C65.1321 54.1351 63.6597 57.7356 63.2196 58.9209C63.6259 59.9574 65.439 63.3524 65.06 64.256C64.9287 64.569 64.6424 64.7491 64.3382 64.8698C63.3096 65.278 61.1284 65.4601 59.9585 65.6039C59.9563 66.3161 60.0703 67.261 59.5323 67.8123C58.8394 68.5226 56.9931 68.5691 56.0346 68.7086C48.3928 69.8194 40.2696 70.0384 32.5507 69.9949C29.1252 69.9754 7.39347 69.3109 5.76935 67.7073C5.28311 67.2273 5.35781 66.2865 5.35436 65.655C-2.09266 64.6228 -0.310655 64.7863 2.03976 58.8573C1.61284 57.8239 -0.229959 53.7059 0.122233 52.846C0.22027 52.6066 0.39058 52.4499 0.62963 52.355C1.5343 51.9955 5.22318 52.7272 6.36375 52.8832C5.44736 51.6936 4.56075 50.0303 3.91722 48.657C1.16248 42.8099 0.115926 36.3034 0.898179 29.8874C1.24931 27.0254 1.915 24.2109 2.8832 21.4949C2.95425 21.0546 3.66956 19.4313 3.89697 18.9324C5.97149 14.2966 9.2102 10.2764 13.2982 7.26268Z" fill="#010001"/>
<path d="M13.2982 7.26268C15.5375 5.4383 19.2558 3.184 21.9256 2.11386C29.6491 -0.98208 39.5368 -0.741889 46.8865 3.26208C50.7244 5.29677 54.3846 7.42341 57.1974 10.883C63.2317 18.106 66.0365 27.6868 64.948 37.0249C64.3207 42.4069 62.5108 48.408 59.3321 52.8482C60.1555 52.7553 64.3838 51.9669 64.8188 52.3369C65.0301 52.5165 65.0969 52.8227 65.104 53.0876C65.1321 54.1351 63.6597 57.7356 63.2196 58.9209C63.6259 59.9574 65.439 63.3524 65.06 64.256C64.9287 64.569 64.6424 64.7491 64.3382 64.8698C63.3096 65.278 61.1284 65.4601 59.9585 65.6039C59.9563 66.3161 60.0703 67.261 59.5323 67.8123C58.8394 68.5226 56.9931 68.5691 56.0346 68.7086C48.3928 69.8194 40.2696 70.0384 32.5507 69.9949C29.1252 69.9754 7.39347 69.3109 5.76935 67.7073C5.28311 67.2273 5.35781 66.2865 5.35436 65.655C-2.09266 64.6228 -0.310655 64.7863 2.03976 58.8573C1.61284 57.8239 -0.229959 53.7059 0.122233 52.846C0.22027 52.6066 0.39058 52.4499 0.62963 52.355C1.5343 51.9955 5.22318 52.7272 6.36375 52.8832C5.44736 51.6936 4.56075 50.0303 3.91722 48.657C1.16248 42.8099 0.115926 36.3034 0.898179 29.8874C1.24931 27.0254 1.915 24.2109 2.8832 21.4949C3.10069 21.5594 3.21587 21.7972 3.37304 21.9896C3.33254 22.9481 2.58438 24.8828 2.34776 25.8596C0.0411848 35.3815 1.94012 46.0672 8.05305 53.8251C8.53389 54.4353 9.35578 55.6931 9.89228 56.1567C11.2645 56.3077 12.8842 56.365 14.2188 56.5636C13.6478 56.0254 12.6338 55.0899 12.2259 54.4788C12.0226 54.453 10.3385 53.8364 9.98536 53.7275C10.016 53.7074 10.2878 53.5394 10.2922 53.5394C11.2542 53.5482 12.2016 53.4241 13.1591 53.3494L13.8722 53.362C14.4295 53.5004 14.9953 53.6022 15.5658 53.6669C17.0553 53.8404 18.3133 53.7304 17.0758 55.5483C18.2759 55.319 22.9244 55.3502 22.7955 53.543L23.8803 53.7287C24.1455 53.8304 24.172 53.8706 24.3508 54.084C25.0017 54.7649 25.3429 55.0639 26.2746 55.3771C25.8901 55.8367 25.104 56.7359 24.8477 57.23C25.1417 57.4208 25.3393 57.4432 25.6887 57.3731L26.8872 57.472C27.019 57.5269 28.1545 57.5304 28.3811 57.522C30.2073 57.4547 32.1778 57.7536 33.9691 57.4369C34.2754 57.449 34.8322 57.416 35.106 57.2765C35.2101 57.3848 35.3529 57.4857 35.503 57.5076C37.1568 57.7364 38.8952 57.526 40.554 57.4256C42.8716 57.2854 45.1877 57.1433 47.4978 56.9101C47.9303 56.8665 48.4363 56.7967 48.8628 56.8055C49.5986 57.0836 53.6188 56.4201 54.6604 56.4751C54.8242 56.4838 55.134 56.4667 55.2833 56.3981C55.0798 56.2662 54.9916 56.3122 54.7138 56.3073C54.9644 56.2641 55.4589 56.2406 55.7294 56.2194C58.479 53.5028 61.1993 48.6116 62.4295 44.9935C65.7109 35.3435 64.9811 25.0603 59.9083 16.1564C56.3667 9.94022 51.4253 5.84984 44.8137 3.20718C43.4348 2.65606 42.1893 1.8938 40.6644 1.63654C35.5251 0.331032 29.6729 0.365983 24.6156 2.00495C22.3363 2.74358 19.4227 4.27035 17.3052 5.40762C16.5412 5.81797 15.4586 6.67788 14.644 7.16502C14.155 7.29305 14.013 7.6731 13.5439 7.61519C13.3832 7.48229 13.3468 7.46226 13.2982 7.26268Z" fill="#DC5F2F"/>
<path d="M13.1594 53.3506L13.8725 53.3632C14.4298 53.5015 14.9955 53.6033 15.5661 53.668C17.0555 53.8416 18.3135 53.7315 17.076 55.5495C18.2761 55.3202 22.9246 55.3513 22.7958 53.5442L23.8805 53.7299C24.1457 53.8316 24.1722 53.8718 24.351 54.0851C25.0019 54.766 25.3432 55.065 26.2749 55.3782C25.8903 55.8378 25.1042 56.7371 24.8479 57.2312C24.5931 57.3924 20.8759 57.0883 20.2244 57.0941C19.4287 56.9398 17.3761 57.0111 16.6832 56.734C15.9727 56.7175 15.2648 56.6399 14.5675 56.5018C14.0088 55.9048 13.4204 55.3057 12.853 54.7144L12.7489 54.5983C12.4319 54.5484 12.5056 54.4426 12.2261 54.48C12.0228 54.4541 10.3387 53.8375 9.9856 53.7286C10.0162 53.7086 10.288 53.5405 10.2924 53.5406C11.2544 53.5493 12.2018 53.4252 13.1594 53.3506Z" fill="#ED6F2C"/>
<path d="M23.8805 53.7285C24.1457 53.8302 24.1722 53.8704 24.351 54.0837C25.0019 54.7647 25.3431 55.0636 26.2748 55.3769C25.8903 55.8365 25.1042 56.7357 24.8479 57.2298C24.5931 57.3911 20.8759 57.0869 20.2244 57.0928C19.4287 56.9384 17.3761 57.0098 16.6831 56.7326C16.9202 56.4472 16.9702 56.8364 17.5489 56.5803C18.7038 56.8234 20.5233 56.7313 21.6138 56.3052L21.639 56.1376C21.8398 55.8681 22.5766 55.5695 22.8944 55.3344C23.677 54.7555 23.7059 54.593 23.8805 53.7285Z" fill="#F2996A"/>
<path d="M23.8804 53.7285C24.1457 53.8302 24.1721 53.8704 24.3509 54.0837C23.8159 55.369 22.8845 55.9222 21.6138 56.3052L21.639 56.1376C21.8398 55.8681 22.5765 55.5695 22.8944 55.3344C23.677 54.7555 23.7058 54.593 23.8804 53.7285Z" fill="#B6371B"/>
<path d="M12.8525 54.7134C13.4753 54.6771 14.451 55.0493 15.5926 55.0138C15.5407 56.6436 16.2867 56.1904 17.5485 56.5807C16.9698 56.8369 16.9198 56.4477 16.6827 56.7331C15.9722 56.7166 15.2643 56.6389 14.5671 56.5009C14.0084 55.9039 13.42 55.3048 12.8525 54.7134Z" fill="#F7AF87"/>
<path d="M12.2257 54.4795C12.5053 54.4422 12.4316 54.5479 12.7485 54.5978L12.8526 54.7139C13.4201 55.3052 14.0085 55.9043 14.5672 56.5014C15.2644 56.6394 15.9723 56.717 16.6828 56.7335C17.3758 57.0106 19.4284 56.9393 20.2241 57.0937C19.8788 57.2353 10.0956 56.4246 9.87305 56.3133L9.89217 56.1573C11.2644 56.3083 12.8841 56.3656 14.2187 56.5642C13.6477 56.0261 12.6337 55.0906 12.2257 54.4795Z" fill="#CE592A"/>
<path d="M23.7604 61.2168C24.7187 61.1921 26.0978 61.0728 26.8384 61.7262C27.9856 62.7382 27.9748 64.3773 27.0238 65.5021C26.07 66.3545 24.971 66.1266 23.7243 66.0739C23.6763 64.5802 23.5823 62.6727 23.7604 61.2168Z" fill="white"/>
<path d="M24.8304 62.2373C26.4849 62.3008 27.1622 63.3655 26.2548 64.8134C25.724 65.2411 25.4248 65.1873 24.7587 65.1877C24.7015 64.3156 24.7704 63.1113 24.8304 62.2373Z" fill="#DC5F2F"/>
<path d="M41.6967 61.2439C43.4847 61.1749 44.6064 61.1348 44.5195 63.2555C44.3255 63.4531 44.0425 63.7338 43.8674 63.9335C43.3766 64.4937 44.6003 65.1507 44.5279 65.8161C44.267 66.0929 43.8011 66.1445 43.4961 65.912C43.1031 65.273 42.8213 64.7634 42.3115 64.2068C42.1964 64.7636 42.3095 65.3703 42.0694 65.8631C41.9338 66.1413 41.4562 66.1594 41.2315 65.9927C41.0969 65.3262 41.0549 62.1394 41.1291 61.4009C41.3348 61.2449 41.4023 61.2838 41.6967 61.2439Z" fill="white"/>
<path d="M42.2433 62.2061C42.7267 62.2168 43.2669 62.2408 43.4541 62.756C43.3647 63.0593 43.3991 62.9658 43.1461 63.1984C42.7961 63.3631 42.5051 63.5131 42.2215 63.207C42.1204 62.9118 42.2029 62.5252 42.2433 62.2061Z" fill="#DC5F2F"/>
<path d="M54.7249 60.3535C56.6462 60.1185 57.1843 61.959 55.7375 63.289C56.1343 63.673 56.9883 64.6225 56.2526 65.0844C55.5797 65.1162 55.3672 64.5297 55.0924 64.0236C55.0429 63.9458 54.991 63.8695 54.9371 63.7946C54.7932 63.599 54.6524 63.4602 54.4225 63.4239C54.1518 63.8156 54.6026 64.8786 53.9969 65.3321C53.7021 65.394 53.8143 65.4088 53.5614 65.3018C53.0205 64.7317 53.1749 61.5074 53.1685 60.514C53.6868 60.455 54.2056 60.4015 54.7249 60.3535Z" fill="white"/>
<path d="M54.3235 61.3885C54.8124 61.3348 55.4535 61.2896 55.5836 61.8906C55.5345 62.1432 55.4588 62.1964 55.2834 62.3751C54.2728 62.8116 54.0292 62.3363 54.3235 61.3885Z" fill="#DC5F2F"/>
<path d="M47.8573 61.0016C48.1716 60.9851 48.5113 60.9899 48.8278 60.9883C48.8606 61.8801 49.3173 65.6629 48.3366 65.8091C47.6111 65.578 46.7086 63.8197 46.085 63.1209C46.1182 64.0496 46.1178 64.8906 46.105 65.8202C45.9366 66.0418 45.5904 66.0394 45.3528 65.9242C44.9526 65.4969 45.1165 63.6626 45.0682 62.9963C45.027 62.428 44.9081 61.0894 45.675 61.0478C46.3226 61.3119 47.2466 62.8891 47.905 63.5516C47.8464 62.7148 47.859 61.8428 47.8573 61.0016Z" fill="white"/>
<path d="M38.4956 61.2207L38.5629 61.2299C38.8265 61.2669 38.9352 61.2761 39.097 61.5098C39.5102 62.1065 40.7725 65.4878 40.6928 66.0169C40.4288 66.2146 40.5301 66.1894 40.2185 66.2338C39.3192 65.9524 39.8127 65.2663 38.7605 65.1911C38.6426 65.1934 38.2267 65.1989 38.1514 65.242C37.5884 65.5635 37.4916 66.4138 36.6821 66.1853C36.2802 65.6744 37.6637 62.6264 37.9316 61.944C38.057 61.6244 38.227 61.4291 38.4956 61.2207Z" fill="white"/>
<path d="M38.4126 62.8945C38.5201 62.9254 38.5886 62.9835 38.6807 63.0472C38.8379 63.3599 39.0105 63.9486 38.9757 64.2996C38.6034 64.3084 38.527 64.3641 38.2915 64.0704C38.1967 63.7616 38.3453 63.2332 38.4126 62.8945Z" fill="#DC5F2F"/>
<path d="M12.9791 60.546L13.0136 60.5451C17.5185 60.4716 16.9947 63.8999 14.2408 63.7894L13.992 63.7637C13.5766 64.0256 13.9215 64.7825 13.6177 65.373C13.3948 65.4735 12.9899 65.4395 12.7909 65.2891C12.5617 64.7964 12.8364 61.2279 12.9791 60.546Z" fill="white"/>
<path d="M13.9862 61.5234C14.6564 61.5488 15.5029 61.8255 14.9932 62.6639C14.5831 62.8128 14.2562 62.9262 13.9264 62.6141C13.7854 62.2817 13.9045 61.869 13.9862 61.5234Z" fill="#DC5F2F"/>
<path d="M33.3086 61.3971C33.8666 61.3418 35.6408 61.1894 36.1135 61.4417C36.5617 63.2421 34.1547 61.4187 34.1791 62.8823C34.7997 63.5445 35.9752 62.7582 35.9139 63.8065C35.903 63.9929 35.8715 63.9936 35.7669 64.1474C35.1362 64.5347 34.1934 63.8394 34.247 64.9448C34.613 65.4586 35.4569 65.0138 36.0564 65.2996C36.3051 65.5925 36.2763 65.9397 36.0072 66.2064C35.6072 66.278 33.8723 66.2458 33.3712 66.2354C33.1076 66.3032 33.0136 66.2548 32.7529 66.1775C32.782 65.96 32.7766 65.5615 32.7802 65.3275L33.2353 65.2623C33.252 64.0378 33.2367 62.6044 33.3086 61.3971Z" fill="white"/>
<path d="M33.2353 65.2617C33.257 65.4879 33.29 66.0552 33.3712 66.2348C33.1076 66.3026 33.0136 66.2542 32.7529 66.1769C32.782 65.9595 32.7766 65.5609 32.7802 65.327L33.2353 65.2617Z" fill="#DC5F2F"/>
<path d="M51.7923 60.6603C52.1965 60.6123 52.4082 60.5093 52.6549 60.8493C52.8303 62.1435 51.402 61.2858 50.6512 61.7627C50.5382 61.9813 50.5967 62.3137 50.6171 62.5703C51.1594 62.5278 52.0516 62.3624 52.4435 62.8322C52.5321 63.5035 51.061 63.5408 50.6571 63.5725L50.6703 64.5773C51.1479 64.5441 51.6891 64.5389 52.1724 64.524C52.3483 64.5276 52.5141 64.545 52.6889 64.5609C52.7877 64.6621 52.8753 64.816 52.8468 64.9545C52.6751 65.7869 50.2993 65.6272 49.6703 65.6496C49.5744 64.1225 49.5997 62.4063 49.5996 60.8652C50.3196 60.7792 51.0681 60.7235 51.7923 60.6603Z" fill="white"/>
<path d="M10.0681 60.1874C10.8138 60.0745 12.4719 60.2139 12.1424 61.3493C11.6018 61.5162 10.408 61.0287 9.98867 61.4514L9.99467 61.6389C10.2384 62.0734 13.4633 62.974 11.9576 64.6186C11.4191 65.2068 11.1301 65.2053 10.3967 65.2194C9.76044 65.1287 8.27845 64.6631 9.01693 63.7769C9.61013 63.5067 9.91547 63.9097 10.3085 64.2878C10.6025 64.1465 11.0115 63.988 11.1667 63.7058C11.0262 62.9897 6.90462 62.0266 10.0681 60.1874Z" fill="white"/>
<path d="M20.273 61.04C20.8019 61.0545 22.7235 61.0243 23.1684 61.3169C23.2321 61.3515 23.239 61.6062 23.2257 61.6787C23.0445 62.6684 21.9661 61.7065 21.3369 62.2487C21.2364 62.524 21.2565 62.5861 21.2985 62.8722C21.4755 63.0245 22.5113 63.0207 22.8384 63.0398C22.867 63.2818 22.8431 63.6774 22.8348 63.935C22.3873 63.9573 21.5646 63.8107 21.2883 63.9672L21.2314 64.2299C21.2555 64.7856 21.1377 65.1046 21.8047 65.0219C22.4774 64.9384 23.4869 64.9686 23.003 65.9654C22.6704 66.0956 20.6454 65.9008 20.1792 65.8609C20.0713 65.0564 20.1854 61.9036 20.273 61.04Z" fill="white"/>
<path d="M16.7829 60.931C17.5451 60.8509 18.7352 60.9244 19.5085 61.0081C19.7718 61.2815 19.7736 61.571 19.5363 61.8596C18.9573 62.0138 17.5127 61.5272 17.6921 62.4563C18.0335 62.8226 18.7933 62.68 19.2769 62.9956C19.4072 63.2275 19.3661 63.1788 19.3556 63.4783C19.0048 63.9932 18.5464 63.5176 17.8742 63.7449C17.6671 63.939 17.7323 63.9012 17.716 64.2756C17.8358 65.3326 18.738 64.5861 19.4686 64.9153C19.7415 65.2046 19.7052 65.6005 19.448 65.7141C18.958 65.9302 17.1638 65.6595 16.6763 65.6149C16.5932 64.3108 16.5924 62.2203 16.7829 60.931Z" fill="white"/>
<path d="M29.8637 66.1538C29.6728 64.8021 29.824 63.0692 29.7985 61.6794C29.7904 61.2415 30.3659 61.2991 30.6849 61.3599C30.9452 61.6818 30.8331 64.5268 30.8528 65.2525C31.4631 65.2278 32.1832 65.2043 32.7802 65.3267C32.7766 65.5606 32.782 65.9592 32.7529 66.1766C32.0719 66.3025 30.5985 66.1945 29.8637 66.1538Z" fill="white"/>
<path d="M14.6442 7.16556C15.4589 6.67842 16.5415 5.8185 17.3055 5.40816C19.423 4.27089 22.3366 2.74412 24.6158 2.00549C29.6732 0.366522 35.5254 0.33157 40.6647 1.63708C42.1896 1.89434 43.435 2.65659 44.814 3.20772C51.4256 5.85038 56.367 9.94075 59.9086 16.1569C64.9814 25.0609 65.7111 35.344 62.4298 44.994C61.1996 48.6121 58.4793 53.5034 55.7296 56.22C55.4592 56.2411 54.9647 56.2647 54.7141 56.3079C53.7956 56.4085 52.8745 56.4841 51.9519 56.5345C53.0415 54.9149 54.8137 53.1548 56.0102 51.5012C56.3317 51.3223 57.0826 49.9118 57.0787 49.4599C58.6762 47.3927 62.0507 43.0525 62.097 40.2174C62.1029 39.8525 61.6547 39.5438 61.3691 39.3115C61.1511 39.1955 61.0888 39.1613 60.8932 39.0019C60.2805 38.5228 58.8845 37.8522 58.1383 37.5077C58.9446 36.9559 60.0157 35.0192 60.768 34.2437C60.9626 34.0431 61.0753 33.9973 61.2818 33.8181L61.3689 33.2704C61.3852 32.7701 61.3697 32.3499 61.3481 31.8496C61.2353 31.3259 61.2587 30.3317 61.3168 29.7942C61.7111 28.916 60.4367 26.6145 60.1966 25.3697L60.3513 25.3827C60.0285 25.1405 59.8415 23.5487 59.6079 22.9271L59.5578 22.8888C59.2448 22.0959 58.9492 21.2962 58.6711 20.4905C58.1963 19.5041 57.0098 17.5549 56.7221 16.7596L56.6303 16.7147C56.1415 15.9832 54.4987 13.7395 53.913 13.1459C51.9505 10.9451 48.7804 8.89176 46.2792 7.35232C46.1604 7.27912 46.0187 7.38157 45.9221 7.437C45.7969 7.15409 45.7016 6.851 45.6027 6.55706L44.8566 5.19448C43.8845 3.44285 43.0756 3.99458 41.5964 4.86191C41.408 5.00037 41.0859 5.25328 40.8979 5.36676C40.688 5.1425 39.2685 4.83379 38.7105 4.6189C37.0101 4.39247 35.0849 4.35699 33.4298 4.0773L33.2354 4.21906C32.7127 4.14713 31.8988 4.22206 31.3577 4.26189C27.9248 4.51457 24.6122 5.52134 21.4831 6.926C20.9125 7.18221 20.0443 7.22451 19.7328 7.76746L19.2267 7.61611C17.3292 7.15844 17.036 7.26082 16.4541 9.11715C16.3944 9.66849 16.288 10.1352 16.1712 10.6768C15.9553 10.6013 15.8692 10.5226 15.6864 10.6336C14.386 11.423 13.3738 12.5362 12.3941 13.6159C9.89489 16.37 8.19329 18.7972 6.86469 22.2942C6.46979 23.3335 6.11473 24.4488 5.70176 25.4859C5.3431 25.7036 5.42177 25.7979 5.4691 26.2127C4.53494 30.4364 4.33018 33.7061 4.94243 38.001C5.75869 37.7457 6.0149 37.3171 7.21495 37.0273C8.37563 37.3749 8.77134 37.9696 9.42282 38.1411C9.0529 39.266 8.445 40.9147 8.67886 42.0665C8.34135 41.9324 8.3898 41.8942 8.07599 41.9425C7.66797 42.3703 6.19483 43.766 6.15351 44.2011C6.01835 44.3638 5.97897 44.3697 5.77481 44.4343L5.68564 44.5721C6.42059 44.6645 6.66248 43.2257 7.49479 42.8671L7.59132 42.9021C7.7567 43.4616 6.57735 44.7591 6.0293 44.8949C5.92797 44.9201 5.84007 44.8731 5.68676 44.9214C5.62586 45.0415 5.67266 45.003 5.56878 45.063C5.72659 45.1274 5.70544 45.0993 5.90427 45.0673L6.16281 44.9949C6.92514 45.5955 7.30923 46.5908 7.72227 47.4682L7.74815 47.6041C8.25592 48.3269 8.67459 49.3036 9.14163 50.0707C9.24529 50.2409 9.4745 50.58 9.5495 50.7388L9.34489 51.1241C9.56683 51.469 10.5137 52.5996 10.5766 52.7574C10.3476 52.9765 10.0111 53.2546 9.89466 53.5354C9.92339 53.609 9.93779 53.6678 9.98564 53.728C10.3388 53.8369 12.0229 54.4535 12.2261 54.4794C12.6341 55.0904 13.6481 56.0259 14.2191 56.5641C12.8845 56.3655 11.2647 56.3082 9.89256 56.1572C9.35607 55.6937 8.53418 54.4359 8.05334 53.8257C1.9404 46.0678 0.0414721 35.3821 2.34805 25.8602C2.58467 24.8833 3.33282 22.9486 3.37333 21.9901C3.21616 21.7977 3.10098 21.5599 2.88349 21.4954C2.95454 21.0552 3.66985 19.4319 3.89726 18.933C5.97177 14.2971 9.21049 10.2769 13.2985 7.26322C13.3471 7.4628 13.3834 7.48283 13.5442 7.61573C14.0133 7.67363 14.1553 7.29359 14.6442 7.16556Z" fill="#F9B986"/>
<path d="M7.21491 37.0283C8.37558 37.3759 8.7713 37.9706 9.42277 38.142C9.05286 39.2669 8.44496 40.9157 8.67882 42.0675C8.3413 41.9334 8.38976 41.8952 8.07594 41.9435C7.66792 42.3713 6.19479 43.767 6.15346 44.2021C6.14453 43.7667 5.86455 42.7112 5.74394 42.2711C5.33682 40.7854 4.96203 39.565 4.94238 38.002C5.75864 37.7467 6.01485 37.3181 7.21491 37.0283Z" fill="#F29A74"/>
<path d="M13.2983 7.26367C13.347 7.46325 13.3833 7.48328 13.544 7.61618C14.0131 7.67409 14.1551 7.29405 14.6441 7.16602C12.7996 8.84189 10.6111 10.3544 9.05797 12.349C8.97352 12.4575 8.67658 12.7935 8.66795 12.9073C7.67251 13.9867 6.09257 16.5194 5.40606 17.8441C4.86086 18.8964 4.38872 20.0541 3.77887 21.1621C3.58655 21.4589 3.44565 21.6399 3.37315 21.9905C3.21597 21.7982 3.1008 21.5604 2.8833 21.4959C2.95435 21.0556 3.66966 19.4323 3.89707 18.9334C5.97159 14.2975 9.2103 10.2774 13.2983 7.26367Z" fill="#F5AD82"/>
<path d="M16.4541 9.11719C16.3944 9.66854 16.288 10.1352 16.1711 10.6769C15.9553 10.6014 15.8692 10.5227 15.6864 10.6336C14.386 11.4231 13.3738 12.5363 12.394 13.616C9.89485 16.37 8.19325 18.7972 6.86464 22.2943C6.46975 23.3335 6.11469 24.4488 5.70172 25.486C5.37178 25.4262 5.34688 25.4141 5.18555 25.1447C5.72167 23.5854 5.95793 22.4673 6.69064 20.8652C7.5279 19.0862 8.89423 16.4374 10.2132 14.9889C11.4917 13.5848 14.8574 9.72726 16.4541 9.11719Z" fill="#DC5F2F"/>
<path d="M5.77462 44.4342C4.13513 39.5279 3.64011 34.3116 4.32751 29.1845C4.43147 28.3869 5.20827 25.4946 5.1854 25.1445C5.34673 25.4139 5.37163 25.426 5.70157 25.4858C5.3429 25.7035 5.42158 25.7977 5.46891 26.2126C4.53475 30.4362 4.32999 33.706 4.94224 38.0009C4.96189 39.5639 5.33668 40.7843 5.7438 42.27C5.8644 42.7101 6.14439 43.7656 6.15331 44.201C6.01816 44.3637 5.97878 44.3696 5.77462 44.4342Z" fill="#EE845F"/>
<path d="M19.2266 7.61615C19.4942 7.27661 20.0319 6.95822 20.4157 6.74401C23.6548 4.93636 27.7293 3.79241 31.4282 3.60603C32.0994 3.5722 33.038 3.50875 33.6697 3.67466L33.4296 4.07735L33.2352 4.2191C32.7126 4.14718 31.8987 4.2221 31.3575 4.26193C27.9246 4.51462 24.612 5.52139 21.483 6.92605C20.9123 7.18226 20.0442 7.22456 19.7326 7.76751L19.2266 7.61615Z" fill="#DC5F2F"/>
<path d="M45.6025 6.55664C49.9904 8.42797 54.6353 12.0967 56.9367 16.446C56.9618 16.4934 56.9485 16.5819 56.943 16.6329C56.8503 16.7207 56.8497 16.7367 56.7219 16.7592L56.6301 16.7142C56.1413 15.9827 54.4985 13.7391 53.9128 13.1454C51.9504 10.9447 48.7802 8.89134 46.2791 7.3519C46.1602 7.2787 46.0185 7.38115 45.922 7.43658C45.7967 7.15367 45.7014 6.85058 45.6025 6.55664Z" fill="#DC5F2F"/>
<path d="M61.2817 33.8184C61.3089 34.9292 61.2238 38.0118 60.8931 39.0021C60.2804 38.5231 58.8844 37.8525 58.1382 37.5079C58.9445 36.9562 60.0156 35.0195 60.7679 34.244C60.9625 34.0434 61.0752 33.9975 61.2817 33.8184Z" fill="#F7AF87"/>
<path d="M3.77881 21.162C4.38866 20.0541 4.8608 18.8963 5.406 17.8441C6.09251 16.5193 7.67245 13.9866 8.66789 12.9072L8.53469 13.3647L8.69249 13.41C8.23077 14.3456 7.44947 15.1447 6.96434 16.0413C5.98578 17.85 5.08829 19.733 4.23393 21.6029C4.16598 21.7517 4.09622 21.8242 3.95072 21.891C3.77873 21.6933 3.79291 21.4556 3.77881 21.162Z" fill="#FAE8CD"/>
<path d="M61.3687 33.27C61.4094 33.0066 61.4326 32.8509 61.5101 32.5938C62.0064 33.034 61.3928 38.3822 61.3689 39.311C61.1509 39.1951 61.0887 39.1608 60.8931 39.0014C61.2238 38.0111 61.3088 34.9285 61.2817 33.8177L61.3687 33.27Z" fill="#DB6E3B"/>
<path d="M33.6698 3.67383C33.9663 3.84131 37.5264 3.85766 38.6571 4.34038L38.7104 4.61812C37.01 4.39168 35.0849 4.35621 33.4297 4.07652L33.6698 3.67383Z" fill="#F2996A"/>
<path d="M7.74807 47.6045C8.25584 48.3272 8.67451 49.304 9.14155 50.071C9.24521 50.2412 9.47442 50.5803 9.54942 50.7392L9.34481 51.1245C9.16488 50.4794 7.87475 49.1671 7.46216 47.926C7.70832 47.7546 7.65364 47.8392 7.74807 47.6045Z" fill="#F2996A"/>
<path d="M6.16283 44.9941C6.92517 45.5947 7.30926 46.59 7.7223 47.4674L7.74818 47.6034C7.65375 47.838 7.70842 47.7534 7.46226 47.9249C6.72468 46.903 6.48407 45.837 5.9043 45.0665L6.16283 44.9941Z" fill="#EE845F"/>
<path d="M38.657 4.3418C39.229 4.39325 41.144 4.60746 41.5962 4.86254C41.4078 5.001 41.0857 5.25391 40.8977 5.36739C40.6878 5.14313 39.2683 4.83442 38.7103 4.61953L38.657 4.3418Z" fill="#DC5F2F"/>
<path d="M59.6078 22.9284C59.5867 22.6519 59.6303 22.6317 59.835 22.5146C60.2019 23.0962 60.553 24.3616 60.5666 25.092C60.5683 25.1835 60.4199 25.3209 60.3513 25.384C60.0284 25.1417 59.8415 23.55 59.6078 22.9284Z" fill="#EE845F"/>
<path d="M58.6709 20.4913C58.8527 20.3444 58.7688 20.3689 58.9826 20.3863C59.2838 20.6551 59.6533 22.0326 59.8349 22.5142C59.6302 22.6312 59.5865 22.6515 59.6077 22.9279L59.5576 22.8896C59.2446 22.0967 58.9489 21.297 58.6709 20.4913Z" fill="#F2996A"/>
<path d="M61.3168 29.7939C61.6555 30.2893 61.7229 31.3595 61.3481 31.8494C61.2353 31.3257 61.2587 30.3315 61.3168 29.7939Z" fill="#F2996A"/>
<path d="M8.67869 42.0674C8.81954 42.2928 8.90962 42.4866 9.14461 42.6072C9.26439 42.6118 10.5493 42.0317 10.8905 41.9159C12.7674 41.2789 14.8378 42.1356 16.1779 43.48C16.5398 43.8431 16.8894 44.232 17.313 44.5365C18.4161 43.371 18.7167 42.8733 20.2101 42.039C18.765 43.8604 19.5786 44.0631 21.2258 45.0082C20.8321 45.5356 20.63 45.7651 20.0906 46.1381C20.4209 46.3338 20.787 46.3848 20.9611 46.5751C21.7721 46.9928 22.3351 47.6036 23.177 47.7203C23.1435 47.8268 23.063 48.0573 23.0497 48.156C22.7141 48.6414 22.1061 48.7176 21.5408 48.9577C21.2866 49.1959 20.7253 49.7727 20.7119 50.1448C20.5568 50.4185 20.4768 50.5577 20.2822 50.8026C20.4941 50.9623 20.7472 51.1645 20.9725 51.2946L21.0528 51.3738C20.9031 51.5261 20.6957 51.7194 20.5815 51.8924C21.0241 52.4053 21.2111 52.7739 21.5848 53.2901L22.7956 53.5444C22.9245 55.3516 18.276 55.3204 17.0759 55.5497C18.3134 53.7318 17.0554 53.8418 15.5659 53.6683C14.9954 53.6036 14.4296 53.5018 13.8724 53.3634L13.1592 53.3508C12.2017 53.4255 11.2543 53.5496 10.2923 53.5408C10.2879 53.5408 10.0161 53.7088 9.98547 53.7289C9.93761 53.6686 9.92321 53.6099 9.89449 53.5363C10.011 53.2554 10.3474 52.9774 10.5764 52.7582C10.5135 52.6005 9.56665 51.4699 9.34471 51.125L9.54932 50.7397C9.47432 50.5808 9.24511 50.2417 9.14146 50.0716C8.67441 49.3045 8.25574 48.3277 7.74797 47.605L7.7221 47.4691C7.30905 46.5916 6.92496 45.5963 6.16263 44.9958L5.90409 45.0682C5.70526 45.1001 5.72641 45.1282 5.5686 45.0638C5.67248 45.0039 5.62568 45.0424 5.68658 44.9223C5.83989 44.874 5.92779 44.9209 6.02912 44.8958C6.57717 44.76 7.75652 43.4624 7.59114 42.903L7.49461 42.8679C6.6623 43.2266 6.42041 44.6654 5.68546 44.5729L5.77464 44.4351C5.9788 44.3706 6.01817 44.3646 6.15333 44.202C6.19466 43.7669 7.66779 42.3712 8.07581 41.9434C8.38962 41.8951 8.34117 41.9333 8.67869 42.0674Z" fill="#FACDAE"/>
<path d="M12.9751 52.6327C13.6648 52.0263 16.7923 50.2669 16.7709 49.5595C16.5921 49.1486 16.0046 49.1421 15.5472 48.9307C15.6275 48.7475 15.8872 48.6717 16.048 48.551C17.4 47.5356 20.6622 47.0844 21.5408 48.9566C21.2867 49.1948 20.7253 49.7716 20.712 50.1437C20.5569 50.4174 20.4769 50.5566 20.2823 50.8015C20.4942 50.9612 20.7473 51.1634 20.9725 51.2935L21.0529 51.3727C20.9032 51.525 20.6958 51.7183 20.5815 51.8913C21.0242 52.4042 21.2112 52.7728 21.5849 53.289L22.7957 53.5433C22.9246 55.3504 18.2761 55.3193 17.076 55.5486C18.3135 53.7307 17.0555 53.8407 15.566 53.6672C14.9955 53.6025 14.4297 53.5006 13.8724 53.3623C13.544 53.2432 13.2332 52.887 12.9751 52.6327Z" fill="#FBBF43"/>
<path d="M18.1327 50.4016C18.345 50.386 18.6461 50.3335 18.8144 50.4283C18.7084 50.6177 18.5102 50.7404 18.3324 50.8767C18.3073 51.336 19.4128 52.0726 19.7945 52.325C19.0282 52.9602 18.434 53.4474 17.4474 52.9536C15.2808 51.8688 17.5546 51.6597 18.1962 50.7684C18.2671 50.6699 18.1716 50.5049 18.1327 50.4016Z" fill="#FEE482"/>
<path d="M18.3325 50.8767C19.0993 50.5938 19.5056 50.2924 20.2184 50.7965L20.2822 50.8016C20.4941 50.9613 20.7473 51.1635 20.9725 51.2936L21.0528 51.3728C20.9031 51.5251 20.6957 51.7185 20.5815 51.8914C20.3476 52.1233 20.0974 52.2016 19.7946 52.3249C19.4129 52.0726 18.3074 51.336 18.3325 50.8767Z" fill="#FCF5D5"/>
<path d="M18.4436 49.3926C19.7455 50.32 19.6447 48.8768 20.2184 50.7963C19.5055 50.2922 19.0992 50.5936 18.3324 50.8765C18.5102 50.7402 18.7084 50.6175 18.8144 50.4281C18.6461 50.3333 18.345 50.3858 18.1327 50.4014C18.0546 49.9669 18.2199 49.7552 18.4436 49.3926Z" fill="#FEECA1"/>
<path d="M18.4434 49.3927C18.6348 49.1941 18.6929 49.0563 19.0004 49.051C19.6781 49.0394 20.5063 49.4448 20.7116 50.1437C20.5565 50.4174 20.4765 50.5566 20.2819 50.8015L20.2181 50.7964C19.6444 48.8769 19.7452 50.3201 18.4434 49.3927Z" fill="#FEE482"/>
<path d="M15.2049 49.9105C14.6546 49.897 13.5892 50.0314 13.4147 49.4439C13.5422 48.534 15.1537 47.5908 15.9016 47.1828C17.3396 46.3984 18.4784 46.1125 20.0907 46.1372C20.4209 46.333 20.787 46.3839 20.9611 46.5743C21.7722 46.9919 22.3352 47.6027 23.1771 47.7194C23.1435 47.8259 23.0631 48.0565 23.0497 48.1551C22.7142 48.6405 22.1061 48.7167 21.5408 48.9568C20.6621 47.0846 17.4 47.5359 16.0479 48.5512C15.8871 48.6719 15.6275 48.7478 15.5471 48.9309C16.0046 49.1424 16.592 49.1488 16.7708 49.5597C16.7923 50.2671 13.6648 52.0265 12.9751 52.6329C13.2331 52.8873 13.544 53.2435 13.8724 53.3626L13.1593 53.35C12.2017 53.4246 11.2543 53.5487 10.2923 53.5399C10.2879 53.5399 10.0161 53.708 9.98551 53.728C9.93766 53.6678 9.92326 53.609 9.89453 53.5354C10.011 53.2546 10.3475 52.9765 10.5765 52.7574C10.6254 52.6509 10.8705 52.4808 10.9792 52.394C11.4885 52.2512 14.3712 50.3378 15.2049 49.9105Z" fill="#DC5F2F"/>
<path d="M20.9613 46.5742C21.7724 46.9919 22.3354 47.6027 23.1773 47.7194C23.1437 47.8259 23.0633 48.0564 23.0499 48.1551C22.3807 47.7431 21.8298 47.5155 21.1882 47.0237L21.2321 47.0292C21.2108 46.9108 21.0459 46.7647 20.9551 46.6681L20.9613 46.5742Z" fill="#B6371B"/>
<path d="M12.3005 53.02L12.975 52.6328C13.2331 52.8871 13.5439 53.2433 13.8724 53.3624L13.1592 53.3498L12.3005 53.02Z" fill="#F69031"/>
<path d="M6.45436 44.83C6.71185 44.625 6.9064 44.4759 7.13006 44.2245C7.385 43.9376 7.84904 42.7582 8.10578 42.6846C8.40819 42.8899 8.65668 43.1923 8.94837 43.3913C9.69645 43.9015 10.6611 44.5554 11.455 44.9692C10.4997 45.2748 10.2317 45.4982 9.47444 46.1736C9.31963 46.3116 9.03672 46.5956 8.87014 46.7001C8.5987 46.998 8.08388 47.2587 7.72206 47.4677C7.30902 46.5902 6.92493 45.5949 6.1626 44.9944L6.45436 44.83Z" fill="#EE845F"/>
<path d="M6.45436 44.8301C6.778 45.3682 8.23336 45.6694 8.87014 46.7002C8.5987 46.9981 8.08388 47.2588 7.72206 47.4678C7.30902 46.5903 6.92493 45.595 6.1626 44.9945L6.45436 44.8301Z" fill="#F7AF87"/>
<path d="M9.54934 50.7393C10.063 51.3788 10.3989 51.8152 10.9791 52.3945C10.8704 52.4813 10.6254 52.6513 10.5764 52.7578C10.5135 52.6001 9.56666 51.4695 9.34473 51.1245L9.54934 50.7393Z" fill="#EE845F"/>
<path d="M5.70154 25.4865C6.11451 24.4494 6.46957 23.3341 6.86446 22.2949C8.19307 18.7978 9.89467 16.3706 12.3938 13.6165C13.3736 12.5369 14.3858 11.4237 15.6862 10.6342C15.869 10.5233 15.9551 10.6019 16.1709 10.6775C15.8087 12.9908 15.099 18.6537 16.1373 20.7756C15.9379 21.3969 15.7521 21.9774 15.5864 22.6104C14.5252 23.0343 12.6852 25.5777 11.8441 26.4665C10.949 27.4122 9.9984 28.5423 9.36815 29.68C8.25322 28.651 7.06225 26.6516 5.71646 25.6845C5.57958 25.794 5.53848 26.0195 5.46888 26.2133C5.42155 25.7985 5.34287 25.7042 5.70154 25.4865Z" fill="#F2996A"/>
<path d="M9.36806 29.6799C9.99831 28.5423 10.9489 27.4121 11.844 26.4665C12.6852 25.5777 14.5251 23.0343 15.5864 22.6104C14.5992 26.8319 15.1351 30.2596 16.9 34.1359C15.8225 33.4482 15.2211 32.1856 14.1263 32.4787C12.7328 32.8517 11.1169 35.0844 10.3034 36.2491C10.0336 36.6353 9.59885 37.7002 9.42251 38.1416C8.77104 37.9702 8.37532 37.3755 7.21464 37.0279C6.01459 37.3177 5.75838 37.7463 4.94212 38.0016C4.32987 33.7067 4.53463 30.4369 5.46879 26.2133C5.5384 26.0195 5.5795 25.7939 5.71638 25.6845C7.06216 26.6516 8.25314 28.651 9.36806 29.6799Z" fill="#FACDAE"/>
<path d="M53.9128 13.1465C54.4985 13.7401 56.1413 15.9838 56.6301 16.7153L56.7219 16.7602C57.0097 17.5555 58.1962 19.5047 58.671 20.4911C58.949 21.2969 59.2447 22.0965 59.5577 22.8894L59.6078 22.9277C59.8414 23.5494 60.0283 25.1411 60.3512 25.3833L60.1965 25.3704C59.6758 25.7904 57.7511 27.6476 57.5549 28.1565C56.8863 27.3987 56.5255 27.0942 55.7014 26.5088C51.2755 23.7516 52.6121 27.1155 51.3018 26.7338C51.237 26.4776 51.2366 25.8236 51.2205 25.5243C51.1692 24.5702 51.1429 23.5922 50.8915 22.6638C50.5825 21.1138 49.957 19.6394 49.2354 18.2419C51.6997 16.5217 52.2831 15.7415 53.9128 13.1465Z" fill="#FACDAE"/>
<path d="M53.9128 13.1465C54.4985 13.7401 56.1413 15.9838 56.6301 16.7153C55.6272 17.0797 55.3223 17.7401 54.692 18.5213C53.7214 19.724 52.7448 21.0898 51.4721 21.9831C51.1938 22.1789 50.9596 22.3085 50.8915 22.6638C50.5825 21.1138 49.957 19.6394 49.2354 18.2419C51.6997 16.5217 52.2831 15.7415 53.9128 13.1465Z" fill="#FBBE96"/>
<path d="M59.5575 22.8896L59.6076 22.928C59.8412 23.5496 60.0281 25.1413 60.351 25.3836L60.1963 25.3706C59.6756 25.7906 57.7509 27.6479 57.5547 28.1567C56.8861 27.399 56.5253 27.0945 55.7012 26.509C56.8722 25.2913 58.2163 24.2956 59.5575 22.8896Z" fill="#F7AF87"/>
<path d="M36.214 52.1515C36.645 52.1388 37.2886 52.0593 37.6115 52.3843C38.1085 52.8989 37.4521 53.7786 37.1401 54.2295C36.5556 55.0745 35.8681 55.822 35.0947 56.4949C34.7392 56.8042 34.2948 57.1148 33.9691 57.4373C32.1778 57.754 30.2073 57.4551 28.3811 57.5224C28.1545 57.5308 27.0191 57.5273 26.8872 57.4724L25.6887 57.3735C25.9367 56.5239 28.1448 53.5728 28.8168 52.9787C31.4547 52.6373 33.4239 52.1076 36.214 52.1515Z" fill="#EF727D"/>
<path d="M36.214 52.1515C36.645 52.1388 37.2886 52.0593 37.6115 52.3843C38.1085 52.8989 37.4521 53.7786 37.1401 54.2295C36.5556 55.0745 35.8681 55.822 35.0947 56.4949C34.7392 56.8042 34.2948 57.1148 33.9691 57.4373C32.1779 57.754 30.2073 57.4551 28.3811 57.5224C28.1545 57.5308 27.0191 57.5273 26.8872 57.4724C27.2298 57.4244 28.3134 57.4574 28.6812 57.4619C29.6497 57.4807 30.6186 57.4775 31.5871 57.4521C32.2573 56.8521 33.208 56.2737 33.8922 55.716C34.5255 55.1997 36.7848 52.97 36.8946 52.3409C36.7364 52.2045 36.4482 52.1931 36.214 52.1515Z" fill="#D04968"/>
<path d="M19.7327 7.76687C20.0442 7.22393 20.9124 7.18163 21.483 6.92541C24.6121 5.52075 27.9247 4.51399 31.3576 4.2613C31.8987 4.22147 32.7126 4.14655 33.2353 4.21847C32.6481 5.00023 32.0804 5.68591 31.426 6.40317C30.927 6.95009 28.8454 8.9337 28.8693 9.52045C28.6373 9.6211 28.2155 9.74396 27.9651 9.82279C26.9154 10.1531 25.9821 10.5799 25.0021 11.0761C23.5158 9.592 21.715 8.4611 19.7327 7.76687Z" fill="#F2996A"/>
<path d="M60.196 25.3701C60.4361 26.6149 61.7105 28.9163 61.3162 29.7946C61.258 30.3321 61.2346 31.3263 61.3475 31.85C61.3691 32.3503 61.3846 32.7705 61.3683 33.2708L61.2812 33.8185C61.0747 33.9977 60.962 34.0435 60.7674 34.2441C60.0151 35.0196 58.944 36.9563 58.1377 37.508C56.2282 36.7107 55.1718 36.3035 53.124 35.9524C53.6746 34.738 54.6047 33.6093 55.7049 32.8824C56.6873 32.2333 57.2278 32.1402 58.3174 32.4627C58.5006 32.5259 58.8825 32.4604 59.0229 32.319C60.0116 31.3232 58.0736 28.8428 57.5544 28.1563C57.7506 27.6474 59.6753 25.7901 60.196 25.3701Z" fill="#FACDAE"/>
<path d="M45.9219 7.4363C46.0184 7.38087 46.1601 7.27842 46.279 7.35162C48.7801 8.89106 51.9503 10.9444 53.9127 13.1452C52.283 15.7402 51.6996 16.5204 49.2352 18.2406C48.7329 17.6484 48.2809 16.6604 47.5595 15.8481C47.9761 13.8078 46.6241 9.45861 45.9219 7.4363Z" fill="#F2996A"/>
<path d="M33.4298 4.07715C35.0849 4.35684 37.0101 4.39231 38.7105 4.61875C39.2685 4.83363 40.688 5.14234 40.8979 5.3666C39.6625 6.32777 39.1862 6.76504 38.2599 8.03987C36.8427 8.21387 37.4088 8.82328 36.7803 9.29422C34.1577 8.80017 31.4594 8.8775 28.8693 9.52088C28.8455 8.93413 30.9271 6.95052 31.4261 6.4036C32.0805 5.68634 32.6482 5.00066 33.2354 4.2189L33.4298 4.07715Z" fill="#FACDAE"/>
<path d="M57.0786 49.46C57.0825 49.9119 56.3316 51.3224 56.01 51.5012C54.8136 53.1549 53.0413 54.915 51.9518 56.5346C52.8744 56.4842 53.7955 56.4086 54.714 56.308C54.9917 56.3129 55.0799 56.2669 55.2835 56.3987C55.1342 56.4673 54.8244 56.4844 54.6606 56.4758C53.6189 56.4207 49.5988 57.0843 48.863 56.8062C48.4364 56.7973 47.9305 56.8671 47.498 56.9108C45.1878 57.144 42.8718 57.286 40.5541 57.4263C38.8954 57.5266 37.157 57.737 35.5032 57.5083C35.3531 57.4864 35.2102 57.3855 35.1062 57.2772C35.2459 57.1591 35.4397 56.9972 35.622 56.9845C36.5543 56.9197 37.5355 56.9355 38.4677 56.9037C40.0112 56.8452 41.5472 56.6578 43.0595 56.3435C46.3285 55.6684 50.2717 54.2212 53.1418 52.4767C54.3204 51.7604 55.8705 50.3389 57.0786 49.46Z" fill="#F2996A"/>
<path d="M51.2816 56.5811C52.6966 54.972 54.1801 53.3194 55.5698 51.6757C55.7302 51.4859 55.7815 51.5215 56.0103 51.501C54.8139 53.1546 53.0416 54.9147 51.9521 56.5344C52.8747 56.484 53.7958 56.4084 54.7143 56.3077C54.992 56.3126 55.0802 56.2666 55.2838 56.3985C55.1345 56.467 54.8247 56.4841 54.6609 56.4755C53.6192 56.4204 49.5991 57.084 48.8633 56.8059C49.5786 56.6997 50.5447 56.6445 51.2816 56.5811Z" fill="#CE592A"/>
<path d="M21.2257 45.0078C22.1753 45.4562 23.4519 46.3126 24.0748 46.5847C23.7502 46.9127 23.4115 47.3219 23.177 47.7199C22.335 47.6032 21.7721 46.9925 20.961 46.5748C20.7869 46.3844 20.4208 46.3335 20.0906 46.1377C20.6299 45.7647 20.8321 45.5352 21.2257 45.0078Z" fill="#EE845F"/>
<path d="M21.4317 49.8379C21.9176 49.3257 22.298 49.1981 22.9351 48.9092C22.9473 49.725 23.0276 50.1785 23.2446 50.9604C23.1232 51.2749 22.6857 51.764 22.3179 51.7624C22.0418 51.7613 21.6784 51.5803 21.5025 51.6077L21.5716 51.76L21.4456 51.8465C21.3277 51.6141 21.2876 51.4816 21.053 51.3728L20.9727 51.2937C21.3231 51.0911 21.2703 50.4059 21.4317 49.8379Z" fill="#A68CB6"/>
<path d="M23.2445 50.9609C23.4244 51.6557 23.9557 52.5683 23.8141 53.1098C23.735 53.2108 23.6645 53.3249 23.5171 53.3108C22.6032 53.2233 21.8228 52.6349 21.4456 51.8471L21.5715 51.7605L21.5024 51.6083C21.6784 51.5808 22.0417 51.7618 22.3178 51.7629C22.6857 51.7645 23.1232 51.2755 23.2445 50.9609Z" fill="#9172B8"/>
<path d="M36.7803 9.29439C37.4088 8.82345 36.8427 8.21405 38.2599 8.04004C37.9361 8.46493 37.527 9.29769 37.1788 9.38185L36.7803 9.29439Z" fill="#F7AF87"/>
<path d="M40.8091 6.43555C41.3537 5.98966 42.9134 4.73553 43.6106 4.7815C44.2781 5.06884 45.1669 7.34676 45.2726 8.068C45.5054 8.63562 45.3651 9.65011 45.3562 10.3108C45.5375 10.593 45.7617 10.503 46.0028 10.6392C47.2776 11.3599 46.7821 13.2443 46.3872 14.3345C45.9317 13.8815 45.6754 13.6525 45.0748 13.3623C44.7891 13.2122 44.5636 13.0717 44.2414 13.0286L44.1107 13.083C44.1662 13.3232 46.1081 15.1741 46.4368 15.5388C46.8316 15.9817 47.2045 16.4438 47.5538 16.9235C50.047 20.3067 51.2393 25.643 50.0467 29.7262C49.9146 30.1784 49.6205 31.0928 49.3866 31.4979C49.0358 32.183 48.6016 32.8223 48.0942 33.4011C47.6359 33.9313 46.8726 34.6024 46.3931 35.1339C46.3122 35.2235 46.3511 35.4561 46.3931 35.6196L46.5595 35.7212L44.3937 35.9611C44.1183 36.0109 43.8311 36.0584 43.558 36.1141C41.0869 36.6433 39.1386 37.6723 36.8819 38.6448C36.3259 38.9046 35.2982 39.496 34.7839 39.7937C34.6411 39.729 34.4906 39.6487 34.3497 39.5774C33.6674 39.3284 32.1913 38.7436 31.706 39.5924L31.7175 39.7299C32.008 39.9298 32.6232 39.6694 33.118 39.781C33.6783 39.9075 36.826 41.0359 36.3715 41.7678C35.9966 41.9326 35.8912 41.8798 35.546 41.9607C35.8217 42.3773 36.1845 42.2496 36.3523 42.9365C36.1914 43.6769 35.1201 43.5077 34.5636 43.4196C34.6127 43.7979 34.6587 44.1766 34.7014 44.5556C34.5105 44.6261 34.3153 44.6843 34.1171 44.7302C32.19 45.1911 28.072 44.3097 27.3478 41.9767C27.237 41.6199 27.21 41.0406 27.112 40.6257C27.1994 40.3437 27.1944 40.3045 27.4503 40.2149C27.518 40.2048 27.6478 40.1617 27.7192 40.1407C27.9241 39.981 27.9734 39.7103 28.0555 39.4538C26.4368 39.6126 24.3848 39.0912 22.8815 38.5234C21.3997 37.7729 19.6402 36.5146 18.611 35.1972C16.8919 33.7313 15.5725 28.3644 15.9051 26.1828C15.8381 23.725 16.6364 20.9067 17.8594 18.7911C18.2894 18.0472 18.8238 17.3304 19.1938 16.5683C18.8329 16.8246 18.4696 17.1233 18.1255 17.4034C17.5908 17.9518 17.2414 18.6796 16.7097 19.2601L16.6009 19.2478C16.1411 18.6002 16.3125 15.1695 16.5869 14.3348C16.7496 13.8397 17.0014 14.0987 17.1367 13.2969C17.0749 13.0376 17.0595 12.8194 17.0341 12.5552C16.8091 11.7912 17.0351 8.35196 17.7948 7.93861C18.3632 7.96959 20.2749 8.74302 20.8006 9.05564C22.3941 9.85502 23.1654 10.3941 24.4566 11.5756C23.6388 12.1448 23.3425 12.3568 22.7351 13.1336C23.499 12.8451 24.1058 12.3124 24.8303 11.9678C25.1021 12.2228 25.3311 12.4814 25.7107 12.5043L25.7949 12.4029C25.7623 12.132 25.5477 11.9238 25.369 11.7088C28.6909 10.0857 31.8248 9.34807 35.5423 9.86335C35.993 9.92582 36.691 9.9625 37.0914 10.133C37.0641 10.3928 37.0544 10.5516 37.0556 10.8126L37.1411 10.8966C37.4367 10.8565 37.7027 10.4477 37.8729 10.2219C38.3271 10.361 39.1009 10.6384 39.5602 10.5533L39.5233 10.4458C39.0997 10.1286 38.5204 9.92042 38.0233 9.71552C38.9828 8.31633 39.4893 7.52175 40.8091 6.43555Z" fill="#9578BB"/>
<path d="M15.9051 26.1826C16.007 27.2951 16.3873 31.1765 17.1025 32.1708C17.1338 32.2145 17.5653 32.4804 17.642 32.617C18.0758 33.3887 17.9599 34.5404 18.7567 35.0817C19.053 35.1164 19.524 35.3973 19.8105 35.5401C20.8492 36.0577 21.3627 37.0993 22.1257 37.8951C22.2838 38.06 22.7611 38.2248 22.9054 38.3826C24.2946 38.9313 25.8577 38.7653 27.2736 39.3437C27.4649 39.4219 27.7397 39.1418 28.1871 39.3551C28.2653 39.5597 28.2176 39.6472 28.1609 39.862C27.2142 41.4774 28.1252 43.7757 29.9818 44.1666C30.7917 44.3371 33.9219 45.2475 34.4868 44.3002C34.5022 43.8825 34.3392 43.6014 34.4396 43.3305C34.9013 43.0919 35.5038 43.6482 36.0195 43.1413C36.0853 42.8954 36.0953 42.8589 35.9928 42.6153C35.7525 42.361 35.4321 42.2425 35.3616 42.1024L35.546 41.9604C35.8217 42.3771 36.1845 42.2494 36.3523 42.9362C36.1914 43.6767 35.1201 43.5075 34.5636 43.4193C34.6127 43.7976 34.6587 44.1763 34.7014 44.5554C34.5105 44.6258 34.3153 44.6841 34.1171 44.73C32.19 45.1908 28.072 44.3095 27.3478 41.9765C27.237 41.6196 27.21 41.0404 27.112 40.6255C27.1994 40.3434 27.1944 40.3043 27.4503 40.2147C27.518 40.2046 27.6478 40.1615 27.7192 40.1405C27.9241 39.9808 27.9734 39.7101 28.0555 39.4536C26.4368 39.6124 24.3848 39.091 22.8815 38.5232C21.3997 37.7726 19.6402 36.5144 18.611 35.197C16.8919 33.7311 15.5725 28.3642 15.9051 26.1826Z" fill="#634194"/>
<path d="M17.1367 13.2969C17.3671 14.6868 17.7589 16.0428 18.1255 17.4034C17.5908 17.9517 17.2414 18.6796 16.7096 19.2601L16.6009 19.2478C16.141 18.6002 16.3124 15.1695 16.5869 14.3348C16.7496 13.8397 17.0013 14.0987 17.1367 13.2969Z" fill="#11052D"/>
<path d="M45.0752 13.3621C45.2817 12.9946 45.3099 10.8944 45.3566 10.3105C45.5379 10.5927 45.7621 10.5027 46.0031 10.6389C47.278 11.3596 46.7825 13.2441 46.3876 14.3342C45.932 13.8812 45.6757 13.6522 45.0752 13.3621Z" fill="#11052D"/>
<path d="M40.8096 6.43555C41.3542 5.98966 42.9139 4.73553 43.6111 4.7815C44.2786 5.06884 45.1673 7.34676 45.2731 8.068C45.0086 7.86871 44.4399 5.8929 44.0414 5.59866C43.6119 5.86058 42.7814 5.76757 42.3628 5.49651C41.8302 5.84438 41.3536 6.427 40.8096 6.43555Z" fill="#634194"/>
<path d="M17.0344 12.5541C16.8094 11.7901 17.0353 8.35084 17.7951 7.9375C18.3634 7.96848 20.2751 8.74191 20.8008 9.05452C20.3711 9.1035 19.3001 8.56213 18.7494 8.40927C18.2747 8.69803 17.3618 8.88622 17.3425 9.2139C17.2798 10.2769 17.0632 11.5087 17.0344 12.5541Z" fill="#634194"/>
<path d="M45.3149 34.4648L45.3609 34.6254C45.1313 34.9923 44.931 35.3149 44.7419 35.7052C44.7048 35.7817 44.4874 36.2913 44.4841 36.2961C44.2087 36.3459 43.9215 36.3934 43.6483 36.4491L43.4415 36.3903L43.394 36.2831C43.5831 35.8094 44.8697 34.7979 45.3149 34.4648Z" fill="#010001"/>
<path d="M34.3745 39.6091C35.0895 39.3504 35.8905 38.4245 36.6342 38.7456C36.0991 39.0461 35.3144 39.4572 34.8237 39.7924C34.6765 39.7385 34.5204 39.6697 34.3745 39.6091Z" fill="#634194"/>
<path d="M24.915 25.0791C26.0266 25.4957 29.0182 26.2339 30.1668 26.2924C30.4268 26.0493 30.7729 25.6195 31.0505 25.5118C31.9576 25.6464 31.622 26.4562 31.1818 26.7094C30.8931 26.8755 31.6736 27.8239 31.6739 28.1935C31.6747 28.9442 31.2581 29.4776 30.7617 30.0478C29.2645 31.6374 26.5322 32.3546 25.2433 30.0244C24.6206 28.8983 24.7444 27.9352 25.1913 26.8024C25.6276 25.6968 24.3725 26.5869 24.915 25.0791Z" fill="#010001"/>
<path d="M26.167 26.6487C26.2828 26.6394 26.7677 26.6034 26.8433 26.6294C28.3407 27.1462 27.8943 28.1388 27.0095 28.8409C25.776 29.5809 24.9755 27.437 26.167 26.6487Z" fill="white"/>
<path d="M29.6135 28.896C30.1459 28.8344 30.5703 29.944 29.2719 30.0948C29.0113 30.068 28.8743 30.0731 28.6579 29.9251C28.4437 29.4391 29.2454 29.1086 29.6135 28.896Z" fill="#4E247D"/>
<path d="M45.7461 27.2588C45.1004 28.1119 44.2976 28.4763 43.2094 28.3813C42.0642 28.2813 40.7752 27.5458 40.4406 26.3858C40.3017 25.9039 40.4304 25.2469 40.066 24.8617C39.9951 24.7965 39.9539 24.6797 40.0289 24.6009C40.7194 23.8764 41.4879 23.2151 42.2694 22.5742C42.9213 22.0395 43.7564 21.2576 44.6033 21.1055C44.8234 21.0659 44.9505 21.1388 45.1083 21.263C45.1938 21.8081 44.6293 22.0094 44.2298 22.1682C46.1143 23.1961 46.6696 25.0746 45.851 27.0171L45.7461 27.2588Z" fill="#010001"/>
<path d="M42.5307 23.0293C43.3937 23.0322 44.3685 24.7967 42.5943 25.2066C41.9171 25.1057 41.7407 24.8814 41.3149 24.3872L41.3303 24.3618C41.7452 23.6886 41.8976 23.5112 42.5307 23.0293Z" fill="white"/>
<path d="M44.0209 25.7495C44.4469 25.7376 44.9557 25.6972 45.2002 26.0771C45.1973 26.3196 45.0723 26.4231 44.913 26.6034C44.7471 26.7333 44.6564 26.7677 44.4696 26.8522C44.2066 26.8354 44.3018 26.8776 44.1125 26.6937C43.9841 26.3926 44.0156 26.0776 44.0209 25.7495Z" fill="#B768BA"/>
<path d="M36.6744 27.4219C37.0299 27.4133 37.2757 27.3301 37.4141 27.6803C37.3652 27.9555 37.1467 28.1687 36.9635 28.386C37.0288 28.4604 37.0969 28.5325 37.1674 28.602C38.6941 30.1281 39.1884 28.3257 40.0896 28.3305L40.1804 28.4427C40.0988 29.036 40.0932 29.0044 39.6582 29.3386C39.6279 29.9865 39.5278 30.6294 39.3598 31.2559C39.1689 31.9597 38.7586 33.0839 37.9103 33.185C37.3557 33.251 37.4779 33.0485 36.9282 33.365C36.7633 33.4254 36.5452 33.4293 36.374 33.3948C34.8786 33.0935 34.4033 31.8756 34.1615 30.5995C33.8604 30.3367 33.3961 29.9829 33.3994 29.5522C33.9172 29.2288 34.8396 30.09 35.4691 29.6853C35.8964 29.4107 36.8418 28.8812 36.2788 28.2789C36.1452 28.1357 36.0574 28.0268 35.9591 27.8589L36.0281 27.6982C36.2714 27.5255 36.3858 27.505 36.6744 27.4219Z" fill="#010001"/>
<path d="M34.931 31.2138C34.7659 31.0037 34.745 30.8107 34.8348 30.5648C35.8079 30.0285 37.2208 28.6254 38.1937 29.8636C38.1811 30.0726 38.1385 30.1077 38.019 30.2832C37.7911 30.3856 37.8943 30.3732 37.6165 30.2977L37.2312 30.4134C39.1763 31.3524 39.0083 32.2166 37.1562 33.0925C36.2633 32.851 35.3036 32.6049 34.9739 31.628C34.9909 31.48 34.958 31.3602 34.931 31.2138Z" fill="#D04968"/>
<path d="M34.931 31.2138C34.7659 31.0037 34.745 30.8107 34.8348 30.5648C35.8079 30.0285 37.2208 28.6254 38.1937 29.8636C38.1811 30.0726 38.1385 30.1077 38.019 30.2832C37.7911 30.3856 37.8943 30.3732 37.6165 30.2977L37.2312 30.4134C36.6671 30.3683 35.4521 31.2987 34.9739 31.628C34.9909 31.48 34.958 31.3602 34.931 31.2138Z" fill="#750D0D"/>
<path d="M34.9312 31.2138C35.3238 30.9702 35.7186 30.73 36.1154 30.4932C36.4164 30.3152 37.0973 29.9232 37.4437 30.0242C37.4937 30.0387 37.5812 30.2325 37.6166 30.2977L37.2314 30.4134C36.6673 30.3683 35.4522 31.2987 34.9741 31.628C34.991 31.48 34.9582 31.3602 34.9312 31.2138Z" fill="#0F0008"/>
<path d="M38.8336 29.5176C39.0723 29.6142 38.9929 29.5498 39.137 29.7578C39.1819 30.0587 39.071 30.2907 38.9689 30.578C38.5804 30.2825 38.5509 29.8915 38.8336 29.5176Z" fill="#B6371B"/>
<path d="M45.8511 27.0166C46.6231 27.234 48.0146 26.6656 48.4837 27.5345C49.1463 28.7621 48.2068 29.7937 46.9031 29.4273C46.0909 29.2489 45.5951 27.9495 45.7463 27.2583L45.8511 27.0166Z" fill="#B768BA"/>
<path d="M24.5863 31.3044C25.6691 31.2178 25.6722 31.4167 25.8463 32.3846C25.3904 33.0948 25.1876 33.4022 24.3457 33.6316C23.593 33.5904 22.7161 33.3417 23.1357 32.3163C23.3803 31.7186 24.0152 31.4982 24.5863 31.3044Z" fill="#B768BA"/>
<path d="M46.6499 36.0563C48.5359 35.9598 49.4817 36.0762 51.3161 36.3228C51.9136 36.3413 52.5104 36.5041 53.1254 36.6029C56.203 37.0976 58.8368 38.3975 61.4296 40.0692C61.449 40.0817 61.5198 40.1778 61.5381 40.2042C61.3687 42.3364 58.1222 47.0006 56.6946 48.634C56.404 48.9991 55.9696 49.4421 55.572 49.6879C52.174 53.0556 45.1998 55.5222 40.4401 56.0681C39.0754 56.2246 37.2115 56.2498 35.8172 56.2688C36.7497 55.4882 36.8723 55.0584 37.4363 54.5102C40.7969 49.5718 30.9624 52.5058 29.2629 52.4486C29.0768 52.486 29.0318 52.4963 28.8602 52.5761C27.8532 52.7598 27.2657 53.9681 26.6023 54.7868C24.6872 54.1959 24.3372 52.8922 23.8771 51.1613C23.5999 50.1657 23.531 49.8902 23.5613 48.8664C23.5037 47.9558 24.1764 47.2319 24.8502 46.6945C25.2881 46.3453 27.1352 45.0451 27.5772 44.9898L27.5255 45.4466C27.5425 45.8174 27.5897 47.2405 27.7238 47.4873C27.7644 47.2964 27.7909 47.1362 27.8189 46.9451C27.8505 46.301 27.8085 45.4337 28.0738 44.8447C28.3929 44.1361 29.2031 44.7046 29.7708 44.8471C30.8896 45.128 32.9163 45.7526 34.0448 45.2816C35.4598 44.6911 37.5707 43.2586 37.0087 41.4547C36.7588 40.6728 36.0329 40.4046 35.3407 40.0715C35.619 39.7933 36.7701 39.2152 37.2886 38.9585C37.8072 38.7017 41.1773 36.9784 43.6484 36.4492C43.9216 36.3935 44.2087 36.346 44.4842 36.2963C45.1517 36.1757 45.2176 36.1757 45.3585 36.1757C45.4995 36.1757 45.9151 36.0939 46.6499 36.0563Z" fill="white"/>
<path d="M51.3161 36.3223C51.9135 36.3407 52.5103 36.5035 53.1254 36.6024C56.203 37.097 58.8368 38.3969 61.4295 40.0687C61.4489 40.0812 61.5197 40.1773 61.538 40.2037C61.3687 42.3359 58.1221 47 56.6945 48.6334C56.404 48.9986 55.9696 49.4415 55.572 49.6874C55.2086 49.3205 54.745 48.5239 54.4717 48.0615L54.5107 47.9658L54.3788 47.8031C53.6873 47.0032 52.5234 44.1461 52.2574 43.129C51.6168 41.277 50.6625 38.4206 51.2641 36.5173L51.3161 36.3223Z" fill="#EF727D"/>
<path d="M61.5382 40.2041C61.3688 42.3363 58.1223 47.0004 56.6947 48.6339C56.4041 48.999 55.9697 49.4419 55.5721 49.6878C55.2088 49.3209 54.7451 48.5244 54.4719 48.062L54.5109 47.9662L54.379 47.8035C53.6874 47.0037 52.5235 44.1465 52.2576 43.1294L52.35 43.1763L52.4647 43.0834C52.9699 43.6287 53.739 47.1033 54.676 47.2441C54.9399 47.1531 55.1372 46.9097 55.3345 46.7053C55.7469 46.2178 56.9459 45.2196 57.4593 44.6665C58.4051 43.6476 60.4589 40.7812 61.5382 40.2041Z" fill="#D04968"/>
<path d="M54.5107 47.9668C54.7848 47.9762 55.1051 48.2742 55.281 48.4622C55.6591 48.8662 55.574 48.9047 55.5752 49.4184C55.9993 49.2057 56.2373 48.7563 56.6945 48.6345C56.4039 48.9996 55.9695 49.4426 55.5719 49.6884C55.2086 49.3215 54.7449 48.525 54.4717 48.0626L54.5107 47.9668Z" fill="#A4396D"/>
<path d="M51.2643 36.5186L51.4473 36.565C51.5359 36.9541 51.427 37.4401 51.4894 37.8952C51.715 39.5422 51.9006 41.5435 52.4647 43.0842L52.3501 43.1771L52.2577 43.1302C51.6171 41.2783 50.6627 38.4218 51.2643 36.5186Z" fill="#5F2F48"/>
<path d="M52.1452 36.7217C52.72 36.8771 52.4557 37.3294 52.9106 37.4887C53.4789 37.6876 54.861 37.7099 55.2543 38.2085C55.2665 38.426 55.2905 38.3384 55.133 38.538C54.027 38.5074 53.1308 38.1938 51.7993 38.1845C51.8998 37.6834 51.9847 37.208 52.1452 36.7217Z" fill="#FED0CD"/>
<path d="M37.4364 54.5107C37.4945 54.5309 37.6007 54.5661 37.6618 54.5621C43.4473 54.1795 50.1528 51.9286 54.472 48.0625C54.7452 48.5249 55.2089 49.3214 55.5722 49.6883C52.1742 53.0561 45.1999 55.5226 40.4402 56.0685C39.0755 56.225 37.2117 56.2502 35.8174 56.2692C36.7499 55.4886 36.8725 55.0588 37.4364 54.5107Z" fill="#D2C7D8"/>
<path d="M23.5613 48.8659C23.5037 47.9553 24.1764 47.2314 24.8502 46.6939C25.2881 46.3447 27.1352 45.0446 27.5772 44.9893L27.5255 45.4461C27.4175 46.0467 27.4867 46.4411 27.4244 46.9468C27.5103 48.064 27.6731 49.3357 28.0467 50.3991L28.4118 51.3486C28.5478 51.6738 28.8155 52.2495 28.8602 52.5756C27.8532 52.7592 27.2657 53.9675 26.6023 54.7862C24.6872 54.1954 24.3372 52.8917 23.8771 51.1607C23.5999 50.1652 23.531 49.8897 23.5613 48.8659Z" fill="#EF727D"/>
<path d="M28.0465 50.3994L28.4116 51.3489C28.5476 51.6741 28.8154 52.2498 28.86 52.5759C27.8531 52.7595 27.2655 53.9678 26.6022 54.7866C24.6871 54.1957 24.337 52.892 23.877 51.1611C24.1806 51.2199 24.3902 51.3344 24.7467 51.3692C25.9903 51.4907 26.918 50.7997 27.9798 50.4228L28.0465 50.3994Z" fill="#DB5470"/>
<path d="M23.5613 48.8659C23.5038 47.9553 24.1765 47.2314 24.8502 46.6939C25.2881 46.3447 27.1353 45.0446 27.5773 44.9893L27.5255 45.4461C27.4176 46.0467 27.4868 46.4411 27.4245 46.9468L27.3775 47.1463C27.2363 47.0484 27.1421 46.9522 26.9437 47.0156C26.2823 47.227 24.0054 48.6427 23.6479 49.0612L23.5613 48.8659Z" fill="#EF727D"/>
<path d="M23.6479 49.062C24.0055 48.6436 26.2824 47.2278 26.9437 47.0165C27.1422 46.953 27.2364 47.0493 27.3776 47.1471C26.9551 47.7058 24.3072 49.5337 23.693 49.2689L23.6479 49.062Z" fill="white"/>
<path d="M27.4243 46.947C27.4866 46.4413 27.4174 46.0468 27.5253 45.4463C27.5424 45.817 27.5895 47.2401 27.7237 47.487C27.7642 47.296 27.7908 47.1359 27.8188 46.9447C28.0142 48.3889 28.4474 49.547 28.6491 50.7888C28.4508 51.0001 28.4537 51.065 28.4117 51.3487L28.0465 50.3993C27.673 49.3359 27.5101 48.0642 27.4243 46.947Z" fill="#271342"/>
<path d="M28.6496 50.7891C28.8493 51.4278 28.9765 51.8496 29.2632 52.4485C29.0771 52.4859 29.0321 52.4962 28.8605 52.576C28.8159 52.2499 28.5481 51.6742 28.4121 51.349C28.4542 51.0652 28.4513 51.0003 28.6496 50.7891Z" fill="#11052D"/>
<path d="M40.7556 42.7351C41.9141 41.1559 43.9476 40.4867 45.8176 41.0691C47.9356 41.7287 49.2779 43.8098 49.0055 46.0114C48.733 48.213 46.9239 49.904 44.709 50.0275C43.6045 50.0891 42.515 49.7494 41.6412 49.071C40.4018 48.1089 39.7403 46.58 39.8874 45.0179C39.9652 44.1925 40.2652 43.4036 40.7556 42.7351Z" fill="#B768BA"/>
<path d="M43.5835 41.4704C43.6443 41.3696 43.6585 41.3654 43.7535 41.3066L44.0482 41.1226L44.0027 41.1049C44.3879 40.8465 45.215 41.1023 45.7589 41.0737L45.8182 41.0701C47.9362 41.7298 49.2786 43.8108 49.0061 46.0124C48.7337 48.2141 46.9246 49.9051 44.7096 50.0285C44.4574 49.7611 43.8158 49.6999 43.4561 49.3571C45.0713 49.7522 46.7638 49.1185 47.7223 47.7597C48.6809 46.4008 48.71 44.5939 47.7959 43.2048C46.8818 41.8158 45.2106 41.1277 43.5835 41.4704Z" fill="#4B0A2C"/>
<path d="M39.8874 45.0191L39.9775 45.3624C39.9999 45.2583 40.0024 45.1323 40.067 45.0884L40.1358 45.3779C40.2003 45.1827 40.2253 45.0483 40.4036 44.9229C40.2416 46.2088 40.7057 47.4944 41.6516 48.3804C41.4824 48.6697 41.4725 48.6736 41.6555 48.9792L41.6412 49.0723C40.4018 48.1101 39.7403 46.5812 39.8874 45.0191Z" fill="#11052D"/>
<path d="M40.7559 42.7351C41.9144 41.1559 43.9478 40.4867 45.8178 41.0691L45.7585 41.0727C45.2146 41.1013 44.3875 40.8454 44.0023 41.1039L44.0478 41.1215L43.7531 41.3055C43.6581 41.3643 43.6439 41.3685 43.5831 41.4694C42.5295 41.6913 41.608 42.3241 41.0224 43.2277L40.9582 42.8722L40.7559 42.7351Z" fill="#420016"/>
<path d="M41.6516 48.3799C42.1589 48.8551 42.7803 49.1916 43.4555 49.3567C43.8152 49.6995 44.4568 49.7608 44.709 50.0281C43.6046 50.0897 42.515 49.75 41.6412 49.0717L41.6555 48.9786C41.4725 48.6731 41.4824 48.6692 41.6516 48.3799Z" fill="#271342"/>
<path d="M40.7559 42.7354L40.9582 42.8725L41.0224 43.2279C40.6914 43.7388 40.4799 44.3178 40.4039 44.9218C40.2256 45.0473 40.2005 45.1817 40.136 45.3769L40.0673 45.0874C40.0026 45.1313 40.0001 45.2573 39.9778 45.3614L39.8877 45.0181C39.9655 44.1927 40.2655 43.4038 40.7559 42.7354Z" fill="#0F0008"/>
<path d="M41.5799 45.0149L41.4878 44.8998C41.6824 42.9876 44.6091 41.2951 45.7023 43.0538C46.9897 43.8678 47.3491 45.7408 46.5114 46.9857C46.1026 47.5926 45.465 48.0076 44.7445 48.1357C43.9754 48.2658 43.1864 48.0816 42.5543 47.6244C41.5506 46.8908 41.4962 46.1332 41.5799 45.0149Z" fill="#9BD4F1"/>
<path d="M41.5799 45.0149L41.4878 44.8998C41.6824 42.9876 44.6091 41.2951 45.7023 43.0538L45.2992 42.935C45.0312 44.8766 43.1736 46.7512 42.1423 43.9812C41.7311 44.4134 41.8381 44.5486 41.5799 45.0149Z" fill="#DFF7FC"/>
<path d="M41.5799 45.0149L41.4878 44.8998C41.6824 42.9876 44.6091 41.2951 45.7023 43.0538L45.2992 42.935C43.9308 42.5189 42.9005 42.6968 42.1423 43.9812C41.7311 44.4134 41.8381 44.5486 41.5799 45.0149Z" fill="#9172B8"/>
<path d="M25.5912 40.2295C25.6224 40.1417 25.6314 40.0296 25.7251 40.009C26.2309 39.8978 26.9995 39.9646 27.4506 40.2143C27.1947 40.304 27.1997 40.3431 27.1123 40.6251L26.9581 40.5677C26.8486 40.7688 26.7979 40.8394 26.7701 41.074C26.7706 42.6381 27.3156 42.884 28.2029 44.0378C27.3434 44.4851 26.1588 45.046 25.385 45.6061C25.1686 45.7627 25.0172 46.1075 24.7754 46.0058C23.5816 45.5031 20.7994 44.3261 20.1029 43.3028C20.0883 43.1856 20.1133 43.1467 20.1443 43.0278C20.9386 42.0463 22.9592 41.1898 24.1753 40.8705L24.9009 40.7147C25.072 40.4581 25.4372 40.8626 25.5912 40.2295Z" fill="#DC516D"/>
<path d="M20.1029 43.3025C20.0883 43.1852 20.1133 43.1464 20.1443 43.0274C20.9386 42.0459 22.9592 41.1895 24.1753 40.8701C23.9482 41.1426 23.4914 41.6111 23.4575 41.928C23.555 42.0815 23.5743 42.0822 23.7409 42.1701L23.7471 42.2005C22.5259 42.4221 21.0979 43.1193 20.1029 43.3025Z" fill="#EF727D"/>
<path d="M25.5908 40.2295C25.622 40.1417 25.631 40.0296 25.7247 40.009C26.2306 39.8978 26.9992 39.9646 27.4502 40.2143C27.1943 40.304 27.1993 40.3431 27.112 40.6251L26.9578 40.5677C26.4264 40.2916 25.8864 40.4631 25.5908 40.2295Z" fill="#5F2F48"/>
<path d="M25.5911 40.2295C25.8867 40.4631 26.4267 40.2916 26.9581 40.5677C26.8486 40.7688 26.7979 40.8394 26.77 41.074L26.7172 40.9299C26.4719 40.6816 25.3189 40.7276 24.9009 40.7148C25.072 40.4581 25.4371 40.8626 25.5911 40.2295Z" fill="#0F0008"/>
<path d="M16.6685 36.3145C17.0705 36.5711 17.4748 36.8242 17.8812 37.0738C18.3712 37.2112 19.6005 37.2908 19.5702 37.2744C20.2308 37.6326 21.2643 38.3279 21.9248 38.7278C22.4924 39.0714 24.4787 39.8233 24.6071 39.9287L24.5964 40.0045C23.6641 40.3889 22.8517 40.6181 21.9415 41.0772C21.18 41.3922 21.1913 41.3105 20.4101 41.4053C19.2186 41.5499 18.4804 42.2267 17.7051 43.0556C16.573 39.9299 16.5409 39.5844 16.6685 36.3145Z" fill="#9172B8"/>
<path d="M17.8813 37.0732C18.3713 37.2106 19.6006 37.2903 19.5703 37.2739C20.2309 37.632 21.2644 38.3274 21.9249 38.7273C22.4925 39.0709 24.4788 39.8227 24.6072 39.9282L24.5965 40.004C23.6642 40.3884 22.8518 40.6176 21.9416 41.0767L22.081 40.8512C22.0497 39.9738 18.38 38.4629 17.8813 37.0732Z" fill="#4E247D"/>
<path d="M14.7239 35.4922C14.9044 35.5661 14.9952 35.7171 15.0392 35.9104C15.6055 38.3975 16.4689 40.7661 17.032 43.2524C15.6686 42.1847 14.9807 41.6809 13.2542 41.214C11.8808 40.8853 10.6891 41.1399 9.45996 41.7694C10.451 39.3414 12.4969 36.8903 14.7239 35.4922Z" fill="#9172B8"/>
<path d="M14.1439 33.0993C14.2182 33.0845 14.5412 33.0545 14.5928 33.0897C16.3942 34.318 17.7464 34.9093 19.0074 36.7394C18.2198 36.5129 17.0024 36.1348 16.2648 35.7916C16.1664 36.5734 16.1587 37.6178 16.1973 38.4013C15.9913 37.8719 15.8158 37.3047 15.6555 36.7609C15.2037 35.2272 14.9556 34.6594 13.5544 35.8358C11.2952 37.7166 11.0663 38.2723 9.47363 40.5352C9.54459 39.928 9.67944 39.33 9.87595 38.7511C10.4686 36.9996 12.4579 33.9323 14.1439 33.0993Z" fill="#4E247D"/>
<path d="M53.1287 28.248C54.1342 28.3453 56.1801 29.4231 57.0311 29.9994C57.6603 30.4254 58.2205 31.1382 58.6274 31.7731C57.3053 31.4775 56.7182 31.6547 55.5159 32.1939C54.0295 33.0437 53.7107 33.5845 52.8251 35.0085C52.7788 33.2271 52.792 29.9994 53.1287 28.248Z" fill="#A058B7"/>
<path d="M51.6575 29.7148C52.0149 30.0555 52.2384 33.9494 52.3701 34.8433C50.8002 34.1782 49.6396 34.609 48.1763 35.133C47.9773 35.1953 47.4602 35.2927 47.2334 35.3427C47.8893 34.3589 48.8801 33.5459 49.4814 32.616C50.4288 31.151 50.0661 30.751 51.6575 29.7148Z" fill="#9758B9"/>
<path d="M52.8969 25.9385C54.9688 26.1549 57.6376 28.6546 58.3126 30.5323C57.9625 30.301 57.432 29.8265 57.0814 29.5397C56.2882 28.8909 55.6827 28.6833 54.7424 28.3288C53.682 27.8754 52.6273 27.3784 52.5709 29.0826C52.5449 29.8651 52.519 30.6632 52.4952 31.4466C52.2805 30.6584 52.034 29.5887 52.0661 28.7791C51.6189 29.075 51.3521 29.2613 50.8621 29.4768L51.2915 27.5574C52.1672 27.1643 52.3573 26.7199 52.8969 25.9385Z" fill="#4E247D"/>
<path d="M50.3691 35.1427C50.8886 35.141 52.0459 35.1517 52.1925 35.7762C51.9949 35.904 51.9712 35.8489 51.6857 35.8169C51.1661 35.7413 50.1226 35.6241 49.6635 35.4353L49.6265 35.3372C49.8368 35.1737 50.0989 35.1743 50.3691 35.1427Z" fill="#B78F63"/>
</svg>
