<svg width="66" height="70" viewBox="0 0 66 70" fill="none" xmlns="http://www.w3.org/2000/svg">
<path d="M1.26874 42.5516C1.22217 42.3718 1.17816 42.1912 1.13695 42.01C-1.03321 32.5559 0.613399 22.6273 5.71935 14.3799C14.7264 0.0307447 34.3303 -4.29595 48.6121 4.66869C48.428 5.01605 48.4834 5.0333 48.1885 5.13977L47.9614 5.07148C47.0758 5.79383 46.6877 6.07936 46 6.99731C45.8839 7.16576 45.7721 7.34746 45.6251 7.48684C45.1486 8.33378 43.9317 10.6435 43.9603 11.5592C44.1409 11.9361 43.977 12.19 43.8041 12.5306C44.0281 12.8688 43.9862 15.0322 44.0801 15.7363C44.5264 17.0119 44.8059 18.0978 45.6822 19.1369C46.0252 19.5435 46.8255 20.4685 47.0497 20.8723L47.0585 21.4065C46.9639 22.0347 46.6295 22.5234 46.6114 23.1361C46.6023 23.1656 46.5933 23.1951 46.5843 23.2245L47.2664 23.1416L47.1598 23.85C47.1968 24.1627 47.1886 24.201 47.0745 24.4951L47.3175 24.5487L47.5236 24.3577C48.1796 24.3332 48.7036 23.9926 49.277 23.6833C49.4956 23.4817 49.7475 23.2966 49.9844 23.1151L50.1099 23.2592C50.7501 22.9056 52.8998 23.9992 53.9825 24.0058C55.8818 24.0174 57.1757 23.6043 58.9081 22.893C60.3195 22.0386 60.1901 22.3846 61.5183 21.1415C61.6404 21.0883 61.801 20.8149 62.2083 20.6285C62.6686 22.5127 63.5306 24.7732 63.8648 26.6477C64.753 31.6293 64.701 37.6473 63.3168 42.5289C63.1935 42.9638 62.9998 43.8452 62.8706 44.2004L62.8014 44.1034C62.6566 44.2379 62.6357 44.2615 62.4452 44.309C62.3258 44.6332 62.3884 44.6268 62.1509 44.7765L61.8571 44.7899C60.5989 44.6573 59.6189 45.0505 58.579 45.6876C58.4449 45.74 58.1707 45.8251 58.087 45.9155L58.2036 46.098C57.6499 48.2786 55.5855 50.8653 54.0872 52.5775C53.6888 53.0328 53.1242 53.5258 52.7567 53.9606C51.7534 55.066 50.7249 56.3411 49.4399 57.1411C48.7174 57.2824 47.5398 57.4074 46.7962 57.4575C41.5155 58.0057 36.1276 57.8557 30.8211 57.883C30.3578 57.8854 28.4297 57.9163 28.1468 57.8019C28.1361 57.6709 28.1139 57.7054 28.1627 57.6188C28.0339 57.629 27.6358 57.7676 27.4888 57.8147C27.2043 57.7361 26.9215 57.6513 26.6407 57.5603C26.2713 57.9144 25.0185 57.7072 24.5048 57.6542C23.9771 57.6913 23.4717 57.7175 22.9814 57.5084L22.8685 57.6303C22.1679 57.9134 15.7944 57.1036 14.702 56.9515C14.4159 56.9617 14.2271 56.9874 13.9572 56.8899C14.1009 56.8858 14.0366 56.9074 14.1541 56.8176C13.882 56.4767 13.047 55.792 12.682 55.4692C12.0742 54.9335 11.4996 54.3613 10.9614 53.7557C10.3585 53.0834 9.7024 52.3213 9.2453 51.5364C9.09802 51.2835 9.05705 51.1447 8.82878 50.9422L8.76919 50.9756C8.65777 51.0371 8.547 51.1018 8.43598 51.1641C7.66483 51.5962 7.13361 50.3186 6.83378 49.819C6.17876 48.7276 5.26129 47.7506 4.02945 47.3506C3.5539 47.253 3.40814 47.2399 2.95096 47.3858L2.4378 46.9729C1.51394 46.7006 2.01153 46.4184 1.97159 45.5216C1.77224 45.1616 1.48678 44.0503 1.38766 43.6231C1.33902 43.3301 1.33551 42.9445 1.26874 42.5516ZM7.36939 42.8064L7.12163 42.7865C7.16596 43.0166 7.17826 43.2727 7.338 43.4186C7.44015 43.2226 7.39199 43.036 7.36939 42.8064ZM60.9426 43.071C60.8103 42.4551 60.6551 42.1682 60.3838 41.5986C60.0984 41.7553 60.168 41.6697 60.0399 41.9132C60.4133 42.1786 60.6864 42.6768 60.9426 43.071Z" fill="#9271B8"/>
<path d="M1.26874 42.5517C1.22217 42.3718 1.17816 42.1912 1.13695 42.01C-1.03321 32.5559 0.613399 22.6273 5.71935 14.3799C14.7264 0.0307448 34.3303 -4.29595 48.6121 4.66869C48.428 5.01605 48.4834 5.0333 48.1885 5.13977L47.9614 5.07148C47.0758 5.79383 46.6877 6.07936 46 6.99731C45.8839 7.16576 45.7721 7.34746 45.6251 7.48684C45.1486 8.33378 43.9317 10.6436 43.9603 11.5592C44.1409 11.9361 43.977 12.19 43.8041 12.5306C42.9711 12.8473 41.693 13.7164 40.99 14.3151C40.1635 14.9733 39.2255 15.862 38.6494 16.7475C39.3864 17.223 40.2328 17.7408 40.858 18.3431C40.0805 18.0557 39.0383 17.62 38.2925 17.2622C38.1064 17.5328 37.9264 17.7897 37.6265 17.9245L37.4671 17.8518C37.3745 17.3908 37.6725 17.4631 37.6215 17.0442C37.2914 16.7877 36.0673 16.4527 35.613 16.3183C31.5497 15.1164 27.6952 15.4935 23.7614 16.9091C23.8947 17.1508 24.1017 17.4515 24.0678 17.7119L23.9469 17.7362C23.661 17.5911 23.4892 17.3499 23.2834 17.1044C22.8967 17.2922 21.9047 17.8225 21.5072 17.653L21.5441 17.4955C22.013 17.0039 22.4309 16.823 23.0334 16.5468C21.9932 15.5561 20.7834 13.8229 19.4577 13.1247C18.6651 12.3958 17.036 11.6264 16.018 11.2572C14.9064 13.2081 14.5646 13.9415 14.4933 16.2633C14.4984 16.7028 14.4854 17.4685 14.5712 17.8701C14.6179 18.6556 14.7515 21.1784 15.1251 21.7528C15.5372 21.3804 15.8138 21.2074 16.3009 20.942C15.205 22.4976 13.5759 23.9527 12.6111 25.5974C11.7712 27.0293 10.3939 29.8871 10.1966 31.4859C10.2046 31.5035 10.2133 31.5209 10.2209 31.5387C10.4212 32.0064 10.0934 32.8622 10.0308 33.3704C9.59673 36.8956 9.85144 40.5546 11.5317 43.7379C11.9198 44.473 12.4082 45.1096 12.8485 45.8064C13.0714 46.1592 13.5909 46.0911 13.8821 46.3552C14.3792 46.806 14.4695 47.4974 14.9002 47.9871C15.5908 48.7723 16.8164 49.4537 17.8003 49.791C18.1895 49.9244 18.6761 50.0107 19.0358 50.1992C19.4171 50.3989 19.8528 50.8738 20.2549 50.9628C20.2872 50.9699 20.3202 50.9737 20.3529 50.9792C20.8151 51.0566 23.5771 51.6443 23.7197 51.8453C23.7472 51.8841 23.7711 51.9246 23.7947 51.9657L23.7337 52.2316C23.4231 52.4227 22.563 52.1962 22.1877 52.1235C21.71 52.0329 20.8152 51.8748 20.37 51.7211C20.1216 52.7689 19.7578 54.2645 20.3663 55.2035C20.9842 56.1569 21.9822 56.3141 22.891 56.7864C23.5251 57.1158 23.756 57.4152 24.5048 57.6543C23.9771 57.6913 23.4717 57.7175 22.9814 57.5084L22.8685 57.6303C22.1679 57.9134 15.7944 57.1036 14.702 56.9515C14.4159 56.9617 14.2271 56.9874 13.9572 56.8899C14.1009 56.8858 14.0366 56.9074 14.1541 56.8176C13.882 56.4767 13.047 55.792 12.682 55.4692C12.0742 54.9335 11.4996 54.3613 10.9614 53.7557C10.3585 53.0834 9.7024 52.3213 9.2453 51.5364C9.09802 51.2836 9.05705 51.1447 8.82878 50.9422L8.76919 50.9756C8.65778 51.0371 8.547 51.1019 8.43598 51.1641C7.66483 51.5963 7.13361 50.3186 6.83378 49.819C6.17876 48.7276 5.26129 47.7506 4.02945 47.3506C3.5539 47.253 3.40814 47.2399 2.95096 47.3858L2.4378 46.9729C1.51394 46.7006 2.01153 46.4184 1.97159 45.5216C1.77224 45.1617 1.48678 44.0503 1.38766 43.6231C1.33902 43.3302 1.33551 42.9445 1.26874 42.5517ZM7.36939 42.8064L7.12163 42.7866C7.16596 43.0166 7.17826 43.2727 7.338 43.4186C7.44015 43.2226 7.39199 43.036 7.36939 42.8064Z" fill="black"/>
<path d="M7.12158 42.7881L7.36934 42.8079C7.39194 43.0375 7.4401 43.2241 7.33795 43.4202C7.17821 43.2743 7.16591 43.0181 7.12158 42.7881Z" fill="#1B0837" fill-opacity="0.988235"/>
<path d="M1.26874 42.5517C1.22217 42.3718 1.17816 42.1912 1.13695 42.01C-1.03321 32.5559 0.613399 22.6273 5.71935 14.3799C14.7264 0.0307448 34.3303 -4.29595 48.6121 4.66869C48.428 5.01605 48.4834 5.0333 48.1885 5.13977L47.9614 5.07148C47.0758 5.79383 46.6877 6.07936 46 6.99731C45.8839 7.16576 45.7721 7.34746 45.6251 7.48684C44.3814 6.36155 40.3623 5.42794 39.9478 5.01749L39.7447 4.95798C37.2062 4.29218 35.133 4.11431 32.5578 3.94028L32.4612 3.85553C31.6598 3.9858 30.7368 4.02246 29.9065 4.07701C22.1289 4.58794 15.5148 8.58593 10.4438 14.3364C10.3769 14.4123 10.3284 14.497 10.3146 14.5962L10.0508 14.7261C8.87934 15.0245 7.23609 17.4299 6.97259 18.4987C7.02643 18.5535 7.11883 18.6214 7.10638 18.6743C6.77188 20.0914 5.37255 22.5416 5.02464 23.8354L5.37431 24.1106C5.28749 24.3852 5.00898 25.2153 4.97288 25.4571L4.93438 25.4527C4.48751 26.9463 3.72427 32.2823 4.00956 33.7403C4.05245 34.5925 4.02801 38.2082 4.37106 38.6137L3.98169 38.9029C3.07588 39.572 2.27973 40.757 1.67551 41.1103C1.60699 41.3932 1.63047 41.7131 1.63766 42.0065C1.4407 42.4598 1.449 42.0566 1.26874 42.5517Z" fill="#B8CD84"/>
<path d="M1.26874 42.5517C1.22217 42.3718 1.17816 42.1912 1.13695 42.01C-1.03321 32.5559 0.613399 22.6273 5.71935 14.3799C14.7264 0.0307448 34.3303 -4.29595 48.6121 4.66869C48.428 5.01605 48.4834 5.0333 48.1885 5.13977L47.9614 5.07148C40.7204 1.14828 34.2829 -0.289782 26.1176 1.30221C9.139 4.61255 -1.26005 21.6006 1.3006 38.2972C1.42808 39.1282 1.48622 40.3382 1.67551 41.1103C1.60699 41.3932 1.63047 41.7131 1.63766 42.0065C1.4407 42.4598 1.449 42.0566 1.26874 42.5517Z" fill="#5D8B42"/>
<path d="M10.051 14.7262C9.4862 13.9865 12.1026 11.6711 12.6528 11.1316C17.1336 6.73778 23.2558 3.96149 29.5043 3.45647C30.5226 3.37412 31.6105 3.39944 32.6281 3.40751L32.4615 3.85566C31.66 3.98593 30.7371 4.02259 29.9067 4.07714C22.1291 4.58807 15.5151 8.58605 10.4441 14.3365C10.3772 14.4124 10.3287 14.4971 10.3149 14.5963L10.051 14.7262Z" fill="#5D8B42"/>
<path d="M4.58047 25.1777C4.74915 25.2728 4.83022 25.2976 4.93429 25.4534C4.48742 26.9469 3.72418 32.2829 4.00947 33.741C4.05236 34.5932 4.02792 38.2089 4.37097 38.6144L3.9816 38.9035C3.24679 37.611 3.35637 32.0443 3.52131 30.3667C3.59159 29.6525 4.29158 25.7084 4.58047 25.1777Z" fill="#5D8B42"/>
<path d="M40.1038 4.58301C41.2852 4.63221 44.3602 5.95103 45.5024 6.54734C45.6378 6.61802 45.8806 6.87872 46.0004 6.99861C45.8843 7.16705 45.7725 7.34876 45.6255 7.48813C44.3818 6.36284 40.3627 5.42923 39.9482 5.01878C40.0063 4.89634 40.0593 4.71599 40.1038 4.58301Z" fill="#84A85D"/>
<path d="M6.9727 18.499C7.02653 18.5538 7.11894 18.6217 7.10648 18.6746C6.77198 20.0917 5.37265 22.5419 5.02474 23.8357L5.37441 24.1109C5.28759 24.3855 5.00908 25.2156 4.97298 25.4574L4.93448 25.453C4.83041 25.2973 4.74935 25.2724 4.58066 25.1774C4.51373 25.1343 4.45886 25.0505 4.4059 24.9843C4.26773 23.7254 6.21904 19.6167 6.9727 18.499Z" fill="#CFDCAB"/>
<path d="M5.02489 23.8359L5.37456 24.1111C5.28774 24.3858 5.00924 25.2159 4.97313 25.4576L4.93464 25.4532C4.83056 25.2975 4.7495 25.2726 4.58081 25.1776C4.83344 24.9853 5.01435 24.1489 5.02489 23.8359Z" fill="#AAC377"/>
<path d="M32.6281 3.40723C34.021 3.63773 35.3122 3.68989 36.6861 3.87287C37.7452 4.01392 39.0455 4.3608 40.1037 4.58156C40.0592 4.71454 40.0061 4.89489 39.9481 5.01733L39.745 4.95783C37.2064 4.29203 35.1332 4.11416 32.558 3.94012L32.4614 3.85538L32.6281 3.40723Z" fill="#AAC377"/>
<path d="M32.4613 3.85547L32.5579 3.94021C32.5658 3.93454 31.3304 5.48954 31.195 5.64121C30.0667 6.91802 28.9287 8.18612 27.781 9.44551C26.4886 10.8362 23.6615 13.6076 22.7971 15.1738C21.0057 13.2612 18.5555 11.1069 15.9226 10.5646C14.0387 12.0113 14.2211 14.23 13.1731 15.9621C13.141 15.947 13.075 15.9543 13.0322 15.9547C12.8387 16.5068 12.6355 16.7974 12.6525 17.3439C11.9763 17.8281 10.6803 15.1368 10.3473 14.644L10.3147 14.5961C10.3285 14.4969 10.377 14.4122 10.4439 14.3363C15.5149 8.58587 22.129 4.58788 29.9066 4.07695C30.7369 4.0224 31.6599 3.98574 32.4613 3.85547Z" fill="#AAC377"/>
<path d="M32.5578 3.94045C35.1331 4.11448 37.2063 4.29235 39.7448 4.95815C39.6374 5.79527 34.3552 11.1183 33.4473 12.3504C33.144 12.762 31.8103 14.3052 31.3936 14.7243C31.1236 14.7248 30.356 14.6848 30.1738 14.8036C28.8088 14.8509 24.7089 15.5149 23.6131 16.2354L22.7971 15.174C23.6615 13.6078 26.4886 10.8364 27.7809 9.44575C28.9287 8.18635 30.0667 6.91825 31.1949 5.64144C31.3304 5.48977 32.5658 3.93477 32.5578 3.94045Z" fill="#C4D599"/>
<path d="M39.7448 4.95801L39.948 5.01751C40.3624 5.42796 44.3816 6.36157 45.6252 7.48686C45.1487 8.33381 43.9318 10.6436 43.9604 11.5592C43.4829 11.8786 43.0236 12.0803 42.5215 12.3754C41.2018 13.1512 38.7625 15.0721 37.9954 16.3606C35.5206 15.3173 32.8596 14.7875 30.1738 14.8035C30.3561 14.6847 31.1236 14.7246 31.3936 14.7241C31.8104 14.3051 33.144 12.7619 33.4474 12.3502C34.3553 11.1182 39.6374 5.79513 39.7448 4.95801Z" fill="#AAC377"/>
<path d="M10.3146 14.5967L10.3472 14.6445C10.6803 15.1374 11.9762 17.8286 12.6524 17.3445C12.6354 16.798 12.8386 16.5073 13.0321 15.9553C13.0749 15.9549 13.1409 15.9475 13.173 15.9627C13.0439 16.3894 12.7899 17.1585 12.7166 17.568C12.4189 18.9711 12.1285 20.2651 11.9802 21.6963C11.8373 23.0763 11.9112 24.3836 11.8606 25.7375C11.3752 26.4526 10.874 27.2479 10.5859 28.0672C10.1203 27.9904 9.72454 27.8897 9.26888 27.7754C8.92241 27.431 8.21531 26.6521 7.9503 26.2763C7.64456 26.2979 7.70726 26.3244 7.42468 26.5717C7.33083 26.6791 7.09769 26.9455 6.98555 26.9094C6.32582 26.6973 5.63191 25.847 4.9729 25.4576C5.009 25.2158 5.28751 24.3857 5.37433 24.1111L5.02466 23.8359C5.37257 22.5421 6.7719 20.0919 7.10639 18.6748C7.11885 18.6219 7.02645 18.554 6.97261 18.4992C7.23611 17.4304 8.87936 15.025 10.0508 14.7266L10.3146 14.5967Z" fill="#CFDCAB"/>
<path d="M10.3149 14.5967L10.3475 14.6445C10.6805 15.1374 11.9765 17.8286 12.6527 17.3445C12.6357 16.798 12.8389 16.5073 13.0324 15.9553C13.0752 15.9549 13.1412 15.9475 13.1733 15.9627C13.0441 16.3894 12.7901 17.1585 12.7168 17.568C12.3913 17.5861 12.2973 17.6349 12.0196 17.3699C11.3354 16.7171 10.624 15.5226 10.227 14.6829C9.88996 15.3745 9.04877 16.4923 8.58416 17.1834C8.00215 18.0492 7.45727 19.3038 6.98971 20.0826C6.52151 20.8622 5.59749 23.8208 5.37457 24.1111L5.0249 23.8359C5.37282 22.5421 6.77214 20.0919 7.10664 18.6748C7.1191 18.6219 7.02669 18.554 6.97286 18.4992C7.23635 17.4304 8.8796 15.025 10.0511 14.7266L10.3149 14.5967Z" fill="#C4D599"/>
<path d="M7.4248 26.5718C7.63742 26.0365 7.4431 25.7775 7.77687 25.2969L7.9105 25.3132C8.18429 25.7452 8.15402 25.8138 7.95043 26.2763C7.64469 26.298 7.70739 26.3244 7.4248 26.5718Z" fill="#B8CD84"/>
<path d="M9.10202 50.7114C9.89944 50.1761 10.8534 49.9264 11.8063 50.1175C12.5749 50.2716 14.1909 51.4693 14.2831 51.4443C14.67 51.3392 15.0124 51.0778 15.4239 50.9662C16.1382 51.2549 16.593 51.6172 17.2898 51.9442C17.8506 52.2074 19.2431 52.1757 19.5182 52.593C19.4929 53.8445 19.0572 54.9253 20.182 56.1332C20.7917 56.7878 22.1432 57.1028 22.9817 57.5096L22.8689 57.6315C22.1682 57.9146 15.7947 57.1048 14.7023 56.9527C14.4163 56.9629 14.2274 56.9886 13.9575 56.8911C14.1012 56.887 14.037 56.9086 14.1545 56.8188C13.8823 56.4779 13.0474 55.7932 12.6824 55.4704C12.0746 54.9347 11.5 54.3625 10.9617 53.7569C10.3588 53.0846 9.70272 52.3225 9.24562 51.5376C9.09834 51.2848 9.05737 51.146 8.8291 50.9434C8.91912 50.8946 9.02271 50.7857 9.10202 50.7114Z" fill="#B8CD84"/>
<path d="M9.10202 50.7109C9.63212 51.3006 10.0817 52.3632 10.5447 52.8553C11.4304 53.7966 12.3752 54.8017 13.2872 55.7184C13.6922 56.1256 14.2915 56.5443 14.7023 56.9522C14.4163 56.9625 14.2274 56.9882 13.9575 56.8907C14.1012 56.8866 14.037 56.9082 14.1545 56.8184C13.8823 56.4775 13.0474 55.7928 12.6824 55.4699C12.0746 54.9342 11.5 54.362 10.9617 53.7565C10.3588 53.0842 9.70272 52.3221 9.24562 51.5372C9.09834 51.2843 9.05737 51.1455 8.8291 50.943C8.91912 50.8942 9.02271 50.7853 9.10202 50.7109Z" fill="#5D8B42"/>
<path d="M4.93479 25.4531L4.97329 25.4575C5.6323 25.8469 6.32621 26.6973 6.98594 26.9093C7.09807 26.9454 7.33122 26.679 7.42506 26.5716C7.70764 26.3243 7.64495 26.2978 7.95069 26.2762C8.2157 26.652 8.92279 27.431 9.26927 27.7754C9.72493 27.8896 10.1207 27.9904 10.5863 28.0671C9.26456 31.359 8.98908 33.163 8.97463 36.6806C8.89867 36.4072 8.89148 35.7555 8.8783 35.4453C6.71877 35.6388 6.02174 34.7391 4.35285 33.6896C4.22043 33.6063 4.1273 33.677 4.00997 33.7407C3.72467 32.2827 4.48791 26.9467 4.93479 25.4531Z" fill="#AAC377"/>
<path d="M3.01409 42.7327C3.47566 42.3384 5.72689 41.0459 6.24732 41.1277C6.71297 41.8539 6.64084 43.4258 6.79843 44.2955C7.07039 45.7957 7.30057 47.3305 7.60248 48.8244L7.53347 49.1196C7.43484 49.1787 7.38627 49.2144 7.27765 49.2561C6.64612 48.3925 4.82148 46.9202 3.72558 46.7012C3.36073 46.7211 3.04325 46.6871 2.68135 46.6572C2.48128 46.826 2.47465 46.7742 2.43783 46.9731C1.51397 46.7008 2.01156 46.4187 1.97163 45.5219C1.77227 45.1619 1.48681 44.0505 1.3877 43.6234L2.21915 43.5947C2.49206 43.273 2.72081 43.0318 3.01409 42.7327Z" fill="#9271B8"/>
<path d="M1.3877 43.6234L2.21915 43.5947C2.51794 44.5719 2.84868 45.5626 3.2097 46.5206C3.26832 46.6761 3.58349 46.6808 3.72558 46.7012C3.36073 46.7212 3.04325 46.6871 2.68135 46.6572C2.48128 46.826 2.47465 46.7743 2.43783 46.9732C1.51397 46.7009 2.01156 46.4187 1.97163 45.5219C1.77227 45.1619 1.48681 44.0505 1.3877 43.6234Z" fill="#425A3A"/>
<path d="M1.97152 45.5225C2.33517 45.7904 2.83739 46.1275 2.68125 46.6577C2.48117 46.8266 2.47454 46.7748 2.43772 46.9737C1.51386 46.7014 2.01146 46.4192 1.97152 45.5225Z" fill="#477041"/>
<path d="M2.00313 41.6425C2.47692 40.5701 5.50752 37.9497 6.89319 38.6521C7.17897 38.797 7.48064 39.6845 7.7395 39.9158C8.34419 40.5428 9.17948 40.9886 9.79999 41.5794C10.0728 42.513 10.2631 43.0297 10.6883 43.906C10.3283 43.7222 10.0973 43.598 9.7583 43.38C9.22596 43.0377 8.41041 42.1009 7.80267 42.0669C7.41874 42.2363 7.41706 42.4022 7.3697 42.8071L7.12194 42.7873C7.082 42.3172 6.9864 41.4833 6.69719 41.1221C5.80504 40.0076 3.46005 41.9838 2.6877 42.5743L3.01437 42.7332C2.72108 43.0322 2.49234 43.2735 2.21942 43.5952L1.38797 43.6238C1.33933 43.3309 1.33581 42.9452 1.26904 42.5524C1.44931 42.0573 1.441 42.4605 1.63796 42.0073L2.00313 41.6425Z" fill="#45227A"/>
<path d="M1.63796 42.0073L2.00313 41.6426C1.88205 42.0167 1.66696 42.5698 1.67854 42.944L1.76927 43.0778C2.11247 43.1079 2.4278 42.7901 2.6877 42.5743L3.01437 42.7333C2.72108 43.0323 2.49234 43.2735 2.21942 43.5952L1.38797 43.6239C1.33933 43.331 1.33581 42.9453 1.26904 42.5525C1.44931 42.0574 1.441 42.4606 1.63796 42.0073Z" fill="#1B0837"/>
<path d="M4.00977 33.7404C4.1271 33.6767 4.22022 33.606 4.35265 33.6893C6.02154 34.7388 6.71857 35.6386 8.8781 35.445C8.89128 35.7552 8.89847 36.4069 8.97442 36.6803C9.02634 37.7394 9.11188 39.5904 9.37218 40.5682C9.15645 40.4187 8.61245 40.045 8.45998 39.8734C7.68699 39.0039 7.31616 37.7008 5.87921 37.9841C5.40438 38.0776 4.79769 38.377 4.37126 38.6139C4.02822 38.2084 4.05266 34.5927 4.00977 33.7404Z" fill="#B8CD84"/>
<path d="M12.6034 24.4481C12.4532 22.1038 12.6723 18.2469 14.0104 16.2719C14.2209 16.3223 14.2862 16.3285 14.4935 16.2646C14.4986 16.7041 14.4855 17.4698 14.5714 17.8714C14.6181 18.6569 14.7517 21.1798 15.1253 21.7541C15.0211 21.8827 14.891 22.004 14.7683 22.116C13.9717 22.8434 13.2888 23.619 12.6034 24.4481Z" fill="#1B0837"/>
<path d="M23.7948 51.9652C17.1742 50.9671 11.5572 46.981 10.0476 40.1962C9.55589 37.9861 9.45828 33.6182 10.1966 31.4854C10.2047 31.503 10.2134 31.5203 10.221 31.5382C10.4213 32.0059 10.0935 32.8617 10.0309 33.3699C9.59678 36.895 9.85149 40.5541 11.5318 43.7374C11.9199 44.4725 12.4083 45.1091 12.8485 45.8059C13.0715 46.1587 13.5909 46.0906 13.8821 46.3546C14.3793 46.8054 14.4695 47.4969 14.9002 47.9866C15.5909 48.7718 16.8165 49.4532 17.8003 49.7905C18.1895 49.9239 18.6762 50.0102 19.0359 50.1986C19.4172 50.3984 19.8528 50.8733 20.2549 50.9623C20.2873 50.9694 20.3202 50.9732 20.3529 50.9787C20.8151 51.0561 23.5771 51.6438 23.7198 51.8448C23.7472 51.8836 23.7711 51.9241 23.7948 51.9652Z" fill="#67449A"/>
<path d="M7.60266 48.8242C7.75066 49.3376 7.97846 50.0497 8.04467 50.5593C7.90394 50.316 7.35531 49.4662 7.27783 49.2559C7.38646 49.2142 7.43502 49.1784 7.53366 49.1193L7.60266 48.8242Z" fill="#67449A"/>
<path d="M7.96537 42.4209C8.50912 42.9724 9.72738 44.2005 10.5166 44.4156C11.2813 44.6823 11.7948 45.9088 12.2673 46.5365C13.3619 47.9905 14.6777 48.9239 16.1851 49.8975C16.1418 49.9325 15.9776 50.0604 15.9513 50.0928C15.6775 50.2187 14.7337 50.2714 14.2347 50.4006C11.7645 49.2037 10.9523 49.0028 8.34427 50.2543C7.98853 48.577 7.52241 46.2133 7.57544 44.5049C7.58814 44.0979 7.86713 42.8754 7.96537 42.4209Z" fill="#8D4CAB"/>
<path d="M16.185 49.8955C16.629 50.1317 17.9871 50.8353 18.1593 51.242C17.8384 51.4327 17.3733 51.2181 17.0507 51.1968C16.3751 51.1522 16.1893 50.2774 15.9512 50.0908C15.9775 50.0584 16.1417 49.9305 16.185 49.8955Z" fill="#45227A"/>
<path d="M61.5183 21.1429C61.6404 21.0898 61.801 20.8163 62.2084 20.6299C62.6687 22.5141 63.5306 24.7747 63.8649 26.6491C64.7531 31.6307 64.7011 37.6487 63.3168 42.5303C63.1935 42.9652 62.9999 43.8467 62.8707 44.2018L62.8015 44.1048C62.6566 44.2394 62.6358 44.2629 62.4453 44.3105C62.3259 44.6347 62.3885 44.6282 62.151 44.7779L61.8571 44.7914C60.5989 44.6587 59.6189 45.0519 58.5791 45.689C58.445 45.7414 58.1708 45.8265 58.0871 45.917L58.2037 46.0995C57.65 48.28 55.5855 50.8667 54.0873 52.579C53.6889 53.0342 53.1243 53.5273 52.7568 53.9621C51.7534 55.0674 50.725 56.3425 49.44 57.1425C48.7174 57.2839 47.5399 57.4088 46.7962 57.459C41.5156 58.0072 36.1276 57.8571 30.8212 57.8844C30.3579 57.8868 28.4297 57.9177 28.1469 57.8034C28.1362 57.6724 28.1139 57.7068 28.1628 57.6202C28.034 57.6304 27.6358 57.769 27.4888 57.8161C27.2044 57.7375 26.9215 57.6527 26.6407 57.5617C26.2714 57.9158 25.0185 57.7086 24.5048 57.6557C23.756 57.4166 23.5251 57.1173 22.891 56.7878C21.9823 56.3155 20.9842 56.1583 20.3663 55.2049C19.7578 54.2659 20.1217 52.7703 20.3701 51.7225C20.8152 51.8762 21.7101 52.0343 22.1878 52.1249C21.624 52.1554 21.767 52.1058 21.3015 52.5163C21.1508 52.3426 21.115 52.2433 20.9222 52.1745C20.8767 52.3483 20.9748 53.2787 21.0636 53.4766C21.4565 54.3511 22.8293 55.0633 23.6713 55.4528C24.3694 55.7757 26.4925 55.9304 27.1675 55.6696C27.4112 55.5755 27.6776 54.9031 28.5531 54.8828C29.9949 54.8495 31.9172 55.3091 33.2481 55.2557C33.7789 55.2345 34.9698 54.3431 36.051 54.2502C37.5432 54.1221 38.3319 54.8637 39.5542 54.321C39.8759 53.9694 40.459 51.9254 40.4737 51.4775C39.9682 51.3898 39.2741 51.9811 38.7281 51.6946L38.695 51.5462C38.724 51.4694 38.8567 51.1555 38.9262 51.1375C39.8518 50.8974 40.8277 50.4491 41.7151 50.1737C42.0554 49.002 42.2133 48.7869 42.7584 47.7395L42.8734 47.5218C43.3009 47.3557 44.0189 46.9482 44.2892 46.8805C44.3276 46.8689 44.5717 46.7423 44.6231 46.7164C44.9749 46.645 45.2423 46.6309 45.4599 46.3741C45.7315 46.0536 46.5789 45.1722 47.0088 45.1533L46.962 45.3075L46.973 45.5864L47.1488 45.6336C47.7741 45.3851 49.3547 43.2325 49.6283 42.5512C49.8223 42.0682 50.3 41.5318 50.4754 41.0316C51.2162 38.8711 51.0756 36.4178 50.9827 34.1595C50.9476 33.3059 50.5135 32.4127 50.5857 31.4117C50.2277 29.59 48.7099 26.0564 47.4385 24.7379L47.3175 24.5502L47.5237 24.3591C48.1796 24.3346 48.7037 23.994 49.2771 23.6847C49.4957 23.4832 49.7476 23.298 49.9845 23.1166L50.11 23.2606C50.7502 22.9071 52.8999 24.0006 53.9825 24.0073C55.8819 24.0189 57.1758 23.6058 58.9081 22.8944C60.3195 22.0401 60.1901 22.3861 61.5183 21.1429ZM60.9427 43.0725C60.8103 42.4565 60.6551 42.1696 60.3838 41.6C60.0985 41.7567 60.168 41.6711 60.0399 41.9146C60.4134 42.18 60.6865 42.6782 60.9427 43.0725Z" fill="black"/>
<path d="M61.5185 21.1429C61.6406 21.0898 61.8012 20.8163 62.2086 20.6299C62.6688 22.5141 63.5308 24.7747 63.8651 26.6491C64.7532 31.6307 64.7012 37.6487 63.317 42.5303C63.1937 42.9652 63.0001 43.8467 62.8708 44.2018L62.8017 44.1048C62.6568 44.2394 62.6359 44.2629 62.4454 44.3105C62.4094 44.0904 62.3499 43.8872 62.2923 43.6721C61.9734 43.1668 60.587 40.9129 60.4218 40.4413L60.2321 40.2318C58.8483 38.8455 56.6762 36.6529 54.4624 36.6384C53.3803 36.6314 52.9105 38.2121 52.4679 38.9405C52.2443 39.3086 51.9677 39.6643 51.682 40.0261C51.774 39.5651 51.827 39.1488 51.8724 38.6803C52.2195 35.2522 51.7052 31.7917 50.376 28.6127C50.0183 27.7668 49.7816 27.156 49.2026 26.4523C49.2957 26.2523 49.4208 26.0254 49.5244 25.8268C49.7573 25.13 49.9095 24.0437 50.1101 23.2606C50.7504 22.9071 52.9001 24.0006 53.9827 24.0073C55.882 24.0189 57.1759 23.6058 58.9083 22.8944C60.3197 22.0401 60.1903 22.3861 61.5185 21.1429Z" fill="#AAC377"/>
<path d="M61.5184 21.1429C61.6405 21.0898 61.8011 20.8163 62.2084 20.6299C62.6687 22.5141 63.5307 24.7747 63.865 26.6491C64.7531 31.6307 64.7011 37.6487 63.3169 42.5303C63.1936 42.9652 63 43.8467 62.8707 44.2018L62.8016 44.1048C62.6567 44.2394 62.6358 44.2629 62.4453 44.3105C62.4093 44.0904 62.3498 43.8872 62.2921 43.6721C61.9733 43.1668 60.5869 40.9129 60.4217 40.4413L60.232 40.2318C60.6865 39.3765 60.8475 31.6543 60.6745 30.4499C60.6679 29.6329 60.4987 28.6541 60.372 27.8366C60.018 26.1979 59.449 24.6078 59.1579 22.9666C59.108 22.9609 58.9646 22.9119 58.9082 22.8944C60.3196 22.0401 60.1902 22.3861 61.5184 21.1429Z" fill="#AAC377"/>
<path d="M61.5186 21.1429C61.6407 21.0898 61.8013 20.8163 62.2086 20.6299C62.6689 22.5141 63.5309 24.7747 63.8651 26.6491C64.7533 31.6307 64.7013 37.6487 63.3171 42.5303C63.1938 42.9652 63.0001 43.8467 62.8709 44.2018L62.8017 44.1048C62.6569 44.2394 62.636 44.2629 62.4455 44.3105C62.4095 44.0904 62.35 43.8872 62.2923 43.6721C63.2194 41.5323 63.8169 35.7181 63.7752 33.2572C63.7402 31.1897 63.3563 28.0905 62.9848 26.017C62.8645 25.3457 62.451 23.9499 62.2385 23.2753C62.0158 22.5685 61.6703 21.9779 61.5253 21.181L61.5186 21.1429Z" fill="#3D6F2D"/>
<path d="M60.7635 27.5078C61.3551 31.0357 61.3767 35.4186 60.7537 38.9366C60.7003 39.2385 60.5421 40.1978 60.4216 40.4402L60.2319 40.2307C60.6865 39.3753 60.8475 31.6532 60.6745 30.4488C60.6679 29.6318 60.4987 28.653 60.3719 27.8354C60.4949 27.6301 60.5459 27.6158 60.7635 27.5078Z" fill="#64924A"/>
<path d="M59.1577 22.9666L59.3163 22.8662C60.0153 23.1498 60.636 26.7687 60.7633 27.509C60.5458 27.617 60.4947 27.6313 60.3718 27.8366C60.0178 26.1979 59.4488 24.6079 59.1577 22.9666Z" fill="#84A85D"/>
<path d="M50.1101 23.2588C50.7503 22.9052 52.9 23.9988 53.9827 24.0054C55.882 24.017 57.1759 23.6039 58.9083 22.8926C58.9647 22.9101 59.1081 22.959 59.158 22.9647C59.4491 24.606 60.0181 26.196 60.3721 27.8347C60.4988 28.6523 60.668 29.6311 60.6746 30.4481C60.6702 30.6965 60.6948 31.1563 60.5807 31.3464C59.0178 31.0153 58.2715 29.8694 56.9543 29.1043C55.0748 28.0124 52.9716 27.0106 50.9753 26.1258C50.5496 25.9372 50.0452 26.2985 49.5244 25.8249C49.7572 25.1281 49.9095 24.0418 50.1101 23.2588Z" fill="#C4D599"/>
<path d="M49.0984 49.6474C50.589 49.1062 51.3544 48.7731 52.8119 49.6803C53.0166 49.8077 54.2551 50.461 54.4287 50.1162C55.3324 48.3209 56.3862 47.0075 58.0872 45.916L58.2038 46.0985C57.6501 48.2791 55.5857 50.8657 54.0874 52.578C53.689 53.0333 53.1244 53.5263 52.7569 53.9611C51.7536 55.0664 50.7251 56.3416 49.4401 57.1415C48.7175 57.2829 47.54 57.4078 46.7963 57.458C41.5157 58.0062 36.1277 57.8561 30.8213 57.8835C30.358 57.8859 28.4298 57.9168 28.147 57.8024C28.1363 57.6714 28.114 57.7058 28.1629 57.6193C28.6801 57.2717 28.8008 56.8054 29.0361 56.2309C30.4806 56.4952 32.9933 56.224 34.4608 55.9318C35.1235 57.3521 36.2644 57.584 37.7215 57.2675C40.2075 56.7277 40.6966 55.5217 41.9466 53.516C44.1107 54.2217 45.9419 54.0321 47.9901 53.0375C48.8822 51.6081 49.719 51.6446 49.0984 49.6474Z" fill="#B8CD84"/>
<path d="M46.7964 57.4585C47.1954 56.497 51.4239 53.6832 52.7569 53.9617C51.7536 55.067 50.7251 56.3421 49.4402 57.1421C48.7176 57.2835 47.5401 57.4084 46.7964 57.4585Z" fill="#AAC377"/>
<path d="M38.695 51.5456C39.2201 51.6086 40.5931 51.1722 41.4061 51.1396C41.8641 56.4529 35.8355 57.6976 35.1872 56.0483C35.4576 55.5224 36.6605 55.7911 36.4292 54.9642C36.2692 54.9445 34.4129 55.3955 34.068 55.4526C33.2627 55.5844 32.4509 55.6724 31.636 55.7161C30.7329 55.7639 29.8751 55.7909 28.987 55.6129C28.7086 55.5571 27.8472 55.3096 27.6601 55.2975L27.5295 55.4571C27.7726 55.9118 28.1311 55.9869 28.5526 56.2049C27.357 57.645 26.8742 56.7437 26.4751 57.0803C26.4615 57.3104 26.5193 57.3637 26.6407 57.5611C26.2714 57.9152 25.0185 57.708 24.5048 57.6551C23.756 57.416 23.5251 57.1167 22.891 56.7872C21.9823 56.3149 20.9842 56.1577 20.3663 55.2043C19.7578 54.2653 20.1217 52.7697 20.3701 51.7219C20.8152 51.8756 21.7101 52.0337 22.1878 52.1243C21.624 52.1548 21.767 52.1052 21.3015 52.5157C21.1508 52.342 21.115 52.2427 20.9222 52.1739C20.8767 52.3477 20.9748 53.2781 21.0636 53.476C21.4565 54.3505 22.8293 55.0627 23.6713 55.4522C24.3694 55.7751 26.4925 55.9298 27.1675 55.669C27.4112 55.5748 27.6776 54.9025 28.5531 54.8822C29.9949 54.8489 31.9172 55.3085 33.2481 55.2551C33.7789 55.2339 34.9698 54.3425 36.051 54.2496C37.5432 54.1215 38.3319 54.8631 39.5542 54.3204C39.8759 53.9688 40.459 51.9248 40.4737 51.4769C39.9682 51.3892 39.2741 51.9805 38.7281 51.694L38.695 51.5456Z" fill="#67449A"/>
<path d="M44.6231 46.7164C44.9748 46.645 45.2422 46.6308 45.4599 46.3741C45.7314 46.0535 46.5789 45.1722 47.0088 45.1533L46.962 45.3075C46.7666 45.7008 46.377 45.8409 45.9375 46.3007L45.9638 46.3597C46.2487 46.9835 46.6821 46.6983 47.0421 47.1364C46.9523 47.3492 46.8842 47.3519 46.6837 47.5107C46.9839 48.08 47.9456 47.0504 48.2335 48.9624C48.031 49.569 47.4941 49.198 47.16 49.5538C47.1474 49.827 47.1212 49.7215 47.2548 49.9549C47.7477 50.1844 48.295 49.6523 48.5659 50.1034C48.6028 50.9209 48.0296 51.4203 47.6907 52.0603C47.0527 53.2652 46.7824 52.4722 46.2306 52.6548C45.7934 53.0881 45.5411 53.239 44.8903 53.2335C44.4897 53.2289 44.0898 53.1967 43.6936 53.1368C43.5884 53.0233 43.0512 52.4254 42.9609 52.3857C42.7548 52.3116 42.6749 52.2436 42.498 52.1213C42.4798 51.7682 42.4145 51.4334 42.3547 51.0858L42.6369 51.1824C42.4513 49.4903 43.4281 50.511 43.3799 49.7503C43.1083 49.6135 42.6274 49.7597 42.3595 49.8641C42.171 49.9568 41.9014 50.0988 41.7151 50.1736C42.0554 49.002 42.2132 48.7869 42.7584 47.7395L42.8734 47.5218C43.3009 47.3557 44.0189 46.9482 44.2892 46.8804C44.3276 46.8689 44.5716 46.7423 44.6231 46.7164Z" fill="#67449A"/>
<path d="M44.6232 46.7158C44.9369 46.8129 45.028 46.9113 45.183 47.2095C45.2307 47.3022 45.2757 47.3964 45.318 47.4918L45.1658 47.6243C44.8376 47.5655 44.6946 47.4746 44.4616 47.6083C44.3654 47.9073 44.4801 48.2017 44.5631 48.5076C44.1511 48.428 43.795 47.899 43.5247 47.5702C43.8769 47.308 43.9921 47.2033 44.2893 46.8799C44.3277 46.8684 44.5718 46.7417 44.6232 46.7158Z" fill="black"/>
<path d="M42.7584 47.7391L43.0512 47.6943L43.1009 47.8105C42.8534 48.3398 42.035 49.2966 42.3595 49.8636C42.171 49.9563 41.9014 50.0984 41.7151 50.1732C42.0554 49.0016 42.2132 48.7864 42.7584 47.7391Z" fill="#45227A"/>
<path d="M45.318 47.4912C45.4521 47.7204 45.4609 47.8196 45.6655 47.9426C45.1805 47.9894 45.0904 48.0452 44.8156 48.4474L44.5631 48.507C44.4801 48.2011 44.3654 47.9068 44.4616 47.6077C44.6946 47.474 44.8376 47.5649 45.1658 47.6238L45.318 47.4912Z" fill="#574175"/>
<path d="M44.8154 48.4472C45.0903 48.0449 45.1804 47.9891 45.6654 47.9424C45.8608 48.2399 45.8048 48.7315 45.5413 48.943C44.9856 48.9749 45.1325 48.7631 44.8154 48.4472Z" fill="black"/>
<path d="M42.3547 51.084L42.6369 51.1806C42.743 51.5755 42.8484 51.9927 42.961 52.3839C42.7549 52.3098 42.6749 52.2419 42.498 52.1195C42.4799 51.7664 42.4146 51.4317 42.3547 51.084Z" fill="#17161E"/>
<path d="M46.1552 51.1914C46.275 51.231 46.3157 51.2586 46.4254 51.3166C46.5047 51.6354 46.446 51.6209 46.3292 51.9866L46.1933 51.9015C46.077 51.693 46.1321 51.435 46.1552 51.1914Z" fill="#45227A"/>
<path d="M50.5859 31.4121C51.3848 33.6891 51.4124 37.6746 50.958 40.0446C50.5797 42.0176 48.8982 45.3206 47.39 46.6347C46.7724 46.2833 46.6422 46.2384 45.9377 46.3011C46.3773 45.8413 46.7669 45.7012 46.9622 45.3079L46.9732 45.5868L47.1491 45.634C47.7744 45.3855 49.3549 43.2329 49.6285 42.5516C49.8225 42.0686 50.3003 41.5322 50.4756 41.032C51.2164 38.8715 51.0758 36.4181 50.9829 34.1599C50.9478 33.3063 50.5138 32.4131 50.5859 31.4121Z" fill="#67449A"/>
<path d="M47.5239 24.357C48.1799 24.3325 48.7039 23.992 49.2773 23.6826C49.3523 24.1473 49.1291 24.651 49.0506 25.1491L48.9296 25.2264C48.2952 25.0456 48.2515 24.4468 47.5239 24.357Z" fill="#17161E"/>
<path d="M42.4982 52.1204C42.0112 51.8739 41.8047 51.2989 42.1007 50.8379L42.2511 50.8654L42.3549 51.0849C42.4147 51.4325 42.4801 51.7673 42.4982 52.1204Z" fill="#9271B8"/>
<path d="M54.7067 39.915C55.0909 39.9686 55.4721 40.0417 55.8489 40.1342C57.9398 40.6637 60.3994 42.474 61.51 44.3296C59.8757 44.6109 58.9826 44.7772 57.5095 45.4979C56.222 46.121 54.8959 47.7267 54.2035 48.9791C54.1508 47.6057 54.4471 45.5685 54.5408 44.1335C54.5985 43.2483 54.5344 40.5183 54.7067 39.915Z" fill="#9271B8"/>
<path d="M52.9849 41.6396L53.1244 41.7218C54.0325 44.8193 53.9617 46.1564 53.7726 49.3566C52.0358 48.7051 51.4139 48.3986 49.5613 48.6459C49.3324 48.7534 49.0878 48.8269 48.8474 48.9064C48.5691 48.0321 48.4968 47.6333 47.8616 46.9506C48.9159 46.0874 49.8215 44.9638 50.1499 43.6238C50.4616 43.5936 50.7026 43.5423 51.0093 43.4791C51.28 43.1723 52.5821 42.023 52.9849 41.6396Z" fill="#935AB7"/>
<path d="M50.7876 42.9953L51.0005 42.309C51.5178 40.6559 51.498 40.8328 52.7106 39.669C53.6569 38.7605 53.5073 36.3756 55.5296 37.4421C56.9855 38.21 59.8371 40.0227 60.3839 41.5992C60.0986 41.7559 60.1681 41.6704 60.04 41.9138C57.8405 40.3777 57.2931 40.2323 54.8323 39.3031C53.6085 40.86 54.2928 42.0067 54.0652 44.0882C53.7097 42.9795 53.6289 41.8818 53.2323 40.6579C52.3997 41.6559 51.8273 42.2251 50.7876 42.9953Z" fill="#45227A"/>
<path d="M60.04 41.9142C60.1682 41.6708 60.0986 41.7563 60.384 41.5996C60.6553 42.1692 60.8105 42.4561 60.9428 43.0721C60.6866 42.6779 60.4135 42.1796 60.04 41.9142Z" fill="#574175" fill-opacity="0.988235"/>
<path d="M42.2336 52.6465C42.5121 52.6774 42.7179 52.7312 42.8827 52.9577L42.77 53.1003C42.5319 53.1266 42.286 53.1851 42.0851 53.0656C42.0611 52.836 42.0911 52.8727 42.2336 52.6465Z" fill="#84A85D"/>
<path d="M43.8044 12.5303C44.0283 12.8685 43.9864 15.0319 44.0803 15.736C43.401 15.4027 41.5616 14.8251 40.9902 14.3148C41.6933 13.7161 42.9713 12.847 43.8044 12.5303Z" fill="#67449A"/>
<path d="M47.05 20.873L47.0588 21.4072C46.9642 22.0355 46.6298 22.5241 46.6117 23.1369C46.6026 23.1664 46.5936 23.1958 46.5846 23.2252L47.2667 23.1423L47.1601 23.8508C47.1971 24.1635 47.1889 24.2017 47.0748 24.4959L47.3178 24.5495L47.4388 24.7372C46.7921 25.0077 46.3923 25.0368 45.7144 25.0744C46.062 24.2298 46.2239 23.6556 46.3033 22.7512C46.0176 22.4912 45.6783 22.2588 45.7152 21.8367L45.8461 21.7737C46.1112 21.8579 46.2861 22.1367 46.4646 22.3628C46.5906 21.7522 46.6525 21.3725 47.05 20.873Z" fill="#17161E"/>
<path d="M46.5844 23.2255L47.2666 23.1426L47.1599 23.851C47.1969 24.1637 47.1888 24.202 47.0746 24.4961C46.697 24.5858 46.6139 24.8048 46.1812 24.6242C46.0624 24.2659 46.4151 23.5981 46.5844 23.2255Z" fill="#3D6F2D"/>
<path d="M16.0181 11.2578C17.0361 11.627 18.6652 12.3964 19.4577 13.1253C18.2043 13.0996 17.5211 10.9547 15.6811 12.2017C14.7526 13.9954 14.5681 15.8484 14.5713 17.8707C14.4854 17.4691 14.4984 16.7034 14.4934 16.2639C14.5647 13.9421 14.9064 13.2087 16.0181 11.2578Z" fill="#67449A"/>
<path d="M21.5112 34.6523C21.825 34.7003 22.8244 35.1241 23.1455 35.2658C24.421 35.8349 25.6753 36.4793 26.1423 37.9176C26.9739 40.4782 25.9374 42.3347 23.5456 43.224C21.9184 43.7254 19.8152 42.5546 19.334 40.9336C18.9124 39.5135 19.2204 37.6528 20.303 36.5961C20.5718 36.3337 21.5227 35.8542 21.6551 35.5887C21.2583 35.2423 21.4097 35.1368 21.5112 34.6523Z" fill="black"/>
<path d="M21.4425 36.2513C23.0306 36.0972 23.1867 36.8025 23.0214 38.2032C22.6949 38.6325 22.5833 38.7818 22.0728 38.9385C21.9374 38.9488 21.8015 38.9516 21.6658 38.9464C21.2961 38.9293 20.9495 38.7618 20.7063 38.4828C19.9731 37.6338 20.8423 36.771 21.4425 36.2513Z" fill="white"/>
<path d="M24.2345 40.1555C25.4176 40.1393 25.3255 41.1526 24.4632 41.4607C24.1712 41.4518 24.0291 41.4409 23.7416 41.3922C23.5011 41.2094 23.5672 41.3078 23.4866 41.0252C23.5831 40.6308 23.9114 40.3715 24.2345 40.1555Z" fill="#1B0837"/>
<path d="M41.0272 37.1421C42.3257 37.0147 43.6879 37.8271 44.4371 38.8551C44.4951 39.4173 44.8973 40.7605 44.1099 40.8797C42.9876 41.0496 42.6785 39.5814 41.569 38.9631C41.2684 38.9483 40.9121 38.9613 40.6069 38.9645C39.0087 39.4073 39.0697 40.2087 37.8356 41.0341C37.6817 41.137 37.3134 41.0977 37.1056 41.0087C36.6566 40.5089 36.9936 39.7973 37.3524 39.3289C38.245 38.1632 39.5795 37.3818 41.0272 37.1421Z" fill="black"/>
<path d="M31.4046 40.5649C31.8489 40.5351 32.7171 40.3476 32.8351 40.8692C32.7381 41.1985 32.42 41.4582 32.1694 41.706C33.2064 42.888 33.4307 42.8205 34.9774 42.7815C35.2198 42.5283 35.6411 41.9897 35.9774 42.3894C35.9453 42.9141 35.5805 43.0443 35.1755 43.3103C34.9146 43.9141 34.7834 44.2434 34.4155 44.7821C34.0184 44.2652 33.8889 44.0427 33.643 43.4518C33.2525 43.2182 32.9065 43.0646 32.4951 42.8755C31.895 42.4585 31.1489 43.2199 30.3598 43.4737C30.1627 43.9689 29.8638 44.3739 29.5672 44.8168C29.3422 44.4692 29.1185 44.1137 28.8813 43.774C28.6947 43.507 28.1608 43.0163 28.0498 42.7631C28.134 42.5682 28.1667 42.444 28.3265 42.3047C28.6011 42.3381 28.75 42.5022 28.9697 42.672C29.4631 43.0536 30.6326 42.7776 31.2389 42.6613C31.5182 42.3044 31.7543 42.0218 32.0568 41.6846C31.6591 41.3012 31.3555 41.1535 31.4046 40.5649Z" fill="black"/>
<path d="M17.7233 41.8477C18.3068 41.8617 18.8144 42.0045 19.3734 42.1519C20.518 43.3075 19.552 44.051 18.4473 44.6202C17.9165 44.7576 17.4303 44.787 16.9504 44.4931C16.5921 44.2755 16.3409 43.9181 16.2573 43.5073C16.1767 43.1367 16.2562 42.7493 16.4762 42.4405C16.8123 41.9674 17.1955 41.9283 17.7233 41.8477Z" fill="#BE75B8"/>
<path d="M62.4452 44.3102C62.6357 44.2626 62.6566 44.2391 62.8015 44.1045L62.8706 44.2015C62.0234 47.1089 60.3002 50.6789 58.4382 53.0711C59.7755 52.8903 61.0758 52.616 62.3889 52.3053C62.8637 52.193 64.8686 51.772 64.7897 52.7028C64.6227 54.6718 63.4388 56.5139 62.8575 58.4118C63.307 60.0924 66.2972 63.9221 63.5554 64.2975C62.3059 64.4687 60.5788 65.0277 59.3639 65.1061C59.3795 65.8229 59.5412 66.9952 59.009 67.5499C56.9712 69.6737 36.6761 70.0147 32.7221 69.9995C28.7579 69.9842 7.76053 69.502 5.75036 67.5359C5.29813 67.0936 5.31299 66.4343 5.3181 65.8482C5.32041 65.6128 5.32425 65.3776 5.3296 65.1423C-1.98806 64.1153 -0.349379 63.9841 1.93144 58.4729C1.51004 57.5035 -0.281705 53.3326 0.0706108 52.566C0.158676 52.3744 0.333616 52.2548 0.530033 52.1942C1.51316 51.8911 4.96763 52.9112 6.21057 53.0652C5.22808 51.7732 4.59751 50.7372 3.87804 49.2874C3.67748 48.8832 3.14586 47.6955 2.95098 47.3869C3.40816 47.241 3.55392 47.2541 4.02947 47.3517C5.26131 47.7517 6.17878 48.7287 6.8338 49.8201C7.13363 50.3197 7.66485 51.5974 8.43599 51.1652C8.54701 51.103 8.65779 51.0382 8.76921 50.9767L8.8288 50.9433C9.05707 51.1459 9.09804 51.2847 9.24532 51.5375C9.70242 52.3224 10.3585 53.0846 10.9614 53.7568C11.4997 54.3624 12.0742 54.9346 12.6821 55.4703C13.0471 55.7931 13.882 56.4778 14.1541 56.8187C14.0367 56.9085 14.1009 56.8869 13.9572 56.891C14.2271 56.9885 14.416 56.9628 14.702 56.9526C15.7944 57.1047 22.1679 57.9145 22.8686 57.6314L22.9814 57.5095C23.4717 57.7186 23.9771 57.6924 24.5048 57.6554C25.0185 57.7083 26.2714 57.9155 26.6407 57.5614C26.9215 57.6524 27.2043 57.7372 27.4888 57.8158C27.6358 57.7687 28.0339 57.6301 28.1628 57.6199C28.1139 57.7065 28.1362 57.6721 28.1469 57.803C28.4297 57.9174 30.3578 57.8865 30.8212 57.8841C36.1276 57.8568 41.5156 58.0069 46.7962 57.4586C47.5399 57.4085 48.7174 57.2836 49.44 57.1422C50.7249 56.3422 51.7534 55.0671 52.7567 53.9618C53.1242 53.527 53.6888 53.0339 54.0872 52.5787C55.5855 50.8664 57.6499 48.2797 58.2037 46.0992L58.087 45.9167C58.1707 45.8262 58.4449 45.7411 58.579 45.6887C59.6189 45.0516 60.5989 44.6584 61.8571 44.7911L62.1509 44.7776C62.3885 44.6279 62.3258 44.6344 62.4452 44.3102Z" fill="#56853C"/>
<path d="M58.579 45.688C59.6189 45.0509 60.5989 44.6577 61.8571 44.7903C61.0784 47.8931 59.1584 50.9064 57.2746 53.5031C56.5901 54.4467 55.2441 55.6839 54.5409 56.6401C53.0485 56.7645 51.6461 56.9654 50.1779 57.1096C49.8995 57.1897 49.7117 57.1241 49.4399 57.1415C50.7249 56.3415 51.7534 55.0664 52.7567 53.9611C53.1242 53.5262 53.6888 53.0332 54.0872 52.5779C55.5855 50.8657 57.6499 48.279 58.2036 46.0985L58.087 45.916C58.1707 45.8255 58.4449 45.7404 58.579 45.688Z" fill="#AAC377"/>
<path d="M58.087 45.9164C58.1707 45.8259 58.4449 45.7409 58.579 45.6885C58.3606 48.2038 53.2071 54.4449 51.1421 56.1238C50.8573 56.3554 50.1847 56.7887 50.0937 57.0483L50.1779 57.1101C49.8995 57.1901 49.7117 57.1245 49.4399 57.142C50.7249 56.342 51.7534 55.0668 52.7567 53.9615C53.1242 53.5267 53.6888 53.0337 54.0872 52.5784C55.5855 50.8661 57.6499 48.2795 58.2036 46.0989L58.087 45.9164Z" fill="#5D8B42"/>
<path d="M7.1495 53.2301C6.6662 52.3225 3.72594 48.2018 3.8114 47.4216L4.02968 47.3516C5.26152 47.7516 6.17899 48.7286 6.83401 49.82C7.13384 50.3195 7.66506 51.5972 8.43621 51.1651C8.54723 51.1028 8.65801 51.0381 8.76942 50.9766L8.82901 50.9432C9.05728 51.1457 9.09825 51.2845 9.24553 51.5374C9.70263 52.3223 10.3587 53.0844 10.9616 53.7567C11.4999 54.3623 12.0745 54.9345 12.6823 55.4701C13.0473 55.793 13.8822 56.4777 14.1544 56.8186C14.0369 56.9084 14.1011 56.8868 13.9574 56.8909C12.8996 56.7678 10.85 56.7167 9.92866 56.4761C9.27828 55.8557 7.65955 53.944 7.1495 53.2301Z" fill="#AAC377"/>
<path d="M7.14938 53.2305C7.65943 53.9443 9.27816 55.856 9.92855 56.4765C8.78792 56.559 7.94936 55.0143 7.34227 54.1941C7.11032 53.8807 7.13588 53.6148 7.14938 53.2305Z" fill="#5D8B42"/>
<path d="M23.8761 61.4824C24.3645 61.4932 24.6348 61.5018 25.0679 61.7418C25.6558 62.069 26.0884 62.6179 26.2691 63.266C26.6441 64.5956 25.9826 65.9195 24.6162 66.2706C24.242 66.2786 23.8258 66.2579 23.4484 66.2472C22.9024 65.9064 22.4922 65.4919 22.0344 65.0464C21.9 64.2455 21.7844 63.4297 22.208 62.6879C22.511 62.1574 23.2955 61.6329 23.8761 61.4824Z" fill="white"/>
<path d="M23.9351 62.5068C25.6453 62.6174 25.806 64.9313 24.373 65.2336C22.567 65.2384 22.5362 63.3794 23.9351 62.5068Z" fill="#5D8B42"/>
<path d="M31.0018 61.8113C31.7513 61.7863 32.368 61.789 33.1179 61.8146C34.849 63.0211 34.4013 63.2594 33.4918 64.4611C33.2273 64.8108 34.3031 65.6419 34.1665 66.1814C33.8868 66.3563 33.5306 66.2663 33.2009 66.2204L31.9619 64.3617C31.8966 64.9417 31.8693 65.6622 31.8311 66.2544L30.7908 66.2761C30.7882 65.4968 30.6808 62.2232 31.0018 61.8113Z" fill="white"/>
<path d="M31.9419 62.5762C32.4992 62.622 32.9573 62.6875 33.1582 63.2733C33.088 63.5801 33.1434 63.4637 32.9069 63.7145C32.5037 63.8193 32.2016 63.9905 31.8909 63.6686C31.7862 63.3534 31.8903 62.9173 31.9419 62.5762Z" fill="#5D8B42"/>
<path d="M26.9857 61.7241C27.7592 61.6902 28.5342 61.727 29.301 61.8338C30.3737 62.7084 30.6345 63.1532 29.6678 64.3122C29.1716 64.9073 30.575 65.7035 30.2447 66.1892C29.9495 66.2992 29.5919 66.2673 29.2719 66.261C28.9589 65.8701 28.4803 64.8276 28.1644 64.5918L28.0209 64.6764C27.8918 64.9719 27.9207 65.702 27.8792 66.1005C27.6677 66.3369 27.77 66.2789 27.495 66.3607C27.1848 66.3088 26.8831 66.0082 26.9017 65.7161C26.9826 64.4441 26.8675 62.97 26.9857 61.7241Z" fill="white"/>
<path d="M28.0942 62.5724C28.8702 62.5625 29.5525 63.0064 28.9429 63.7894C27.8728 63.8301 27.5726 63.6386 28.0942 62.5724Z" fill="#5D8B42"/>
<path d="M35.7279 61.7517C35.9923 61.7492 37.3134 61.7003 37.4319 61.8872C38.0342 62.837 36.3249 62.7035 35.9637 62.7138C35.749 62.8502 35.7892 62.87 35.6599 63.1317C35.7805 63.774 36.644 63.2252 37.1855 63.7792C37.2741 64.0725 37.2775 63.9598 37.211 64.2278C36.9289 64.4774 35.2325 64.1134 35.8017 65.2555L36.0442 65.3091C36.5855 65.3028 37.3504 65.1517 37.6234 65.6606C37.6173 65.8941 37.6246 65.9427 37.5017 66.1379C37.0127 66.3785 35.3749 66.2713 34.757 66.2572C34.6756 65.6217 34.5593 62.3507 34.8553 61.8935C35.0992 61.7322 35.4289 61.7585 35.7279 61.7517Z" fill="white"/>
<path d="M19.6152 61.3276C20.2959 61.3049 21.4217 61.5435 21.533 62.3399C21.4727 62.5772 21.26 62.6768 21.0525 62.8127C18.429 61.1399 18.118 65.4944 20.2487 65.0429C20.5516 64.9787 20.7378 64.7035 21.201 64.7219C21.4194 64.9802 21.5118 65.0703 21.5212 65.3766C21.3602 65.6919 20.8886 65.9611 20.5615 66.0694C19.3491 66.4709 18.1863 65.3785 17.8605 64.2863C17.6866 63.6893 17.7587 63.0476 18.0608 62.5043C18.392 61.8991 18.9639 61.5162 19.6152 61.3276Z" fill="white"/>
<path d="M39.9549 61.5676C40.6354 61.5114 41.9946 61.915 41.5712 62.8469C40.9923 63.152 40.0879 61.9741 39.235 63.0277C38.7733 63.598 38.7927 64.5863 39.2883 65.0759C39.6204 65.404 40.9546 65.0643 41.3861 64.9896C42.2706 65.9399 40.6235 66.4388 39.8608 66.3067C38.8616 66.1335 38.6923 65.8826 38.0965 65.1266C37.8509 63.3123 37.9722 62.1703 39.9549 61.5676Z" fill="white"/>
<path d="M43.6051 61.5962C44.1989 61.5576 45.1211 61.399 45.4777 62.0244C45.3804 62.5967 44.6729 62.5137 44.2217 62.5065C44.1071 63.3606 44.3429 65.7821 43.8859 66.2356C43.6384 66.2136 43.5472 66.2091 43.3018 66.1317C43.0001 65.7555 43.0824 63.2311 43.0771 62.5756C42.6513 62.6089 41.951 62.6837 41.7334 62.1966C41.8937 61.5774 43.1283 61.6092 43.6051 61.5962Z" fill="white"/>
<path d="M45.8049 61.4752C46.148 61.4623 46.2858 61.4623 46.6243 61.5076C46.8414 61.824 46.705 63.9109 46.6904 64.4228C46.5109 64.4463 46.1211 64.5085 46.013 64.3478C45.5823 63.7081 45.787 62.2218 45.8049 61.4752Z" fill="white"/>
<path d="M46.1947 65.0119C46.5041 64.96 46.7984 65.1649 46.857 65.4731C46.9156 65.7813 46.7172 66.0799 46.4102 66.1451C46.2057 66.1887 45.9937 66.1181 45.8561 65.9607C45.7184 65.8034 45.6767 65.5838 45.747 65.3869C45.8173 65.1901 45.9885 65.0466 46.1947 65.0119Z" fill="white"/>
<path d="M48.6122 4.66963C51.1883 3.04914 53.5999 2.41633 56.6215 3.09123C62.2705 4.35294 66.1025 10.113 64.7317 15.8028C64.2223 17.9171 63.5026 18.902 62.2084 20.6294C61.8011 20.8158 61.6404 21.0893 61.5183 21.1424C60.1902 22.3856 60.3195 22.0396 58.9082 22.894C57.1758 23.6053 55.8819 24.0184 53.9825 24.0068C52.8999 24.0002 50.7502 22.9066 50.11 23.2602L49.9845 23.1161C49.7476 23.2975 49.4957 23.4827 49.2771 23.6842C48.7037 23.9935 48.1797 24.3341 47.5237 24.3586L47.3175 24.5497L47.0746 24.4961C47.1887 24.2019 47.1968 24.1637 47.1599 23.851L47.2665 23.1425L46.5843 23.2254C46.5933 23.196 46.6024 23.1666 46.6115 23.1371C46.6295 22.5243 46.9639 22.0357 47.0586 21.4074L47.0497 20.8732C46.8255 20.4694 46.0252 19.5444 45.6823 19.1378C44.8059 18.0987 44.5265 17.0129 44.0802 15.7373C43.9862 15.0331 44.0282 12.8698 43.8042 12.5315C43.977 12.1909 44.1409 11.937 43.9603 11.5601C43.9318 10.6445 45.1487 8.33472 45.6252 7.48777C45.7722 7.3484 45.8839 7.16669 46.0001 6.99825C46.6878 6.0803 47.0758 5.79476 47.9614 5.07241L48.1886 5.1407C48.4835 5.03424 48.4281 5.01698 48.6122 4.66963Z" fill="white"/>
<path d="M48.6122 4.66963C51.1883 3.04914 53.5999 2.41633 56.6215 3.09123C62.2705 4.35294 66.1025 10.113 64.7317 15.8028C64.2223 17.9171 63.5026 18.902 62.2084 20.6294C61.8011 20.8158 61.6404 21.0893 61.5183 21.1424C60.1902 22.3856 60.3195 22.0396 58.9082 22.894C57.1758 23.6053 55.8819 24.0184 53.9825 24.0068C52.8999 24.0002 50.7502 22.9066 50.11 23.2602L49.9845 23.1161C50.3159 22.8353 50.3961 22.748 50.5282 22.3416L50.0707 22.25C50.5016 21.4378 51.2321 22.1502 52.0019 22.314C59.2734 23.8621 65.6046 16.9603 62.9821 9.84043C62.6402 9.3156 62.4161 8.70444 62.4966 8.0749C60.9469 5.81976 58.5659 4.27148 55.876 3.76965C53.3818 3.31287 50.7631 4.10503 48.7135 5.52744C43.9368 8.84245 43.1778 15.9258 47.3978 19.984C47.3599 20.41 47.3818 20.9108 47.1667 21.2457L47.1339 21.2977C47.1088 21.3342 47.0837 21.3708 47.0586 21.4074L47.0497 20.8732C46.8255 20.4694 46.0252 19.5444 45.6823 19.1378C44.8059 18.0987 44.5265 17.0129 44.0802 15.7373C43.9862 15.0331 44.0282 12.8698 43.8042 12.5315C43.977 12.1909 44.1409 11.937 43.9603 11.5601C43.9318 10.6445 45.1487 8.33472 45.6252 7.48777C45.7722 7.3484 45.8839 7.16669 46.0001 6.99825C46.6878 6.0803 47.0758 5.79476 47.9614 5.07241L48.1886 5.1407C48.4835 5.03424 48.4281 5.01698 48.6122 4.66963Z" fill="#3D6F2D"/>
<path d="M62.4966 8.07422C62.8101 8.54953 62.9557 8.81422 63.2056 9.32714C64.3009 11.5836 64.6661 13.9574 63.83 16.3817C62.9199 18.941 61.0389 21.0392 58.5938 22.2224C56.5278 23.2144 53.7711 23.4798 51.577 22.7348C51.2749 22.6322 50.8043 22.4078 50.5283 22.3409L50.0708 22.2493C50.5017 21.4371 51.2322 22.1495 52.002 22.3133C59.2735 23.8615 65.6047 16.9596 62.9822 9.83975C62.6403 9.31492 62.4161 8.70376 62.4966 8.07422Z" fill="#DADBDB"/>
<path d="M50.0709 22.25L50.5284 22.3416C50.3962 22.7481 50.3161 22.8353 49.9846 23.1161C49.7477 23.2976 49.4958 23.4827 49.2772 23.6842C48.7038 23.9936 48.1798 24.3341 47.5238 24.3587L47.3177 24.5497L47.0747 24.4961C47.1888 24.202 47.197 24.1637 47.16 23.851C47.9364 23.5972 49.3826 22.7209 50.0709 22.25Z" fill="#477041"/>
<path d="M47.398 19.9844C47.6948 20.2824 47.7939 20.3619 48.1473 20.5901C47.7309 21.3772 47.3692 22.2501 47.2666 23.1429L46.5845 23.2258C46.5935 23.1964 46.6025 23.167 46.6116 23.1375C46.6297 22.5247 46.9641 22.0361 47.0587 21.4078C47.0838 21.3712 47.109 21.3347 47.1341 21.2981L47.1669 21.2461C47.382 20.9112 47.3601 20.4104 47.398 19.9844Z" fill="#477041"/>
<path d="M58.193 9.00662C59.0272 8.94017 60.3264 9.78112 60.1859 10.6815C59.9837 10.9902 58.093 13.0961 57.7168 13.4786C56.5586 14.6557 54.5202 17.429 53.33 18.287C52.6082 18.2569 51.1511 16.6374 50.5602 16.0888C48.9921 14.6003 47.581 13.44 50.3098 12.054C51.1716 12.4041 52.5354 13.78 53.0502 14.5543C53.9718 13.4047 57.0554 9.56076 58.193 9.00662Z" fill="#5D8B42"/>
</svg>
