<svg width="261" height="191" viewBox="0 0 261 191" fill="none" xmlns="http://www.w3.org/2000/svg">
<g filter="url(#filter0_f_1574_6780)">
<ellipse cx="139.242" cy="162.045" rx="61.6114" ry="8.62559" fill="#5E3E99" fill-opacity="0.46"/>
</g>
<path fill-rule="evenodd" clip-rule="evenodd" d="M9.24104 35.126C9.44185 35.126 9.63718 35.1915 9.79748 35.3124C9.95778 35.4334 10.0743 35.6032 10.1295 35.7963L11.1313 39.3032C11.347 40.0585 11.7516 40.7463 12.307 41.3017C12.8624 41.8571 13.5502 42.2617 14.3055 42.4774L17.8124 43.4792C18.0054 43.5345 18.1751 43.6511 18.2959 43.8114C18.4167 43.9717 18.4821 44.167 18.4821 44.3677C18.4821 44.5684 18.4167 44.7637 18.2959 44.924C18.1751 45.0842 18.0054 45.2008 17.8124 45.2561L14.3055 46.2579C13.5502 46.4736 12.8624 46.8783 12.307 47.4337C11.7516 47.9891 11.347 48.6769 11.1313 49.4321L10.1295 52.9391C10.0742 53.132 9.9576 53.3017 9.79732 53.4226C9.63703 53.5434 9.44176 53.6087 9.24104 53.6087C9.04032 53.6087 8.84505 53.5434 8.68476 53.4226C8.52448 53.3017 8.40788 53.132 8.3526 52.9391L7.3508 49.4321C7.1351 48.6769 6.73044 47.9891 6.17505 47.4337C5.61965 46.8783 4.93184 46.4736 4.17659 46.2579L0.669666 45.2561C0.476705 45.2008 0.306986 45.0842 0.186168 44.924C0.0653492 44.7637 0 44.5684 0 44.3677C0 44.167 0.0653492 43.9717 0.186168 43.8114C0.306986 43.6511 0.476705 43.5345 0.669666 43.4792L4.17659 42.4774C4.93184 42.2617 5.61965 41.8571 6.17505 41.3017C6.73044 40.7463 7.1351 40.0585 7.3508 39.3032L8.3526 35.7963C8.40776 35.6032 8.5243 35.4334 8.6846 35.3124C8.8449 35.1915 9.04023 35.126 9.24104 35.126Z" fill="#FFE031"/>
<path fill-rule="evenodd" clip-rule="evenodd" d="M30.1886 11.7129C30.4429 11.7129 30.6904 11.7958 30.8934 11.9491C31.0965 12.1023 31.2441 12.3174 31.314 12.562L32.583 17.0044C32.8562 17.9611 33.3688 18.8323 34.0724 19.5359C34.7759 20.2394 35.6472 20.752 36.6039 21.0253L41.0462 22.2943C41.2906 22.3643 41.5056 22.512 41.6587 22.715C41.8117 22.9181 41.8945 23.1654 41.8945 23.4197C41.8945 23.6739 41.8117 23.9213 41.6587 24.1243C41.5056 24.3274 41.2906 24.4751 41.0462 24.5451L36.6039 25.8141C35.6472 26.0873 34.7759 26.5999 34.0724 27.3035C33.3688 28.007 32.8562 28.8783 32.583 29.835L31.314 34.2773C31.2439 34.5218 31.0963 34.7368 30.8932 34.8898C30.6902 35.0429 30.4428 35.1256 30.1886 35.1256C29.9343 35.1256 29.6869 35.0429 29.4839 34.8898C29.2809 34.7368 29.1332 34.5218 29.0631 34.2773L27.7941 29.835C27.5209 28.8783 27.0083 28.007 26.3048 27.3035C25.6012 26.5999 24.7299 26.0873 23.7732 25.8141L19.3309 24.5451C19.0865 24.4751 18.8715 24.3274 18.7184 24.1243C18.5654 23.9213 18.4826 23.6739 18.4826 23.4197C18.4826 23.1654 18.5654 22.9181 18.7184 22.715C18.8715 22.512 19.0865 22.3643 19.3309 22.2943L23.7732 21.0253C24.7299 20.752 25.6012 20.2394 26.3048 19.5359C27.0083 18.8323 27.5209 17.9611 27.7941 17.0044L29.0631 12.562C29.133 12.3174 29.2806 12.1023 29.4837 11.9491C29.6868 11.7958 29.9342 11.7129 30.1886 11.7129Z" fill="#FFE031"/>
<path fill-rule="evenodd" clip-rule="evenodd" d="M248.294 41.2866C248.548 41.2867 248.796 41.3696 248.999 41.5228C249.202 41.676 249.35 41.8912 249.419 42.1358L250.688 46.5781C250.962 47.5348 251.474 48.4061 252.178 49.1096C252.881 49.8132 253.753 50.3257 254.709 50.599L259.152 51.868C259.396 51.938 259.611 52.0857 259.764 52.2888C259.917 52.4918 260 52.7392 260 52.9934C260 53.2477 259.917 53.495 259.764 53.6981C259.611 53.9011 259.396 54.0488 259.152 54.1188L254.709 55.3878C253.753 55.6611 252.881 56.1737 252.178 56.8772C251.474 57.5808 250.962 58.452 250.688 59.4087L249.419 63.8511C249.349 64.0955 249.202 64.3105 248.999 64.4635C248.796 64.6166 248.548 64.6994 248.294 64.6994C248.04 64.6994 247.792 64.6166 247.589 64.4635C247.386 64.3105 247.239 64.0955 247.169 63.8511L245.9 59.4087C245.626 58.452 245.114 57.5808 244.41 56.8772C243.707 56.1737 242.835 55.6611 241.879 55.3878L237.436 54.1188C237.192 54.0488 236.977 53.9011 236.824 53.6981C236.671 53.495 236.588 53.2477 236.588 52.9934C236.588 52.7392 236.671 52.4918 236.824 52.2888C236.977 52.0857 237.192 51.938 237.436 51.868L241.879 50.599C242.835 50.3257 243.707 49.8132 244.41 49.1096C245.114 48.4061 245.626 47.5348 245.9 46.5781L247.169 42.1358C247.239 41.8912 247.386 41.676 247.589 41.5228C247.792 41.3696 248.04 41.2867 248.294 41.2866Z" fill="#FFE031"/>
<g filter="url(#filter1_i_1574_6780)">
<path d="M80.9859 1.94769C87.7632 2.46901 101.317 17.3496 107.189 26.0924C107.24 26.0668 107.29 26.0416 107.34 26.0169C108.513 25.4353 109.326 25.0847 109.326 25.0847C102.872 15.3524 85.7612 -0.753047 80.3698 0.717116C76.0164 1.90422 68.0556 31.5193 66.87 50.0027C66.4256 56.9312 66.4256 63.5572 66.4256 63.5572C70.3176 56.0351 75.1621 50.0063 78.687 46.1441C75.4409 38.2984 76.0715 1.56965 80.9859 1.94769Z" fill="black"/>
<path d="M107.189 26.0924C107.189 26.0924 109.056 29.0548 109.943 28.4387C110.831 27.8226 109.326 25.0847 109.326 25.0847C109.326 25.0847 108.513 25.4353 107.34 26.0169L107.189 26.0924Z" fill="black"/>
<path d="M210.369 38.2987C209.977 23.8087 205.097 0.715501 201.128 0.715457C191.405 0.715352 175.439 18.3411 171.555 22.8956L170.322 24.3032C171.006 24.5837 171.667 24.8716 172.3 25.1663C172.726 24.5949 173.166 24.0261 173.6 23.5117C181.412 14.27 194.836 2.12715 200.512 2.5638C204.825 2.89555 205.441 40.1467 201.128 47.3522C204.441 51.1845 207.603 55.5466 210.369 60.4785C210.369 60.4785 210.761 52.7887 210.369 38.2987Z" fill="black"/>
<path d="M170.322 24.3032C170.322 24.3032 167.098 29.0567 169.09 29.0567C169.462 29.0567 170.335 27.857 171.387 26.4106C171.679 26.0081 171.986 25.5865 172.3 25.1663C171.667 24.8716 171.006 24.5837 170.322 24.3032Z" fill="black"/>
<path d="M142.597 18.5828C127.81 18.5828 119.184 20.7719 109.326 25.0847C109.326 25.0847 110.831 27.8226 109.943 28.4387C109.056 29.0548 107.189 26.0924 107.189 26.0924C101.317 17.3496 87.7632 2.46901 80.9859 1.94769C76.0715 1.56965 75.4409 38.2984 78.687 46.1441C75.1621 50.0063 70.3176 56.0351 66.4256 63.5572C64.2993 67.6669 62.4572 72.2223 61.2701 77.1136C54.3034 105.819 64.7746 130.825 88.3791 148.583C104.889 161.004 123.498 162.137 139.517 162.137C148.759 162.137 173.143 161.521 191.445 147.96C228.853 120.242 217.063 77.4164 214.682 70.9527C214.393 70.1683 214.125 69.4197 213.866 68.6978C212.801 65.7252 211.897 63.203 210.369 60.4785C207.603 55.5466 204.441 51.1845 201.128 47.3522C205.441 40.1467 204.825 2.89555 200.512 2.5638C194.836 2.12715 181.412 14.27 173.6 23.5117C173.166 24.0261 172.726 24.5949 172.3 25.1663C171.986 25.5865 171.679 26.0081 171.387 26.4106C170.335 27.857 169.462 29.0567 169.09 29.0567C167.098 29.0567 170.322 24.3032 170.322 24.3032C162.007 20.8919 150.261 18.5828 142.597 18.5828Z" fill="#A289CB"/>
</g>
<path d="M177.716 28.4406C176.353 27.2865 174.49 26.1858 172.3 25.1663M109.326 25.0847C119.184 20.7719 127.81 18.5828 142.597 18.5828C150.261 18.5828 162.007 20.8919 170.322 24.3032M109.326 25.0847C102.872 15.3524 85.7612 -0.753047 80.3698 0.717116C76.0164 1.90422 68.0556 31.5193 66.87 50.0027C66.4256 56.9312 66.4256 63.5572 66.4256 63.5572M109.326 25.0847C109.326 25.0847 110.831 27.8226 109.943 28.4387C109.056 29.0548 107.189 26.0924 107.189 26.0924M107.189 26.0924C107.24 26.0668 107.29 26.0416 107.34 26.0169C108.513 25.4353 109.326 25.0847 109.326 25.0847M210.369 60.4785C210.369 60.4785 210.761 52.7887 210.369 38.2987C209.977 23.8087 205.097 0.715501 201.128 0.715458C191.405 0.715352 175.439 18.3411 171.555 22.8956L170.322 24.3032M83.45 41.379C83.45 41.379 81.4839 43.0795 78.687 46.1441C75.1621 50.0063 70.3176 56.0351 66.4256 63.5572C64.2993 67.6669 62.4572 72.2222 61.2701 77.1136C54.3034 105.819 64.7746 130.825 88.3791 148.583C104.889 161.004 123.498 162.137 139.517 162.137C148.759 162.137 173.143 161.521 191.445 147.96C228.853 120.242 217.063 77.4163 214.682 70.9527C214.393 70.1683 214.125 69.4197 213.866 68.6978C212.801 65.7252 211.897 63.203 210.369 60.4785C207.603 55.5466 204.441 51.1845 201.128 47.3522C199.912 45.9452 198.676 44.6097 197.431 43.3436M101.317 29.6728C103.146 28.21 105.627 26.8668 107.34 26.0169M170.322 24.3032C170.322 24.3032 167.098 29.0567 169.09 29.0567C169.462 29.0567 170.335 27.857 171.387 26.4106C171.679 26.0081 171.986 25.5865 172.3 25.1663M170.322 24.3032C171.006 24.5837 171.667 24.8716 172.3 25.1663M201.128 47.3522C205.441 40.1467 204.825 2.89555 200.512 2.5638C194.836 2.12715 181.412 14.27 173.6 23.5117C173.166 24.0261 172.726 24.5949 172.3 25.1663M107.189 26.0924C101.317 17.3496 87.7632 2.46901 80.9859 1.94768C76.0715 1.56965 75.4409 38.2984 78.687 46.1441M107.189 26.0924L107.34 26.0169" stroke="#1C1135" stroke-width="1.24645" stroke-linecap="round"/>
<path d="M190.871 32.5888C196.896 37.8434 199.699 38.8627 200.781 40.2202C204.578 33.2344 203.852 3.19789 200.029 2.89057C194.997 2.48607 182.052 14.2915 175.16 23.2588C174.777 23.758 175.536 22.7046 175.16 23.2588C175.16 23.2588 184.846 27.3342 190.871 32.5888Z" fill="url(#paint0_linear_1574_6780)"/>
<path d="M89.3587 32.4607C83.6957 37.8031 79.2642 39.9067 78.2465 41.2867C76.3981 35.7417 77.0143 2.60481 80.761 2.2779C85.0237 1.90598 97.6511 13.8609 104.124 22.9734C104.484 23.4806 103.771 22.4101 104.124 22.9734C104.124 22.9734 95.0217 27.1183 89.3587 32.4607Z" fill="url(#paint1_linear_1574_6780)"/>
<path d="M18.6922 97.4669C14.3794 100.948 12.5311 102.396 8.83445 106.709C9.8368 107.21 12.3393 106.01 14.9956 106.092C17.9213 106.183 19.8356 106.478 22.3889 107.325C26.6979 108.754 28.712 110.637 32.2467 113.486C36.3555 116.797 40.2564 122.727 41.4885 123.344C41.2479 117.328 41.133 118.154 40.8724 112.14C40.6636 109.562 40.5184 101.542 40.8724 97.4669C41.2319 93.3289 42.7207 88.8413 42.7207 87.609C42.7207 86.6985 41.7969 83.9123 40.2563 83.9123C39.024 83.9123 33.4794 86.6375 29.7823 88.8412C24.9044 91.7487 23.2245 93.8086 18.6922 97.4669Z" fill="#A974D2"/>
<path d="M53.1946 95.0024C48.2657 91.9218 47.6496 88.8413 46.4174 88.8412C45.1853 88.8412 44.1355 94.0053 43.128 97.4669C41.508 103.033 41.2797 107.097 40.8724 112.14C41.133 118.154 41.2479 117.328 41.4885 123.344C42.7207 123.96 46.8608 119.975 50.7301 119.031C55.4052 117.891 58.2891 118.347 63.0524 119.031C68.0255 119.745 75.3747 123.344 75.3747 123.344C75.3747 123.344 69.4811 116.616 66.7491 111.637C64.2556 107.094 61.8203 99.3152 61.8203 99.3152C61.8203 99.3152 56.3024 96.9448 53.1946 95.0024Z" fill="#A974D2"/>
<path d="M58.7397 88.2251C58.7397 88.2251 53.5753 85.6872 50.7302 82.6803C47.978 79.7715 45.1852 74.0548 43.3369 73.4386C41.4923 72.8236 37.1593 74.8218 33.5014 76.5087L33.479 76.519C26.7909 79.6033 21.7729 83.9124 17.4601 88.8412C11.9967 95.085 7.60214 106.092 8.83445 106.709C12.5311 102.396 14.3794 100.948 18.6922 97.4669C23.2245 93.8086 24.9044 91.7487 29.7823 88.8412C33.4794 86.6375 39.024 83.9123 40.2563 83.9123C41.7969 83.9123 42.7207 86.6985 42.7207 87.609C42.7207 88.8413 41.2319 93.3289 40.8724 97.4669C40.5184 101.542 40.6636 109.562 40.8724 112.14C41.2797 107.097 41.508 103.033 43.128 97.4669C44.1355 94.0053 45.1853 88.8412 46.4174 88.8412C47.6496 88.8413 48.2657 91.9218 53.1946 95.0024C56.3024 96.9448 61.8203 99.3152 61.8203 99.3152L58.7397 88.2251Z" fill="#43277B"/>
<path d="M33.4791 76.519C26.7909 79.6033 21.7729 83.9124 17.4601 88.8412C11.9967 95.085 7.60214 106.092 8.83445 106.709M33.4791 76.519L33.5014 76.5087M61.8203 99.3152L58.7397 88.2251C58.7397 88.2251 53.5753 85.6872 50.7302 82.6803C47.978 79.7715 45.1852 74.0548 43.3369 73.4386C41.4923 72.8236 37.1593 74.8218 33.5014 76.5087C33.494 76.5121 33.4865 76.5156 33.4791 76.519M8.83445 106.709C12.5311 102.396 14.3794 100.948 18.6922 97.4669C23.2245 93.8086 24.9044 91.7487 29.7823 88.8412C33.4794 86.6375 39.024 83.9123 40.2563 83.9123C41.7969 83.9123 42.7207 86.6985 42.7207 87.609C42.7207 88.8413 41.2319 93.3289 40.8724 97.4669C40.5184 101.542 40.6636 109.562 40.8724 112.14M8.83445 106.709C9.8368 107.21 12.3393 106.01 14.9956 106.092C17.9213 106.183 19.8356 106.478 22.3889 107.325C26.6979 108.754 28.712 110.637 32.2467 113.486C36.3555 116.797 40.2564 122.727 41.4885 123.344M40.8724 112.14C41.133 118.154 41.2479 117.328 41.4885 123.344M40.8724 112.14C41.2797 107.097 41.508 103.033 43.128 97.4669C44.1355 94.0053 45.1853 88.8412 46.4174 88.8412C47.6496 88.8413 48.2657 91.9218 53.1946 95.0024C56.3024 96.9448 61.8203 99.3152 61.8203 99.3152M61.8203 99.3152C61.8203 99.3152 64.2556 107.094 66.7491 111.637C69.4811 116.616 75.3747 123.344 75.3747 123.344C75.3747 123.344 68.0255 119.745 63.0524 119.031C58.2891 118.347 55.4052 117.891 50.7301 119.031C46.8608 119.975 42.7207 123.96 41.4885 123.344" stroke="#0D0C12" stroke-width="1.24645" stroke-linecap="round"/>
<path d="M223.858 82.6801C221.551 85.2038 217.081 88.225 217.081 88.225L215.233 97.4664C215.233 97.4664 218.188 95.8831 220.161 94.3858C222.059 92.9463 224.474 90.0726 225.09 90.073C226.939 90.0743 228.787 103.011 228.787 108.556C228.787 100.376 228.787 87.609 228.787 87.609C228.787 86.0684 229.79 84.0414 231.251 84.5284C234.948 85.7602 238.324 87.7842 242.958 91.3056C246.347 93.8814 248.584 95.6785 251.583 98.699C254.343 101.478 256.512 104.244 258.977 106.709C261.441 106.092 255.941 95.008 251.583 88.8412C249.406 85.7603 244.19 80.6359 240.493 78.3672C236.341 75.819 231.868 73.4379 229.403 74.0545C227.444 74.5447 226.56 79.7247 223.858 82.6801Z" fill="#442679"/>
<path d="M242.958 91.3056C238.324 87.7842 234.948 85.7602 231.251 84.5284C229.79 84.0414 228.787 86.0684 228.787 87.609C228.787 87.609 228.787 100.376 228.787 108.556C228.787 114.717 228.171 119.031 227.555 123.959C230.635 119.03 234.552 114.718 238.029 112.253C239.877 110.943 243.338 108.448 247.27 107.324C251.583 106.092 255.28 106.092 258.977 106.709C256.512 104.244 254.343 101.478 251.583 98.699C248.584 95.6785 246.347 93.8814 242.958 91.3056Z" fill="#AA74D2"/>
<path d="M228.787 108.556C228.787 103.011 226.939 90.0743 225.09 90.073C224.474 90.0726 222.059 92.9463 220.161 94.3858C218.188 95.8831 215.233 97.4664 215.233 97.4664L213.384 103.011C212.157 106.692 211.031 108.289 209.071 111.637C206.946 115.27 203.526 120.879 203.526 120.879C203.526 120.879 211.801 118.217 217.081 119.031C221.453 119.704 224.474 121.495 227.555 123.959C228.171 119.031 228.787 114.717 228.787 108.556Z" fill="#AA74D2"/>
<path d="M213.384 103.011C212.157 106.692 211.031 108.289 209.071 111.637C206.946 115.27 203.526 120.879 203.526 120.879C203.526 120.879 211.801 118.217 217.081 119.031C221.453 119.704 224.474 121.495 227.555 123.959C230.635 119.03 234.552 114.718 238.029 112.253C239.877 110.943 243.338 108.448 247.27 107.324C251.583 106.092 255.28 106.092 258.977 106.709C261.441 106.092 255.941 95.008 251.583 88.8412C249.406 85.7603 244.19 80.6359 240.493 78.3672C236.341 75.819 231.868 73.4379 229.403 74.0545C227.444 74.5447 226.56 79.7247 223.858 82.6801C221.551 85.2038 217.081 88.225 217.081 88.225L215.233 97.4664M258.977 106.709C256.512 104.244 254.343 101.478 251.583 98.699C248.584 95.6785 246.347 93.8814 242.958 91.3056C238.324 87.7842 234.948 85.7602 231.251 84.5284C229.79 84.0414 228.787 86.0684 228.787 87.609M228.787 87.609C228.787 93.7697 228.787 102.396 228.787 108.556M228.787 87.609C228.787 87.609 228.787 100.376 228.787 108.556M228.787 108.556C228.787 103.011 226.939 90.0743 225.09 90.073C224.474 90.0726 222.059 92.9463 220.161 94.3858C218.188 95.8831 215.233 97.4664 215.233 97.4664M228.787 108.556C228.787 114.717 228.171 119.031 227.555 123.959M215.233 97.4664C215.233 97.4664 214.16 100.684 213.384 103.011M215.233 97.4664L213.384 103.011" stroke="#0D0C12" stroke-width="1.24645" stroke-linecap="round"/>
<path d="M18.6922 97.4669C14.3794 100.948 12.5311 102.396 8.83445 106.709C9.8368 107.21 12.3393 106.01 14.9956 106.092C17.9213 106.183 19.8356 106.478 22.3889 107.325C26.6979 108.754 28.712 110.637 32.2467 113.486C36.3555 116.797 40.2564 122.727 41.4885 123.344C41.2479 117.328 41.133 118.154 40.8724 112.14C40.6636 109.562 40.5184 101.542 40.8724 97.4669C41.2319 93.3289 42.7207 88.8413 42.7207 87.609C42.7207 86.6985 41.7969 83.9123 40.2563 83.9123C39.024 83.9123 33.4794 86.6375 29.7823 88.8412C24.9044 91.7487 23.2245 93.8086 18.6922 97.4669Z" fill="#A974D2"/>
<path d="M53.1946 95.0024C48.2657 91.9218 47.6496 88.8413 46.4174 88.8412C45.1853 88.8412 44.1355 94.0053 43.128 97.4669C41.508 103.033 41.2797 107.097 40.8724 112.14C41.133 118.154 41.2479 117.328 41.4885 123.344C42.7207 123.96 46.8608 119.975 50.7301 119.031C55.4052 117.891 58.2891 118.347 63.0524 119.031C68.0255 119.745 75.3747 123.344 75.3747 123.344C75.3747 123.344 69.4811 116.616 66.7491 111.637C64.2556 107.094 61.8203 99.3152 61.8203 99.3152C61.8203 99.3152 56.3024 96.9448 53.1946 95.0024Z" fill="#A974D2"/>
<path d="M58.7397 88.2251C58.7397 88.2251 53.5753 85.6872 50.7302 82.6803C47.978 79.7715 45.1852 74.0548 43.3369 73.4386C41.4923 72.8236 37.1593 74.8218 33.5014 76.5087L33.479 76.519C26.7909 79.6033 21.7729 83.9124 17.4601 88.8412C11.9967 95.085 7.60214 106.092 8.83445 106.709C12.5311 102.396 14.3794 100.948 18.6922 97.4669C23.2245 93.8086 24.9044 91.7487 29.7823 88.8412C33.4794 86.6375 39.024 83.9123 40.2563 83.9123C41.7969 83.9123 42.7207 86.6985 42.7207 87.609C42.7207 88.8413 41.2319 93.3289 40.8724 97.4669C40.5184 101.542 40.6636 109.562 40.8724 112.14C41.2797 107.097 41.508 103.033 43.128 97.4669C44.1355 94.0053 45.1853 88.8412 46.4174 88.8412C47.6496 88.8413 48.2657 91.9218 53.1946 95.0024C56.3024 96.9448 61.8203 99.3152 61.8203 99.3152L58.7397 88.2251Z" fill="#43277B"/>
<path d="M33.4791 76.519C26.7909 79.6033 21.7729 83.9124 17.4601 88.8412C11.9967 95.085 7.60214 106.092 8.83445 106.709M33.4791 76.519L33.5014 76.5087M61.8203 99.3152L58.7397 88.2251C58.7397 88.2251 53.5753 85.6872 50.7302 82.6803C47.978 79.7715 45.1852 74.0548 43.3369 73.4386C41.4923 72.8236 37.1593 74.8218 33.5014 76.5087C33.494 76.5121 33.4865 76.5156 33.4791 76.519M8.83445 106.709C12.5311 102.396 14.3794 100.948 18.6922 97.4669C23.2245 93.8086 24.9044 91.7487 29.7823 88.8412C33.4794 86.6375 39.024 83.9123 40.2563 83.9123C41.7969 83.9123 42.7207 86.6985 42.7207 87.609C42.7207 88.8413 41.2319 93.3289 40.8724 97.4669C40.5184 101.542 40.6636 109.562 40.8724 112.14M8.83445 106.709C9.8368 107.21 12.3393 106.01 14.9956 106.092C17.9213 106.183 19.8356 106.478 22.3889 107.325C26.6979 108.754 28.712 110.637 32.2467 113.486C36.3555 116.797 40.2564 122.727 41.4885 123.344M40.8724 112.14C41.133 118.154 41.2479 117.328 41.4885 123.344M40.8724 112.14C41.2797 107.097 41.508 103.033 43.128 97.4669C44.1355 94.0053 45.1853 88.8412 46.4174 88.8412C47.6496 88.8413 48.2657 91.9218 53.1946 95.0024C56.3024 96.9448 61.8203 99.3152 61.8203 99.3152M61.8203 99.3152C61.8203 99.3152 64.2556 107.094 66.7491 111.637C69.4811 116.616 75.3747 123.344 75.3747 123.344C75.3747 123.344 68.0255 119.745 63.0524 119.031C58.2891 118.347 55.4052 117.891 50.7301 119.031C46.8608 119.975 42.7207 123.96 41.4885 123.344" stroke="#0D0C12" stroke-width="1.24645" stroke-linecap="round"/>
<path d="M223.858 82.6801C221.551 85.2038 217.081 88.225 217.081 88.225L215.233 97.4664C215.233 97.4664 218.188 95.8831 220.161 94.3858C222.059 92.9463 224.474 90.0726 225.09 90.073C226.939 90.0743 228.787 103.011 228.787 108.556C228.787 100.376 228.787 87.609 228.787 87.609C228.787 86.0684 229.79 84.0414 231.251 84.5284C234.948 85.7602 238.324 87.7842 242.958 91.3056C246.347 93.8814 248.584 95.6785 251.583 98.699C254.343 101.478 256.512 104.244 258.977 106.709C261.441 106.092 255.941 95.008 251.583 88.8412C249.406 85.7603 244.19 80.6359 240.493 78.3672C236.341 75.819 231.868 73.4379 229.403 74.0545C227.444 74.5447 226.56 79.7247 223.858 82.6801Z" fill="#442679"/>
<path d="M242.958 91.3056C238.324 87.7842 234.948 85.7602 231.251 84.5284C229.79 84.0414 228.787 86.0684 228.787 87.609C228.787 87.609 228.787 100.376 228.787 108.556C228.787 114.717 228.171 119.031 227.555 123.959C230.635 119.03 234.552 114.718 238.029 112.253C239.877 110.943 243.338 108.448 247.27 107.324C251.583 106.092 255.28 106.092 258.977 106.709C256.512 104.244 254.343 101.478 251.583 98.699C248.584 95.6785 246.347 93.8814 242.958 91.3056Z" fill="#AA74D2"/>
<path d="M228.787 108.556C228.787 103.011 226.939 90.0743 225.09 90.073C224.474 90.0726 222.059 92.9463 220.161 94.3858C218.188 95.8831 215.233 97.4664 215.233 97.4664L213.384 103.011C212.157 106.692 211.031 108.289 209.071 111.637C206.946 115.27 203.526 120.879 203.526 120.879C203.526 120.879 211.801 118.217 217.081 119.031C221.453 119.704 224.474 121.495 227.555 123.959C228.171 119.031 228.787 114.717 228.787 108.556Z" fill="#AA74D2"/>
<path d="M213.384 103.011C212.157 106.692 211.031 108.289 209.071 111.637C206.946 115.27 203.526 120.879 203.526 120.879C203.526 120.879 211.801 118.217 217.081 119.031C221.453 119.704 224.474 121.495 227.555 123.959C230.635 119.03 234.552 114.718 238.029 112.253C239.877 110.943 243.338 108.448 247.27 107.324C251.583 106.092 255.28 106.092 258.977 106.709C261.441 106.092 255.941 95.008 251.583 88.8412C249.406 85.7603 244.19 80.6359 240.493 78.3672C236.341 75.819 231.868 73.4379 229.403 74.0545C227.444 74.5447 226.56 79.7247 223.858 82.6801C221.551 85.2038 217.081 88.225 217.081 88.225L215.233 97.4664M258.977 106.709C256.512 104.244 254.343 101.478 251.583 98.699C248.584 95.6785 246.347 93.8814 242.958 91.3056C238.324 87.7842 234.948 85.7602 231.251 84.5284C229.79 84.0414 228.787 86.0684 228.787 87.609M228.787 87.609C228.787 93.7697 228.787 102.396 228.787 108.556M228.787 87.609C228.787 87.609 228.787 100.376 228.787 108.556M228.787 108.556C228.787 103.011 226.939 90.0743 225.09 90.073C224.474 90.0726 222.059 92.9463 220.161 94.3858C218.188 95.8831 215.233 97.4664 215.233 97.4664M228.787 108.556C228.787 114.717 228.171 119.031 227.555 123.959M215.233 97.4664C215.233 97.4664 214.16 100.684 213.384 103.011M215.233 97.4664L213.384 103.011" stroke="#0D0C12" stroke-width="1.24645" stroke-linecap="round"/>
<g filter="url(#filter2_i_1574_6780)">
<path d="M80.9859 1.94769C87.7632 2.46901 101.317 17.3496 107.189 26.0924C107.24 26.0668 107.29 26.0416 107.34 26.0169C108.513 25.4353 109.326 25.0847 109.326 25.0847C102.872 15.3524 85.7612 -0.753047 80.3698 0.717116C76.0164 1.90422 68.0556 31.5193 66.87 50.0027C66.4256 56.9312 66.4256 63.5572 66.4256 63.5572C70.3176 56.0351 75.1621 50.0063 78.687 46.1441C75.4409 38.2984 76.0715 1.56965 80.9859 1.94769Z" fill="black"/>
<path d="M107.189 26.0924C107.189 26.0924 109.056 29.0548 109.943 28.4387C110.831 27.8226 109.326 25.0847 109.326 25.0847C109.326 25.0847 108.513 25.4353 107.34 26.0169L107.189 26.0924Z" fill="black"/>
<path d="M210.369 38.2987C209.977 23.8087 205.097 0.715501 201.128 0.715457C191.405 0.715352 175.439 18.3411 171.555 22.8956L170.322 24.3032C171.006 24.5837 171.667 24.8716 172.3 25.1663C172.726 24.5949 173.166 24.0261 173.6 23.5117C181.412 14.27 194.836 2.12715 200.512 2.5638C204.825 2.89555 205.441 40.1467 201.128 47.3522C204.441 51.1845 207.603 55.5466 210.369 60.4785C210.369 60.4785 210.761 52.7887 210.369 38.2987Z" fill="black"/>
<path d="M170.322 24.3032C170.322 24.3032 167.098 29.0567 169.09 29.0567C169.462 29.0567 170.335 27.857 171.387 26.4106C171.679 26.0081 171.986 25.5865 172.3 25.1663C171.667 24.8716 171.006 24.5837 170.322 24.3032Z" fill="black"/>
<path d="M142.597 18.5828C127.81 18.5828 119.184 20.7719 109.326 25.0847C109.326 25.0847 110.831 27.8226 109.943 28.4387C109.056 29.0548 107.189 26.0924 107.189 26.0924C101.317 17.3496 87.7632 2.46901 80.9859 1.94769C76.0715 1.56965 75.4409 38.2984 78.687 46.1441C75.1621 50.0063 70.3176 56.0351 66.4256 63.5572C64.2993 67.6669 62.4572 72.2223 61.2701 77.1136C54.3034 105.819 64.7746 130.825 88.3791 148.583C104.889 161.004 123.498 162.137 139.517 162.137C148.759 162.137 173.143 161.521 191.445 147.96C228.853 120.242 217.063 77.4164 214.682 70.9527C214.393 70.1683 214.125 69.4197 213.866 68.6978C212.801 65.7252 211.897 63.203 210.369 60.4785C207.603 55.5466 204.441 51.1845 201.128 47.3522C205.441 40.1467 204.825 2.89555 200.512 2.5638C194.836 2.12715 181.412 14.27 173.6 23.5117C173.166 24.0261 172.726 24.5949 172.3 25.1663C171.986 25.5865 171.679 26.0081 171.387 26.4106C170.335 27.857 169.462 29.0567 169.09 29.0567C167.098 29.0567 170.322 24.3032 170.322 24.3032C162.007 20.8919 150.261 18.5828 142.597 18.5828Z" fill="#A289CB"/>
</g>
<path d="M177.716 28.4406C176.353 27.2865 174.49 26.1858 172.3 25.1663M109.326 25.0847C119.184 20.7719 127.81 18.5828 142.597 18.5828C150.261 18.5828 162.007 20.8919 170.322 24.3032M109.326 25.0847C102.872 15.3524 85.7612 -0.753047 80.3698 0.717116C76.0164 1.90422 68.0556 31.5193 66.87 50.0027C66.4256 56.9312 66.4256 63.5572 66.4256 63.5572M109.326 25.0847C109.326 25.0847 110.831 27.8226 109.943 28.4387C109.056 29.0548 107.189 26.0924 107.189 26.0924M107.189 26.0924C107.24 26.0668 107.29 26.0416 107.34 26.0169C108.513 25.4353 109.326 25.0847 109.326 25.0847M210.369 60.4785C210.369 60.4785 210.761 52.7887 210.369 38.2987C209.977 23.8087 205.097 0.715501 201.128 0.715458C191.405 0.715352 175.439 18.3411 171.555 22.8956L170.322 24.3032M83.45 41.379C83.45 41.379 81.4839 43.0795 78.687 46.1441C75.1621 50.0063 70.3176 56.0351 66.4256 63.5572C64.2993 67.6669 62.4572 72.2222 61.2701 77.1136C54.3034 105.819 64.7746 130.825 88.3791 148.583C104.889 161.004 123.498 162.137 139.517 162.137C148.759 162.137 173.143 161.521 191.445 147.96C228.853 120.242 217.063 77.4163 214.682 70.9527C214.393 70.1683 214.125 69.4197 213.866 68.6978C212.801 65.7252 211.897 63.203 210.369 60.4785C207.603 55.5466 204.441 51.1845 201.128 47.3522C199.912 45.9452 198.676 44.6097 197.431 43.3436M101.317 29.6728C103.146 28.21 105.627 26.8668 107.34 26.0169M170.322 24.3032C170.322 24.3032 167.098 29.0567 169.09 29.0567C169.462 29.0567 170.335 27.857 171.387 26.4106C171.679 26.0081 171.986 25.5865 172.3 25.1663M170.322 24.3032C171.006 24.5837 171.667 24.8716 172.3 25.1663M201.128 47.3522C205.441 40.1467 204.825 2.89555 200.512 2.5638C194.836 2.12715 181.412 14.27 173.6 23.5117C173.166 24.0261 172.726 24.5949 172.3 25.1663M107.189 26.0924C101.317 17.3496 87.7632 2.46901 80.9859 1.94768C76.0715 1.56965 75.4409 38.2984 78.687 46.1441M107.189 26.0924L107.34 26.0169" stroke="#1C1135" stroke-width="1.24645" stroke-linecap="round"/>
<path d="M190.871 32.5888C196.896 37.8434 199.699 38.8627 200.781 40.2202C204.578 33.2344 203.852 3.19789 200.029 2.89057C194.997 2.48607 182.052 14.2915 175.16 23.2588C174.777 23.758 175.536 22.7046 175.16 23.2588C175.16 23.2588 184.846 27.3342 190.871 32.5888Z" fill="url(#paint2_linear_1574_6780)"/>
<path d="M89.3587 32.4607C83.6957 37.8031 79.2642 39.9067 78.2465 41.2867C76.3981 35.7417 77.0143 2.60481 80.761 2.2779C85.0237 1.90598 97.6511 13.8609 104.124 22.9734C104.484 23.4806 103.771 22.4101 104.124 22.9734C104.124 22.9734 95.0217 27.1183 89.3587 32.4607Z" fill="url(#paint3_linear_1574_6780)"/>
<path d="M88.6629 53.6179C85.9662 53.9674 86.3018 67.2016 84.6164 69.1615C82.9309 71.1213 71.567 73.892 71.4699 76.5953C71.3727 79.2986 81.7844 83.3534 82.9309 85.3808C84.0775 87.4082 83.1667 98.0797 86.3159 98.8968C89.4652 99.714 95.9035 87.9853 98.0131 87.3505C100.123 86.7158 112.409 92.7417 114.28 90.4998C116.151 88.2579 109.135 79.9744 108.887 77.9469C108.639 75.9195 115.481 67.1341 114.28 65.1066C113.079 63.0792 102.145 65.0151 100.123 64.0929C98.1 63.1707 91.3597 53.2684 88.6629 53.6179Z" fill="#C3AEE6"/>
<g filter="url(#filter3_f_1574_6780)">
<circle cx="190.995" cy="117.685" r="7.39336" fill="#CD91D7"/>
</g>
<g filter="url(#filter4_f_1574_6780)">
<circle cx="88.7204" cy="117.685" r="7.39336" fill="#CD91D7"/>
</g>
<path fill-rule="evenodd" clip-rule="evenodd" d="M138.831 112.478C137.723 111.651 135.984 111.165 136.158 110.06C136.332 108.956 137.849 108.369 139.663 108.403C141.139 108.431 142.802 108.956 142.999 110.06C143.196 111.165 141.55 111.651 140.719 112.478C140.149 116.688 146.729 118.321 147.56 118.345C157.259 118.621 155.296 113.654 156.682 115.583C157.706 117.009 156.895 118.07 154.402 118.897C154.138 120.209 153.535 121.53 152.827 122.552C152.046 123.678 151.137 124.439 150.411 124.42C149.025 124.386 147.703 119.646 147.149 119.646C144.364 119.646 140.217 117.165 139.663 117.165C139.108 117.165 135.429 120.01 132.658 120.01C132.104 120.561 130.425 124.42 129.317 124.42C128.909 124.42 128.541 124.197 128.157 123.736C127.658 123.139 127.131 122.145 126.453 120.724C126.23 120.257 125.991 119.743 125.731 119.183C124.345 118.632 121.534 117.79 123.046 116.136C125.569 113.374 122.168 118.345 131.027 118.345C131.858 118.345 139.579 117.24 138.831 112.478ZM152.827 120.001C152.827 119.448 149.039 119.49 148.836 120.001C148.633 120.511 149.854 123.314 150.547 123.314C151.239 123.314 152.827 120.553 152.827 120.001ZM130.992 120.227C130.397 120.001 128.084 119.786 127.75 120.007C127.346 120.227 128.638 123.314 129.33 123.314C130.023 123.314 131.278 120.336 130.992 120.227Z" fill="black"/>
<path d="M148.836 120.001C149.039 119.49 152.827 119.448 152.827 120.001C152.827 120.553 151.239 123.314 150.547 123.314C149.854 123.314 148.633 120.511 148.836 120.001Z" fill="white"/>
<path d="M127.75 120.007C128.084 119.786 130.397 120.001 130.992 120.227C131.278 120.336 130.023 123.314 129.33 123.314C128.638 123.314 127.346 120.227 127.75 120.007Z" fill="white"/>
<path d="M130.307 131.95C132.005 135.161 135.043 138.048 140.479 138.111C147.06 138.187 150.133 133.627 151.569 129.35C151.569 129.35 148.488 123.94 141.095 123.94C133.702 123.94 130.307 131.95 130.307 131.95Z" fill="#F26C95"/>
<path d="M150.411 124.42C149.025 124.386 147.703 119.646 147.149 119.646C144.364 119.646 140.217 117.165 139.663 117.165C139.108 117.165 135.429 120.01 132.658 120.01C132.104 120.561 130.425 124.42 129.317 124.42C128.909 124.42 128.541 124.197 128.157 123.736C128.157 123.736 128.148 127.866 130.307 131.95C130.307 131.95 133.702 123.94 141.095 123.94C148.488 123.94 151.569 129.35 151.569 129.35C152.827 125.602 152.827 122.552 152.827 122.552C152.046 123.678 151.137 124.439 150.411 124.42Z" fill="#B62C60"/>
<path d="M154.402 118.897C154.138 120.209 153.535 121.53 152.827 122.552C152.827 122.552 152.827 125.602 151.569 129.35C150.133 133.627 147.06 138.187 140.479 138.111C135.043 138.048 132.005 135.161 130.307 131.95C128.148 127.866 128.157 123.736 128.157 123.736C127.658 123.139 127.131 122.145 126.453 120.724C126.453 120.724 126.01 138.96 140.479 139.208C154.948 139.455 154.402 118.897 154.402 118.897Z" fill="black"/>
<path d="M92.4171 102.44C92.4171 102.44 94.8602 94.2726 104.632 94.2725C114.404 94.2723 117.662 101.76 117.662 101.76" stroke="#0D0C12" stroke-width="4.13103" stroke-linecap="round"/>
<path d="M160.822 102.44C160.822 102.44 163.265 94.2726 173.037 94.2725C182.809 94.2723 186.066 101.76 186.066 101.76" stroke="#0D0C12" stroke-width="4.13103" stroke-linecap="round"/>
<defs>
<filter id="filter0_f_1574_6780" x="57.6872" y="133.476" width="163.109" height="57.1372" filterUnits="userSpaceOnUse" color-interpolation-filters="sRGB">
<feFlood flood-opacity="0" result="BackgroundImageFix"/>
<feBlend mode="normal" in="SourceGraphic" in2="BackgroundImageFix" result="shape"/>
<feGaussianBlur stdDeviation="9.97156" result="effect1_foregroundBlur_1574_6780"/>
</filter>
<filter id="filter1_i_1574_6780" x="58.5235" y="-8.72512" width="160.419" height="171.485" filterUnits="userSpaceOnUse" color-interpolation-filters="sRGB">
<feFlood flood-opacity="0" result="BackgroundImageFix"/>
<feBlend mode="normal" in="SourceGraphic" in2="BackgroundImageFix" result="shape"/>
<feColorMatrix in="SourceAlpha" type="matrix" values="0 0 0 0 0 0 0 0 0 0 0 0 0 0 0 0 0 0 127 0" result="hardAlpha"/>
<feOffset dy="-8.72512"/>
<feGaussianBlur stdDeviation="6.23223"/>
<feComposite in2="hardAlpha" operator="arithmetic" k2="-1" k3="1"/>
<feColorMatrix type="matrix" values="0 0 0 0 0.380392 0 0 0 0 0.25098 0 0 0 0 0.607843 0 0 0 0.38 0"/>
<feBlend mode="normal" in2="shape" result="effect1_innerShadow_1574_6780"/>
</filter>
<filter id="filter2_i_1574_6780" x="58.5235" y="-8.72512" width="160.419" height="171.485" filterUnits="userSpaceOnUse" color-interpolation-filters="sRGB">
<feFlood flood-opacity="0" result="BackgroundImageFix"/>
<feBlend mode="normal" in="SourceGraphic" in2="BackgroundImageFix" result="shape"/>
<feColorMatrix in="SourceAlpha" type="matrix" values="0 0 0 0 0 0 0 0 0 0 0 0 0 0 0 0 0 0 127 0" result="hardAlpha"/>
<feOffset dy="-8.72512"/>
<feGaussianBlur stdDeviation="6.23223"/>
<feComposite in2="hardAlpha" operator="arithmetic" k2="-1" k3="1"/>
<feColorMatrix type="matrix" values="0 0 0 0 0.380392 0 0 0 0 0.25098 0 0 0 0 0.607843 0 0 0 0.38 0"/>
<feBlend mode="normal" in2="shape" result="effect1_innerShadow_1574_6780"/>
</filter>
<filter id="filter3_f_1574_6780" x="178.616" y="105.306" width="24.7583" height="24.7582" filterUnits="userSpaceOnUse" color-interpolation-filters="sRGB">
<feFlood flood-opacity="0" result="BackgroundImageFix"/>
<feBlend mode="normal" in="SourceGraphic" in2="BackgroundImageFix" result="shape"/>
<feGaussianBlur stdDeviation="2.49289" result="effect1_foregroundBlur_1574_6780"/>
</filter>
<filter id="filter4_f_1574_6780" x="76.3412" y="105.306" width="24.7583" height="24.7582" filterUnits="userSpaceOnUse" color-interpolation-filters="sRGB">
<feFlood flood-opacity="0" result="BackgroundImageFix"/>
<feBlend mode="normal" in="SourceGraphic" in2="BackgroundImageFix" result="shape"/>
<feGaussianBlur stdDeviation="2.49289" result="effect1_foregroundBlur_1574_6780"/>
</filter>
<linearGradient id="paint0_linear_1574_6780" x1="203.202" y1="0.34582" x2="177.616" y2="40.9912" gradientUnits="userSpaceOnUse">
<stop offset="0.137215" stop-color="#543291"/>
<stop offset="0.401763" stop-color="#A087CA"/>
<stop offset="1" stop-color="#A087CA"/>
</linearGradient>
<linearGradient id="paint1_linear_1574_6780" x1="77.78" y1="-0.307765" x2="104.613" y2="39.0896" gradientUnits="userSpaceOnUse">
<stop offset="0.137215" stop-color="#543291"/>
<stop offset="0.401763" stop-color="#A087CA"/>
<stop offset="1" stop-color="#A087CA"/>
</linearGradient>
<linearGradient id="paint2_linear_1574_6780" x1="203.202" y1="0.34582" x2="177.616" y2="40.9912" gradientUnits="userSpaceOnUse">
<stop offset="0.137215" stop-color="#543291"/>
<stop offset="0.401763" stop-color="#A087CA"/>
<stop offset="1" stop-color="#A087CA"/>
</linearGradient>
<linearGradient id="paint3_linear_1574_6780" x1="77.78" y1="-0.307765" x2="104.613" y2="39.0896" gradientUnits="userSpaceOnUse">
<stop offset="0.137215" stop-color="#543291"/>
<stop offset="0.401763" stop-color="#A087CA"/>
<stop offset="1" stop-color="#A087CA"/>
</linearGradient>
</defs>
</svg>
