<svg width="66" height="70" viewBox="0 0 66 70" fill="none" xmlns="http://www.w3.org/2000/svg">
<path d="M21.8857 2.10527C30.5227 -1.03052 38.7704 -0.652501 47.1482 3.16732C49.1996 4.10264 51.0469 5.46576 52.9259 6.69576C53.3126 6.95264 53.8669 7.78563 54.3349 8.06452L54.4036 7.99362C54.559 6.96698 54.732 4.67847 55.568 4.01364C55.7525 3.86691 56.129 3.70621 56.3671 3.7677C57.4175 4.0387 58.469 4.39943 59.5217 4.67637C61.1385 5.10162 62.7509 5.43129 64.3671 5.84148C64.6713 5.91875 65.1243 6.10784 65.3827 6.27637C65.4951 6.58814 65.4817 7.25254 65.4267 7.59219C65.1497 9.30213 64.7359 10.968 64.3699 12.6749C64.0421 14.204 63.9313 15.9533 63.3588 17.3894C63.1587 17.8913 62.2809 18.3923 61.8035 18.6481C62.2895 19.971 62.8009 21.3039 63.179 22.6602C64.7657 28.4854 64.926 34.6071 63.6464 40.5074C63.2842 42.2177 62.5673 45.0546 61.7877 46.571C60.7175 48.6527 59.7599 51.5555 57.9723 53.0507C58.908 52.9267 62.7639 52.1091 63.3946 52.5445C63.6104 52.6935 63.7032 52.9608 63.7309 53.2109C63.8504 54.2894 62.189 57.8999 61.7377 59.1049C62.1913 60.2559 62.6593 61.3594 63.201 62.4716C63.5836 63.2954 64.2369 64.6221 62.9731 65.0343C61.9631 65.3638 60.8473 65.3822 59.8009 65.5315C59.3075 65.6019 58.7835 65.6429 58.2894 65.6915C58.2544 67.1113 58.3287 67.9637 56.6631 68.2591C54.6972 68.6089 52.6871 68.7263 50.7045 68.9573C45.5168 69.4497 40.0209 69.8988 34.8114 69.9828C31.5281 70.0356 28.244 69.9668 24.9659 69.7764C20.8848 69.5417 16.8081 69.2346 12.7379 68.8552C10.9159 68.685 9.07213 68.5481 7.26464 68.2678C5.57179 68.0049 5.49988 67.225 5.46773 65.7413C-1.7819 64.9008 -0.580719 65.1597 2.01683 59.1165C1.56888 58.2885 0.327668 54.9188 0.136918 53.9966C0.0748746 53.6966 0.0456962 53.3619 0.140213 53.0652C0.215828 52.8278 0.378776 52.6387 0.603572 52.531C1.3005 52.1973 5.34627 52.883 6.23807 53.0552C4.46447 50.8061 3.97693 49.683 2.92241 47.013C0.72663 41.5338 -0.0450044 35.5875 0.679549 29.7293C0.792338 28.7748 1.10271 26.6974 1.39059 25.7927C1.32399 24.8868 3.51018 19.3827 4.01018 18.3163C4.6196 17.0167 5.35098 15.7444 6.23619 14.5913C6.71156 13.9719 7.19592 13.048 7.70098 12.3953C11.3885 7.72154 16.2981 4.15993 21.8857 2.10527Z" fill="black"/>
<path d="M60.9423 18.7115C61.1531 18.5321 61.5669 18.4891 61.8035 18.6482C62.2895 19.9711 62.8009 21.3039 63.1789 22.6603C64.7657 28.4854 64.926 34.6071 63.6464 40.5074C63.2842 42.2178 62.5673 45.0547 61.7877 46.571C60.7175 48.6527 59.7599 51.5555 57.9723 53.0508C58.908 52.9267 62.7639 52.1092 63.3945 52.5446C63.6104 52.6935 63.7032 52.9608 63.7309 53.211C63.8504 54.2894 62.1889 57.8999 61.7377 59.1049C62.1913 60.2559 62.6592 61.3595 63.201 62.4716C63.5836 63.2954 64.2369 64.6221 62.9731 65.0343C61.9631 65.3639 60.8473 65.3823 59.8009 65.5315C59.3075 65.6019 58.7835 65.643 58.2893 65.6916C58.2544 67.1113 58.3287 67.9637 56.6631 68.2592C54.6972 68.609 52.6871 68.7263 50.7045 68.9573C45.5168 69.4498 40.0209 69.8988 34.8114 69.9828C31.5281 70.0357 28.244 69.9669 24.9659 69.7764C20.8848 69.5418 16.8081 69.2347 12.7379 68.8552C10.9159 68.685 9.07213 68.5482 7.26464 68.2679C5.57179 68.005 5.49988 67.225 5.46773 65.7414C-1.7819 64.9009 -0.580719 65.1597 2.01683 59.1166C1.56888 58.2885 0.327668 54.9188 0.136918 53.9966C0.0748746 53.6967 0.0456962 53.3619 0.140213 53.0652C0.215828 52.8278 0.378776 52.6387 0.603572 52.5311C1.3005 52.1973 5.34627 52.8831 6.23807 53.0553C4.46447 50.8062 3.97693 49.6831 2.92241 47.013C0.72663 41.5339 -0.0450044 35.5876 0.679549 29.7294C0.792338 28.7748 1.10271 26.6974 1.39059 25.7928L1.49082 25.7592C1.61053 25.313 1.96862 23.7021 2.26305 23.4807C2.98744 23.984 1.93812 25.9962 2.10795 26.3159C1.03478 30.7416 0.971849 34.5047 1.56221 39.0328C1.66115 39.7915 1.89281 40.452 1.9823 41.0773C2.9248 41.2064 3.80725 41.1522 4.73808 41.2484C4.82672 41.5587 5.08874 42.5758 5.26806 42.7922C5.67268 43.9451 6.2506 45.6481 6.55281 46.8219C6.26624 47.7102 5.82483 49.1618 5.46171 49.9987L5.58041 50.1972L5.76552 50.2419C6.81643 50.1531 8.27637 49.8676 9.08329 50.5542C9.15078 50.611 9.21306 50.6737 9.26941 50.7416L9.33183 50.7142C10.102 52.1143 11.5496 53.5244 12.6088 54.763C13.0173 55.2408 14.1375 56.033 14.4484 56.5958C15.1294 56.826 18.0601 56.9687 18.9287 57.0337C20.547 57.1547 22.3769 57.4098 23.9769 57.4907C31.2107 57.8562 38.3719 57.8145 45.5805 56.9855C46.3781 56.8937 49.3207 56.7557 49.8956 56.5577C50.1059 56.58 50.2481 56.6129 50.4478 56.5353C51.5761 56.4587 53.6627 56.2861 54.7327 56.0372C55.1965 55.6198 55.7216 55.1404 56.0982 54.6577C57.8551 52.406 59.4351 50.2194 60.5198 47.5499C60.915 46.5771 61.4478 45.6225 61.8046 44.5929C63.1166 40.8075 63.7228 36.7946 63.8002 32.7955C63.8141 31.8296 63.6812 30.8276 63.6408 29.8687C63.5215 27.0383 62.9699 24.3229 62.0588 21.6423C61.7872 20.843 61.2808 20.0781 61.0862 19.2569C61.0421 19.071 60.9956 18.897 60.9423 18.7115Z" fill="#3772C0"/>
<path d="M5.76557 50.2411C6.81648 50.1523 8.27642 49.8669 9.08334 50.5535C9.15083 50.6103 9.21312 50.673 9.26946 50.7408L9.33189 50.7135C10.1021 52.1136 11.5496 53.5237 12.6088 54.7623C13.0173 55.2401 14.1375 56.0323 14.4485 56.5951C12.9193 56.5312 11.3661 56.3255 9.80733 56.2623C9.14439 55.5521 5.04599 51.0965 5.76557 50.2411Z" fill="#6EA3DD"/>
<path d="M1.98242 41.0762C2.92492 41.2052 3.80737 41.1511 4.7382 41.2472C4.82685 41.5576 5.08887 42.5746 5.26818 42.791C5.6728 43.9439 6.25072 45.647 6.55294 46.8208C6.26637 47.7091 5.82496 49.1607 5.46184 49.9975C5.29201 49.9462 5.02383 49.4978 4.92983 49.341C3.44968 46.8724 2.67709 43.8575 1.98242 41.0762Z" fill="#5189D0"/>
<path d="M14.7931 62.5151C14.9857 62.2849 15.0904 62.0003 15.2911 61.752C16.2593 60.5545 17.4675 60.5287 18.668 61.4443C19.7428 62.2639 19.8356 63.9699 18.9805 64.9749C18.5877 65.4426 18.019 65.7273 17.4092 65.7614C15.8294 65.8613 14.7352 64.4211 14.6646 62.9697L14.7931 62.5151Z" fill="white"/>
<path d="M16.7115 61.8788C17.2293 61.837 17.448 61.9349 17.9343 62.0954C18.7187 62.8732 18.7546 64.1546 17.6022 64.6062C15.7312 64.9631 15.312 62.8213 16.7115 61.8788Z" fill="#3471BD"/>
<path d="M41.3981 61.1873C42.264 61.0042 43.1608 61.3072 43.738 61.978C44.3153 62.6487 44.4814 63.5806 44.1715 64.4095C43.8615 65.2385 43.1247 65.8327 42.249 65.9601C41.0442 66.1353 39.8962 65.3902 39.5657 64.2184C39.3835 63.5724 39.4771 62.8798 39.8244 62.3053C40.1716 61.731 40.7415 61.3261 41.3981 61.1873Z" fill="white"/>
<path d="M41.63 62.1824C41.8764 62.1756 42.2331 62.2167 42.4608 62.3045C43.1785 62.5811 43.4093 63.4357 43.1302 64.1068C42.8991 64.6626 42.6869 64.7352 42.1739 64.9503C41.4506 65.0868 41.1475 64.8424 40.7238 64.292C40.5814 63.3064 40.6169 62.6075 41.63 62.1824Z" fill="#3471BD"/>
<path d="M45.6034 61.0401C45.8633 61.0102 46.6572 60.967 46.8969 60.998C47.478 61.0676 48.0067 61.3674 48.3647 61.8303C49.2945 63.0442 48.7627 64.5959 47.6075 65.449C46.9367 65.7848 45.6393 65.7639 44.858 65.7884C44.6937 64.6123 44.7391 62.315 44.7721 61.1112L45.6034 61.0401Z" fill="white"/>
<path d="M45.8266 62.0094C46.4645 62.0042 46.8322 61.9277 47.3653 62.3584C47.9555 62.8353 47.8218 63.8607 47.3572 64.3707C46.7421 64.7147 46.5075 64.6971 45.8168 64.7315C45.8032 63.8094 45.7854 62.9314 45.8266 62.0094Z" fill="#3471BD"/>
<path d="M37.7754 61.01C38.032 61.0007 38.5032 60.9401 38.5514 61.2818C38.7433 62.6399 38.8429 64.223 38.6639 65.577C38.6378 65.7747 38.0213 65.7422 37.8235 65.6011C37.63 65.1347 37.6529 63.7222 37.6469 63.1561C37.3307 63.7214 37.021 64.9847 36.326 64.99C35.8312 64.7514 35.3633 63.854 35.0091 63.3489C34.9987 63.6106 35.0377 64.0387 35.0543 64.3122C35.0717 64.8249 35.0517 65.2718 35.0292 65.7845C34.8821 65.7998 34.0917 65.9047 34.0896 65.7386C34.0819 65.0867 33.8955 61.703 34.0841 61.3113C35.1193 60.1115 35.9168 63.142 36.3279 63.3958C36.7353 63.2518 37.3 61.5648 37.7754 61.01Z" fill="white"/>
<path d="M24.5294 61.43C24.82 61.4089 25.2432 61.4302 25.5442 61.4367C25.5718 62.3781 25.1829 65.0169 26.2787 65.2796C26.7511 65.1883 26.9396 64.9427 27.2246 64.5707C27.3625 63.5962 27.1398 62.6288 27.4249 61.7161C27.5209 61.4089 28.0881 61.4109 28.2917 61.5845C28.3942 61.8142 28.3732 62.1943 28.3764 62.4592C28.3815 63.3941 28.4172 64.3243 28.2569 65.245C27.2245 66.5972 25.4884 66.5553 24.5585 65.0949C24.4544 64.0758 24.4382 62.4603 24.5294 61.43Z" fill="white"/>
<path d="M21.8493 61.1595C22.5551 61.1069 23.614 61.2986 23.9159 62.0344C23.9228 62.2267 23.9067 62.2504 23.8093 62.4182C23.3492 62.77 22.4859 62.1599 21.8394 62.2952C21.0359 62.4635 20.9545 63.5764 21.1192 64.1976C21.383 65.1927 22.4077 65.0324 23.1388 64.7269C23.3158 64.6561 23.4419 64.7544 23.5692 64.8358C24.1886 65.2544 23.6781 65.6961 23.2059 65.8561C20.8684 66.6482 19.2521 64.6154 20.0455 62.434C20.2959 61.7453 21.236 61.376 21.8493 61.1595Z" fill="white"/>
<path d="M30.0516 61.4621C30.5241 61.4205 30.7814 61.426 31.2538 61.4454C31.6527 61.6686 32.1423 61.9294 31.9098 62.4739C31.4664 62.8333 31.1825 62.586 30.7606 62.3185C30.481 62.4057 30.304 62.4455 30.0628 62.6107C29.8793 63.0473 30.4143 63.2989 30.7674 63.4055C32.5043 63.9305 32.7884 65.7746 30.8011 66.3036C30.1582 66.2971 29.1594 66.1381 28.7934 65.5346C28.7556 65.2681 28.7408 65.3705 28.8295 65.1339C29.3911 64.7148 30.519 65.5132 31.0232 65.0736C31.0327 64.9694 31.0037 64.7072 30.9246 64.6794C29.4212 64.1494 27.4679 62.472 30.0516 61.4621Z" fill="white"/>
<path d="M49.4298 60.7444C50.3324 60.7083 51.2428 60.5841 52.1405 60.4766C52.2381 62.3565 51.189 61.1243 50.4772 61.6935C50.374 61.9438 50.3975 62.033 50.4204 62.3016C50.6478 62.6001 51.3849 62.2549 51.9394 62.546C52.1796 62.9006 51.9331 63.1513 51.6538 63.4114C51.2721 63.4708 50.8542 63.5562 50.473 63.5258L50.4989 64.1931C50.833 64.745 52.1909 63.7586 52.473 64.6771C52.3866 65.443 50.2064 65.3609 49.495 65.4128C49.3033 64.3445 49.3734 61.8885 49.4298 60.7444Z" fill="white"/>
<path d="M50.4729 63.527C50.5206 63.3401 50.5256 63.3119 50.6616 63.1771C51.1486 63.0094 51.2017 63.2895 51.6537 63.4127C51.272 63.472 50.8541 63.5574 50.4729 63.527Z" fill="#D4E2F1"/>
<path d="M12.5503 63.567C12.5549 64.0824 12.7012 64.8716 12.2357 65.1496C11.9602 65.1429 11.8209 65.1575 11.5752 65.0317C11.3541 64.6056 11.6053 61.6304 11.6382 60.9829C11.6477 60.7971 11.7148 60.6113 11.8729 60.4903C12.3568 60.4225 14.0246 60.6395 14.4986 60.8056C14.5954 61.0158 14.5927 61.4413 14.4563 61.6385C14.0701 61.7131 13.0727 61.5764 12.6546 61.5094C12.6233 61.8238 12.6205 62.1812 12.6106 62.5C12.9926 62.5058 13.909 62.5173 14.2317 62.6671C14.1839 62.9464 14.1103 63.3107 14.0824 63.5855C13.5588 63.6122 13.0735 63.5874 12.5503 63.567Z" fill="white"/>
<path d="M14.2318 62.6675L14.2894 62.5145C14.5329 62.3562 14.4457 62.3657 14.7102 62.3666L14.7932 62.5159L14.6646 62.9706C14.6158 63.2221 14.6221 63.5498 14.4925 63.6705C14.3148 63.6487 14.2489 63.6468 14.0825 63.5858C14.1104 63.311 14.184 62.9467 14.2318 62.6675Z" fill="#3471BD"/>
<path d="M21.8856 2.10527C30.5226 -1.03052 38.7702 -0.652501 47.1481 3.16732C49.1995 4.10264 51.0468 5.46576 52.9258 6.69576C53.3124 6.95264 53.8667 7.78563 54.3347 8.06452C54.24 8.27339 54.2275 8.30286 54.2171 8.53106L54.1566 8.58827L54.1174 8.56582L54.0922 8.64382C54.1296 8.70697 54.1803 8.79265 54.2444 8.90092C54.1867 9.9406 53.8443 11.0144 53.7626 12.072C53.7598 12.1089 53.7223 12.1902 53.7147 12.208C53.6125 12.1413 53.3731 12.0411 53.2524 11.9863C52.8851 11.9777 52.2293 11.8869 51.8429 11.8447C52.0748 11.8357 52.3444 11.8446 52.5562 11.7616C52.3078 11.4809 52.0313 11.3174 51.7488 11.0655C50.7151 10.1441 49.7131 9.29764 48.5235 8.57553C47.9789 8.23261 47.4167 8.02498 46.8781 7.72994C45.189 6.80476 43.7025 6.07917 41.8389 5.57541C41.3295 5.43773 40.8657 5.23502 40.3196 5.15232L40.1239 5.09127C39.274 5.79158 38.5207 7.08481 37.7714 7.9669C37.2947 8.52809 36.3062 9.45871 35.9524 9.98492C33.4706 9.72457 30.687 9.60326 28.253 10.2259C25.6976 10.6683 21.5497 12.0809 19.5853 13.7607C18.7628 13.174 16.8983 12.1778 15.9416 12.3199C14.5135 12.5318 13.8774 16.1325 13.8251 17.2682C13.7326 19.274 13.4106 19.6357 12.4299 21.3433C11.9243 22.2237 11.1536 24.0488 10.8474 25.039C10.6013 25.9411 10.0558 28.5765 9.94835 29.5228C9.40041 29.7796 8.86138 30.055 8.3322 30.3483C6.69367 31.5067 6.15717 32.9746 5.28572 34.7743C4.92166 36.4032 4.70882 37.5967 5.08772 39.2682C5.14349 39.514 5.457 40.5881 5.47691 40.7088C5.5988 40.9977 5.87212 41.5927 5.96228 41.8649C5.66666 41.8071 5.72612 41.7689 5.53094 41.8965L5.436 42.1491L5.41369 42.0592C5.37075 42.3401 5.41869 42.4535 5.54948 42.7009L5.48293 42.8855L5.57758 42.888L5.47605 42.9242L5.30861 42.7655L5.26791 42.7921C5.08859 42.5757 4.82657 41.5586 4.73793 41.2483C3.8071 41.1521 2.92464 41.2063 1.98215 41.0773C1.89266 40.452 1.66099 39.7915 1.56206 39.0327C0.971695 34.5047 1.03462 30.7415 2.1078 26.3158C1.93796 25.9961 2.98729 23.984 2.26289 23.4806C1.96847 23.7021 1.61038 25.313 1.49067 25.7591L1.39044 25.7927C1.32384 24.8868 3.51003 19.3827 4.01002 18.3163C4.61945 17.0167 5.35083 15.7444 6.23604 14.5913C6.71141 13.9719 7.19576 13.048 7.70083 12.3953C11.3883 7.72154 16.298 4.15993 21.8856 2.10527Z" fill="#82B3E4"/>
<path d="M33.5171 3.62202C34.7062 3.16721 39.9799 3.67619 40.6796 4.54915C40.526 4.74599 40.3004 4.94964 40.3198 5.15199L40.1241 5.09094C39.2743 5.79125 38.5209 7.08448 37.7716 7.96657C37.2949 8.52776 36.3064 9.45837 35.9527 9.98459C33.4709 9.72423 30.6872 9.60293 28.2532 10.2255C25.6978 10.668 21.5499 12.0805 19.5855 13.7604C18.763 13.1737 16.8985 12.1775 15.9419 12.3195C14.5137 12.5314 13.8776 16.1322 13.8253 17.2679C13.7328 19.2736 13.4108 19.6354 12.4302 21.3429C11.9245 22.2234 11.1538 24.0484 10.8476 25.0387C8.78751 24.018 8.36942 23.1946 7.09351 21.4548C7.28622 20.8785 8.03513 19.5724 7.80157 19.0853C7.67085 18.9955 7.71198 19.0551 7.67411 18.9012C8.04049 17.9776 9.68648 14.99 10.6987 14.9143C12.4914 14.1366 12.4693 13.0334 13.8648 11.8943C14.7895 11.2667 15.7901 10.0731 16.6939 9.52384C18.2039 8.60619 20.116 7.35063 21.6819 6.60092C24.3858 5.30617 27.4419 4.778 30.3687 4.30017C31.3304 4.14316 32.8222 4.20102 33.5171 3.62202Z" fill="#9AC7EB"/>
<path d="M33.0463 4.2334C34.3824 3.95298 38.7671 4.65206 40.1239 5.09144C39.274 5.79176 38.5206 7.08498 37.7713 7.96708C37.2947 8.52827 36.3062 9.45888 35.9524 9.98509C33.4706 9.72474 30.6869 9.60343 28.2529 10.226C28.5188 9.30303 30.1162 7.8906 30.7645 7.11417C31.5398 6.18573 32.2586 5.13309 33.0463 4.2334Z" fill="#B8D8F0"/>
<path d="M4.92065 27.8839C5.66276 26.3672 5.87654 24.3494 6.5636 22.7563C6.75603 22.31 6.82418 21.8871 7.09358 21.4551C8.3695 23.1949 8.78759 24.0182 10.8477 25.0389C10.6016 25.9411 10.056 28.5764 9.94865 29.5227C9.40071 29.7795 8.86168 30.0549 8.33249 30.3483C8.13833 30.0413 5.78268 28.3539 5.35207 27.9755C5.23062 27.8688 5.07317 27.8731 4.92065 27.8839Z" fill="#6EA3DD"/>
<path d="M21.8858 2.10463C21.9005 2.10985 22.0525 2.1638 22.0525 2.1638C22.9693 1.85456 23.9212 1.6336 24.8346 1.32119C25.1937 1.19837 25.3411 1.26689 25.5262 1.57859C25.5097 1.67218 25.5213 1.73636 25.4402 1.76718C24.511 2.12049 23.2695 2.40417 22.3474 2.73397L22.3864 2.80676C21.9244 3.09181 20.9365 3.3271 20.4246 3.57C19.7897 3.87128 19.1472 4.28133 18.5256 4.59976C16.8043 5.48142 15.0932 6.25205 13.6763 7.62176C13.5665 7.72793 13.2101 8.04144 13.143 8.16694C12.6346 8.58655 12.1333 9.01478 11.6394 9.45134C10.5727 10.3351 10.178 10.9226 9.30271 11.9791C8.26846 13.2273 7.32054 14.3129 6.49747 15.7317C6.093 16.4288 5.74451 17.1141 5.37762 17.8322C5.16804 18.2423 4.74111 18.8233 4.57809 19.2299C4.21968 19.7057 3.14024 22.5898 2.94485 23.2696C2.79732 23.7826 2.33685 25.9981 2.10801 26.3152C1.93818 25.9955 2.9875 23.9833 2.26311 23.48C1.96868 23.7015 1.61059 25.3123 1.49088 25.7585L1.39065 25.7921C1.32405 24.8862 3.51024 19.382 4.01024 18.3157C4.61966 17.0161 5.35104 15.7438 6.23625 14.5906C6.71162 13.9713 7.19598 13.0473 7.70104 12.3947C11.3885 7.7209 16.2982 4.1593 21.8858 2.10463Z" fill="#6EA3DD"/>
<path d="M21.8857 2.10527C30.5228 -1.03052 38.7704 -0.652501 47.1482 3.16732C49.1996 4.10264 51.047 5.46576 52.9259 6.69576C53.3126 6.95264 53.8669 7.78563 54.3349 8.06452C54.2402 8.27339 54.2277 8.30286 54.2173 8.53106L54.1568 8.58827L54.1176 8.56582L54.0924 8.64382C53.7033 8.60334 51.029 6.33742 50.4336 5.99849C49.2617 5.33142 47.998 4.58258 46.8213 3.91319C46.201 3.56028 45.3586 3.28037 44.6949 3.0206C39.4215 1.00797 33.7104 0.422173 28.1382 1.32234C26.2592 1.62782 24.2066 2.23787 22.3864 2.80739L22.3474 2.73461C23.2695 2.4048 24.5109 2.12113 25.4402 1.76782C25.5213 1.737 25.5097 1.67282 25.5262 1.57923C25.341 1.26753 25.1937 1.199 24.8346 1.32183C23.9212 1.63424 22.9693 1.85519 22.0525 2.16443C22.0525 2.16443 21.9004 2.11048 21.8857 2.10527Z" fill="#3471BD"/>
<path d="M10.6987 14.9145C10.7339 14.5253 11.409 13.7856 11.6598 13.4694C13.9547 10.576 16.8591 8.22397 20.1664 6.58066C22.3982 5.46103 25.88 4.57126 28.291 3.87073C28.9623 3.6757 32.9316 3.42831 33.5172 3.62218C32.8222 4.20119 31.3304 4.14332 30.3687 4.30033C27.4419 4.77817 24.3858 5.30633 21.6819 6.60108C20.116 7.35079 18.204 8.60636 16.6939 9.524C15.7902 10.0732 14.7895 11.2668 13.8648 11.8944C12.4693 13.0335 12.4914 14.1368 10.6987 14.9145Z" fill="#5189D0"/>
<path d="M4.92098 27.8842C5.0735 27.8733 5.23094 27.8691 5.35239 27.9758C5.78301 28.3542 8.13865 30.0416 8.33282 30.3486C6.69428 31.5069 6.15779 32.9748 5.28634 34.7745C5.18343 34.914 5.05879 35.2177 4.98282 35.3867C4.93148 35.1799 4.78931 35.0334 4.57357 35.0097C4.55757 35.1696 4.55402 35.2237 4.5089 35.3766L4.4451 35.3377C4.43872 35.0247 4.44444 34.6949 4.42699 34.3842C4.30279 32.1807 4.62122 30.0676 4.92098 27.8842Z" fill="#9AC7EB"/>
<path d="M4.57819 27.3828C4.63859 27.6015 4.69146 27.7702 4.9206 27.8835C4.62085 30.0669 4.30241 32.18 4.42661 34.3835C4.44407 34.6942 4.43834 35.0241 4.44472 35.3371L4.50852 35.3759C4.55364 35.223 4.55719 35.1689 4.57319 35.0091C4.78894 35.0327 4.9311 35.1793 4.98245 35.386C5.05842 35.217 5.18305 34.9133 5.28596 34.7738C4.9219 36.4027 4.70906 37.5962 5.08796 39.2677C5.14373 39.5136 5.45724 40.5877 5.47715 40.7083C5.59904 40.9972 5.87236 41.5922 5.96252 41.8645C5.6669 41.8067 5.72636 41.7684 5.53118 41.896L5.43624 42.1486L5.41393 42.0587C5.37098 42.3396 5.41893 42.453 5.54972 42.7004L5.48317 42.885L5.57782 42.8876L5.47629 42.9238L5.30885 42.765L5.26815 42.7917C5.08883 42.5753 4.82681 41.5582 4.73817 41.2479C4.60875 40.9117 4.40785 39.7098 4.34072 39.2944C3.66373 35.1058 3.79539 31.5081 4.57819 27.3828Z" fill="#4783C4"/>
<path d="M5.41397 42.0584C5.39587 41.4975 4.96721 41.0629 5.4772 40.708C5.59908 40.9969 5.8724 41.5919 5.96257 41.8641C5.66694 41.8063 5.7264 41.7681 5.53122 41.8957L5.43628 42.1483L5.41397 42.0584Z" fill="#5189D0"/>
<path d="M7.80177 19.085C8.03533 19.5721 7.28642 20.8782 7.0937 21.4545C6.8243 21.8866 6.75615 22.3094 6.56373 22.7557C5.87667 24.3488 5.66288 26.3666 4.92078 27.8834C4.69164 27.77 4.63877 27.6013 4.57837 27.3826C4.89796 26.0546 6.73645 19.5194 7.80177 19.085Z" fill="#4180CD"/>
<path d="M11.6394 9.45117L11.8 9.6953C10.1956 11.3988 8.71266 13.3282 7.26908 15.175C6.5238 16.1283 6.01561 17.6793 5.29357 18.6016L5.08587 18.4958C4.9143 18.774 4.73687 19.0449 4.60565 19.3444L4.57812 19.2298C4.74115 18.8231 5.16807 18.2422 5.37766 17.8321C5.74454 17.1139 6.09303 16.4287 6.49751 15.7315C7.32057 14.3127 8.2685 13.2271 9.30275 11.9789C10.178 10.9224 10.5727 10.3349 11.6394 9.45117Z" fill="#D4E2F1"/>
<path d="M40.6796 4.5498C41.8849 4.92611 42.9697 5.22245 44.1089 5.79009C45.2212 6.34433 47.6193 8.03906 48.6389 8.41993L48.5237 8.57585C47.9791 8.23293 47.4169 8.0253 46.8782 7.73026C45.1892 6.80508 43.7026 6.07949 41.8391 5.57572C41.3297 5.43805 40.8658 5.23534 40.3198 5.15264C40.3004 4.95029 40.526 4.74665 40.6796 4.5498Z" fill="#6EA3DD"/>
<path d="M48.6391 8.41895C49.918 8.76324 52.6017 10.8645 53.2527 11.9856C52.8854 11.977 52.2297 11.8863 51.8433 11.844C52.0752 11.8351 52.3448 11.844 52.5566 11.7609C52.3082 11.4802 52.0317 11.3167 51.7491 11.0649C50.7155 10.1434 49.7135 9.29698 48.5239 8.57487L48.6391 8.41895Z" fill="#5189D0"/>
<path d="M13.1433 8.16797C13.1224 8.64906 12.1572 9.34423 11.8003 9.69649L11.6396 9.45236C12.1336 9.0158 12.6349 8.58758 13.1433 8.16797Z" fill="#B8D8F0"/>
<path d="M58.6681 21.4548C58.2906 20.5754 57.2043 18.3338 56.982 17.519L57.0367 17.5098C57.1994 17.9321 57.4464 18.1836 57.9528 18.0732C58.1914 18.7984 58.7491 21.1277 60.0046 20.0738C60.3265 19.8035 60.7769 19.927 61.0017 19.6962C60.986 18.2671 59.976 19.3352 59.0589 18.5379C59.6512 18.7217 60.322 18.864 60.9422 18.7117C60.9956 18.8971 61.042 19.0711 61.0862 19.257C61.2807 20.0783 61.7871 20.8432 62.0588 21.6425C62.9698 24.323 63.5215 27.0385 63.6407 29.8689C63.6811 30.8278 63.814 31.8297 63.8002 32.7957C63.7228 36.7948 63.1166 40.8076 61.8046 44.5931C61.4478 45.6226 60.9149 46.5772 60.5197 47.55C59.4351 50.2196 57.8551 52.4062 56.0982 54.6578C55.7215 55.1406 55.1964 55.6199 54.7327 56.0373C53.6627 56.2863 51.5761 56.4589 50.4478 56.5354C50.6439 56.1769 52.0643 54.9175 52.4418 54.497C52.9356 53.9469 52.9777 53.8718 53.3823 53.1948L53.1493 53.1145L53.4918 52.6925C53.8669 52.0397 55.3365 50.3801 55.5107 49.6427L55.4028 49.5928C55.2061 49.7175 55.1635 49.7243 54.9359 49.7364L54.8775 49.7392C55.1523 49.5233 55.5047 49.4142 55.8161 49.269C57.2351 48.6072 58.1218 48.6586 59.6443 48.6495C59.6778 46.9317 58.8249 46.0606 58.7527 45.1016L58.4967 44.7777C58.6958 44.5356 59.5292 41.3747 59.5476 40.8675C59.5527 40.7258 59.4825 40.7093 59.3635 40.595C59.7976 39.9216 59.9509 39.5704 60.1731 38.807C60.3598 37.4874 60.234 35.7971 60.0767 34.48C59.9558 33.4647 59.4119 32.4435 58.8584 31.6021C58.4386 31.3025 58.2002 30.9703 57.8528 30.6035C56.7901 29.4816 56.2018 28.8985 54.7042 28.5088C54.5761 27.3491 54.1638 25.8727 53.8745 24.7237C55.4866 24.7638 56.8292 23.2019 57.93 22.2035C58.1534 22.0008 58.5177 21.6945 58.6681 21.4548Z" fill="#6EA3DD"/>
<path d="M58.6681 21.4541C58.8502 22.0653 59.0468 22.6722 59.2577 23.274C59.6046 24.8815 59.9945 25.8964 60.2679 27.6308C60.372 28.2618 60.4477 28.8971 60.4948 29.5349C60.5176 29.8602 60.5466 30.6736 60.6052 30.974L60.6162 31.6095C60.0302 31.6177 59.4442 31.615 58.8584 31.6015C58.4386 31.3018 58.2002 30.9696 57.8528 30.6029C56.7901 29.4809 56.2018 28.8979 54.7042 28.5082C54.5761 27.3484 54.1638 25.872 53.8745 24.7231C55.4866 24.7631 56.8292 23.2013 57.93 22.2029C58.1534 22.0002 58.5177 21.6938 58.6681 21.4541Z" fill="#9AC7EB"/>
<path d="M60.6052 30.9734L60.6666 30.2949C60.6739 30.7572 60.6326 31.8582 60.8765 32.1977L61.0048 32.2289C61.08 31.3416 60.8775 30.7403 60.9885 30.1182C61.0564 30.2313 61.1007 31.1043 61.1037 31.2736C61.1542 34.1328 61.0034 37.7728 60.249 40.5305C60.1964 40.1791 60.197 39.238 60.1731 38.8057C60.3598 37.4861 60.234 35.7958 60.0767 34.4787C59.9558 33.4634 59.4119 32.4422 58.8584 31.6008C59.4442 31.6144 60.0302 31.6171 60.6162 31.6089L60.6052 30.9734Z" fill="#5189D0"/>
<path d="M60.6162 31.6096C60.6255 32.2986 60.646 33.0099 60.6198 33.6983C60.6066 34.0409 60.5803 34.6713 60.0767 34.4794C59.9558 33.4641 59.4119 32.443 58.8584 31.6016C59.4442 31.6151 60.0302 31.6178 60.6162 31.6096Z" fill="#6EA3DD"/>
<path d="M59.3636 40.5946C59.7977 39.9213 59.951 39.57 60.1732 38.8066C60.1971 39.2389 60.1965 40.1801 60.2491 40.5314C59.8148 42.0625 59.1351 43.6175 58.7528 45.1012L58.4968 44.7773C58.6959 44.5353 59.5293 41.3743 59.5477 40.8672C59.5528 40.7254 59.4826 40.709 59.3636 40.5946Z" fill="#3471BD"/>
<path d="M53.4919 52.6914L53.6175 52.85C53.5758 53.0293 53.5204 53.0579 53.3824 53.1937L53.1494 53.1135L53.4919 52.6914Z" fill="#5189D0"/>
<path d="M54.4036 7.99428C54.559 6.96763 54.7321 4.67912 55.568 4.01429C55.7525 3.86757 56.1291 3.70687 56.3672 3.76835C57.4175 4.03935 58.469 4.40008 59.5218 4.67702C61.1385 5.10228 62.7509 5.43194 64.3671 5.84213C64.6714 5.91941 65.1244 6.1085 65.3827 6.27702C65.4952 6.5888 65.4818 7.25319 65.4267 7.59285C65.1497 9.30278 64.736 10.9687 64.37 12.6756C64.0422 14.2046 63.9313 15.954 63.3588 17.3901C63.1588 17.8919 62.2809 18.393 61.8036 18.6488C61.567 18.4897 61.1531 18.5327 60.9423 18.7121C60.322 18.8644 59.6513 18.7221 59.0589 18.5383C58.0341 17.929 57.3615 17.2723 57.4247 15.9675C57.4611 15.2179 57.7842 14.7102 58.3451 14.2305C57.5789 13.3684 56.976 11.4495 56.1558 10.6719C56.0875 11.003 56.0172 11.3337 55.945 11.6639C55.4893 14.1371 55.2715 17.6647 51.6032 17.1584C51.167 17.0982 50.633 16.8116 50.3633 16.4534C48.5631 15.0161 49.5792 12.1061 51.8431 11.8454C52.2295 11.8876 52.8852 11.9783 53.2526 11.9869C53.3733 12.0418 53.6127 12.142 53.7149 12.2086C53.7225 12.1909 53.76 12.1095 53.7628 12.0727C53.8445 11.015 54.1869 9.94125 54.2446 8.90157C54.1805 8.7933 54.1298 8.70763 54.0924 8.64448L54.1176 8.56648L54.1568 8.58893L54.2173 8.53172C54.2277 8.30352 54.2402 8.27404 54.3349 8.06518L54.4036 7.99428Z" fill="#7E5ABA"/>
<path d="M56.6433 8.11523C58.2606 8.58945 61.1345 9.2495 62.8551 9.55845C62.6323 11.0521 62.3642 12.3696 62.0835 13.8452C61.2754 13.6069 60.809 13.4574 59.9503 13.6215C59.7579 13.6583 59.3135 13.7799 59.1424 13.7896C58.8905 14.0764 58.7386 14.1957 58.3454 14.2293C57.5791 13.3672 56.9762 11.4483 56.156 10.6707C56.1741 10.378 56.2751 10.1061 56.3642 9.82662C56.4647 9.25739 56.5577 8.68693 56.6433 8.11523Z" fill="white"/>
<path d="M56.3642 9.82715C57.1848 10.9802 58.0764 12.0489 58.9315 13.172C58.9996 13.2613 59.1083 13.6664 59.1424 13.7901C58.8905 14.077 58.7386 14.1963 58.3454 14.2299C57.5791 13.3678 56.9762 11.4488 56.156 10.6712C56.1741 10.3785 56.2751 10.1066 56.3642 9.82715Z" fill="#5189D0"/>
<path d="M54.4036 7.99316C55.0281 8.52785 54.3623 10.7549 54.2526 11.5057C54.2095 11.8005 54.0057 12.1657 54.0075 12.4693L53.8889 12.6434C53.0136 12.72 52.2563 12.4096 51.0288 12.6946C50.8195 12.8757 50.2587 13.5066 50.137 13.5372C50.0199 13.4505 50.0096 13.4384 49.9117 13.3289C49.6298 13.8313 49.3741 15.0826 49.7417 15.5635L49.8584 15.628C49.8555 15.4292 49.8162 15.1501 49.9056 15.0088C50.0176 15.2863 50.0726 15.4068 50.1207 15.7009L50.0318 15.7714L50.1249 15.7022L49.9285 15.7839C50.0728 15.9659 50.3301 16.2427 50.3633 16.4523C48.5631 15.015 49.5792 12.105 51.8431 11.8442C52.2295 11.8865 52.8852 11.9772 53.2526 11.9858C53.3733 12.0406 53.6127 12.1409 53.7149 12.2075C53.7225 12.1898 53.76 12.1084 53.7628 12.0716C53.8445 11.0139 54.1869 9.94014 54.2446 8.90046C54.1805 8.79219 54.1298 8.70651 54.0924 8.64336L54.1176 8.56536L54.1568 8.58782L54.2173 8.5306C54.2277 8.3024 54.2402 8.27293 54.3349 8.06406L54.4036 7.99316Z" fill="#65419F"/>
<path d="M55.9448 11.6625C55.9182 11.66 55.8462 11.6052 55.8183 11.5866C55.6503 11.1354 56.0732 7.83331 56.6856 7.8252L56.7429 7.95143L56.6428 8.11503C56.5573 8.68672 56.4643 9.25718 56.3638 9.82641C56.2747 10.1059 56.1737 10.3778 56.1556 10.6705C56.0873 11.0016 56.017 11.3323 55.9448 11.6625Z" fill="#472B82"/>
<path d="M40.1241 5.09082L40.3198 5.15187C40.8658 5.23458 41.3297 5.43728 41.8391 5.57496C43.7027 6.07872 45.1892 6.80431 46.8783 7.72949C47.4169 8.02454 47.9791 8.23217 48.5237 8.57508C49.7133 9.29719 50.7153 10.1437 51.749 11.0651C52.0315 11.317 52.308 11.4804 52.5564 11.7611C52.3446 11.8442 52.075 11.8353 51.8431 11.8443C49.5792 12.105 48.5631 15.015 50.3633 16.4523C50.633 16.8105 51.167 17.0971 51.6032 17.1573C55.2715 17.6636 55.4893 14.136 55.945 11.6628C56.0172 11.3326 56.0875 11.0019 56.1558 10.6708C56.976 11.4484 57.5789 13.3673 58.3452 14.2294C57.7843 14.7091 57.4611 15.2168 57.4248 15.9664C57.3615 17.2712 58.0341 17.9279 59.0589 18.5372C59.9761 19.3346 60.9861 18.2665 61.0018 19.6955C60.777 19.9263 60.3266 19.8028 60.0047 20.0731C58.7492 21.1271 58.1915 18.7978 57.9528 18.0726C57.4465 18.183 57.1995 17.9315 57.0368 17.5091L56.9821 17.5183C57.2044 18.3331 58.2907 20.5748 58.6682 21.4541C58.5178 21.6938 58.1535 22.0002 57.93 22.2029C56.8292 23.2013 55.4867 24.7631 53.8746 24.7231C53.1726 22.6371 52.3083 20.766 51.086 18.9205C51.0034 18.7956 50.599 18.8018 50.4504 18.7946C50.1405 18.757 49.8723 18.7351 49.5605 18.7168C48.4332 18.5963 48.528 18.009 48.3797 17.0208C48.52 16.7204 48.2765 16.0025 48.2536 15.6622C48.1642 14.3355 47.9941 11.7195 46.2987 11.4694C45.626 11.3702 44.2368 12.2371 43.7423 12.6726C42.3074 11.483 37.9064 10.4084 35.9526 9.98447C36.3064 9.45826 37.2949 8.52765 37.7716 7.96645C38.5208 7.08436 39.2742 5.79113 40.1241 5.09082Z" fill="#9AC7EB"/>
<path d="M54.8778 49.7392L54.9362 49.7365C55.1638 49.7243 55.2064 49.7175 55.403 49.5928L55.5109 49.6427C55.3367 50.3801 53.8671 52.0397 53.492 52.6925L53.1495 53.1146L53.3825 53.1948C52.978 53.8719 52.9358 53.947 52.442 54.497C52.0645 54.9176 50.6441 56.1769 50.448 56.5354C50.2482 56.6131 50.1061 56.5802 49.8958 56.5578C49.3209 56.7558 46.3783 56.8939 45.5807 56.9856C38.3721 57.8147 31.2109 57.8564 23.9771 57.4908C22.3771 57.41 20.5472 57.1549 18.9289 57.0338C18.0603 56.9689 15.1296 56.8261 14.4486 56.596C14.1377 56.0332 13.0175 55.241 12.6089 54.7631C11.5498 53.5246 10.1022 52.1145 9.33203 50.7144C9.35006 50.6259 9.36549 50.6194 9.41416 50.5371C9.78466 50.5161 10.0891 50.768 10.4098 50.9006C11.9368 51.5315 12.5799 52.461 13.7087 53.5385C15.5786 52.4163 15.9079 51.8667 18.0098 52.6929C18.8953 55.1505 18.8979 53.7051 20.7029 55.0762C21.5297 55.1116 22.492 54.8547 23.4209 54.8411C24.5143 56.1135 25.0479 56.6419 26.8085 56.9424C27.2317 57.0146 27.779 57.1218 28.1603 57.3047L28.1897 57.3191C29.614 56.9114 29.6945 56.9522 30.4502 55.7035C32.1153 55.8615 34.2704 55.8672 35.904 55.5911C36.4022 56.2103 36.9353 56.4759 37.6312 56.808C39.7386 56.6188 40.7401 56.3027 42.0928 54.7079C42.3513 54.4031 42.8908 54.0122 43.2173 53.6684C43.4506 53.7738 44.0105 54.0404 44.236 54.0351C45.6199 54.0027 47.1167 53.0539 48.1023 52.182L48.2457 51.3245C49.8751 51.4304 50.3764 51.6851 51.6402 52.7065C53.1761 51.7928 53.329 50.3907 54.8778 49.7392Z" fill="#9AC7EB"/>
<path d="M53.1495 53.1143L53.3825 53.1945C52.9779 53.8716 52.9358 53.9467 52.442 54.4967C52.0645 54.9173 50.6441 56.1766 50.448 56.5352C50.2482 56.6128 50.1061 56.5799 49.8958 56.5575C50.9953 55.3348 52.0982 54.2769 53.1495 53.1143Z" fill="#5189D0"/>
<path d="M10.9888 27.832C11.4955 25.2382 12.8575 21.1206 14.5328 19.0521C21.311 10.6824 33.5208 8.19148 43.0978 13.0321C44.373 13.6766 47.934 15.7393 48.3043 17.041L48.3799 17.021C48.5282 18.0092 48.4334 18.5965 49.5607 18.717C49.3313 19.014 49.4164 18.9857 49.1039 19.1197C48.8328 19.0956 48.7481 19.0577 48.4943 18.9673C48.4124 18.8178 48.113 18.4746 47.9928 18.333C47.0798 17.3514 46.4405 17.0252 45.4008 16.2685C37.0541 10.1931 24.6357 11.0168 17.36 18.3912C15.6429 20.1316 12.8489 23.8919 12.6191 26.3607C12.3467 27.0926 12.0275 28.2935 11.1963 28.5019C11.1391 28.2573 11.1042 28.0561 10.9888 27.832Z" fill="#F796A0"/>
<path d="M12.6188 26.3605C12.8486 23.8918 15.6426 20.1314 17.3597 18.3911C24.6354 11.0166 37.0538 10.193 45.4006 16.2683C46.4402 17.0251 47.0796 17.3513 47.9925 18.3329C48.1127 18.4744 48.4121 18.8176 48.494 18.9671C48.6988 19.2728 48.8846 19.5494 49.0692 19.8698C48.7384 19.6403 48.5687 19.8081 48.0182 19.5054C47.3147 18.4708 44.8746 16.7789 43.7221 16.0955C42.028 15.0911 39.1545 14.2105 37.1725 13.7915C31.9108 12.6789 25.3462 13.6851 20.8106 16.6065C17.8587 18.5079 15.1957 21.6695 13.8111 24.8481C13.4427 25.7051 13.3496 26.6022 13.0623 27.3114C12.9609 27.787 12.8598 28.2074 12.8285 28.6942C11.9655 28.7824 11.4105 29.1591 10.6323 29.5361C10.76 28.9699 10.8788 28.4018 10.9885 27.8318C11.1039 28.056 11.1388 28.2572 11.196 28.5017C12.0272 28.2933 12.3465 27.0924 12.6188 26.3605Z" fill="#B64375"/>
<path d="M10.9885 27.8326C11.1039 28.0568 11.1388 28.258 11.196 28.5025C12.0272 28.2941 12.3465 27.0932 12.6188 26.3613L12.6196 26.4314C12.6227 27.246 12.2595 27.1467 12.2894 28.3281L12.1989 28.3257L12.0708 28.024C11.9295 28.1714 11.533 28.591 11.4868 28.7671C11.6921 28.8515 11.7725 28.7887 12.0068 28.6889C12.3276 28.5522 12.576 28.7073 12.6694 28.5222C12.7691 28.3246 12.7959 27.3578 12.9761 27.2607L13.0623 27.3122C12.9609 27.7878 12.8598 28.2081 12.8285 28.695C11.9655 28.7832 11.4105 29.1599 10.6323 29.5369C10.76 28.9707 10.8788 28.4026 10.9885 27.8326Z" fill="#CD6DA4"/>
<path d="M49.5605 18.7168C49.8723 18.7351 50.1405 18.757 50.4505 18.7946C50.399 19.4504 51.8057 21.5291 52.1272 22.1833C52.3241 22.5839 52.5042 23.1112 52.6753 23.4863C53.4895 25.2704 53.5764 26.8276 53.9682 28.6217C53.3664 28.4038 53.2114 28.4302 52.5916 28.3523C52.1884 27.2792 51.8209 26.2803 51.4915 25.1829C51.5045 25.1046 51.5156 25.0261 51.5245 24.9473C51.7028 23.3356 50.022 21.0761 49.0693 19.8697C48.8847 19.5493 48.6989 19.2727 48.4941 18.967C48.748 19.0575 48.8326 19.0953 49.1038 19.1195C49.4163 18.9854 49.3311 19.0137 49.5605 18.7168Z" fill="#CD6DA4"/>
<path d="M5.43664 42.1485L5.53159 41.8959C5.72676 41.7683 5.66731 41.8065 5.96293 41.8643C6.39717 42.6451 7.26956 43.6181 7.94561 44.2105C7.52144 44.8431 7.01326 45.6129 6.6946 46.3074C6.47654 46.6045 6.62819 46.5486 6.55331 46.8213C6.25109 45.6474 5.67317 43.9444 5.26855 42.7915L5.30926 42.7649L5.47669 42.9236L5.57823 42.8874L5.48357 42.8849L5.55013 42.7003C5.41934 42.4529 5.37139 42.3395 5.41434 42.0585L5.43664 42.1485Z" fill="#6EA3DD"/>
<path d="M5.41409 42.0586L5.4364 42.1485C5.67257 42.9707 6.36535 45.6552 6.69436 46.3075C6.4763 46.6046 6.62795 46.5486 6.55306 46.8213C6.25085 45.6475 5.67293 43.9444 5.26831 42.7916L5.30901 42.7649L5.47645 42.9237L5.57798 42.8875L5.48333 42.8849L5.54988 42.7003C5.41909 42.4529 5.37115 42.3395 5.41409 42.0586Z" fill="#052760"/>
<path d="M59.3635 40.5947C59.4825 40.7091 59.5527 40.7255 59.5476 40.8672C59.5292 41.3744 58.6958 44.5354 58.4967 44.7774C58.3136 44.41 57.6722 43.4646 57.4138 43.0361C58.2795 42.105 58.6393 41.6224 59.3635 40.5947Z" fill="#6EA3DD"/>
<path d="M48.0186 19.5059C48.569 19.8085 48.7387 19.6407 49.0695 19.8702C50.0222 21.0766 51.7031 23.3361 51.5247 24.9479C51.5158 25.0267 51.5048 25.1052 51.4917 25.1834C51.0781 24.1689 50.5479 22.9974 49.9173 22.0972C49.2984 21.2138 48.6123 20.4225 48.0186 19.5059Z" fill="#A53964"/>
<path d="M41.295 15.6709C43.2975 16.5178 46.4762 18.2619 47.722 20.0443C47.3197 20.6948 47.3395 21.4859 47.3223 22.2531C47.0048 22.0653 46.2368 21.5456 45.8913 21.6234L45.8738 21.7042C47.6215 23.632 49.7186 26.0921 50.4643 28.6257C50.2875 28.9197 49.9236 29.5287 49.9493 29.8448C50.0692 31.325 50.4152 32.8105 50.5876 34.3176C50.8414 36.5368 50.8239 38.4633 50.8051 40.675C50.8874 42.3612 50.1002 44.4912 48.9552 45.7226C46.5066 48.3561 44.8827 48.8885 41.6871 50.0176C41.448 50.17 41.4323 50.2056 41.319 50.4645C41.7342 50.5495 42.6987 50.2646 43.1588 50.1576C43.1867 50.7227 43.2086 51.2982 43.2659 51.8603C42.556 52.966 41.2727 54.7579 40.1797 55.538C39.536 55.9975 37.5983 56.3256 36.9398 55.7347C36.9373 55.2953 37.727 55.2105 38.0088 54.8384L38.0058 54.6872C37.788 54.5758 36.6448 54.8331 36.3474 54.8728C33.9555 55.1927 31.448 55.2393 29.047 54.9875C28.832 54.965 28.5917 54.9165 28.3793 54.9277C28.3669 55.0523 28.3815 55.0857 28.4098 55.2039C28.7918 55.5474 30.0211 55.3557 29.3461 56.2748C28.7222 57.1242 26.9742 56.0425 26.6275 56.0944C25.2276 56.3043 25.144 55.9487 24.3178 54.8757C23.8152 54.2965 23.124 53.4564 22.6417 52.8341C22.5706 52.7422 22.3737 52.662 22.2399 52.6816C22.1283 53.0068 22.6419 53.8157 22.8159 54.1417C22.6081 54.1993 22.3849 54.2349 22.2226 54.2615C20.8723 54.5574 21.084 54.3246 20.2492 53.496C19.9827 53.2316 18.8288 53.8751 18.7613 52.791C18.9111 52.679 19.1961 52.6511 19.2694 52.5694C19.9634 51.7957 20.7434 49.6811 22.0912 50.5832C22.3014 50.7238 22.4011 50.7351 22.5491 50.9661L22.8572 50.9477C23.7023 51.1032 24.3957 51.1654 25.2065 51.2972C25.3026 51.298 25.4158 51.2818 25.5133 51.2718C25.6679 51.0585 25.6072 51.0263 25.5936 50.6943C21.5556 50.1708 17.9654 48.9608 15.7047 45.3355C16.0019 43.9526 16.0695 42.9831 16.2831 41.647C16.4293 38.1877 16.4063 33.4288 15.5692 30.064C15.2674 29.4296 15.0408 29.2288 14.5388 28.7704C15.0199 28.2919 15.4604 27.2636 15.8963 26.6108C16.2091 25.734 17.4835 24.2841 18.0726 23.5131C18.071 23.4764 18.0694 23.4396 18.0679 23.4029C17.7438 23.3728 17.1377 23.9339 16.8824 24.1461C16.6632 23.9647 16.5809 22.8849 16.5366 22.5365C16.4268 22.225 16.4143 21.9058 16.385 21.5771C16.7719 20.7851 19.0243 18.5557 19.8305 17.9717C20.532 17.4635 21.4424 16.9625 22.1362 16.3305C22.398 16.6634 22.7947 16.9864 23.1055 17.332C23.5224 17.6486 23.9224 17.9821 24.3266 18.3146C23.6229 18.6778 23.0382 18.9344 22.5699 19.6034L22.5694 19.7238C22.7781 19.7241 24.2837 18.9167 24.7336 18.7557C24.8934 18.9737 25.0113 19.1917 25.2628 19.272C25.5528 19.1202 25.4195 18.7222 25.3772 18.4287C28.958 17.4086 31.7547 16.7745 35.5471 17.3567C36.6143 17.5206 37.6198 17.8301 38.5972 17.9938C38.5489 18.3937 38.5075 18.6961 38.5124 19.1032C38.8386 18.7218 38.9638 18.5699 39.2207 18.1363C39.579 18.2381 40.856 18.6875 41.0795 18.7014L41.1474 18.6208C40.922 18.1237 40.0065 17.8386 39.4798 17.6221C40.1356 17.0108 40.6074 16.3147 41.295 15.6709Z" fill="#9072B7"/>
<path d="M22.8158 54.1407C22.608 54.1984 22.3848 54.2339 22.2225 54.2605C20.8722 54.5565 21.0839 54.3237 20.2491 53.4951C19.9826 53.2307 18.8287 53.8741 18.7612 52.7901C18.911 52.6781 19.196 52.6502 19.2693 52.5685C19.9633 51.7947 20.7433 49.6802 22.0911 50.5822C22.3013 50.7229 22.401 50.7342 22.549 50.9651L22.8571 50.9467C23.7022 51.1023 24.3956 51.1645 25.2064 51.2962L25.1762 51.3059C25.0328 51.3507 24.7899 51.4159 24.6464 51.3958C22.3252 51.0707 23.3286 51.1029 22.4076 52.4265C22.5647 52.4235 23.0452 52.4158 23.1684 52.466C24.6552 53.0716 25.9871 53.8602 27.3856 54.621C27.5485 54.7096 28.2068 54.8733 28.3901 54.767L28.3791 54.9267C28.3668 55.0514 28.3814 55.0847 28.4097 55.2029C28.7917 55.5464 30.021 55.3548 29.346 56.2738C28.7221 57.1233 26.9741 56.0416 26.6274 56.0935C25.2275 56.3034 25.1439 55.9478 24.3177 54.8748C23.8151 54.2956 23.1239 53.4555 22.6416 52.8332C22.5704 52.7413 22.3736 52.6611 22.2398 52.6806C22.1282 53.0059 22.6418 53.8148 22.8158 54.1407Z" fill="#65419F"/>
<path d="M22.549 50.9657L22.8571 50.9473L22.6293 51.7724L22.5034 51.6075C22.5049 51.4029 22.5313 51.1716 22.549 50.9657Z" fill="#14082B"/>
<path d="M22.6293 51.7723C22.5446 51.9593 22.5423 51.9976 22.3833 52.1138C22.3422 51.8934 22.4082 51.8463 22.5035 51.6074L22.6293 51.7723Z" fill="#2E0948"/>
<path d="M41.3191 50.4631C41.7344 50.5481 42.6988 50.2632 43.159 50.1562C43.1868 50.7214 43.2087 51.2968 43.266 51.8589C42.5562 52.9646 41.2728 54.7565 40.1798 55.5366C39.5361 55.9961 37.5985 56.3242 36.94 55.7333C36.9375 55.294 37.7272 55.2091 38.009 54.837L38.0059 54.6858C37.7881 54.5744 36.6449 54.8317 36.3475 54.8715C33.9557 55.1913 31.4481 55.2379 29.0472 54.9862C28.8321 54.9636 28.5919 54.9151 28.3794 54.9263L28.3903 54.7666L28.5379 54.5817C29.0019 54.3258 31.1867 54.5041 31.8777 54.4405C33.5734 54.2846 35.2992 54.2525 37.0021 54.3092C38.3783 54.3549 38.6807 53.9301 39.7702 53.2688C40.8774 52.5968 42.8926 52.052 42.8298 50.3973C42.2722 50.5301 41.8125 50.7852 41.3191 50.4631Z" fill="#61388D"/>
<path d="M15.7046 45.335C16.0017 43.9521 16.0694 42.9827 16.2829 41.6465C16.356 42.4836 16.3353 43.0448 16.1771 43.877C16.0494 44.5491 15.9402 44.8137 15.9604 45.5023C17.2921 47.309 17.063 46.7737 18.9469 47.8455C19.3011 48.0471 19.9992 49.0139 20.1307 49.0727C21.3595 49.6222 23.0079 50.1324 24.3539 50.3345C24.8872 50.4146 25.3149 50.3397 25.5934 50.6938C21.5555 50.1703 17.9653 48.9603 15.7046 45.335Z" fill="#65419F"/>
<path d="M41.687 50.0165C41.7266 49.9538 41.8528 49.7675 41.9192 49.7475C43.32 49.3259 44.6691 48.7098 45.9961 48.0963C46.2636 47.9726 46.2952 47.6447 46.3612 47.3829C46.6448 47.056 47.0234 47.1754 47.2428 47.0228C47.4833 46.8555 47.9161 46.4169 48.1712 46.2097C50.1775 44.5803 50.2085 42.8312 50.805 40.6738C50.8873 42.36 50.1001 44.4901 48.9551 45.7214C46.5065 48.3549 44.8826 48.8873 41.687 50.0165Z" fill="#65419F"/>
<path d="M22.1362 16.3301C22.3981 16.6629 22.7947 16.9859 23.1055 17.3315C22.7397 17.2852 22.587 17.0576 22.312 16.7718L22.2475 16.8029C21.9475 16.9456 21.6497 16.9876 21.3777 17.1156C20.4062 17.5724 16.057 21.1559 16.6112 22.2203C16.7815 22.2334 16.7975 22.194 16.9656 22.1148L16.9807 22.1794C16.7324 22.3261 16.6457 22.3197 16.5367 22.5361C16.4269 22.2245 16.4143 21.9054 16.385 21.5766C16.772 20.7847 19.0243 18.5552 19.8305 17.9712C20.532 17.4631 21.4424 16.9621 22.1362 16.3301Z" fill="#65419F"/>
<path d="M15.8963 26.6104C15.894 27.1098 15.3022 27.8473 15.1736 28.3629C15.1397 28.4989 15.1428 28.9401 15.1434 29.1002C15.4757 29.5031 15.5514 29.5513 15.5692 30.0635C15.2674 29.4291 15.0408 29.2284 14.5388 28.77C15.0199 28.2915 15.4604 27.2632 15.8963 26.6104Z" fill="#7E5ABA"/>
<path d="M23.9284 33.7745C24.5554 33.7527 25.2849 34.0594 25.8489 34.3139C27.149 34.8847 27.9891 35.4389 28.4836 36.833C29.3629 39.3117 28.4376 41.4637 25.9131 42.3563C24.5248 42.5913 23.2456 42.2845 22.3608 41.1247C21.6753 40.2337 21.3804 39.1029 21.5434 37.9906C21.6923 36.9236 22.2465 35.683 23.09 34.9842C23.4272 34.7049 23.7875 34.5716 24.1276 34.3148C24.0366 34.1181 23.9982 34.0316 23.9409 33.8218L23.9284 33.7745Z" fill="black"/>
<path d="M23.8017 35.0797C25.7272 35.0077 25.8231 37.4749 24.162 37.9518C22.1829 38.0148 22.2282 36.0664 23.8017 35.0797Z" fill="white"/>
<path d="M26.56 39.042C26.9647 39.2566 27.1854 39.4147 27.077 39.8924C26.9205 40.1228 26.7895 40.1524 26.5305 40.2574C26.1648 40.263 25.926 40.3451 25.7842 39.9863C25.8354 39.6261 26.2866 39.279 26.56 39.042Z" fill="#7B1690"/>
<path d="M45.0894 40.566C42.7516 42.3632 39.9943 41.3088 39.3411 38.4691C38.7928 36.0858 41.0856 33.7421 43.4412 33.3438C43.7113 33.5004 43.978 33.6627 44.2412 33.8305C45.6595 34.7353 46.4774 36.1591 46.4323 37.8645C46.4097 38.7206 46.0098 39.3021 45.5654 39.9893L45.0894 40.566Z" fill="black"/>
<path d="M41.8094 34.5811C43.6637 34.9525 43.4423 36.4787 41.8936 37.2724C40.3434 37.3395 40.0799 35.1162 41.8094 34.5811Z" fill="white"/>
<path d="M44.0513 38.2568C44.2367 38.3576 44.1719 38.308 44.2969 38.525C44.2743 39.0506 43.9345 39.1366 43.5196 39.2244C43.3915 39.1336 43.3989 39.1381 43.3369 38.9919C43.3837 38.7164 43.8238 38.4349 44.0513 38.2568Z" fill="#7B1690"/>
<path d="M34.4468 40.2155C34.1653 40.0271 33.8363 39.8552 33.7014 39.5536L33.6909 39.3508C34.0501 38.9657 35.0943 38.9312 35.4021 39.3803C35.3233 39.7979 34.5375 40.0419 34.9483 40.6418C35.4148 41.323 36.9035 41.2547 37.5689 41.1388C37.7582 40.9525 37.9512 40.7164 38.205 40.6721L38.3389 40.7231C38.4518 41.0894 37.4912 42.7226 37.24 43.0348C37.1972 43.0937 37.1516 43.0977 37.0739 43.132C36.6086 42.965 36.3044 42.4504 36.0152 42.0499C35.7524 41.8954 35.6944 41.8611 35.403 41.7784C35.0764 41.7706 34.1587 41.8178 33.9551 41.7781C33.4311 42.1062 33.4338 41.9822 32.8858 42.0713C32.4787 42.5285 32.3456 42.9976 31.9468 43.4778C31.7886 43.1903 31.6357 42.9246 31.4542 42.6498C31.1672 42.2154 30.4212 41.6951 30.5867 41.1151C30.7764 40.9514 30.6847 40.9931 30.9343 40.9588C31.6651 41.3145 31.3561 41.4328 32.2944 41.6516C33.3978 41.3255 33.8584 41.2242 34.4468 40.2155Z" fill="black"/>
<path d="M34.5608 41.0693C34.9156 41.3289 35.0961 41.4555 35.4031 41.7781C35.0764 41.7703 34.1587 41.8175 33.9551 41.7778C34.1319 41.5961 34.3889 41.272 34.5608 41.0693Z" fill="#7E5ABA"/>
<path d="M36.7947 41.8525C37.1064 41.9145 37.0508 41.8562 37.2441 42.055C37.2989 42.2968 37.2075 42.5172 37.1374 42.7592C36.7856 42.5938 36.6387 42.2112 36.7947 41.8525Z" fill="white"/>
<path d="M31.8216 42.0791C32.018 42.1281 32.041 42.1368 32.1834 42.2799C32.2681 42.507 32.1732 42.7022 32.0979 42.9378C31.7112 42.8455 31.7573 42.3972 31.8216 42.0791Z" fill="white"/>
<path d="M45.5654 39.9882C45.6511 40.033 45.753 40.0863 45.8712 40.1481C46.8302 40.1293 48.064 39.4265 48.4543 40.7524C48.5665 41.1335 48.6289 41.7065 48.4276 42.0995C48.302 42.3445 48.0783 42.4024 47.8175 42.4732C47.2506 42.627 46.6387 42.5276 46.098 42.3128C45.3428 41.5275 45.6161 41.0363 45.0894 40.5649L45.5654 39.9882Z" fill="#CD6DA4"/>
<path d="M20.7584 41.5413C21.1081 41.4883 21.5033 41.5455 21.8061 41.7336C22.0625 41.8944 22.241 42.1542 22.2991 42.4512C22.4945 43.4253 21.7694 43.8619 20.946 44.0056C20.2405 44.0043 19.4312 43.9071 19.2233 43.0933C19.1514 42.806 19.2003 42.5018 19.3587 42.2515C19.6985 41.7131 20.1792 41.6655 20.7584 41.5413Z" fill="#CD6DA4"/>
<path d="M14.0463 29.3193C14.3199 29.6221 14.5827 29.9128 14.8432 30.2277C15.4692 31.5433 15.6578 37.2211 15.6233 38.8075C15.6299 39.5562 15.6646 40.6532 15.5694 41.3734C15.5427 42.0327 15.3116 45.0379 14.9498 45.4524C13.9178 45.7423 13.3022 45.8255 12.2675 45.5306C12.3343 45.0025 12.4187 44.5209 12.5134 43.997C12.4278 43.0243 12.6678 42.4825 12.633 41.4119C12.4659 41.7054 12.6053 42.9847 12.2886 43.4379C12.1367 43.7788 12.1783 44.6798 11.8353 45.1376C11.1078 45.6713 8.64599 43.7251 7.95444 43.297C7.81546 43.211 7.44894 42.7328 7.32756 42.5738C7.79316 42.1005 7.95762 41.8401 8.23094 41.2641L8.18206 40.8405L8.11391 40.8384L7.91663 41.1672C7.67323 41.7707 7.51245 41.8651 7.02049 42.2774C5.5544 40.3421 5.17715 35.1669 6.88231 33.284L6.95235 33.1592C7.28179 32.6586 7.66215 31.9408 8.07473 31.5245C8.83349 30.7589 10.1845 29.9461 11.277 29.9072C11.3887 29.873 11.5826 29.7316 11.6885 29.6613C12.1654 29.4979 13.4926 29.3716 14.0463 29.3193Z" fill="#FAA79D"/>
<path d="M14.0467 29.3193C14.3203 29.6221 14.583 29.9128 14.8436 30.2277C15.4695 31.5433 15.6582 37.2211 15.6236 38.8075C15.6302 39.5562 15.6649 40.6532 15.5698 41.3734C15.5431 42.0327 15.3119 45.0379 14.9501 45.4524C13.9181 45.7423 13.3026 45.8255 12.2678 45.5306C12.3347 45.0025 12.4191 44.5209 12.5138 43.997C12.4282 43.0243 12.6681 42.4825 12.6334 41.4119C12.4663 41.7054 12.6056 42.9847 12.289 43.4379C12.2925 43.0558 12.3536 42.4764 12.3852 42.0856L12.4041 41.6473C12.4875 39.5387 12.6105 31.3502 11.2773 29.9072C11.389 29.873 11.583 29.7316 11.6888 29.6613C12.1657 29.4979 13.4929 29.3716 14.0467 29.3193Z" fill="#9072B7"/>
<path d="M11.6888 29.6611C12.931 32.5449 12.8349 38.5647 12.7972 41.779C12.7385 42.3171 12.6555 43.5506 12.5138 43.9968C12.4282 43.0241 12.6681 42.4823 12.6334 41.4117C12.4663 41.7052 12.6056 42.9845 12.289 43.4377C12.2925 43.0556 12.3536 42.4762 12.3852 42.0854L12.4041 41.6471C12.4875 39.5385 12.6105 31.3501 11.2773 29.907C11.389 29.8728 11.583 29.7315 11.6888 29.6611Z" fill="#2E0948"/>
<path d="M13.9623 44.0864C13.9037 44.2082 13.9015 44.2352 13.7793 44.2969C13.973 42.7645 14.1228 40.81 14.8933 39.4573C15.0662 39.1538 15.4304 39.7449 15.6232 38.8066C15.6298 39.5553 15.6645 40.6523 15.5693 41.3725C15.3689 41.4503 14.383 41.8166 14.2614 41.9139C14.0854 42.2283 13.98 43.6523 13.9623 44.0864Z" fill="#7E5ABA"/>
<path d="M14.2616 41.9135C14.3831 41.8162 15.369 41.4499 15.5695 41.3721C15.5428 42.0313 15.3117 45.0366 14.9498 45.4511C13.9178 45.741 13.3023 45.8241 12.2676 45.5292C12.3344 45.0012 12.4188 44.5195 12.5135 43.9956C12.6552 43.5494 12.7382 42.3159 12.7969 41.7778C12.8165 41.9712 12.8341 42.1068 12.877 42.2982C13.0698 43.1575 12.4152 44.5465 12.5079 45.3822C13.0048 45.7735 14.2159 45.4325 14.7505 45.2271L14.8791 45.2504L14.9025 45.047C14.9831 44.2897 15.2918 43.549 15.3422 42.7902C15.3812 42.2034 15.0518 42.5037 14.6786 42.12C14.6635 42.0112 14.6686 41.9623 14.5942 41.8818L14.2616 41.9135Z" fill="#65419F"/>
<path d="M14.0461 29.3193C14.3197 29.6221 14.5825 29.9128 14.843 30.2277C14.7169 30.4282 14.6881 30.4911 14.4859 30.6308C14.2452 30.6582 14.3313 30.683 14.1554 30.5542C13.9088 30.074 13.9675 29.8334 14.0461 29.3193Z" fill="#7E5ABA"/>
<path d="M13.9624 44.0875C13.9801 43.6534 14.0854 42.2293 14.2615 41.915C14.4184 42.2144 14.0588 43.6767 13.9624 44.0875Z" fill="#65419F"/>
<path d="M6.88231 33.284L6.95235 33.1592C7.23935 33.2693 7.37536 33.3063 7.60827 33.5038C7.87709 33.9237 8.03425 34.2087 8.25839 34.6546L8.39498 34.9644C8.9167 36.5775 9.05082 38.4731 8.67974 40.1291C8.54503 40.5969 8.43589 40.8258 8.23094 41.2641L8.18206 40.8405L8.11391 40.8384L7.91663 41.1672C7.67323 41.7707 7.51245 41.8651 7.02049 42.2774C5.5544 40.3421 5.17715 35.1669 6.88231 33.284Z" fill="#7148A3"/>
<path d="M8.2585 34.6543L8.39509 34.964C8.91681 36.5772 9.05094 38.4728 8.67985 40.1288C8.54515 40.5966 8.43601 40.8255 8.23106 41.2638L8.18217 40.8402L8.11402 40.8381L7.91675 41.1669C8.37539 38.9392 8.10077 36.9481 7.94521 34.6953C8.02183 34.8387 8.07586 35.0066 8.19608 35.0686L8.2585 34.6543Z" fill="#2E0948"/>
<path d="M6.88232 33.284L6.95236 33.1592C7.23936 33.2693 7.37537 33.3063 7.60828 33.5038C7.8771 33.9237 8.03426 34.2087 8.2584 34.6546L8.19597 35.0689C8.07575 35.0069 8.02173 34.839 7.94511 34.6956L7.93207 34.6684C7.61429 34.0198 7.39543 33.783 6.88232 33.284Z" fill="#29031B"/>
<path d="M8.67982 40.1289C8.76723 40.496 8.79504 40.6204 8.95849 40.956C9.82233 41.6178 11.3233 42.148 12.385 42.0854C12.3533 42.4762 12.2922 43.0555 12.2887 43.4376C12.1368 43.7786 12.1783 44.6796 11.8354 45.1373C11.1079 45.671 8.64607 43.7248 7.95452 43.2968C7.81554 43.2107 7.44901 42.7325 7.32764 42.5736C7.79323 42.1002 7.9577 41.8399 8.23102 41.2638C8.43597 40.8255 8.54511 40.5967 8.67982 40.1289Z" fill="#E36C7E"/>
<path d="M7.6084 33.5028C8.00635 32.79 8.81899 32.5642 9.43428 32.0344C9.68421 31.8191 9.85563 31.6893 10.1703 31.7912C11.1817 32.8772 9.7462 34.1659 8.88222 34.6785C8.68871 34.7932 8.57921 34.7866 8.39511 34.9633L8.25852 34.6536C8.03438 34.2077 7.87723 33.9226 7.6084 33.5028Z" fill="white"/>
<path d="M10.5806 34.5488C10.7729 34.6574 10.8774 34.8381 10.9084 35.0512C10.8755 35.3163 10.7633 35.3895 10.5681 35.5753C10.3071 35.3843 10.2458 35.2959 10.2109 34.9808C10.2989 34.7392 10.3754 34.7029 10.5806 34.5488Z" fill="white"/>
<path d="M51.4861 28.8113C52.165 28.6329 52.4934 28.7 53.1513 28.9518L53.4825 29.1506L53.6442 29.0713L53.6489 28.9999L53.7718 28.9161C53.8371 28.9553 53.8664 28.9589 53.9013 29.0135C54.3258 29.2806 54.8196 29.4073 55.2873 29.5867C56.341 29.9883 57.2174 30.7516 57.7599 31.7401C58.0703 32.1624 57.9101 32.3516 57.6425 32.7575L57.7774 32.8966C57.9449 32.7391 57.9924 32.6715 58.2279 32.653C59.8808 33.0355 59.6357 37.846 59.33 39.0657C59.1573 39.7549 58.8478 40.3029 58.0795 40.3055L57.9435 40.3749L57.9135 40.5548C58.5333 42.1432 54.884 43.736 53.7945 44.2104L53.6868 44.1841L53.7321 43.9871L53.6217 43.7004C52.8167 45.0061 51.8995 44.7555 50.5645 44.6158C51.092 43.1869 51.1888 42.5298 51.3875 41.0293C51.5914 38.9476 51.383 35.9119 51.2596 33.7889C50.9927 32.4875 50.9933 31.5153 50.6121 29.9927C50.8586 29.4865 51.0477 29.1673 51.4861 28.8113Z" fill="#9072B7"/>
<path d="M53.1511 28.9517L53.4823 29.1505L53.6441 29.0713L53.6487 28.9999L53.7716 28.916C53.837 28.9553 53.8663 28.9589 53.9012 29.0135C54.3257 29.2806 54.8194 29.4072 55.2872 29.5866C56.3408 29.9882 57.2173 30.7515 57.7597 31.7401C58.0701 32.1623 57.91 32.3515 57.6423 32.7575L57.7772 32.8966C57.9448 32.7391 57.9923 32.6714 58.2278 32.653C59.8807 33.0355 59.6356 37.8459 59.3299 39.0656C59.1572 39.7548 58.8476 40.3029 58.0794 40.3054L57.9433 40.3749L57.9133 40.5548C57.7721 40.3493 57.7264 39.9897 57.6759 39.7333C57.4958 39.9365 57.334 40.1207 57.1669 40.3346C56.4859 40.5196 55.5424 40.6773 54.849 40.5164C55.2047 37.9424 55.0027 36.1515 54.8138 33.642C54.5993 32.8102 54.5311 31.5183 54.2792 30.4922C54.11 30.4481 54.0572 30.4035 53.9108 30.4516C53.7668 30.0566 53.6381 29.7653 53.4633 29.3855L53.1511 28.9517Z" fill="#F796A0"/>
<path d="M57.7774 32.8969C57.9449 32.7394 57.9924 32.6718 58.2279 32.6533C59.8808 33.0358 59.6357 37.8463 59.33 39.066C59.1573 39.7552 58.8477 40.3033 58.0795 40.3058L57.9434 40.3752L57.9134 40.5551C57.7722 40.3497 57.7265 39.99 57.676 39.7337C57.3551 38.1488 57.1583 34.1758 57.6424 32.7578L57.7774 32.8969Z" fill="#723E95"/>
<path d="M57.6757 39.7336C57.3548 38.1488 57.158 34.1758 57.6422 32.7578L57.7771 32.8969C57.2424 34.731 57.8781 38.3319 58.0792 40.3058L57.9432 40.3752L57.9132 40.5551C57.772 40.3497 57.7263 39.99 57.6757 39.7336Z" fill="#14082B"/>
<path d="M53.1511 28.9517L53.4823 29.1505L53.6441 29.0713L53.6487 28.9999L53.7716 28.916C53.837 28.9553 53.8663 28.9589 53.9012 29.0135L53.7865 29.098C53.9367 29.4972 54.2151 30.104 54.2792 30.4922C54.11 30.4481 54.0572 30.4035 53.9108 30.4516C53.7668 30.0566 53.6381 29.7653 53.4633 29.3855L53.1511 28.9517Z" fill="#2E0948"/>
<path d="M55.1328 30.6963C55.2656 30.745 55.5282 30.8566 55.6559 30.8566C56.0545 31.0181 56.3738 31.1659 56.7597 31.3533C56.7921 31.9364 56.7556 33.0218 56.6377 33.5933C56.5286 34.1221 56.3814 34.1864 55.9504 34.4547C55.7098 33.9016 55.0602 31.2218 55.1328 30.6963Z" fill="white"/>
<path d="M57.6756 39.7344C57.7262 39.9907 57.7719 40.3504 57.9131 40.5559C58.5329 42.1442 54.8836 43.737 53.7941 44.2115L53.6864 44.1851L53.7317 43.9881L53.6213 43.7015C53.8342 43.204 53.9748 42.8682 54.1286 42.3517C54.2298 42.4567 54.3473 42.5534 54.3861 42.6899C54.5787 42.1179 54.7271 41.147 54.8488 40.5175C55.5422 40.6784 56.4857 40.5207 57.1666 40.3357C57.3337 40.1218 57.4956 39.9376 57.6756 39.7344Z" fill="#E36C7E"/>
<path d="M54.1286 42.3506C54.2298 42.4556 54.3473 42.5524 54.3861 42.6888C54.1775 43.1959 54.053 43.5366 53.7317 43.987L53.6213 43.7004C53.8342 43.2029 53.9748 42.8671 54.1286 42.3506Z" fill="#2E0948"/>
<path d="M53.9106 30.4524C54.057 30.4043 54.1098 30.4489 54.279 30.493C54.5309 31.5191 54.5991 32.811 54.8136 33.6428C55.0025 36.1523 55.2045 37.9432 54.8489 40.5172C54.7271 41.1467 54.5787 42.1176 54.3862 42.6896C54.3473 42.5532 54.2299 42.4564 54.1287 42.3514C54.2268 41.9156 54.4041 41.2951 54.3683 40.8705C54.5593 37.0735 54.6285 34.2128 53.9106 30.4524Z" fill="#562871"/>
<path d="M51.4365 44.5589C52.8911 44.5709 53.355 44.1809 53.814 42.7452C54.0094 42.1341 54.1715 41.4805 54.3687 40.8701C54.4044 41.2948 54.2271 41.9152 54.129 42.3511C53.9751 42.8676 53.8346 43.2034 53.6217 43.7008C52.8167 45.0065 51.8995 44.7559 50.5645 44.6163C51.092 43.1873 51.1888 42.5302 51.3875 41.0297C51.9739 41.3 52.326 41.2132 52.9601 41.1465L52.9333 41.2285C52.3396 41.4002 51.8449 41.097 51.4606 41.5858L51.4959 41.7045L52.6469 42.1627C52.7981 42.1015 52.9055 41.6229 53.0388 41.3911L53.1012 41.5225C53.0501 42.3634 51.9952 43.9529 51.4365 44.5589Z" fill="#61388D"/>
<path d="M51.4858 28.8115C51.7264 29.3524 51.5949 30.1602 51.6396 30.7731C51.5994 31.5899 51.5421 32.3719 51.3 33.159C51.2428 33.345 51.2538 33.5934 51.2593 33.7892C50.9924 32.4878 50.993 31.5155 50.6118 29.9929C50.8583 29.4867 51.0474 29.1675 51.4858 28.8115Z" fill="#65419F"/>
<path d="M51.4858 28.8113C52.1648 28.6329 52.4932 28.7 53.151 28.9518L53.4632 29.3855C53.1211 29.3774 52.0892 29.2887 51.8584 29.4297C51.5935 29.8185 51.7225 30.3264 51.6397 30.7729C51.595 30.1599 51.7264 29.3521 51.4858 28.8113Z" fill="#7E5ABA"/>
<path d="M31.3165 14.0368C33.2718 13.8271 35.981 14.2141 37.8924 14.7017C38.8 14.9332 39.7007 15.2785 40.6328 15.4596C39.6459 16.1289 39.4124 16.3617 38.7773 17.3542C37.0202 16.5909 33.9932 16.1952 32.0927 16.3051C30.555 16.3475 26.2618 17.1807 24.9826 17.9598C24.2334 17.2683 23.7677 16.8902 23.0647 16.1158C24.0224 15.7902 25.0021 15.3569 25.9627 15.0483C27.7195 14.484 29.484 14.1765 31.3165 14.0368Z" fill="#9AC7EB"/>
<path d="M13.4575 46.4668C13.8443 46.534 14.2809 46.5803 14.6192 46.7678C15.0371 47.0536 16.0927 47.3391 16.2253 47.4677C17.5004 48.7042 19.0249 49.3877 20.494 50.291C20.0698 50.4409 19.782 50.5404 19.3414 50.6437C19.0587 51.0903 18.8708 51.2473 18.4828 51.6007C18.418 51.6616 18.3391 51.7359 18.2462 51.8234C17.5375 51.9194 16.8334 51.5542 16.0508 51.7149C15.1823 51.8931 14.7821 52.129 14.0748 52.5725C13.8715 51.0434 13.214 49.4778 13.556 47.948C13.7001 47.3028 13.6209 47.0767 13.4575 46.4668Z" fill="#7E5ABA"/>
<path d="M14.6193 46.7676C15.0372 47.0534 16.0928 47.3389 16.2254 47.4675C17.5005 48.704 19.025 49.3875 20.4941 50.2908C20.0699 50.4407 19.7821 50.5402 19.3415 50.6435C19.0587 51.0901 18.8709 51.2471 18.4829 51.6005C18.5899 51.0741 18.9769 51.13 18.7422 50.7687C18.6838 50.75 18.4696 50.6743 18.4359 50.6386C17.5986 49.752 16.5126 49.1763 15.6231 48.3564C15.2971 48.054 14.9998 47.7219 14.7351 47.3647C14.5174 47.0661 14.5643 47.1287 14.6193 46.7676Z" fill="#61388D"/>
<path d="M10.6082 45.8945C11.0863 45.9898 11.7569 46.1033 12.1975 46.2641C12.6555 48.4765 13.0939 50.3597 13.6137 52.5609C12.165 50.8288 10.6158 49.804 8.26788 49.5941C7.64556 49.5377 7.01847 49.5647 6.40332 49.6744C6.49711 49.4319 6.62116 49.0753 6.74747 48.8599C6.84074 48.7781 6.95083 48.6536 7.0386 48.5607C8.55561 47.011 9.16742 47.0686 10.6082 45.8945Z" fill="#A15CBB"/>
<path d="M49.7612 45.999C49.9221 46.1079 49.9434 46.1391 50.1288 46.1476C50.4108 46.2566 50.6991 46.1477 51.0064 46.1318C50.8856 46.2864 50.8083 46.3663 50.7506 46.5581C51.0712 46.5111 51.2145 46.5438 51.483 46.7443C51.5188 46.7711 51.554 46.7988 51.5886 46.8272C51.6229 47.0422 51.6665 47.399 51.7438 47.5868C51.8927 49.3279 51.4898 50.1758 51.3881 51.7155C50.6885 51.2074 48.5257 50.2022 47.6905 50.4546C47.614 50.4969 47.5377 50.557 47.4563 50.5412C47.106 50.4732 45.8808 49.6267 45.7002 49.4264C45.7345 49.0049 46.6166 48.8486 46.8957 48.631C47.5084 48.1532 49.3336 46.549 49.7414 46.0247L49.7612 45.999Z" fill="#7E5ABA"/>
<path d="M49.7612 45.999C49.9221 46.1079 49.9434 46.1391 50.1288 46.1476C50.4108 46.2566 50.6991 46.1477 51.0064 46.1318C50.8856 46.2864 50.8083 46.3663 50.7506 46.5581C49.8436 47.5501 49.226 48.5877 48.1992 49.4834C47.9301 49.7181 47.5345 50.0228 47.5151 50.3274C47.574 50.3765 47.6222 50.427 47.6905 50.4546C47.614 50.4969 47.5377 50.557 47.4563 50.5412C47.106 50.4732 45.8808 49.6267 45.7002 49.4264C45.7345 49.0049 46.6166 48.8486 46.8957 48.631C47.5084 48.1532 49.3336 46.549 49.7414 46.0247L49.7612 45.999Z" fill="#61388D"/>
<path d="M53.2096 45.2875C53.4172 45.2655 53.6352 45.2421 53.8395 45.1832C54.1247 45.1011 54.4287 44.6421 54.6819 44.7808C54.7342 44.8676 54.7987 44.9747 54.8756 45.1021C55.2455 45.2522 55.7856 45.5525 56.1353 45.6833C56.8201 45.9392 58.3514 47.1225 58.5061 47.8053C58.3566 48.3082 57.5479 48.104 57.082 48.2097C55.4628 48.5774 53.692 49.4622 52.5743 50.7036C52.4284 50.9338 52.0851 51.3353 51.9028 51.5617C52.0223 50.9127 52.1364 50.2517 52.2845 49.6095C52.3285 49.022 52.4834 48.3307 52.6483 47.7644L52.954 46.844C52.851 46.554 52.8334 45.8572 52.8128 45.5127C52.9175 45.4385 53.0921 45.3511 53.2096 45.2875Z" fill="#7E5ABA"/>
<path d="M52.8125 45.5143C52.9171 45.4401 53.0918 45.3526 53.2093 45.2891L53.1799 45.4758C53.5656 45.9377 53.2051 46.3581 52.9537 46.8456C52.8507 46.5556 52.8331 45.8588 52.8125 45.5143Z" fill="#61388D"/>
<path d="M51.9028 51.5625C52.0223 50.9136 52.1364 50.2525 52.2845 49.6104C52.2935 49.9227 52.2505 50.3698 52.3861 50.6164L52.5743 50.7044C52.4284 50.9346 52.0851 51.3362 51.9028 51.5625Z" fill="#61388D"/>
<path d="M43.6453 50.0794L44.8083 49.4746C45.106 49.8395 45.8679 50.5248 46.2586 50.8384C46.3247 51.0585 46.3673 51.3229 46.5535 51.4392C46.9949 51.3923 46.8972 51.2381 47.2616 51.3074C47.4169 51.5348 47.3898 51.4314 47.3731 51.6948C47.0198 52.3164 46.1401 52.7127 45.4768 52.8958C45.401 52.9165 45.3251 52.9367 45.2491 52.9564C45.2136 52.9702 44.9259 53.1522 44.8563 53.1887C44.2991 53.4808 43.7606 53.2547 43.2056 53.086C43.5478 52.5169 43.5519 52.3324 44.2383 52.2079C43.1948 51.2641 43.5633 51.4403 43.6453 50.0794Z" fill="#65419F"/>
<path d="M44.2383 52.208C44.5008 52.426 45.1184 52.8061 45.2491 52.9566C45.2136 52.9704 44.9259 53.1523 44.8563 53.1888C44.2991 53.481 43.7606 53.2549 43.2056 53.0862C43.5478 52.517 43.5519 52.3325 44.2383 52.208Z" fill="#61388D"/>
<path d="M15.9023 12.9629C16.7987 13.2472 18.213 13.8078 18.979 14.3387C17.9433 15.0102 17.2331 15.4094 16.3543 16.2781C15.9105 16.775 15.4451 17.3254 14.9375 17.7503C15.096 15.9937 15.1706 14.5962 15.9023 12.9629Z" fill="#65419F"/>
<path d="M15.0332 23.2865C15.337 22.8125 15.7385 22.1634 16.1655 21.7815C16.2759 21.6827 16.2753 21.7188 16.3851 21.5762C16.4145 21.9049 16.427 22.2241 16.5368 22.5356C16.581 22.884 16.6634 23.9638 16.8825 24.1452C15.817 24.7676 15.6303 26.2465 15.1295 26.4979C14.149 25.8993 15.1015 24.1313 15.0332 23.2865Z" fill="#14082B"/>
<path d="M56.7317 43.4697C57.42 43.4715 58.3477 46.368 58.6089 46.9441C58.2553 46.7107 57.9 46.4108 57.5674 46.1441C57.0423 45.7257 55.8979 45.0863 55.2151 44.5952L55.2159 44.4825C55.7556 44.1181 56.2026 43.8683 56.7317 43.4697Z" fill="#472B82"/>
<path d="M45.9628 12.1973C46.9692 12.1833 47.6337 14.4825 47.9706 15.3025C47.7105 15.1581 47.3231 14.8878 47.0632 14.7186C46.6477 14.4476 46.065 14.1291 45.6236 13.9094C44.0748 13.1382 44.9215 12.6997 45.9628 12.1973Z" fill="#65419F"/>
<path d="M7.02612 47.3497C7.21283 47.1293 7.11947 47.0682 7.2108 46.8334C7.56704 45.9182 7.93486 45.254 8.82956 44.792C9.23787 45.0271 10.0221 45.5082 10.4222 45.6853C9.46049 46.1337 8.2814 47.1014 7.25736 47.6438L7.02612 47.3497Z" fill="#472B82"/>
<path d="M49.8178 24.0239L50.1035 23.6182C50.4649 24.5141 51.4852 27.032 51.4721 27.9846L51.3934 28.1325L51.2428 28.1729C50.956 27.966 49.8675 25.4326 49.5762 24.8862C49.6645 24.6076 49.7682 24.3096 49.8178 24.0239Z" fill="#9AC7EB"/>
<path d="M51.7809 45.5191C51.96 45.8004 51.6787 45.871 52.1072 46.1423C52.3854 46.0793 52.632 45.7479 52.8128 45.5127C52.8334 45.8572 52.8509 46.554 52.954 46.844L52.6482 47.7644C52.6192 47.5668 52.6227 47.4282 52.4974 47.2788C52.197 47.2271 52.0724 47.3935 51.7437 47.5854C51.6664 47.3976 51.6228 47.0408 51.5885 46.8258C51.5539 46.7974 51.5187 46.7697 51.483 46.7429C51.2144 46.5424 51.0712 46.5097 50.7505 46.5567C50.8082 46.365 50.8856 46.285 51.0063 46.1305C51.3965 45.7728 50.9866 45.713 51.7809 45.5191Z" fill="#14082B"/>
<path d="M51.0063 46.1308C51.3965 45.7732 50.9866 45.7134 51.7809 45.5195C51.748 45.9998 51.6176 46.4302 51.5885 46.8262C51.5539 46.7978 51.5187 46.7701 51.483 46.7433C51.2144 46.5428 51.0712 46.5101 50.7505 46.5571C50.8082 46.3653 50.8856 46.2854 51.0063 46.1308Z" fill="#65419F"/>
<path d="M48.1539 21.7822C48.7017 21.9584 48.8182 23.535 48.608 23.8836C47.9639 23.1492 47.8016 22.7134 48.1539 21.7822Z" fill="#0A0514"/>
<path d="M13.9157 26.7324C14.265 27.1152 14.1558 28.169 13.7499 28.6108C13.5857 28.5232 13.6434 28.5861 13.5693 28.4177C13.5863 27.939 13.7199 27.1668 13.9157 26.7324Z" fill="#D4E2F1"/>
<path d="M6.74768 48.8608C6.61645 48.455 6.80265 47.7022 7.02621 47.3506L7.25745 47.6447C7.12753 47.9972 6.96965 48.2367 7.03881 48.5616C6.95104 48.6545 6.84096 48.7789 6.74768 48.8608Z" fill="#61388D"/>
<path d="M49.7612 45.9987C50.0008 45.6924 50.2803 45.3364 50.6813 45.6686C50.6564 46.0181 50.4391 46.0333 50.1288 46.1473C49.9434 46.1388 49.9222 46.1076 49.7612 45.9987Z" fill="#61388D"/>
<path d="M15.0068 46.1211C15.3852 46.1364 15.8432 46.4089 15.6105 46.8221C15.3684 46.7495 15.0625 46.6853 14.8872 46.5149C14.8414 46.2942 14.8514 46.3648 15.0068 46.1211Z" fill="#61388D"/>
<path d="M19.5758 51.2822L19.6902 51.3533L19.7053 51.4835C19.3833 51.7698 19.1896 51.9671 18.9002 52.2803C18.7708 52.2202 18.8145 52.2506 18.7358 52.1028C18.8212 51.8489 19.3415 51.4817 19.5758 51.2822Z" fill="#61388D"/>
<path d="M12.7776 46.4834C13.2552 46.5833 13.2552 47.3447 13.3053 47.7608C13.0192 47.5872 12.7428 46.8192 12.7776 46.4834Z" fill="#61388D"/>
<path d="M49.8181 24.0245C49.8103 23.7254 49.8007 23.6071 49.8648 23.3164L49.9626 23.3292L50.1038 23.6188L49.8181 24.0245Z" fill="#82B3E4"/>
</svg>
