<svg width="66" height="70" viewBox="0 0 66 70" fill="none" xmlns="http://www.w3.org/2000/svg">
<path d="M3.04757 47.2516C2.62999 45.7236 1.9102 44.2286 1.49982 42.4939C-0.385309 34.6034 0.425289 26.3088 3.80238 18.9325C7.37794 11.1412 13.8831 5.07527 21.9049 2.05209C27.4817 -0.0174411 32.2463 -0.337087 38.1266 0.282019C42.6211 0.75524 46.2806 1.81924 50.3654 3.69393C51.4598 3.98611 52.8043 3.95101 53.72 4.41078C54.4267 5.46785 54.5376 6.43402 53.4985 7.33405C54.0796 8.00931 54.7709 8.59216 55.3952 9.22848C56.106 9.95286 56.7881 10.7412 57.4148 11.5404C63.0704 18.6768 65.8027 27.6957 65.0587 36.7709C64.8505 39.5673 64.4188 42.3525 63.5806 45.0307C63.5237 45.6334 63.5615 46.0263 63.6061 46.6339C63.5002 47.3641 63.3491 47.3922 62.5903 47.4283C62.1803 49.0401 61.3527 50.3882 60.4946 51.7985C60.2257 52.2407 59.8223 52.7468 59.5933 53.19C61.3104 53.0642 62.8922 52.5661 64.5793 52.3033C64.7988 52.2691 65.1666 52.4051 65.2828 52.5926C65.8113 53.4455 64.9633 54.785 64.6967 55.6125C64.3763 56.6073 63.7527 57.6117 63.4956 58.5842C63.9209 59.8622 65.7621 62.6319 65.4401 63.6019C65.0817 64.0411 60.7931 64.8282 60.0551 64.8413C60.0822 64.9747 60.0908 65.1088 60.101 65.2443C60.1486 65.8789 60.2274 66.6397 59.7679 67.1505C58.5414 68.5142 46.479 69.6742 44.2615 69.7758C34.5695 70.2195 24.9435 70.0578 15.3169 68.7974C13.2389 68.5254 11.1664 68.3087 9.11202 67.887C8.43457 67.748 6.3403 67.4603 5.88226 66.9988C5.3825 66.4954 5.49993 65.2428 5.50068 64.5693C4.19564 64.4632 2.77257 64.0942 1.4385 63.9779C-0.897277 63.7742 0.342479 61.9769 0.964726 60.7257C1.35723 59.9225 1.74495 59.117 2.12789 58.3092C1.5162 57.3899 0.699651 54.5261 0.152636 53.4234C-1.03807 51.023 5.09748 52.7162 6.09693 52.9409C5.60854 52.2422 3.43308 48.3826 3.08335 48.2153C2.75766 47.9128 2.8848 47.5801 3.04757 47.2516ZM11.6752 45.4402C11.5954 45.9099 11.4664 47.2198 11.5032 47.6839L11.5511 47.6902C11.7025 47.3223 11.7313 47.0634 11.7946 46.6761C11.6079 46.3435 11.6783 45.8764 11.6752 45.4402Z" fill="#000001"/>
<path d="M58.2008 23.9043L58.3186 24.0144C58.4583 24.2629 58.5228 24.3661 58.6054 24.6416L58.706 25.1223C58.6237 25.1989 58.4403 25.3596 58.3778 25.4384C58.1067 25.3714 58.0399 25.3093 57.7956 25.5162C57.711 25.3096 57.6641 25.1583 57.6001 24.9462L57.6145 24.8017L57.914 24.0062L58.2008 23.9043Z" fill="#EEAB7F"/>
<path d="M62.0509 47.3477C62.2489 47.3568 62.4116 47.3473 62.5903 47.4282C62.1803 49.04 61.3527 50.388 60.4946 51.7984C60.2257 52.2406 59.8223 52.7466 59.5933 53.1899C61.3104 53.064 62.8922 52.566 64.5793 52.3032C64.7988 52.269 65.1666 52.405 65.2828 52.5925C65.8113 53.4454 64.9633 54.7849 64.6967 55.6124C64.3763 56.6071 63.7527 57.6116 63.4956 58.584C63.9209 59.8621 65.7621 62.6317 65.4401 63.6018C65.0817 64.041 60.7931 64.8281 60.0551 64.8412C60.0822 64.9746 60.0908 65.1086 60.101 65.2442C60.1486 65.8787 60.2274 66.6396 59.7679 67.1504C58.5414 68.514 46.479 69.6741 44.2615 69.7757C34.5695 70.2194 24.9435 70.0576 15.3169 68.7973C13.2389 68.5253 11.1664 68.3086 9.11202 67.8869C8.43457 67.7479 6.3403 67.4601 5.88226 66.9987C5.3825 66.4952 5.49993 65.2426 5.50068 64.5692C4.19564 64.463 2.77257 64.094 1.4385 63.9777C-0.897277 63.7741 0.342479 61.9768 0.964726 60.7255C1.35723 59.9224 1.74495 59.1169 2.12789 58.309C1.5162 57.3898 0.699651 54.526 0.152636 53.4232C-1.03807 51.0229 5.09748 52.7161 6.09693 52.9408C5.60854 52.242 3.43308 48.3825 3.08335 48.2152C3.46863 48.0955 4.64539 47.9389 5.03097 48.0819C5.84392 48.1376 6.6803 48.1115 7.33493 48.6142C7.38977 48.9632 7.68307 49.3835 7.86483 49.7059C9.05756 51.8208 10.6388 53.5302 12.3193 55.268C12.6779 55.6387 13.3726 56.3324 13.7746 56.7166C13.7672 56.7491 13.7596 56.7817 13.7521 56.8142L13.6387 56.859C13.9821 57.0242 14.262 56.9996 14.6399 57.0037L14.783 57.0518C15.4335 57.1368 18.3703 57.675 18.744 57.4995L19.0788 57.8628L19.3394 57.8264C19.32 56.7636 19.6382 56.5759 20.089 55.6219C20.2158 55.643 20.343 55.6618 20.4705 55.6786C20.7336 55.7121 20.9228 55.7378 21.1391 55.5691C21.3782 55.9423 21.5182 56.3302 21.854 56.544C21.9993 56.9646 22.8482 57.3409 23.1197 58.0419C23.1383 58.2932 23.1131 58.196 23.2764 58.4339L23.7487 58.9029C24.7125 58.7638 24.5613 58.8647 24.9355 58.0524C24.9893 57.9358 25.2173 57.8231 25.3592 57.806L25.5738 57.9849L25.7114 57.9494C26.1036 58.0212 26.304 58.0386 26.7034 58.0541C26.8336 58.0571 27.0631 58.0068 27.1997 57.982C27.7052 58.1555 34.3823 58.0847 35.5531 58.1453L35.7683 58.196C36.355 58.1764 37.5349 58.0856 38.066 58.1147C38.0953 58.1284 38.1246 58.142 38.1548 58.1534C38.3567 58.2298 42.8381 58.2345 43.2467 58.1891C43.5187 58.1589 43.7531 58.0676 44.0004 57.9545L44.0788 57.8616C44.4614 57.9147 44.6124 57.6978 45.0761 57.7931C45.4264 58.0316 49.9552 57.4931 50.5303 57.3216C51.5975 56.5425 52.5885 55.4939 53.6241 54.6481C54.3786 54.0319 55.0996 53.095 55.7231 52.3369C55.979 52.2097 56.1017 52.091 56.3178 51.9069L56.421 52.0194C56.7088 51.6161 56.9739 51.2453 57.2368 50.8249C57.5012 50.6423 57.8349 49.8055 57.8862 49.4702C58.9659 48.3376 59.3178 47.726 60.8809 47.4206C61.2946 47.3674 61.636 47.3599 62.0509 47.3477Z" fill="#6E42A2"/>
<path d="M62.0511 47.3477C62.2491 47.3568 62.4118 47.3473 62.5905 47.4282C62.1805 49.04 61.3529 50.388 60.4948 51.7984C60.2259 52.2406 59.8225 52.7466 59.5935 53.1899C61.3106 53.064 62.8923 52.566 64.5795 52.3032C64.799 52.269 65.1668 52.405 65.283 52.5925C65.8115 53.4454 64.9635 54.7849 64.6969 55.6124C64.3765 56.6071 63.7529 57.6116 63.4958 58.584C63.9211 59.8621 65.7623 62.6317 65.4403 63.6018C65.0819 64.041 60.7933 64.8281 60.0553 64.8412C60.0391 65.0006 60.0296 65.1724 59.9866 65.3253C59.9095 65.2454 59.927 65.166 59.9088 65.0272L59.837 65.1464L59.7732 65.1509C59.7316 64.9153 59.5465 64.6837 59.5502 64.4902C59.5666 63.6147 59.5682 62.7385 59.5845 61.8628C59.6288 60.1074 59.6493 58.3515 59.6459 56.5955C57.8826 56.8299 55.9542 57.3542 54.2084 57.5139C50.8585 57.8204 47.4407 58.4422 44.0863 58.4625C42.7485 58.4707 37.9185 59.1241 36.9453 58.7359C37.9711 58.7217 43.2085 58.6791 43.7469 58.2737C43.8312 58.2102 43.9182 58.1508 44.0009 58.0851L44.0006 57.9545L44.079 57.8616C44.4616 57.9147 44.6125 57.6978 45.0763 57.7931C45.4266 58.0316 49.9554 57.4931 50.5305 57.3216C51.5977 56.5425 52.5887 55.4939 53.6243 54.6481C54.3788 54.0319 55.0998 53.095 55.7233 52.3369C55.9792 52.2097 56.1019 52.091 56.318 51.9069L56.4212 52.0194C56.709 51.6161 56.9741 51.2453 57.237 50.8249C57.5014 50.6423 57.8351 49.8055 57.8864 49.4702C58.9661 48.3376 59.318 47.726 60.8811 47.4206C61.2948 47.3674 61.6362 47.3599 62.0511 47.3477Z" fill="#623996"/>
<path d="M60.8809 47.4206C61.2946 47.3674 61.636 47.3599 62.0508 47.3477C61.6673 48.7519 58.9401 53.0855 57.9959 54.3054C57.4599 54.9978 56.5549 55.79 56.1264 56.64C54.5858 56.8532 52.6669 57.0457 51.1775 57.314C50.9578 57.4147 50.7712 57.3594 50.5303 57.3216C51.5974 56.5425 52.5885 55.4939 53.6241 54.6481C54.3786 54.0319 55.0996 53.095 55.7231 52.3369C55.979 52.2097 56.1017 52.091 56.3178 51.9069L56.4209 52.0194C56.7088 51.6161 56.9739 51.2453 57.2368 50.8249C57.5012 50.6423 57.8349 49.8055 57.8862 49.4702C58.9659 48.3376 59.3178 47.726 60.8809 47.4206Z" fill="#BB99D3"/>
<path d="M56.3178 51.9072L56.4209 52.0197C55.6954 53.1804 53.3968 55.3718 52.3158 56.3669C52.054 56.6079 51.2136 57.064 51.1775 57.3143C50.9578 57.415 50.7712 57.3597 50.5303 57.3219C51.5974 56.5428 52.5885 55.4942 53.6241 54.6484C54.3786 54.0322 55.0996 53.0953 55.7231 52.3372C55.979 52.21 56.1017 52.0913 56.3178 51.9072Z" fill="#7E5CB0"/>
<path d="M9.60696 56.257C8.43321 54.8696 4.42334 49.8566 4.38281 48.1708C4.50423 48.0459 4.78805 48.0949 5.03134 48.082C5.8443 48.1377 6.68068 48.1116 7.33531 48.6143C7.39014 48.9634 7.68345 49.3837 7.8652 49.706C9.05793 51.821 10.6392 53.5303 12.3197 55.2681C12.6782 55.6388 13.373 56.3326 13.775 56.7167C13.7675 56.7492 13.76 56.7818 13.7525 56.8143L13.6391 56.8591C13.2749 56.7459 10.3134 56.3907 9.60696 56.257Z" fill="#BB99D3"/>
<path d="M20.0888 55.6221C20.2157 55.6432 20.3428 55.6621 20.4703 55.6789C20.7334 55.7124 20.9227 55.7381 21.139 55.5693C21.3781 55.9426 21.5181 56.3305 21.8539 56.5442C21.9992 56.9648 22.848 57.3411 23.1195 58.0422C22.115 58.1218 20.3036 57.9851 19.3392 57.8266C19.3198 56.7638 19.638 56.5761 20.0888 55.6221Z" fill="#6E42A2"/>
<path d="M14.7831 57.0518C15.4337 57.1367 18.3704 57.675 18.7441 57.4994L19.079 57.8627L19.1426 57.9386C18.5174 57.9985 16.1414 57.8313 15.3739 57.7901C15.438 57.7217 15.7573 57.6892 15.8153 57.7024C16.4076 57.8371 16.9837 57.863 17.5941 57.741L17.6271 57.6814C17.0844 57.4005 15.5154 57.3408 14.78 57.1501L14.7831 57.0518Z" fill="#442A78"/>
<path d="M19.3396 57.8262C20.304 57.9847 22.1154 58.1214 23.1199 58.0417C23.1385 58.293 23.1134 58.1958 23.2767 58.4336C22.1659 58.3234 20.1064 58.2859 19.1427 57.9385L19.0791 57.8626L19.3396 57.8262Z" fill="#11052C"/>
<path d="M39.2352 61.9182C39.8353 61.8803 40.2439 61.9127 40.8341 61.9909C41.548 62.6972 41.7149 63.1517 40.9986 63.9021C41.9443 64.7861 41.9538 65.2141 41.1062 66.1679C40.8164 66.4433 38.9949 66.3235 38.5014 66.3129C38.458 65.4961 38.2926 62.6813 38.54 62.0622C38.7159 61.9152 38.9971 61.9321 39.2352 61.9182Z" fill="white"/>
<path d="M39.4743 64.4524C39.8671 64.4508 40.3178 64.3918 40.5887 64.7187C40.662 65.0427 40.6378 64.9543 40.5351 65.3041C40.1227 65.4194 39.863 65.5455 39.5165 65.2689C39.4026 65.0236 39.4535 64.7281 39.4743 64.4524Z" fill="#6D4A9F"/>
<path d="M39.5071 62.7063C39.9196 62.6761 40.2993 62.6888 40.4664 63.1169C40.4426 63.3753 40.3654 63.4308 40.1933 63.6161C40.0444 63.6779 39.9209 63.7 39.7659 63.7348C39.5017 63.6543 39.5905 63.7205 39.4363 63.4815C39.3908 63.1535 39.433 63.0319 39.5071 62.7063Z" fill="#6D4A9F"/>
<path d="M20.7034 61.5372C20.9612 61.5132 21.2749 61.4631 21.4843 61.6153C22.1639 62.1094 22.4353 63.1977 22.5892 63.9659C23.0922 63.3314 23.4296 62.6159 23.8591 61.9332C24.079 61.5837 24.4898 61.5868 24.7937 61.8089C24.9487 62.2403 24.8599 64.6068 24.8525 65.1789C24.8489 65.4545 24.7475 65.896 24.4997 66.1004C23.9082 66.1986 23.9012 65.8825 23.8467 65.4465C23.8599 65.1169 23.9583 64.1859 23.7323 63.9735C23.5112 64.1185 23.3825 64.5109 23.2697 64.7687C23.0346 64.9284 22.801 65.0902 22.5688 65.254C22.2639 64.851 21.7936 63.9918 21.522 63.5268C21.3821 64.2828 21.5104 65.2205 21.1385 65.7916C20.9062 65.9303 21.0124 65.9113 20.7402 65.8579C20.5927 65.7185 20.5736 65.6722 20.5105 65.4876C20.3392 64.986 20.521 61.8569 20.7034 61.5372Z" fill="white"/>
<path d="M30.0983 61.9107C30.2433 61.9071 30.3882 61.9044 30.5332 61.9026C31.5992 61.8899 32.0748 61.908 32.836 62.653C32.9012 63.7666 33.0248 63.9528 32.1636 64.6585C32.1625 64.905 32.602 65.3842 32.6994 65.6578C32.7811 65.8868 32.8143 66.0859 32.8557 66.3228C32.4428 66.3388 32.2381 66.3437 31.8181 66.2971C31.6745 65.8695 31.4479 64.9815 30.9541 64.9022C30.5952 65.1835 30.6617 65.8752 30.648 66.308L29.6647 66.3065C29.6744 65.3941 29.6036 63.0057 29.7631 62.027C29.7738 61.9619 29.9951 61.9339 30.0983 61.9107Z" fill="white"/>
<path d="M30.8075 62.7021C30.927 62.7168 31.0462 62.7341 31.1651 62.7537C31.9151 62.877 31.9297 63.265 31.7376 63.8913L30.7144 63.9286C30.7191 63.5128 30.7022 63.1035 30.8075 62.7021Z" fill="#6D4A9F"/>
<path d="M26.9898 61.7999C27.2321 61.7976 27.8566 61.8418 27.9129 62.0872C28.0823 62.8261 29.3685 65.7491 29.2851 66.2229C29.0361 66.336 28.5845 66.3003 28.2943 66.298C28.2202 65.8296 28.303 65.4413 27.8188 65.3606L26.612 65.3348C26.468 65.6209 26.3183 65.9915 26.0722 66.1808C25.7896 66.301 25.3329 66.1498 25.3178 66.0353C25.2219 65.3058 26.7422 62.2601 26.9898 61.7999Z" fill="white"/>
<path d="M43.5384 61.751L44.3993 61.7518C44.8322 63.1992 45.7692 64.7566 45.9761 65.9721C45.6067 66.0584 45.2265 66.084 44.8486 66.1198C44.7858 65.8424 44.7317 65.4553 44.5561 65.2479L44.3521 65.2371L43.2985 65.2488C43.191 65.5528 43.1087 65.9859 42.8703 66.1719C42.6137 66.3018 42.2799 66.2205 41.9858 66.1817C42.1017 65.1701 43.0241 62.5628 43.5384 61.751Z" fill="white"/>
<path d="M18.0746 61.1494L18.1106 61.15C18.6973 61.1634 19.4119 61.3343 19.8282 61.7726C19.9154 61.9706 19.8923 62.0354 19.8579 62.2464C19.4426 62.731 18.8796 62.0215 18.224 62.1056C18.0336 62.2557 18.0884 62.1712 18.0377 62.4428C18.3738 62.9423 19.7461 63.3437 19.9357 63.9965C20.251 65.0813 19.3028 65.728 18.334 65.7296C17.488 65.608 17.2564 65.3619 16.6504 64.7797L17.3269 64.1347C17.6629 64.4512 18.6258 65.0873 18.9751 64.5606C18.9579 63.6056 17.3684 63.8181 17.0672 62.9088C16.7476 61.944 17.2022 61.4319 18.0746 61.1494Z" fill="white"/>
<path d="M47.9124 61.4658C48.3757 61.4377 48.8924 61.3097 49.1823 61.7336C49.1805 62.3338 48.5059 62.2999 48.0478 62.3528C48.0652 62.9552 48.2348 65.441 47.993 65.7887C47.7999 65.9288 47.5291 65.8994 47.2834 65.9019C47.0399 65.3935 47.0606 63.2383 47.0388 62.5002L45.9146 62.4984C45.9066 62.1976 45.9139 61.8733 45.9147 61.5704C46.5668 61.5215 47.2565 61.4984 47.9124 61.4658Z" fill="white"/>
<path d="M33.4564 61.984C34.2853 61.9627 35.2666 61.902 36.0819 62.0078C36.2956 62.0355 36.2533 62.0353 36.365 62.1958C36.3805 62.515 36.4331 62.519 36.2949 62.7473C36.0768 62.868 35.6041 62.8039 35.3337 62.7886C35.2917 63.7462 35.3097 64.8552 35.3031 65.8244C35.2945 66.0387 35.314 66.1363 35.1831 66.302C34.9585 66.4352 34.5918 66.3462 34.3163 66.3104C34.2661 65.2758 34.3269 63.9312 34.3467 62.8731C33.8637 62.8875 33.3941 63.0278 33.1243 62.6082C33.0784 62.1752 33.1252 62.1634 33.4564 61.984Z" fill="white"/>
<path d="M8.99358 12.1656L9.33961 11.957L9.40085 11.9824C9.83313 12.1576 10.0101 12.0751 10.4331 12.1934C10.8954 12.3226 11.0877 12.4708 11.5707 12.5922C11.4501 12.8009 11.2932 12.8641 11.0991 13.0018C9.8683 13.8756 9.56543 13.797 9.92841 15.4347C9.94724 15.5199 9.99499 15.5779 10.0579 15.6377L10.2473 15.6479L10.7572 16.2662C11.8484 16.5655 13.123 16.6502 14.2493 16.8052C14.6797 16.8644 15.3997 16.9066 15.7723 17.0399C15.7833 17.241 15.7935 17.1629 15.7053 17.3475C15.1544 19.1552 14.9841 20.6171 14.8556 22.4982C14.8675 23.5883 14.8623 26.1592 15.1593 27.1317C14.8291 27.9067 14.4414 28.6957 14.1439 29.4747C12.549 33.6506 12.5215 37.0112 13.1567 41.3249C12.0664 40.5937 11.8851 40.4141 11.4365 39.204C10.7092 38.9456 10.2454 38.8951 9.49274 39.2938C8.25346 39.9503 6.96243 40.9063 5.98136 41.9037C5.71841 42.171 5.5353 42.5066 5.31264 42.7605L4.98137 43.0644C4.43288 44.2071 3.96015 44.5536 3.46762 45.9326C2.40888 45.0627 1.34739 37.457 1.26379 35.6155C0.947454 29.4835 2.28415 23.379 5.13413 17.9403C5.60294 17.0366 6.09479 15.9352 6.74852 15.1748C7.56961 14.2197 8.14424 13.0952 8.99358 12.1656Z" fill="#C7ABDA"/>
<path d="M10.886 25.0769C11.2111 24.56 13.7505 22.9488 14.349 22.4857C14.5208 22.3527 14.68 22.4403 14.8554 22.4998C14.8673 23.5898 14.8622 26.1608 15.1592 27.1332C14.8289 27.9082 14.4412 28.6973 14.1437 29.4763C12.5489 33.6522 12.5214 37.0128 13.1565 41.3265C12.0663 40.5953 11.8849 40.4157 11.4363 39.2056C10.709 38.9472 10.2453 38.8967 9.49257 39.2954C8.25328 39.9519 6.96226 40.9079 5.98118 41.9053C5.71823 42.1726 5.53512 42.5082 5.31247 42.7621C5.17418 42.4709 4.98707 40.942 4.90384 40.5036C4.00969 35.7924 4.09864 31.7224 4.92056 27.0069L4.95612 27.0179L5.034 27.1834C5.28339 27.2905 5.65601 27.2783 5.93787 27.2874C6.52094 27.0019 7.63971 26.0812 8.04411 25.556L8.14407 25.5675L8.31573 25.8988C8.28846 25.5792 8.3317 25.3856 8.38216 25.0683C8.18896 24.872 7.98363 24.7066 7.91524 24.4449C7.97226 24.1187 7.95523 24.215 8.22933 23.9456C8.60707 23.7384 8.91522 23.1729 9.11528 22.802C9.52194 23.0175 9.47261 22.99 9.75838 23.3237L9.79612 23.368C9.95444 23.6226 10.1781 23.9572 10.2929 24.225C10.4654 24.4818 10.6948 24.8464 10.886 25.0769Z" fill="#BA9AD1"/>
<path d="M9.11508 22.8018C9.52174 23.0172 9.47241 22.9897 9.75818 23.3234L9.79592 23.3677C9.95425 23.6223 10.1779 23.9569 10.2927 24.2247C10.4652 24.4815 10.6946 24.8462 10.8858 25.0766C11.0355 25.352 11.0247 25.245 10.9941 25.5384C10.8028 25.8084 10.4315 25.9382 10.1159 26.1086L9.7572 26.5548C9.63164 26.7762 9.68595 26.7619 9.49794 26.8473C9.28983 26.7062 8.41149 26.0531 8.31553 25.8985C8.28826 25.5789 8.3315 25.3853 8.38196 25.068C8.18876 24.8717 7.98343 24.7063 7.91504 24.4446C7.97206 24.1184 7.95504 24.2147 8.22913 23.9453C8.60688 23.7381 8.91502 23.1726 9.11508 22.8018Z" fill="#FBD07C"/>
<path d="M10.2927 24.2256C10.4652 24.4824 10.6946 24.8471 10.8858 25.0776C11.0355 25.3529 11.0247 25.2459 10.9941 25.5393C10.8028 25.8093 10.4315 25.9391 10.1159 26.1096C10.0575 25.5845 10.262 24.8231 10.2927 24.2256Z" fill="#F7BE59"/>
<path d="M8.38225 25.0693C9.15378 25.6912 9.18406 26.4637 9.75749 26.5561C9.63192 26.7776 9.68623 26.7633 9.49823 26.8487C9.29011 26.7075 8.41177 26.0544 8.31581 25.8998C8.28855 25.5802 8.33178 25.3867 8.38225 25.0693Z" fill="#DEBFDA"/>
<path d="M7.94622 26.9082C8.30023 27.2047 8.72392 28.4632 9.314 28.9149C9.80729 29.2925 10.1376 29.2278 10.5057 29.4958C10.5034 29.5365 10.5011 29.5772 10.4988 29.6179C9.72842 30.0284 9.33426 30.3395 8.96096 31.144C8.68408 31.7407 9.06295 33.0891 8.52251 33.3812L8.29526 33.2982C7.74624 32.1586 7.79399 31.7373 6.97749 30.5421C6.44662 30.3301 5.83056 30.1078 5.35791 29.7998C5.88856 29.196 6.39842 28.9619 7.0947 28.5685C7.37806 28.0304 7.58264 27.3946 7.94622 26.9082Z" fill="#F7BE59"/>
<path d="M9.82392 23.222C11.4015 22.1106 12.4609 20.2838 13.867 18.9296C14.4895 18.3301 14.8155 17.6041 15.7049 17.3477C15.154 19.1553 14.9837 20.6173 14.8552 22.4984C14.6797 22.4389 14.5206 22.3513 14.3488 22.4843C13.7503 22.9474 11.2109 24.5586 10.8858 25.0755C10.6946 24.845 10.4652 24.4804 10.2927 24.2235C10.1779 23.9558 9.95423 23.6212 9.7959 23.3666L9.82392 23.222Z" fill="#CCB3DD"/>
<path d="M4.71353 26.7461L4.92067 27.0066C4.09875 31.7221 4.00979 35.7921 4.90394 40.5033C4.98717 40.9418 5.17428 42.4706 5.31257 42.7618L4.9813 43.0657C4.86666 42.7844 4.88391 42.3995 4.80557 42.1163C3.65464 37.9533 3.29528 33.7146 4.01687 29.4448C4.14801 28.6684 4.25956 27.429 4.71353 26.7461Z" fill="#8660B5"/>
<path d="M5.21563 24.267C4.99275 24.3902 5.06159 24.3978 4.8708 24.3528C4.70313 23.8857 5.38352 22.6009 5.59284 22.1572L5.63051 22.1886C5.55089 22.7265 5.03388 23.466 4.91276 24.0786L4.97904 24.1451C5.75132 23.8895 5.72519 24.3367 6.58545 24.2937C7.21815 24.2622 7.69276 24.0071 8.22928 23.9446C7.95518 24.2141 7.97221 24.1177 7.91519 24.4439C7.98358 24.7056 8.18891 24.871 8.38211 25.0673C8.33165 25.3846 8.28841 25.5782 8.31568 25.8978L8.14402 25.5666L8.04407 25.555C7.63966 26.0802 6.52089 27.0009 5.93782 27.2864C5.65596 27.2774 5.28334 27.2896 5.03395 27.1824L4.95607 27.017L4.92052 27.006L4.71338 26.7454C4.7292 26.4917 5.14392 24.6439 5.21563 24.267Z" fill="#CCB3DD"/>
<path d="M5.21563 24.2679C5.40416 24.16 5.32116 24.1709 5.51677 24.2163C5.65401 24.6359 5.06581 26.4556 4.95607 27.0178L4.92052 27.0068L4.71338 26.7463C4.7292 26.4926 5.14392 24.6448 5.21563 24.2679Z" fill="#9375BA"/>
<path d="M9.1155 22.8017C9.08108 22.4414 8.94625 21.3434 9.19648 21.0635C9.48858 21.3639 9.55426 22.5671 9.82436 23.223L9.79635 23.3677L9.75861 23.3233C9.47283 22.9896 9.52217 23.0171 9.1155 22.8017Z" fill="#EEAB7F"/>
<path d="M3.04767 47.2516C2.63009 45.7236 1.9103 44.2286 1.49992 42.4939C-0.385212 34.6034 0.425387 26.3088 3.80248 18.9325C7.37804 11.1412 13.8832 5.07527 21.905 2.05209C27.4818 -0.0174411 32.2465 -0.337087 38.1267 0.282019C42.6212 0.75524 46.2807 1.81924 50.3655 3.69393L50.3159 3.70109C49.6568 3.79215 47.687 3.76263 47.0684 3.52265L37.5352 2.52472C36.247 2.38853 34.3049 2.27056 33.0846 2.01925C29.6705 1.31619 27.1367 4.01029 24.0368 4.98187C22.883 6.04475 20.9761 6.99231 19.5726 7.84872L16.287 9.82489C15.4116 10.3594 14.4244 11.115 13.4361 11.338C12.6698 12.0248 11.8112 12.6594 10.9742 13.2585C9.96861 13.9782 9.70144 14.5202 10.2472 15.649L10.0577 15.6388C9.99482 15.5789 9.94707 15.5209 9.92824 15.4357C9.56526 13.7981 9.86813 13.8766 11.0989 13.0029C11.293 12.8651 11.45 12.802 11.5706 12.5933C11.0875 12.4719 10.8952 12.3237 10.4329 12.1945C10.01 12.0762 9.83295 12.1587 9.40068 11.9835L9.33944 11.9581L8.99341 12.1667C8.14407 13.0963 7.56944 14.2208 6.74835 15.1759C6.09462 15.9363 5.60276 17.0376 5.13396 17.9413C2.28398 23.3801 0.947282 29.4845 1.26361 35.6166C1.34722 37.4581 2.40871 45.0638 3.46745 45.9337C3.33028 46.3739 3.19033 46.8131 3.04767 47.2516Z" fill="#CCB3DD"/>
<path d="M3.04767 47.2516C2.63009 45.7236 1.9103 44.2286 1.49992 42.4939C-0.385212 34.6034 0.425387 26.3088 3.80248 18.9325C7.37804 11.1412 13.8832 5.07527 21.905 2.05209C27.4818 -0.0174411 32.2465 -0.337087 38.1267 0.282019C42.6212 0.75524 46.2807 1.81924 50.3655 3.69393L50.3159 3.70109C49.6568 3.79215 47.687 3.76263 47.0684 3.52265C46.8082 2.97573 42.595 1.72822 41.7899 1.62207C40.4983 1.45178 38.9689 1.12525 37.6661 0.929966C27.4733 -0.597914 15.4063 3.88857 8.99341 12.1667C8.14407 13.0963 7.56944 14.2208 6.74835 15.1759C6.09462 15.9363 5.60276 17.0376 5.13396 17.9413C2.28398 23.3801 0.947282 29.4845 1.26361 35.6166C1.34722 37.4581 2.40871 45.0638 3.46745 45.9337C3.33028 46.3739 3.19033 46.8131 3.04767 47.2516Z" fill="#6E42A2"/>
<path d="M13.436 11.3375C15.3106 9.00043 21.0272 5.48535 24.0367 4.98145C22.8829 6.04432 20.976 6.99188 19.5726 7.8483L16.287 9.82446C15.4115 10.3589 14.4243 11.1146 13.436 11.3375Z" fill="#6D4A9F"/>
<path d="M52.9375 7.6932C53.1673 7.49789 53.2264 7.46746 53.4986 7.33398C54.0797 8.00925 54.771 8.5921 55.3953 9.22842C56.1061 9.9528 56.7882 10.7411 57.4149 11.5403C63.0705 18.6767 65.8028 27.6956 65.0588 36.7709C64.8506 39.5672 64.4189 42.3525 63.5807 45.0307L63.2659 44.6508C63.2588 44.5347 63.1972 44.3112 63.1679 44.1884C62.6589 43.2921 62.1286 42.2903 61.4808 41.4759C61.3104 41.2616 61.199 41.1536 61.0572 40.9113L60.9234 40.7012C61.1638 40.1257 61.6182 36.1195 61.6287 35.3959C61.9429 33.5699 61.4583 29.6173 61.2027 27.7694C61.0035 27.6095 60.7041 27.643 60.2777 27.2848C59.8092 27.3766 59.5302 27.4303 59.12 27.7092C59.0272 27.3069 58.7315 27.3038 58.6676 27.0618C58.5588 26.6506 58.6945 26.3274 58.5534 25.8675L58.3776 25.4375C58.4402 25.3587 58.6235 25.198 58.7058 25.1214L58.6053 24.6408C58.9086 25.0083 59.6525 25.3117 60.1264 25.1661C60.2893 24.9708 60.2395 25.0593 60.2858 24.7708C60.5604 24.7554 60.7257 24.9018 60.9827 24.8557C61.4796 24.7666 61.2728 24.1244 61.1525 23.8014L60.7742 23.8112L60.3756 23.8735L60.0295 23.817C59.8311 23.6411 59.8873 23.6459 59.8241 23.3251C59.763 23.0451 59.6831 22.7695 59.585 22.5001C59.2867 21.6661 58.1133 18.693 57.4235 18.3674L57.431 18.2573L57.6923 17.7692C57.2806 16.8903 56.502 15.7976 55.9703 14.9604C55.7223 14.5701 55.24 14.2137 55.1611 13.8891C54.9098 13.2652 54.6483 13.1469 54.0655 12.8526C52.8512 12.2394 52.4653 9.52549 52.1094 8.25262C52.3665 8.06619 52.6708 7.87231 52.9375 7.6932Z" fill="#BB99D3"/>
<path d="M52.9377 7.6932C53.1675 7.49789 53.2266 7.46746 53.4988 7.33398C54.0799 8.00925 54.7712 8.5921 55.3955 9.22842C56.1063 9.9528 56.7884 10.7411 57.4151 11.5403C63.0707 18.6767 65.803 27.6956 65.059 36.7709C64.8508 39.5672 64.4191 42.3525 63.5809 45.0307L63.2661 44.6508C63.259 44.5347 63.1974 44.3112 63.1681 44.1884L63.2851 44.0651C63.4379 43.3422 63.4696 42.5617 63.6363 41.8357C66.2413 30.4978 62.9296 18.3324 54.9678 9.86776C54.4449 9.31173 53.2747 8.30286 52.9377 7.6932Z" fill="#6E42A2"/>
<path d="M58.6053 24.6406C58.9086 25.0081 59.6525 25.3115 60.1265 25.1659C60.2894 24.9707 60.2396 25.0591 60.2858 24.7706C60.4248 25.1392 60.5385 25.4415 60.6453 25.8242C60.7445 26.2042 60.9467 27.196 61.1432 27.4621L61.2027 27.7692C61.0036 27.6094 60.7042 27.6428 60.2777 27.2847C59.8093 27.3765 59.5302 27.4302 59.1201 27.709C59.0273 27.3067 58.7316 27.3037 58.6676 27.0616C58.5588 26.6505 58.6945 26.3272 58.5535 25.8673L58.3777 25.4374C58.4402 25.3586 58.6235 25.1979 58.7059 25.1213L58.6053 24.6406Z" fill="#CFB1D8"/>
<path d="M58.3779 25.4372C58.4404 25.3584 58.6238 25.1977 58.7061 25.1211C59.0381 26.7634 59.7613 26.4707 60.2779 27.2845C59.8095 27.3763 59.5304 27.43 59.1203 27.7089C59.0275 27.3066 58.7318 27.3035 58.6679 27.0615C58.5591 26.6503 58.6947 26.3271 58.5537 25.8672L58.3779 25.4372Z" fill="#E99483"/>
<path d="M61.1431 27.4625L61.2942 27.3945C62.1944 29.5531 62.2793 38.9357 61.0571 40.9115L60.9233 40.7015C61.1638 40.126 61.6181 36.1197 61.6287 35.3962C61.9428 33.5702 61.4583 29.6176 61.2026 27.7696L61.1431 27.4625Z" fill="#6D4A9F"/>
<path d="M57.6926 17.7695C58.1356 18.3086 59.1923 20.334 59.5582 21.0511C59.7825 21.4908 59.9327 22.5555 60.3643 23.1634C60.3692 23.3616 60.3875 23.6872 60.3759 23.8738L60.0298 23.8174C59.8314 23.6414 59.8876 23.6463 59.8244 23.3255C59.7633 23.0454 59.6834 22.7698 59.5853 22.5005C59.287 21.6664 58.1136 18.6934 57.4238 18.3677L57.4313 18.2576L57.6926 17.7695Z" fill="#B47CBF"/>
<path d="M60.645 25.8251C60.6617 25.5773 60.6399 25.3759 60.7972 25.2021C61.0925 25.3709 61.1615 26.9643 61.294 27.395L61.143 27.463C60.9465 27.1969 60.7442 26.2051 60.645 25.8251Z" fill="#B47CBF"/>
<path d="M60.364 23.1631C60.7712 23.2531 60.7411 23.1863 61.0194 23.4312C61.063 23.5536 61.1062 23.6806 61.1526 23.8014L60.7742 23.8112L60.3757 23.8735C60.3872 23.6869 60.369 23.3613 60.364 23.1631Z" fill="#DEBFDA"/>
<path d="M52.045 23.5576L52.2208 23.9709L52.124 23.8102C52.957 24.2634 53.6539 24.6376 54.5176 25.0292C54.7719 24.5422 54.8771 24.325 55.2437 23.9006C55.5667 24.1268 56.2821 24.6985 56.6246 24.7227L56.7894 24.8307C57.1557 24.8924 57.266 24.9139 57.6144 24.7999L57.6 24.9444C57.664 25.1566 57.7109 25.3078 57.7954 25.5144C58.0398 25.3075 58.1066 25.3697 58.3777 25.4366L58.5535 25.8666C58.6945 26.3265 58.5588 26.6497 58.6676 27.0609C58.7316 27.3029 59.0273 27.306 59.1201 27.7083C59.5302 27.4294 59.8093 27.3757 60.2777 27.2839C60.7042 27.6421 61.0036 27.6086 61.2027 27.7684C61.4584 29.6164 61.9429 33.569 61.6288 35.395C61.5747 34.7121 61.5999 33.5015 61.5946 32.7802C60.8064 33.3562 59.9353 33.775 59.2184 34.5028C58.8699 34.8565 58.7516 35.3561 58.4549 35.5989C58.0518 35.5612 57.7443 34.9986 57.5161 34.6824C57.0824 34.5434 54.6469 33.5047 54.4877 33.5324L54.4223 33.7718C54.0511 31.7651 53.195 28.3819 52.0068 26.7495C52.0535 25.6425 52.0523 24.6681 52.045 23.5576Z" fill="#B290CD"/>
<path d="M56.7895 24.8316C57.1557 24.8933 57.2661 24.9147 57.6145 24.8008L57.6001 24.9453C57.6641 25.1574 57.711 25.3087 57.7955 25.5153C58.0399 25.3084 58.1067 25.3705 58.3778 25.4375L58.5536 25.8674C58.6946 26.3273 58.5589 26.6506 58.6677 27.0617C58.7316 27.3038 59.0274 27.3068 59.1202 27.7091C58.8529 27.9021 58.5869 28.0967 58.3223 28.2932C57.9176 28.9083 57.7775 28.9138 57.0573 28.8116C56.4526 28.6791 56.2227 28.5441 55.7172 28.2265C55.4636 28.1568 55.4309 28.1462 55.2457 27.9535C54.9917 27.3553 55.6616 26.507 56.1263 26.1555C56.1035 26.1103 56.0816 26.0116 56.0673 25.958C56.2315 25.4895 56.5031 25.2364 56.7895 24.8316Z" fill="#BB99D3"/>
<path d="M57.7952 25.5157C58.0395 25.3088 58.1063 25.3709 58.3774 25.4379L58.5532 25.8678C58.6942 26.3278 58.5586 26.651 58.6673 27.0622C58.7313 27.3042 59.027 27.3073 59.1198 27.7096C58.8526 27.9025 58.5866 28.0972 58.3219 28.2936C57.9172 28.9088 57.7772 28.9142 57.0569 28.812C56.9268 28.588 56.9295 27.4106 57.0072 27.1119C57.5503 26.6136 57.6535 26.1956 57.7952 25.5157Z" fill="#F7BE59"/>
<path d="M58.5533 25.8682C58.6943 26.3281 58.5587 26.6513 58.6675 27.0625C58.7314 27.3045 59.0271 27.3076 59.1199 27.7099C58.8527 27.9029 58.5867 28.0975 58.322 28.2939C58.3615 27.5343 58.4922 26.6545 58.5533 25.8682Z" fill="#EEAB7F"/>
<path d="M55.7171 28.2263C55.4272 27.4857 56.4796 27.2944 57.0074 27.1113C56.9297 27.41 56.927 28.5874 57.0571 28.8114C56.4525 28.6789 56.2226 28.5439 55.7171 28.2263Z" fill="#EEAB7F"/>
<path d="M56.7896 24.8316C57.1558 24.8933 57.2661 24.9147 57.6145 24.8008L57.6001 24.9453C57.4808 25.7259 56.7301 25.8075 56.1264 26.1555C56.1035 26.1103 56.0816 26.0116 56.0674 25.958C56.2315 25.4895 56.5032 25.2364 56.7896 24.8316Z" fill="#CCB3DD"/>
<path d="M58.4948 29.3105C58.8906 29.8115 59.3049 30.3229 59.6824 30.8355C59.9339 31.0601 59.9932 31.0329 60.0374 31.2956C59.7886 31.7504 59.3152 31.8966 58.8651 32.498C58.7765 32.9545 58.6312 33.8935 58.3989 34.234C58.2008 34.3888 58.0024 34.4408 57.7813 34.3331C57.5614 33.9232 57.7959 32.8967 57.8501 32.3483C57.4852 31.7414 56.9506 31.6168 56.3086 31.372C57.8166 30.6825 57.4745 30.4609 58.4948 29.3105Z" fill="#F7BE59"/>
<path d="M57.8501 32.3496C58.0518 33.0729 57.9859 33.7522 58.3989 34.2353C58.2009 34.3901 58.0025 34.4421 57.7814 34.3344C57.5615 33.9245 57.796 32.898 57.8501 32.3496Z" fill="#B47CBF"/>
<path d="M45.2373 12.7787C45.9754 12.0875 48.2431 10.8099 49.2262 10.1172L49.2609 10.1576C49.9235 10.9404 50.5635 12.6174 51.8307 12.8558C52.124 14.0254 50.6466 14.6261 52.2981 16.0036C52.1932 16.8874 52.0893 17.4968 52.2112 18.3851C52.5595 20.9246 54.3148 21.7272 56.3876 20.1276C57.0012 19.6542 57.2825 19.1077 57.4235 18.3679C58.1133 18.6935 59.2867 21.6665 59.585 22.5006C59.683 22.7699 59.763 23.0455 59.8241 23.3256C59.8873 23.6464 59.8311 23.6416 60.0295 23.8175L60.3756 23.8739L60.7742 23.8117L61.1525 23.8019C61.2728 24.1248 61.4796 24.7671 60.9827 24.8562C60.7257 24.9023 60.5604 24.7559 60.2858 24.7713C60.2395 25.0597 60.2893 24.9713 60.1264 25.1666C59.6525 25.3122 58.9086 25.0088 58.6052 24.6413C58.5226 24.3657 58.4581 24.2625 58.3184 24.014L58.2006 23.9039L57.9138 24.0058L57.6143 24.8013C57.2659 24.9153 57.1556 24.8938 56.7894 24.8321L56.6245 24.7241C56.2821 24.6999 55.5667 24.1282 55.2437 23.902C54.877 24.3264 54.7718 24.5436 54.5175 25.0306C53.6538 24.639 52.9569 24.2648 52.124 23.8117L52.2207 23.9723L52.045 23.559C51.8372 21.0841 51.7166 19.4148 50.9788 16.9846C50.3882 15.0392 50.3814 14.3847 49.1955 12.627C48.1864 12.9245 46.4654 13.7507 45.6557 14.4537L45.2373 12.7787Z" fill="#CCB3DD"/>
<path d="M58.2082 22.5737L58.4292 22.4512C59.0991 22.6518 59.1829 23.6026 59.7117 23.6115C59.7487 23.5196 59.7928 23.4182 59.8242 23.3255C59.8874 23.6463 59.8312 23.6415 60.0296 23.8174L60.3757 23.8739L60.7742 23.8116L61.1526 23.8018C61.2729 24.1248 61.4796 24.767 60.9828 24.8561C60.7258 24.9022 60.5605 24.7558 60.2859 24.7712C60.2396 25.0597 60.2894 24.9712 60.1265 25.1665C59.6525 25.3121 58.9087 25.0087 58.6053 24.6412C58.5227 24.3656 58.4582 24.2625 58.3185 24.014L58.2007 23.9038L57.9139 24.0058C57.8695 23.8421 57.7056 23.4586 57.6362 23.2832C57.779 23.0367 58.0155 22.7903 58.2082 22.5737Z" fill="#DDD6DC"/>
<path d="M60.7743 23.8106L61.1527 23.8008C61.273 24.1238 61.4797 24.766 60.9829 24.8551C60.7259 24.9012 60.5606 24.7548 60.2859 24.7702C60.2397 25.0587 60.2895 24.9702 60.1266 25.1655C59.6526 25.3111 58.9088 25.0077 58.6054 24.6402C58.5228 24.3646 58.4583 24.2615 58.3186 24.013C58.8828 23.88 60.3083 24.9173 61.0838 24.4355L61.1175 24.2762C61.0449 24.0289 60.9619 23.9776 60.7743 23.8106Z" fill="#E6DCED"/>
<path d="M57.6362 23.2837C57.779 23.0372 58.0155 22.7908 58.2082 22.5742C58.194 22.9932 58.1618 23.4934 58.2007 23.9043L57.9139 24.0063C57.8695 23.8426 57.7056 23.4591 57.6362 23.2837Z" fill="white"/>
<path d="M56.6245 24.724C56.751 24.2893 57.3295 23.6471 57.6362 23.2832C57.7055 23.4586 57.8694 23.8421 57.9138 24.0058L57.6143 24.8013C57.266 24.9152 57.1556 24.8938 56.7894 24.8321L56.6245 24.724Z" fill="#E6DCED"/>
<path d="M45.0762 57.794C46.0728 56.9558 45.9714 55.2379 45.7543 54.0541C45.688 53.6929 45.3757 53.0117 45.4394 52.7527C45.7158 52.6036 47.0677 52.2791 47.5498 52.1383C49.0428 51.7025 51.2009 50.7456 52.7483 50.8519C53.4264 50.8986 54.7344 51.8526 55.3727 52.2404C55.4719 52.2651 55.636 52.3 55.7232 52.3377C55.0996 53.0959 54.3787 54.0328 53.6241 54.649C52.5885 55.4948 51.5975 56.5434 50.5304 57.3225C49.9553 57.4939 45.4264 58.0325 45.0762 57.794Z" fill="#CCB3DD"/>
<path d="M42.7402 52.1202C43.2672 51.9138 43.7236 51.7829 44.2751 51.6484C45.0603 53.7198 46.2214 56.097 44.0789 57.861L44.0006 57.9538C43.7533 58.0669 43.5188 58.1583 43.2468 58.1885C42.8383 58.2339 38.3569 58.2291 38.1549 58.1528C38.1247 58.1414 38.0954 58.1278 38.0661 58.114C37.535 58.0849 36.3552 58.1757 35.7684 58.1953L35.5532 58.1446L35.6963 57.9504L36.2234 57.8045C36.6793 57.6549 37.1049 57.5518 37.5027 57.2831L37.4983 57.1562C37.21 57.0467 36.3017 57.0723 35.9442 57.0693C35.9224 57.0438 35.8798 57.007 35.8694 56.9818C35.3433 55.6981 36.5005 54.8112 37.2296 54.3741C37.8271 54.0214 39.0261 53.884 39.7131 53.923C40.3052 53.3297 40.7001 53.211 41.209 52.4795L42.7402 52.1202Z" fill="#9375BA"/>
<path d="M42.74 52.1202C43.267 51.9138 43.7234 51.7829 44.2749 51.6484C45.0601 53.7198 46.2212 56.097 44.0787 57.861L44.0004 57.9538C43.7531 58.0669 43.5186 58.1583 43.2466 58.1885C42.838 58.2339 38.3567 58.2291 38.1547 58.1528C38.1245 58.1414 38.0952 58.1278 38.0659 58.114C38.4276 58.0844 40.1359 58.0384 40.394 57.9035C41.6434 57.2509 44.7048 54.9963 44.2644 53.3226C44.1855 53.0228 43.841 53.1883 43.7347 53.09C43.4618 52.8374 43.2924 52.6412 42.9474 52.4812C42.8701 52.427 42.789 52.2207 42.74 52.1202Z" fill="#6D4A9F"/>
<path d="M42.9476 52.4814C43.2926 52.6414 43.462 52.8376 43.7349 53.0902C43.8412 53.1886 44.1857 53.0231 44.2646 53.3229C44.7051 54.9965 41.6436 57.2511 40.3942 57.9038C40.1361 58.0386 38.4278 58.0846 38.0661 58.1143C37.535 58.0851 36.3552 58.176 35.7684 58.1956L35.5532 58.1449L35.6963 57.9506L36.2234 57.8048C36.6793 57.6551 37.1049 57.5521 37.5027 57.2833L37.4983 57.1565C37.21 57.0469 36.3017 57.0726 35.9442 57.0696C35.9224 57.044 35.8798 57.0073 35.8694 56.982C35.3433 55.6983 36.5005 54.8115 37.2296 54.3743C36.9163 54.8824 36.1924 55.2164 36.0667 55.788C36.0002 56.0904 35.8984 56.6734 36.0478 56.9453C36.3945 57.0324 39.9386 56.7367 40.4383 56.5923C41.4889 56.2555 43.1551 55.7717 43.7201 54.756C44.4207 53.4966 43.5909 53.2904 42.9952 52.5421L42.9476 52.4814Z" fill="#9259B4"/>
<path d="M35.6963 57.9505L36.2234 57.8047L36.3007 58.0679C36.1256 58.1511 35.9603 58.1646 35.7684 58.1955L35.5532 58.1448L35.6963 57.9505Z" fill="#CCB3DD"/>
<path d="M57.5161 34.6834C57.7443 34.9996 58.0519 35.5623 58.4549 35.6C58.7516 35.3571 58.8699 34.8576 59.2184 34.5039C59.9353 33.7761 60.8064 33.3572 61.5947 32.7812C61.5999 33.5025 61.5747 34.7132 61.6288 35.3961C61.6182 36.1196 61.1639 40.1259 60.9235 40.7013C59.997 40.1746 58.9303 38.8977 57.5349 38.593C55.984 38.2543 55.732 39.648 54.8682 40.5359C54.6432 40.7672 54.1959 41.0169 53.9126 41.182C54.5848 38.439 54.7344 36.5675 54.4223 33.7729L54.4877 33.5334C54.6469 33.5058 57.0824 34.5445 57.5161 34.6834Z" fill="#CCB3DD"/>
<path d="M56.9109 41.5049C58.7773 42.1782 59.2895 42.9418 60.7102 43.6657L61.0386 43.8457L61.0744 43.5418C61.405 43.8513 62.3518 44.9312 62.6518 44.9655C62.7588 44.8343 62.7228 44.8639 62.7209 44.6448L62.7586 44.6794C62.8967 44.8078 62.9279 44.8359 63.0228 44.996C63.0921 44.8818 63.1674 44.7355 63.2661 44.6511L63.5808 45.031C63.5239 45.6336 63.5617 46.0265 63.6063 46.6341C63.5005 47.3643 63.3493 47.3925 62.5906 47.4285C62.4118 47.3476 62.2491 47.3572 62.0511 47.348C61.6362 47.3603 61.2949 47.3678 60.8811 47.421C60.8856 47.1943 60.8592 47.1676 60.7197 46.985C60.2968 47.1372 59.8634 47.2828 59.4576 47.4746C58.0201 48.04 56.5291 49.6807 55.5496 50.8585C55.589 50.1296 55.7963 49.11 55.9231 48.3523C56.0756 47.4159 56.2153 46.4774 56.342 45.5372C56.4927 44.494 56.5764 42.3501 56.9109 41.5049Z" fill="#9259B4"/>
<path d="M61.0743 43.541C61.4049 43.8505 62.3517 44.9303 62.6517 44.9647C62.7587 44.8335 62.7227 44.8631 62.7208 44.644L62.7585 44.6786C62.8966 44.807 62.9279 44.8351 63.0228 44.9952C63.092 44.881 63.1673 44.7347 63.266 44.6503L63.5807 45.0301C63.5238 45.6328 63.5616 46.0257 63.6062 46.6333C63.5004 47.3635 63.3492 47.3917 62.5905 47.4277C62.4117 47.3468 62.249 47.3564 62.051 47.3472C61.6361 47.3595 61.2948 47.367 60.881 47.4202C60.8855 47.1935 60.8591 47.1668 60.7196 46.9842C60.2967 47.1364 59.8633 47.282 59.4575 47.4738C59.5528 46.7848 60.2733 44.192 60.7101 43.6648L61.0385 43.8449L61.0743 43.541Z" fill="#AD67C6"/>
<path d="M61.0744 43.541C61.4049 43.8505 62.3517 44.9303 62.6518 44.9647C62.7587 44.8335 62.7228 44.8631 62.7208 44.644L62.7586 44.6786C62.8966 44.807 62.9279 44.8351 63.0228 44.9952C63.092 44.881 63.1673 44.7347 63.266 44.6503L63.5808 45.0301C63.5238 45.6328 63.5617 46.0257 63.6062 46.6333C63.3491 46.515 63.2723 46.458 62.9931 46.5061C62.41 45.4117 61.8608 44.7688 61.0386 43.8449L61.0744 43.541Z" fill="#11052C"/>
<path d="M62.9932 46.5073C63.2723 46.4592 63.3492 46.5162 63.6063 46.6345C63.5005 47.3647 63.3493 47.3929 62.5906 47.429C62.4118 47.3481 62.2491 47.3576 62.0511 47.3485C61.6362 47.3607 61.2949 47.3682 60.8811 47.4214C60.8856 47.1947 60.8592 47.1681 60.7197 46.9854C61.265 46.7569 62.2677 46.6901 62.8743 46.6564L62.9932 46.5073Z" fill="#442A78"/>
<path d="M7.33496 48.6143L7.69591 48.6474C9.89352 49.6867 10.5548 50.8042 11.7307 52.9349C12.7322 52.5433 14.4801 52.2768 15.5167 52.5929C16.609 53.1465 17.3132 53.9702 18.2557 54.5906L19.1611 54.9747C18.4369 55.666 18.3266 55.89 18.1196 56.8826L18.744 57.4995C18.3703 57.6751 15.4336 57.1369 14.783 57.0519L14.64 57.0038C14.262 56.9996 13.9821 57.0242 13.6388 56.8591L13.7521 56.8142C13.7597 56.7817 13.7672 56.7492 13.7747 56.7166C13.3727 56.3325 12.6779 55.6388 12.3194 55.268C10.6388 53.5303 9.05759 51.8209 7.86486 49.7059C7.6831 49.3836 7.3898 48.9633 7.33496 48.6143Z" fill="#BB99D3"/>
<path d="M7.33496 48.6143L7.69591 48.6474C7.52161 49.84 13.5244 56.5684 14.64 57.0038C14.262 56.9996 13.9821 57.0242 13.6388 56.8591L13.7521 56.8142C13.7597 56.7817 13.7672 56.7492 13.7747 56.7166C13.3727 56.3325 12.6779 55.6388 12.3194 55.268C10.6388 53.5303 9.05759 51.8209 7.86486 49.7059C7.6831 49.3836 7.3898 48.9633 7.33496 48.6143Z" fill="#6D4A9F"/>
<path d="M15.5171 52.5938C16.6093 53.1474 17.3136 53.9711 18.256 54.5915C17.52 55.0266 16.8314 54.7537 16.2068 54.2063C15.6433 53.7124 15.5447 53.3191 15.5171 52.5938Z" fill="#B47CBF"/>
<path d="M22.0604 55.0964C23.3078 54.9923 23.1817 55.5596 23.972 55.6577C24.3567 55.4526 26.4639 53.5344 26.7186 53.1277C26.1344 52.6297 25.7922 52.3444 25.9694 51.4754C26.0975 50.8467 26.7678 49.9959 27.5172 50.1603C28.0581 50.279 27.9079 51.1311 28.0874 51.4501C28.3274 51.3617 28.569 51.2775 28.8118 51.1975C29.6941 50.9134 30.4493 51.8616 29.9765 52.6547C29.8634 52.8445 29.612 52.8501 29.4039 52.9003C29.2119 53.1769 29.5156 53.3596 29.1331 54.0884C28.7818 54.2428 28.648 54.2949 28.2566 54.1655C26.8842 55.0038 27.0734 56.7955 26.7034 58.0529C26.304 58.0373 26.1037 58.0199 25.7114 57.9481L25.5738 57.9836L25.3592 57.8047C25.2173 57.8218 24.9893 57.9345 24.9355 58.0511C24.5613 58.8634 24.7125 58.7625 23.7487 58.9016L23.2764 58.4326C23.1131 58.1947 23.1383 58.2919 23.1197 58.0407C22.8482 57.3396 21.9993 56.9633 21.854 56.5427C21.5183 56.3289 21.3782 55.941 21.1392 55.5678C21.4759 55.3672 21.6863 55.2307 22.0604 55.0964Z" fill="#E75E5C"/>
<path d="M21.1392 55.5691C21.4759 55.3684 21.6863 55.232 22.0604 55.0977L22.1919 55.33C22.4468 55.6633 22.0057 56.2395 22.2215 56.6472C22.6416 57.1285 23.1959 56.8706 23.3877 57.1936C23.2361 57.6192 23.1342 57.955 23.6468 58.1967C24.3831 58.095 24.8376 56.5863 25.5734 56.5423C25.8055 56.8924 25.6804 57.1511 25.467 57.469C25.473 57.6993 25.5658 57.7757 25.7114 57.9494L25.5738 57.9849L25.3592 57.806C25.2173 57.8231 24.9893 57.9358 24.9355 58.0524C24.5613 58.8647 24.7125 58.7638 23.7487 58.9029L23.2764 58.4338C23.1131 58.196 23.1383 58.2932 23.1197 58.0419C22.8482 57.3409 21.9993 56.9646 21.854 56.544C21.5183 56.3302 21.3782 55.9423 21.1392 55.5691Z" fill="#000001"/>
<path d="M21.1392 55.5691C21.4759 55.3684 21.6863 55.232 22.0604 55.0977L22.1919 55.33C21.9872 55.7289 21.9737 56.1312 21.854 56.544C21.5183 56.3302 21.3782 55.9423 21.1392 55.5691Z" fill="#9375BA"/>
<path d="M53.9563 41.7298C55.6326 40.8853 55.863 39.8957 56.8228 39.0948C57.4381 38.5812 61.746 41.7594 61.8821 42.8483C61.8989 42.9834 62.6928 44.6064 62.7208 44.6455C62.7228 44.8646 62.7587 44.835 62.6518 44.9662C62.3518 44.9319 61.405 43.8521 61.0744 43.5426C60.487 42.8485 57.5657 40.8269 56.6252 41.4554C56.0859 42.1836 56.3774 43.8354 55.93 45.0088C55.8364 44.0765 55.8416 43.4193 55.4362 42.5648C54.3436 43.4066 53.9776 43.8182 52.6694 44.2716C53.1479 43.4431 53.4983 42.4801 53.9563 41.7298Z" fill="#442A78"/>
<path d="M27.9619 55.5198C28.312 56.0726 28.5197 56.4056 29.2067 56.567C29.988 56.7505 30.5367 56.3682 30.504 55.5351C30.4867 55.0967 29.859 54.6218 29.8559 54.18C30.1378 54.1176 30.8452 54.5434 31.0946 54.7134C32.4746 55.6542 33.6241 56.4173 35.1143 57.1717C35.2973 57.4645 35.4362 57.7205 35.6962 57.951L35.5531 58.1452C34.3824 58.0847 27.7053 58.1555 27.1997 57.9819C27.4443 57.1583 27.6984 56.3376 27.9619 55.5198Z" fill="white"/>
<path d="M49.2261 10.117C49.5892 9.85147 50.4558 9.30794 50.7028 9.0752C51.1079 10.2666 51.609 11.6276 51.8306 12.8556C50.5634 12.6172 49.9234 10.9402 49.2608 10.1574L49.2261 10.117Z" fill="#B47CBF"/>
<path d="M55.1614 13.8896C55.2403 14.2143 55.7226 14.5706 55.9705 14.961C56.5023 15.7982 57.2808 16.8909 57.6925 17.7697L57.4312 18.2578C57.3522 17.7593 54.8851 14.8355 54.8652 14.3452C54.9977 14.1856 55.0724 14.0812 55.1614 13.8896Z" fill="#9259B4"/>
<path d="M28.2566 54.1679C28.648 54.2974 28.7818 54.2452 29.1331 54.0908C29.335 54.5217 30.1882 55.8104 29.5548 56.1567C29.0801 56.1295 28.4718 55.6092 28.1541 55.2713C28.2118 54.9625 28.321 54.4653 28.2566 54.1679Z" fill="#E75E5C"/>
<path d="M55.3728 52.2411C55.5646 52.0784 55.9174 51.582 56.0882 51.3486C56.7269 50.4763 57.0301 50.1026 57.8864 49.4717C57.8351 49.807 57.5014 50.6438 57.237 50.8264C56.9741 51.2468 56.709 51.6176 56.4211 52.0209L56.318 51.9084C56.1019 52.0925 55.9792 52.2112 55.7233 52.3384C55.6361 52.3006 55.472 52.2657 55.3728 52.2411Z" fill="#9976B8"/>
<path d="M56.3179 51.908C56.492 51.504 56.7172 51.0906 57.0551 50.8018L57.2368 50.826C56.9739 51.2464 56.7089 51.6172 56.421 52.0205L56.3179 51.908Z" fill="#9259B4"/>
<path d="M45.7177 15.0463C46.4076 14.6716 48.3028 13.5169 48.933 13.499C49.2282 13.646 49.2972 13.8356 49.3983 14.1643C49.8406 15.6027 50.4562 17.79 50.0189 19.2894C49.9243 20.3875 49.5716 22.0163 49.3309 23.1063C48.7696 22.5798 48.5493 22.4971 47.8325 22.2512C48.1867 22.6573 48.998 23.3474 49.2055 23.7172C51.3891 26.1078 53.1704 30.1673 53.6706 33.3271C54.5082 38.6186 53.1339 44.4085 49.0061 48.0506C47.0785 49.7515 44.8978 50.8357 42.488 51.6545C42.1346 51.7565 41.1273 51.9923 40.8767 52.0962C40.5246 52.5104 40.1297 53.1792 39.6426 53.2206C39.2169 53.1343 39.0584 52.8154 38.8211 52.4616C37.4364 52.4646 36.6391 52.6876 35.3636 52.8605C34.4749 52.9811 31.5599 52.9207 30.7189 52.6637C30.6839 52.5717 30.6698 52.5586 30.661 52.4643C30.7099 50.9614 30.2334 50.3518 28.6583 50.7657C28.0758 49.6336 27.748 49.2872 26.4547 49.8916C24.6296 47.9423 22.5464 45.908 20.6676 43.9506C20.105 43.358 19.4901 42.8173 18.8306 42.3348C17.4453 41.5079 15.7531 42.4694 14.5906 43.2746C14.523 43.1229 14.4611 42.9686 14.405 42.8122C13.8683 41.3131 13.3871 38.2533 13.4217 36.7306C13.4917 33.6486 14.3227 29.8986 15.8703 27.2232C16.3666 26.3685 16.908 25.5406 17.4922 24.7432C17.7175 24.4384 18.593 23.575 18.4934 23.3064C18.1368 23.3082 17.712 23.7456 17.4273 23.9909C16.9806 24.2454 16.7418 26.0968 15.8143 25.6476C15.0733 24.6865 15.2992 20.9516 16.3425 20.0077L16.3842 19.9703C16.4151 19.7005 16.4224 19.4332 16.4336 19.162C16.4481 18.4359 16.4767 17.7102 16.5194 16.9852C17.4301 17.0848 19.374 17.2383 20.2664 17.1388C20.2809 17.9145 20.1667 19.0018 20.8278 19.5199C20.7731 19.7854 20.7918 19.8471 20.8354 20.1107C21.2694 20.6828 22.0332 20.1576 22.5132 20.1065C23.2675 20.1271 23.6304 19.5561 24.3263 19.402C24.7292 19.3127 24.8111 19.5509 25.0136 19.8263C25.0158 19.8165 25.025 19.4372 25.0292 19.3755C25.9102 18.616 29.991 18.3573 31.2179 18.6146C31.6686 18.6034 33.0174 19.2125 33.3812 19.0474C35.9133 17.8981 38.1122 17.6662 40.9237 18.0752C40.8323 18.4149 40.6554 18.915 40.7247 19.2398C41.0256 18.9286 41.2147 18.4821 41.3816 18.089C42.1104 18.5211 43.0648 18.9811 43.8431 19.4186C43.2652 18.4937 42.8843 18.2646 41.9738 17.7207C43.2432 18.0477 44.5883 18.2538 45.887 18.4418C45.9005 17.7571 45.8791 17.0246 45.8711 16.3363C45.8109 15.9031 45.7768 15.468 45.7177 15.0463Z" fill="#9375BA"/>
<path d="M49.2056 23.7168C51.3892 26.1074 53.1704 30.1669 53.6707 33.3267C54.5082 38.6182 53.134 44.4081 49.0062 48.0502C47.0786 49.7511 44.8978 50.8353 42.4881 51.6541C42.1347 51.7561 41.1273 51.9919 40.8768 52.0958C40.5247 52.51 40.1298 53.1788 39.6427 53.2202C39.217 53.1339 39.0585 52.815 38.8212 52.4612C37.4365 52.4642 36.6392 52.6872 35.3637 52.8601C34.4749 52.9807 31.56 52.9203 30.719 52.6632C30.684 52.5713 30.6699 52.5582 30.6611 52.4639C30.6821 52.476 30.754 52.5195 30.7736 52.5234C32.1528 52.7988 34.0878 52.7975 35.4905 52.6813C36.4314 52.5502 37.2901 52.344 38.2469 52.2761C38.5207 52.231 40.2904 52.751 40.4028 52.4771C40.7613 51.6036 41.5063 51.8168 42.4835 51.4307C42.6733 51.3901 43.2866 51.1936 43.4535 51.1125C43.9413 50.9166 44.4186 50.2528 44.8664 50.0289C46.612 49.1558 48.1445 48.0364 49.562 46.6943C49.9768 46.1285 50.1622 45.6181 50.6597 45.0866C51.3131 44.3887 52.0349 43.947 52.4168 43.0409C52.7177 42.3266 52.7804 41.6127 53.0213 40.9463C53.9281 38.4379 53.8862 35.6298 53.3049 33.0511C53.215 32.6522 53.2705 32.0717 53.1473 31.648C52.7287 30.2083 52.1412 28.8107 51.5433 27.4372C50.9893 26.3965 49.7461 24.9286 49.2309 23.7835C49.2225 23.7613 49.2141 23.7391 49.2056 23.7168Z" fill="#6D4A9F"/>
<path d="M25.0137 19.8254C25.0159 19.8156 25.025 19.4363 25.0293 19.3746C25.9103 18.6151 29.9911 18.3564 31.218 18.6137C31.6687 18.6025 33.0175 19.2116 33.3813 19.0465C35.9134 17.8972 38.1123 17.6653 40.9237 18.0743C40.8324 18.414 40.6555 18.9141 40.7247 19.2389C40.6329 19.0978 40.587 19.0189 40.514 18.8672C38.0584 18.7729 36.0837 19.2844 33.7292 19.3578C31.8063 19.4177 29.981 19.2165 27.9716 19.3811C27.1 19.4526 25.4966 19.8421 25.0137 19.8254Z" fill="#9259B4"/>
<path d="M16.4336 19.1611C16.6594 20.5759 16.6423 21.8812 17.1823 23.2881C17.2451 23.4515 17.3451 23.8651 17.4273 23.99C16.9806 24.2446 16.7418 26.0959 15.8143 25.6467C15.0734 24.6856 15.2993 20.9507 16.3425 20.0069L16.3842 19.9694C16.4151 19.6996 16.4224 19.4323 16.4336 19.1611Z" fill="#11052C"/>
<path d="M18.8303 42.3346C19.2307 41.223 20.717 41.2236 21.3586 42.0711C21.6531 42.46 21.8318 42.6149 22.2903 42.7188C22.0957 43.4763 21.0765 43.5427 20.6674 43.9504C20.1047 43.3578 19.4898 42.817 18.8303 42.3346Z" fill="#B47CBF"/>
<path d="M45.7178 15.0463C46.4077 14.6716 48.3028 13.5169 48.9331 13.499C49.2283 13.646 49.2973 13.8356 49.3983 14.1643C49.8407 15.6027 50.4562 17.79 50.019 19.2894C49.9752 18.3553 49.9865 17.2624 49.8354 16.3516C49.5634 14.711 48.2964 15.1619 47.269 14.4679L47.242 14.4494C45.982 15.0507 45.9292 14.8739 45.8712 16.3363C45.8109 15.9031 45.7768 15.468 45.7178 15.0463Z" fill="#6D4A9F"/>
<path d="M44.4934 34.7461C44.5077 34.7491 44.5221 34.752 44.5364 34.7551C45.5571 35.3013 44.4389 35.8481 44.0911 36.038C45.1517 37.292 45.8274 39.0449 45.2778 40.6729C44.5731 42.7605 42.6888 43.6792 40.6219 42.9874C38.2131 41.958 38.5889 39.9274 38.7676 37.8195C38.6304 37.6555 38.5167 37.5531 38.4902 37.3387C38.7766 36.8583 39.6468 37.0734 40.1788 36.8233C41.4027 36.2479 43.4712 35.5471 44.4934 34.7461Z" fill="#000001"/>
<path d="M40.7229 36.973C42.4055 36.8221 42.3615 37.4911 42.0638 38.9384C41.8657 39.0437 41.5256 39.1696 41.3068 39.2578C41.0676 39.324 40.8331 39.281 40.595 39.2174C40.3588 39.1539 40.1598 38.9948 40.0456 38.7784C39.6595 38.0628 40.0342 37.3201 40.7229 36.973Z" fill="white"/>
<path d="M43.2692 39.7139C43.5656 39.9141 43.6987 41.1125 43.5051 41.4858C43.2484 41.657 43.3354 41.6091 42.996 41.6157C42.8494 41.5354 42.7496 41.4673 42.6113 41.3728C42.4163 40.802 43.0433 40.644 43.2692 39.7139Z" fill="#442A78"/>
<path d="M22.4475 34.5205C22.5397 34.5225 22.863 34.5326 22.9199 34.5759C24.1377 35.5018 25.5324 36.1058 26.8809 36.8145C27.0537 36.9053 27.9317 37.0551 28.1767 37.1016C28.4321 37.547 27.8183 37.6227 27.8351 37.7398C28.1364 39.8381 27.9837 41.3767 26.003 42.6236C25.4519 42.9409 24.1435 43.0176 23.5203 42.8582C22.7025 42.6771 22.0943 42.1169 21.6546 41.4121C20.4431 39.4705 21.302 36.9303 23.1684 35.7946C22.352 35.5075 22.2641 35.3638 22.4475 34.5205Z" fill="#000001"/>
<path d="M23.2295 36.4345C25.0056 36.2877 25.3078 38.0359 23.8881 38.9162C22.3937 38.9806 22.2532 38.3196 22.3927 37.0267C22.7003 36.7382 22.8739 36.6453 23.2295 36.4345Z" fill="white"/>
<path d="M25.7927 39.2295C26.7323 39.3883 26.1645 40.7963 25.7706 41.2665C25.4464 41.4163 25.514 41.3664 25.1158 41.3343C24.8203 41.2285 24.7583 41.2075 24.6284 40.9728L24.6831 40.8089C24.9527 40.5486 25.3725 40.4199 25.7284 40.28C25.7238 39.8444 25.7328 39.6618 25.7927 39.2295Z" fill="#6E42A2"/>
<path d="M29.9581 43.0435C29.7651 42.9659 29.5543 42.866 29.3625 42.7799C29.1419 42.4722 29.1424 42.1175 29.4208 41.8553C29.7649 41.9206 29.7506 42.2873 30.0787 42.4414C30.9037 42.8334 32.3192 42.6107 32.7752 41.7476C33.0807 41.1695 32.3233 40.9341 32.2073 40.6307L32.2946 40.5096C32.8658 40.264 33.391 40.2487 33.9858 40.4531C34.3615 40.8672 33.5036 41.0514 33.5747 41.551C33.7368 42.6895 35.4132 42.7823 36.2243 42.7525C36.365 42.4997 36.435 42.3172 36.6885 42.1814C36.9841 42.1502 36.8872 42.1202 37.0963 42.2497C37.2386 42.7343 36.7397 42.8873 36.419 43.0411C36.3227 43.4266 36.0333 44.2486 35.6325 44.3936C35.5328 44.3428 35.5155 44.3478 35.445 44.2653C35.1842 43.9025 35.05 43.5865 34.8609 43.185C32.5883 42.4195 33.9791 42.4151 31.5815 43.0387C31.2546 43.574 31.0907 43.7871 30.6823 44.2653C30.2891 43.7631 30.1701 43.6555 29.9581 43.0435Z" fill="#000001"/>
<path d="M30.3135 42.957C30.5434 42.9734 30.7583 42.9619 30.9312 43.1128C30.9985 43.4024 30.9561 43.3608 30.8373 43.6894C30.7136 43.7521 30.7234 43.7501 30.5849 43.7416C30.4046 43.5768 30.3677 43.2153 30.3135 42.957Z" fill="#AEA09A"/>
<path d="M46.0014 41.9418C47.7411 41.6703 48.575 44.0012 46.4172 44.6879C45.9786 44.6777 45.6119 44.6203 45.216 44.4086C44.5854 44.0715 44.1283 43.36 44.5613 42.6765C44.9011 42.1402 45.4223 42.0741 46.0014 41.9418Z" fill="#B47CBF"/>
<path d="M31.0907 2.63551C34.688 2.43826 38.6676 3.33382 42.2495 3.64415C44.9647 3.87938 47.6091 4.09865 50.3135 4.4495C52.7424 4.76457 55.7664 4.92531 52.1898 7.50119C50.9015 6.88656 50.4034 6.95962 50.4886 8.50019C49.3231 9.31669 48.0256 10.0658 46.8464 10.886C46.2168 11.3238 45.673 11.5574 45.0685 12.1005C44.9552 11.3822 44.8237 10.8944 44.531 10.2352L44.4759 10.2034C43.9923 9.92936 42.8824 9.57851 42.3331 9.41807C38.2389 8.2221 33.8983 8.44363 29.8175 9.55441C28.031 9.94209 21.235 12.5449 20.0485 14.904C20.067 14.8672 20.1219 16.654 20.1248 16.7859C18.4565 16.675 11.937 16.1544 10.8625 15.2994C10.6899 15.1621 10.6079 15.0313 10.5801 14.8072C10.6868 14.1387 12.2025 13.2682 12.7732 12.8686C14.1246 11.9051 15.5007 10.9769 16.9003 10.0848C18.1987 9.26909 19.5921 8.57265 20.8912 7.7652C22.409 6.82186 23.8822 5.939 25.5045 5.17003C26.9906 4.46562 29.456 2.80483 31.0907 2.63551Z" fill="#472C7B"/>
<path d="M39.6916 6.16016C39.7679 6.16053 39.8442 6.16339 39.9202 6.16874C40.3529 6.19963 44.1096 7.10462 44.3164 7.34332L44.3008 7.5021L44.1286 7.59422C43.4432 7.70675 42.0373 7.87924 41.3963 7.58488C40.919 7.36569 39.9498 6.89146 39.614 6.50483C39.5694 6.28805 39.5561 6.37942 39.6916 6.16016Z" fill="#5B2C65"/>
<path d="M34.8905 9.34194C37.5613 9.16086 41.7689 9.47345 44.1374 10.7957C44.4535 12.0307 44.6266 13.3629 44.9491 14.6012C45.2546 15.774 45.349 16.7154 45.2704 17.9199C44.0449 17.6941 42.179 17.3198 40.9906 17.2014C38.8486 16.9879 35.2537 17.5876 33.1741 18.4267C32.6352 18.2471 32.2377 18.1984 31.676 18.1132C29.6241 17.828 27.0215 17.8408 25.0794 18.641C24.8956 18.7167 24.665 18.1149 24.5185 17.9639C23.7792 17.2015 22.8904 16.5636 22.1049 15.8416C21.801 15.5628 20.9456 15.4383 20.853 15.0098C20.8971 14.9017 20.9827 14.735 21.0687 14.6495C23.4465 12.2862 27.3474 10.7124 30.5389 9.91974C31.8624 9.59103 33.6121 9.43707 34.8905 9.34194Z" fill="#442A78"/>
<path d="M17.9126 43.3325C17.9391 43.1535 17.9626 42.9742 17.9831 42.7944L18.1606 42.6816C19.649 43.3062 24.2485 48.7956 25.9619 50.1493C25.1013 51.4161 25.2243 52.0419 25.9288 53.3341C25.0795 53.947 24.6567 54.3673 23.9111 55.1007C23.0575 54.3995 22.2213 54.4031 21.192 54.6747L20.7096 55.1476C20.1989 54.8819 19.6789 54.6187 19.191 54.3129C18.0924 53.6241 12.2634 49.728 11.9585 48.6794C11.9356 48.6006 11.9252 48.5619 11.9707 48.492C12.1311 48.2465 13.5125 47.9007 13.8747 47.7084C15.3759 46.9115 17.3069 44.9254 17.9126 43.3325Z" fill="white"/>
<path d="M53.766 44.3459C54.1828 43.891 54.786 43.5531 55.2774 43.1309C55.3366 44.1079 55.5134 45.1275 55.5337 46.0766C55.5687 47.7193 55.2688 49.5566 55.0289 51.2029C52.8845 49.9367 51.6674 50.3481 49.396 50.8593C48.946 50.9794 47.7342 51.4099 47.415 51.0785C47.4944 50.6055 47.5871 50.4999 47.4058 50.079C48.6778 49.1911 50.3805 47.8762 51.2569 46.6127C52.3997 44.9653 51.936 45.2335 53.766 44.3459Z" fill="#9259B4"/>
<path d="M47.4058 50.0798C48.6778 49.1919 50.3805 47.877 51.2569 46.6135C52.3997 44.9661 51.936 45.2343 53.766 44.3467C53.9142 45.7871 51.0311 48.5192 50.0051 49.3923C49.7145 49.6395 49.1627 50.3656 49.2648 50.7634L49.396 50.86C48.946 50.9802 47.7342 51.4107 47.415 51.0793C47.4944 50.6063 47.5871 50.5007 47.4058 50.0798Z" fill="#6E42A2"/>
<path d="M5.43314 45.4095C6.12761 44.7582 9.87378 41.5648 10.5291 42.2501C10.7514 42.9666 10.6471 44.5682 10.7129 45.4329C10.8054 46.6491 11.087 48.2871 11.492 49.4589C11.5443 49.6101 11.852 49.8588 11.9772 49.9601C11.7539 50.4359 11.6842 50.6794 11.5399 51.184C10.7706 50.2751 10.0845 49.2819 9.00674 48.7083C8.25668 48.3092 7.17934 47.6895 6.34936 47.5418C5.42206 47.3881 4.79289 47.355 3.85596 47.3516C4.40363 46.6992 4.81549 46.0324 5.43314 45.4095Z" fill="#9259B4"/>
<path d="M3.85596 47.3502C4.40363 46.6979 4.81549 46.031 5.43314 45.4082C5.99896 45.7695 6.51499 46.7163 6.48916 47.3838C6.45903 47.4195 6.38115 47.5182 6.34936 47.5404C5.42206 47.3868 4.79289 47.3536 3.85596 47.3502Z" fill="#B47CBF"/>
<path d="M10.4748 39.4238C11.1382 39.4753 11.4627 40.4287 11.8245 40.869C12.3672 41.5297 13.3017 41.8128 13.6731 42.6265C13.8117 42.9301 13.9254 43.399 13.8189 43.7256C13.7847 43.8278 13.7294 43.8263 13.6344 43.8696C12.8843 43.7979 12.3612 43.1554 11.8568 42.6274C11.787 42.8914 11.4224 44.3957 11.3283 44.4928C10.8115 43.5503 11.5299 40.6592 9.44044 41.9791C9.0273 42.2401 8.60737 42.4933 8.18903 42.7462C6.0339 44.124 5.52977 44.6967 3.87817 46.4991C5.23503 42.9961 7.17775 41.0876 10.4748 39.4238Z" fill="#442A78"/>
<path d="M53.6035 14.9744C53.9478 14.9183 53.9695 14.8688 54.2973 15.1032C55.1838 15.737 56.4387 17.6613 56.7402 18.6777C56.0792 19.8564 55.3105 20.1719 54.01 20.3506C52.5545 18.8617 52.766 17.4477 52.849 15.5502C52.9329 15.4643 53.0196 15.3911 53.1094 15.3116C53.2676 15.1282 53.3566 15.1007 53.5698 15.0013L53.6035 14.9744Z" fill="#F7BE59"/>
<path d="M53.8066 16.6395C53.8759 16.3597 53.8188 16.4341 53.9953 16.2734L54.2101 16.3084L54.2324 16.3799C54.4418 17.0391 55.318 18.3098 54.6091 18.7996C53.9794 18.7342 53.9401 17.1616 53.8066 16.6395Z" fill="#FEF3A6"/>
<path d="M53.1094 15.3103C53.2676 15.1269 53.3565 15.0994 53.5697 15C54.0649 15.1695 54.1143 15.8157 54.2104 16.308L53.9955 16.273C53.8191 16.4337 53.8761 16.3593 53.8069 16.6391C53.7347 16.2791 53.5203 16.0282 53.4253 15.5278C53.5424 15.3769 53.5688 15.3518 53.6404 15.1777C53.4513 15.2517 53.3179 15.3076 53.1094 15.3103Z" fill="#FBD07C"/>
<path d="M17.9127 43.3316C17.8878 43.1798 17.86 43.0284 17.8295 42.8776L17.7074 42.8243L17.5609 42.9422C17.4534 43.266 17.1485 43.9812 16.9992 44.258C16.5559 45.0804 13.3872 48.0619 12.4434 47.5564C11.9093 46.5174 14.5828 43.6702 15.5013 43.1925C16.1907 42.8338 17.407 42.4917 18.1607 42.6808L17.9833 42.7935C17.9627 42.9733 17.9392 43.1527 17.9127 43.3316Z" fill="#DDD6DC"/>
<path d="M37.4875 53.1006C37.7674 53.0308 38.4709 53.0278 38.7092 53.2311C38.5824 53.7403 36.2777 53.6237 35.2126 55.3151L35.0913 56.5075C34.3164 56.1274 33.5413 55.6166 32.813 55.1492C31.8799 54.5619 30.9496 53.8158 29.9875 53.198C32.1467 53.4111 34.4215 53.711 36.5643 53.2499C36.8598 53.1863 37.1867 53.146 37.4875 53.1006Z" fill="#6D4A9F"/>
<path d="M20.8577 15.875C22.3984 17.2421 22.9423 17.0436 24.3735 19.0242C23.7895 19.2274 22.6859 19.464 22.513 20.1075C22.033 20.1586 21.2692 20.6838 20.8353 20.1117C20.7917 19.848 20.7729 19.7864 20.8276 19.5209C21.008 19.2107 20.87 16.4371 20.8577 15.875Z" fill="#9259B4"/>
<path d="M50.5248 19.7363C51.5032 20.1047 51.2716 22.0975 51.3911 22.9827C51.4562 23.4645 51.4853 24.7211 51.2968 25.1358C51.1017 25.2463 51.1949 25.2315 50.9341 25.1602C50.2873 24.4458 49.8125 23.4808 49.9128 22.4958C49.9905 21.7331 50.1683 20.4114 50.5248 19.7363Z" fill="#11052C"/>
<path d="M52.6251 15.3679C50.7292 14.1842 53.2269 12.885 54.1652 13.6578C54.3715 14.1302 54.0667 14.512 53.6967 14.8002L53.6037 14.9744L53.57 15.0013C53.3568 15.1007 53.2678 15.1282 53.1097 15.3116C53.0199 15.3911 52.9332 15.4643 52.8492 15.5501C52.8223 15.5184 52.6678 15.4016 52.6251 15.3679Z" fill="#FBD07C"/>
<path d="M53.6966 14.8008L53.6036 14.975L53.5699 15.0019C53.3567 15.1013 53.2677 15.1288 53.1096 15.3122C53.0198 15.3917 52.9331 15.4649 52.8491 15.5508C52.8222 15.5191 52.6677 15.4022 52.625 15.3686C52.9612 15.0292 53.2429 14.9973 53.6966 14.8008Z" fill="#361501"/>
<path d="M50.7832 7.52734C51.0156 7.5522 51.4763 7.66669 51.5141 7.89989C51.6882 8.97662 53.0705 12.427 52.7934 13.2885C52.7342 13.282 52.6095 13.2444 52.5461 13.2276C52.4676 13.1033 52.303 12.624 52.288 12.4874C52.1588 11.3096 50.7764 8.44613 50.7832 7.52734Z" fill="#F7BE59"/>
<path d="M47.4149 51.0796C47.3791 50.9341 47.3392 50.8841 47.2617 50.7538L47.1119 50.7453C46.8577 51.0073 47.1515 51.3844 46.885 51.7537C46.5862 52.1681 45.2582 52.21 44.9122 51.9561C44.6607 51.1723 46.7559 50.4546 47.4057 50.0801C47.587 50.501 47.4944 50.6066 47.4149 51.0796Z" fill="#442A78"/>
<path d="M12.0218 43.4209C12.5398 43.7353 12.8602 43.9103 13.2941 44.3399C12.8483 45.1266 12.0819 45.8513 11.7944 46.6764C11.6077 46.3438 11.6782 45.8766 11.6751 45.4405C11.7096 44.7559 11.8259 44.0779 12.0218 43.4209Z" fill="#9259B4"/>
<path d="M12.3769 50.1328C12.799 50.4016 14.2521 51.4611 14.472 51.8295L14.3028 51.8715C13.8146 51.9235 12.6456 52.1657 12.2914 51.8569C12.039 51.3997 12.2706 50.6758 12.3769 50.1328Z" fill="#9259B4"/>
<path d="M19.4547 55.4414C19.5337 55.4911 19.5533 55.5516 19.5968 55.6349C19.5033 56.1149 19.351 56.4043 19.1497 56.8458C18.8251 56.4281 19.1245 55.7786 19.4547 55.4414Z" fill="#9375BA"/>
<path d="M11.7946 46.6763C11.7314 47.0636 11.7026 47.3225 11.5512 47.6904L11.5033 47.6841C11.4665 47.22 11.5955 45.9101 11.6753 45.4404C11.6784 45.8765 11.608 46.3437 11.7946 46.6763Z" fill="#5B2C65" fill-opacity="0.976471"/>
</svg>
