<svg width="65" height="70" viewBox="0 0 65 70" fill="none" xmlns="http://www.w3.org/2000/svg">
<path d="M3.93015 17.4676C4.80482 15.8555 6.00421 13.9001 7.06836 12.3839C7.84105 11.2829 9.2543 10.0783 10.0976 8.96603C10.2807 8.72455 10.7961 8.40193 11.0154 8.16867C11.7711 7.63227 12.5377 6.74453 13.2835 6.2333C16.169 4.25538 19.2256 2.51749 22.5977 1.52365C25.0333 0.829087 29.2645 -0.0425232 31.8388 0.00161091C36.0656 0.074069 42.0816 1.40528 45.8926 3.35611C47.1496 3.99955 49.4004 5.30677 50.4847 6.07354C56.2869 10.2206 60.5215 16.2027 62.5042 23.0535C64.1667 28.707 64.5492 33.4948 63.441 39.2712C63.2812 40.1304 63.0983 40.9852 62.8924 41.8346C62.7053 42.5959 62.3207 43.7988 62.316 44.5359C62.5456 45.3675 62.7195 45.7135 61.7822 46.0841C61.5338 46.3343 61.2391 47.5573 60.9798 48.0087C59.908 49.8746 59.2958 51.1435 57.9626 52.8646C59.0652 52.6422 62.8915 51.8197 63.7473 52.369C63.9101 52.4735 64.0199 52.6148 64.0585 52.8063C64.1097 53.06 64.054 53.343 63.9874 53.5883C63.8253 54.1853 63.5376 54.7628 63.3306 55.3469C62.9204 56.5038 62.5694 57.7221 62.063 58.8394C62.4892 60.0491 63.0062 61.243 63.5609 62.3876C64.0226 63.3407 64.5502 64.4468 63.1236 64.8155C61.7384 65.1735 60.1861 65.3702 58.7613 65.484C58.7779 66.1379 58.9027 67.2206 58.408 67.7079C57.8443 68.2625 56.714 68.3419 55.9491 68.4767C47.9161 69.8911 39.7065 70.0109 31.5712 69.9993C30.7657 69.9979 29.9381 69.9813 29.1364 69.9265C27.9615 69.9423 26.1233 69.8882 24.9511 69.801L24.8382 69.8002C24.1032 69.7923 23.3765 69.7483 22.6166 69.7036C17.2298 69.3855 11.7458 68.9643 6.44065 67.9711C6.11197 67.9098 5.73208 67.5301 5.50423 67.2978C5.34346 66.722 5.35962 66.1351 5.35111 65.5402C4.07404 65.3896 2.80339 65.1897 1.54183 64.9408C0.889165 64.8067 -0.169808 64.5465 0.0231229 63.655C0.394076 61.9409 1.57342 60.5881 2.04217 58.8883C1.60999 57.2815 -0.101923 54.4955 0.0660524 52.9784C0.0953213 52.714 0.19135 52.4408 0.419046 52.2832C0.994671 51.8846 5.16069 52.6744 6.02607 52.8011C5.03209 51.5648 3.00527 48.325 2.6357 46.7582C1.39274 43.0019 0.401057 39.7455 0.247681 35.7811C0.107669 32.1621 0.135906 28.5853 1.16865 25.0782C1.48499 24.004 1.79658 22.9365 2.11401 21.869L2.49779 20.745C2.83094 19.8364 3.34434 18.5336 3.78431 17.6945L3.93015 17.4676Z" fill="#010002"/>
<path d="M38.8595 15.1578C40.7653 12.5202 42.7723 10.9061 45.8439 9.77441C48.4406 14.0246 47.1885 15.9402 47.0187 20.2055C46.7779 19.9667 46.4876 19.6261 46.1786 19.5234L45.9971 19.5505C45.9826 20.0318 47.0148 20.8444 47.3731 21.2148C53.5201 27.5691 55.1706 40.1051 47.6395 46.0949C46.3305 47.136 45.1391 47.9144 43.5578 48.4797C43.1515 48.625 42.0655 48.917 41.8699 49.2398C41.9823 49.3863 41.9438 49.3393 42.1905 49.3765C42.7328 49.5498 43.7175 49.0975 44.3493 48.9557C44.3462 49.3806 44.3422 50.9725 43.9598 51.1835C42.6485 51.907 42.5452 52.1076 42.1458 53.5536C42.1086 53.6882 41.6196 53.3512 41.7242 54.3291C41.4384 54.8212 40.1455 55.6158 39.561 55.5784C39.122 55.1239 38.1542 56.1446 37.451 55.3944C37.5261 54.8101 38.9448 54.7421 38.7505 54.1533C38.188 53.8368 36.8251 54.4448 36.0485 54.4145C35.6096 54.3974 34.8046 54.1634 34.4407 54.1713C33.643 54.2751 32.8199 54.3 32.0281 54.3803C30.5047 54.5346 29.3783 54.1625 27.9254 54.0042C27.7618 54.1012 27.75 54.1253 27.6596 54.294C27.8411 54.8813 28.8203 54.7965 29.0143 55.3175C28.8733 55.4558 28.228 55.7039 28.0706 55.6663C27.1317 55.4413 26.1778 55.1914 25.2416 54.9419C24.8122 54.6105 25.0517 54.1742 24.8629 53.9185C24.7313 53.262 24.5194 51.8891 24.9793 51.3218C25.4138 50.7859 25.7873 50.478 25.4548 49.7283C25.5097 49.4875 25.5358 49.3578 25.6296 49.1274C25.924 49.2132 26.2783 49.3646 26.5655 49.3188L26.6319 49.1736C26.4743 48.7211 25.9337 48.5258 25.485 48.1732C25.2725 47.6921 25.1658 47.1197 24.8625 46.6923L24.8307 46.6481C24.523 46.2173 23.8299 45.6984 23.3801 45.1776L23.3886 45.1101C23.2497 44.7469 22.9331 44.697 22.595 44.6574C22.4631 44.6975 22.183 44.7722 22.0753 44.8323C21.3707 44.6617 20.5594 44.7566 19.8229 44.7468C18.873 44.7341 18.3942 44.6471 17.4933 44.3867C17.1002 44.4355 16.706 44.5044 16.3133 44.4628C16.4738 44.7041 16.9145 44.7876 17.1858 44.8098L17.2011 44.8613C16.8991 44.8431 16.593 44.7766 16.3148 44.8101L15.8327 44.6269L15.7597 44.8419C15.5446 44.8233 15.388 44.7736 15.1815 44.7179L14.9833 44.7635C14.8808 44.4993 14.7713 44.1444 14.5824 43.9458C14.1764 43.4268 13.468 42.8666 12.8784 42.5757C12.0175 41.3693 11.9014 40.7191 11.2318 39.4547C11.1629 38.6793 11.0819 38.2738 11.2166 37.5016C10.9844 36.36 11.0456 35.3517 11.0837 34.2002C11.157 33.9798 11.1905 33.6785 11.2615 33.4237C11.4496 32.7485 11.6688 32.2342 11.9687 31.6057C12.1232 31.2437 12.2202 31.0495 12.4194 30.7102L12.2233 30.5466L12.0848 30.4866C11.949 30.2423 12.0083 30.1308 12.0138 29.8098L11.8665 29.7591L11.8309 29.6936C12.0005 29.1855 12.2546 28.8961 12.5513 28.4621C12.6595 28.3038 12.6073 28.2635 12.5543 28.0912L12.5616 28.0545C12.7382 28.0135 12.8151 27.9257 12.9546 27.8084L13.4043 27.1424C13.9651 26.1484 14.4782 24.9382 15.057 24.0052C15.5609 23.1808 16.1152 22.3882 16.7167 21.6319C16.8542 21.4589 17.0061 21.3413 17.0219 21.1263L16.9233 21.0503C16.5415 21.1295 16.0944 21.6476 15.8373 21.9369C15.4571 20.6801 15.0731 18.1183 14.9106 16.8142C14.709 14.8657 15.0772 13.1405 15.8687 11.3564C18.9105 11.7525 21.3516 14.0433 23.5586 16.0169C22.5799 16.5281 22.0973 16.7712 21.3725 17.596C21.9866 17.4219 23.2215 16.6145 23.8552 16.646C23.9098 16.6486 24.124 17.0586 24.5394 17.1019L24.6308 16.987C24.6082 16.7689 24.4246 16.5606 24.2892 16.3708C24.4911 16.2482 24.7044 16.1276 24.9091 16.0081C25.8253 15.5025 27.2281 15.1382 28.247 14.9257C31.5269 14.1352 34.6722 14.6507 37.8573 15.4582C37.7351 15.702 37.5653 15.9726 37.5841 16.2368L37.6724 16.345C38.0979 16.3013 38.2798 15.8517 38.4689 15.5175C38.9622 15.732 40.1507 16.4708 40.4832 16.4243C40.7008 15.7991 39.3118 15.3425 38.8595 15.1578Z" fill="#906FB6"/>
<path d="M12.9549 27.8076L13.4045 27.1416C14.2574 27.2336 14.2213 27.5053 14.6234 27.6162C14.8491 27.8163 14.8179 27.7335 14.8908 27.997L14.8582 28.0994C14.9536 28.2151 14.9906 28.2498 15.1288 28.309L15.1344 28.5117C15.1958 28.671 15.195 28.6817 15.3292 28.7774C15.7409 28.7124 15.9129 28.2666 16.6164 28.0451C16.9347 28.0973 17.3144 27.9297 17.631 27.8231C18.911 28.7556 19.3012 28.0341 20.7311 28.054C21.8838 28.07 23.702 29.0123 24.6953 28.7334C25.6705 29.4703 27.3631 30.5495 27.7556 31.763L27.763 31.8239C27.8071 32.1678 27.9171 32.4986 28.0174 32.8305C27.769 32.7958 27.7105 32.5496 27.4439 32.3723C27.9835 33.2444 28.6036 35.4537 28.4149 36.4161L28.3481 36.509L28.5746 36.8267C28.3876 37.3444 28.1597 37.9277 28.1434 38.4805C28.1346 38.7821 28.2259 38.9174 28.1466 39.2603L28.1059 39.347C28.1101 39.4624 28.1219 40.04 28.1359 40.1186C28.2932 40.1711 28.3703 40.1757 28.4604 40.3032C28.2201 40.3383 28.2962 40.2924 28.1617 40.4602C28.0945 40.7057 28.1118 41.0433 28.1951 41.2736C27.9732 41.5072 27.7362 41.7481 27.5295 41.9936C26.7961 43.0007 25.4263 43.8585 24.3648 44.5183C24.1238 44.6681 23.5339 44.9357 23.3889 45.1093C23.2499 44.7461 22.9333 44.6962 22.5952 44.6565C22.4634 44.6967 22.1833 44.7714 22.0755 44.8314C21.3709 44.6609 20.5597 44.7558 19.8231 44.746C18.8732 44.7333 18.3944 44.6463 17.4935 44.3858C17.1004 44.4347 16.7062 44.5036 16.3136 44.462C16.4741 44.7033 16.9148 44.7867 17.1861 44.809L17.2014 44.8605C16.8993 44.8423 16.5932 44.7758 16.315 44.8092L15.8329 44.6261L15.7599 44.8411C15.5449 44.8225 15.3882 44.7727 15.1818 44.7171L14.9836 44.7627C14.8811 44.4984 14.7715 44.1436 14.5827 43.9449C14.1767 43.426 13.4683 42.8657 12.8786 42.5748C12.0177 41.3684 11.9017 40.7183 11.2321 39.4539C11.1632 38.6785 11.0821 38.273 11.2168 37.5008C10.9846 36.3592 11.0458 35.3509 11.0839 34.1994C11.1573 33.979 11.1907 33.6777 11.2617 33.4229C11.4499 32.7476 11.6691 32.2334 11.9689 31.6049C12.1234 31.2428 12.2204 31.0487 12.4196 30.7094L12.2235 30.5457L12.085 30.4858C11.9493 30.2415 12.0085 30.13 12.0141 29.809L11.8668 29.7583L11.8311 29.6928C12.0008 29.1847 12.2549 28.8953 12.5515 28.4613C12.6597 28.303 12.6075 28.2627 12.5545 28.0904L12.5619 28.0536C12.7384 28.0127 12.8154 27.9248 12.9549 27.8076Z" fill="#A888C5"/>
<path d="M12.9549 27.8076L13.4045 27.1416C14.2574 27.2336 14.2213 27.5053 14.6234 27.6162C14.8491 27.8163 14.8179 27.7335 14.8908 27.997L14.8582 28.0994C14.9536 28.2151 14.9906 28.2498 15.1288 28.309L15.1344 28.5117C15.1958 28.671 15.195 28.6817 15.3292 28.7774C15.7409 28.7124 15.9129 28.2666 16.6164 28.0451C16.9347 28.0973 17.3144 27.9297 17.631 27.8231C18.911 28.7556 19.3012 28.0341 20.7311 28.054C21.8838 28.07 23.702 29.0123 24.6953 28.7334C25.6705 29.4703 27.3631 30.5495 27.7556 31.763L27.763 31.8239C27.8071 32.1678 27.9171 32.4986 28.0174 32.8305C27.769 32.7958 27.7105 32.5496 27.4439 32.3723L27.1696 32.0623C24.1422 28.6292 20.259 27.6678 16.3227 29.8342C16.099 29.9573 15.8691 29.8476 15.7087 29.9895L15.7808 30.0966C15.5068 30.4096 15.1357 30.5587 14.8412 30.8587C13.0124 32.7219 13.159 33.6124 13.001 35.9963L12.9342 36.0214L12.9378 36.0537C12.9874 36.5118 12.9238 36.7462 12.8354 37.1919C12.9168 37.0908 12.9674 37.0028 13.0778 36.9458C13.2303 37.2334 13.097 37.3055 13.204 37.4435C13.3248 38.1704 13.6774 39.2544 13.3813 39.902C14.3333 41.2709 15.0541 42.0943 16.6469 42.7191C16.7272 42.5629 16.7678 42.4763 16.8773 42.3327C19.6103 43.4442 21.1685 43.0179 23.6777 41.8504C23.8282 41.7804 23.9601 41.9011 24.083 41.9828C24.3303 41.9407 24.5869 41.5863 24.9421 41.3521L25.0696 41.4117C25.6785 40.9658 27.0111 39.2132 27.3628 38.4847C27.6546 37.8803 27.8976 36.9118 28.3481 36.509L28.5746 36.8267C28.3876 37.3444 28.1597 37.9277 28.1434 38.4805C28.1346 38.7821 28.2259 38.9174 28.1466 39.2603L28.1059 39.347C28.1101 39.4624 28.1219 40.04 28.1359 40.1186C28.2932 40.1711 28.3703 40.1757 28.4604 40.3032C28.2201 40.3383 28.2962 40.2924 28.1617 40.4602C28.0945 40.7057 28.1118 41.0433 28.1951 41.2736C27.9732 41.5072 27.7362 41.7481 27.5295 41.9936C26.7961 43.0007 25.4263 43.8585 24.3648 44.5183C24.1238 44.6681 23.5339 44.9357 23.3889 45.1093C23.2499 44.7461 22.9333 44.6962 22.5952 44.6565C22.4634 44.6967 22.1833 44.7714 22.0755 44.8314C21.3709 44.6609 20.5597 44.7558 19.8231 44.746C18.8732 44.7333 18.3944 44.6463 17.4935 44.3858C17.1004 44.4347 16.7062 44.5036 16.3136 44.462C16.4741 44.7033 16.9148 44.7867 17.1861 44.809L17.2014 44.8605C16.8993 44.8423 16.5932 44.7758 16.315 44.8092L15.8329 44.6261L15.7599 44.8411C15.5449 44.8225 15.3882 44.7727 15.1818 44.7171L14.9836 44.7627C14.8811 44.4984 14.7715 44.1436 14.5827 43.9449C14.1767 43.426 13.4683 42.8657 12.8786 42.5748C12.0177 41.3684 11.9017 40.7183 11.2321 39.4539C11.1632 38.6785 11.0821 38.273 11.2168 37.5008C10.9846 36.3592 11.0458 35.3509 11.0839 34.1994C11.1573 33.979 11.1907 33.6777 11.2617 33.4229C11.4499 32.7476 11.6691 32.2334 11.9689 31.6049C12.1234 31.2428 12.2204 31.0487 12.4196 30.7094L12.2235 30.5457L12.085 30.4858C11.9493 30.2415 12.0085 30.13 12.0141 29.809L11.8668 29.7583L11.8311 29.6928C12.0008 29.1847 12.2549 28.8953 12.5515 28.4613C12.6597 28.303 12.6075 28.2627 12.5545 28.0904L12.5619 28.0536C12.7384 28.0127 12.8154 27.9248 12.9549 27.8076Z" fill="#D7C8E0"/>
<path d="M28.1058 39.3467C28.1099 39.4622 28.1218 40.0397 28.1358 40.1183C28.2931 40.1708 28.3702 40.1754 28.4603 40.3029C28.22 40.3381 28.2961 40.2921 28.1616 40.4599C28.0944 40.7054 28.1117 41.043 28.195 41.2733C27.9731 41.5069 27.7361 41.7478 27.5294 41.9933C26.796 43.0005 25.4262 43.8583 24.3646 44.5181C24.1237 44.6678 23.5338 44.9355 23.3888 45.109C23.2498 44.7458 22.9332 44.6959 22.5951 44.6563C22.4633 44.6964 22.1832 44.7711 22.0754 44.8312C21.3708 44.6606 20.5596 44.7555 19.823 44.7457C18.8731 44.733 18.3943 44.646 17.4934 44.3856C16.9291 44.1858 16.2701 43.9451 15.7483 43.6621C15.9585 43.5836 15.9924 43.5654 16.2086 43.6151L16.1974 43.6564C16.7542 43.782 17.6066 43.5837 18.2174 43.6945C20.9823 44.1965 23.311 43.8905 25.3728 41.8656C25.7718 41.4738 26.8662 40.8147 27.4064 40.4695C27.5415 40.0847 27.8621 39.679 28.1058 39.3467Z" fill="#BEA5D0"/>
<path d="M28.1059 39.3467C28.1101 39.4622 28.1219 40.0397 28.1359 40.1183C28.2932 40.1708 28.3703 40.1754 28.4605 40.3029C28.2201 40.3381 28.2962 40.2921 28.1617 40.4599C28.0946 40.7054 28.1118 41.043 28.1951 41.2733C27.9732 41.5069 27.7362 41.7478 27.5295 41.9933C26.7961 43.0005 25.4263 43.8583 24.3648 44.5181C24.1238 44.6678 23.5339 44.9355 23.3889 45.109C23.2499 44.7458 22.9333 44.6959 22.5952 44.6563L22.9488 44.464C24.0532 43.7673 25.2033 42.8631 26.2594 42.2369C26.8355 41.6891 27.117 41.1922 27.4065 40.4695C27.5416 40.0847 27.8622 39.679 28.1059 39.3467Z" fill="#543388"/>
<path d="M22.9487 44.4644C24.0531 43.7677 25.2033 42.8634 26.2593 42.2373C25.6628 43.2865 24.1522 44.3763 22.9487 44.4644Z" fill="#69498C"/>
<path d="M28.136 40.1191C28.2933 40.1716 28.3704 40.1763 28.4606 40.3038C28.2203 40.3389 28.2964 40.293 28.1618 40.4608C28.0947 40.7062 28.1119 41.0439 28.1952 41.2742C27.9734 41.5078 27.7364 41.7487 27.5297 41.9941C27.31 41.3116 28.0157 41.0396 28.136 40.1191Z" fill="#302451"/>
<path d="M11.217 37.501C11.7382 40.1289 13.3579 42.4235 15.7485 43.6625C16.2703 43.9455 16.9293 44.1862 17.4936 44.386C17.1005 44.4348 16.7064 44.5037 16.3137 44.4622C16.4742 44.7034 16.9149 44.7869 17.1862 44.8092L17.2015 44.8607C16.8995 44.8424 16.5934 44.7759 16.3152 44.8094L15.8331 44.6263L15.7601 44.8413C15.545 44.8227 15.3883 44.7729 15.1819 44.7172L14.9837 44.7629C14.8812 44.4986 14.7717 44.1437 14.5828 43.9451C14.1768 43.4262 13.4684 42.8659 12.8788 42.575C12.0179 41.3686 11.9018 40.7185 11.2322 39.454C11.1633 38.6787 11.0823 38.2732 11.217 37.501Z" fill="#69498C"/>
<path d="M15.1819 44.7171L15.1633 44.423L15.2713 44.3447C15.5062 44.4064 15.6286 44.4979 15.8331 44.6262L15.7601 44.8412C15.545 44.8226 15.3884 44.7728 15.1819 44.7171Z" fill="#2C0847"/>
<path d="M12.9548 27.8076L13.4044 27.1416C14.2573 27.2336 14.2212 27.5053 14.6234 27.6162C14.849 27.8163 14.8178 27.7335 14.8907 27.997L14.8581 28.0994C14.9535 28.2151 14.9905 28.2498 15.1287 28.309L15.1343 28.5117C14.2145 29.0553 13.0664 29.8674 12.4195 30.7094L12.2234 30.5457L12.0849 30.4858C11.9492 30.2415 12.0084 30.13 12.014 29.809L11.8667 29.7583L11.8311 29.6928C12.0007 29.1847 12.2548 28.8953 12.5515 28.4613C12.6596 28.303 12.6074 28.2627 12.5544 28.0904L12.5618 28.0536C12.7383 28.0127 12.8153 27.9248 12.9548 27.8076Z" fill="#CEBAD1"/>
<path d="M12.2236 30.5459C12.3143 30.4803 12.8035 29.9322 12.9763 29.7755C13.6292 29.1835 14.2665 28.7533 14.8583 28.0996C14.9537 28.2152 14.9908 28.25 15.129 28.3092L15.1345 28.5119C14.2147 29.0554 13.0666 29.8676 12.4197 30.7096L12.2236 30.5459Z" fill="#80679B"/>
<path d="M12.9551 27.8076L13.4047 27.1416C14.2576 27.2336 14.2215 27.5053 14.6236 27.6162C14.1175 27.9015 13.5147 27.937 12.9551 27.8076Z" fill="#BEA5D0"/>
<path d="M13.3812 39.9023C13.3391 39.8416 13.2982 39.7802 13.2584 39.7181C12.1469 37.9833 11.7528 36.5072 12.1139 34.3908C12.1728 34.0454 12.4483 33.3873 12.7551 33.1973C13.0113 33.4675 12.9274 35.4694 12.9341 36.0217L12.9377 36.054C12.9873 36.5121 12.9237 36.7465 12.8353 37.1922C12.9167 37.0911 12.9673 37.0031 13.0777 36.9461C13.2302 37.2337 13.0969 37.3058 13.2039 37.4438C13.3247 38.1707 13.6773 39.2546 13.3812 39.9023Z" fill="#8C87B0"/>
<path d="M16.8773 42.3331C19.6103 43.4446 21.1685 43.0183 23.6778 41.8508C23.8282 41.7808 23.9601 41.9015 24.083 41.9832C24.3303 41.9411 24.5869 41.5867 24.9421 41.3525L25.0696 41.4121C22.7726 43.5698 19.5012 43.7947 16.647 42.7195C16.7272 42.5633 16.7678 42.4767 16.8773 42.3331Z" fill="#684E95"/>
<path d="M15.7807 30.0977C15.9853 30.1831 15.9232 30.1124 16.0132 30.2932C16.8134 31.9007 15.5488 32.1485 14.7847 33.488C14.1609 34.5815 14.1569 35.8345 13.1885 36.8467L13.001 35.9973C13.1589 33.6135 13.0124 32.723 14.8411 30.8597C15.1356 30.5597 15.5067 30.4106 15.7807 30.0977Z" fill="white"/>
<path d="M13.2041 37.4439L13.2762 37.2212L13.3554 37.21C13.54 37.5456 13.6714 37.9997 13.8308 38.3638C14.3724 39.6005 14.9212 40.8174 15.9572 41.721C16.3072 42.0262 16.6642 42.1601 16.8774 42.3332C16.7679 42.4768 16.7273 42.5634 16.6471 42.7195C15.0542 42.0947 14.3334 41.2714 13.3814 39.9024C13.6775 39.2548 13.3249 38.1709 13.2041 37.4439Z" fill="#7671A7"/>
<path d="M20.3492 31.1095C21.0117 31.1056 21.5586 31.1702 22.2132 31.2404C22.8712 32.0666 23.2636 32.0092 24.1364 32.4893C26.8446 33.9789 27.1955 38.1233 24.7121 40.004C24.234 40.366 23.6866 40.5506 23.1235 40.7334C22.4991 40.892 22.265 40.8899 21.6385 40.7213C18.8642 39.9747 17.9481 37.5558 18.6466 34.934C19.0613 33.3776 20.3163 32.8132 21.6201 32.1016C21.014 31.87 20.4747 31.7942 20.3492 31.1095Z" fill="#010002"/>
<path d="M20.9015 33.0636C21.5704 32.9782 22.1421 33.3597 22.3288 34.0081C22.4528 34.4478 22.3969 34.9187 22.1731 35.317C21.9245 35.7633 21.6455 35.8987 21.181 36.0344C20.6829 36.0296 20.0612 35.8331 19.8259 35.3839C19.2669 34.3173 20.1253 33.5289 20.9015 33.0636Z" fill="white"/>
<path d="M23.9569 36.6484C24.6343 37.0761 24.6211 38.5128 23.3639 38.3502C22.9693 38.0911 22.8696 38.0103 22.5332 37.6858C23.2048 37.303 23.3725 37.1501 23.9569 36.6484Z" fill="#543388"/>
<path d="M18.0488 39.9824C18.5824 40.0957 18.8022 40.2437 19.0155 40.7523C19.0015 41.0215 19.0413 40.932 18.8905 41.1146C18.632 41.2262 18.5745 41.2138 18.2921 41.1961C17.8793 41.1169 17.4697 41.0779 17.0522 41.032C17.3664 40.5513 17.5459 40.2887 18.0488 39.9824Z" fill="#EC9CC6"/>
<path d="M14.891 27.9972C15.6913 27.2246 19.185 26.7173 20.3873 26.7217C26.7993 26.7453 31.0141 32.7668 29.4244 38.8458C29.3191 39.2481 28.754 40.0052 28.7262 40.3543L28.4606 40.3034C28.3705 40.1759 28.2934 40.1712 28.1361 40.1187C28.1221 40.0401 28.1102 39.4626 28.1061 39.3471L28.1468 39.2605C28.2261 38.9175 28.1348 38.7822 28.1436 38.4807C28.1599 37.9278 28.3878 37.3445 28.5748 36.8269L28.3483 36.5092L28.415 36.4163C28.6038 35.4538 27.9837 33.2446 27.4441 32.3725C27.7107 32.5497 27.7692 32.796 28.0176 32.8307C27.9173 32.4988 27.8073 32.168 27.7632 31.8241L27.7558 31.7631C27.3633 30.5497 25.6707 29.4705 24.6955 28.7335C23.7022 29.0124 21.884 28.0702 20.7313 28.0542C19.3014 28.0343 18.9112 28.7557 17.6312 27.8233C17.3146 27.9299 16.9349 28.0974 16.6166 28.0452C15.9131 28.2668 15.7411 28.7125 15.3294 28.7776C15.1952 28.6819 15.196 28.6711 15.1346 28.5119L15.129 28.3092C14.9908 28.25 14.9537 28.2152 14.8584 28.0996L14.891 27.9972Z" fill="#543388"/>
<path d="M16.6162 28.0444C18.7998 27.0438 22.8925 26.9655 24.6951 28.7327C23.7018 29.0117 21.8836 28.0694 20.7309 28.0534C19.301 28.0335 18.9108 28.755 17.6308 27.8225C17.3142 27.9291 16.9345 28.0967 16.6162 28.0444Z" fill="#BEA5D0"/>
<path d="M27.7556 31.7637C28.5251 32.9145 28.9566 34.7004 28.873 36.0806C28.8227 36.3732 28.8462 36.6766 28.5746 36.8274L28.3481 36.5097L28.4148 36.4168C28.6036 35.4544 27.9834 33.2451 27.4438 32.3731C27.7105 32.5503 27.7689 32.7965 28.0174 32.8312C27.9171 32.4994 27.8071 32.1685 27.7629 31.8246L27.7556 31.7637Z" fill="#BEA5D0"/>
<path d="M28.873 36.0801C28.9014 37.191 28.8024 38.3143 28.1466 39.2606C28.2259 38.9176 28.1346 38.7823 28.1434 38.4807C28.1597 37.9279 28.3876 37.3446 28.5746 36.8269C28.8462 36.6761 28.8227 36.3727 28.873 36.0801Z" fill="#A888C5"/>
<path d="M28.7257 40.3544C29.4619 40.3784 31.2012 40.4278 31.4374 39.3848C31.5474 38.8993 30.7171 38.5611 30.9877 38.1533C31.3736 37.9684 32.3979 37.9507 32.7779 38.1385C33.1837 39.0318 30.9445 38.5815 33.0793 40.224C35.5705 40.6001 34.9323 39.7678 35.7739 39.6736C36.1063 39.8421 36.185 40.0486 36.03 40.3898C35.8895 40.4783 35.4809 40.6689 35.4376 40.7083C35.0889 41.0246 34.8126 42.0306 34.3468 42.1572C33.5444 41.3653 33.8865 41.2904 32.5725 40.5912C31.6896 40.9308 31.7667 40.6915 31.1079 40.6752C30.7624 40.9917 30.4377 41.0335 29.9777 41.141C29.8674 41.6285 29.523 42.4018 28.9001 42.1425C28.6142 42.0235 28.3504 41.5344 28.1948 41.2739C28.1115 41.0436 28.0943 40.706 28.1614 40.4605C28.2959 40.2927 28.2199 40.3386 28.4602 40.3035L28.7257 40.3544Z" fill="#010002"/>
<path d="M31.1082 40.6757C31.235 40.5102 31.5033 40.2782 31.6663 40.1279C32.0176 40.2867 32.238 40.3887 32.5727 40.5916C31.6899 40.9313 31.767 40.692 31.1082 40.6757Z" fill="#80679B"/>
<path d="M28.6357 40.9756C29.0119 40.9903 29.2764 40.9593 29.5432 41.2034C29.5704 41.4947 29.5471 41.4328 29.4062 41.7331L29.1253 41.8431C28.6477 41.744 28.6373 41.4073 28.6357 40.9756Z" fill="white"/>
<path d="M33.9878 41.0109C34.2179 40.9949 34.3895 40.954 34.5815 41.0654C34.6693 41.3272 34.5828 41.4817 34.5158 41.7818C34.1186 41.768 34.0294 41.3421 33.9878 41.0109Z" fill="white"/>
<path d="M24.9094 16.0072C25.8256 15.5015 27.2285 15.1373 28.2474 14.9248L28.358 15.0075C27.8236 15.2307 27.1684 15.2729 26.5308 15.5198C26.7456 15.6421 27.0076 15.7818 27.2038 15.9243L27.2625 15.7341C27.5917 15.9688 27.2317 16.2539 27.4192 16.5272C27.6552 16.5381 27.7737 16.5129 28.0053 16.476C27.3829 16.794 25.2837 16.5699 24.9094 16.0072Z" fill="#BEA5D0"/>
<path d="M43.4754 39.7941C42.0758 40.9007 40.6871 41.2433 39.0743 40.2895C38.2427 39.7977 37.667 39.1626 37.4398 38.1957C37.1421 36.9285 37.3026 35.3959 37.9335 34.2501C38.3432 33.446 39.8877 32.4569 40.7872 32.2908C42.4257 31.9884 44.433 33.8876 44.6973 35.4368C44.942 36.8716 44.8047 37.9255 44.1053 39.1027C43.9121 39.3256 43.6894 39.5979 43.4754 39.7941Z" fill="#010002"/>
<path d="M39.6407 33.3639C40.4169 33.3254 40.9984 33.5987 41.1592 34.4252C41.2452 34.8696 41.1493 35.3299 40.8929 35.7029C40.6144 36.107 40.343 36.2105 39.8865 36.2927C39.019 36.32 38.1726 35.5974 38.4622 34.6874C38.6764 34.0147 39.0606 33.7018 39.6407 33.3639Z" fill="white"/>
<path d="M41.8136 37.314L41.8467 37.3135C42.7223 37.3074 42.7365 38.2522 42.2949 38.5917C42.0983 38.5658 41.7504 38.5523 41.6146 38.3937C41.2813 38.004 41.4195 37.602 41.8136 37.314Z" fill="#2C0847"/>
<path d="M44.1055 39.1025C44.6176 39.378 45.0026 39.2333 45.5471 39.2519C47.6401 39.3234 48.0605 42.247 45.5504 42.0987C44.4473 42.0335 44.0576 41.8524 43.745 40.6713C43.6717 40.346 43.5473 40.0748 43.4756 39.794C43.6895 39.5978 43.9122 39.3255 44.1055 39.1025Z" fill="#A888C5"/>
<path d="M56.5061 48.403C57.6948 47.2565 59.0701 45.6531 60.9244 45.9513C61.1622 45.9756 61.5767 46.002 61.7822 46.0833C61.5338 46.3335 61.2391 47.5565 60.9798 48.008C59.908 49.8738 59.2958 51.1427 57.9626 52.8638C59.0652 52.6414 62.8915 51.819 63.7473 52.3683C63.9101 52.4727 64.0199 52.6141 64.0585 52.8056C64.1097 53.0592 64.054 53.3423 63.9874 53.5876C63.8253 54.1845 63.5376 54.762 63.3306 55.3461C62.9204 56.5031 62.5694 57.7214 62.063 58.8386C62.4892 60.0484 63.0062 61.2422 63.5609 62.3868C64.0226 63.3399 64.5502 64.446 63.1236 64.8148C61.7384 65.1727 60.1861 65.3694 58.7613 65.4832C58.7779 66.1371 58.9027 67.2198 58.408 67.7071C57.8443 68.2617 56.714 68.3411 55.9491 68.476C47.9161 69.8904 39.7065 70.0101 31.5712 69.9986C30.7657 69.9971 29.9381 69.9805 29.1364 69.9257C27.9615 69.9416 26.1233 69.8875 24.9511 69.8002L24.8382 69.7995C24.1032 69.7915 23.3765 69.7476 22.6166 69.7028C17.2298 69.3848 11.7458 68.9635 6.44065 67.9704C6.11197 67.9091 5.73208 67.5294 5.50423 67.297C5.34346 66.7212 5.35962 66.1343 5.35111 65.5394C4.07404 65.3889 2.80339 65.1889 1.54183 64.94C0.889165 64.806 -0.169808 64.5457 0.0231229 63.6542C0.394076 61.9402 1.57342 60.5874 2.04217 58.8875C1.60999 57.2807 -0.101923 54.4947 0.0660524 52.9776C0.0953213 52.7132 0.19135 52.44 0.419046 52.2824C0.994671 51.8839 5.16069 52.6737 6.02607 52.8003C5.03209 51.5641 3.00527 48.3242 2.6357 46.7574L2.73718 46.7431C3.03492 46.9655 3.57096 46.8899 3.9484 46.8402L4.44816 46.8528C5.79606 46.805 5.89747 46.7336 6.94661 47.5245C7.12787 47.5837 7.28114 47.6455 7.47126 47.6581C7.52168 47.8526 7.56272 48.0437 7.6536 48.2232C7.51584 48.3211 7.49874 48.3382 7.40087 48.476C8.04019 49.2364 8.3129 49.9605 8.87188 50.7859C9.82251 52.1895 11.0951 53.5962 12.2619 54.838C12.4739 55.0636 13.8036 56.2244 13.8136 56.3256L13.7512 56.3945C14.337 56.6271 14.4055 56.6139 15.0257 56.6241C18.422 57.229 22.5828 57.1248 26.0576 57.3445C27.5509 57.4389 29.1573 57.499 30.6471 57.5233C34.1131 57.5581 37.5794 57.4894 41.0413 57.3172C43.7357 57.2042 46.6318 57.0889 49.3169 56.7932C49.5157 56.8147 49.6605 56.7897 49.8564 56.7667C49.8217 56.6208 49.8287 56.6259 49.8768 56.4793L49.6471 56.3469C50.4298 55.5051 51.3554 54.8358 52.0921 54.0259C52.9309 53.1038 53.7158 51.7326 54.6713 50.8992C54.7366 50.7661 54.72 50.8386 54.6941 50.6717L54.4798 50.5885C54.807 50.4592 55.5924 48.9875 56.5061 48.403Z" fill="#4D939D"/>
<path d="M56.5062 48.403C57.6949 47.2565 59.0702 45.6531 60.9245 45.9513C59.7917 49.4493 57.0647 53.2521 54.5766 55.9444C53.4683 56.378 51.1217 56.4565 49.8565 56.7667C49.8218 56.6208 49.8288 56.6259 49.8769 56.4793L49.6472 56.3469C50.4299 55.5051 51.3555 54.8358 52.0922 54.0259C52.931 53.1038 53.7159 51.7326 54.6714 50.8992C54.7367 50.7661 54.7201 50.8386 54.6942 50.6717L54.4799 50.5885C54.8071 50.4592 55.5924 48.9875 56.5062 48.403Z" fill="#84BBC3"/>
<path d="M54.6716 50.9004C54.7666 51.0005 54.8863 51.1357 54.988 51.2227C53.2308 52.9129 51.8276 55.1371 49.8771 56.4805L49.6475 56.3481C50.4302 55.5062 51.3557 54.837 52.0925 54.0271C52.9312 53.1049 53.7162 51.7337 54.6716 50.9004Z" fill="#3D8696"/>
<path d="M54.48 50.5888C54.8072 50.4596 55.5925 48.9878 56.5063 48.4033C56.5611 49.0533 55.5376 50.8381 54.9878 51.2219C54.8861 51.1348 54.7665 50.9997 54.6715 50.8995C54.7368 50.7665 54.7202 50.8389 54.6943 50.672L54.48 50.5888Z" fill="#5A9FA8"/>
<path d="M4.4483 46.8527C5.7962 46.8049 5.89761 46.7335 6.94675 47.5244C7.12801 47.5836 7.28128 47.6454 7.4714 47.658C7.52182 47.8525 7.56286 48.0436 7.65374 48.2231C7.51598 48.321 7.49888 48.3381 7.40101 48.4759C8.04033 49.2363 8.31304 49.9604 8.87202 50.7858C9.82265 52.1894 11.0952 53.5961 12.262 54.8379C12.474 55.0635 13.8037 56.2243 13.8138 56.3255L13.7513 56.3944C12.3452 56.2441 10.9359 56.1254 9.52448 56.0383C8.71154 54.8609 7.51143 53.645 6.72122 52.5076C6.15199 51.6885 3.55667 47.7736 3.76094 47.0032C3.90641 46.8849 4.24151 46.876 4.4483 46.8527Z" fill="#84BBC3"/>
<path d="M6.94629 47.5244C7.12754 47.5836 7.28081 47.6454 7.47094 47.658C7.52135 47.8525 7.56239 48.0436 7.65327 48.2231C7.51551 48.3211 7.49842 48.3381 7.40054 48.4759C7.12805 48.1578 6.99555 47.9398 6.94629 47.5244Z" fill="#3D8696"/>
<path d="M24.9509 69.8C25.1973 69.7546 25.3306 69.7805 25.4543 69.6247C25.2831 69.386 24.9096 69.3377 24.6289 69.1602L24.6556 69.1415C24.7675 69.0621 24.8062 69.0261 24.9015 68.9287C25.9573 69.0124 25.7533 69.0052 26.6781 69.2446C26.3392 69.448 26.3746 69.2908 26.1578 69.5613L26.1899 69.6868C26.356 69.7199 26.5216 69.7697 26.6846 69.7416L26.5043 69.6716C26.6056 69.5093 27.0979 69.4199 27.3372 69.3499C27.4265 69.4754 27.3992 69.4329 27.3896 69.624C27.2482 69.6687 27.1435 69.7041 26.998 69.7322C27.509 69.7394 28.828 69.655 29.1363 69.9255C27.9614 69.9414 26.1232 69.8873 24.9509 69.8Z" fill="#5A9FA8"/>
<path d="M6.09563 56.2041C7.46617 56.2885 9.17232 56.7795 10.5676 56.9359C13.2106 57.2323 15.8881 57.4651 18.5391 57.662C24.1582 58.0612 29.7908 58.2394 35.4239 58.1959C36.49 58.1865 37.3472 58.1376 38.392 58.0242C39.2455 57.9709 40.3497 58.1585 41.1764 58.0691C42.2341 57.9548 43.0718 57.9928 44.1251 57.9703L44.1268 58.0257C43.9063 58.0228 43.1101 58.0058 43.0259 58.1048C42.8531 58.308 43.1608 59.5481 42.99 60.004C42.6906 60.146 42.6534 60.1307 42.5882 60.4345C42.6986 60.444 42.7654 60.4537 42.8749 60.4728C42.9935 60.6307 43.0198 60.6904 43.1023 60.8708C42.9779 60.911 42.8656 61.0391 42.8111 61.0361C42.5183 61.0202 42.3946 60.9439 42.1174 61.0909C43.4472 61.1554 45.4992 60.9947 46.888 60.9481L46.9333 60.8935C46.7757 60.7887 46.6585 60.7067 46.5076 60.5892L46.5388 60.4834C46.8003 60.3645 47.1126 60.5102 47.3467 60.4002C47.8286 60.1736 49.3484 60.3776 49.4962 60.9406C49.2421 61.6766 48.1412 63.3405 47.5003 63.7853C47.296 63.9673 47.3425 63.8781 47.2946 64.1166C47.4099 64.5642 47.7964 65.073 48.0918 65.44C47.7832 65.6846 47.6168 65.8118 47.3489 66.1102C46.9722 65.5653 46.2017 64.4092 45.7963 63.9435C45.7093 64.6062 45.6679 65.3259 45.5715 65.9594C45.6324 66.1272 45.6041 66.1471 45.7194 66.203L45.7611 65.9259L45.8678 65.8571L45.9777 65.8813C45.8811 66.1729 45.9549 66.3617 46.0548 66.6339C45.7513 67.9946 43.4157 67.6087 42.4167 67.8056C41.7877 67.929 41.6344 68.3538 40.8915 68.185C40.5439 67.8561 41.0134 67.6203 40.374 67.6361L40.3157 67.6376C39.8368 67.339 39.8513 67.3506 39.5252 66.8912L39.5902 66.7819C39.1987 66.6799 38.9943 66.6323 38.6214 66.4574C38.5928 66.3348 38.5621 66.2127 38.5297 66.0912C38.2895 66.0047 37.9713 66.0659 37.7507 66.1891C37.4899 66.1967 37.09 66.2412 36.8719 66.1297C36.7006 65.8822 36.7537 65.8488 36.7292 65.5001C36.7148 65.4435 36.6993 65.3871 36.6831 65.331C36.618 65.1079 36.5619 64.8637 36.3565 64.7509C36.1157 64.7479 36.1902 64.7454 35.964 64.9346C35.71 65.1961 35.1365 65.775 34.9408 66.0514C34.2441 66.2984 34.0151 66.3347 33.2787 66.2872C33.0814 66.826 32.6662 67.2127 32.096 67.3305C31.6362 67.4254 30.8048 67.3905 30.6852 66.8107C30.6649 66.7121 30.7812 66.6116 30.8462 66.5298C30.8636 66.3177 30.8833 66.4012 30.7659 66.2157C29.9817 66.2409 29.0353 66.1897 28.2496 66.151C28.1871 65.6464 28.1649 65.219 28.1415 64.7107C27.9543 64.4307 28.1126 62.6957 27.9462 62.1724L27.8327 62.1828L27.8696 62.302L27.7959 62.3956C27.7962 63.8055 27.1974 64.4595 25.7362 64.4489C25.5609 64.4473 25.3857 64.4435 25.2105 64.4375C25.2039 64.8821 25.2089 65.7443 25.0684 66.1572C24.8151 66.2077 24.3929 66.1717 24.1221 66.1597C23.8512 66.3228 23.8675 66.2611 23.7311 66.5064C23.8857 66.8685 24.0327 66.761 24.2185 67.0177C24.2545 67.0676 24.365 67.9023 24.4216 67.9672C24.5955 68.1677 25.0509 68.4346 25.127 68.6863L24.8819 68.6877C24.8527 68.7368 24.8246 68.7865 24.7978 68.8377C23.587 68.6827 22.3314 68.8414 21.1113 68.7981C19.0067 68.7231 7.4863 68.1468 6.41515 67.1351C6.21788 66.9488 6.18059 66.4362 6.15636 66.1761C6.03497 64.8758 6.09801 63.5249 6.10133 62.2189L6.09563 56.2041Z" fill="#5A9FA8"/>
<path d="M33.279 66.2861C33.217 66.2676 33.1555 66.2472 33.0947 66.225C31.6913 65.7159 30.9299 64.0106 31.5506 62.7207C32.9386 59.8362 37.3471 61.7083 35.9643 64.9335C35.7103 65.195 35.1368 65.774 34.9411 66.0503C34.2444 66.2973 34.0154 66.3336 33.279 66.2861Z" fill="white"/>
<path d="M33.5965 62.2168C34.1979 62.2258 34.5918 62.4301 34.8542 62.9955C35.0606 63.438 35.0768 63.9457 34.8987 64.4004C34.738 64.8093 34.4961 65.0012 34.1093 65.1676C32.1613 65.207 32.1358 62.9319 33.5965 62.2168Z" fill="#5A9FA8"/>
<path d="M44.517 61.2038C45.4476 61.1454 46.569 60.8498 47.4103 61.3941C48.3292 61.9887 48.0038 63.0204 47.5009 63.7843C47.2966 63.9663 47.3431 63.8771 47.2952 64.1155C47.4105 64.5632 47.797 65.0719 48.0924 65.4389C47.7838 65.6836 47.6174 65.8108 47.3495 66.1092C46.9728 65.5643 46.2023 64.4081 45.7969 63.9424C45.7099 64.6052 45.6685 65.3249 45.5721 65.9584C45.4113 66.0971 44.7849 66.0252 44.5476 66.0141C44.45 64.4124 44.4397 62.8066 44.517 61.2038Z" fill="white"/>
<path d="M45.6816 62.0598C46.129 62.0218 46.5117 61.9642 46.8245 62.3452C46.9472 62.6765 46.8438 62.9349 46.7105 63.2504C45.5236 63.5808 45.5201 63.0682 45.6816 62.0598Z" fill="#5A9FA8"/>
<path d="M36.769 61.3761C37.9473 61.3059 40.2056 60.9696 40.2545 62.7094C40.278 63.5433 40.0056 63.7868 39.3741 64.2554C39.7134 64.7325 40.6925 65.7762 40.0463 66.2226C39.1272 66.3705 38.7033 64.5615 37.9515 64.4215C37.6835 64.695 37.7518 65.75 37.7511 66.1873C37.4903 66.195 37.0904 66.2395 36.8723 66.128C36.701 65.8804 36.7541 65.847 36.7296 65.4984C36.7287 64.2271 36.6852 62.6203 36.769 61.3761Z" fill="white"/>
<path d="M37.7923 62.2174C38.7668 62.1946 39.4753 62.3009 39.0144 63.4639C38.6403 63.6209 38.2013 63.579 37.7965 63.5694C37.7411 63.0558 37.7649 62.7341 37.7923 62.2174Z" fill="#5A9FA8"/>
<path d="M24.2889 61.2155C25.8217 61.1861 26.859 60.916 27.7961 62.3951C27.7964 63.8049 27.1976 64.459 25.7364 64.4484C25.5611 64.4467 25.3859 64.4429 25.2107 64.437C25.2041 64.8816 25.2091 65.7438 25.0686 66.1567C24.757 66.1123 24.4587 66.1232 24.2416 65.9193C24.0332 65.304 24.1482 61.895 24.2889 61.2155Z" fill="white"/>
<path d="M25.2343 62.1738C26.1695 62.1875 26.973 62.246 26.4376 63.3755C26.0035 63.5146 25.6231 63.7201 25.2716 63.3749C25.1499 63.0766 25.2168 62.5178 25.2343 62.1738Z" fill="#5A9FA8"/>
<path d="M28.2116 61.3462C28.5277 61.3387 28.8758 61.3219 29.1885 61.344C29.2781 62.5329 29.2103 63.8511 29.252 65.0612C29.8707 65.0718 30.4894 65.0863 31.108 65.1047C31.1173 65.4003 31.1617 65.8044 31.0483 66.0639C30.8996 66.2058 30.9724 66.1646 30.7663 66.2145C29.9821 66.2397 29.0356 66.1885 28.25 66.1498C28.1875 65.6453 28.1653 65.2178 28.1418 64.7095C28.1659 63.8052 28.1076 62.1292 28.2116 61.3462Z" fill="white"/>
<path d="M19.662 60.9939C21.0062 60.8984 21.0223 61.3501 21.6553 62.4231C22.0583 61.9011 22.4113 60.7556 23.3717 61.212C23.5184 61.2818 23.5128 61.3673 23.553 61.5123C23.4855 61.9835 22.6504 62.9107 22.2935 63.4965C22.6919 64.268 23.6076 65.0452 23.587 65.6482C23.4449 65.9498 23.5291 65.853 23.2471 66.0344L22.854 66.0227C22.3915 65.7932 21.7816 64.6606 21.5162 64.1906C21.2421 64.7822 20.91 65.2466 20.5072 65.7523C20.0876 65.7377 19.6938 65.7945 19.5129 65.3805C19.5687 64.8827 20.485 64.1004 20.9363 63.4254C20.7938 63.111 20.6658 62.8487 20.4961 62.5476C20.201 62.0239 19.669 61.6085 19.662 60.9939Z" fill="white"/>
<path d="M41.379 61.2932C41.9737 61.2658 43.4641 61.0654 43.8474 61.5023C43.9032 61.7515 43.9061 61.6472 43.8248 61.9001C43.4853 62.2469 42.6474 62.1332 42.015 62.2203L42.1 63.2369C42.579 63.2137 43.6525 63.0417 43.7226 63.6787C43.3371 64.1547 42.6257 64.0869 42.088 64.0696C42.0795 64.3842 42.1188 64.7035 42.1494 65.0174C42.7399 64.9976 43.3837 64.9569 43.9648 65.0357C43.9555 65.3406 43.9003 65.7254 43.8647 66.0348C43.0422 66.1629 41.7815 66.1909 40.9566 66.1218C40.8459 65.2524 40.7425 62.2764 40.9319 61.4694C41.0851 61.2995 41.1001 61.346 41.379 61.2932Z" fill="white"/>
<path d="M16.1768 60.7592C16.7082 60.7142 18.4014 60.7301 18.8965 60.9695C19.0942 61.065 19.1135 61.1845 19.1661 61.3598C18.9969 61.9595 17.8138 61.7312 17.2597 61.7188C17.3001 61.9857 17.3219 62.2877 17.3471 62.5595C17.9099 62.565 18.1862 62.592 18.7437 62.6758C18.7643 62.9927 18.8268 63.3705 18.8709 63.6897C18.1999 63.7167 17.5102 63.3824 17.1612 64.0178L17.2696 64.3384C17.6415 64.7326 18.4615 64.4764 18.9607 64.7162C19.181 64.9839 19.2125 65.3535 18.9363 65.5832C18.2346 65.6101 16.7832 65.4433 16.0589 65.3616C16.0204 64.1912 16.008 61.891 16.1768 60.7592Z" fill="white"/>
<path d="M58.0645 61.9648C58.1259 62.7462 58.2046 66.2847 58.0553 66.8831C57.7378 66.9454 56.4261 66.3674 56.0439 66.2133C55.9177 66.1204 55.8891 65.9252 55.8079 65.7917C55.4467 65.1973 55.1041 64.4525 55.4865 63.7947C56.0331 62.8542 56.9152 63.2554 57.6706 62.7139C57.9539 62.5109 57.7264 62.3037 57.8858 62.0101L58.0645 61.9648Z" fill="#5A9FA8"/>
<path d="M23.3574 68.9516C23.5545 68.8564 23.9737 68.8052 24.1313 68.9862L24.0472 69.155C23.6247 69.2055 23.6794 69.1802 23.3574 68.9516Z" fill="#5A9FA8"/>
<path d="M50.2822 57.6889C50.7558 57.5964 50.5936 57.4081 51.0266 57.769C50.9196 57.8271 50.7712 57.8764 50.6546 57.9197C50.3869 57.8584 50.4868 57.9116 50.2822 57.6889Z" fill="#5A9FA8"/>
<path d="M11.1292 13.038C12.3754 11.5279 14.3334 9.99186 15.8225 8.68269C16.2197 8.33346 17.0248 8.00795 17.4965 7.69536C21.3994 5.10891 25.9135 3.94169 30.5575 3.72538C30.8662 3.71103 31.8402 3.63356 32.1036 3.7393C32.2299 3.95294 32.1868 3.91154 32.1514 4.20971L32.0444 4.20365L32.4256 4.27419C33.2568 4.32338 38.5909 4.85387 39.061 5.21912C38.1938 5.81986 37.6965 6.79645 36.9865 7.59726C35.5651 9.20042 34.2089 10.8455 32.7838 12.4469C32.485 12.7827 32.1119 13.3123 31.8743 13.714C31.7675 13.7477 31.6768 13.7763 31.6022 13.7998C29.055 13.917 26.3539 14.4206 24.0562 15.5397C23.9607 15.437 23.5777 15.0416 23.5141 14.9535C22.1087 13.7267 20.825 12.4999 19.1146 11.6792C18.2299 11.2547 16.197 10.044 15.3007 11.0192C14.8358 11.5706 14.5193 12.8292 14.3107 13.5369C13.2657 17.0849 12.4054 22.1133 13.2624 25.7534C13.0539 26.2284 12.3913 27.6129 12.562 28.0529L12.5547 28.0897C12.6077 28.262 12.6599 28.3023 12.5517 28.4606C12.2551 28.8946 12.001 29.184 11.8313 29.6921L11.867 29.7576L12.0142 29.8083C12.0087 30.1293 11.9495 30.2408 12.0852 30.4851L12.2237 30.545L12.4198 30.7087C12.2206 31.048 12.1236 31.2421 11.9691 31.6042C11.6693 32.2327 11.4501 32.7469 11.2619 33.4222C11.1909 33.677 11.1574 33.9783 11.0841 34.1987C11.046 35.3502 10.9848 36.3585 11.217 37.5001C11.0823 38.2723 11.1634 38.6778 11.2322 39.4532C10.9521 39.1659 10.8276 39.0219 10.4749 38.8204C10.1508 38.5657 9.72978 38.1588 9.31851 38.23C8.16795 38.4292 6.13579 39.9901 5.46271 40.8686C5.41345 40.933 5.36549 40.9984 5.31889 41.0647C4.92313 41.466 4.69514 41.6133 4.55507 42.157C3.70745 43.2683 3.53954 43.7951 3.0203 45.1201C2.92545 45.5291 2.82989 46.5542 2.73742 46.7425L2.63594 46.7568C1.39298 43.0005 0.401298 39.7441 0.247922 35.7798C0.10791 32.1607 0.136147 28.5839 1.16889 25.0769C1.48523 24.0026 1.79682 22.9351 2.11425 21.8676L2.49803 20.7437C2.83118 19.835 3.34458 18.5322 3.78455 17.6931L3.93039 17.4662C4.18593 17.4845 4.56351 17.4391 4.81942 17.4116C5.78028 16.0071 6.20107 14.7406 7.33288 13.4435C7.91667 12.6353 8.72232 11.6865 9.37549 10.9336C9.58033 11.0603 9.63962 11.3103 9.81251 11.5573C10.07 11.9254 10.9475 12.7304 11.1292 13.038Z" fill="#A8D0D3"/>
<path d="M32.4251 4.27539C33.2563 4.32458 38.5904 4.85507 39.0605 5.22032C38.1933 5.82106 37.696 6.79765 36.986 7.59847C35.5646 9.20162 34.2084 10.8467 32.7833 12.4481C32.4845 12.7839 32.1114 13.3135 31.8738 13.7152C31.767 13.7489 31.6763 13.7775 31.6017 13.801C29.0545 13.9182 26.3534 14.4218 24.0557 15.5409C23.9602 15.4382 23.5772 15.0428 23.5136 14.9547C23.4779 14.7897 23.4769 14.1829 23.5545 14.055C24.4626 12.5584 25.8802 11.3744 27.0112 10.102C28.625 8.28626 30.1033 6.40348 31.6695 4.55575C31.9472 4.22808 32.0084 4.30857 32.4251 4.27539Z" fill="#C3DCDC"/>
<path d="M2.11425 21.8682C2.34137 22.1017 2.48483 22.259 2.75329 22.4484L2.14649 24.4255C2.17404 24.4474 2.41227 24.6367 2.41602 24.6511C2.61293 25.4175 3.08139 27.4315 4.27768 27.0036C4.49434 27.0732 4.43708 27.0191 4.5255 27.187L4.46867 27.3542C3.93111 30.1456 3.86057 34.6072 4.31439 37.4106C4.50689 38.5995 5.01495 39.8476 5.21041 40.9446L5.31889 41.0652C4.92314 41.4665 4.69514 41.6139 4.55508 42.1576C3.70745 43.2689 3.53954 43.7956 3.0203 45.1207C2.92545 45.5296 2.82989 46.5548 2.73742 46.743L2.63594 46.7574C1.39298 43.001 0.401298 39.7447 0.247922 35.7803C0.10791 32.1613 0.136147 28.5845 1.16889 25.0774C1.48523 24.0032 1.79682 22.9357 2.11425 21.8682Z" fill="#A8D0D3"/>
<path d="M2.11425 21.8682C2.34137 22.1017 2.48483 22.259 2.75329 22.4484L2.14649 24.4255C1.81132 25.3077 1.70046 26.4058 1.51098 27.3294C0.4568 32.4684 0.859084 37.4262 2.17144 42.4667C2.33878 43.1094 2.65808 44.44 2.89905 45.0175L3.0203 45.1207C2.92545 45.5296 2.82989 46.5548 2.73742 46.743L2.63594 46.7574C1.39298 43.001 0.401298 39.7447 0.247922 35.7803C0.10791 32.1613 0.136147 28.5845 1.16889 25.0774C1.48523 24.0032 1.79682 22.9357 2.11425 21.8682Z" fill="#388497"/>
<path d="M4.55476 42.1589C4.58512 41.5329 3.97349 38.7942 3.87735 37.8873C3.55624 34.8583 3.4143 31.8324 3.85448 28.8023C3.915 28.3856 4.02982 27.4869 4.28364 27.165L4.39803 27.1813L4.46835 27.3556C3.93079 30.147 3.86025 34.6085 4.31407 37.412C4.50658 38.6008 5.01464 39.849 5.2101 40.9459L5.31858 41.0666C4.92282 41.4679 4.69483 41.6153 4.55476 42.1589Z" fill="#5A9FA8"/>
<path d="M9.37526 10.9346C9.5801 11.0613 9.63939 11.3112 9.81227 11.5582C10.0698 11.9264 10.9473 12.7313 11.129 13.0389C10.1138 14.2847 9.84653 14.7076 9.00208 16.0492C8.45031 16.8543 7.94312 17.5571 7.67055 18.5032L7.71058 18.6012C8.05073 18.4675 8.29978 17.8835 8.50621 17.5254C8.60084 17.8057 8.15027 18.3976 7.98329 18.6585C7.99685 19.0605 8.03068 19.4831 8.14651 19.9028C8.52972 21.2907 9.65972 23.5231 7.28951 23.7105C6.98103 23.7349 6.68185 23.651 6.37466 23.7784C6.08536 24.1567 6.36521 24.5331 6.5712 24.9014C6.36168 25.4573 5.46659 26.8354 4.78911 26.652L4.48149 26.4003C4.37856 26.6055 4.33796 26.7837 4.27744 27.004C3.08116 27.4319 2.61269 25.4179 2.41579 24.6515C2.41204 24.6371 2.17381 24.4478 2.14625 24.4259L2.75305 22.4488C2.4846 22.2594 2.34114 22.1021 2.11401 21.8686L2.4978 20.7446C2.83095 19.836 3.34434 18.5332 3.78432 17.6941L3.93015 17.4671C4.1857 17.4854 4.56328 17.4401 4.81918 17.4125C5.78005 16.008 6.20084 14.7415 7.33264 13.4445C7.91643 12.6362 8.72208 11.6874 9.37526 10.9346Z" fill="#EFF4F4"/>
<path d="M9.37538 10.9346C9.58022 11.0613 9.63951 11.3112 9.81239 11.5582C10.0699 11.9264 10.9474 12.7313 11.1291 13.0389C10.1139 14.2847 9.84665 14.7076 9.0022 16.0492C8.99181 15.4741 9.43366 15.1707 9.32821 14.9431C9.12431 14.5031 8.26384 13.3409 7.83952 13.1499C7.653 13.2986 7.60576 13.3349 7.38289 13.4247L7.33276 13.4445C7.91655 12.6362 8.7222 11.6874 9.37538 10.9346Z" fill="#A8D0D3"/>
<path d="M3.78456 17.6934C4.13979 18.0438 4.47236 17.8383 4.55495 18.0975C4.12745 18.8604 3.89542 19.6737 3.4085 20.5546C2.8933 20.5322 2.86632 20.6878 2.49805 20.7439C2.8312 19.8352 3.34459 18.5324 3.78456 17.6934Z" fill="#3D8696"/>
<path d="M2.4978 20.7442C2.86607 20.6881 2.89305 20.5325 3.40825 20.5549C3.21344 21.0268 2.82179 21.9684 2.75305 22.4484C2.4846 22.259 2.34114 22.1017 2.11401 21.8681L2.4978 20.7442Z" fill="#84BBC3"/>
<path d="M11.1294 13.038C12.3755 11.5279 14.3335 9.99186 15.8226 8.68269C16.2198 8.33346 17.0249 8.00795 17.4966 7.69536C21.3995 5.10891 25.9136 3.94169 30.5577 3.72538C30.8663 3.71103 31.8403 3.63356 32.1037 3.7393C32.2301 3.95294 32.1869 3.91154 32.1515 4.20971L32.0445 4.20365C28.2636 4.29979 23.8878 5.06671 20.4796 6.84153C19.2874 7.46239 18.0468 8.03435 16.9401 8.81353C15.5316 9.95024 14.0053 10.9881 12.7043 12.2444C12.2317 12.7009 11.7732 13.4219 11.3128 13.8383C10.1144 14.9221 9.21123 16.0583 8.50655 17.5244C8.30013 17.8825 8.05108 18.4666 7.71093 18.6003L7.6709 18.5023C7.94346 17.5561 8.45066 16.8533 9.00242 16.0482C9.84688 14.7066 10.1141 14.2837 11.1294 13.038Z" fill="#5A9FA8"/>
<path d="M11.3662 31.5664L11.4955 31.7549C11.7031 31.7845 11.7485 31.7136 11.9688 31.6053C11.669 32.2338 11.4498 32.7481 11.2616 33.4233C11.1907 33.6781 11.1572 33.9794 11.0839 34.1998C11.0458 35.3513 10.9845 36.3596 11.2168 37.5013C11.082 38.2734 11.1631 38.6789 11.232 39.4543C10.9519 39.1671 10.8274 39.023 10.4747 38.8215C10.5513 38.6036 10.505 38.6077 10.4336 38.3392C9.72751 35.5328 10.2147 34.0232 11.3662 31.5664Z" fill="#302451"/>
<path d="M11.8311 29.693C10.1233 29.5414 11.4556 27.8568 12.5545 28.0906C12.6075 28.2629 12.6597 28.3032 12.5515 28.4615C12.2549 28.8955 12.0008 29.1849 11.8311 29.693Z" fill="white"/>
<path d="M11.8668 29.7588L12.0141 29.8095C12.0085 30.1305 11.9493 30.242 12.085 30.4863L12.2235 30.5463L12.4196 30.7099C12.2204 31.0492 12.1234 31.2434 11.9689 31.6054C11.7486 31.7137 11.7032 31.7846 11.4955 31.755L11.3662 31.5665C11.598 30.9558 11.6633 30.383 11.8668 29.7588Z" fill="#110926"/>
<path d="M6.7727 25.0195L6.91623 25.1522C6.81547 26.5438 7.51783 26.7674 7.97829 27.8633L8.0044 27.9271C8.47495 27.6742 8.59843 26.2538 8.7649 25.77C8.88275 26.1084 8.82765 26.1526 8.80594 26.5143C8.99657 26.8874 8.16877 28.5728 7.93523 28.9529C6.99369 27.9702 6.51124 26.3559 6.7727 25.0195Z" fill="#C3DCDC"/>
<path d="M3.93018 17.4676C4.80485 15.8555 6.00424 13.9001 7.06839 12.3839C7.84108 11.2829 9.25432 10.0783 10.0976 8.96603C10.2807 8.72455 10.7961 8.40193 11.0154 8.16867C11.7711 7.63227 12.5377 6.74454 13.2835 6.2333C16.169 4.25538 19.2256 2.51749 22.5978 1.52365C25.0333 0.829087 29.2645 -0.0425232 31.8388 0.00161091C36.0656 0.074069 42.0816 1.40528 45.8926 3.35611C47.1496 3.99955 49.4004 5.30677 50.4847 6.07354C56.2869 10.2206 60.5215 16.2027 62.5042 23.0535C64.1667 28.707 64.5493 33.4948 63.441 39.2712C63.2813 40.1304 63.0983 40.9852 62.8924 41.8346C62.7053 42.5959 62.3208 43.7988 62.3161 44.5359C62.1467 43.6273 62.1458 44.0351 61.936 43.3315C61.2894 41.7623 60.8373 41.0767 59.796 39.7857L59.58 39.5606C58.7429 38.672 57.7627 38.0893 56.7399 37.4501C56.9903 37.1165 59.6855 35.841 59.9327 35.4111C60.0228 34.9267 60.0875 34.5941 60.1151 34.1024C60.0647 32.9211 60.0743 31.6803 60.0486 30.4894C60.0189 29.995 60.0385 29.2764 60.0363 28.7648L60.0364 28.5473C59.9187 27.5889 58.9526 24.4829 58.5853 23.568L58.4172 23.1387C58.4111 22.6468 58.2585 22.1478 58.1381 21.6673C57.8013 20.9076 56.4494 18.6395 55.9661 17.7798L55.6395 17.3954C54.3591 16.0082 53.2539 14.0966 51.9465 12.7736C49.1242 9.91752 45.7048 7.67633 42.0316 6.07145C41.189 5.70332 40.0072 5.48254 39.1125 5.2169L39.0608 5.22051C38.5907 4.85526 33.2566 4.32477 32.4254 4.27558L32.0442 4.20504L32.1512 4.2111C32.1866 3.91293 32.2297 3.95433 32.1034 3.74069C31.84 3.63495 30.866 3.71242 30.5573 3.72677C25.9133 3.94308 21.3992 5.1103 17.4963 7.69675C17.0246 8.00934 16.2195 8.33485 15.8223 8.68408C14.3332 9.99325 12.3752 11.5293 11.129 13.0394C10.9473 12.7317 10.0698 11.9268 9.81229 11.5587C9.63941 11.3116 9.58012 11.0617 9.37528 10.935C8.7221 11.6879 7.91645 12.6367 7.33266 13.4449C6.20086 14.742 5.78007 16.0084 4.81921 17.413C4.5633 17.4405 4.18572 17.4859 3.93018 17.4676Z" fill="#84BBC3"/>
<path d="M3.93018 17.4676C4.80485 15.8555 6.00424 13.9001 7.06839 12.3839C7.84108 11.2829 9.25432 10.0783 10.0976 8.96603C10.2807 8.72455 10.7961 8.40193 11.0154 8.16867C11.7711 7.63227 12.5377 6.74454 13.2835 6.2333C16.169 4.25538 19.2256 2.51749 22.5978 1.52365C25.0333 0.829087 29.2645 -0.0425232 31.8388 0.00161091C36.0656 0.074069 42.0816 1.40528 45.8926 3.35611C47.1496 3.99955 49.4004 5.30677 50.4847 6.07354C56.2869 10.2206 60.5215 16.2027 62.5042 23.0535C64.1667 28.707 64.5493 33.4948 63.441 39.2712C63.2813 40.1304 63.0983 40.9852 62.8924 41.8346C62.7053 42.5959 62.3208 43.7988 62.3161 44.5359C62.1467 43.6273 62.1458 44.0351 61.936 43.3315C62.1717 43.1414 62.0668 42.9603 62.1254 42.688C63.0167 38.545 63.3619 34.4543 63.0788 30.2138C62.5096 21.8054 58.5994 13.9743 52.2202 8.46691C49.1327 5.7771 44.2357 3.13043 40.3132 2.00017C29.5289 -1.10737 16.7149 2.44281 9.37528 10.935C8.7221 11.6879 7.91645 12.6367 7.33266 13.4449C6.20086 14.742 5.78007 16.0084 4.81921 17.413C4.5633 17.4405 4.18572 17.4859 3.93018 17.4676Z" fill="#3D8696"/>
<path d="M39.4737 4.80469C40.3779 4.98948 41.1691 5.35739 42.0207 5.61149C45.8263 6.74712 49.0101 9.18066 51.9491 11.7681C52.6165 12.3557 53.2148 13.1924 53.8176 13.8568C54.7865 14.8934 55.3432 15.6279 55.9752 16.8893L56.2491 17.246C56.1739 17.3937 56.0528 17.6506 55.9659 17.7801L55.6393 17.3958C54.3589 16.0085 53.2537 14.0969 51.9463 12.7739C49.124 9.91787 45.7046 7.67669 42.0313 6.0718C41.1888 5.70367 40.007 5.48289 39.1123 5.21725C39.1838 5.05771 39.3431 4.92997 39.4737 4.80469Z" fill="#5A9FA8"/>
<path d="M55.9756 16.8887L56.2495 17.2454C56.1742 17.3931 56.0531 17.65 55.9663 17.7795L55.6396 17.3951C55.7304 17.1506 55.8054 17.0842 55.9756 16.8887Z" fill="#84BBC3"/>
<path d="M56.7402 37.4491C56.9907 37.1155 59.6858 35.84 59.933 35.4102C59.9605 36.0035 59.8418 39.1087 59.5803 39.5597C58.7433 38.6711 57.763 38.0883 56.7402 37.4491Z" fill="#A8D0D3"/>
<path d="M32.1509 4.21052L32.315 4.11084L32.3407 3.90846C33.4298 3.68386 38.7665 4.14049 39.4736 4.80376C39.3431 4.92904 39.1837 5.05678 39.1122 5.21632L39.0605 5.21993C38.5904 4.85468 33.2563 4.32419 32.4251 4.275L32.0439 4.20446L32.1509 4.21052Z" fill="#A8D0D3"/>
<path d="M58.585 23.5673C58.8347 23.4502 58.9718 23.3369 59.2167 23.3531C59.3759 23.6117 59.4388 24.0969 59.5212 24.4041C59.9624 26.0472 60.1324 26.838 60.0361 28.5466C59.9183 27.5882 58.9522 24.4823 58.585 23.5673Z" fill="#A8D0D3"/>
<path d="M60.1152 34.103L60.2358 33.9659L60.4535 33.959C60.7384 34.3603 60.0496 39.4894 59.7961 39.7863L59.5801 39.5612C59.8416 39.1102 59.9603 36.0051 59.9328 35.4117C60.0229 34.9273 60.0876 34.5946 60.1152 34.103Z" fill="#4694A3"/>
<path d="M56.2495 17.2451C56.6201 17.8847 58.367 20.8943 58.2844 21.4902C58.233 21.5606 58.2049 21.6116 58.1382 21.6667C57.8014 20.907 56.4496 18.639 55.9663 17.7792C56.0531 17.6497 56.1742 17.3928 56.2495 17.2451Z" fill="#5A9FA8"/>
<path d="M60.0366 28.7646C60.2254 29.1313 60.4919 28.9654 60.7193 29.2829C60.5884 29.6281 60.1996 29.5949 60.0909 29.8794C60.0583 29.9645 60.0684 30.3503 60.0488 30.4893C60.0192 29.9949 60.0387 29.2763 60.0366 28.7646Z" fill="#A8D0D3"/>
<path d="M7.47127 47.6582C10.6225 48.9387 8.89425 50.2886 11.0941 51.2397C11.9593 50.361 12.6831 49.5321 14.0323 49.5045C15.2218 49.4803 16.2426 50.1832 17.288 50.424C17.6981 51.2696 18.3272 51.8686 19.1914 52.1824C20.0938 52.5101 20.8079 52.233 21.549 52.0348C21.6419 52.0099 22.6829 53.438 22.8372 53.675C23.216 53.8394 23.6755 54.0529 24.0538 54.1969C24.5205 55.8727 25.6608 55.8415 27.1361 56.2741C27.561 56.3986 27.9797 56.5377 28.3951 56.6911C28.822 56.4603 29.3375 56.2012 29.7328 55.9188C29.8331 55.8472 29.9745 55.3653 30.0343 55.2096C30.1745 55.1433 34.0493 55.4132 34.5961 55.2716C34.7274 55.2376 36.3988 55.1796 36.5436 55.2079C36.8602 56.2203 37.179 56.1109 38.0787 56.7052C39.1056 56.6055 41.1725 56.1067 41.8796 55.4009C42.8675 54.4149 43.3235 53.8887 44.6387 53.2475C45.9603 52.6032 46.4912 53.7043 47.5163 52.4608C47.6361 52.3158 47.7509 52.1667 47.8605 52.0137C49.4255 52.5304 50.3584 51.3589 51.4108 50.3945C51.3278 49.8662 51.1547 49.3822 51.7188 49.0981C52.8467 49.0125 53.7624 50.4811 54.4798 50.5886L54.6941 50.6718C54.72 50.8387 54.7367 50.7663 54.6713 50.8993C53.7159 51.7327 52.9309 53.1039 52.0922 54.026C51.3554 54.8359 50.4299 55.5052 49.6471 56.347L49.8768 56.4795C49.8288 56.626 49.8217 56.621 49.8564 56.7668C49.6606 56.7898 49.5157 56.8148 49.3169 56.7933C46.6318 57.089 43.7357 57.2043 41.0413 57.3173C37.5794 57.4895 34.1132 57.5583 30.6471 57.5234C29.1573 57.4991 27.5509 57.439 26.0576 57.3446C22.5828 57.1249 18.422 57.2291 15.0257 56.6242C14.4055 56.614 14.3371 56.6273 13.7512 56.3946L13.8136 56.3257C13.8036 56.2246 12.4739 55.0638 12.2619 54.8382C11.0951 53.5963 9.82252 52.1896 8.8719 50.786C8.31292 49.9606 8.04021 49.2365 7.40088 48.4761C7.49875 48.3383 7.51585 48.3213 7.65361 48.2233C7.56273 48.0438 7.52169 47.8527 7.47127 47.6582Z" fill="#A8D0D3"/>
<path d="M7.40088 48.4764C7.49875 48.3386 7.51585 48.3216 7.65361 48.2236C8.19196 49.1464 8.72988 50.1848 9.30126 51.0696C9.66117 51.6271 10.5557 52.2821 10.9866 52.7913C11.8212 53.7774 13.909 56.1838 15.0257 56.6245C14.4055 56.6143 14.3371 56.6276 13.7512 56.395L13.8136 56.326C13.8036 56.2249 12.4739 55.0641 12.2619 54.8385C11.0951 53.5966 9.82252 52.1899 8.8719 50.7864C8.31292 49.9609 8.04021 49.2369 7.40088 48.4764Z" fill="#4D8F9E"/>
<path d="M49.6476 56.3467L49.8772 56.4791C49.8292 56.6257 49.8221 56.6206 49.8568 56.7665C49.661 56.7895 49.5162 56.8144 49.3174 56.7929C49.4292 56.5586 49.4443 56.5177 49.6476 56.3467Z" fill="#5A9FA8"/>
<path d="M39.1126 5.2168C40.0073 5.48244 41.1891 5.70322 42.0317 6.07135C45.7049 7.67623 49.1243 9.91741 51.9466 12.7735C53.254 14.0965 54.3592 16.008 55.6396 17.3953L55.9663 17.7797C56.4495 18.6394 57.8014 20.9075 58.1382 21.6672C58.2586 22.1477 58.4112 22.6467 58.4173 23.1386C58.3856 23.4118 58.4307 23.3916 58.2775 23.5693C57.9763 23.5926 57.7894 23.5996 57.4904 23.5407C56.231 23.2929 56.2256 21.7124 55.8092 21.119L55.7737 21.0695C55.8431 21.5661 55.8975 21.8661 56.0224 22.351C55.7965 22.1034 55.7206 21.965 55.6513 21.6467C55.5698 21.2409 55.4474 20.8881 55.0284 20.819C54.9214 21.3068 54.7982 21.9497 54.6513 22.4135C54.4061 22.6145 54.1512 22.8273 53.899 23.0205C53.641 23.2181 52.9886 23.4109 52.8541 23.6582C53.0129 23.9232 53.4185 23.9875 53.704 24.1526L53.6318 24.151C53.2337 24.1393 53.0436 24.0626 52.6638 23.9801C51.8162 23.796 51.329 23.9878 50.5232 24.2222C50.0796 23.494 50.1633 21.8531 50.0695 20.948C49.6996 17.3763 48.763 14.1355 47.2673 10.8749C47.0226 10.3414 46.709 9.41729 46.2224 9.06394C46.0095 8.9093 45.7318 8.93022 45.4846 8.96989C44.462 9.13391 41.289 11.3959 40.4381 12.1756C39.6113 12.9333 38.7489 13.9261 38.0911 14.8354C36.4452 14.1157 33.4404 13.7926 31.6021 13.8011C31.6767 13.7775 31.7674 13.749 31.8742 13.7153C32.1118 13.3136 32.4849 12.784 32.7837 12.4482C34.2088 10.8468 35.565 9.2017 36.9864 7.59855C37.6964 6.79773 38.1937 5.82114 39.0609 5.2204L39.1126 5.2168Z" fill="#A8D0D3"/>
<path d="M55.0283 20.8184C55.1563 20.3297 55.245 19.8728 55.5869 19.4852L55.7045 19.4736C55.9192 19.878 55.6984 20.5104 55.7737 21.0689C55.8431 21.5655 55.8974 21.8656 56.0223 22.3504C55.7964 22.1029 55.7205 21.9644 55.6513 21.6461C55.5697 21.2403 55.4473 20.8875 55.0283 20.8184Z" fill="#E7CC87"/>
<path d="M55.0284 20.8184C55.4474 20.8875 55.5698 21.2402 55.6514 21.6461C55.7206 21.9644 55.7965 22.1028 56.0224 22.3503C55.8975 21.8655 55.8432 21.5654 55.7738 21.0689L55.8092 21.1183C56.2256 21.7118 56.2311 23.2922 57.4904 23.54C57.7894 23.5989 57.9764 23.5919 58.2776 23.5686C58.4308 23.391 58.3856 23.4112 58.4173 23.1379L58.5855 23.5672C58.9527 24.4822 59.9188 27.5881 60.0366 28.5466L60.0364 28.764C60.0386 29.2757 60.0191 29.9943 60.0487 30.4886C60.0745 31.6796 60.0649 32.9204 60.1152 34.1016C60.0876 34.5933 60.0229 34.926 59.9328 35.4104C59.6856 35.8403 56.9905 37.1157 56.74 37.4493C56.5537 37.3373 56.1352 37.1562 55.9231 37.057C54.8813 37.357 54.6586 37.9355 53.9365 38.6664C53.5768 39.0305 53.2153 39.3162 52.8069 39.6236C53.0362 38.2905 53.286 36.9345 53.3549 35.5836C53.5301 31.602 52.5464 27.6551 50.5232 24.2215C51.329 23.9872 51.8162 23.7953 52.6638 23.9794C53.0436 24.062 53.2337 24.1386 53.6318 24.1504L53.704 24.152C53.4185 23.9869 53.0129 23.9225 52.8541 23.6575C52.9886 23.4103 53.641 23.2174 53.8991 23.0198C54.1512 22.8266 54.4061 22.6139 54.6513 22.4129C54.7983 21.9491 54.9214 21.3061 55.0284 20.8184Z" fill="#BED9DC"/>
<path d="M55.0283 20.8184C55.4473 20.8875 55.5697 21.2402 55.6513 21.6461C55.7205 21.9644 55.7964 22.1028 56.0223 22.3503C56.4316 22.9514 56.5765 23.0243 56.9851 23.5221L57.0334 23.5467C57.3665 23.7135 57.6498 23.6897 57.8511 23.8501L57.8502 23.9633C57.5851 24.1623 57.3662 24.1436 57.0745 24.2555C56.0056 24.6658 55.9321 25.4396 55.6966 26.3408C55.5412 26.0759 55.3002 25.7076 55.227 25.4217C55.1813 25.3281 55.1327 25.236 55.0811 25.1454C54.7757 24.6116 54.2897 24.3112 53.7039 24.152C53.4184 23.9869 53.0128 23.9225 52.854 23.6575C52.9885 23.4103 53.6409 23.2174 53.899 23.0198C54.1511 22.8266 54.406 22.6139 54.6512 22.4129C54.7982 21.9491 54.9213 21.3061 55.0283 20.8184Z" fill="#FFE689"/>
<path d="M53.988 23.3096C54.8678 22.7213 54.669 22.4582 55.2654 21.6547C55.3292 21.5688 55.5437 21.6281 55.6515 21.646C55.7207 21.9643 55.7966 22.1027 56.0225 22.3502C56.4318 22.9513 56.5767 23.0242 56.9853 23.522C56.5296 24.2032 56.0501 23.8446 55.4914 24.6938C54.8527 24.3373 54.6085 23.7773 53.988 23.3096Z" fill="#FEF5C0"/>
<path d="M5.31878 41.0666C5.36537 41.0003 5.41334 40.9349 5.4626 40.8705C6.13568 39.992 8.16784 38.4311 9.3184 38.2319C9.72966 38.1607 10.1507 38.5676 10.4748 38.8223C10.8275 39.0238 10.952 39.1679 11.2321 39.4551C11.9017 40.7195 12.0178 41.3697 12.8787 42.576C13.4683 42.8669 14.1768 43.4272 14.5828 43.9461C14.2453 44.3645 14.0313 43.7598 13.5272 43.758C13.047 43.4281 11.6321 42.2628 11.2043 43.0484C10.9808 43.4587 10.8715 44.6086 10.8927 45.0883C11.5132 44.7365 11.3247 44.4399 11.7341 43.9335L11.8803 43.9192C12.1374 44.0599 12.4088 44.5025 12.5912 44.7581L12.9309 45.4506C12.9581 45.5973 13.0228 46.062 13.1066 46.1491C13.235 46.3125 13.3784 46.4577 13.3951 46.663L13.3109 46.7679C12.9329 46.7834 12.5378 46.6326 12.2525 46.7617C12.051 47.0538 11.7851 48.1947 11.1674 48.5018C10.7722 48.7854 10.9378 49.3871 10.5432 49.6223C10.1749 49.6026 10.0808 49.3467 9.90926 49.0429C8.71391 46.9258 6.48888 46.0045 4.07828 46.3348L3.94621 46.5021C3.77845 46.511 3.68238 46.5106 3.51548 46.5546L3.48013 46.7012C3.63629 46.6949 3.69601 46.6894 3.84935 46.713L3.94852 46.8414C3.57108 46.8911 3.03504 46.9668 2.7373 46.7444C2.82977 46.5561 2.92534 45.531 3.02018 45.122C3.53942 43.797 3.70733 43.2702 4.55496 42.1589C4.69503 41.6152 4.92302 41.4679 5.31878 41.0666Z" fill="#AA6DBD"/>
<path d="M5.31878 41.0666C5.36537 41.0003 5.41334 40.9349 5.4626 40.8705C6.13568 39.992 8.16784 38.4311 9.3184 38.2319C9.72966 38.1607 10.1507 38.5676 10.4748 38.8223C10.8275 39.0238 10.952 39.1679 11.2321 39.4551C11.9017 40.7195 12.0178 41.3697 12.8787 42.576C13.4683 42.8669 14.1768 43.4272 14.5828 43.9461C14.2453 44.3645 14.0313 43.7598 13.5272 43.758C13.047 43.4281 11.6321 42.2628 11.2043 43.0484C10.9808 43.4587 10.8715 44.6086 10.8927 45.0883C10.7619 45.2758 10.7306 45.341 10.6382 45.5429C9.47578 44.9279 10.0953 41.7409 9.46806 41.2969C7.1849 42.3799 6.92907 42.4197 5.105 44.1845L4.81195 44.0354C4.56051 44.3265 4.19736 44.9063 3.91816 44.9554L4.07936 45.2322C3.91556 45.48 3.61566 45.8673 3.58645 46.1425L3.64862 46.2941C3.82252 46.3618 3.89118 46.3446 4.07828 46.3348L3.94621 46.5021C3.77845 46.511 3.68238 46.5106 3.51548 46.5546L3.48013 46.7012C3.63629 46.6949 3.69601 46.6894 3.84935 46.713L3.94852 46.8414C3.57108 46.8911 3.03504 46.9668 2.7373 46.7444C2.82977 46.5561 2.92534 45.531 3.02018 45.122C3.53942 43.797 3.70733 43.2702 4.55496 42.1589C4.69503 41.6152 4.92302 41.4679 5.31878 41.0666Z" fill="#543388"/>
<path d="M5.31878 41.0666C5.36537 41.0003 5.41334 40.9349 5.4626 40.8705C6.13568 39.992 8.16784 38.4311 9.3184 38.2319C9.72966 38.1607 10.1507 38.5676 10.4748 38.8223C10.8275 39.0238 10.952 39.1679 11.2321 39.4551C11.9017 40.7195 12.0178 41.3697 12.8787 42.576C12.5956 42.5422 12.5409 42.5401 12.2848 42.4153L12.3015 42.2664C11.1064 41.1492 11.5727 39.6057 9.44801 38.7015C8.65282 39.0756 6.95164 40.0714 6.38228 40.7036C5.3759 41.8209 4.25751 43.4855 3.91816 44.9554L4.07936 45.2322C3.91556 45.48 3.61566 45.8673 3.58645 46.1425L3.64862 46.2941C3.82252 46.3618 3.89118 46.3446 4.07828 46.3348L3.94621 46.5021C3.77845 46.511 3.68238 46.5106 3.51548 46.5546L3.48013 46.7012C3.63629 46.6949 3.69601 46.6894 3.84935 46.713L3.94852 46.8414C3.57108 46.8911 3.03504 46.9668 2.7373 46.7444C2.82977 46.5561 2.92534 45.531 3.02018 45.122C3.53942 43.797 3.70733 43.2702 4.55496 42.1589C4.69503 41.6152 4.92302 41.4679 5.31878 41.0666Z" fill="#010004"/>
<path d="M9.69897 41.1494C10.2538 41.8462 10.0569 42.7236 10.2546 43.6367C10.6425 43.005 10.7462 42.5958 11.0484 41.9968C11.469 42.1597 11.8425 42.3178 12.2848 42.4148C12.5408 42.5396 12.5956 42.5417 12.8787 42.5756C13.4683 42.8665 14.1767 43.4267 14.5827 43.9457C14.2452 44.364 14.0313 43.7593 13.5271 43.7575C13.047 43.4276 11.632 42.2623 11.2042 43.0479C10.9808 43.4582 10.8715 44.6082 10.8927 45.0878C10.7619 45.2753 10.7305 45.3405 10.6382 45.5425C9.47573 44.9274 10.0952 41.7404 9.46802 41.2965L9.69897 41.1494Z" fill="#050015"/>
<path d="M4.81177 44.0347C5.7057 42.8466 6.79921 42.2339 8.08673 41.552C8.58686 41.2873 9.17685 40.7855 9.69883 41.1492L9.46788 41.2963C7.18472 42.3793 6.92889 42.4191 5.10482 44.1839L4.81177 44.0347Z" fill="#010002"/>
<path d="M10.893 45.088C11.5136 44.7362 11.325 44.4396 11.7344 43.9332L11.8806 43.9189C12.1377 44.0596 12.4091 44.5022 12.5916 44.7578L12.9313 45.4503C12.8395 45.916 12.2135 46.4207 11.8015 46.6214C11.9701 46.3832 12.0932 46.1922 12.3054 45.9916C12.1463 46.0537 11.6107 46.2892 11.4825 46.2646C11.4477 45.8085 11.5829 44.6467 11.8218 44.2501L11.979 44.1342C11.8641 43.9752 11.9259 44.013 11.7544 43.9673C11.5511 44.1818 11.605 44.6527 11.5213 44.7664C11.2702 45.1073 11.009 45.5339 10.5856 45.6138L10.5479 45.5703L10.6386 45.5427C10.7309 45.3407 10.7623 45.2755 10.893 45.088Z" fill="#BEA5D0"/>
<path d="M4.81176 44.0342L5.10481 44.1833C4.75629 44.526 4.41434 44.8753 4.07917 45.231L3.91797 44.9542C4.19717 44.9051 4.56033 44.3253 4.81176 44.0342Z" fill="#110926"/>
<path d="M17.4938 44.3857C18.3948 44.6462 18.8735 44.7332 19.8235 44.7459C20.56 44.7557 21.3713 44.6608 22.0759 44.8313C22.1836 44.7713 22.4637 44.6966 22.5956 44.6564C22.9337 44.6961 23.2502 44.7459 23.3892 45.1092L23.3807 45.1767C23.1069 45.2024 23.0362 45.1944 22.8263 45.3744L22.7283 45.5747C23.0436 45.9908 23.5398 46.135 23.9273 46.4434C24.7063 47.0633 24.8012 48.2638 25.1879 49.1131C25.0849 49.3601 24.971 49.6693 24.8177 49.8812L24.7432 50.0204C24.4221 50.6981 24.3284 50.6363 23.6259 50.6776C21.397 50.8088 20.3216 49.2255 19.2969 47.4818C19.3121 47.234 19.3233 47.1304 19.2881 46.8822L19.1941 46.831C18.7589 47.2298 18.9475 48.1361 19.1724 48.6073C19.1137 48.7612 19.0585 48.9226 18.9807 49.0668C17.5282 47.8589 16.7101 48.0684 16.1348 46.1805C16.2948 45.7812 16.3651 45.604 16.6966 45.3372L16.7613 44.9729L16.3154 44.8091C16.5936 44.7757 16.8997 44.8422 17.2017 44.8604L17.1864 44.8089C16.9151 44.7866 16.4744 44.7032 16.3139 44.4619C16.7066 44.5035 17.1008 44.4346 17.4938 44.3857Z" fill="#7E60B0"/>
<path d="M17.4934 44.3857C18.3943 44.6462 18.8731 44.7332 19.823 44.7459C20.5596 44.7557 21.3708 44.6608 22.0754 44.8313C22.1832 44.7713 22.4633 44.6966 22.5951 44.6564C22.9332 44.6961 23.2498 44.7459 23.3888 45.1092L23.3802 45.1767C23.1065 45.2024 23.0358 45.1944 22.8258 45.3744L22.7278 45.5747C22.7207 45.3959 22.75 45.4648 22.6058 45.3269C22.4263 45.3217 21.39 45.4855 21.0631 45.5159L21.0138 45.4566C20.7573 45.4849 20.6758 45.4762 20.5671 45.7489C20.5399 45.7175 20.5128 45.686 20.4857 45.6547C19.8056 45.7178 17.8572 45.5899 17.3292 45.4212C17.1417 45.4063 16.8883 45.3636 16.6962 45.3372L16.7608 44.9729L16.3149 44.8091C16.5931 44.7757 16.8992 44.8422 17.2013 44.8604L17.186 44.8089C16.9147 44.7866 16.474 44.7032 16.3135 44.4619C16.7061 44.5035 17.1003 44.4346 17.4934 44.3857Z" fill="#2C0847"/>
<path d="M17.4934 44.3857C18.3943 44.6462 18.8731 44.7332 19.823 44.7459C20.5596 44.7557 21.3708 44.6608 22.0754 44.8313C20.8595 45.2853 20.0406 45.284 18.7358 45.1987C18.2941 45.1403 17.8001 45.0991 17.3527 45.0518L16.7608 44.9729L16.3149 44.8091C16.5931 44.7757 16.8992 44.8422 17.2013 44.8604L17.186 44.8089C16.9147 44.7866 16.474 44.7032 16.3135 44.4619C16.7061 44.5035 17.1003 44.4346 17.4934 44.3857Z" fill="#543388"/>
<path d="M16.7609 44.9736L17.3529 45.0525L17.4272 45.16L17.242 45.3063L17.3627 45.3557L17.3293 45.4219C17.1418 45.407 16.8884 45.3643 16.6963 45.3379L16.7609 44.9736Z" fill="#030012"/>
<path d="M20.5671 45.7503C20.6758 45.4776 20.7573 45.4863 21.0138 45.458L21.0631 45.5173C21.0803 45.8287 21.2048 46.4045 21.1098 46.5979C20.8759 46.7019 20.6927 46.6968 20.4862 46.5223C20.4071 46.2559 20.5014 46.0498 20.5671 45.7503Z" fill="#010002"/>
<path d="M23.1528 49.6818C23.8423 49.5415 24.3012 49.3079 24.8174 49.8804L24.7429 50.0196C24.4316 49.7046 23.6423 49.7261 23.1528 49.6818Z" fill="#543388"/>
<path d="M10.8927 45.0882C10.8715 44.6086 10.9809 43.4587 11.2043 43.0483C11.6321 42.2627 13.0471 43.428 13.5272 43.7579C14.0314 43.7597 14.2453 44.3644 14.5828 43.9461C14.7716 44.1447 14.8812 44.4996 14.9837 44.7639L15.1819 44.7182C15.3883 44.7739 15.5449 44.8237 15.76 44.8423C15.7571 45.5273 15.5993 45.7511 15.2983 46.3549C16.2037 48.3213 16.5662 48.084 17.8793 49.4378C14.5647 49.25 14.8667 47.9168 11.292 49.7978C11.2926 49.4666 11.3502 48.7363 11.1675 48.5017C11.7851 48.1947 12.051 47.0537 12.2525 46.7616C12.5379 46.6326 12.9329 46.7834 13.3109 46.7679L13.3952 46.663C13.3784 46.4576 13.235 46.3125 13.1066 46.1491C13.0228 46.0619 12.9581 45.5973 12.9309 45.4506L12.5912 44.7581C12.4088 44.5025 12.1374 44.0598 11.8803 43.9192L11.7341 43.9335C11.3247 44.4398 11.5132 44.7365 10.8927 45.0882Z" fill="#874FA9"/>
<path d="M12.5913 44.7568C12.8763 44.802 13.3975 44.8939 13.5745 45.1349C13.6402 45.4679 13.4124 45.6826 13.1802 45.877L13.1067 46.1478C13.0229 46.0607 12.9582 45.596 12.931 45.4493L12.5913 44.7568Z" fill="#906FB6"/>
<path d="M13.5271 43.7568C14.0313 43.7586 14.2452 44.3633 14.5827 43.945C14.7715 44.1437 14.8811 44.4985 14.9835 44.7628C14.6212 44.7602 13.894 44.0352 13.5271 43.7568Z" fill="#030012"/>
<path d="M42.1906 49.3767C43.0291 49.166 43.725 48.9841 44.5478 48.7158C44.5173 50.91 44.1203 51.895 42.6403 53.6438L41.9352 53.8911L41.8714 54.024C41.9769 54.3066 42.0138 54.2644 41.9409 54.4983C41.3993 55.0737 40.4654 55.6235 39.6659 55.6818L39.5305 55.6282C39.0174 55.4291 37.7971 56.4666 37.248 55.1752C37.3299 54.7664 38.3293 54.7977 38.5884 54.2911C38.3407 54.1394 37.8633 54.2741 37.5832 54.3311C35.1922 54.8182 32.6844 54.8062 30.2684 54.5153C29.7211 54.4494 28.433 54.1639 27.9424 54.2739L27.9051 54.3661C28.2343 54.7265 29.024 54.9296 29.4915 55.0742C29.0225 55.5372 28.8758 55.6685 28.2711 55.8924C27.2621 55.5767 26.1545 55.4234 25.202 55.0409C24.9892 54.9554 24.883 54.739 24.8222 54.5242C24.8145 54.4222 24.7853 54.0332 24.7345 53.9655C24.0983 53.116 22.2803 52.4912 22.2886 51.2492C22.7922 50.5148 24.7818 52.6453 25.4549 49.7285C25.7874 50.4783 25.4139 50.7861 24.9794 51.322C24.5195 51.8894 24.7314 53.2622 24.863 53.9187C25.0518 54.1744 24.8123 54.6108 25.2417 54.9421C26.1779 55.1917 27.1318 55.4415 28.0708 55.6666C28.2281 55.7042 28.8734 55.4561 29.0144 55.3178C28.8204 54.7968 27.8412 54.8815 27.6597 54.2943C27.7501 54.1256 27.7619 54.1015 27.9255 54.0045C29.3784 54.1628 30.5048 54.5349 32.0282 54.3805C32.82 54.3003 33.6431 54.2753 34.4408 54.1715C34.8047 54.1637 35.6098 54.3976 36.0486 54.4147C36.8252 54.4451 38.1881 53.8371 38.7506 54.1536C38.9449 54.7424 37.5262 54.8103 37.4511 55.3946C38.1543 56.1449 39.1221 55.1242 39.5611 55.5787C40.1456 55.6161 41.4385 54.8215 41.7243 54.3293C41.6197 53.3515 42.1087 53.6885 42.1459 53.5539C42.5453 52.1078 42.6486 51.9073 43.9599 51.1838C44.3423 50.9728 44.3463 49.3809 44.3494 48.9559C43.7176 49.0978 42.7329 49.5501 42.1906 49.3767Z" fill="#543388"/>
<path d="M15.8373 21.936C15.2603 22.4337 14.406 24.5842 13.7835 24.3853C13.4644 23.7312 13.6642 21.328 13.676 20.545C13.6825 20.1077 13.518 18.691 13.6502 18.3904C14.0132 17.5652 13.9677 17.2101 14.7277 16.7637L14.9106 16.8133C15.0731 18.1174 15.4571 20.6792 15.8373 21.936Z" fill="#110926"/>
<path d="M19.1722 48.6074C19.3575 48.9245 19.5942 49.3065 19.7638 49.6248C19.5321 49.4641 19.1889 49.2416 18.9805 49.0669C19.0583 48.9228 19.1135 48.7613 19.1722 48.6074Z" fill="#69498C"/>
<path d="M52.3038 42.9398C52.8106 42.6321 53.5935 41.982 54.0465 41.5781C54.1794 42.4554 54.4345 43.3714 54.5969 44.2675C54.9421 46.1731 54.3897 47.5726 54.0795 49.4363C53.4129 49.0059 52.9596 48.7085 52.1701 48.5358C51.4956 48.3883 50.4387 48.4251 49.8369 48.1189C47.7346 48.2399 48.5473 49.5908 46.1174 48.0348C47.0685 47.4912 48.7607 46.1408 49.5515 45.3141C49.9188 44.9301 50.2902 44.2985 50.7223 43.8935L50.765 43.8541C51.1631 43.4811 51.8049 43.1915 52.3038 42.9398Z" fill="#906FB6"/>
<path d="M46.1172 48.0345C47.0682 47.4908 48.7605 46.1404 49.5513 45.3137C49.9185 44.9297 50.2899 44.2982 50.7221 43.8932L50.7647 43.8537C51.1629 43.4808 51.8046 43.1912 52.3035 42.9395C52.6331 44.2928 49.4677 46.737 48.9324 47.9589C49.2171 48.1641 49.4204 47.9688 49.8367 48.1186C47.7343 48.2395 48.5471 49.5904 46.1172 48.0345Z" fill="#64318E"/>
<path d="M55.6881 40.3965C55.78 40.4203 55.8705 40.449 55.9593 40.4825C57.5969 41.1086 59.9761 42.7365 60.9899 44.1712C61.1623 44.4152 61.4351 45.0183 61.5683 45.3114C59.9353 45.3772 59.5811 45.5956 58.1067 46.2205C56.8248 46.6334 55.7913 47.9319 54.8564 48.9075C55.2501 46.4575 55.3701 43.9372 55.5407 41.4632C55.567 41.0821 55.5943 40.7682 55.6881 40.3965Z" fill="#906FB6"/>
<path d="M55.5496 37.9717C55.5573 37.972 55.5648 37.9723 55.5724 37.9725C58.5014 38.4013 60.5809 41.5643 61.4256 43.9618C61.1383 43.6997 60.6959 43.3951 60.4479 43.1524C58.9091 41.6461 58.0846 40.9198 56.0867 40.0426C54.8797 39.5146 55.0723 41.9701 54.9684 42.5807C54.9164 42.8861 54.8772 43.0903 54.7846 43.3901C54.6411 42.3755 54.7216 41.7525 54.4088 40.7072C53.6039 41.6236 52.5995 42.343 51.4729 42.8102C51.8854 42.1019 52.1837 41.1742 52.6231 40.5133C52.9989 39.948 54.3481 39.2499 54.8127 38.6517C54.9536 38.4702 55.3722 38.1239 55.5496 37.9717Z" fill="#543388"/>
<path d="M45.3199 48.2822C47.3369 49.3919 46.7713 49.9114 48.0396 51.0113L47.9067 51.3952C47.1732 51.3888 47.079 52.0351 46.5761 52.4872C46.0601 52.3817 45.8678 52.3333 45.3796 52.1394C45.1594 52.2333 44.7698 52.4335 44.5666 52.3984C44.5003 52.1519 44.663 51.9982 44.6713 51.7014C44.6396 51.2196 44.6913 51.3486 45.009 51.1192C45.3107 50.4231 45.3162 49.059 45.3199 48.2822Z" fill="#543388"/>
<path d="M44.6713 51.7002C44.9174 51.9557 45.0158 52.069 45.3796 52.1382C45.1594 52.2321 44.7698 52.4323 44.5666 52.3972C44.5003 52.1508 44.663 51.997 44.6713 51.7002Z" fill="#302451"/>
<path d="M18.4326 49.1943C19.3212 49.3151 20.4706 50.5996 21.2352 50.8605C21.5178 50.957 21.5093 50.8362 21.7083 51.1016L21.6822 51.2451C21.4873 51.3957 21.4221 51.419 21.1994 51.5156C20.2732 52.208 18.4568 51.5463 18.1454 50.4449C17.9995 49.9292 18.2028 49.6298 18.4326 49.1943Z" fill="#543388"/>
<path d="M47.0015 49.242C47.1875 49.2872 47.7912 49.4416 47.9423 49.4159C49.0553 49.2268 49.687 48.2221 50.6066 49.6739C50.1485 50.4123 49.6964 51.0184 48.9559 51.5055C48.5463 51.4867 48.3173 51.476 47.9069 51.3946L48.0398 51.0107C48.2925 50.898 48.2154 50.9723 48.3376 50.7381C48.2982 50.1186 47.4479 49.685 47.0015 49.242Z" fill="#543388"/>
</svg>
