<svg width="205" height="133" viewBox="0 0 205 133" fill="none" xmlns="http://www.w3.org/2000/svg">
<g filter="url(#filter0_i_2322_8120)">
<path d="M59.2231 1.57499C64.7231 1.99807 75.7224 14.0742 80.4876 21.1694C80.5291 21.1486 80.5701 21.1282 80.6107 21.1081C81.5622 20.6361 82.2224 20.3516 82.2224 20.3516C76.9845 12.4534 63.0985 -0.616753 58.7231 0.576341C55.1902 1.53972 48.7297 25.5735 47.7676 40.5735C47.4069 46.1963 47.4069 51.5735 47.4069 51.5735C50.5654 45.469 54.4969 40.5764 57.3575 37.4421C54.7231 31.075 55.2349 1.26821 59.2231 1.57499Z" fill="black"/>
<path d="M80.4876 21.1694C80.4876 21.1694 82.0028 23.5735 82.7231 23.0735C83.4435 22.5735 82.2224 20.3516 82.2224 20.3516C82.2224 20.3516 81.5622 20.6361 80.6107 21.1081L80.4876 21.1694Z" fill="black"/>
<path d="M164.223 31.0752C163.904 19.316 159.944 0.57503 156.723 0.574995C148.833 0.574909 135.876 14.8789 132.723 18.575L131.723 19.7174C132.278 19.945 132.814 20.1786 133.328 20.4178C133.674 19.9541 134.03 19.4925 134.383 19.075C140.723 11.575 151.616 1.72064 156.223 2.07499C159.723 2.34423 160.223 32.575 156.723 38.4225C159.412 41.5326 161.978 45.0726 164.223 49.075C164.223 49.075 164.541 42.8344 164.223 31.0752Z" fill="black"/>
<path d="M131.723 19.7174C131.723 19.7174 129.107 23.575 130.723 23.575C131.025 23.575 131.733 22.6014 132.587 21.4276C132.824 21.1009 133.073 20.7588 133.328 20.4178C132.814 20.1786 132.278 19.945 131.723 19.7174Z" fill="black"/>
<path d="M109.223 15.075C97.2229 15.075 90.2224 16.8516 82.2224 20.3516C82.2224 20.3516 83.4435 22.5735 82.7231 23.0735C82.0028 23.5735 80.4876 21.1694 80.4876 21.1694C75.7224 14.0742 64.7231 1.99807 59.2231 1.57499C55.2349 1.26821 54.7231 31.075 57.3575 37.4421C54.4969 40.5764 50.5654 45.469 47.4069 51.5735C45.6813 54.9086 44.1864 58.6055 43.223 62.575C37.5692 85.8702 46.067 106.164 65.223 120.575C78.6217 130.655 93.7236 131.575 106.723 131.575C114.224 131.575 134.012 131.075 148.865 120.069C179.223 97.575 169.655 62.8207 167.723 57.5752C167.488 56.9386 167.27 56.3312 167.06 55.7453C166.196 53.3329 165.462 51.2861 164.223 49.075C161.978 45.0726 159.412 41.5326 156.723 38.4225C160.223 32.575 159.723 2.34423 156.223 2.07499C151.616 1.72064 140.723 11.575 134.383 19.075C134.03 19.4925 133.674 19.9541 133.328 20.4178C133.073 20.7588 132.824 21.1009 132.587 21.4276C131.733 22.6014 131.025 23.575 130.723 23.575C129.107 23.575 131.723 19.7174 131.723 19.7174C124.975 16.9489 115.443 15.075 109.223 15.075Z" fill="#A289CB"/>
</g>
<path d="M137.723 23.075C136.617 22.1384 135.105 21.2452 133.328 20.4178M82.2224 20.3516C90.2224 16.8516 97.2229 15.075 109.223 15.075C115.443 15.075 124.975 16.9489 131.723 19.7174M82.2224 20.3516C76.9845 12.4534 63.0985 -0.616753 58.7231 0.576341C55.1902 1.53972 48.7297 25.5735 47.7676 40.5735C47.4069 46.1963 47.4069 51.5735 47.4069 51.5735M82.2224 20.3516C82.2224 20.3516 83.4435 22.5735 82.7231 23.0735C82.0028 23.5735 80.4876 21.1694 80.4876 21.1694M80.4876 21.1694C80.5291 21.1486 80.5701 21.1282 80.6107 21.1081C81.5622 20.6361 82.2224 20.3516 82.2224 20.3516M164.223 49.075C164.223 49.075 164.541 42.8344 164.223 31.0752C163.904 19.316 159.944 0.57503 156.723 0.574995C148.833 0.574909 135.876 14.8789 132.723 18.575L131.723 19.7174M61.2228 33.575C61.2228 33.575 59.6273 34.955 57.3575 37.4421C54.4969 40.5764 50.5654 45.469 47.4069 51.5735C45.6813 54.9086 44.1864 58.6055 43.223 62.575C37.5692 85.8702 46.067 106.164 65.223 120.575C78.6217 130.655 93.7236 131.575 106.723 131.575C114.224 131.575 134.012 131.075 148.865 120.069C179.223 97.575 169.655 62.8207 167.723 57.5752C167.488 56.9386 167.27 56.3312 167.06 55.7453C166.196 53.3329 165.462 51.2861 164.223 49.075C161.978 45.0726 159.412 41.5326 156.723 38.4225C155.736 37.2807 154.733 36.1969 153.723 35.1694M75.7224 24.075C77.2067 22.8879 79.2199 21.7978 80.6107 21.1081M131.723 19.7174C131.723 19.7174 129.107 23.575 130.723 23.575C131.025 23.575 131.733 22.6014 132.587 21.4276C132.824 21.1009 133.073 20.7588 133.328 20.4178M131.723 19.7174C132.278 19.945 132.814 20.1786 133.328 20.4178M156.723 38.4225C160.223 32.575 159.723 2.34423 156.223 2.07499C151.616 1.72064 140.723 11.575 134.383 19.075C134.03 19.4925 133.674 19.9541 133.328 20.4178M80.4876 21.1694C75.7224 14.0742 64.7231 1.99807 59.2231 1.57499C55.2349 1.26821 54.7231 31.075 57.3575 37.4421M80.4876 21.1694L80.6107 21.1081" stroke="#1C1135" stroke-linecap="round"/>
<path d="M148.399 26.4415C153.289 30.7058 155.563 31.533 156.442 32.6347C159.523 26.9654 158.934 2.58961 155.831 2.34021C151.748 2.01195 141.242 11.5925 135.649 18.8699C135.338 19.275 135.955 18.4201 135.649 18.8699C135.649 18.8699 143.51 22.1772 148.399 26.4415Z" fill="url(#paint0_linear_2322_8120)"/>
<path d="M66.018 26.3373C61.4222 30.6729 57.8259 32.38 57 33.5C55.5 29 56 2.10814 59.0407 1.84284C62.5 1.54101 72.7476 11.2429 78.0006 18.638C78.293 19.0497 77.714 18.1809 78.0006 18.638C78.0006 18.638 70.6137 22.0017 66.018 26.3373Z" fill="url(#paint1_linear_2322_8120)"/>
<path d="M8.66939 79.0923C5.16939 81.9174 3.66943 83.0923 0.669434 86.5923C1.48288 86.999 3.51373 86.0254 5.6694 86.0923C8.04373 86.166 9.59729 86.4051 11.6694 87.0923C15.1663 88.252 16.8008 89.7804 19.6694 92.0923C23.0038 94.7795 26.1696 99.5922 27.1695 100.092C26.9742 95.2107 26.881 95.8809 26.6695 91C26.5 88.9077 26.3822 82.3993 26.6695 79.0923C26.9612 75.7342 28.1694 72.0923 28.1694 71.0923C28.1694 70.3533 27.4198 68.0923 26.1695 68.0923C25.1694 68.0923 20.6698 70.3039 17.6694 72.0923C13.7109 74.4517 12.3475 76.1234 8.66939 79.0923Z" fill="#A974D2"/>
<path d="M36.6694 77.0923C32.6694 74.5923 32.1694 72.0923 31.1695 72.0923C30.1696 72.0922 29.3176 76.2831 28.5 79.0923C27.1853 83.6097 27 86.9077 26.6695 91C26.881 95.8809 26.9742 95.2107 27.1695 100.092C28.1694 100.592 31.5293 97.3582 34.6694 96.5923C38.4634 95.6669 40.8038 96.0374 44.6694 96.5923C48.7052 97.1716 54.6694 100.092 54.6694 100.092C54.6694 100.092 49.8865 94.6322 47.6694 90.5923C45.6458 86.905 43.6695 80.5923 43.6695 80.5923C43.6695 80.5923 39.1915 78.6686 36.6694 77.0923Z" fill="#A974D2"/>
<path d="M41.1695 71.5923C41.1695 71.5923 36.9784 69.5326 34.6695 67.0924C32.4359 64.7318 30.1695 60.0925 28.6695 59.5924C27.1725 59.0933 23.6562 60.7149 20.6876 62.0839L20.6695 62.0923C15.2418 64.5953 11.1695 68.0923 7.66948 72.0923C3.23573 77.1593 -0.330638 86.0923 0.669434 86.5923C3.66943 83.0923 5.16939 81.9174 8.66939 79.0923C12.3475 76.1234 13.7109 74.4517 17.6694 72.0923C20.6698 70.3039 25.1694 68.0923 26.1695 68.0923C27.4198 68.0923 28.1694 70.3533 28.1694 71.0923C28.1694 72.0923 26.9612 75.7342 26.6695 79.0923C26.3822 82.3993 26.5 88.9077 26.6695 91C27 86.9077 27.1853 83.6097 28.5 79.0923C29.3176 76.2831 30.1696 72.0922 31.1695 72.0923C32.1694 72.0923 32.6694 74.5923 36.6694 77.0923C39.1915 78.6686 43.6695 80.5923 43.6695 80.5923L41.1695 71.5923Z" fill="#43277B"/>
<path d="M20.6695 62.0923C15.2418 64.5953 11.1695 68.0923 7.66948 72.0923C3.23573 77.1593 -0.330638 86.0923 0.669434 86.5923M20.6695 62.0923L20.6876 62.0839M43.6695 80.5923L41.1695 71.5923C41.1695 71.5923 36.9784 69.5326 34.6695 67.0924C32.4359 64.7318 30.1695 60.0925 28.6695 59.5924C27.1725 59.0933 23.6562 60.7149 20.6876 62.0839C20.6816 62.0867 20.6755 62.0895 20.6695 62.0923M0.669434 86.5923C3.66943 83.0923 5.16939 81.9174 8.66939 79.0923C12.3475 76.1234 13.7109 74.4517 17.6694 72.0923C20.6698 70.3039 25.1694 68.0923 26.1695 68.0923C27.4198 68.0923 28.1694 70.3533 28.1694 71.0923C28.1694 72.0923 26.9612 75.7342 26.6695 79.0923C26.3822 82.3993 26.5 88.9077 26.6695 91M0.669434 86.5923C1.48288 86.999 3.51373 86.0254 5.6694 86.0923C8.04373 86.166 9.59729 86.4051 11.6694 87.0923C15.1663 88.252 16.8008 89.7804 19.6694 92.0923C23.0038 94.7795 26.1696 99.5922 27.1695 100.092M26.6695 91C26.881 95.8809 26.9742 95.2107 27.1695 100.092M26.6695 91C27 86.9077 27.1853 83.6097 28.5 79.0923C29.3176 76.2831 30.1696 72.0922 31.1695 72.0923C32.1694 72.0923 32.6694 74.5923 36.6694 77.0923C39.1915 78.6686 43.6695 80.5923 43.6695 80.5923M43.6695 80.5923C43.6695 80.5923 45.6458 86.905 47.6694 90.5923C49.8865 94.6322 54.6694 100.092 54.6694 100.092C54.6694 100.092 48.7052 97.1716 44.6694 96.5923C40.8038 96.0374 38.4634 95.6669 34.6694 96.5923C31.5293 97.3582 28.1694 100.592 27.1695 100.092" stroke="#0D0C12" stroke-linecap="round"/>
<path d="M175.169 67.0926C173.297 69.1407 169.669 71.5925 169.669 71.5925L168.169 79.0922C168.169 79.0922 170.568 77.8073 172.169 76.5922C173.709 75.424 175.669 73.0919 176.169 73.0922C177.669 73.0933 179.169 83.5922 179.169 88.0922C179.169 81.4535 179.169 71.0926 179.169 71.0926C179.169 69.8423 179.983 68.1973 181.169 68.5926C184.169 69.5922 186.909 71.2348 190.669 74.0925C193.42 76.1829 195.235 77.6413 197.669 80.0925C199.909 82.348 201.669 84.5925 203.669 86.5926C205.669 86.0925 201.206 77.0972 197.669 72.0926C195.902 69.5923 191.669 65.4336 188.669 63.5925C185.3 61.5245 181.669 59.5922 179.669 60.0926C178.079 60.4904 177.362 64.6942 175.169 67.0926Z" fill="#442679"/>
<path d="M190.669 74.0925C186.909 71.2348 184.169 69.5922 181.169 68.5926C179.983 68.1973 179.169 69.8423 179.169 71.0926C179.169 71.0926 179.169 81.4535 179.169 88.0922C179.169 93.0919 178.669 96.5926 178.169 100.592C180.669 96.5922 183.848 93.0922 186.669 91.0922C188.169 90.0289 190.978 88.0045 194.169 87.0922C197.669 86.0919 200.669 86.0925 203.669 86.5926C201.669 84.5925 199.909 82.348 197.669 80.0925C195.235 77.6413 193.42 76.1829 190.669 74.0925Z" fill="#AA74D2"/>
<path d="M179.169 88.0922C179.169 83.5922 177.669 73.0933 176.169 73.0922C175.669 73.0919 173.709 75.424 172.169 76.5922C170.568 77.8073 168.169 79.0922 168.169 79.0922L166.669 83.5922C165.674 86.5792 164.759 87.875 163.169 90.5926C161.445 93.5408 158.669 98.0926 158.669 98.0926C158.669 98.0926 165.384 95.9324 169.669 96.5926C173.217 97.1392 175.669 98.5922 178.169 100.592C178.669 96.5926 179.169 93.0919 179.169 88.0922Z" fill="#AA74D2"/>
<path d="M166.669 83.5922C165.674 86.5792 164.759 87.875 163.169 90.5926C161.445 93.5408 158.669 98.0926 158.669 98.0926C158.669 98.0926 165.384 95.9324 169.669 96.5926C173.217 97.1392 175.669 98.5922 178.169 100.592C180.669 96.5922 183.848 93.0922 186.669 91.0922C188.169 90.0289 190.978 88.0045 194.169 87.0922C197.669 86.0919 200.669 86.0925 203.669 86.5926C205.669 86.0925 201.206 77.0972 197.669 72.0926C195.902 69.5923 191.669 65.4336 188.669 63.5925C185.3 61.5245 181.669 59.5922 179.669 60.0926C178.079 60.4904 177.362 64.6942 175.169 67.0926C173.297 69.1407 169.669 71.5925 169.669 71.5925L168.169 79.0922M203.669 86.5926C201.669 84.5925 199.909 82.348 197.669 80.0925C195.235 77.6413 193.42 76.1829 190.669 74.0925C186.909 71.2348 184.169 69.5922 181.169 68.5926C179.983 68.1973 179.169 69.8423 179.169 71.0926M179.169 71.0926C179.169 76.0922 179.169 83.0926 179.169 88.0922M179.169 71.0926C179.169 71.0926 179.169 81.4535 179.169 88.0922M179.169 88.0922C179.169 83.5922 177.669 73.0933 176.169 73.0922C175.669 73.0919 173.709 75.424 172.169 76.5922C170.568 77.8073 168.169 79.0922 168.169 79.0922M179.169 88.0922C179.169 93.0919 178.669 96.5926 178.169 100.592M168.169 79.0922C168.169 79.0922 167.299 81.7031 166.669 83.5922M168.169 79.0922L166.669 83.5922" stroke="#0D0C12" stroke-linecap="round"/>
<path d="M8.66939 79.0923C5.16939 81.9174 3.66943 83.0923 0.669434 86.5923C1.48288 86.999 3.51373 86.0254 5.6694 86.0923C8.04373 86.166 9.59729 86.4051 11.6694 87.0923C15.1663 88.252 16.8008 89.7804 19.6694 92.0923C23.0038 94.7795 26.1696 99.5922 27.1695 100.092C26.9742 95.2107 26.881 95.8809 26.6695 91C26.5 88.9077 26.3822 82.3993 26.6695 79.0923C26.9612 75.7342 28.1694 72.0923 28.1694 71.0923C28.1694 70.3533 27.4198 68.0923 26.1695 68.0923C25.1694 68.0923 20.6698 70.3039 17.6694 72.0923C13.7109 74.4517 12.3475 76.1234 8.66939 79.0923Z" fill="#A974D2"/>
<path d="M36.6694 77.0923C32.6694 74.5923 32.1694 72.0923 31.1695 72.0923C30.1696 72.0922 29.3176 76.2831 28.5 79.0923C27.1853 83.6097 27 86.9077 26.6695 91C26.881 95.8809 26.9742 95.2107 27.1695 100.092C28.1694 100.592 31.5293 97.3582 34.6694 96.5923C38.4634 95.6669 40.8038 96.0374 44.6694 96.5923C48.7052 97.1716 54.6694 100.092 54.6694 100.092C54.6694 100.092 49.8865 94.6322 47.6694 90.5923C45.6458 86.905 43.6695 80.5923 43.6695 80.5923C43.6695 80.5923 39.1915 78.6686 36.6694 77.0923Z" fill="#A974D2"/>
<path d="M41.1695 71.5923C41.1695 71.5923 36.9784 69.5326 34.6695 67.0924C32.4359 64.7318 30.1695 60.0925 28.6695 59.5924C27.1725 59.0933 23.6562 60.7149 20.6876 62.0839L20.6695 62.0923C15.2418 64.5953 11.1695 68.0923 7.66948 72.0923C3.23573 77.1593 -0.330638 86.0923 0.669434 86.5923C3.66943 83.0923 5.16939 81.9174 8.66939 79.0923C12.3475 76.1234 13.7109 74.4517 17.6694 72.0923C20.6698 70.3039 25.1694 68.0923 26.1695 68.0923C27.4198 68.0923 28.1694 70.3533 28.1694 71.0923C28.1694 72.0923 26.9612 75.7342 26.6695 79.0923C26.3822 82.3993 26.5 88.9077 26.6695 91C27 86.9077 27.1853 83.6097 28.5 79.0923C29.3176 76.2831 30.1696 72.0922 31.1695 72.0923C32.1694 72.0923 32.6694 74.5923 36.6694 77.0923C39.1915 78.6686 43.6695 80.5923 43.6695 80.5923L41.1695 71.5923Z" fill="#43277B"/>
<path d="M20.6695 62.0923C15.2418 64.5953 11.1695 68.0923 7.66948 72.0923C3.23573 77.1593 -0.330638 86.0923 0.669434 86.5923M20.6695 62.0923L20.6876 62.0839M43.6695 80.5923L41.1695 71.5923C41.1695 71.5923 36.9784 69.5326 34.6695 67.0924C32.4359 64.7318 30.1695 60.0925 28.6695 59.5924C27.1725 59.0933 23.6562 60.7149 20.6876 62.0839C20.6816 62.0867 20.6755 62.0895 20.6695 62.0923M0.669434 86.5923C3.66943 83.0923 5.16939 81.9174 8.66939 79.0923C12.3475 76.1234 13.7109 74.4517 17.6694 72.0923C20.6698 70.3039 25.1694 68.0923 26.1695 68.0923C27.4198 68.0923 28.1694 70.3533 28.1694 71.0923C28.1694 72.0923 26.9612 75.7342 26.6695 79.0923C26.3822 82.3993 26.5 88.9077 26.6695 91M0.669434 86.5923C1.48288 86.999 3.51373 86.0254 5.6694 86.0923C8.04373 86.166 9.59729 86.4051 11.6694 87.0923C15.1663 88.252 16.8008 89.7804 19.6694 92.0923C23.0038 94.7795 26.1696 99.5922 27.1695 100.092M26.6695 91C26.881 95.8809 26.9742 95.2107 27.1695 100.092M26.6695 91C27 86.9077 27.1853 83.6097 28.5 79.0923C29.3176 76.2831 30.1696 72.0922 31.1695 72.0923C32.1694 72.0923 32.6694 74.5923 36.6694 77.0923C39.1915 78.6686 43.6695 80.5923 43.6695 80.5923M43.6695 80.5923C43.6695 80.5923 45.6458 86.905 47.6694 90.5923C49.8865 94.6322 54.6694 100.092 54.6694 100.092C54.6694 100.092 48.7052 97.1716 44.6694 96.5923C40.8038 96.0374 38.4634 95.6669 34.6694 96.5923C31.5293 97.3582 28.1694 100.592 27.1695 100.092" stroke="#0D0C12" stroke-linecap="round"/>
<path d="M175.169 67.0926C173.297 69.1407 169.669 71.5925 169.669 71.5925L168.169 79.0922C168.169 79.0922 170.568 77.8073 172.169 76.5922C173.709 75.424 175.669 73.0919 176.169 73.0922C177.669 73.0933 179.169 83.5922 179.169 88.0922C179.169 81.4535 179.169 71.0926 179.169 71.0926C179.169 69.8423 179.983 68.1973 181.169 68.5926C184.169 69.5922 186.909 71.2348 190.669 74.0925C193.42 76.1829 195.235 77.6413 197.669 80.0925C199.909 82.348 201.669 84.5925 203.669 86.5926C205.669 86.0925 201.206 77.0972 197.669 72.0926C195.902 69.5923 191.669 65.4336 188.669 63.5925C185.3 61.5245 181.669 59.5922 179.669 60.0926C178.079 60.4904 177.362 64.6942 175.169 67.0926Z" fill="#442679"/>
<path d="M190.669 74.0925C186.909 71.2348 184.169 69.5922 181.169 68.5926C179.983 68.1973 179.169 69.8423 179.169 71.0926C179.169 71.0926 179.169 81.4535 179.169 88.0922C179.169 93.0919 178.669 96.5926 178.169 100.592C180.669 96.5922 183.848 93.0922 186.669 91.0922C188.169 90.0289 190.978 88.0045 194.169 87.0922C197.669 86.0919 200.669 86.0925 203.669 86.5926C201.669 84.5925 199.909 82.348 197.669 80.0925C195.235 77.6413 193.42 76.1829 190.669 74.0925Z" fill="#AA74D2"/>
<path d="M179.169 88.0922C179.169 83.5922 177.669 73.0933 176.169 73.0922C175.669 73.0919 173.709 75.424 172.169 76.5922C170.568 77.8073 168.169 79.0922 168.169 79.0922L166.669 83.5922C165.674 86.5792 164.759 87.875 163.169 90.5926C161.445 93.5408 158.669 98.0926 158.669 98.0926C158.669 98.0926 165.384 95.9324 169.669 96.5926C173.217 97.1392 175.669 98.5922 178.169 100.592C178.669 96.5926 179.169 93.0919 179.169 88.0922Z" fill="#AA74D2"/>
<path d="M166.669 83.5922C165.674 86.5792 164.759 87.875 163.169 90.5926C161.445 93.5408 158.669 98.0926 158.669 98.0926C158.669 98.0926 165.384 95.9324 169.669 96.5926C173.217 97.1392 175.669 98.5922 178.169 100.592C180.669 96.5922 183.848 93.0922 186.669 91.0922C188.169 90.0289 190.978 88.0045 194.169 87.0922C197.669 86.0919 200.669 86.0925 203.669 86.5926C205.669 86.0925 201.206 77.0972 197.669 72.0926C195.902 69.5923 191.669 65.4336 188.669 63.5925C185.3 61.5245 181.669 59.5922 179.669 60.0926C178.079 60.4904 177.362 64.6942 175.169 67.0926C173.297 69.1407 169.669 71.5925 169.669 71.5925L168.169 79.0922M203.669 86.5926C201.669 84.5925 199.909 82.348 197.669 80.0925C195.235 77.6413 193.42 76.1829 190.669 74.0925C186.909 71.2348 184.169 69.5922 181.169 68.5926C179.983 68.1973 179.169 69.8423 179.169 71.0926M179.169 71.0926C179.169 76.0922 179.169 83.0926 179.169 88.0922M179.169 71.0926C179.169 71.0926 179.169 81.4535 179.169 88.0922M179.169 88.0922C179.169 83.5922 177.669 73.0933 176.169 73.0922C175.669 73.0919 173.709 75.424 172.169 76.5922C170.568 77.8073 168.169 79.0922 168.169 79.0922M179.169 88.0922C179.169 93.0919 178.669 96.5926 178.169 100.592M168.169 79.0922C168.169 79.0922 167.299 81.7031 166.669 83.5922M168.169 79.0922L166.669 83.5922" stroke="#0D0C12" stroke-linecap="round"/>
<g filter="url(#filter1_i_2322_8120)">
<path d="M59.2231 1.57499C64.7231 1.99807 75.7224 14.0742 80.4876 21.1694C80.5291 21.1486 80.5701 21.1282 80.6107 21.1081C81.5622 20.6361 82.2224 20.3516 82.2224 20.3516C76.9845 12.4534 63.0985 -0.616753 58.7231 0.576341C55.1902 1.53972 48.7297 25.5735 47.7676 40.5735C47.4069 46.1963 47.4069 51.5735 47.4069 51.5735C50.5654 45.469 54.4969 40.5764 57.3575 37.4421C54.7231 31.075 55.2349 1.26821 59.2231 1.57499Z" fill="black"/>
<path d="M80.4876 21.1694C80.4876 21.1694 82.0028 23.5735 82.7231 23.0735C83.4435 22.5735 82.2224 20.3516 82.2224 20.3516C82.2224 20.3516 81.5622 20.6361 80.6107 21.1081L80.4876 21.1694Z" fill="black"/>
<path d="M164.223 31.0752C163.904 19.316 159.944 0.57503 156.723 0.574995C148.833 0.574909 135.876 14.8789 132.723 18.575L131.723 19.7174C132.278 19.945 132.814 20.1786 133.328 20.4178C133.674 19.9541 134.03 19.4925 134.383 19.075C140.723 11.575 151.616 1.72064 156.223 2.07499C159.723 2.34423 160.223 32.575 156.723 38.4225C159.412 41.5326 161.978 45.0726 164.223 49.075C164.223 49.075 164.541 42.8344 164.223 31.0752Z" fill="black"/>
<path d="M131.723 19.7174C131.723 19.7174 129.107 23.575 130.723 23.575C131.025 23.575 131.733 22.6014 132.587 21.4276C132.824 21.1009 133.073 20.7588 133.328 20.4178C132.814 20.1786 132.278 19.945 131.723 19.7174Z" fill="black"/>
<path d="M109.223 15.075C97.2229 15.075 90.2224 16.8516 82.2224 20.3516C82.2224 20.3516 83.4435 22.5735 82.7231 23.0735C82.0028 23.5735 80.4876 21.1694 80.4876 21.1694C75.7224 14.0742 64.7231 1.99807 59.2231 1.57499C55.2349 1.26821 54.7231 31.075 57.3575 37.4421C54.4969 40.5764 50.5654 45.469 47.4069 51.5735C45.6813 54.9086 44.1864 58.6055 43.223 62.575C37.5692 85.8702 46.067 106.164 65.223 120.575C78.6217 130.655 93.7236 131.575 106.723 131.575C114.224 131.575 134.012 131.075 148.865 120.069C179.223 97.575 169.655 62.8207 167.723 57.5752C167.488 56.9386 167.27 56.3312 167.06 55.7453C166.196 53.3329 165.462 51.2861 164.223 49.075C161.978 45.0726 159.412 41.5326 156.723 38.4225C160.223 32.575 159.723 2.34423 156.223 2.07499C151.616 1.72064 140.723 11.575 134.383 19.075C134.03 19.4925 133.674 19.9541 133.328 20.4178C133.073 20.7588 132.824 21.1009 132.587 21.4276C131.733 22.6014 131.025 23.575 130.723 23.575C129.107 23.575 131.723 19.7174 131.723 19.7174C124.975 16.9489 115.443 15.075 109.223 15.075Z" fill="#A289CB"/>
</g>
<path d="M137.723 23.075C136.617 22.1384 135.105 21.2452 133.328 20.4178M82.2224 20.3516C90.2224 16.8516 97.2229 15.075 109.223 15.075C115.443 15.075 124.975 16.9489 131.723 19.7174M82.2224 20.3516C76.9845 12.4534 63.0985 -0.616753 58.7231 0.576341C55.1902 1.53972 48.7297 25.5735 47.7676 40.5735C47.4069 46.1963 47.4069 51.5735 47.4069 51.5735M82.2224 20.3516C82.2224 20.3516 83.4435 22.5735 82.7231 23.0735C82.0028 23.5735 80.4876 21.1694 80.4876 21.1694M80.4876 21.1694C80.5291 21.1486 80.5701 21.1282 80.6107 21.1081C81.5622 20.6361 82.2224 20.3516 82.2224 20.3516M164.223 49.075C164.223 49.075 164.541 42.8344 164.223 31.0752C163.904 19.316 159.944 0.57503 156.723 0.574995C148.833 0.574909 135.876 14.8789 132.723 18.575L131.723 19.7174M61.2228 33.575C61.2228 33.575 59.6273 34.955 57.3575 37.4421C54.4969 40.5764 50.5654 45.469 47.4069 51.5735C45.6813 54.9086 44.1864 58.6055 43.223 62.575C37.5692 85.8702 46.067 106.164 65.223 120.575C78.6217 130.655 93.7236 131.575 106.723 131.575C114.224 131.575 134.012 131.075 148.865 120.069C179.223 97.575 169.655 62.8207 167.723 57.5752C167.488 56.9386 167.27 56.3312 167.06 55.7453C166.196 53.3329 165.462 51.2861 164.223 49.075C161.978 45.0726 159.412 41.5326 156.723 38.4225C155.736 37.2807 154.733 36.1969 153.723 35.1694M75.7224 24.075C77.2067 22.8879 79.2199 21.7978 80.6107 21.1081M131.723 19.7174C131.723 19.7174 129.107 23.575 130.723 23.575C131.025 23.575 131.733 22.6014 132.587 21.4276C132.824 21.1009 133.073 20.7588 133.328 20.4178M131.723 19.7174C132.278 19.945 132.814 20.1786 133.328 20.4178M156.723 38.4225C160.223 32.575 159.723 2.34423 156.223 2.07499C151.616 1.72064 140.723 11.575 134.383 19.075C134.03 19.4925 133.674 19.9541 133.328 20.4178M80.4876 21.1694C75.7224 14.0742 64.7231 1.99807 59.2231 1.57499C55.2349 1.26821 54.7231 31.075 57.3575 37.4421M80.4876 21.1694L80.6107 21.1081" stroke="#1C1135" stroke-linecap="round"/>
<path d="M148.399 26.4415C153.289 30.7058 155.563 31.533 156.442 32.6347C159.523 26.9654 158.934 2.58961 155.831 2.34021C151.748 2.01195 141.242 11.5925 135.649 18.8699C135.338 19.275 135.955 18.4201 135.649 18.8699C135.649 18.8699 143.51 22.1772 148.399 26.4415Z" fill="url(#paint2_linear_2322_8120)"/>
<path d="M66.018 26.3373C61.4222 30.6729 57.8259 32.38 57 33.5C55.5 29 56 2.10814 59.0407 1.84284C62.5 1.54101 72.7476 11.2429 78.0006 18.638C78.293 19.0497 77.714 18.1809 78.0006 18.638C78.0006 18.638 70.6137 22.0017 66.018 26.3373Z" fill="url(#paint3_linear_2322_8120)"/>
<path d="M65.4534 43.5073C63.2649 43.791 63.5373 54.531 62.1695 56.1215C60.8017 57.712 51.5794 59.9605 51.5005 62.1544C51.4217 64.3482 59.8712 67.6388 60.8017 69.2841C61.7321 70.9294 60.993 79.5898 63.5487 80.2529C66.1044 80.916 71.3294 71.3978 73.0414 70.8827C74.7533 70.3675 84.7246 75.2578 86.2429 73.4384C87.7612 71.619 82.0671 64.8966 81.8659 63.2513C81.6648 61.6059 87.2175 54.4762 86.2429 52.8309C85.2683 51.1855 76.3947 52.7566 74.7533 52.0082C73.112 51.2598 67.6419 43.2237 65.4534 43.5073Z" fill="#C3AEE6"/>
<g filter="url(#filter2_f_2322_8120)">
<circle cx="148.5" cy="95.5" r="6" fill="#CD91D7"/>
</g>
<g filter="url(#filter3_f_2322_8120)">
<circle cx="65.5" cy="95.5" r="6" fill="#CD91D7"/>
</g>
<path d="M88 82.5C88 89.6797 83.299 95 77.5 95C71.701 95 66.5 89.6797 66.5 82.5C66.5 75.3203 71.701 69.5 77.5 69.5C83.299 69.5 88 75.3203 88 82.5Z" fill="#040311"/>
<path d="M71.0002 75.9189C71.857 73.5721 74.5761 72.2166 76.5002 72.9189C78.4243 73.6213 79.3568 76.0721 78.5001 78.419C77.6433 80.7659 74.9243 82.1214 73.0002 81.419C71.0761 80.7167 70.1435 78.2658 71.0002 75.9189Z" fill="#FAFAF9"/>
<path d="M147 82.5C147 89.6797 141.799 95 136 95C130.201 95 125 89.6797 125 82.5C125 75.3203 130.201 69.5 136 69.5C141.799 69.5 147 75.3203 147 82.5Z" fill="#040311"/>
<path d="M129.536 75.5C130.393 73.1531 133.112 71.7976 135.036 72.5C136.96 73.2024 137.893 75.6532 137.036 78.0001C136.179 80.3469 133.46 81.7025 131.536 81.0001C129.612 80.2977 128.68 77.8469 129.536 75.5Z" fill="#FAFAF9"/>
<path d="M99.5 101C99.5 101 105.266 94.5 106.5 94.5C107.5 94.5 113 101 113 101" stroke="#0D0C12" stroke-width="2" stroke-linecap="round"/>
<defs>
<filter id="filter0_i_2322_8120" x="40.9998" y="-7" width="130.175" height="139.075" filterUnits="userSpaceOnUse" color-interpolation-filters="sRGB">
<feFlood flood-opacity="0" result="BackgroundImageFix"/>
<feBlend mode="normal" in="SourceGraphic" in2="BackgroundImageFix" result="shape"/>
<feColorMatrix in="SourceAlpha" type="matrix" values="0 0 0 0 0 0 0 0 0 0 0 0 0 0 0 0 0 0 127 0" result="hardAlpha"/>
<feOffset dy="-7"/>
<feGaussianBlur stdDeviation="5"/>
<feComposite in2="hardAlpha" operator="arithmetic" k2="-1" k3="1"/>
<feColorMatrix type="matrix" values="0 0 0 0 0.380392 0 0 0 0 0.25098 0 0 0 0 0.607843 0 0 0 0.38 0"/>
<feBlend mode="normal" in2="shape" result="effect1_innerShadow_2322_8120"/>
</filter>
<filter id="filter1_i_2322_8120" x="40.9998" y="-7" width="130.175" height="139.075" filterUnits="userSpaceOnUse" color-interpolation-filters="sRGB">
<feFlood flood-opacity="0" result="BackgroundImageFix"/>
<feBlend mode="normal" in="SourceGraphic" in2="BackgroundImageFix" result="shape"/>
<feColorMatrix in="SourceAlpha" type="matrix" values="0 0 0 0 0 0 0 0 0 0 0 0 0 0 0 0 0 0 127 0" result="hardAlpha"/>
<feOffset dy="-7"/>
<feGaussianBlur stdDeviation="5"/>
<feComposite in2="hardAlpha" operator="arithmetic" k2="-1" k3="1"/>
<feColorMatrix type="matrix" values="0 0 0 0 0.380392 0 0 0 0 0.25098 0 0 0 0 0.607843 0 0 0 0.38 0"/>
<feBlend mode="normal" in2="shape" result="effect1_innerShadow_2322_8120"/>
</filter>
<filter id="filter2_f_2322_8120" x="138.5" y="85.5" width="20" height="20" filterUnits="userSpaceOnUse" color-interpolation-filters="sRGB">
<feFlood flood-opacity="0" result="BackgroundImageFix"/>
<feBlend mode="normal" in="SourceGraphic" in2="BackgroundImageFix" result="shape"/>
<feGaussianBlur stdDeviation="2" result="effect1_foregroundBlur_2322_8120"/>
</filter>
<filter id="filter3_f_2322_8120" x="55.5" y="85.5" width="20" height="20" filterUnits="userSpaceOnUse" color-interpolation-filters="sRGB">
<feFlood flood-opacity="0" result="BackgroundImageFix"/>
<feBlend mode="normal" in="SourceGraphic" in2="BackgroundImageFix" result="shape"/>
<feGaussianBlur stdDeviation="2" result="effect1_foregroundBlur_2322_8120"/>
</filter>
<linearGradient id="paint0_linear_2322_8120" x1="158.407" y1="0.275048" x2="137.642" y2="33.2603" gradientUnits="userSpaceOnUse">
<stop offset="0.137215" stop-color="#543291"/>
<stop offset="0.401763" stop-color="#A087CA"/>
<stop offset="1" stop-color="#A087CA"/>
</linearGradient>
<linearGradient id="paint1_linear_2322_8120" x1="56.6214" y1="-0.255527" x2="78.3972" y2="31.717" gradientUnits="userSpaceOnUse">
<stop offset="0.137215" stop-color="#543291"/>
<stop offset="0.401763" stop-color="#A087CA"/>
<stop offset="1" stop-color="#A087CA"/>
</linearGradient>
<linearGradient id="paint2_linear_2322_8120" x1="158.407" y1="0.275048" x2="137.642" y2="33.2603" gradientUnits="userSpaceOnUse">
<stop offset="0.137215" stop-color="#543291"/>
<stop offset="0.401763" stop-color="#A087CA"/>
<stop offset="1" stop-color="#A087CA"/>
</linearGradient>
<linearGradient id="paint3_linear_2322_8120" x1="56.6214" y1="-0.255527" x2="78.3972" y2="31.717" gradientUnits="userSpaceOnUse">
<stop offset="0.137215" stop-color="#543291"/>
<stop offset="0.401763" stop-color="#A087CA"/>
<stop offset="1" stop-color="#A087CA"/>
</linearGradient>
</defs>
</svg>
