<svg width="104" height="92" viewBox="0 0 104 92" fill="none" xmlns="http://www.w3.org/2000/svg">
<path d="M25.7207 13.0762C27.2433 11.5153 28.8871 10.0775 30.6366 8.77625C39.8463 1.83983 51.4278 -1.16776 62.8489 0.411018C70.1182 1.41059 77.0767 4.00502 83.226 8.00858C84.2746 8.68488 85.9831 9.74079 86.7076 10.7009C87.471 9.67427 88.3809 8.58554 89.1651 7.55439C89.8542 6.6484 91.0953 4.82433 91.8881 4.15091C92.9708 4.38655 94.1159 4.83796 95.1823 5.16037C95.8302 5.35608 96.8447 5.68329 96.8994 6.4691C96.7343 6.96956 93.6926 11.5702 93.23 12.1685C94.1725 12.8098 97.5176 13.2568 97.4053 14.7413C96.8764 15.7095 94.4374 17.7687 93.4843 18.6145C94.448 19.5785 95.6468 21.8675 96.3446 23.1294C100.602 30.8355 103.383 39.4876 103.373 48.3656C103.37 51.7232 102.765 54.3831 102.352 57.6286C102.138 59.3179 102.191 61.0373 101.978 62.7276C101.26 68.4023 98.6214 73.4062 94.5901 77.4274C85.8314 86.1635 69.2518 90.0353 57.1751 89.9998C44.1697 89.9604 28.6355 85.4712 19.3012 76.0745C12.3373 69.0642 8.91264 61.0183 8.93616 51.1133C8.9542 43.4923 10.5831 35.5701 13.8234 28.6569C14.3769 27.4824 14.9917 26.3377 15.6655 25.2277C15.8945 24.8457 16.4186 24.1234 16.5591 23.8259C17.0347 21.2049 16.2695 17.3071 18.2825 14.9355C20.2168 12.6568 23.1736 13.2656 25.7207 13.0762Z" fill="#EBE6F4"/>
<g filter="url(#filter0_f_1803_8852)">
<ellipse cx="53.5589" cy="84.2733" rx="22.844" ry="3.64737" fill="#543291" fill-opacity="0.1"/>
</g>
<path d="M78.8605 50.3128C78.8452 50.3213 78.8296 50.329 78.8149 50.3385C78.7906 50.354 78.7677 50.3715 78.7438 50.3878C78.1629 50.786 77.3009 53.4289 76.9748 54.1974C75.51 57.6497 73.7573 60.7763 71.382 63.687C67.2729 68.7225 61.4907 72.7867 55.5385 75.3504C54.434 75.8261 53.0693 76.4681 51.8604 76.5743C47.9962 76.9135 40.2995 71.5075 37.3263 69.0014C30.9966 63.6665 26.895 58.1113 24.0981 50.2872C22.8668 46.941 22.0806 43.4473 21.7597 39.8961C21.2371 33.7466 21.2422 26.893 21.6443 20.6908C21.6915 19.9618 22.4705 18.3866 23.2935 18.2786C25.4056 18.0013 27.5797 18.0397 29.7249 17.8369C33.7221 17.4899 37.6388 16.5092 41.3279 14.9316C42.3122 14.5177 43.3295 14.0229 44.2565 13.5704C45.8668 12.7844 49.7401 10.0912 51.2848 10.0296C53.2134 9.95282 57.3874 13.3411 59.2404 14.372C60.2809 14.9509 61.0289 15.3854 62.1375 15.9132C64.9012 17.2539 67.8052 18.2836 70.7962 18.9834C73.2718 19.5537 75.7677 19.715 78.2278 20.2655C78.9798 20.4337 79.9659 21.6275 80.092 22.4027C80.3263 23.8433 80.2533 25.4159 80.2789 26.8954C80.3798 31.1304 80.3392 35.3676 80.1571 39.5999C80.0644 41.4979 79.6575 44.1174 79.6892 45.8477C79.2433 46.7327 76.8881 48.7717 77.6157 49.6365C77.9311 49.8983 78.4391 50.3155 78.8605 50.3128Z" fill="#BB99EA"/>
<path d="M35.3173 48.7662C35.6938 48.7522 36.357 48.8001 36.7541 48.816L36.7441 51.8075C37.6644 51.7631 38.5854 51.7359 39.5066 51.726C39.5047 50.7609 39.4966 49.7959 39.4824 48.831L42.1384 48.7989L42.1369 51.7518C43.0837 51.7053 43.8838 51.7105 44.8308 51.7268L44.8477 48.8053C45.5964 48.792 46.3755 48.8057 47.1268 48.8082L47.1258 53.1907L47.136 58.4142C43.0586 58.3544 38.5579 58.5567 34.5523 58.3763C34.5566 56.3666 34.5418 54.357 34.508 52.3476C34.4953 51.3104 34.4377 49.9197 34.5116 48.9064C34.7289 48.7582 35.0379 48.7807 35.3173 48.7662Z" fill="#FDFCFD"/>
<path d="M42.0146 53.8244C42.9502 53.8466 43.9544 53.8942 44.8807 53.8066C44.9094 54.5873 44.9116 55.4076 44.9263 56.1921C44.4828 56.264 42.5654 56.1979 42.0224 56.1866C42.0074 55.3993 42.0048 54.6118 42.0146 53.8244Z" fill="#AE8EE1"/>
<path d="M36.7024 53.8623C37.637 53.9016 38.6974 53.8765 39.6416 53.8751C39.6387 54.6472 39.6459 55.4414 39.6079 56.2107L36.7528 56.1675L36.7024 53.8623Z" fill="#AE8EE1"/>
<path d="M54.902 27.0942C58.9672 27.1252 63.0327 27.1247 67.098 27.0928L67.1257 29.2387C65.7436 29.2187 64.3612 29.2074 62.9789 29.2047L62.9851 34.0288L65.3908 34.0429L67.0835 34.0829L67.0988 36.1491C63.2081 36.0822 58.6435 36.3317 54.9023 36.1474C54.882 33.1296 54.8818 30.1119 54.902 27.0942Z" fill="#FDFCFD"/>
<path d="M57.0644 29.1465C58.224 29.175 59.6483 29.2472 60.7866 29.179C60.7105 30.7302 60.7609 32.5228 60.8018 34.0739C59.6122 34.033 58.3105 34.0477 57.1123 34.0397C57.0789 32.3653 57.0385 30.8265 57.0644 29.1465Z" fill="#AE8EE1"/>
<path d="M62.8893 48.8243L65.163 48.8232C65.1132 52.2834 64.9966 54.6886 68.155 56.9676C67.7036 57.4833 67.2805 58.3607 66.6823 58.4611L66.4176 58.258C65.1739 57.2778 64.5732 56.5083 63.9745 55.0607C63.1839 56.6277 62.6641 57.396 61.1716 58.3622C59.8309 57.4295 58.9188 56.688 58.2306 55.1577C57.4581 56.7119 56.9177 57.3279 55.5388 58.3524C55.0778 57.8916 54.6233 57.3595 54.1875 56.8697C54.3568 56.7034 54.5251 56.5361 54.6923 56.3678C57.2049 53.8331 57.1249 52.1256 57.1083 48.8154L59.3132 48.8314C59.2474 52.2734 58.9648 53.0454 61.0313 55.8691C63.1904 53.5671 62.8959 51.7812 62.8893 48.8243Z" fill="#FDFCFD"/>
<path d="M34.3831 27.1297C35.7275 27.098 38.9518 26.9867 40.387 27.1933C40.4868 27.2077 40.5347 27.5633 40.5724 27.7198C40.6272 27.4587 40.6001 27.3817 40.7621 27.2007C40.912 27.5326 40.9063 28.1094 40.9126 28.489C40.892 28.7133 40.8725 29.0419 40.8248 29.253L40.7537 29.2743L40.6359 28.927C40.5259 31.0247 40.6057 33.9796 40.6006 36.1402C39.8648 36.1446 39.1289 36.1445 38.393 36.14C38.3272 33.8358 38.3019 31.5305 38.3169 29.2253C36.9836 29.2392 35.7848 29.197 34.4515 29.1385L34.3831 27.1297Z" fill="#FDFCFD"/>
<path d="M40.5725 27.7194C40.6273 27.4582 40.6002 27.3812 40.7623 27.2002C40.9122 27.5321 40.9064 28.109 40.9128 28.4885C40.8921 28.7128 40.8727 29.0414 40.8249 29.2525L40.7538 29.2738L40.636 28.9266L40.5725 27.7194Z" fill="#BFACDA"/>
<path d="M40.9885 27.1328C43.011 27.0571 44.7229 27.0309 46.7435 27.1132L46.7453 36.1137C46.0153 36.1233 45.2569 36.1439 44.5293 36.1374C44.4992 33.8467 44.4471 31.5048 44.4503 29.2185C43.2419 29.2397 42.0333 29.2514 40.8247 29.2539C40.8724 29.0429 40.8919 28.7142 40.9125 28.4899C40.9554 28.0074 40.991 27.6201 40.9885 27.1328Z" fill="#FDFCFD"/>
<path d="M25.7207 13.0759C26.5347 13.2671 28.4103 13.1321 29.2862 13.0533C35.7118 12.4747 41.0829 10.4226 46.4942 6.99328C48.2627 5.87248 50.6121 3.98478 52.7221 4.56548C55.1305 5.22824 57.4512 7.55094 59.6278 9.0215C64.7952 12.4753 70.7158 14.6391 76.8925 15.3313C80.1194 15.6957 82.87 15.2615 84.8221 18.4194C85.2687 19.142 85.6351 20.8445 85.6923 21.7197C86.0356 26.9695 85.7101 32.3223 85.9087 37.5909C85.9242 38.0043 85.9046 38.4149 85.9367 38.8304C85.6082 39.4964 84.7287 40.3847 84.2033 40.9394C83.7126 41.5053 83.2157 42.0661 82.7128 42.6213C82.2912 43.1504 80.4944 45.053 80.3235 45.3577C80.1646 45.4797 79.8263 45.725 79.6894 45.8478C79.6578 44.1175 80.0646 41.498 80.1574 39.6C80.3394 35.3677 80.38 31.1305 80.2792 26.8955C80.2535 25.416 80.3266 23.8434 80.0923 22.4028C79.9662 21.6276 78.98 20.4338 78.2281 20.2656C75.7679 19.7151 73.2721 19.5539 70.7965 18.9835C67.8055 18.2837 64.9015 17.254 62.1377 15.9133C61.0291 15.3855 60.2811 14.951 59.2407 14.3721C57.3876 13.3412 53.2137 9.95293 51.2851 10.0297C49.7403 10.0913 45.867 12.7845 44.2567 13.5705C43.3298 14.023 42.3125 14.5178 41.3282 14.9317C37.639 16.5094 33.7223 17.49 29.7251 17.837C27.58 18.0398 25.4059 18.0014 23.2938 18.2787C22.4708 18.3867 21.6918 19.9619 21.6446 20.6909C21.2425 26.8931 21.2373 33.7467 21.7599 39.8962C22.0808 43.4474 22.867 46.9411 24.0984 50.2873C26.8952 58.1114 30.9969 63.6666 37.3265 69.0015C40.2998 71.5076 47.9964 76.9136 51.8606 76.5744C53.0695 76.4682 54.4342 75.8262 55.5388 75.3505C61.491 72.7868 67.2731 68.7226 71.3823 63.6871C73.7576 60.7764 75.5102 57.6498 76.975 54.1975C77.3012 53.429 78.1631 50.7861 78.7441 50.3879C78.7679 50.3716 78.7908 50.3541 78.8151 50.3386C78.8298 50.3291 78.8455 50.3214 78.8607 50.3129L79.0877 50.4883C80.1424 50.7945 82.7559 51.5825 83.5132 52.2293C82.8836 53.5783 82.2437 54.9225 81.5938 56.2618C80.9676 57.5209 80.0405 59.1238 79.5892 60.4811C79.5125 60.712 79.7227 61.1022 79.7678 61.3236C77.3448 65.4445 74.0077 69.1837 70.4222 72.3418C69.2546 73.3703 67.9362 74.267 66.8329 75.2199C65.8309 75.8432 64.8009 76.6646 63.8201 77.2284C61.742 78.423 59.5525 79.4473 57.4784 80.6554C56.4944 81.2285 55.6584 81.7008 54.8088 82.1289C54.488 82.2906 50.4504 82.437 50.4223 82.4567L50.3944 82.5749L49.9679 82.5161C48.4693 82.0577 44.347 79.7541 42.663 78.9048C39.7506 77.5296 34.768 73.8142 32.3817 71.6965C31.8081 71.4421 29.1789 68.6006 28.6454 68.0161C21.3974 60.0772 17.4168 49.5298 16.8533 38.8503C16.7112 36.158 16.6432 33.4259 16.5953 30.7286C16.5562 29.1921 16.7855 25.0863 16.567 23.8684L16.5591 23.8256C17.0347 21.2047 16.2695 17.3068 18.2826 14.9352C20.2168 12.6565 23.1736 13.2653 25.7207 13.0759Z" fill="#D8C6F3"/>
<path d="M79.0878 50.4884C79.9829 49.8522 83.4291 51.2371 83.5133 52.2294C83.6392 53.7128 82.2501 54.9257 81.5938 56.2619C80.9739 57.5241 80.0406 59.1238 79.5893 60.4813C79.5126 60.7121 79.876 61.1252 79.768 61.3237C77.4825 65.5224 74.0078 69.1837 70.4222 72.3419C69.2547 73.3703 68 74.3463 66.833 75.22C65.8883 75.9272 64.801 76.6647 63.8202 77.2285C61.7421 78.4232 59.5526 79.4474 57.4785 80.6555C56.4945 81.2287 55.2745 81.8929 54.425 82.3211C54.1042 82.4828 52.8893 82.705 51.7375 82.705C50.5857 82.705 49.968 82.5163 49.968 82.5163C48.4694 82.0578 44.3608 79.7265 42.6631 78.9049C39.764 77.5018 34.7681 73.8143 32.3818 71.6966C33.0591 72.2217 35.7605 73.711 36.3976 74.1601C39.3089 76.2129 42.1373 78.0006 45.342 79.5775C46.6594 80.2258 47.9712 80.941 49.3437 81.4345C52.2288 82.4719 53.5466 81.3183 55.8968 80.3094C58.8368 79.0473 60.867 77.7347 63.5277 76.0144C66.9178 73.8225 69.8405 71.5908 72.6443 68.67C74.24 67.0077 75.6 65.2898 76.8671 63.3587C78.531 60.8228 80.0953 58.5321 80.57 55.4643C80.6528 54.9294 81.2901 53.6994 81.2433 53.1959C81.1951 52.6772 78.6368 50.8091 79.0878 50.4884Z" fill="#AE8EE1"/>
<path d="M85.1856 19.2282C85.4235 19.8687 85.595 20.2306 85.6924 21.7197C86.0356 26.9695 85.7101 32.3223 85.9087 37.5908C85.9243 38.0043 85.9047 38.4149 85.9367 38.8304C85.6083 39.4964 84.7287 40.3847 84.2034 40.9394C84.2156 40.3832 84.5348 39.4183 84.5373 38.8795C84.5467 36.8186 84.7009 34.694 84.7292 32.6463C84.7755 29.2938 84.5561 25.9788 84.5713 22.6065L84.5637 22.2352C84.5637 21.4673 84.445 20.2808 84.3717 19.5477C84.2724 18.5548 84.3212 18.099 84.4149 17.9911C84.5637 17.8198 84.9476 18.5877 85.1856 19.2282Z" fill="#AE8EE1"/>
<path d="M85.9368 38.8305C86.4187 38.2994 87.2225 37.3195 87.9568 37.2376C88.643 37.1611 92.086 38.4648 92.4872 38.8353C93.0295 39.4401 93.0477 39.6793 92.5812 40.3832C91.1828 42.4926 89.72 44.4877 88.5183 46.7269C89.0394 47.433 92.0025 47.8992 93.0266 48.7508C92.6887 49.0379 92.8366 49.4329 92.6072 49.6044C91.4976 50.437 90.5617 51.2549 89.5548 52.2294C88.4626 53.3346 87.8761 54.2909 86.3956 55.0785C84.9476 56.9814 83.7958 57.3654 82.1569 59.1424C81.799 59.6843 81.2998 60.431 80.8263 60.8916C80.5432 61.1671 80.2479 60.8795 79.8848 61.1592L79.9661 61.3626L79.7679 61.3238C79.7228 61.1023 79.5126 60.7122 79.5893 60.4813C80.0406 59.1239 80.9676 57.5211 81.5938 56.262C82.2438 54.9226 82.8837 53.5785 83.5133 52.2294C82.756 51.5827 80.1425 50.7947 79.0878 50.4885L78.8608 50.313C78.4394 50.3158 77.9314 49.8986 77.616 49.6367C76.8884 48.772 79.2437 46.733 79.6895 45.848C79.8264 45.7251 80.1646 45.4799 80.3236 45.3579C80.4944 45.0531 82.2912 43.1506 82.7129 42.6215C83.2158 42.0662 83.7127 41.5055 84.2034 40.9396C84.7287 40.3849 85.6083 39.4966 85.9368 38.8305Z" fill="#FEDF7A"/>
<path d="M92.4873 38.835C93.0296 39.4398 93.0478 39.679 92.5813 40.3829C91.1829 42.4923 89.7983 44.3218 88.5966 46.561L88.5697 46.7283C88.7012 46.8718 88.742 46.8101 88.7871 46.9988C87.9386 46.6688 87.7865 46.751 86.8674 46.6149C87.3085 46.1812 92.2435 39.6229 92.327 39.3609C92.3836 39.1864 92.4364 39.0111 92.4873 38.835Z" fill="#FEBC22"/>
<path d="M77.616 49.6363C77.7461 49.5702 77.9605 49.4692 78.102 49.4914C80.0652 49.7993 82.7892 51.0802 84.6841 51.3258C84.4343 51.5558 83.8658 52.1225 83.5932 52.2415L83.5133 52.229C82.756 51.5823 80.1424 50.7943 79.0878 50.4881L78.8608 50.3126C78.4394 50.3154 77.9314 49.8982 77.616 49.6363Z" fill="#FEBC22"/>
<path d="M91.8883 4.15039C92.971 4.38603 94.116 4.83744 95.1824 5.15985C95.8303 5.35556 96.8448 5.68277 96.8995 6.46858C96.7345 6.96904 93.6927 11.5697 93.2301 12.168C94.1727 12.8092 97.5177 13.2562 97.4054 14.7408C96.8765 15.709 94.4376 17.7682 93.4845 18.6139C91.6377 20.2169 89.8016 21.8317 87.975 23.4579L87.6122 22.8655C86.924 23.3688 86.9883 22.9351 86.5815 23.2377C86.5695 23.2221 86.5552 23.208 86.5455 23.1907C86.1621 22.5062 89.0702 17.478 89.2986 16.3954C89.3178 16.304 89.2343 16.227 89.1834 16.1509C87.9366 15.6617 84.8522 15.4507 84.3896 14.2323C84.89 13.1268 85.983 11.7544 86.7077 10.7004C87.4711 9.67375 88.381 8.58501 89.1652 7.55386C89.8544 6.64788 91.0954 4.82381 91.8883 4.15039Z" fill="#FEDF7A"/>
<path d="M87.6121 22.8652C89.55 20.5894 94.662 15.6891 97.2373 14.5205L97.4052 14.7405C96.8764 15.7087 94.4374 17.7679 93.4843 18.6136C91.6376 20.2166 89.8014 21.8314 87.9749 23.4576L87.6121 22.8652Z" fill="#FEBC22"/>
<path d="M93.2298 12.1687L93.1022 12.299C92.7902 12.3712 92.9207 12.3706 92.5858 12.2599C92.5243 12.1709 92.389 12.0166 92.461 11.9204C93.6493 10.338 94.8212 8.74538 95.9538 7.11481C96.1756 6.79615 96.5009 6.33121 96.8993 6.46933C96.7342 6.96978 93.6925 11.5705 93.2298 12.1687Z" fill="#FEBC22"/>
<path d="M84.3896 14.2322C84.6155 14.2185 85.0953 14.2867 85.3053 14.3748C86.1686 14.7367 89.5146 14.8598 89.5837 15.9351L89.4599 16.115L89.1834 16.1508C87.9366 15.6616 84.8522 15.4506 84.3896 14.2322Z" fill="#FEBC22"/>
<path d="M79.9661 61.3628L79.8848 61.1594C80.2478 60.8796 80.5431 61.1673 80.8263 60.8918C81.2998 60.4312 81.799 59.6844 82.1568 59.1426C84.1797 57.1735 84.9476 56.7896 86.3955 55.0787C87.8271 53.9101 88.2705 53.2875 89.3628 52.1824C90.3697 51.2079 91.3247 50.3698 92.4343 49.5372C92.6637 49.3657 92.6887 49.0381 93.0265 48.751C93.1955 48.9669 93.4181 49.2547 93.3442 49.5372C93.1427 50.3006 91.9486 51.4792 91.3171 51.9902C90.1317 52.9504 88.5921 54.8581 87.399 55.6819C86.5084 56.6164 84.5378 58.4504 83.5143 59.2544C82.9914 59.8477 81.4404 61.3975 80.637 61.5451C80.4859 61.5728 80.1261 61.4262 79.9661 61.3628Z" fill="#FEBC22"/>
<path d="M86.5813 23.2384C86.9881 22.9358 86.9238 23.3695 87.612 22.8662L87.9748 23.4586C87.3231 23.8301 87.1023 23.7639 86.5813 23.2384Z" fill="#FDCC55"/>
<path d="M93.5983 24.043C94.3633 25.6303 94.3614 25.7911 95.8309 26.6446C95.0889 27.0108 94.2404 27.3306 93.8613 28.0999C93.7845 28.43 93.7519 28.7869 93.3843 28.8584C93.1606 28.6582 93.1721 28.3796 93.1424 28.078L93.1021 27.9998C92.5751 26.9932 91.8716 27.1835 91.5337 26.6273C91.6508 26.3231 91.9263 26.2326 92.2219 26.1005C92.3515 26.0429 92.481 25.9865 92.6116 25.9313C93.031 25.2335 93.2364 24.7153 93.5983 24.043Z" fill="#FDCC55"/>
<path d="M7.27678 7.65222C6.89803 7.61892 6.71432 7.47158 6.61719 7.12729C6.95284 6.67099 7.81832 6.6469 8.39509 6.04057C8.90572 5.50364 9.15643 4.47844 9.62627 4.15258C10.6048 4.0349 10.2402 5.64915 11.6005 6.64968C12.0621 6.78655 12.3278 6.80652 12.5525 7.20312C12.3635 8.02925 10.4818 8.23945 10.1894 10.0664C10.0425 10.4091 9.98841 10.5406 9.63001 10.5793C9.35982 10.4072 9.33889 10.26 9.23638 9.96293C9.10316 8.745 8.22913 8.22054 7.27678 7.65222Z" fill="#FDCC55"/>
<path d="M9.23633 9.96387C9.65318 9.83813 9.67152 9.75625 10.0189 9.86222L10.1893 10.0673C10.0425 10.41 9.98836 10.5415 9.62996 10.5803C9.35976 10.4082 9.33884 10.2609 9.23633 9.96387Z" fill="#FEDF7A"/>
<path d="M6.93755 25.0279C6.36299 24.1182 5.28654 23.6708 5.01855 23.1841C7.07289 22.1615 6.86959 20.953 7.50951 20.5303C8.02283 20.7429 7.854 21.9334 9.24134 22.7269C9.65772 22.9202 9.66175 22.8482 9.8972 23.1761C9.72961 23.7391 8.95685 23.8927 8.36425 24.4288L8.30781 24.5171C7.99807 25.006 7.91053 25.4985 7.60214 25.7947C7.15447 25.8035 7.09611 25.4096 6.93755 25.0279Z" fill="#FEDF7A"/>
<path d="M9.24129 22.7285C9.65767 22.9217 9.6617 22.8497 9.89715 23.1776C9.72956 23.7407 8.9568 23.8942 8.3642 24.4304L8.30776 24.5187C7.99802 25.0075 7.91048 25.5 7.60209 25.7962C7.15442 25.8051 7.09606 25.4112 6.9375 25.0294C7.49219 24.729 7.67398 24.1953 8.23568 23.7035C8.79535 23.3833 8.92503 23.2857 9.24129 22.7285Z" fill="#FDCC55"/>
<path d="M1.79076 10.6797C2.29535 10.9695 2.01978 11.5617 3.54563 12.2496C2.5283 12.9078 2.46572 12.9846 1.84394 14.0265C1.59851 13.8339 1.3813 13.3027 1.23108 12.9963C0.947548 12.7804 0.328743 12.4406 0 12.2475C0.465279 12.0289 0.866442 11.8047 1.31334 11.5556C1.4577 11.2601 1.62932 10.9672 1.79076 10.6797Z" fill="#FDCC55"/>
<defs>
<filter id="filter0_f_1803_8852" x="26.8755" y="76.7866" width="53.3667" height="14.9736" filterUnits="userSpaceOnUse" color-interpolation-filters="sRGB">
<feFlood flood-opacity="0" result="BackgroundImageFix"/>
<feBlend mode="normal" in="SourceGraphic" in2="BackgroundImageFix" result="shape"/>
<feGaussianBlur stdDeviation="1.91967" result="effect1_foregroundBlur_1803_8852"/>
</filter>
</defs>
</svg>
