<svg width="60" height="60" viewBox="0 0 60 60" fill="none" xmlns="http://www.w3.org/2000/svg">
<path d="M50.5004 51.6663C38.9707 62.6232 21.5558 62.7869 9.84691 52.0915C3.76 46.5867 0.217539 38.9611 0.0120421 30.9206C-0.444627 14.2936 12.1347 0.417419 29.6731 0.00450918C37.356 -0.128024 44.7828 2.66559 50.3398 7.77844C60.7363 17.3569 63.1853 32.749 55.5079 45.4379C53.8916 48.1095 52.7616 49.5175 50.5004 51.6663Z" fill="#E4D9F9"/>
<path d="M50.931 47.2861C51.1206 47.5818 51.175 48.1081 51.3234 48.4833C51.8061 49.7041 52.6576 49.9518 53.7507 50.4464C53.445 50.5547 53.141 50.6678 52.8389 50.786C51.6445 51.266 51.3933 51.9325 50.9142 53.0768C50.5544 53.0431 49.772 50.924 48.9187 50.8742C48.9166 50.8741 47.8314 50.4547 47.7113 50.4107C49.8992 49.6215 49.7757 49.4632 50.8198 47.2884L50.931 47.2861Z" fill="#FDC040"/>
<path d="M29.2103 32.3965C30.0656 33.4589 29.8142 33.9122 29.9441 37.6007L29.9427 42.0377L29.9427 42.0854C29.9428 43.0293 29.943 43.8196 29.9584 44.9333C29.9878 47.0435 29.7609 47.6122 29.2103 48.4619C28.2281 49.9775 25.2899 49.6784 25.2899 49.6784L18.2041 49.6857C16.9621 49.6913 15.6496 49.7371 14.4137 49.6744C11.6961 49.6857 11.3938 46.037 11.9978 46.6432C12.6228 48.7449 15.0344 48.9162 16.7149 48.9187L20.8678 48.9215L24.5574 48.9198C25.9236 48.9184 27.6752 49.1472 28.5301 47.8622C28.6613 47.665 28.8876 47.1704 28.9083 46.9463C29.105 44.8161 29.0915 42.7221 29.097 40.5787L29.1047 36.1762C29.1034 35.2293 29.0862 33.3127 28.9837 32.9876C28.6063 31.7904 27.3984 31.4873 27.7004 31.4873C28.388 31.4873 28.9829 32.1141 29.2103 32.3965Z" fill="#B3B3B3"/>
<path d="M11.6962 41.7933C11.6654 39.1439 11.6963 36.6331 11.6962 33.306C11.6961 32.3765 12.7095 31.8609 13.4673 31.518C13.9011 31.3217 14.4048 31.2205 14.8782 31.1784C16.7536 31.0117 18.742 31.1261 20.6284 31.122C22.5675 31.1177 24.6865 30.9606 26.6069 31.2105C27.0015 31.2619 27.393 31.4297 27.7644 31.571C28.3954 31.9681 28.8872 32.4642 28.984 32.9879C29.2108 34.2154 29.1036 35.2296 29.1049 36.1765L29.0973 40.579C29.0918 42.7225 29.0973 43.2082 29.0973 45.7338C29.0973 46.037 29.1713 46.9463 28.5304 47.8626C27.608 49.1811 25.9239 48.9187 24.5576 48.9202L20.868 48.9219L16.7152 48.919C15.0346 48.9165 12.3214 49.1788 11.6963 47.0771C11.6963 46.6432 11.6962 42.3995 11.6962 41.7933Z" fill="#EAEAEA"/>
<path d="M29.1718 13.253C30.0272 14.3154 29.7758 14.7687 29.9057 18.4572L29.9042 22.8941L29.9042 22.9418C29.9044 23.8858 29.9045 24.6761 29.92 25.7898C29.9493 27.8999 29.7225 28.4686 29.1718 29.3183C28.1897 30.8339 25.2514 30.5349 25.2514 30.5349L18.1657 30.5421C16.9237 30.5478 15.6111 30.5936 14.3752 30.5308C11.6576 30.5421 11.3554 26.8934 11.9593 27.4996C12.5843 29.6013 14.9959 29.7726 16.6765 29.7751L20.8293 29.778L24.5189 29.7763C25.8852 29.7748 27.6367 30.0036 28.4917 28.7187C28.6229 28.5215 28.8492 28.0269 28.8698 27.8028C29.0666 25.6726 29.0531 23.5786 29.0586 21.4351L29.0662 17.0326C29.0649 16.0857 29.0478 14.1691 28.9453 13.844C28.5679 12.6469 27.36 12.3437 27.662 12.3438C28.3496 12.3438 28.9445 12.9706 29.1718 13.253Z" fill="#D9C1E9"/>
<path d="M11.6571 22.6498C11.6264 20.0004 11.6573 17.4896 11.6571 14.1625C11.6571 13.2329 12.6705 12.7173 13.4282 12.3744C13.862 12.1781 14.3657 12.0769 14.8392 12.0349C16.7146 11.8681 18.7029 11.9826 20.5894 11.9784C22.5284 11.9741 24.6474 11.8171 26.5678 12.067C26.9624 12.1183 27.354 12.2862 27.7253 12.4274C28.3564 12.8246 28.8482 13.3206 28.9449 13.8443C29.1717 15.0718 29.0645 16.0861 29.0658 17.033L29.0582 21.4355C29.0527 23.5789 29.0582 24.0647 29.0582 26.5903C29.0582 26.8934 29.1322 27.8028 28.4913 28.719C27.5689 30.0376 25.8848 29.7752 24.5186 29.7766L20.829 29.7783L16.6761 29.7755C14.9956 29.773 12.2823 30.0353 11.6573 27.9336C11.6572 27.4996 11.6571 23.256 11.6571 22.6498Z" fill="#F8F4FA"/>
<path d="M20.0883 18.0003C20.3907 17.9839 20.6854 17.9378 20.9216 18.1695C21.3541 18.5939 21.1615 22.0455 21.1599 22.8595C21.5464 22.8661 23.7445 22.7618 23.8978 22.9494C25.2258 24.5725 21.821 24.2129 21.0615 24.1946C20.2847 24.2011 17.8829 24.3051 17.3087 24.0425C17.1768 23.9185 17.0736 23.7191 17.0625 23.5359C17.006 22.6057 18.4255 22.8787 18.9902 22.8513C19.2008 22.8412 19.4411 22.8588 19.6382 22.8623C19.6728 21.5042 19.5847 20.0898 19.6715 18.7377C19.6961 18.3547 19.8002 18.2217 20.0883 18.0003Z" fill="#5320B8"/>
<path d="M47.9381 13.2705C48.7935 14.3329 48.5421 14.7863 48.672 18.4748L48.6705 22.9117L48.6705 22.9594C48.6707 23.9034 48.6708 24.6936 48.6863 25.8074C48.7156 27.9175 48.4887 28.4862 47.9381 29.3359C46.956 30.8515 44.0177 30.5525 44.0177 30.5525L36.932 30.5597C35.69 30.5654 34.3774 30.6112 33.1415 30.5484C30.4239 30.5597 30.1217 26.911 30.7256 27.5172C31.3506 29.6189 33.7622 29.7902 35.4428 29.7927L39.5956 29.7955L43.2852 29.7939C44.6515 29.7924 46.403 30.0212 47.258 28.7362C47.3892 28.539 47.6155 28.0445 47.6361 27.8203C47.8329 25.6902 47.8194 23.5961 47.8249 21.4527L47.8325 17.0502C47.8312 16.1033 47.8141 14.1867 47.7116 13.8616C47.3342 12.6644 46.1263 12.3613 46.4283 12.3613C47.1159 12.3613 47.7108 12.9881 47.9381 13.2705Z" fill="#D9C1E9"/>
<path d="M30.4235 22.6673C30.3927 20.018 30.4236 17.5072 30.4235 14.18C30.4234 13.2505 31.4368 12.7349 32.1945 12.392C32.6284 12.1957 33.1321 12.0945 33.6055 12.0524C35.4809 11.8857 37.4693 12.0002 39.3557 11.996C41.2948 11.9917 43.4138 11.8346 45.3342 12.0846C45.7288 12.1359 46.1203 12.3037 46.4917 12.445C47.1227 12.8422 47.6145 13.3382 47.7113 13.8619C47.9381 15.0894 47.8309 16.1037 47.8322 17.0505L47.8246 21.453C47.8191 23.5965 47.8246 24.0822 47.8246 26.6079C47.8246 26.911 47.8986 27.8203 47.2577 28.7366C46.3353 30.0551 44.6512 29.7927 43.2849 29.7942L39.5953 29.7959L35.4425 29.793C33.7619 29.7906 31.0486 30.0529 30.4236 27.9511C30.4236 27.5172 30.4235 23.2736 30.4235 22.6673Z" fill="#F8F4FA"/>
<path d="M36.8999 17.9209C36.9455 17.9178 36.9912 17.9155 37.0369 17.9141C37.2993 17.9066 37.5702 17.9365 37.7641 18.1338C38.165 18.5416 37.9705 22.0417 37.9648 22.7951C38.9688 22.7983 39.9704 22.7766 40.9795 22.774C41.4119 22.7728 42.5532 22.7899 42.3423 23.5275C42.2554 23.8316 42.2343 23.91 41.9764 24.0932C40.446 24.203 38.8026 24.1534 37.2644 24.1246C36.4551 24.1095 36.4514 23.4622 36.4468 22.7629C36.4377 21.3869 36.4067 19.9759 36.4786 18.6018C36.4988 18.2351 36.6342 18.1258 36.8999 17.9209Z" fill="#5320B8"/>
<path d="M14.2495 5.74902C14.6802 5.95976 14.6689 6.43702 14.9209 6.92957C15.3672 7.80165 15.9452 7.83187 16.7342 8.13946L16.7799 8.25459C16.6211 8.4464 16.1433 8.56902 15.87 8.71022C14.9415 9.18988 14.7837 9.78263 14.4832 10.6922L14.3827 10.7213C14.0355 10.4628 14.3342 10.0435 13.7392 9.34673C13.1666 8.67621 12.5595 8.65786 12.2088 8.25823C12.4783 7.71748 13.8874 8.06934 14.2495 5.74902Z" fill="#FDC040"/>
<path d="M10.2299 11.0693C10.3826 11.185 10.6533 11.9342 10.801 12.217C11.1538 12.4415 11.5262 12.5732 11.9138 12.7276C11.5925 12.8689 11.0494 13.0926 10.8144 13.3376C10.5354 13.6286 10.4819 14.1451 10.2715 14.4576C9.66794 13.3277 9.76725 13.3056 8.5813 12.693C9.751 12.3617 9.71589 12.148 10.2299 11.0693Z" fill="#FDC040"/>
<path d="M48.3151 32.4336C49.1704 33.496 48.919 33.9494 49.0489 37.6378L49.0475 42.0748L49.0475 42.1225C49.0476 43.0665 49.0478 43.8567 49.0632 44.9705C49.0926 47.0806 48.8657 47.6493 48.3151 48.499C47.3329 50.0146 44.3947 49.7156 44.3947 49.7156L37.3089 49.7228C36.0669 49.7284 34.7544 49.7743 33.5184 49.7115C30.8009 49.7228 30.4986 46.0741 31.1026 46.6803C31.7276 48.782 34.1392 48.9533 35.8197 48.9558L39.9726 48.9586L43.6622 48.9569C45.0284 48.9555 46.78 49.1843 47.6349 47.8993C47.7661 47.7021 47.9924 47.2076 48.0131 46.9834C48.2098 44.8532 48.1963 42.7592 48.2018 40.6158L48.2095 36.2133C48.2082 35.2664 48.191 33.3498 48.0885 33.0247C47.7111 31.8275 46.5032 31.5244 46.8052 31.5244C47.4928 31.5244 48.0877 32.1512 48.3151 32.4336Z" fill="#D9C1E9"/>
<path d="M30.8011 41.8304C30.7703 39.181 30.8012 36.6702 30.801 33.3431C30.801 32.4136 31.8144 31.898 32.5721 31.5551C33.0059 31.3588 33.5097 31.2576 33.9831 31.2155C35.8585 31.0488 37.8469 31.1632 39.7333 31.1591C41.6723 31.1548 43.7913 30.9977 45.7117 31.2476C46.1064 31.299 46.4979 31.4668 46.8692 31.6081C47.5003 32.0052 47.9921 32.5013 48.0888 33.025C48.3156 34.2525 48.2085 35.2668 48.2098 36.2136L48.2022 40.6161C48.1966 42.7596 48.2022 43.2453 48.2022 45.771C48.2022 46.0741 48.2762 46.9834 47.6352 47.8997C46.7128 49.2182 45.0287 48.9558 43.6625 48.9573L39.9729 48.959L35.82 48.9561C34.1395 48.9536 31.4262 49.2159 30.8012 47.1142C30.8012 46.6803 30.8011 42.4367 30.8011 41.8304Z" fill="#F8F4FA"/>
<path d="M37.3026 40.707C37.9364 40.7851 37.981 41.084 38.1308 41.6361L41.2492 41.6435C41.3632 41.0765 41.4038 40.7493 42.1437 40.7725C43.0005 41.0766 42.7131 43.2576 42.628 44.027L42.4673 44.251C41.8625 44.5603 38.0241 44.3541 37.0761 44.3227C36.4514 44.3021 36.7569 41.6769 36.733 41.2676C36.7186 41.0195 37.12 40.8079 37.3026 40.707Z" fill="#5320B8"/>
<path d="M38.5099 42.7398C39.0171 42.7284 41.2459 42.5526 41.3462 43.0728C41.1728 43.2831 41.2207 43.2195 40.8731 43.2604C40.3557 43.298 38.0893 43.5046 38.0048 42.9612C38.1919 42.7238 38.1318 42.7949 38.5099 42.7398Z" fill="white"/>
<path d="M37.5157 36.3447C37.8694 36.3092 38.0809 36.2753 38.4376 36.3322C38.7503 36.6408 38.5154 37.3261 38.9143 38.0678C39.4203 39.0087 40.189 39.0031 40.4707 39.7182C40.4788 39.8954 40.3991 40.1189 40.2848 40.248C39.6816 40.9294 38.4161 39.5084 38.0753 39.1261C38.0454 39.1141 38.0155 39.1021 37.9857 39.0901C37.5299 39.6361 35.985 41.4482 35.4769 40.0531C35.4487 39.9742 35.4611 39.7516 35.5281 39.6925C36.2401 39.0635 36.7061 38.6699 37.2443 37.8674C37.2459 37.2869 37.1764 36.8082 37.5157 36.3447Z" fill="#5320B8"/>
<path d="M41.9511 36.0957C42.1521 36.1381 42.5841 36.2863 42.6277 36.5546C42.7631 37.3901 42.7033 38.2744 42.7125 39.1229C42.718 39.6252 42.6754 40.4882 42.0945 40.648C41.4403 40.614 41.3297 40.2163 41.2956 39.6785C41.2651 39.2557 41.291 39.0319 41.331 38.6173C40.7407 38.6401 39.9377 38.7363 39.6531 38.073C39.6742 37.25 40.7089 37.3597 41.2629 37.3828C41.2907 36.6315 41.2198 36.4204 41.9511 36.0957Z" fill="#5320B8"/>
<path d="M45.9881 45.8721C46.0876 46.0273 46.1162 46.3037 46.1941 46.5006C46.4475 47.1417 46.8946 47.2717 47.4686 47.5314C47.3081 47.5883 47.1485 47.6477 46.9898 47.7097C46.3627 47.9618 46.2308 48.3117 45.9792 48.9126C45.7903 48.8949 45.3795 47.7822 44.9314 47.7561C44.9304 47.756 44.3605 47.5358 44.2975 47.5127C45.4463 47.0983 45.3814 47.0152 45.9297 45.8732L45.9881 45.8721Z" fill="#FDC040"/>
</svg>
