<svg width="248" height="179" viewBox="0 0 248 179" fill="none" xmlns="http://www.w3.org/2000/svg">
<g filter="url(#filter0_f_1574_9271)">
<ellipse cx="121.175" cy="150.189" rx="61.6114" ry="8.62559" fill="#5E3E99" fill-opacity="0.46"/>
</g>
<g filter="url(#filter1_i_1574_9271)">
<path d="M66.6932 1.77406C72.8869 2.2505 85.2734 15.8498 90.6396 23.8398C90.6864 23.8164 90.7326 23.7934 90.7783 23.7708C91.8498 23.2393 92.5933 22.9189 92.5933 22.9189C86.6947 14.0246 71.0573 -0.694131 66.1301 0.649446C62.1516 1.73434 54.8762 28.7995 53.7927 45.6914C53.3866 52.0234 53.3866 58.0788 53.3866 58.0788C56.9434 51.2044 61.3708 45.6947 64.5922 42.165C61.6256 34.9949 62.2019 1.42858 66.6932 1.77406Z" fill="black"/>
<path d="M90.6396 23.8398C90.6396 23.8398 92.346 26.5472 93.1572 25.9841C93.9684 25.4211 92.5933 22.9189 92.5933 22.9189C92.5933 22.9189 91.8498 23.2393 90.7783 23.7708L90.6396 23.8398Z" fill="black"/>
<path d="M184.936 34.9951C184.578 21.7528 180.118 0.64797 176.49 0.64793C167.605 0.647834 153.014 16.756 149.464 20.9183L148.338 22.2047C148.962 22.461 149.566 22.7241 150.145 22.9934C150.534 22.4713 150.936 21.9515 151.333 21.4813C158.473 13.0354 170.74 1.93807 175.928 2.33712C179.869 2.64031 180.432 36.684 176.491 43.2691C179.518 46.7714 182.409 50.758 184.936 55.2652C184.936 55.2652 185.294 48.2375 184.936 34.9951Z" fill="black"/>
<path d="M148.338 22.2047C148.338 22.2047 145.391 26.5489 147.211 26.5489C147.551 26.5489 148.349 25.4525 149.31 24.1307C149.578 23.7628 149.858 23.3775 150.145 22.9934C149.566 22.7241 148.962 22.461 148.338 22.2047Z" fill="black"/>
<path d="M122.999 16.9768C109.486 16.9768 101.602 18.9775 92.5933 22.9189C92.5933 22.9189 93.9684 25.4211 93.1572 25.9841C92.346 26.5472 90.6396 23.8398 90.6396 23.8398C85.2734 15.8498 72.8869 2.2505 66.6932 1.77406C62.2019 1.42858 61.6256 34.9949 64.5922 42.165C61.3708 45.6947 56.9434 51.2044 53.3866 58.0788C51.4433 61.8346 49.7599 65.9978 48.6749 70.4679C42.3081 96.7014 51.8777 119.555 73.4498 135.783C88.5385 147.135 105.545 148.171 120.184 148.171C128.631 148.171 150.915 147.608 167.641 135.214C201.828 109.882 191.054 70.7446 188.877 64.8375C188.613 64.1206 188.368 63.4366 188.132 62.7768C187.158 60.0601 186.332 57.7551 184.936 55.2652C182.409 50.758 179.518 46.7714 176.491 43.2691C180.432 36.684 179.869 2.64031 175.928 2.33712C170.74 1.93807 158.473 13.0354 151.333 21.4813C150.936 21.9515 150.534 22.4713 150.145 22.9934C149.858 23.3775 149.578 23.7628 149.31 24.1307C148.349 25.4525 147.551 26.5489 147.211 26.5489C145.391 26.5489 148.338 22.2047 148.338 22.2047C140.738 19.0871 130.003 16.9768 122.999 16.9768Z" fill="#A289CB"/>
</g>
<path d="M155.094 25.9858C153.849 24.9311 152.146 23.9252 150.145 22.9934M92.5933 22.9189C101.602 18.9775 109.486 16.9768 122.999 16.9768C130.003 16.9768 140.738 19.0871 148.338 22.2047M92.5933 22.9189C86.6947 14.0246 71.0573 -0.694131 66.1301 0.649446C62.1516 1.73434 54.8762 28.7995 53.7927 45.6914C53.3866 52.0234 53.3866 58.0788 53.3866 58.0788M92.5933 22.9189C92.5933 22.9189 93.9684 25.4211 93.1572 25.9841C92.346 26.5472 90.6396 23.8398 90.6396 23.8398M90.6396 23.8398C90.6864 23.8164 90.7326 23.7934 90.7783 23.7708C91.8498 23.2393 92.5933 22.9189 92.5933 22.9189M184.936 55.2652C184.936 55.2652 185.294 48.2375 184.936 34.9951C184.578 21.7528 180.118 0.64797 176.49 0.64793C167.605 0.647834 153.014 16.756 149.464 20.9183L148.338 22.2047M68.945 37.8102C68.945 37.8102 67.1483 39.3643 64.5922 42.165C61.3708 45.6947 56.9434 51.2044 53.3866 58.0788C51.4433 61.8346 49.7599 65.9978 48.6749 70.4679C42.3081 96.7014 51.8777 119.555 73.4498 135.783C88.5385 147.135 105.545 148.171 120.184 148.171C128.631 148.171 150.915 147.608 167.641 135.214C201.828 109.882 191.054 70.7446 188.877 64.8375C188.613 64.1206 188.368 63.4366 188.132 62.7768C187.158 60.0601 186.332 57.7551 184.936 55.2652C182.409 50.758 179.518 46.7714 176.491 43.2691C175.379 41.9833 174.249 40.7628 173.112 39.6057M85.2734 27.112C86.945 25.7751 89.2121 24.5476 90.7783 23.7708M148.338 22.2047C148.338 22.2047 145.391 26.5489 147.211 26.5489C147.551 26.5489 148.349 25.4525 149.31 24.1307C149.578 23.7628 149.858 23.3775 150.145 22.9934M148.338 22.2047C148.962 22.461 149.566 22.7241 150.145 22.9934M176.491 43.2691C180.432 36.684 179.869 2.64031 175.928 2.33712C170.74 1.93807 158.473 13.0354 151.333 21.4813C150.936 21.9515 150.534 22.4713 150.145 22.9934M90.6396 23.8398C85.2734 15.8498 72.8869 2.2505 66.6932 1.77406C62.2019 1.42858 61.6256 34.9949 64.5922 42.165M90.6396 23.8398L90.7783 23.7708" stroke="#1C1135" stroke-width="1.12613" stroke-linecap="round"/>
<path d="M167.117 29.7773C172.623 34.5794 175.184 35.511 176.174 36.7516C179.644 30.3672 178.98 2.91697 175.486 2.63611C170.888 2.26644 159.057 13.0554 152.759 21.2506C152.408 21.7068 153.103 20.7441 152.759 21.2506C152.759 21.2506 161.61 24.9751 167.117 29.7773Z" fill="url(#paint0_linear_1574_9271)"/>
<path d="M74.345 29.6598C69.1696 34.5422 65.1197 36.4647 64.1896 37.7259C62.5004 32.6583 63.0634 2.37464 66.4876 2.07588C70.3833 1.73597 81.9234 12.6615 87.839 20.9894C88.1683 21.453 87.5162 20.4747 87.839 20.9894C87.839 20.9894 79.5203 24.7774 74.345 29.6598Z" fill="url(#paint1_linear_1574_9271)"/>
<path d="M9.76302 89.0683C5.82157 92.2497 4.13242 93.5728 0.754036 97.5143C1.67008 97.9723 3.95708 96.8759 6.38465 96.9512C9.05844 97.0342 10.808 97.3035 13.1414 98.0774C17.0794 99.3834 18.9201 101.105 22.1505 103.708C25.9054 106.734 29.4705 112.154 30.5965 112.717C30.3766 107.22 30.2716 107.974 30.0334 102.478C29.8426 100.122 29.7099 92.7924 30.0334 89.0683C30.362 85.2867 31.7225 81.1854 31.7225 80.0593C31.7225 79.2271 30.8784 76.6809 29.4704 76.6809C28.3441 76.6809 23.277 79.1714 19.8982 81.1854C15.4404 83.8425 13.9051 85.725 9.76302 89.0683Z" fill="#A974D2"/>
<path d="M41.2946 86.8161C36.7901 84.0007 36.2271 81.1854 35.101 81.1854C33.975 81.1854 33.0155 85.9048 32.0948 89.0683C30.6143 94.1556 30.4056 97.8695 30.0334 102.478C30.2716 107.974 30.3766 107.22 30.5965 112.717C31.7225 113.28 35.5062 109.638 39.0424 108.776C43.3149 107.733 45.9505 108.151 50.3037 108.776C54.8486 109.428 61.5649 112.717 61.5649 112.717C61.5649 112.717 56.1788 106.568 53.682 102.019C51.4032 97.8664 49.1776 90.7575 49.1776 90.7575C49.1776 90.7575 44.1348 88.5912 41.2946 86.8161Z" fill="#A974D2"/>
<path d="M46.3623 80.6223C46.3623 80.6223 41.6426 78.3029 39.0425 75.5549C36.5272 72.8966 33.9749 67.6721 32.2857 67.1089C30.5999 66.5469 26.64 68.3731 23.2971 69.9147L23.2767 69.9241C17.1644 72.7429 12.5784 76.6809 8.63699 81.1854C3.64402 86.8916 -0.372173 96.9512 0.754036 97.5143C4.13242 93.5728 5.82157 92.2497 9.76302 89.0683C13.9051 85.725 15.4404 83.8425 19.8982 81.1854C23.277 79.1714 28.3441 76.6809 29.4704 76.6809C30.8784 76.6809 31.7225 79.2271 31.7225 80.0593C31.7225 81.1854 30.362 85.2867 30.0334 89.0683C29.7099 92.7924 29.8426 100.122 30.0334 102.478C30.4056 97.8695 30.6143 94.1556 32.0948 89.0683C33.0155 85.9048 33.975 81.1854 35.101 81.1854C36.2271 81.1854 36.7901 84.0007 41.2946 86.8161C44.1348 88.5912 49.1776 90.7575 49.1776 90.7575L46.3623 80.6223Z" fill="#43277B"/>
<path d="M23.2767 69.9241C17.1644 72.7429 12.5784 76.6809 8.63699 81.1854C3.64402 86.8916 -0.372173 96.9512 0.754036 97.5143M23.2767 69.9241L23.2971 69.9147M49.1776 90.7575L46.3623 80.6223C46.3623 80.6223 41.6426 78.3029 39.0425 75.5549C36.5272 72.8966 33.9749 67.6721 32.2857 67.1089C30.5999 66.5469 26.64 68.3731 23.2971 69.9147C23.2903 69.9178 23.2835 69.921 23.2767 69.9241M0.754036 97.5143C4.13242 93.5728 5.82157 92.2497 9.76302 89.0683C13.9051 85.725 15.4404 83.8425 19.8982 81.1854C23.277 79.1714 28.3441 76.6809 29.4704 76.6809C30.8784 76.6809 31.7225 79.2271 31.7225 80.0593C31.7225 81.1854 30.362 85.2867 30.0334 89.0683C29.7099 92.7924 29.8426 100.122 30.0334 102.478M0.754036 97.5143C1.67008 97.9723 3.95708 96.8759 6.38465 96.9512C9.05844 97.0342 10.808 97.3035 13.1414 98.0774C17.0794 99.3834 18.9201 101.105 22.1505 103.708C25.9054 106.734 29.4705 112.154 30.5965 112.717M30.0334 102.478C30.2716 107.974 30.3766 107.22 30.5965 112.717M30.0334 102.478C30.4056 97.8695 30.6143 94.1556 32.0948 89.0683C33.0155 85.9048 33.975 81.1854 35.101 81.1854C36.227 81.1854 36.7901 84.0007 41.2946 86.8161C44.1348 88.5912 49.1776 90.7575 49.1776 90.7575M49.1776 90.7575C49.1776 90.7575 51.4032 97.8664 53.682 102.019C56.1788 106.568 61.565 112.717 61.565 112.717C61.565 112.717 54.8486 109.428 50.3037 108.776C45.9505 108.151 43.3149 107.733 39.0424 108.776C35.5062 109.638 31.7225 113.28 30.5965 112.717" stroke="#0D0C12" stroke-width="1.12613" stroke-linecap="round"/>
<path d="M197.264 75.5549C195.155 77.8614 191.07 80.6223 191.07 80.6223L189.381 89.068C189.381 89.068 192.081 87.6211 193.885 86.2527C195.619 84.9371 197.827 82.3109 198.39 82.3113C200.079 82.3125 201.768 94.1356 201.768 99.2032C201.768 91.7271 201.768 80.0594 201.768 80.0594C201.768 78.6514 202.684 76.799 204.02 77.2441C207.399 78.3698 210.484 80.2195 214.718 83.4377C217.816 85.7918 219.86 87.4341 222.601 90.1945C225.124 92.7344 227.106 95.2621 229.358 97.5144C231.61 96.9513 226.584 86.8214 222.601 81.1855C220.611 78.3699 215.845 73.6867 212.466 71.6134C208.671 69.2845 204.583 67.1085 202.331 67.672C200.541 68.12 199.733 72.854 197.264 75.5549Z" fill="#442679"/>
<path d="M214.718 83.4377C210.484 80.2195 207.399 78.3698 204.02 77.2441C202.684 76.799 201.768 78.6514 201.768 80.0594C201.768 80.0594 201.768 91.7271 201.768 99.2032C201.768 104.833 201.205 108.776 200.642 113.28C203.457 108.775 207.037 104.834 210.214 102.582C211.903 101.384 215.066 99.1044 218.66 98.0771C222.601 96.9505 225.98 96.9513 229.358 97.5144C227.106 95.2621 225.124 92.7344 222.601 90.1945C219.86 87.4341 217.816 85.7918 214.718 83.4377Z" fill="#AA74D2"/>
<path d="M201.768 99.2032C201.768 94.1356 200.079 82.3125 198.39 82.3113C197.827 82.3109 195.619 84.9371 193.885 86.2527C192.081 87.6211 189.381 89.068 189.381 89.068L187.691 94.1356C186.57 97.4993 185.54 98.9586 183.75 102.019C181.808 105.339 178.682 110.465 178.682 110.465C178.682 110.465 186.244 108.032 191.07 108.776C195.065 109.391 197.827 111.028 200.642 113.28C201.205 108.776 201.768 104.833 201.768 99.2032Z" fill="#AA74D2"/>
<path d="M187.691 94.1356C186.57 97.4993 185.54 98.9586 183.75 102.019C181.808 105.339 178.682 110.465 178.682 110.465C178.682 110.465 186.244 108.032 191.07 108.776C195.065 109.391 197.827 111.028 200.642 113.28C203.457 108.775 207.037 104.834 210.214 102.582C211.903 101.384 215.066 99.1044 218.66 98.0771C222.601 96.9505 225.98 96.9513 229.358 97.5144C231.61 96.9513 226.584 86.8214 222.601 81.1855C220.611 78.3699 215.845 73.6867 212.466 71.6134C208.671 69.2845 204.583 67.1085 202.331 67.672C200.541 68.12 199.733 72.854 197.264 75.5549C195.155 77.8614 191.07 80.6223 191.07 80.6223L189.381 89.068M229.358 97.5144C227.106 95.2621 225.124 92.7344 222.601 90.1945C219.86 87.4341 217.816 85.7918 214.718 83.4377C210.484 80.2195 207.399 78.3698 204.02 77.2441C202.684 76.799 201.768 78.6514 201.768 80.0594M201.768 80.0594C201.768 85.6897 201.768 93.573 201.768 99.2032M201.768 80.0594C201.768 80.0594 201.768 91.7271 201.768 99.2032M201.768 99.2032C201.768 94.1356 200.079 82.3125 198.39 82.3113C197.827 82.3109 195.619 84.9371 193.885 86.2527C192.081 87.6211 189.381 89.068 189.381 89.068M201.768 99.2032C201.768 104.833 201.205 108.776 200.642 113.28M189.381 89.068C189.381 89.068 188.401 92.0082 187.691 94.1356M189.381 89.068L187.691 94.1356" stroke="#0D0C12" stroke-width="1.12613" stroke-linecap="round"/>
<path d="M9.76302 89.0683C5.82157 92.2497 4.13242 93.5728 0.754036 97.5143C1.67008 97.9723 3.95708 96.8759 6.38465 96.9512C9.05844 97.0342 10.808 97.3035 13.1414 98.0774C17.0794 99.3834 18.9201 101.105 22.1505 103.708C25.9054 106.734 29.4705 112.154 30.5965 112.717C30.3766 107.22 30.2716 107.974 30.0334 102.478C29.8426 100.122 29.7099 92.7924 30.0334 89.0683C30.362 85.2867 31.7225 81.1854 31.7225 80.0593C31.7225 79.2271 30.8784 76.6809 29.4704 76.6809C28.3441 76.6809 23.277 79.1714 19.8982 81.1854C15.4404 83.8425 13.9051 85.725 9.76302 89.0683Z" fill="#A974D2"/>
<path d="M41.2946 86.8161C36.7901 84.0007 36.2271 81.1854 35.101 81.1854C33.975 81.1854 33.0155 85.9048 32.0948 89.0683C30.6143 94.1556 30.4056 97.8695 30.0334 102.478C30.2716 107.974 30.3766 107.22 30.5965 112.717C31.7225 113.28 35.5062 109.638 39.0424 108.776C43.3149 107.733 45.9505 108.151 50.3037 108.776C54.8486 109.428 61.5649 112.717 61.5649 112.717C61.5649 112.717 56.1788 106.568 53.682 102.019C51.4032 97.8664 49.1776 90.7575 49.1776 90.7575C49.1776 90.7575 44.1348 88.5912 41.2946 86.8161Z" fill="#A974D2"/>
<path d="M46.3623 80.6223C46.3623 80.6223 41.6426 78.3029 39.0425 75.5549C36.5272 72.8966 33.9749 67.6721 32.2857 67.1089C30.5999 66.5469 26.64 68.3731 23.2971 69.9147L23.2767 69.9241C17.1644 72.7429 12.5784 76.6809 8.63699 81.1854C3.64402 86.8916 -0.372173 96.9512 0.754036 97.5143C4.13242 93.5728 5.82157 92.2497 9.76302 89.0683C13.9051 85.725 15.4404 83.8425 19.8982 81.1854C23.277 79.1714 28.3441 76.6809 29.4704 76.6809C30.8784 76.6809 31.7225 79.2271 31.7225 80.0593C31.7225 81.1854 30.362 85.2867 30.0334 89.0683C29.7099 92.7924 29.8426 100.122 30.0334 102.478C30.4056 97.8695 30.6143 94.1556 32.0948 89.0683C33.0155 85.9048 33.975 81.1854 35.101 81.1854C36.2271 81.1854 36.7901 84.0007 41.2946 86.8161C44.1348 88.5912 49.1776 90.7575 49.1776 90.7575L46.3623 80.6223Z" fill="#43277B"/>
<path d="M23.2767 69.9241C17.1644 72.7429 12.5784 76.6809 8.63699 81.1854C3.64402 86.8916 -0.372173 96.9512 0.754036 97.5143M23.2767 69.9241L23.2971 69.9147M49.1776 90.7575L46.3623 80.6223C46.3623 80.6223 41.6426 78.3029 39.0425 75.5549C36.5272 72.8966 33.9749 67.6721 32.2857 67.1089C30.5999 66.5469 26.64 68.3731 23.2971 69.9147C23.2903 69.9178 23.2835 69.921 23.2767 69.9241M0.754036 97.5143C4.13242 93.5728 5.82157 92.2497 9.76302 89.0683C13.9051 85.725 15.4404 83.8425 19.8982 81.1854C23.277 79.1714 28.3441 76.6809 29.4704 76.6809C30.8784 76.6809 31.7225 79.2271 31.7225 80.0593C31.7225 81.1854 30.362 85.2867 30.0334 89.0683C29.7099 92.7924 29.8426 100.122 30.0334 102.478M0.754036 97.5143C1.67008 97.9723 3.95708 96.8759 6.38465 96.9512C9.05844 97.0342 10.808 97.3035 13.1414 98.0774C17.0794 99.3834 18.9201 101.105 22.1505 103.708C25.9054 106.734 29.4705 112.154 30.5965 112.717M30.0334 102.478C30.2716 107.974 30.3766 107.22 30.5965 112.717M30.0334 102.478C30.4056 97.8695 30.6143 94.1556 32.0948 89.0683C33.0155 85.9048 33.975 81.1854 35.101 81.1854C36.227 81.1854 36.7901 84.0007 41.2946 86.8161C44.1348 88.5912 49.1776 90.7575 49.1776 90.7575M49.1776 90.7575C49.1776 90.7575 51.4032 97.8664 53.682 102.019C56.1788 106.568 61.565 112.717 61.565 112.717C61.565 112.717 54.8486 109.428 50.3037 108.776C45.9505 108.151 43.3149 107.733 39.0424 108.776C35.5062 109.638 31.7225 113.28 30.5965 112.717" stroke="#0D0C12" stroke-width="1.12613" stroke-linecap="round"/>
<path d="M197.264 75.5549C195.155 77.8614 191.07 80.6223 191.07 80.6223L189.381 89.068C189.381 89.068 192.081 87.6211 193.885 86.2527C195.619 84.9371 197.827 82.3109 198.39 82.3113C200.079 82.3125 201.768 94.1356 201.768 99.2032C201.768 91.7271 201.768 80.0594 201.768 80.0594C201.768 78.6514 202.684 76.799 204.02 77.2441C207.399 78.3698 210.484 80.2195 214.718 83.4377C217.816 85.7918 219.86 87.4341 222.601 90.1945C225.124 92.7344 227.106 95.2621 229.358 97.5144C231.61 96.9513 226.584 86.8214 222.601 81.1855C220.611 78.3699 215.845 73.6867 212.466 71.6134C208.671 69.2845 204.583 67.1085 202.331 67.672C200.541 68.12 199.733 72.854 197.264 75.5549Z" fill="#442679"/>
<path d="M214.718 83.4377C210.484 80.2195 207.399 78.3698 204.02 77.2441C202.684 76.799 201.768 78.6514 201.768 80.0594C201.768 80.0594 201.768 91.7271 201.768 99.2032C201.768 104.833 201.205 108.776 200.642 113.28C203.457 108.775 207.037 104.834 210.214 102.582C211.903 101.384 215.066 99.1044 218.66 98.0771C222.601 96.9505 225.98 96.9513 229.358 97.5144C227.106 95.2621 225.124 92.7344 222.601 90.1945C219.86 87.4341 217.816 85.7918 214.718 83.4377Z" fill="#AA74D2"/>
<path d="M201.768 99.2032C201.768 94.1356 200.079 82.3125 198.39 82.3113C197.827 82.3109 195.619 84.9371 193.885 86.2527C192.081 87.6211 189.381 89.068 189.381 89.068L187.691 94.1356C186.57 97.4993 185.54 98.9586 183.75 102.019C181.808 105.339 178.682 110.465 178.682 110.465C178.682 110.465 186.244 108.032 191.07 108.776C195.065 109.391 197.827 111.028 200.642 113.28C201.205 108.776 201.768 104.833 201.768 99.2032Z" fill="#AA74D2"/>
<path d="M187.691 94.1356C186.57 97.4993 185.54 98.9586 183.75 102.019C181.808 105.339 178.682 110.465 178.682 110.465C178.682 110.465 186.244 108.032 191.07 108.776C195.065 109.391 197.827 111.028 200.642 113.28C203.457 108.775 207.037 104.834 210.214 102.582C211.903 101.384 215.066 99.1044 218.66 98.0771C222.601 96.9505 225.98 96.9513 229.358 97.5144C231.61 96.9513 226.584 86.8214 222.601 81.1855C220.611 78.3699 215.845 73.6867 212.466 71.6134C208.671 69.2845 204.583 67.1085 202.331 67.672C200.541 68.12 199.733 72.854 197.264 75.5549C195.155 77.8614 191.07 80.6223 191.07 80.6223L189.381 89.068M229.358 97.5144C227.106 95.2621 225.124 92.7344 222.601 90.1945C219.86 87.4341 217.816 85.7918 214.718 83.4377C210.484 80.2195 207.399 78.3698 204.02 77.2441C202.684 76.799 201.768 78.6514 201.768 80.0594M201.768 80.0594C201.768 85.6897 201.768 93.573 201.768 99.2032M201.768 80.0594C201.768 80.0594 201.768 91.7271 201.768 99.2032M201.768 99.2032C201.768 94.1356 200.079 82.3125 198.39 82.3113C197.827 82.3109 195.619 84.9371 193.885 86.2527C192.081 87.6211 189.381 89.068 189.381 89.068M201.768 99.2032C201.768 104.833 201.205 108.776 200.642 113.28M189.381 89.068C189.381 89.068 188.401 92.0082 187.691 94.1356M189.381 89.068L187.691 94.1356" stroke="#0D0C12" stroke-width="1.12613" stroke-linecap="round"/>
<g filter="url(#filter2_f_1574_9271)">
<circle cx="167.23" cy="107.546" r="6.75677" fill="#CD91D7"/>
</g>
<g filter="url(#filter3_f_1574_9271)">
<circle cx="73.7617" cy="107.546" r="6.75677" fill="#CD91D7"/>
</g>
<g filter="url(#filter4_i_1574_9271)">
<path d="M66.6932 1.77406C72.8869 2.2505 85.2734 15.8498 90.6396 23.8398C90.6864 23.8164 90.7326 23.7934 90.7783 23.7708C91.8498 23.2393 92.5933 22.9189 92.5933 22.9189C86.6947 14.0246 71.0573 -0.694131 66.1301 0.649446C62.1516 1.73434 54.8762 28.7995 53.7927 45.6914C53.3866 52.0234 53.3866 58.0788 53.3866 58.0788C56.9434 51.2044 61.3708 45.6947 64.5922 42.165C61.6256 34.9949 62.2019 1.42858 66.6932 1.77406Z" fill="black"/>
<path d="M90.6396 23.8398C90.6396 23.8398 92.346 26.5472 93.1572 25.9841C93.9684 25.4211 92.5933 22.9189 92.5933 22.9189C92.5933 22.9189 91.8498 23.2393 90.7783 23.7708L90.6396 23.8398Z" fill="black"/>
<path d="M184.936 34.9951C184.578 21.7528 180.118 0.64797 176.49 0.64793C167.605 0.647834 153.014 16.756 149.464 20.9183L148.338 22.2047C148.962 22.461 149.566 22.7241 150.145 22.9934C150.534 22.4713 150.936 21.9515 151.333 21.4813C158.473 13.0354 170.74 1.93807 175.928 2.33712C179.869 2.64031 180.432 36.684 176.491 43.2691C179.518 46.7714 182.409 50.758 184.936 55.2652C184.936 55.2652 185.294 48.2375 184.936 34.9951Z" fill="black"/>
<path d="M148.338 22.2047C148.338 22.2047 145.391 26.5489 147.211 26.5489C147.551 26.5489 148.349 25.4525 149.31 24.1307C149.578 23.7628 149.858 23.3775 150.145 22.9934C149.566 22.7241 148.962 22.461 148.338 22.2047Z" fill="black"/>
<path d="M122.999 16.9768C109.486 16.9768 101.602 18.9775 92.5933 22.9189C92.5933 22.9189 93.9684 25.4211 93.1572 25.9841C92.346 26.5472 90.6396 23.8398 90.6396 23.8398C85.2734 15.8498 72.8869 2.2505 66.6932 1.77406C62.2019 1.42858 61.6256 34.9949 64.5922 42.165C61.3708 45.6947 56.9434 51.2044 53.3866 58.0788C51.4433 61.8346 49.7599 65.9978 48.6749 70.4679C42.3081 96.7014 51.8777 119.555 73.4498 135.783C88.5385 147.135 105.545 148.171 120.184 148.171C128.631 148.171 150.915 147.608 167.641 135.214C201.828 109.882 191.054 70.7446 188.877 64.8375C188.613 64.1206 188.368 63.4366 188.132 62.7768C187.158 60.0601 186.332 57.7551 184.936 55.2652C182.409 50.758 179.518 46.7714 176.491 43.2691C180.432 36.684 179.869 2.64031 175.928 2.33712C170.74 1.93807 158.473 13.0354 151.333 21.4813C150.936 21.9515 150.534 22.4713 150.145 22.9934C149.858 23.3775 149.578 23.7628 149.31 24.1307C148.349 25.4525 147.551 26.5489 147.211 26.5489C145.391 26.5489 148.338 22.2047 148.338 22.2047C140.738 19.0871 130.003 16.9768 122.999 16.9768Z" fill="#A289CB"/>
</g>
<path d="M155.094 25.9858C153.849 24.9311 152.146 23.9252 150.145 22.9934M92.5933 22.9189C101.602 18.9775 109.486 16.9768 122.999 16.9768C130.003 16.9768 140.738 19.0871 148.338 22.2047M92.5933 22.9189C86.6947 14.0246 71.0573 -0.694131 66.1301 0.649446C62.1516 1.73434 54.8762 28.7995 53.7927 45.6914C53.3866 52.0234 53.3866 58.0788 53.3866 58.0788M92.5933 22.9189C92.5933 22.9189 93.9684 25.4211 93.1572 25.9841C92.346 26.5472 90.6396 23.8398 90.6396 23.8398M90.6396 23.8398C90.6864 23.8164 90.7326 23.7934 90.7783 23.7708C91.8498 23.2393 92.5933 22.9189 92.5933 22.9189M184.936 55.2652C184.936 55.2652 185.294 48.2375 184.936 34.9951C184.578 21.7528 180.118 0.64797 176.49 0.64793C167.605 0.647834 153.014 16.756 149.464 20.9183L148.338 22.2047M68.945 37.8102C68.945 37.8102 67.1483 39.3643 64.5922 42.165C61.3708 45.6947 56.9434 51.2044 53.3866 58.0788C51.4433 61.8346 49.7599 65.9978 48.6749 70.4679C42.3081 96.7014 51.8777 119.555 73.4498 135.783C88.5385 147.135 105.545 148.171 120.184 148.171C128.631 148.171 150.915 147.608 167.641 135.214C201.828 109.882 191.054 70.7446 188.877 64.8375C188.613 64.1206 188.368 63.4366 188.132 62.7768C187.158 60.0601 186.332 57.7551 184.936 55.2652C182.409 50.758 179.518 46.7714 176.491 43.2691C175.379 41.9833 174.249 40.7628 173.112 39.6057M85.2734 27.112C86.945 25.7751 89.2121 24.5476 90.7783 23.7708M148.338 22.2047C148.338 22.2047 145.391 26.5489 147.211 26.5489C147.551 26.5489 148.349 25.4525 149.31 24.1307C149.578 23.7628 149.858 23.3775 150.145 22.9934M148.338 22.2047C148.962 22.461 149.566 22.7241 150.145 22.9934M176.491 43.2691C180.432 36.684 179.869 2.64031 175.928 2.33712C170.74 1.93807 158.473 13.0354 151.333 21.4813C150.936 21.9515 150.534 22.4713 150.145 22.9934M90.6396 23.8398C85.2734 15.8498 72.8869 2.2505 66.6932 1.77406C62.2019 1.42858 61.6256 34.9949 64.5922 42.165M90.6396 23.8398L90.7783 23.7708" stroke="#1C1135" stroke-width="1.12613" stroke-linecap="round"/>
<path d="M167.117 29.7773C172.623 34.5794 175.184 35.511 176.174 36.7516C179.644 30.3672 178.98 2.91697 175.486 2.63611C170.888 2.26644 159.057 13.0554 152.759 21.2506C152.408 21.7068 153.103 20.7441 152.759 21.2506C152.759 21.2506 161.61 24.9751 167.117 29.7773Z" fill="url(#paint2_linear_1574_9271)"/>
<path d="M74.345 29.6598C69.1696 34.5422 65.1197 36.4647 64.1896 37.7259C62.5004 32.6583 63.0634 2.37464 66.4876 2.07588C70.3833 1.73597 81.9234 12.6615 87.839 20.9894C88.1683 21.453 87.5162 20.4747 87.839 20.9894C87.839 20.9894 79.5203 24.7774 74.345 29.6598Z" fill="url(#paint3_linear_1574_9271)"/>
<path d="M73.7092 48.9956C71.2446 49.315 71.5514 61.4097 70.011 63.2008C68.4707 64.9919 58.0853 67.524 57.9965 69.9945C57.9077 72.4651 67.4229 76.1707 68.4707 78.0235C69.5185 79.8764 68.6862 89.629 71.5643 90.3758C74.4423 91.1226 80.3263 80.4038 82.2542 79.8237C84.1821 79.2436 95.4111 84.7506 97.1209 82.7018C98.8306 80.6529 92.4184 73.0827 92.1918 71.2298C91.9652 69.3769 98.2184 61.348 97.1209 59.4951C96.0233 57.6422 86.0305 59.4115 84.1821 58.5687C82.3337 57.7259 76.1737 48.6762 73.7092 48.9956Z" fill="#C3AEE6"/>
<path d="M99.0995 92.9063C99.0995 100.992 93.8055 106.983 87.2751 106.983C80.7447 106.983 74.8877 100.992 74.8877 92.9063C74.8877 84.821 80.7447 78.2666 87.2751 78.2666C93.8055 78.2666 99.0995 84.821 99.0995 92.9063Z" fill="#040311"/>
<path d="M87.2752 87.8385C86.3104 90.4814 83.2483 92.0079 81.0815 91.2169C78.9147 90.4259 77.8647 87.666 78.8294 85.0231C79.7942 82.3802 82.8562 80.8537 85.023 81.6447C87.1898 82.4356 88.24 85.1956 87.2752 87.8385Z" fill="#FAFAF9"/>
<path d="M165.541 92.9063C165.541 100.992 159.684 106.983 153.154 106.983C146.623 106.983 140.766 100.992 140.766 92.9063C140.766 84.821 146.623 78.2666 153.154 78.2666C159.684 78.2666 165.541 84.821 165.541 92.9063Z" fill="#040311"/>
<path d="M153.194 88.3102C152.23 90.9531 149.167 92.4795 147.001 91.6886C144.834 90.8976 143.784 88.1377 144.749 85.4948C145.713 82.8519 148.775 81.3254 150.942 82.1164C153.109 82.9073 154.159 85.6673 153.194 88.3102Z" fill="#FAFAF9"/>
<path fill-rule="evenodd" clip-rule="evenodd" d="M118.632 104.944C117.537 104.101 115.82 103.605 115.991 102.479C116.163 101.353 117.661 100.755 119.453 100.789C120.911 100.818 122.554 101.353 122.748 102.479C122.943 103.605 121.317 104.101 120.496 104.944C119.933 109.235 126.432 110.901 127.253 110.925C136.831 111.206 134.893 106.142 136.262 108.109C137.273 109.563 136.473 110.645 134.01 111.488C133.462 114.298 131.437 117.154 130.068 117.118C128.7 117.083 127.394 112.251 126.847 112.251C124.096 112.251 120 109.721 119.453 109.721C118.905 109.721 115.271 112.622 112.535 112.622C111.987 113.184 110.329 117.118 109.235 117.118C108.14 117.118 107.335 115.432 105.693 111.779C104.325 111.217 101.548 110.359 103.041 108.672C105.533 105.857 102.174 110.925 110.924 110.925C111.745 110.925 119.37 109.798 118.632 104.944ZM132.32 112.614C132.32 112.051 129.266 112.289 128.942 112.614C128.618 112.938 129.384 115.992 130.068 115.992C130.752 115.992 132.32 113.177 132.32 112.614ZM110.889 112.844C110.302 112.613 108.017 112.394 107.687 112.619C107.288 112.844 108.564 115.991 109.248 115.991C109.932 115.991 111.171 112.955 110.889 112.844Z" fill="black"/>
<path d="M128.942 112.614C129.266 112.289 132.32 112.051 132.32 112.614C132.32 113.177 130.752 115.992 130.068 115.992C129.384 115.992 128.618 112.938 128.942 112.614Z" fill="white"/>
<path d="M107.687 112.619C108.017 112.394 110.302 112.613 110.889 112.844C111.171 112.955 109.932 115.991 109.248 115.991C108.564 115.991 107.288 112.844 107.687 112.619Z" fill="white"/>
<path d="M243.86 28.4239C211.202 72.3429 187.554 103.312 153.77 147.794C152.706 149.194 152.038 152.11 153.207 153.424C154.521 154.904 157.689 153.91 158.837 152.298C196.563 99.3702 212.891 76.2844 246.112 30.1131C246.626 29.3992 246.795 28.4155 246.112 27.8609C245.409 27.2891 244.401 27.6964 243.86 28.4239Z" fill="#563F66" stroke="#1C1135" stroke-width="1.12613" stroke-linecap="round"/>
<g filter="url(#filter5_i_1574_9271)">
<circle cx="168.92" cy="134.01" r="14.0766" fill="#A289CB"/>
</g>
<circle cx="168.92" cy="134.01" r="13.5135" stroke="black" stroke-width="1.12613"/>
<path fill-rule="evenodd" clip-rule="evenodd" d="M79.7206 68.5516C89.2601 68.2551 101.857 69.3403 108.948 76.5816C111.186 78.8655 113.597 80.564 116.783 81.1461C120.755 81.9063 124.858 80.8301 127.945 78.2182C128.401 77.83 128.936 77.332 129.502 76.8043C130.666 75.72 131.965 74.5098 132.997 73.8657C143.314 67.4262 159.697 67.6241 171.372 69.9021C171.849 70.0545 172.439 70.2093 173.065 70.3736C174.411 70.7268 175.923 71.1239 176.842 71.635C181.188 74.0555 184.717 74.763 189.637 75.2835C191.978 75.5312 193.914 76.8248 192.815 79.5783C191.423 83.0656 189.873 86.504 188.323 89.9441C186.49 94.0118 184.656 98.0822 183.079 102.24C180.66 108.687 176.922 114.239 170.398 116.957C163.344 120.109 151.48 120.454 144.333 117.651C135.926 114.099 132.22 107.405 128.792 99.2464C128.625 98.8494 128.461 98.45 128.297 98.0513C126.167 92.8634 124.088 87.8 116.539 89.9028C113.068 90.8693 111.417 95.2124 110.128 98.6016C109.955 99.0554 109.789 99.492 109.626 99.9012C105.148 111.141 97.9456 119.433 84.9295 119.404C75.5727 120.087 64.8749 117.965 59.3477 109.598C57.3005 106.497 55.738 102.641 54.2133 98.878C53.5866 97.3313 52.9664 95.8005 52.3214 94.3443L48.0552 84.7111C47.9405 84.4518 47.7823 84.122 47.601 83.7442C46.614 81.6871 44.9434 78.2051 45.8882 76.9088C47.0324 75.3395 49.7716 75.06 52.3011 74.8018C53.6509 74.6641 54.941 74.5324 55.8972 74.2141C57.2728 73.7563 58.4576 73.19 59.6576 72.6164C60.5073 72.2102 61.3646 71.8005 62.3026 71.423C67.9863 69.2567 73.7291 68.7483 79.7206 68.5516ZM80.8928 71.334C90.7019 70.8394 109.445 73.5308 110.725 85.9115C111.33 91.7625 104.546 105.062 100.734 109.823C97.3873 114.001 91.4097 116.227 86.1069 116.505C85.6756 116.545 85.2443 116.575 84.8112 116.594C77.8719 116.892 70.2438 116.368 64.4471 111.205C56.652 104.263 52.3284 84.9548 59.3739 76.4587C62.854 72.2622 75.4161 71.4978 80.8928 71.334ZM155.028 71.3044C154.755 71.31 154.48 71.3188 154.205 71.3314C146.21 71.6241 136.917 72.981 131.161 79.1C129.095 81.2967 127.839 83.8815 127.961 86.9604C128.202 92.994 134.775 107.099 139.347 111.212C144.582 115.919 150.168 116.568 156.913 116.668C163.157 116.637 169.727 115.555 174.799 110.7C182.067 103.74 186.33 84.6327 179.333 76.447C175.538 72.0082 161.235 71.1719 155.028 71.3044Z" fill="#1C1135"/>
<defs>
<filter id="filter0_f_1574_9271" x="39.6201" y="121.62" width="163.109" height="57.1372" filterUnits="userSpaceOnUse" color-interpolation-filters="sRGB">
<feFlood flood-opacity="0" result="BackgroundImageFix"/>
<feBlend mode="normal" in="SourceGraphic" in2="BackgroundImageFix" result="shape"/>
<feGaussianBlur stdDeviation="9.97156" result="effect1_foregroundBlur_1574_9271"/>
</filter>
<filter id="filter1_i_1574_9271" x="46.1714" y="-7.8829" width="146.594" height="156.616" filterUnits="userSpaceOnUse" color-interpolation-filters="sRGB">
<feFlood flood-opacity="0" result="BackgroundImageFix"/>
<feBlend mode="normal" in="SourceGraphic" in2="BackgroundImageFix" result="shape"/>
<feColorMatrix in="SourceAlpha" type="matrix" values="0 0 0 0 0 0 0 0 0 0 0 0 0 0 0 0 0 0 127 0" result="hardAlpha"/>
<feOffset dy="-7.8829"/>
<feGaussianBlur stdDeviation="5.63064"/>
<feComposite in2="hardAlpha" operator="arithmetic" k2="-1" k3="1"/>
<feColorMatrix type="matrix" values="0 0 0 0 0.380392 0 0 0 0 0.25098 0 0 0 0 0.607843 0 0 0 0.38 0"/>
<feBlend mode="normal" in2="shape" result="effect1_innerShadow_1574_9271"/>
</filter>
<filter id="filter2_f_1574_9271" x="155.969" y="96.2845" width="22.5225" height="22.5227" filterUnits="userSpaceOnUse" color-interpolation-filters="sRGB">
<feFlood flood-opacity="0" result="BackgroundImageFix"/>
<feBlend mode="normal" in="SourceGraphic" in2="BackgroundImageFix" result="shape"/>
<feGaussianBlur stdDeviation="2.25226" result="effect1_foregroundBlur_1574_9271"/>
</filter>
<filter id="filter3_f_1574_9271" x="62.5004" y="96.2845" width="22.5225" height="22.5227" filterUnits="userSpaceOnUse" color-interpolation-filters="sRGB">
<feFlood flood-opacity="0" result="BackgroundImageFix"/>
<feBlend mode="normal" in="SourceGraphic" in2="BackgroundImageFix" result="shape"/>
<feGaussianBlur stdDeviation="2.25226" result="effect1_foregroundBlur_1574_9271"/>
</filter>
<filter id="filter4_i_1574_9271" x="46.1714" y="-7.8829" width="146.594" height="156.616" filterUnits="userSpaceOnUse" color-interpolation-filters="sRGB">
<feFlood flood-opacity="0" result="BackgroundImageFix"/>
<feBlend mode="normal" in="SourceGraphic" in2="BackgroundImageFix" result="shape"/>
<feColorMatrix in="SourceAlpha" type="matrix" values="0 0 0 0 0 0 0 0 0 0 0 0 0 0 0 0 0 0 127 0" result="hardAlpha"/>
<feOffset dy="-7.8829"/>
<feGaussianBlur stdDeviation="5.63064"/>
<feComposite in2="hardAlpha" operator="arithmetic" k2="-1" k3="1"/>
<feColorMatrix type="matrix" values="0 0 0 0 0.380392 0 0 0 0 0.25098 0 0 0 0 0.607843 0 0 0 0.38 0"/>
<feBlend mode="normal" in2="shape" result="effect1_innerShadow_1574_9271"/>
</filter>
<filter id="filter5_i_1574_9271" x="154.843" y="116.555" width="28.1533" height="31.5317" filterUnits="userSpaceOnUse" color-interpolation-filters="sRGB">
<feFlood flood-opacity="0" result="BackgroundImageFix"/>
<feBlend mode="normal" in="SourceGraphic" in2="BackgroundImageFix" result="shape"/>
<feColorMatrix in="SourceAlpha" type="matrix" values="0 0 0 0 0 0 0 0 0 0 0 0 0 0 0 0 0 0 127 0" result="hardAlpha"/>
<feOffset dy="-3.37839"/>
<feGaussianBlur stdDeviation="2.25226"/>
<feComposite in2="hardAlpha" operator="arithmetic" k2="-1" k3="1"/>
<feColorMatrix type="matrix" values="0 0 0 0 0.556863 0 0 0 0 0.447059 0 0 0 0 0.737255 0 0 0 1 0"/>
<feBlend mode="normal" in2="shape" result="effect1_innerShadow_1574_9271"/>
</filter>
<linearGradient id="paint0_linear_1574_9271" x1="178.386" y1="0.310474" x2="155.003" y2="37.4562" gradientUnits="userSpaceOnUse">
<stop offset="0.137215" stop-color="#543291"/>
<stop offset="0.401763" stop-color="#A087CA"/>
<stop offset="1" stop-color="#A087CA"/>
</linearGradient>
<linearGradient id="paint1_linear_1574_9271" x1="63.7632" y1="-0.287159" x2="88.2855" y2="35.718" gradientUnits="userSpaceOnUse">
<stop offset="0.137215" stop-color="#543291"/>
<stop offset="0.401763" stop-color="#A087CA"/>
<stop offset="1" stop-color="#A087CA"/>
</linearGradient>
<linearGradient id="paint2_linear_1574_9271" x1="178.386" y1="0.310474" x2="155.003" y2="37.4562" gradientUnits="userSpaceOnUse">
<stop offset="0.137215" stop-color="#543291"/>
<stop offset="0.401763" stop-color="#A087CA"/>
<stop offset="1" stop-color="#A087CA"/>
</linearGradient>
<linearGradient id="paint3_linear_1574_9271" x1="63.7632" y1="-0.287159" x2="88.2855" y2="35.718" gradientUnits="userSpaceOnUse">
<stop offset="0.137215" stop-color="#543291"/>
<stop offset="0.401763" stop-color="#A087CA"/>
<stop offset="1" stop-color="#A087CA"/>
</linearGradient>
</defs>
</svg>
