<svg width="86" height="91" viewBox="0 0 86 91" fill="none" xmlns="http://www.w3.org/2000/svg">
<path d="M29.1817 8.10163C31.0682 6.76162 32.8439 5.16227 34.686 3.74862C35.5218 3.10726 36.4084 2.31531 37.275 1.73888C39.4537 0.276389 42.1105 -0.294418 44.6978 0.144143C47.0942 0.54229 48.5451 1.57705 50.3614 3.03582L52.5771 4.80539L55.3499 7.04457C55.7316 7.34659 56.4355 7.84093 56.7644 8.12666C56.9902 8.26772 58.8751 8.22289 59.2577 8.22217L66.5065 8.21886C67.6357 8.21809 69.8432 8.12325 70.8515 8.34669C72.571 8.72773 74.2851 9.99476 75.0446 11.6422C75.303 12.2005 75.4752 12.7946 75.5562 13.4044C75.7307 14.7058 75.5706 23.0802 75.735 23.365C76.3392 23.8019 76.9687 24.3086 77.5374 24.7956C80.456 27.294 83.7285 28.942 85.2441 32.6903C86.0578 34.3522 85.924 36.8123 85.9226 38.6512L85.9221 43.6108L85.9216 59.0001L85.9192 73.4876L85.9235 78.0738C85.9264 80.0196 86.0357 81.2063 85.3923 83.0925C84.5119 85.7143 82.6055 87.8667 80.1093 89.0573C77.5782 90.2881 75.104 90.0723 72.3902 90.0719L65.8012 90.0733L45.2396 90.0747L21.6151 90.0743L14.0337 90.0767C12.7566 90.0771 11.1647 90.1198 9.90722 90.0604C8.84628 90.0162 7.7979 89.8139 6.79674 89.46C4.5124 88.6665 2.22931 86.7275 1.12377 84.5339C1.10224 84.4912 1.09236 84.4591 1.07736 84.4159C0.534871 83.5308 0.0684323 81.7088 0.0271011 80.6731C-0.0109696 79.718 0.00566874 78.6919 0.00576464 77.7291L0.00758639 72.5032L0.00773052 56.4397L0.00749055 42.3778L0.00442173 37.9079C0.00355867 35.8555 -0.102982 34.4084 0.782474 32.4557C1.91573 30.05 2.93736 29.1495 4.94801 27.5415L7.58486 25.4443C8.32786 24.8565 9.45321 23.8771 10.2137 23.3881C10.3226 23.1163 10.2698 21.9018 10.2697 21.5209L10.2725 16.9202C10.2725 15.8124 10.2321 14.2499 10.4215 13.1881C10.5623 12.3943 10.8491 11.6336 11.2674 10.9444C11.9536 9.83509 13.5754 8.71143 14.8059 8.41943C16.1202 8.10753 18.3584 8.21824 19.7768 8.21838L26.0947 8.22255C26.8843 8.22715 28.4668 8.29064 29.1817 8.10163Z" fill="#ECF0F1"/>
<g filter="url(#filter0_i_2324_4198)">
<path d="M0.782474 32.4434C1.07937 32.8134 2.06048 33.5562 2.48319 33.8962L5.73066 36.5024L8.8902 39.033C9.21145 39.286 9.78165 39.7867 10.1043 39.9829L10.2086 39.9868L10.2466 39.9501C10.278 40.1347 10.3461 40.2167 10.4949 40.3382C11.9637 41.5372 13.4668 42.7057 14.9426 43.8963L25.1413 52.065L30.6934 56.545C31.4139 57.1227 32.1362 57.7687 32.8796 58.2977C32.9706 58.3627 33.0627 58.4262 33.1558 58.4883C31.9457 59.5131 30.6416 60.5115 29.4027 61.5084L22.7917 66.8207L7.4544 79.1513C6.61468 79.8247 1.35416 84.2133 1.047 84.3158C1.03286 84.4886 1.10507 84.4342 1.07736 84.6075C0.534871 83.7189 0.0684323 81.8897 0.0271011 80.85C-0.0109696 79.8911 0.00566874 78.861 0.00576464 77.8944L0.00758639 72.6481L0.00773052 56.5214L0.00749055 42.4043L0.00442173 37.917C0.00355867 35.8565 -0.102982 34.4037 0.782474 32.4434Z" fill="url(#paint0_linear_2324_4198)"/>
</g>
<g filter="url(#filter1_i_2324_4198)">
<path d="M85.2175 32.6357C84.9206 33.0023 83.9395 33.7381 83.5168 34.0749L80.2693 36.6566L77.1098 39.1632C76.7886 39.4139 76.2184 39.9099 75.8957 40.1042L75.7914 40.1081L75.7535 40.0717C75.722 40.2546 75.6539 40.3359 75.5051 40.4562C74.0363 41.6438 72.5332 42.8014 71.0574 43.9807L60.8587 52.0724L55.3066 56.5103C54.5861 57.0824 53.8638 57.7223 53.1204 58.2464C53.0294 58.3107 52.9373 58.3737 52.8442 58.4352C54.0543 59.4504 55.3584 60.4393 56.5973 61.4268L63.2083 66.6891L78.5456 78.9034C79.3853 79.5705 84.6458 83.9177 84.953 84.0193C84.9671 84.1905 84.8949 84.1366 84.9227 84.3082C85.4651 83.428 85.9316 81.6161 85.9729 80.5861C86.011 79.6363 85.9943 78.6159 85.9942 77.6584L85.9924 72.4615L85.9923 56.4869L85.9925 42.5028L85.9956 38.0578C85.9964 36.0167 86.103 34.5776 85.2175 32.6357Z" fill="url(#paint1_linear_2324_4198)"/>
</g>
<path d="M29.1819 8.10163C31.0684 6.76162 32.8442 5.16227 34.6862 3.74862C35.522 3.10726 36.4087 2.31531 37.2752 1.73888C39.4539 0.276389 42.1107 -0.294418 44.698 0.144143C47.0945 0.542289 48.5454 1.57705 50.3616 3.03582L52.5773 4.80539L55.3501 7.04456C55.7318 7.34659 56.4357 7.84093 56.7646 8.12666C56.3604 8.19043 55.5635 8.1783 55.144 8.17897L52.7101 8.17887L44.1083 8.17681L33.5628 8.17767C32.9014 8.17772 29.6176 8.22226 29.1819 8.10163Z" fill="#FE9001"/>
<path d="M10.2137 23.3877C10.3048 24.214 10.2469 25.4504 10.2396 26.3153L10.2371 30.7607L10.2409 36.9847C10.2418 37.7644 10.2948 39.2059 10.2466 39.9327L10.2086 39.9693L10.1043 39.9653C9.78165 39.7699 9.21145 39.2712 8.8902 39.0191L5.73066 36.4985L2.48319 33.9024C2.06048 33.5638 1.07936 32.8239 0.782471 32.4553C1.91572 30.0496 2.93735 29.149 4.948 27.5411L7.58486 25.4439C8.32786 24.8561 9.4532 23.8767 10.2137 23.3877Z" fill="#FE9001"/>
<path d="M75.7351 23.3647C76.3392 23.8017 76.9688 24.3084 77.5374 24.7953C80.456 27.2938 83.7285 28.9417 85.2441 32.6901C84.394 33.4024 80.75 36.3145 80.75 36.3145C80.75 36.3145 78.3502 38.3578 77.2023 39.1424C76.9683 39.3205 75.9668 40.1424 75.7786 40.211C75.7008 40.0011 75.7272 39.8689 75.6799 39.6627L75.7044 28.5895C75.7087 27.6992 75.7058 26.8089 75.6962 25.9186C75.6833 25.0263 75.6373 24.2584 75.7351 23.3647Z" fill="#FE9001"/>
<path d="M42.6399 14.3401C42.7013 14.3378 42.7621 14.3367 42.823 14.3369C51.9164 14.3666 59.1997 21.4001 59.3196 30.565C59.3483 32.7669 58.4666 34.9012 56.8848 36.4398C55.278 38.0188 53.106 38.8884 50.8539 38.854C49.2092 38.8318 47.6433 38.1461 46.5122 36.9525C45.9449 37.4606 45.3063 37.8818 44.6158 38.2025C42.9338 38.9732 40.9258 39.0875 39.1894 38.4311C37.4678 37.791 36.0774 36.4831 35.3334 34.8038C34.4767 32.8713 34.6193 30.6685 35.3683 28.7261C36.314 26.301 38.1844 24.3509 40.5678 23.3046C43.6036 21.9763 48.7005 21.8158 49.2433 26.0604C49.3334 26.7655 49.2558 27.6636 49.2203 28.3827L49.0563 31.5498C49.0203 32.2351 48.9172 33.0328 49.2073 33.6721C49.8532 35.1492 51.7534 34.8974 52.9219 34.2853C54.8393 33.2805 55.4271 31.643 55.1783 29.577C54.9496 27.6758 54.578 26.3538 53.6559 24.6957C52.0113 21.7385 49.3272 19.7372 46.1195 18.8123C44.6686 18.4374 43.1625 18.3257 41.6722 18.4828C38.5059 18.8268 35.4398 20.4459 33.4465 22.9363C31.339 25.5292 30.3797 28.8692 30.79 32.1853C31.1939 35.4347 32.8812 38.3873 35.4757 40.3847C38.8097 42.9682 43.2392 43.6527 47.1978 42.1961C47.5632 42.0623 47.9218 41.9113 48.2733 41.7435C48.8247 41.4743 49.577 40.9688 50.1639 40.9297C51.352 40.8506 52.3254 41.7114 52.3681 42.8958C52.4179 44.2767 51.2883 44.8305 50.2531 45.3392C48.2647 46.3341 46.0912 46.9056 43.8702 47.0178C39.3007 47.2072 35.2286 45.7933 31.8538 42.6816C28.6835 39.7484 26.8033 35.6795 26.6239 31.3641C26.4457 26.9908 28.0274 22.7284 31.0154 19.5301C34.1075 16.2102 38.1334 14.5022 42.6399 14.3401Z" fill="#337CEC"/>
<path d="M44.0555 26.6135C44.4056 26.5768 44.8635 26.5879 45.2231 26.5865C45.1766 27.7369 45.12 28.8869 45.0538 30.0363C45.0102 30.8119 45.0092 31.7966 44.7618 32.5194C44.3763 33.6466 43.3286 34.4886 42.1741 34.7204C41.5081 34.854 41.0648 34.741 40.457 34.5247C40.2115 34.4059 40.0726 34.3301 39.8589 34.1574C39.2819 33.6976 38.9138 33.0253 38.8371 32.2915C38.7152 31.083 39.3034 29.5441 40.097 28.6507C41.2361 27.3682 42.3783 26.7554 44.0555 26.6135Z" fill="#E5E6E6"/>
<path d="M71.9273 90.1725C75.3796 90.1725 77.6811 90.3643 80.7498 88.83C82.9807 87.7145 85.4487 84.191 85.161 83.9393C84.2842 83.1721 52.844 58.335 52.844 58.335C52.844 58.335 47.6656 53.4443 42.7749 53.4443C37.8842 53.4443 36.0356 56.156 32.8832 58.3434C31.673 59.3642 30.3689 60.3586 29.13 61.3516L22.519 66.6432L7.18171 78.9255C6.342 79.5963 1.08147 83.9678 0.774317 84.0699C0.760173 84.242 0.832385 84.1879 0.804671 84.3605C0.819679 84.4036 0.829557 84.4357 0.851086 84.4784C1.95662 86.672 4.23971 88.6111 6.52406 89.4046C7.52521 89.7584 8.5736 89.9608 9.63454 90.0049C10.892 90.0644 12.484 90.0217 13.761 90.0212L21.3424 90.0188L44.9669 90.0193L65.5285 90.0178C65.5285 90.0178 69.3534 90.1725 71.9273 90.1725Z" fill="url(#paint2_linear_2324_4198)"/>
<defs>
<filter id="filter0_i_2324_4198" x="0" y="32.0598" width="33.1558" height="52.5476" filterUnits="userSpaceOnUse" color-interpolation-filters="sRGB">
<feFlood flood-opacity="0" result="BackgroundImageFix"/>
<feBlend mode="normal" in="SourceGraphic" in2="BackgroundImageFix" result="shape"/>
<feColorMatrix in="SourceAlpha" type="matrix" values="0 0 0 0 0 0 0 0 0 0 0 0 0 0 0 0 0 0 127 0" result="hardAlpha"/>
<feOffset dy="-0.383584"/>
<feGaussianBlur stdDeviation="0.958961"/>
<feComposite in2="hardAlpha" operator="arithmetic" k2="-1" k3="1"/>
<feColorMatrix type="matrix" values="0 0 0 0 0.923077 0 0 0 0 0.662852 0 0 0 0 0.0701183 0 0 0 1 0"/>
<feBlend mode="normal" in2="shape" result="effect1_innerShadow_2324_4198"/>
</filter>
<filter id="filter1_i_2324_4198" x="52.8442" y="32.2522" width="33.1558" height="52.0559" filterUnits="userSpaceOnUse" color-interpolation-filters="sRGB">
<feFlood flood-opacity="0" result="BackgroundImageFix"/>
<feBlend mode="normal" in="SourceGraphic" in2="BackgroundImageFix" result="shape"/>
<feColorMatrix in="SourceAlpha" type="matrix" values="0 0 0 0 0 0 0 0 0 0 0 0 0 0 0 0 0 0 127 0" result="hardAlpha"/>
<feOffset dy="-0.383584"/>
<feGaussianBlur stdDeviation="0.958961"/>
<feComposite in2="hardAlpha" operator="arithmetic" k2="-1" k3="1"/>
<feColorMatrix type="matrix" values="0 0 0 0 0.934615 0 0 0 0 0.590249 0 0 0 0 0.0961574 0 0 0 1 0"/>
<feBlend mode="normal" in2="shape" result="effect1_innerShadow_2324_4198"/>
</filter>
<linearGradient id="paint0_linear_2324_4198" x1="16.5779" y1="32.6473" x2="16.5779" y2="84.6075" gradientUnits="userSpaceOnUse">
<stop stop-color="#F9BB08"/>
<stop offset="1" stop-color="#F8AC0D"/>
</linearGradient>
<linearGradient id="paint1_linear_2324_4198" x1="69.518" y1="32.3481" x2="69.518" y2="84.3082" gradientUnits="userSpaceOnUse">
<stop stop-color="#F7A211"/>
<stop offset="1" stop-color="#F59815"/>
</linearGradient>
<linearGradient id="paint2_linear_2324_4198" x1="28.4864" y1="63.1298" x2="51.8851" y2="86.6244" gradientUnits="userSpaceOnUse">
<stop stop-color="#FECA03"/>
<stop offset="1" stop-color="#F8AB0F"/>
</linearGradient>
</defs>
</svg>
