<svg width="99" height="95" viewBox="0 0 99 95" fill="none" xmlns="http://www.w3.org/2000/svg">
<circle cx="51.4287" cy="53.8379" r="40.9824" fill="#ECE6F7"/>
<g filter="url(#filter0_f_1803_8732)">
<ellipse cx="20.9051" cy="79.8013" rx="14.9051" ry="2.98101" fill="#493756" fill-opacity="0.2"/>
</g>
<path d="M21.6563 41.1845C23.5306 39.9995 25.4837 38.4836 27.7996 39.2621C30.0576 40.0211 31.9978 41.8487 33.0881 43.9491C33.7341 45.1936 34.234 46.5879 34.6402 47.9246C35.1036 49.5603 35.1984 51.2843 35.435 52.9646C35.5919 54.0801 36.2643 55.847 36.5627 57.0524C36.5772 57.1108 36.5442 57.1658 36.5442 57.1658C36.2643 57.9637 35.8661 59.2708 35.8626 60.1486C35.8501 63.2796 36.3276 67.154 35.3778 70.1473C34.1176 74.1191 31.1748 76.6671 27.2555 77.78C23.7983 78.7618 20.6492 79.3255 17.1466 78.1575C11.0512 76.481 7.57123 71.8785 3.55435 67.3854C2.31815 66.0675 -0.74117 64.0301 0.165365 61.8699C0.812345 60.3283 2.7564 58.3904 3.65952 56.9018C4.14146 56.1075 4.51804 55.1972 4.98502 54.4068C6.37782 51.9155 7.70241 49.3695 9.12776 46.9048C10.6907 44.202 12.0604 42.2754 14.9802 40.8601C17.0994 39.8328 19.5425 40.4052 21.6563 41.1845Z" fill="#FCA7AF"/>
<path d="M28.963 50.7803L29.1164 50.7754C30.2106 51.9007 30.938 54.3774 31.9524 55.6935C32.1101 55.8981 32.2567 56.2265 32.4319 56.4468C32.5139 56.55 33.2216 57.4772 33.1953 57.5161C31.9679 59.3308 31.9828 61.6708 31.039 63.6117C30.5372 64.9728 30.2375 65.668 29.1824 66.6599C28.4284 67.9672 24.9865 68.9687 23.5565 69.2467C18.6258 69.1009 16.5473 69.1086 12.1021 66.4725C11.5644 66.1536 10.3973 65.765 9.93325 65.3273C9.2492 65.001 8.08492 64.4496 7.47832 64.0576C6.52106 63.4184 5.62206 63.1458 4.51533 62.9153C4.28481 62.7866 4.35271 62.8656 4.2605 62.6184C4.40926 62.3568 4.85103 62.1859 5.1366 62.0457C5.92059 61.7871 6.56847 61.2392 7.21626 60.7936C9.57104 59.1739 11.6308 56.9947 13.446 54.8C13.7872 54.3875 14.0087 54.1528 14.5483 54.1194C14.9594 54.1785 15.3595 54.2523 15.7744 54.2257C17.5627 54.2995 19.28 54.2245 20.993 53.5894C21.5036 53.4002 21.9562 52.9341 22.4451 52.8601C23.7524 53.3243 26.3519 52.4668 27.4466 51.6669C28.1108 51.5934 28.5673 51.3027 28.963 50.7803Z" fill="#6A2C47"/>
<path d="M16.3975 61.7985L16.4934 61.7863C17.3368 61.6714 18.1514 61.1642 18.9369 60.8543C21.0065 60.0375 24.5216 60.4902 26.202 62.0368C27.7093 62.7228 29.1215 64.6182 29.2925 66.2783C29.2078 66.4251 29.1963 66.4907 29.1824 66.66C28.4283 67.9673 24.9864 68.9688 23.5564 69.2468C18.6258 69.101 16.5472 69.1087 12.1021 66.4726C11.5644 66.1537 10.3973 65.7651 9.9332 65.3274C9.24915 65.0011 8.08487 64.4497 7.47827 64.0577C8.94349 62.1963 14.0679 61.1292 16.3975 61.7985Z" fill="#DA7683"/>
<path d="M16.3975 61.7985L16.4934 61.7863C17.3367 61.6714 18.1514 61.1642 18.9369 60.8543C21.0065 60.0375 24.5216 60.4902 26.202 62.0368C26.3649 62.5668 26.6793 62.3671 26.9219 62.9255C26.8099 62.9437 25.3497 62.4285 25.1234 62.3184C25.2279 62.6627 25.5645 62.9285 25.8601 63.1096C25.4626 63.084 25.0582 62.911 24.6632 62.8629C23.6095 62.7346 21.4296 62.6451 21.512 64.1678C21.3073 64.3923 21.2614 64.4069 20.9577 64.2626C19.926 63.7725 18.1107 62.2806 16.9878 62.2718C16.9663 62.0996 16.937 62.0586 16.8636 61.9071L16.3975 61.7985Z" fill="#B75767"/>
<path d="M7.47827 64.0558C8.94349 62.1944 14.0679 61.1272 16.3975 61.7965L16.8636 61.9052C16.937 62.0567 16.9663 62.0976 16.9878 62.2698C16.3782 62.2696 15.1426 61.479 14.2028 61.8491C13.8159 62.0015 12.2901 62.6699 12.0952 62.9876L12.0218 62.9742C12.0142 62.9768 15.0057 62.1404 14.7545 62.135C13.7229 62.9775 12.3096 63.479 11.0143 63.3931C10.3635 63.35 10.2392 63.4826 9.72347 63.864L9.58284 63.8495L9.57993 63.7216L10.0082 63.3809L9.97961 63.3233C9.53011 63.3305 8.71638 63.9727 8.48817 64.3579C8.97654 64.628 9.46763 64.8932 9.96143 65.1532L9.9332 65.3254C9.24915 64.9992 8.08487 64.4477 7.47827 64.0558Z" fill="#A34457"/>
<path d="M18.2009 50.5591C19.9766 49.3951 20.6227 49.6316 22.6184 49.3857C23.8789 49.2303 25.1468 48.4707 26.5041 48.759C27.4997 48.9705 28.518 49.8946 28.9626 50.78C28.5668 51.3024 28.1103 51.5931 27.4462 51.6666C26.3515 52.4665 23.7519 53.324 22.4447 52.8598C21.9557 52.9338 21.5032 53.3999 20.9925 53.5891C19.2795 54.2242 17.5623 54.2992 15.774 54.2255C15.3591 54.252 14.959 54.1782 14.5479 54.1191C15.6577 52.4714 16.8445 51.7296 18.2009 50.5591Z" fill="#F7F5FA"/>
<path d="M18.2009 50.5591C19.9766 49.3951 20.6227 49.6316 22.6184 49.3857C23.8789 49.2303 25.1468 48.4707 26.5041 48.759C27.4997 48.9705 28.518 49.8946 28.9626 50.78C28.5668 51.3024 28.1103 51.5931 27.4462 51.6666C27.427 50.628 27.3205 49.7361 25.9431 49.9964C22.8057 50.5895 18.6697 50.8718 16.3026 53.2266C16.0564 53.4909 15.9058 53.9368 15.7354 54.1463L15.774 54.2255C15.3591 54.252 14.959 54.1782 14.5479 54.1191C15.6577 52.4714 16.8445 51.7296 18.2009 50.5591Z" fill="#DACFD8"/>
<path d="M18.201 50.5605L18.1521 50.3753C18.3308 50.1313 19.5629 49.4518 19.9388 49.3949C20.6355 49.2894 21.4135 49.3719 22.1183 49.3279C23.9324 48.8939 25.1273 48.0546 27.0928 48.6877L27.1384 48.6166C26.3483 47.5661 23.6054 48.8013 22.6865 48.8981C22.1726 48.9522 21.216 48.4419 20.2363 48.7609C19.7677 48.9135 18.3374 49.5684 18.2294 49.5682C18.3888 49.2008 18.8662 49.0321 19.2148 48.8946C19.8114 48.6596 21.3371 48.1253 21.9289 48.3926C21.9569 48.4053 21.9844 48.4191 22.0125 48.4317C23.3882 49.0471 25.4835 46.672 29.3201 49.3385L29.4837 49.2451C31.1518 50.2104 32.1916 55.2968 34.1536 56.2754C34.803 56.5993 35.8991 56.2749 35.9737 57.1561L35.9551 57.2695C34.5377 57.3483 33.9566 57.7272 33.6236 59.254C33.6177 59.2807 33.6522 59.4157 33.6614 59.4487C33.435 59.7607 33.3615 60.0804 33.2826 60.4519C32.8681 62.4066 32.4532 62.5561 31.0387 63.6128C31.9825 61.6718 31.9676 59.3318 33.195 57.5171C33.2213 57.4782 32.5135 56.551 32.4316 56.4479C32.2564 56.2275 32.1097 55.8991 31.952 55.6945C30.9377 54.3784 30.2103 51.9017 29.1161 50.7764L28.9627 50.7813C28.5181 49.8959 27.4998 48.9718 26.5042 48.7603C25.1469 48.4721 23.879 49.2316 22.6185 49.387C20.6228 49.6329 19.9767 49.3964 18.201 50.5605Z" fill="#EB7280"/>
<path d="M33.6614 59.4469L33.7131 59.7902C34.0662 59.6202 34.2738 58.5793 34.6214 58.5156C34.8019 59.2499 33.9384 60.0287 33.6579 60.7854C33.4702 61.292 33.4783 62.5884 33.2195 62.8501C32.7069 63.3685 31.291 64.0785 30.8595 64.763C30.2078 65.7969 30.5382 67.2103 29.4315 68.0399C28.3087 68.8816 26.4341 68.8753 25.4883 69.7919C25.1844 70.0864 25.2448 70.1041 24.8651 70.1753C24.5027 70.0412 23.7442 69.5734 23.5562 69.2459C24.9861 68.9678 28.428 67.9664 29.1821 66.6591C30.2372 65.6672 30.5368 64.972 31.0387 63.6109C32.4532 62.5543 32.8681 62.4047 33.2826 60.45C33.3615 60.0786 33.435 59.7589 33.6614 59.4469Z" fill="#FB99A1"/>
<path d="M4.51493 62.9138C3.94941 63.0437 2.5996 63.1671 2.06683 62.9221L2.02686 62.779C2.61035 62.225 4.34417 61.9653 5.13619 62.0441C4.85062 62.1843 4.40886 62.3553 4.26009 62.6168C4.3523 62.864 4.2844 62.785 4.51493 62.9138Z" fill="#EB7280"/>
<g filter="url(#filter1_di_1803_8732)">
<path fill-rule="evenodd" clip-rule="evenodd" d="M42.4088 56.2971C43.4985 56.4933 44.6037 56.5912 45.711 56.5898C49.2109 56.5977 52.6412 55.6125 55.6036 53.7487C57.7407 54.2512 59.9771 54.519 62.277 54.519C76.9711 54.519 89.1968 43.5578 89.1968 29.67C89.1968 15.7821 76.9711 4.82089 62.277 4.82089C47.5829 4.82089 35.3572 15.7821 35.3572 29.67C35.3572 36.3212 38.1872 42.3347 42.7401 46.7661C43.3807 47.3901 43.5049 47.9478 43.4414 48.2653C43.1002 49.9829 42.3267 51.585 41.1939 52.9204C40.9588 53.198 40.8009 53.5327 40.7363 53.8907C40.6716 54.2487 40.7024 54.6175 40.8255 54.9598C40.9487 55.3022 41.1599 55.606 41.4378 55.8408C41.7158 56.0755 42.0507 56.2329 42.4088 56.2971Z" fill="white" fill-opacity="0.5" shape-rendering="crispEdges"/>
</g>
<path d="M55.7146 64.8838C56.1637 65.011 56.4528 65.402 56.7496 65.7472C56.8124 66.519 56.8041 67.2757 56.7887 68.0497C56.7057 72.2513 56.8516 76.4619 56.7268 80.6607C56.7022 81.4887 56.4348 81.7173 55.8246 82.2208C55.5655 82.1688 55.3286 82.0386 55.1458 81.8478C54.4184 81.0878 54.8007 76.2431 54.7813 74.9028C54.7369 71.8522 54.7339 68.7479 54.7425 65.6965C55.0156 65.4414 55.4186 65.1285 55.7146 64.8838Z" fill="#B49FE8"/>
<path d="M59.3597 68.7101C59.5845 68.6833 60.0825 68.6923 60.1306 68.9788C60.565 71.5659 60.5326 74.5954 60.1811 77.1927C60.1391 77.5031 59.6896 77.6823 59.4452 77.7891C59.0753 77.7706 58.325 77.8284 58.2675 77.3784C58.0743 75.8686 57.9027 70.2827 58.4403 69.083C58.6834 68.821 59.0056 68.7908 59.3597 68.7101Z" fill="#B49FE8"/>
<path d="M51.6872 68.894C52.1858 68.8391 52.7896 68.8245 53.1439 69.2115C53.4852 70.9998 53.351 75.6711 53.2687 77.6661C53.2505 78.1053 53.0011 78.3506 52.6659 78.5924C52.3831 78.6839 52.2296 78.7662 51.9485 78.6579C51.6047 78.3901 51.468 78.0852 51.3864 77.6693C51.1168 76.2953 51.0739 69.8712 51.6872 68.894Z" fill="#B49FE8"/>
<path d="M68.5813 19.0396C69.0932 18.9745 69.2686 18.9002 69.6727 19.1723C69.8836 19.5278 69.8344 20.2821 69.8404 20.7293C70.2372 20.7277 71.4965 20.6926 71.8055 20.7862C72.0131 21.0801 71.9426 21.1949 71.9516 21.5066C72.0817 22.3123 70.0707 21.7498 69.9103 22.1379C69.3039 23.6049 71.0613 23.1072 71.4883 23.1782C72.0623 23.2735 71.9655 23.9461 71.8522 24.2404L71.5195 24.3731L69.8048 24.4185C69.799 24.9917 69.9166 26.437 69.5055 26.7872C69.3647 26.7976 68.637 26.86 68.6103 26.6219C68.3786 24.5496 68.5395 22.3885 68.4913 20.2956C68.4832 19.9425 68.4748 19.3635 68.5813 19.0396Z" fill="#6F559C"/>
<path d="M56.9946 34.4441C57.4062 34.4249 57.836 34.4265 58.2494 34.4219C58.2486 35.71 58.3923 41.0606 58.1609 41.9838C57.9147 42.1702 57.4815 42.1683 57.2223 42.006C56.7785 41.4907 56.9481 40.017 56.9501 39.2515C56.9291 38.8999 56.983 38.9403 56.8056 38.6855C56.0571 38.4045 54.1335 38.6056 53.2622 38.6608L53.2626 37.3631C54.5479 37.3502 55.6579 37.3262 56.9386 37.2336C56.9523 36.3037 56.971 35.3738 56.9946 34.4441Z" fill="#6F559C"/>
<path d="M7.0502 22.6777C7.92218 23.1027 7.79893 24.1532 8.53672 24.7935C8.97286 25.1719 9.47118 25.3773 9.97954 25.6517C10.1147 26.1697 9.15547 26.2971 8.667 26.7313C7.93022 27.3859 7.85488 28.0312 7.38087 28.8788C6.60201 28.3159 6.56022 27.5077 5.90129 26.871C5.55193 26.5335 4.92434 26.3969 4.45937 26.0582C4.3763 25.3796 5.87919 24.9906 6.15512 24.5124C6.50297 23.9094 6.61989 23.3104 7.0502 22.6777Z" fill="#FED88C"/>
<path d="M18.7968 26.5176C19.4428 26.8324 19.3515 27.6106 19.8981 28.085C20.2212 28.3654 20.5903 28.5175 20.967 28.7208C21.0671 29.1045 20.3565 29.1989 19.9946 29.5206C19.4488 30.0055 19.3929 30.4835 19.0418 31.1115C18.4648 30.6945 18.4338 30.0958 17.9457 29.6241C17.6869 29.374 17.2219 29.2728 16.8775 29.0219C16.8159 28.5192 17.9293 28.231 18.1337 27.8767C18.3914 27.43 18.478 26.9862 18.7968 26.5176Z" fill="#FED88C"/>
<path d="M54.4881 19.0048C54.9382 19.0058 55.1034 18.9371 55.4244 19.1515C55.8122 19.7888 55.6326 21.2846 55.6498 22.1868C56.4176 22.1747 57.6782 22.0524 58.2478 22.5657C58.2658 23.3807 56.2476 23.2685 55.642 23.2766L55.6178 24.5846L55.5474 26.7452L54.3301 26.7925C54.3085 24.8914 54.2264 21.2241 54.3234 19.1808C54.3872 19.1127 54.4421 19.054 54.4881 19.0048Z" fill="#6F559C"/>
<path d="M68.7243 34.4066C69.0463 34.3709 69.2968 34.2983 69.5614 34.4553C69.9306 34.9689 69.787 36.5677 69.8637 37.437L71.9191 37.4621C71.9359 37.9841 72.0054 38.2385 71.7232 38.6366C71.3322 38.8452 70.3736 38.7502 69.8223 38.7574L69.8114 40.1528C69.8158 40.6612 69.9251 41.8091 69.5451 42.1575C69.1277 42.1942 68.8875 42.2326 68.6268 41.8693C68.5024 41.0266 68.3918 34.9042 68.7243 34.4066Z" fill="#6F559C"/>
<path d="M47.8254 71.0264C47.8965 71.0178 47.9678 71.0111 48.0392 71.0063C48.6276 70.9627 49.0511 70.9034 49.5055 71.293C49.9044 71.9382 49.6466 74.1223 49.6228 74.9207C49.6026 75.6006 49.4767 75.8828 48.9851 76.2963C46.6343 76.9401 47.2902 73.3556 47.3291 72.0251C47.3433 71.5395 47.4747 71.3298 47.8254 71.0264Z" fill="#B49FE8"/>
<path d="M63.2951 70.7881C64.7947 70.891 64.5852 72.374 64.5796 73.5224C64.5744 74.5968 64.6636 75.737 63.7119 76.3772C63.1441 76.3453 62.7684 76.2743 62.6224 75.6239C62.3352 74.3442 62.4317 72.7838 62.653 71.4942C62.721 71.0976 62.9882 70.9679 63.2951 70.7881Z" fill="#B49FE8"/>
<path d="M10.5735 34.8203C11.1043 35.6573 11.6587 36.3266 12.4732 36.8993C11.4659 37.4826 11.0853 38.0659 10.4371 39.0028C10.2035 38.8822 10.135 38.1984 9.73567 37.7156C9.23183 37.1063 9.25554 37.1374 8.59058 36.6978C9.7407 36.1066 9.92833 35.8875 10.5735 34.8203Z" fill="#FED88C"/>
<path d="M67.1848 72.7551C68.037 72.6993 68.5098 72.72 68.9672 73.5145C69.0268 74.2082 68.6627 74.3523 68.0463 74.4893C67.2278 74.4499 66.6181 74.4322 66.1487 73.6466C66.1061 72.9852 66.6238 72.8494 67.1848 72.7551Z" fill="#B49FE8"/>
<path d="M44.6824 72.7529C45.1583 72.7817 45.6517 72.9317 45.8488 73.4034C45.8589 74.1921 45.1442 74.3227 44.5424 74.4747C43.9064 74.4023 43.415 74.2868 43.2417 73.6146C43.4133 72.8701 44.0373 72.8128 44.6824 72.7529Z" fill="#B49FE8"/>
<defs>
<filter id="filter0_f_1803_8732" x="0.0379786" y="70.8583" width="41.7341" height="17.886" filterUnits="userSpaceOnUse" color-interpolation-filters="sRGB">
<feFlood flood-opacity="0" result="BackgroundImageFix"/>
<feBlend mode="normal" in="SourceGraphic" in2="BackgroundImageFix" result="shape"/>
<feGaussianBlur stdDeviation="2.98101" result="effect1_foregroundBlur_1803_8732"/>
</filter>
<filter id="filter1_di_1803_8732" x="28.9286" y="-0.000171185" width="69.9111" height="67.8401" filterUnits="userSpaceOnUse" color-interpolation-filters="sRGB">
<feFlood flood-opacity="0" result="BackgroundImageFix"/>
<feColorMatrix in="SourceAlpha" type="matrix" values="0 0 0 0 0 0 0 0 0 0 0 0 0 0 0 0 0 0 127 0" result="hardAlpha"/>
<feOffset dx="1.60715" dy="3.21431"/>
<feGaussianBlur stdDeviation="4.01788"/>
<feComposite in2="hardAlpha" operator="out"/>
<feColorMatrix type="matrix" values="0 0 0 0 0 0 0 0 0 0 0 0 0 0 0 0 0 0 0.1 0"/>
<feBlend mode="normal" in2="BackgroundImageFix" result="effect1_dropShadow_1803_8732"/>
<feBlend mode="normal" in="SourceGraphic" in2="effect1_dropShadow_1803_8732" result="shape"/>
<feColorMatrix in="SourceAlpha" type="matrix" values="0 0 0 0 0 0 0 0 0 0 0 0 0 0 0 0 0 0 127 0" result="hardAlpha"/>
<feOffset dy="0.803577"/>
<feGaussianBlur stdDeviation="1.60715"/>
<feComposite in2="hardAlpha" operator="arithmetic" k2="-1" k3="1"/>
<feColorMatrix type="matrix" values="0 0 0 0 0 0 0 0 0 0 0 0 0 0 0 0 0 0 0.1 0"/>
<feBlend mode="normal" in2="shape" result="effect2_innerShadow_1803_8732"/>
</filter>
</defs>
</svg>
