<svg width="271" height="248" viewBox="0 0 271 248" fill="none" xmlns="http://www.w3.org/2000/svg">
<g filter="url(#filter0_f_1574_10057)">
<ellipse cx="135.643" cy="199.033" rx="102.726" ry="16.5" fill="#5E3E99" fill-opacity="0.46"/>
</g>
<g filter="url(#filter1_i_1574_10057)">
<path d="M75.6058 2.01101C82.6271 2.55111 96.6687 17.9675 102.752 27.0251C102.805 26.9986 102.857 26.9725 102.909 26.9469C104.124 26.3444 104.967 25.9811 104.967 25.9811C98.2799 15.8984 80.553 -0.786972 74.9675 0.736128C70.4573 1.96598 62.2099 32.6474 60.9816 51.7964C60.5212 58.9744 60.5212 65.8389 60.5212 65.8389C64.5533 58.046 69.5723 51.8001 73.2241 47.7988C69.8611 39.6706 70.5144 1.61937 75.6058 2.01101Z" fill="black"/>
<path d="M102.752 27.0251C102.752 27.0251 104.686 30.0942 105.606 29.4559C106.525 28.8176 104.967 25.9811 104.967 25.9811C104.967 25.9811 104.124 26.3444 102.909 26.9469L102.752 27.0251Z" fill="black"/>
<path d="M209.648 39.6709C209.241 24.6592 204.186 0.734455 200.074 0.73441C190.001 0.734301 173.46 18.9947 169.436 23.7132L168.159 25.1715C168.867 25.4621 169.552 25.7603 170.208 26.0656C170.649 25.4737 171.105 24.8844 171.555 24.3515C179.648 14.777 193.555 2.19693 199.436 2.64931C203.904 2.99301 204.542 41.5855 200.074 49.0504C203.506 53.0207 206.783 57.5399 209.648 62.6494C209.648 62.6494 210.054 54.6827 209.648 39.6709Z" fill="black"/>
<path d="M168.159 25.1715C168.159 25.1715 164.819 30.0961 166.882 30.0961C167.268 30.0961 168.172 28.8533 169.262 27.3548C169.565 26.9378 169.883 26.501 170.208 26.0656C169.552 25.7603 168.867 25.4621 168.159 25.1715Z" fill="black"/>
<path d="M139.435 19.2451C124.116 19.2451 115.179 21.5131 104.967 25.9811C104.967 25.9811 106.525 28.8176 105.606 29.4559C104.686 30.0942 102.752 27.0251 102.752 27.0251C96.6687 17.9675 82.6271 2.55111 75.6058 2.01101C70.5144 1.61937 69.8611 39.6706 73.2241 47.7988C69.5723 51.8001 64.5533 58.046 60.5212 65.8389C58.3183 70.0966 56.4099 74.816 55.1801 79.8834C47.9625 109.622 58.8107 135.529 83.2652 153.926C100.37 166.794 119.649 167.969 136.244 167.969C145.819 167.969 171.081 167.33 190.042 153.281C228.797 124.564 216.583 80.1971 214.116 73.5007C213.816 72.688 213.538 71.9126 213.27 71.1646C212.167 68.085 211.231 65.472 209.648 62.6494C206.783 57.5399 203.506 53.0207 200.074 49.0504C204.542 41.5855 203.904 2.99301 199.436 2.64931C193.555 2.19693 179.648 14.777 171.555 24.3515C171.105 24.8844 170.649 25.4737 170.208 26.0656C169.883 26.501 169.565 26.9378 169.262 27.3548C168.172 28.8533 167.268 30.0961 166.882 30.0961C164.819 30.0961 168.159 25.1715 168.159 25.1715C159.544 21.6373 147.375 19.2451 139.435 19.2451Z" fill="#A289CB"/>
</g>
<path d="M175.819 29.4579C174.407 28.2622 172.477 27.1219 170.208 26.0656M104.967 25.9811C115.179 21.5131 124.116 19.2451 139.435 19.2451C147.375 19.2451 159.544 21.6373 168.159 25.1715M104.967 25.9811C98.2799 15.8984 80.553 -0.786972 74.9675 0.736128C70.4573 1.96598 62.2099 32.6474 60.9816 51.7964C60.5212 58.9744 60.5212 65.8389 60.5212 65.8389M104.967 25.9811C104.967 25.9811 106.525 28.8176 105.606 29.4559C104.686 30.0942 102.752 27.0251 102.752 27.0251M102.752 27.0251C102.805 26.9986 102.857 26.9725 102.909 26.9469C104.124 26.3444 104.967 25.9811 104.967 25.9811M209.648 62.6494C209.648 62.6494 210.054 54.6827 209.648 39.6709C209.241 24.6592 204.186 0.734455 200.074 0.73441C190.001 0.734301 173.46 18.9947 169.436 23.7132L168.159 25.1715M78.1586 42.8621C78.1586 42.8621 76.1217 44.6238 73.2241 47.7988C69.5723 51.8001 64.5533 58.046 60.5212 65.8389C58.3183 70.0966 56.4099 74.816 55.1801 79.8834C47.9625 109.622 58.8107 135.529 83.2652 153.926C100.37 166.794 119.649 167.969 136.244 167.969C145.819 167.969 171.081 167.33 190.042 153.281C228.797 124.564 216.583 80.1971 214.116 73.5007C213.816 72.6881 213.538 71.9126 213.27 71.1646C212.167 68.085 211.231 65.472 209.648 62.6494C206.783 57.5399 203.506 53.0207 200.074 49.0504C198.814 47.5928 197.533 46.2092 196.244 44.8975M96.6687 30.7344C98.5636 29.219 101.134 27.8274 102.909 26.9469M168.159 25.1715C168.159 25.1715 164.819 30.0961 166.882 30.0961C167.268 30.0961 168.172 28.8533 169.262 27.3548C169.565 26.9378 169.883 26.501 170.208 26.0656M168.159 25.1715C168.867 25.4621 169.552 25.7603 170.208 26.0656M200.074 49.0504C204.542 41.5855 203.904 2.99301 199.436 2.64931C193.555 2.19693 179.648 14.777 171.555 24.3515C171.105 24.8844 170.649 25.4737 170.208 26.0656M102.752 27.0251C96.6687 17.9675 82.6271 2.55111 75.6058 2.01101C70.5144 1.61937 69.8611 39.6706 73.2241 47.7988M102.752 27.0251L102.909 26.9469" stroke="#1C1135" stroke-width="1.2766" stroke-linecap="round"/>
<path d="M189.448 33.7545C195.69 39.1983 198.594 40.2543 199.715 41.6607C203.649 34.4233 202.897 3.30525 198.936 2.98686C193.723 2.5678 180.311 14.7983 173.172 24.0886C172.774 24.6057 173.561 23.5143 173.172 24.0886C173.172 24.0886 183.206 28.3107 189.448 33.7545Z" fill="url(#paint0_linear_1574_10057)"/>
<path d="M84.2801 33.6234C78.4132 39.1581 73.8221 41.3375 72.7678 42.7673C70.8529 37.0226 71.4912 2.69249 75.3729 2.35381C79.7891 1.96849 92.8711 14.3539 99.5771 23.7945C99.9504 24.32 99.2112 23.2109 99.5771 23.7945C99.5771 23.7945 90.147 28.0886 84.2801 33.6234Z" fill="url(#paint1_linear_1574_10057)"/>
<path d="M11.0677 100.969C6.5996 104.576 4.68476 106.076 0.85497 110.544C1.89341 111.063 4.48599 109.82 7.23792 109.906C10.269 110 12.2522 110.305 14.8975 111.182C19.3616 112.663 21.4483 114.614 25.1103 117.565C29.3669 120.996 33.4083 127.14 34.6848 127.778C34.4356 121.546 34.3166 122.402 34.0465 116.171C33.8302 113.5 33.6798 105.191 34.0465 100.969C34.419 96.6825 35.9613 92.0333 35.9613 90.7567C35.9613 89.8134 35.0044 86.9269 33.4082 86.9269C32.1315 86.9269 26.3874 89.7502 22.5571 92.0333C17.5036 95.0454 15.7632 97.1794 11.0677 100.969Z" fill="#A974D2"/>
<path d="M46.8124 98.4163C41.706 95.2248 41.0677 92.0333 39.7912 92.0333C38.5147 92.0332 37.4271 97.3833 36.3834 100.969C34.705 106.736 34.4685 110.947 34.0465 116.171C34.3166 122.402 34.4356 121.546 34.6848 127.778C35.9613 128.416 40.2506 124.288 44.2592 123.31C49.1027 122.129 52.0903 122.602 57.0252 123.31C62.1774 124.049 69.7912 127.778 69.7912 127.778C69.7912 127.778 63.6854 120.808 60.855 115.65C58.2717 110.943 55.7487 102.884 55.7487 102.884C55.7487 102.884 50.0321 100.429 46.8124 98.4163Z" fill="#A974D2"/>
<path d="M52.5572 91.395C52.5572 91.395 47.2069 88.7656 44.2593 85.6504C41.4079 82.6369 38.5147 76.7144 36.5997 76.076C34.6887 75.4388 30.1998 77.509 26.4101 79.2566L26.387 79.2673C19.458 82.4627 14.2593 86.9269 9.7912 92.0333C4.1311 98.5019 -0.421718 109.906 0.85497 110.544C4.68476 106.076 6.5996 104.576 11.0677 100.969C15.7632 97.1794 17.5036 95.0454 22.5571 92.0333C26.3874 89.7502 32.1315 86.9269 33.4082 86.9269C35.0044 86.9269 35.9613 89.8134 35.9613 90.7567C35.9613 92.0333 34.419 96.6825 34.0465 100.969C33.6798 105.191 33.8302 113.5 34.0465 116.171C34.4685 110.947 34.705 106.736 36.3834 100.969C37.4271 97.3833 38.5147 92.0332 39.7912 92.0333C41.0677 92.0333 41.706 95.2248 46.8124 98.4163C50.0321 100.429 55.7487 102.884 55.7487 102.884L52.5572 91.395Z" fill="#43277B"/>
<path d="M26.387 79.2673C19.458 82.4627 14.2593 86.9269 9.7912 92.0333C4.1311 98.5019 -0.421718 109.906 0.85497 110.544M26.387 79.2673L26.4101 79.2566M55.7487 102.884L52.5572 91.395C52.5572 91.395 47.2069 88.7656 44.2593 85.6504C41.4079 82.6369 38.5147 76.7144 36.5997 76.076C34.6887 75.4388 30.1998 77.509 26.4101 79.2566C26.4024 79.2602 26.3947 79.2638 26.387 79.2673M0.85497 110.544C4.68476 106.076 6.5996 104.576 11.0677 100.969C15.7632 97.1794 17.5036 95.0454 22.5571 92.0333C26.3874 89.7502 32.1315 86.9269 33.4082 86.9269C35.0044 86.9269 35.9613 89.8134 35.9613 90.7567C35.9613 92.0333 34.419 96.6825 34.0465 100.969C33.6798 105.191 33.8302 113.5 34.0465 116.171M0.85497 110.544C1.89341 111.063 4.48599 109.82 7.23792 109.906C10.269 110 12.2522 110.305 14.8975 111.182C19.3616 112.663 21.4483 114.614 25.1103 117.565C29.3669 120.996 33.4083 127.14 34.6848 127.778M34.0465 116.171C34.3166 122.402 34.4356 121.546 34.6848 127.778M34.0465 116.171C34.4685 110.947 34.705 106.736 36.3834 100.969C37.4271 97.3833 38.5147 92.0332 39.7912 92.0333C41.0677 92.0333 41.706 95.2248 46.8124 98.4163C50.0321 100.429 55.7487 102.884 55.7487 102.884M55.7487 102.884C55.7487 102.884 58.2717 110.943 60.855 115.65C63.6854 120.808 69.7912 127.778 69.7912 127.778C69.7912 127.778 62.1774 124.049 57.0252 123.31C52.0903 122.602 49.1027 122.129 44.2592 123.31C40.2506 124.288 35.9613 128.416 34.6848 127.778" stroke="#0D0C12" stroke-width="1.2766" stroke-linecap="round"/>
<path d="M223.622 85.6505C221.232 88.2651 216.601 91.395 216.601 91.395L214.686 100.969C214.686 100.969 217.748 99.3289 219.793 97.7777C221.759 96.2863 224.261 93.3091 224.899 93.3096C226.814 93.311 228.729 106.714 228.729 112.459C228.729 103.984 228.729 90.7569 228.729 90.7569C228.729 89.1607 229.768 87.0608 231.282 87.5654C235.112 88.8415 238.61 90.9384 243.41 94.5866C246.921 97.2551 249.238 99.117 252.346 102.246C255.205 105.125 257.452 107.991 260.005 110.544C262.559 109.906 256.861 98.4223 252.346 92.0335C250.09 88.8416 244.686 83.5327 240.857 81.1823C236.555 78.5423 231.92 76.0755 229.367 76.7143C227.337 77.2221 226.422 82.5887 223.622 85.6505Z" fill="#442679"/>
<path d="M243.41 94.5866C238.61 90.9384 235.112 88.8415 231.282 87.5654C229.768 87.0608 228.729 89.1607 228.729 90.7569C228.729 90.7569 228.729 103.984 228.729 112.459C228.729 118.841 228.091 123.31 227.452 128.416C230.644 123.31 234.701 118.842 238.303 116.288C240.218 114.931 243.803 112.347 247.878 111.182C252.346 109.905 256.176 109.906 260.005 110.544C257.452 107.991 255.205 105.125 252.346 102.246C249.238 99.117 246.921 97.2551 243.41 94.5866Z" fill="#AA74D2"/>
<path d="M228.729 112.459C228.729 106.714 226.814 93.311 224.899 93.3096C224.261 93.3091 221.759 96.2863 219.793 97.7777C217.748 99.3289 214.686 100.969 214.686 100.969L212.771 106.714C211.5 110.527 210.333 112.181 208.303 115.651C206.101 119.414 202.559 125.225 202.559 125.225C202.559 125.225 211.131 122.467 216.601 123.31C221.131 124.008 224.261 125.863 227.452 128.416C228.091 123.31 228.729 118.841 228.729 112.459Z" fill="#AA74D2"/>
<path d="M212.771 106.714C211.5 110.527 210.333 112.181 208.303 115.651C206.101 119.414 202.559 125.225 202.559 125.225C202.559 125.225 211.131 122.467 216.601 123.31C221.131 124.008 224.261 125.863 227.452 128.416C230.644 123.31 234.701 118.842 238.303 116.288C240.218 114.931 243.803 112.347 247.878 111.182C252.346 109.905 256.176 109.906 260.005 110.544C262.559 109.906 256.861 98.4223 252.346 92.0335C250.09 88.8416 244.686 83.5327 240.857 81.1823C236.555 78.5423 231.92 76.0755 229.367 76.7143C227.337 77.2221 226.422 82.5887 223.622 85.6505C221.232 88.2651 216.601 91.395 216.601 91.395L214.686 100.969M260.005 110.544C257.452 107.991 255.205 105.125 252.346 102.246C249.238 99.117 246.921 97.2551 243.41 94.5866C238.61 90.9384 235.112 88.8415 231.282 87.5654C229.768 87.0608 228.729 89.1607 228.729 90.7569M228.729 90.7569C228.729 97.1394 228.729 106.076 228.729 112.459M228.729 90.7569C228.729 90.7569 228.729 103.984 228.729 112.459M228.729 112.459C228.729 106.714 226.814 93.311 224.899 93.3096C224.261 93.3091 221.759 96.2863 219.793 97.7777C217.748 99.3289 214.686 100.969 214.686 100.969M228.729 112.459C228.729 118.841 228.091 123.31 227.452 128.416M214.686 100.969C214.686 100.969 213.575 104.302 212.771 106.714M214.686 100.969L212.771 106.714" stroke="#0D0C12" stroke-width="1.2766" stroke-linecap="round"/>
<path d="M11.0677 100.969C6.5996 104.576 4.68476 106.076 0.85497 110.544C1.89341 111.063 4.48599 109.82 7.23792 109.906C10.269 110 12.2522 110.305 14.8975 111.182C19.3616 112.663 21.4483 114.614 25.1103 117.565C29.3669 120.996 33.4083 127.14 34.6848 127.778C34.4356 121.546 34.3166 122.402 34.0465 116.171C33.8302 113.5 33.6798 105.191 34.0465 100.969C34.419 96.6825 35.9613 92.0333 35.9613 90.7567C35.9613 89.8134 35.0044 86.9269 33.4082 86.9269C32.1315 86.9269 26.3874 89.7502 22.5571 92.0333C17.5036 95.0454 15.7632 97.1794 11.0677 100.969Z" fill="#A974D2"/>
<path d="M46.8124 98.4163C41.706 95.2248 41.0677 92.0333 39.7912 92.0333C38.5147 92.0332 37.4271 97.3833 36.3834 100.969C34.705 106.736 34.4685 110.947 34.0465 116.171C34.3166 122.402 34.4356 121.546 34.6848 127.778C35.9613 128.416 40.2506 124.288 44.2592 123.31C49.1027 122.129 52.0903 122.602 57.0252 123.31C62.1774 124.049 69.7912 127.778 69.7912 127.778C69.7912 127.778 63.6854 120.808 60.855 115.65C58.2717 110.943 55.7487 102.884 55.7487 102.884C55.7487 102.884 50.0321 100.429 46.8124 98.4163Z" fill="#A974D2"/>
<path d="M52.5572 91.395C52.5572 91.395 47.2069 88.7656 44.2593 85.6504C41.4079 82.6369 38.5147 76.7144 36.5997 76.076C34.6887 75.4388 30.1998 77.509 26.4101 79.2566L26.387 79.2673C19.458 82.4627 14.2593 86.9269 9.7912 92.0333C4.1311 98.5019 -0.421718 109.906 0.85497 110.544C4.68476 106.076 6.5996 104.576 11.0677 100.969C15.7632 97.1794 17.5036 95.0454 22.5571 92.0333C26.3874 89.7502 32.1315 86.9269 33.4082 86.9269C35.0044 86.9269 35.9613 89.8134 35.9613 90.7567C35.9613 92.0333 34.419 96.6825 34.0465 100.969C33.6798 105.191 33.8302 113.5 34.0465 116.171C34.4685 110.947 34.705 106.736 36.3834 100.969C37.4271 97.3833 38.5147 92.0332 39.7912 92.0333C41.0677 92.0333 41.706 95.2248 46.8124 98.4163C50.0321 100.429 55.7487 102.884 55.7487 102.884L52.5572 91.395Z" fill="#43277B"/>
<path d="M26.387 79.2673C19.458 82.4627 14.2593 86.9269 9.7912 92.0333C4.1311 98.5019 -0.421718 109.906 0.85497 110.544M26.387 79.2673L26.4101 79.2566M55.7487 102.884L52.5572 91.395C52.5572 91.395 47.2069 88.7656 44.2593 85.6504C41.4079 82.6369 38.5147 76.7144 36.5997 76.076C34.6887 75.4388 30.1998 77.509 26.4101 79.2566C26.4024 79.2602 26.3947 79.2638 26.387 79.2673M0.85497 110.544C4.68476 106.076 6.5996 104.576 11.0677 100.969C15.7632 97.1794 17.5036 95.0454 22.5571 92.0333C26.3874 89.7502 32.1315 86.9269 33.4082 86.9269C35.0044 86.9269 35.9613 89.8134 35.9613 90.7567C35.9613 92.0333 34.419 96.6825 34.0465 100.969C33.6798 105.191 33.8302 113.5 34.0465 116.171M0.85497 110.544C1.89341 111.063 4.48599 109.82 7.23792 109.906C10.269 110 12.2522 110.305 14.8975 111.182C19.3616 112.663 21.4483 114.614 25.1103 117.565C29.3669 120.996 33.4083 127.14 34.6848 127.778M34.0465 116.171C34.3166 122.402 34.4356 121.546 34.6848 127.778M34.0465 116.171C34.4685 110.947 34.705 106.736 36.3834 100.969C37.4271 97.3833 38.5147 92.0332 39.7912 92.0333C41.0677 92.0333 41.706 95.2248 46.8124 98.4163C50.0321 100.429 55.7487 102.884 55.7487 102.884M55.7487 102.884C55.7487 102.884 58.2717 110.943 60.855 115.65C63.6854 120.808 69.7912 127.778 69.7912 127.778C69.7912 127.778 62.1774 124.049 57.0252 123.31C52.0903 122.602 49.1027 122.129 44.2592 123.31C40.2506 124.288 35.9613 128.416 34.6848 127.778" stroke="#0D0C12" stroke-width="1.2766" stroke-linecap="round"/>
<path d="M223.622 85.6505C221.232 88.2651 216.601 91.395 216.601 91.395L214.686 100.969C214.686 100.969 217.748 99.3289 219.793 97.7777C221.759 96.2863 224.261 93.3091 224.899 93.3096C226.814 93.311 228.729 106.714 228.729 112.459C228.729 103.984 228.729 90.7569 228.729 90.7569C228.729 89.1607 229.768 87.0608 231.282 87.5654C235.112 88.8415 238.61 90.9384 243.41 94.5866C246.921 97.2551 249.238 99.117 252.346 102.246C255.205 105.125 257.452 107.991 260.005 110.544C262.559 109.906 256.861 98.4223 252.346 92.0335C250.09 88.8416 244.686 83.5327 240.857 81.1823C236.555 78.5423 231.92 76.0755 229.367 76.7143C227.337 77.2221 226.422 82.5887 223.622 85.6505Z" fill="#442679"/>
<path d="M243.41 94.5866C238.61 90.9384 235.112 88.8415 231.282 87.5654C229.768 87.0608 228.729 89.1607 228.729 90.7569C228.729 90.7569 228.729 103.984 228.729 112.459C228.729 118.841 228.091 123.31 227.452 128.416C230.644 123.31 234.701 118.842 238.303 116.288C240.218 114.931 243.803 112.347 247.878 111.182C252.346 109.905 256.176 109.906 260.005 110.544C257.452 107.991 255.205 105.125 252.346 102.246C249.238 99.117 246.921 97.2551 243.41 94.5866Z" fill="#AA74D2"/>
<path d="M228.729 112.459C228.729 106.714 226.814 93.311 224.899 93.3096C224.261 93.3091 221.759 96.2863 219.793 97.7777C217.748 99.3289 214.686 100.969 214.686 100.969L212.771 106.714C211.5 110.527 210.333 112.181 208.303 115.651C206.101 119.414 202.559 125.225 202.559 125.225C202.559 125.225 211.131 122.467 216.601 123.31C221.131 124.008 224.261 125.863 227.452 128.416C228.091 123.31 228.729 118.841 228.729 112.459Z" fill="#AA74D2"/>
<path d="M212.771 106.714C211.5 110.527 210.333 112.181 208.303 115.651C206.101 119.414 202.559 125.225 202.559 125.225C202.559 125.225 211.131 122.467 216.601 123.31C221.131 124.008 224.261 125.863 227.452 128.416C230.644 123.31 234.701 118.842 238.303 116.288C240.218 114.931 243.803 112.347 247.878 111.182C252.346 109.905 256.176 109.906 260.005 110.544C262.559 109.906 256.861 98.4223 252.346 92.0335C250.09 88.8416 244.686 83.5327 240.857 81.1823C236.555 78.5423 231.92 76.0755 229.367 76.7143C227.337 77.2221 226.422 82.5887 223.622 85.6505C221.232 88.2651 216.601 91.395 216.601 91.395L214.686 100.969M260.005 110.544C257.452 107.991 255.205 105.125 252.346 102.246C249.238 99.117 246.921 97.2551 243.41 94.5866C238.61 90.9384 235.112 88.8415 231.282 87.5654C229.768 87.0608 228.729 89.1607 228.729 90.7569M228.729 90.7569C228.729 97.1394 228.729 106.076 228.729 112.459M228.729 90.7569C228.729 90.7569 228.729 103.984 228.729 112.459M228.729 112.459C228.729 106.714 226.814 93.311 224.899 93.3096C224.261 93.3091 221.759 96.2863 219.793 97.7777C217.748 99.3289 214.686 100.969 214.686 100.969M228.729 112.459C228.729 118.841 228.091 123.31 227.452 128.416M214.686 100.969C214.686 100.969 213.575 104.302 212.771 106.714M214.686 100.969L212.771 106.714" stroke="#0D0C12" stroke-width="1.2766" stroke-linecap="round"/>
<g filter="url(#filter2_i_1574_10057)">
<path d="M75.6058 2.01101C82.6271 2.55111 96.6687 17.9675 102.752 27.0251C102.805 26.9986 102.857 26.9725 102.909 26.9469C104.124 26.3444 104.967 25.9811 104.967 25.9811C98.2799 15.8984 80.553 -0.786972 74.9675 0.736128C70.4573 1.96598 62.2099 32.6474 60.9816 51.7964C60.5212 58.9744 60.5212 65.8389 60.5212 65.8389C64.5533 58.046 69.5723 51.8001 73.2241 47.7988C69.8611 39.6706 70.5144 1.61937 75.6058 2.01101Z" fill="black"/>
<path d="M102.752 27.0251C102.752 27.0251 104.686 30.0942 105.606 29.4559C106.525 28.8176 104.967 25.9811 104.967 25.9811C104.967 25.9811 104.124 26.3444 102.909 26.9469L102.752 27.0251Z" fill="black"/>
<path d="M209.648 39.6709C209.241 24.6592 204.186 0.734455 200.074 0.73441C190.001 0.734301 173.46 18.9947 169.436 23.7132L168.159 25.1715C168.867 25.4621 169.552 25.7603 170.208 26.0656C170.649 25.4737 171.105 24.8844 171.555 24.3515C179.648 14.777 193.555 2.19693 199.436 2.64931C203.904 2.99301 204.542 41.5855 200.074 49.0504C203.506 53.0207 206.783 57.5399 209.648 62.6494C209.648 62.6494 210.054 54.6827 209.648 39.6709Z" fill="black"/>
<path d="M168.159 25.1715C168.159 25.1715 164.819 30.0961 166.882 30.0961C167.268 30.0961 168.172 28.8533 169.262 27.3548C169.565 26.9378 169.883 26.501 170.208 26.0656C169.552 25.7603 168.867 25.4621 168.159 25.1715Z" fill="black"/>
<path d="M139.435 19.2451C124.116 19.2451 115.179 21.5131 104.967 25.9811C104.967 25.9811 106.525 28.8176 105.606 29.4559C104.686 30.0942 102.752 27.0251 102.752 27.0251C96.6687 17.9675 82.6271 2.55111 75.6058 2.01101C70.5144 1.61937 69.8611 39.6706 73.2241 47.7988C69.5723 51.8001 64.5533 58.046 60.5212 65.8389C58.3183 70.0966 56.4099 74.816 55.1801 79.8834C47.9625 109.622 58.8107 135.529 83.2652 153.926C100.37 166.794 119.649 167.969 136.244 167.969C145.819 167.969 171.081 167.33 190.042 153.281C228.797 124.564 216.583 80.1971 214.116 73.5007C213.816 72.688 213.538 71.9126 213.27 71.1646C212.167 68.085 211.231 65.472 209.648 62.6494C206.783 57.5399 203.506 53.0207 200.074 49.0504C204.542 41.5855 203.904 2.99301 199.436 2.64931C193.555 2.19693 179.648 14.777 171.555 24.3515C171.105 24.8844 170.649 25.4737 170.208 26.0656C169.883 26.501 169.565 26.9378 169.262 27.3548C168.172 28.8533 167.268 30.0961 166.882 30.0961C164.819 30.0961 168.159 25.1715 168.159 25.1715C159.544 21.6373 147.375 19.2451 139.435 19.2451Z" fill="#A289CB"/>
</g>
<path d="M175.819 29.4579C174.407 28.2622 172.477 27.1219 170.208 26.0656M104.967 25.9811C115.179 21.5131 124.116 19.2451 139.435 19.2451C147.375 19.2451 159.544 21.6373 168.159 25.1715M104.967 25.9811C98.2799 15.8984 80.553 -0.786972 74.9675 0.736128C70.4573 1.96598 62.2099 32.6474 60.9816 51.7964C60.5212 58.9744 60.5212 65.8389 60.5212 65.8389M104.967 25.9811C104.967 25.9811 106.525 28.8176 105.606 29.4559C104.686 30.0942 102.752 27.0251 102.752 27.0251M102.752 27.0251C102.805 26.9986 102.857 26.9725 102.909 26.9469C104.124 26.3444 104.967 25.9811 104.967 25.9811M209.648 62.6494C209.648 62.6494 210.054 54.6827 209.648 39.6709C209.241 24.6592 204.186 0.734455 200.074 0.73441C190.001 0.734301 173.46 18.9947 169.436 23.7132L168.159 25.1715M78.1586 42.8621C78.1586 42.8621 76.1217 44.6238 73.2241 47.7988C69.5723 51.8001 64.5533 58.046 60.5212 65.8389C58.3183 70.0966 56.4099 74.816 55.1801 79.8834C47.9625 109.622 58.8107 135.529 83.2652 153.926C100.37 166.794 119.649 167.969 136.244 167.969C145.819 167.969 171.081 167.33 190.042 153.281C228.797 124.564 216.583 80.1971 214.116 73.5007C213.816 72.6881 213.538 71.9126 213.27 71.1646C212.167 68.085 211.231 65.472 209.648 62.6494C206.783 57.5399 203.506 53.0207 200.074 49.0504C198.814 47.5928 197.533 46.2092 196.244 44.8975M96.6687 30.7344C98.5636 29.219 101.134 27.8274 102.909 26.9469M168.159 25.1715C168.159 25.1715 164.819 30.0961 166.882 30.0961C167.268 30.0961 168.172 28.8533 169.262 27.3548C169.565 26.9378 169.883 26.501 170.208 26.0656M168.159 25.1715C168.867 25.4621 169.552 25.7603 170.208 26.0656M200.074 49.0504C204.542 41.5855 203.904 2.99301 199.436 2.64931C193.555 2.19693 179.648 14.777 171.555 24.3515C171.105 24.8844 170.649 25.4737 170.208 26.0656M102.752 27.0251C96.6687 17.9675 82.6271 2.55111 75.6058 2.01101C70.5144 1.61937 69.8611 39.6706 73.2241 47.7988M102.752 27.0251L102.909 26.9469" stroke="#1C1135" stroke-width="1.2766" stroke-linecap="round"/>
<path d="M189.448 33.7545C195.69 39.1983 198.594 40.2543 199.715 41.6607C203.649 34.4233 202.897 3.30525 198.936 2.98686C193.723 2.5678 180.311 14.7983 173.172 24.0886C172.774 24.6057 173.561 23.5143 173.172 24.0886C173.172 24.0886 183.206 28.3107 189.448 33.7545Z" fill="url(#paint2_linear_1574_10057)"/>
<path d="M84.2801 33.6234C78.4132 39.1581 73.8221 41.3375 72.7678 42.7673C70.8529 37.0226 71.4912 2.69249 75.3729 2.35381C79.7891 1.96849 92.8711 14.3539 99.5771 23.7945C99.9504 24.32 99.2112 23.2109 99.5771 23.7945C99.5771 23.7945 90.147 28.0886 84.2801 33.6234Z" fill="url(#paint3_linear_1574_10057)"/>
<path d="M83.558 55.5406C80.7642 55.9027 81.1119 69.6134 79.3657 71.6439C77.6196 73.6743 65.8465 76.5447 65.7458 79.3454C65.6452 82.146 76.4318 86.3468 77.6196 88.4472C78.8074 90.5476 77.8639 101.603 81.1265 102.45C84.3891 103.296 91.0593 91.1455 93.2448 90.4879C95.4302 89.8303 108.16 96.0731 110.098 93.7505C112.036 91.4279 104.767 82.8461 104.51 80.7456C104.253 78.6452 111.342 69.5435 110.098 67.443C108.854 65.3425 97.5256 67.3482 95.4302 66.3928C93.3349 65.4374 86.3518 55.1785 83.558 55.5406Z" fill="#C3AEE6"/>
<g filter="url(#filter3_f_1574_10057)">
<circle cx="189.576" cy="121.914" r="7.65958" fill="#CD91D7"/>
</g>
<g filter="url(#filter4_f_1574_10057)">
<circle cx="83.6186" cy="121.914" r="7.65958" fill="#CD91D7"/>
</g>
<path fill-rule="evenodd" clip-rule="evenodd" d="M135.159 116.028C134.011 115.171 132.21 114.667 132.39 113.523C132.57 112.378 134.142 111.771 136.021 111.806C137.55 111.835 139.273 112.378 139.477 113.523C139.682 114.667 137.976 115.171 137.115 116.028C136.524 120.389 143.342 122.081 144.202 122.106C154.25 122.391 152.217 117.246 153.653 119.245C154.713 120.722 153.874 121.821 151.29 122.678C151.017 124.037 150.393 125.406 149.659 126.464C148.85 127.63 147.908 128.419 147.156 128.4C145.72 128.364 144.351 123.453 143.777 123.453C140.892 123.453 136.595 120.883 136.021 120.883C135.446 120.883 131.635 123.831 128.764 123.831C128.19 124.402 126.451 128.4 125.302 128.4C124.88 128.4 124.499 128.168 124.1 127.691C123.584 127.073 123.038 126.043 122.335 124.571C122.104 124.087 121.856 123.555 121.587 122.974C120.152 122.403 117.24 121.531 118.805 119.817C121.419 116.956 117.896 122.106 127.074 122.106C127.935 122.106 135.934 120.961 135.159 116.028ZM149.659 123.821C149.659 123.249 145.735 123.293 145.524 123.821C145.314 124.35 146.579 127.254 147.296 127.254C148.014 127.254 149.659 124.393 149.659 123.821ZM127.038 124.056C126.422 123.822 124.025 123.599 123.679 123.828C123.26 124.056 124.599 127.254 125.316 127.254C126.034 127.254 127.334 124.169 127.038 124.056Z" fill="black"/>
<path d="M145.524 123.821C145.735 123.293 149.659 123.249 149.659 123.821C149.659 124.393 148.014 127.254 147.296 127.254C146.579 127.254 145.314 124.35 145.524 123.821Z" fill="white"/>
<path d="M123.679 123.828C124.025 123.599 126.422 123.822 127.038 124.056C127.334 124.169 126.034 127.254 125.316 127.254C124.599 127.254 123.26 124.056 123.679 123.828Z" fill="white"/>
<path d="M126.328 136.2C128.087 139.528 131.235 142.518 136.866 142.583C143.684 142.662 146.868 137.938 148.356 133.507C148.356 133.507 145.164 127.902 137.504 127.902C129.845 127.902 126.328 136.2 126.328 136.2Z" fill="#F26C95"/>
<path d="M147.156 128.4C145.72 128.364 144.351 123.453 143.777 123.453C140.892 123.453 136.595 120.883 136.021 120.883C135.446 120.883 131.635 123.831 128.764 123.831C128.19 124.402 126.451 128.4 125.302 128.4C124.88 128.4 124.499 128.168 124.1 127.691C124.1 127.691 124.092 131.969 126.328 136.2C126.328 136.2 129.845 127.902 137.504 127.902C145.164 127.902 148.356 133.507 148.356 133.507C149.659 129.624 149.659 126.464 149.659 126.464C148.85 127.63 147.908 128.419 147.156 128.4Z" fill="#B62C60"/>
<path d="M151.29 122.678C151.017 124.037 150.393 125.406 149.659 126.464C149.659 126.464 149.659 129.624 148.356 133.507C146.868 137.938 143.684 142.662 136.866 142.583C131.235 142.518 128.087 139.528 126.328 136.2C124.092 131.969 124.1 127.691 124.1 127.691C123.584 127.073 123.038 126.043 122.335 124.571C122.335 124.571 121.876 143.464 136.866 143.72C151.856 143.976 151.29 122.678 151.29 122.678Z" fill="black"/>
<path d="M189.846 106.698C189.846 115.863 182.904 122.655 175.165 122.655C167.425 122.655 160.484 115.863 160.484 106.698C160.484 101.591 161.761 98.8579 161.761 98.8579C162.266 98.6383 163.014 98.3082 163.897 97.9096C166.002 96.9595 168.868 95.6207 171.007 94.4664L172.82 93.4372C174.389 92.5001 176.106 91.3652 177.718 90.2546L178.356 90.5245C184.714 92.2197 189.846 98.8173 189.846 106.698Z" fill="black"/>
<path d="M178.356 90.5245L177.959 91.4651L178.024 91.4929L178.093 91.5113L178.356 90.5245ZM159.453 98.7335C158.933 98.9501 158.686 99.548 158.903 100.069C159.119 100.589 159.717 100.836 160.238 100.619L159.846 99.6764L159.453 98.7335ZM161.761 98.8579L161.353 97.9213H161.353L161.761 98.8579ZM171.973 93.9317L171.468 93.0442L171.468 93.0442L171.973 93.9317ZM184.721 86.4452C185.169 86.1026 185.255 85.4617 184.912 85.0136C184.57 84.5655 183.929 84.4799 183.481 84.8224L184.101 85.6338L184.721 86.4452ZM171.007 94.4664L171.492 95.3652V95.3652L171.007 94.4664ZM173.333 94.3206C173.82 94.0376 173.987 93.4127 173.704 92.9248C173.421 92.4369 172.796 92.2707 172.308 92.5537L172.82 93.4372L173.333 94.3206ZM162.139 97.5769C161.624 97.807 161.393 98.411 161.623 98.926C161.853 99.441 162.457 99.6719 162.972 99.4417L162.555 98.5093L162.139 97.5769ZM189.846 106.698H188.824C188.824 115.349 182.292 121.634 175.165 121.634V122.655V123.676C183.517 123.676 190.867 116.378 190.867 106.698H189.846ZM175.165 122.655V121.634C168.038 121.634 161.505 115.349 161.505 106.698H160.484H159.463C159.463 116.378 166.813 123.676 175.165 123.676V122.655ZM178.356 90.5245L178.093 91.5113C183.964 93.0766 188.824 99.2371 188.824 106.698H189.846H190.867C190.867 98.3975 185.465 91.3628 178.619 89.5377L178.356 90.5245ZM159.846 99.6764C160.238 100.619 160.238 100.619 160.238 100.619C160.238 100.619 160.238 100.619 160.238 100.619C160.238 100.619 160.238 100.619 160.238 100.619C160.238 100.619 160.239 100.619 160.239 100.619C160.239 100.619 160.24 100.619 160.241 100.618C160.242 100.618 160.244 100.617 160.247 100.615C160.253 100.613 160.262 100.609 160.274 100.604C160.297 100.595 160.332 100.58 160.376 100.561C160.466 100.524 160.597 100.469 160.764 100.398C161.1 100.255 161.581 100.049 162.168 99.7945L161.761 98.8579L161.353 97.9213C160.773 98.1736 160.297 98.377 159.967 98.5172C159.801 98.5873 159.673 98.6415 159.585 98.6782C159.542 98.6965 159.508 98.7104 159.486 98.7197C159.475 98.7244 159.467 98.7278 159.461 98.7301C159.459 98.7313 159.456 98.7321 159.455 98.7327C159.454 98.733 159.454 98.7332 159.454 98.7333C159.454 98.7334 159.453 98.7334 159.453 98.7334C159.453 98.7334 159.453 98.7335 159.453 98.7335C159.453 98.7335 159.453 98.7335 159.453 98.7335C159.453 98.7335 159.453 98.7335 159.846 99.6764ZM160.484 106.698H161.505C161.505 104.23 161.814 102.351 162.115 101.103C162.266 100.478 162.415 100.011 162.523 99.7074C162.577 99.5554 162.621 99.4442 162.65 99.3744C162.664 99.3395 162.675 99.3149 162.681 99.3009C162.684 99.2938 162.686 99.2894 162.687 99.2876C162.687 99.2867 162.688 99.2864 162.687 99.2868C162.687 99.287 162.687 99.2874 162.687 99.2879C162.687 99.2882 162.687 99.2885 162.686 99.2889C162.686 99.289 162.686 99.2893 162.686 99.2894C162.686 99.2897 162.686 99.29 161.761 98.8579C160.835 98.4257 160.835 98.426 160.835 98.4264C160.835 98.4265 160.835 98.4269 160.835 98.4271C160.834 98.4276 160.834 98.4282 160.834 98.4288C160.833 98.43 160.833 98.4314 160.832 98.4329C160.831 98.436 160.829 98.4397 160.827 98.4442C160.823 98.453 160.818 98.4645 160.811 98.4788C160.799 98.5072 160.782 98.5464 160.761 98.5962C160.72 98.6958 160.665 98.838 160.599 99.0221C160.468 99.3902 160.298 99.9258 160.13 100.623C159.793 102.018 159.463 104.059 159.463 106.698H160.484ZM171.973 93.9317L172.479 94.8192C172.762 94.658 173.051 94.4891 173.344 94.3139L172.82 93.4372L172.296 92.5604C172.014 92.7292 171.737 92.8908 171.468 93.0442L171.973 93.9317ZM172.82 93.4372L173.344 94.3139C174.939 93.361 176.677 92.2124 178.298 91.0955L177.718 90.2546L177.139 89.4136C175.536 90.5179 173.838 91.6392 172.296 92.5604L172.82 93.4372ZM177.718 90.2546L178.298 91.0955C180.025 89.9049 181.63 88.743 182.802 87.8794C183.389 87.4474 183.868 87.0895 184.2 86.8393C184.367 86.7142 184.496 86.6161 184.585 86.549C184.629 86.5154 184.663 86.4897 184.686 86.4722C184.697 86.4634 184.706 86.4568 184.712 86.4523C184.715 86.45 184.717 86.4483 184.719 86.4471C184.72 86.4465 184.72 86.446 184.721 86.4457C184.721 86.4456 184.721 86.4454 184.721 86.4453C184.721 86.4453 184.721 86.4453 184.721 86.4452C184.721 86.4452 184.721 86.4452 184.101 85.6338C183.481 84.8224 183.481 84.8224 183.481 84.8224C183.481 84.8224 183.481 84.8224 183.481 84.8224C183.481 84.8225 183.481 84.8226 183.48 84.8227C183.48 84.8229 183.48 84.8233 183.479 84.8238C183.478 84.8248 183.476 84.8263 183.473 84.8284C183.468 84.8326 183.459 84.8388 183.448 84.8472C183.426 84.8639 183.393 84.8889 183.35 84.9217C183.264 84.9872 183.136 85.0837 182.972 85.207C182.645 85.4536 182.171 85.8074 181.591 86.2349C180.43 87.0903 178.843 88.2388 177.139 89.4136L177.718 90.2546ZM177.718 90.2546L177.32 91.1952L177.959 91.4651L178.356 90.5245L178.754 89.5839L178.116 89.3139L177.718 90.2546ZM171.007 94.4664L171.492 95.3652C171.832 95.182 172.162 94.9995 172.479 94.8192L171.973 93.9317L171.468 93.0442C171.167 93.2159 170.85 93.3907 170.523 93.5676L171.007 94.4664ZM171.007 94.4664L171.512 95.3545L173.324 94.3253L172.82 93.4372L172.316 92.5491L170.503 93.5782L171.007 94.4664ZM172.82 93.4372L173.333 94.3206L173.333 94.3206L172.82 93.4372L172.308 92.5537L172.308 92.5537L172.82 93.4372ZM161.761 98.8579L162.168 99.7945C162.677 99.573 163.43 99.2409 164.317 98.8405L163.897 97.9096L163.477 96.9788C162.599 97.3754 161.854 97.7036 161.353 97.9213L161.761 98.8579ZM163.897 97.9096L164.317 98.8405C166.426 97.8886 169.319 96.5376 171.492 95.3652L171.007 94.4664L170.523 93.5676C168.416 94.7039 165.578 96.0304 163.477 96.9788L163.897 97.9096ZM163.897 97.9096L163.48 96.9772L162.139 97.5769L162.555 98.5093L162.972 99.4417L164.314 98.8421L163.897 97.9096Z" fill="black"/>
<path d="M97.0019 122.295C89.2725 121.9 82.6831 114.823 83.146 105.748C83.544 97.9465 89.0019 91.6761 95.4373 90.3218L96.0884 90.087C97.9268 91.4855 99.9122 92.9252 101.64 94.0201C101.94 94.2102 102.253 94.4035 102.578 94.5987C104.656 95.8506 107.451 97.322 109.505 98.3699C110.366 98.8094 111.097 99.1744 111.591 99.4175C111.591 99.4175 112.728 102.189 112.47 107.244C112.007 116.318 104.731 122.689 97.0019 122.295Z" fill="black"/>
<path d="M95.4373 90.3218L95.7836 91.2825L95.717 91.3065L95.6476 91.3211L95.4373 90.3218ZM113.899 99.4024C114.409 99.6437 114.626 100.253 114.385 100.762C114.143 101.272 113.534 101.49 113.025 101.248L113.462 100.325L113.899 99.4024ZM111.591 99.4175L112.042 98.5014L112.042 98.5014L111.591 99.4175ZM101.64 94.0201L101.093 94.8828L101.093 94.8828L101.64 94.0201ZM96.0884 90.087L96.7067 89.2742V89.2742L96.0884 90.087ZM89.2896 85.9686C88.858 85.6055 88.8024 84.9613 89.1655 84.5297C89.5286 84.0981 90.1729 84.0425 90.6045 84.4056L89.9471 85.1871L89.2896 85.9686ZM102.578 94.5987L102.051 95.4736L102.051 95.4736L102.578 94.5987ZM100.274 94.3507C99.7968 94.0494 99.6545 93.4186 99.9559 92.9418C100.257 92.465 100.888 92.3228 101.365 92.6241L100.819 93.4874L100.274 94.3507ZM109.505 98.3699L109.041 99.2796V99.2796L109.505 98.3699ZM111.275 98.1205C111.779 98.3749 111.981 98.9893 111.726 99.4927C111.472 99.996 110.857 100.198 110.354 99.9435L110.815 99.032L111.275 98.1205ZM83.146 105.748L84.166 105.8C83.7297 114.352 89.9278 120.911 97.0539 121.275L97.0019 122.295L96.9499 123.315C88.6171 122.89 81.6365 115.293 82.1261 105.696L83.146 105.748ZM97.0019 122.295L97.0539 121.275C104.18 121.638 111.013 115.744 111.45 107.192L112.47 107.244L113.49 107.296C113 116.893 105.283 123.74 96.9499 123.315L97.0019 122.295ZM95.4373 90.3218L95.6476 91.3211C89.7015 92.5725 84.5423 98.424 84.166 105.8L83.146 105.748L82.1261 105.696C82.5458 97.469 88.3023 90.7797 95.227 89.3224L95.4373 90.3218ZM113.462 100.325C113.025 101.248 113.025 101.248 113.025 101.248C113.025 101.248 113.025 101.248 113.025 101.248C113.025 101.248 113.024 101.248 113.024 101.248C113.024 101.248 113.024 101.248 113.024 101.248C113.024 101.248 113.023 101.248 113.022 101.247C113.021 101.247 113.018 101.245 113.015 101.244C113.01 101.241 113.001 101.237 112.99 101.232C112.967 101.221 112.933 101.205 112.89 101.184C112.802 101.142 112.674 101.081 112.51 101.002C112.183 100.844 111.712 100.616 111.139 100.334L111.591 99.4175L112.042 98.5014C112.609 98.7808 113.074 99.0064 113.397 99.1621C113.558 99.2399 113.684 99.3002 113.77 99.3409C113.812 99.3613 113.845 99.3768 113.867 99.3871C113.877 99.3922 113.886 99.3961 113.891 99.3987C113.894 99.4 113.896 99.4009 113.897 99.4015C113.898 99.4018 113.898 99.4021 113.898 99.4022C113.899 99.4023 113.899 99.4023 113.899 99.4023C113.899 99.4024 113.899 99.4024 113.899 99.4024C113.899 99.4024 113.899 99.4024 113.899 99.4024C113.899 99.4024 113.899 99.4024 113.462 100.325ZM112.47 107.244L111.45 107.192C111.574 104.751 111.361 102.876 111.124 101.626C111.005 101.001 110.879 100.531 110.787 100.225C110.74 100.072 110.702 99.9603 110.677 99.8899C110.665 99.8547 110.655 99.83 110.65 99.8158C110.647 99.8087 110.645 99.8043 110.645 99.8025C110.644 99.8016 110.644 99.8014 110.644 99.8018C110.645 99.8021 110.645 99.8024 110.645 99.803C110.645 99.8033 110.645 99.8036 110.645 99.804C110.645 99.8041 110.645 99.8044 110.646 99.8045C110.646 99.8048 110.646 99.8052 111.591 99.4175C112.535 99.0299 112.536 99.0302 112.536 99.0306C112.536 99.0307 112.536 99.0311 112.536 99.0313C112.536 99.0319 112.537 99.0324 112.537 99.0331C112.537 99.0343 112.538 99.0357 112.538 99.0373C112.54 99.0404 112.541 99.0442 112.543 99.0487C112.547 99.0577 112.551 99.0695 112.557 99.0839C112.568 99.1128 112.583 99.1526 112.601 99.203C112.637 99.304 112.685 99.4478 112.742 99.6336C112.854 100.005 112.997 100.545 113.13 101.244C113.396 102.644 113.623 104.682 113.49 107.296L112.47 107.244ZM101.64 94.0201L101.093 94.8828C99.3292 93.7649 97.3172 92.3049 95.4701 90.8999L96.0884 90.087L96.7067 89.2742C98.5365 90.6661 100.495 92.0855 102.187 93.1575L101.64 94.0201ZM96.0884 90.087L95.4701 90.8999C93.8048 89.6331 92.2606 88.4011 91.1335 87.4863C90.5696 87.0287 90.1095 86.65 89.79 86.3854C89.6302 86.2531 89.5056 86.1493 89.4206 86.0783C89.3782 86.0429 89.3456 86.0156 89.3236 85.9972C89.3126 85.9879 89.3042 85.9809 89.2985 85.9761C89.2957 85.9737 89.2935 85.9719 89.292 85.9707C89.2913 85.97 89.2907 85.9696 89.2903 85.9692C89.2901 85.969 89.2899 85.9689 89.2898 85.9688C89.2897 85.9688 89.2897 85.9687 89.2897 85.9687C89.2896 85.9687 89.2896 85.9686 89.9471 85.1871C90.6045 84.4056 90.6045 84.4056 90.6045 84.4056C90.6045 84.4056 90.6045 84.4056 90.6046 84.4057C90.6046 84.4057 90.6047 84.4058 90.6049 84.4059C90.6051 84.4062 90.6056 84.4065 90.6062 84.4071C90.6075 84.4081 90.6094 84.4098 90.6121 84.412C90.6173 84.4164 90.6252 84.423 90.6357 84.4318C90.6568 84.4495 90.6884 84.4759 90.7298 84.5106C90.8128 84.5798 90.9353 84.6818 91.0928 84.8123C91.4078 85.0731 91.8627 85.4475 92.4206 85.9003C93.537 86.8063 95.0635 88.0243 96.7067 89.2742L96.0884 90.087ZM96.0884 90.087L96.4347 91.0478L95.7836 91.2825L95.4373 90.3218L95.0909 89.361L95.742 89.1263L96.0884 90.087ZM102.578 94.5987L102.051 95.4736C101.721 95.2749 101.4 95.0775 101.093 94.8828L101.64 94.0201L102.187 93.1575C102.479 93.3429 102.786 93.5321 103.104 93.7239L102.578 94.5987ZM102.578 94.5987L102.032 95.462L100.274 94.3507L100.819 93.4874L101.365 92.6241L103.123 93.7354L102.578 94.5987ZM111.591 99.4175L111.139 100.334C110.642 100.088 109.906 99.7213 109.041 99.2796L109.505 98.3699L109.969 97.4602C110.826 97.8976 111.553 98.2604 112.042 98.5014L111.591 99.4175ZM109.505 98.3699L109.041 99.2796C106.983 98.2298 104.162 96.7449 102.051 95.4736L102.578 94.5987L103.104 93.7239C105.151 94.9562 107.919 96.4141 109.969 97.4602L109.505 98.3699ZM109.505 98.3699L109.965 97.4584L111.275 98.1205L110.815 99.032L110.354 99.9435L109.044 99.2814L109.505 98.3699Z" fill="black"/>
<path d="M98.3443 102.267C97.7848 104.915 94.6811 106.701 92.1227 106.16C89.5643 105.62 87.8646 103.066 88.4241 100.418C88.9836 97.7703 92.0872 95.984 94.6455 96.5246C97.2039 97.0652 98.9038 99.6193 98.3443 102.267Z" fill="#FAFAF9"/>
<path d="M171.802 104.179C172.087 106.644 169.838 109.108 167.387 109.391C164.935 109.674 162.656 107.956 162.371 105.492C162.086 103.027 164.335 100.563 166.787 100.28C169.238 99.9965 171.518 101.715 171.802 104.179Z" fill="#FAFAF9"/>
<path d="M187.192 99.0661C191.032 98.8084 194.005 98.5416 194.659 102.452C194.793 103.258 198.405 102.383 199.601 102.97C201.75 104.026 201.421 104.617 202.031 106.563C202.211 107.076 203.574 107.158 204.238 107.483C204.909 107.717 206.371 109.464 206.961 109.616C210.475 110.523 212.811 110.384 212.531 114.513C212.223 119.065 211.789 123.722 211.272 128.316C209.546 143.656 208.397 159.064 206.718 174.409C206.597 175.147 206.075 179.898 205.666 180.324C203.281 182.806 192.299 185.802 189.644 186.752C175.443 191.833 161.513 196.455 147.385 201.578C145.271 202.141 142.898 204.269 140.927 204.835C134.701 206.62 128.544 205.645 123.372 202.045C123.015 201.796 120.721 201.001 120.19 200.807C107.104 196.034 93.937 191.403 80.9462 186.424C78.2249 185.503 67.6958 182.356 66.7268 180.177C66.0644 178.688 65.4225 172.149 65.1973 170.129L62.9033 147.573C61.7821 136.697 60.3797 125.81 59.3976 114.955C58.9828 110.368 62.2874 110.483 66.0372 110.16C65.4784 110.208 68.552 108.5 69.2482 108.263C71.3972 104.582 71.9685 106.934 75.265 105.939C75.6503 105.432 76.1253 103.201 76.9087 102.993C82.6641 101.465 93.3586 104.708 98.33 106.24C110.962 110.13 125.442 116.436 133.824 125.748C145.028 111.078 167.597 100.77 187.192 99.0661Z" fill="#000001"/>
<path d="M201.496 113.595C204.212 112.839 209.996 110.037 210.511 113.929C209.594 123.622 208.894 133.84 207.832 143.453C206.935 151.311 206.098 159.174 205.319 167.042C204.924 170.915 204.361 175.123 204.148 178.973C201.551 181.383 189.99 184.511 185.994 185.979C176.603 189.428 166.931 192.49 157.549 195.987C154.537 197.1 149.096 198.651 146.423 199.79L144.764 200.376C139.819 205.004 129.208 205.034 124.556 200.055L123.297 199.837C120.178 198.464 115.292 197.076 111.923 195.774C103.155 192.386 94.1165 189.383 85.348 185.982C81.2677 184.399 71.9102 181.601 68.6334 179.531C68.0813 177.684 67.7368 173.435 67.5031 171.354L66.0571 159.022C64.3581 144.029 62.8299 129.021 61.4727 114C62.5964 110.35 68.0939 113.352 70.8893 114.203C75.7423 115.554 79.9878 117.397 84.5737 118.793C93.3613 121.468 101.701 124.581 110.386 127.427C114.234 128.687 120.745 131.536 124.298 132.461C125.436 132.777 126.392 133.064 127.069 134.031C130.827 134.748 137.949 135.294 141.558 134.066C142.121 133.897 142.742 133.641 143.296 133.431C143.682 132.855 143.745 132.8 144.405 132.48C145.288 132.017 148.37 130.996 149.432 130.628C166.309 124.785 184.276 118.406 201.496 113.595Z" fill="#9467D2"/>
<path d="M201.496 113.595C204.212 112.839 209.996 110.037 210.511 113.929C209.594 123.622 208.894 133.84 207.832 143.453C206.935 151.311 206.098 159.174 205.319 167.042C204.924 170.915 204.361 175.123 204.148 178.973C201.551 181.383 189.99 184.511 185.994 185.979C176.603 189.428 166.931 192.49 157.549 195.987C154.537 197.1 149.096 198.651 146.423 199.79C146.696 197.986 146.547 193.451 146.528 191.497C146.478 186.942 146.464 182.386 146.487 177.83C146.537 163.633 147.017 148.501 146.827 134.399C146.202 133.319 145.553 133.061 144.405 132.48C145.288 132.017 148.37 130.996 149.432 130.628C166.309 124.785 184.276 118.406 201.496 113.595Z" fill="#9467D2"/>
<path d="M201.496 113.595C204.212 112.839 209.996 110.037 210.511 113.929C204.618 115.27 198.196 117.646 192.416 119.402C177.768 123.852 163.291 128.786 148.877 133.803C148.22 134.032 147.521 134.295 146.827 134.399C146.202 133.319 145.553 133.061 144.405 132.48C145.288 132.017 148.37 130.996 149.432 130.628C166.309 124.785 184.276 118.406 201.496 113.595Z" fill="#BB95EF"/>
<path d="M191.929 138.227C196.708 138.046 201.277 144.423 202.872 147.867C195.873 149.459 196.409 150.824 196.404 156.969C195.842 156.961 193.839 156.934 193.448 157.03C189.181 158.086 186.878 164.401 184.154 167.804C177.828 166.061 174.975 160.339 168.907 165.402C168.254 163.93 167.835 163.034 166.997 161.625C164.501 158.306 162.955 159.287 159.629 160.715C159.491 155.453 161.012 149.14 165.896 145.721C169.632 147.562 170.524 149.71 174.851 151.769C176.341 143.485 176.222 147.073 182.939 144.032L183.147 143.936C183.946 145.508 185.287 147.002 186.44 148.409C189.345 144.657 189.031 141.12 191.929 138.227Z" fill="#5A32A0"/>
<path d="M143.297 133.43C143.683 132.855 143.745 132.799 144.406 132.479C145.553 133.061 146.203 133.319 146.827 134.399C147.018 148.501 146.538 163.632 146.488 177.83C146.464 182.385 146.478 186.941 146.529 191.496C146.548 193.451 146.696 197.985 146.424 199.789L144.764 200.376C139.82 205.003 129.209 205.033 124.556 200.054C124.553 198.433 124.556 196.944 124.433 195.324C124.343 194.756 124.485 192.031 124.509 191.304C124.338 187.428 124.504 182.774 124.449 178.807L123.875 154.34C123.775 150.285 123.85 144.386 123.407 140.497L123.43 139.352C123.534 137.67 123.583 136.098 123.73 134.405C125.161 133.388 125.353 133.591 127.07 134.031C130.827 134.748 137.95 135.293 141.559 134.065C142.122 133.896 142.743 133.641 143.297 133.43Z" fill="#8857C9"/>
<path d="M143.296 133.431C144.385 134.075 144.774 134.399 145.054 135.624C145.015 136.89 144.956 138.157 144.876 139.422C144.219 139.797 141.581 141.331 140.942 141.475C137.545 142.241 132.293 142.146 128.87 141.527C127.081 141.204 125.428 140.494 123.806 139.936L123.43 139.353C123.534 137.671 123.582 136.099 123.729 134.405C125.16 133.389 125.352 133.592 127.069 134.031C130.827 134.748 137.949 135.294 141.558 134.066C142.121 133.897 142.742 133.641 143.296 133.431Z" fill="#8857C9"/>
<path d="M143.297 133.431C144.386 134.075 144.775 134.399 145.055 135.624C140.51 137.777 129.55 138.299 124.739 135.973C123.942 135.587 123.935 135.111 123.73 134.405C125.161 133.389 125.353 133.592 127.07 134.031C130.828 134.748 137.95 135.294 141.559 134.066C142.122 133.897 142.743 133.641 143.297 133.431Z" fill="#9467D2"/>
<path d="M143.297 133.43C143.683 132.855 143.745 132.799 144.406 132.479C145.553 133.061 146.203 133.319 146.827 134.399C147.018 148.501 146.538 163.632 146.488 177.83C146.464 182.385 146.478 186.941 146.529 191.496C146.548 193.451 146.696 197.985 146.424 199.789L144.764 200.376C144.808 198.669 144.767 196.681 145.172 195.036C145.144 194.703 144.995 194.186 144.909 193.841C145.176 181.608 144.773 169.116 144.897 156.874C144.932 153.424 144.608 143.25 145.219 140.468L145.118 140.537C140.061 143.931 128.384 143.987 123.407 140.497L123.43 139.352L123.807 139.936C125.428 140.493 127.082 141.203 128.871 141.527C132.294 142.146 137.545 142.24 140.943 141.475C141.581 141.331 144.22 139.797 144.876 139.422C144.956 138.157 145.016 136.89 145.054 135.623C144.775 134.399 144.385 134.075 143.297 133.43Z" fill="#30156B"/>
<path d="M124.432 195.323C129.693 197.841 136.257 197.995 141.915 196.467C143.026 196.166 144.03 195.381 145.171 195.035C144.766 196.681 144.807 198.668 144.763 200.375C139.819 205.003 129.208 205.032 124.555 200.053C124.552 198.433 124.555 196.943 124.432 195.323Z" fill="#8857C9"/>
<path d="M124.509 191.305C124.596 192.102 124.691 192.874 124.72 193.676C133.178 197.775 136.465 197.634 144.909 193.842C144.995 194.187 145.144 194.704 145.172 195.037C144.031 195.383 143.027 196.168 141.916 196.468C136.258 197.997 129.694 197.843 124.433 195.325C124.343 194.757 124.485 192.032 124.509 191.305Z" fill="#462491"/>
<path d="M61.4727 114C62.5964 110.35 68.0939 113.352 70.8893 114.203C75.7423 115.554 79.9878 117.396 84.5737 118.793C93.3613 121.468 101.701 124.581 110.386 127.426C114.234 128.687 120.745 131.536 124.298 132.461C123.596 133.015 122.822 133.553 122.322 134.251C120.74 134.593 104.473 128.512 101.529 127.504L69.9627 116.984C68.6491 116.54 62.2578 114.188 61.4727 114Z" fill="#BB95EF"/>
<path d="M124.299 132.461C125.437 132.777 126.393 133.064 127.07 134.031C125.353 133.592 125.161 133.388 123.731 134.405C123.584 136.099 123.535 137.67 123.431 139.352L123.408 140.497C123.85 144.386 123.775 150.285 123.876 154.34L124.449 178.807C124.504 182.774 124.339 187.428 124.509 191.304C124.485 192.031 124.343 194.756 124.433 195.324C124.557 196.944 124.554 198.434 124.557 200.054L123.298 199.837C123.041 191.037 123.396 182.048 123.154 172.999L122.625 147.522C122.54 143.475 122.186 138.195 122.323 134.251C122.823 133.552 123.597 133.014 124.299 132.461Z" fill="#30156B"/>
<path d="M134.163 128.588C145.481 112.527 169.07 102.029 190.005 100.823C192.33 100.689 192.616 102.013 192.571 103.628C192.462 104.557 192.264 104.609 192.766 105.223C195.676 104.71 200.919 103.353 200.067 107.823L199.902 108.532C200.055 108.72 200.113 108.847 200.311 108.959C201.522 108.833 204.124 108.906 204.829 109.973C204.623 111.253 202.173 111.625 200.838 112.083C199.099 113.768 199.152 112.595 197.418 113.624C199.292 113.846 198.982 113.126 201.497 113.594C184.278 118.405 166.311 124.784 149.434 130.627C148.372 130.995 145.29 132.017 144.407 132.479C143.747 132.799 143.684 132.855 143.298 133.43C142.744 133.641 142.123 133.896 141.56 134.065C137.951 135.293 130.829 134.748 127.071 134.031C126.394 133.063 125.438 132.777 124.3 132.461C120.747 131.535 114.236 128.687 110.388 127.426C101.703 124.581 93.3632 121.467 84.5756 118.792C79.9897 117.396 75.7441 115.553 70.8912 114.202C72.0495 113.946 72.0231 113.864 72.4809 112.938C71.3322 112.548 69.066 111.913 68.213 111.267L68.1953 110.881C68.929 110.337 69.6078 110.359 70.4835 110.123C71.2154 109.926 70.8221 109.266 71.3123 108.198C72.4761 107.538 75.6319 108.513 77.3949 108.357L77.5744 107.985C77.5091 106.853 77.2444 105.448 78.0792 104.598C81.2683 103.56 90.0092 106.082 93.4348 106.954C105.393 109.997 117.519 114.995 127.103 122.145C129.506 123.939 132.054 126.5 134.163 128.588Z" fill="white"/>
<path d="M147.597 125.359C152.449 122.684 157.775 120.224 162.856 118.113C168.487 115.773 195.218 107.031 200.068 107.823L199.902 108.532C200.056 108.721 200.114 108.847 200.312 108.959C201.523 108.834 204.125 108.906 204.83 109.973C204.624 111.253 202.173 111.625 200.839 112.083C199.099 113.768 199.153 112.595 197.418 113.624C199.293 113.847 198.982 113.126 201.498 113.594C184.279 118.406 166.312 124.785 149.434 130.628C148.373 130.995 145.291 132.017 144.408 132.48C143.747 132.799 143.685 132.855 143.299 133.43C142.745 133.641 142.124 133.896 141.561 134.065C141.975 133.416 143.271 132.875 143.176 132.138C141.92 132.442 141.111 132.731 139.817 132.503L141.582 132.012C141.127 130.584 140.161 130.376 138.673 129.924C139.634 129.951 146.094 126.132 147.597 125.359Z" fill="white"/>
<path d="M144.379 130.513C147.138 129.706 151.593 127.666 154.702 126.634C170.098 121.52 185.193 116.608 200.835 112.083C199.095 113.768 199.149 112.596 197.414 113.624C199.289 113.847 198.978 113.127 201.494 113.595C184.275 118.406 166.308 124.785 149.43 130.628C148.369 130.995 145.287 132.017 144.404 132.48C143.743 132.8 143.681 132.855 143.295 133.431C142.741 133.641 142.12 133.896 141.557 134.065C141.971 133.416 143.267 132.875 143.172 132.139C141.916 132.442 141.106 132.732 139.812 132.503L141.578 132.013C142.561 131.628 143.48 131.045 144.379 130.513Z" fill="#26164A"/>
<path d="M147.597 125.359C152.449 122.684 157.775 120.224 162.856 118.113C168.487 115.773 195.218 107.031 200.068 107.823L199.902 108.532C200.056 108.721 200.114 108.847 200.312 108.959C199.293 109.252 198 109.369 196.908 109.604C183.496 112.495 170.569 116.442 158.005 121.525C154.619 122.895 151.316 124.751 147.96 126.137C146.34 126.888 141.582 129.455 141.507 131.038C142.602 131.754 143.087 130.698 144.383 130.513C143.484 131.044 142.565 131.628 141.582 132.012C141.127 130.584 140.161 130.376 138.673 129.924C139.634 129.951 146.094 126.132 147.597 125.359Z" fill="#F3D9C1"/>
<path d="M72.4794 112.939C84.8204 116.356 97.3177 121.171 109.49 125.158C115.437 127.107 121.258 129.134 126.776 131.953C129.512 128.989 134.839 129.18 138.671 129.925C140.159 130.377 141.125 130.585 141.58 132.013L139.814 132.504C141.108 132.732 141.918 132.443 143.174 132.139C143.268 132.876 141.973 133.417 141.558 134.066C137.95 135.294 130.827 134.749 127.069 134.032C126.393 133.065 125.437 132.778 124.298 132.462C120.745 131.537 114.234 128.688 110.386 127.427C101.702 124.582 93.3616 121.469 84.574 118.793C79.9881 117.397 75.7426 115.554 70.8896 114.203C72.048 113.947 72.0215 113.865 72.4794 112.939Z" fill="#30156B"/>
<path d="M126.778 131.952C129.514 128.988 134.841 129.179 138.673 129.924C140.161 130.376 141.127 130.584 141.582 132.012L139.817 132.503C135.489 132.986 130.972 133.184 126.778 131.952Z" fill="#E6D3F6"/>
<path d="M192.765 105.224C191.88 105.271 190.803 105.539 189.928 105.744C174.039 109.473 157.633 114.51 144.794 123.946C143.535 124.871 138.367 129.026 137.125 129.136L136.942 128.875C137.022 128.74 137.191 128.459 137.301 128.356C145.889 120.274 156.774 114.554 168.166 110.197C171.017 109.106 174.396 108.496 177.332 107.504C182.344 105.812 187.277 104.373 192.57 103.629C192.461 104.558 192.263 104.61 192.765 105.224Z" fill="#F3E1D6"/>
<path d="M77.574 107.985C84.2603 106.484 115.076 118.407 120.998 122.397L120.467 123.191C111.113 118.117 100.48 114.495 90.0782 111.588C86.5883 110.613 80.8501 108.767 77.3945 108.357L77.574 107.985Z" fill="#F5E3D8"/>
<path d="M120.468 123.192L120.999 122.398C122.82 123.412 130.013 127.548 130.449 129.044C129.421 128.77 121.937 124.126 120.468 123.192Z" fill="#F3D9C1"/>
<g filter="url(#filter5_i_1574_10057)">
<circle cx="205.532" cy="142.978" r="15.9575" fill="#A289CB"/>
</g>
<circle cx="205.532" cy="142.978" r="15.3192" stroke="black" stroke-width="1.2766"/>
<g filter="url(#filter6_i_1574_10057)">
<circle cx="70.2133" cy="144.255" r="15.9575" fill="#A289CB"/>
</g>
<circle cx="70.2133" cy="144.255" r="15.3192" stroke="black" stroke-width="1.2766"/>
<defs>
<filter id="filter0_f_1574_10057" x="0.98151" y="150.598" width="269.322" height="96.871" filterUnits="userSpaceOnUse" color-interpolation-filters="sRGB">
<feFlood flood-opacity="0" result="BackgroundImageFix"/>
<feBlend mode="normal" in="SourceGraphic" in2="BackgroundImageFix" result="shape"/>
<feGaussianBlur stdDeviation="15.9677" result="effect1_foregroundBlur_1574_10057"/>
</filter>
<filter id="filter1_i_1574_10057" x="52.3418" y="-8.93618" width="166.181" height="177.544" filterUnits="userSpaceOnUse" color-interpolation-filters="sRGB">
<feFlood flood-opacity="0" result="BackgroundImageFix"/>
<feBlend mode="normal" in="SourceGraphic" in2="BackgroundImageFix" result="shape"/>
<feColorMatrix in="SourceAlpha" type="matrix" values="0 0 0 0 0 0 0 0 0 0 0 0 0 0 0 0 0 0 127 0" result="hardAlpha"/>
<feOffset dy="-8.93618"/>
<feGaussianBlur stdDeviation="6.38299"/>
<feComposite in2="hardAlpha" operator="arithmetic" k2="-1" k3="1"/>
<feColorMatrix type="matrix" values="0 0 0 0 0.380392 0 0 0 0 0.25098 0 0 0 0 0.607843 0 0 0 0.38 0"/>
<feBlend mode="normal" in2="shape" result="effect1_innerShadow_1574_10057"/>
</filter>
<filter id="filter2_i_1574_10057" x="52.3418" y="-8.93618" width="166.181" height="177.544" filterUnits="userSpaceOnUse" color-interpolation-filters="sRGB">
<feFlood flood-opacity="0" result="BackgroundImageFix"/>
<feBlend mode="normal" in="SourceGraphic" in2="BackgroundImageFix" result="shape"/>
<feColorMatrix in="SourceAlpha" type="matrix" values="0 0 0 0 0 0 0 0 0 0 0 0 0 0 0 0 0 0 127 0" result="hardAlpha"/>
<feOffset dy="-8.93618"/>
<feGaussianBlur stdDeviation="6.38299"/>
<feComposite in2="hardAlpha" operator="arithmetic" k2="-1" k3="1"/>
<feColorMatrix type="matrix" values="0 0 0 0 0.380392 0 0 0 0 0.25098 0 0 0 0 0.607843 0 0 0 0.38 0"/>
<feBlend mode="normal" in2="shape" result="effect1_innerShadow_1574_10057"/>
</filter>
<filter id="filter3_f_1574_10057" x="176.81" y="109.148" width="25.5321" height="25.5321" filterUnits="userSpaceOnUse" color-interpolation-filters="sRGB">
<feFlood flood-opacity="0" result="BackgroundImageFix"/>
<feBlend mode="normal" in="SourceGraphic" in2="BackgroundImageFix" result="shape"/>
<feGaussianBlur stdDeviation="2.55319" result="effect1_foregroundBlur_1574_10057"/>
</filter>
<filter id="filter4_f_1574_10057" x="70.8526" y="109.148" width="25.5321" height="25.5321" filterUnits="userSpaceOnUse" color-interpolation-filters="sRGB">
<feFlood flood-opacity="0" result="BackgroundImageFix"/>
<feBlend mode="normal" in="SourceGraphic" in2="BackgroundImageFix" result="shape"/>
<feGaussianBlur stdDeviation="2.55319" result="effect1_foregroundBlur_1574_10057"/>
</filter>
<filter id="filter5_i_1574_10057" x="189.574" y="123.191" width="31.915" height="35.7448" filterUnits="userSpaceOnUse" color-interpolation-filters="sRGB">
<feFlood flood-opacity="0" result="BackgroundImageFix"/>
<feBlend mode="normal" in="SourceGraphic" in2="BackgroundImageFix" result="shape"/>
<feColorMatrix in="SourceAlpha" type="matrix" values="0 0 0 0 0 0 0 0 0 0 0 0 0 0 0 0 0 0 127 0" result="hardAlpha"/>
<feOffset dy="-3.82979"/>
<feGaussianBlur stdDeviation="2.55319"/>
<feComposite in2="hardAlpha" operator="arithmetic" k2="-1" k3="1"/>
<feColorMatrix type="matrix" values="0 0 0 0 0.556863 0 0 0 0 0.447059 0 0 0 0 0.737255 0 0 0 1 0"/>
<feBlend mode="normal" in2="shape" result="effect1_innerShadow_1574_10057"/>
</filter>
<filter id="filter6_i_1574_10057" x="54.2559" y="124.468" width="31.915" height="35.7448" filterUnits="userSpaceOnUse" color-interpolation-filters="sRGB">
<feFlood flood-opacity="0" result="BackgroundImageFix"/>
<feBlend mode="normal" in="SourceGraphic" in2="BackgroundImageFix" result="shape"/>
<feColorMatrix in="SourceAlpha" type="matrix" values="0 0 0 0 0 0 0 0 0 0 0 0 0 0 0 0 0 0 127 0" result="hardAlpha"/>
<feOffset dy="-3.82979"/>
<feGaussianBlur stdDeviation="2.55319"/>
<feComposite in2="hardAlpha" operator="arithmetic" k2="-1" k3="1"/>
<feColorMatrix type="matrix" values="0 0 0 0 0.556863 0 0 0 0 0.447059 0 0 0 0 0.737255 0 0 0 1 0"/>
<feBlend mode="normal" in2="shape" result="effect1_innerShadow_1574_10057"/>
</filter>
<linearGradient id="paint0_linear_1574_10057" x1="202.224" y1="0.350477" x2="175.716" y2="42.4594" gradientUnits="userSpaceOnUse">
<stop offset="0.137215" stop-color="#543291"/>
<stop offset="0.401763" stop-color="#A087CA"/>
<stop offset="1" stop-color="#A087CA"/>
</linearGradient>
<linearGradient id="paint1_linear_1574_10057" x1="72.2845" y1="-0.324961" x2="100.083" y2="40.4911" gradientUnits="userSpaceOnUse">
<stop offset="0.137215" stop-color="#543291"/>
<stop offset="0.401763" stop-color="#A087CA"/>
<stop offset="1" stop-color="#A087CA"/>
</linearGradient>
<linearGradient id="paint2_linear_1574_10057" x1="202.224" y1="0.350477" x2="175.716" y2="42.4594" gradientUnits="userSpaceOnUse">
<stop offset="0.137215" stop-color="#543291"/>
<stop offset="0.401763" stop-color="#A087CA"/>
<stop offset="1" stop-color="#A087CA"/>
</linearGradient>
<linearGradient id="paint3_linear_1574_10057" x1="72.2845" y1="-0.324961" x2="100.083" y2="40.4911" gradientUnits="userSpaceOnUse">
<stop offset="0.137215" stop-color="#543291"/>
<stop offset="0.401763" stop-color="#A087CA"/>
<stop offset="1" stop-color="#A087CA"/>
</linearGradient>
</defs>
</svg>
