<svg width="70" height="70" viewBox="0 0 70 70" fill="none" xmlns="http://www.w3.org/2000/svg">
<path d="M2.86349 46.6789C2.26269 45.3225 1.41539 41.9422 1.07096 40.3915C-0.77806 32.0674 1.21228 22.1935 5.81304 15.0597C9.56195 9.13579 15.2129 4.66209 21.8389 2.37239C22.8772 2.01968 25.2251 1.44953 26.3102 1.21967C31.1144 0.201805 36.3164 0.469276 41.0456 1.77201C42.6582 2.21616 44.3504 2.61584 45.8004 3.55161L45.753 3.77286C45.5316 3.88842 45.4592 3.89397 45.2185 3.93605L45.4728 4.0791L45.6832 4.08548C45.3234 4.8792 45.3934 5.7912 45.5006 6.63428C45.5742 6.88196 45.6278 7.15937 45.7668 7.36546C46.2082 7.62258 47.1375 7.98415 47.4029 8.25195C47.994 7.78626 48.5781 7.31178 49.1551 6.82869C49.6625 6.61324 50.838 6.01377 51.2424 5.91951C54.6616 4.42154 59.0788 5.52323 61.652 8.13424C64.6414 10.6898 65.332 14.3905 64.5317 18.1289C64.3945 18.7699 64.2165 19.3556 63.9001 19.9352C64.6427 21.7714 64.4392 21.7835 64.8427 23.6279C65.1738 25.1416 65.5508 26.209 65.7759 27.8452C66.4101 32.7748 66.0886 37.7805 64.8292 42.5886C63.8845 46.3065 62.2268 49.9407 59.9734 53.0554C68.8652 51.5189 66.2698 52.0751 64.2352 58.9493C64.5918 59.957 66.4867 63.4482 66.0842 64.2646C65.9044 64.6291 65.461 64.7864 65.0963 64.8895C63.7344 65.2741 62.2234 65.4103 60.824 65.6102C60.8227 66.1244 60.8384 66.7537 60.7832 67.2526C60.3009 67.8214 59.9135 68.1566 59.1634 68.2986C56.33 68.8348 53.1257 69.1311 50.2563 69.368C41.7392 70.0297 33.1896 70.1715 24.6552 69.7923C21.0415 69.6012 17.4327 69.3283 13.8313 68.9742C11.7451 68.7871 6.81575 68.7064 5.42356 67.2319C5.30975 66.5898 5.30875 66.2652 5.30395 65.6081C-1.21062 64.6433 -0.977359 65.0001 2.06522 58.9718C1.26711 57.0416 0.387001 55.2608 0 53.2083C0.0942651 52.9733 0.301681 52.3948 0.537676 52.3429C2.08245 52.0039 4.82152 52.8775 6.38327 52.9871C5.62667 52.0519 4.26413 50.0502 4.02532 48.8769C3.54124 48.8521 2.92205 48.856 2.50391 48.6388C2.22128 48.0656 2.64895 47.2198 2.86349 46.6789Z" fill="#000003"/>
<path d="M37.3287 17.104C39.0061 14.7412 41.3509 12.9334 44.0626 11.9121C44.3765 12.4134 44.4681 12.5552 44.8903 12.9752C44.238 15.1964 44.013 16.0821 44.8449 18.4056C45.0471 18.9704 45.3919 19.7616 45.5503 20.3222C45.314 20.9777 45.2744 21.5491 45.0856 22.1753C44.8009 21.8711 44.5361 21.4939 44.0793 21.5494C44.0072 22.1525 47.3427 24.6469 47.0206 25.9661C46.5849 27.7504 45.0698 29.8145 46.9853 31.2004C47.4384 31.7489 47.9052 31.6397 48.5012 31.9493C48.6652 32.0344 49.9304 32.6555 49.9402 32.7059C50.7957 37.115 50.3913 41.8494 47.3732 45.4013C47.1037 45.7184 46.8233 45.9438 46.5908 46.3116C45.6879 47.2181 45.1672 47.6742 43.9159 47.7093L43.8246 47.6625L43.5907 47.7096C43.2537 47.649 43.3228 47.6097 43.0542 47.7323C42.9799 48.0867 43.1183 48.2989 43.298 48.6216C41.4738 49.702 40.8991 50.0483 38.7988 50.2845C38.7993 50.4441 38.7923 50.6784 38.8039 50.8306C39.3969 51.1347 40.7398 50.2791 41.2967 50.6446C41.3953 50.967 41.4137 50.8672 41.3231 51.1571C41.1345 51.2787 41.138 51.2617 40.9568 51.3515C39.8298 51.9095 38.6524 53.2503 37.5589 53.8797C37.414 53.9631 36.5045 53.7942 36.2907 53.8413C35.6431 53.9839 34.7655 54.3902 34.1252 54.4746C32.3534 54.7077 30.4556 54.6024 28.665 54.621C28.0319 54.6276 27.197 54.0779 26.746 54.3762C26.6715 54.5779 26.6729 54.6205 26.6659 54.8365C26.4278 54.8837 23.0399 53.8407 22.5363 53.3836C22.083 52.9721 21.6392 52.6383 21.2179 52.1299C21.1104 52.0002 20.6518 51.9514 20.526 51.6407C20.5728 51.3479 20.5227 51.4424 20.6898 51.2376C21.5306 51.042 23.0144 51.8564 23.5286 51.3974L23.4193 51.0347C23.2412 50.7896 19.9221 50.1972 19.3072 50.0151C8.98558 46.9591 8.22011 34.5126 12.855 26.2855C13.1679 25.7223 13.5158 25.1792 13.8966 24.6595C14.2942 24.1217 15.1344 23.1938 15.3396 22.589L15.2299 22.5341C14.8982 22.6614 14.6647 22.9505 14.4156 23.2092C14.0607 22.251 13.7571 21.0244 13.5659 20.0318C12.9453 16.8081 13.2165 15.6744 14.371 12.7487C17.452 13.3289 19.6531 15.5332 21.7598 17.5746C21.3561 17.8037 20.1582 18.632 20.0322 19.0315C20.4172 19.0718 21.6072 18.3514 22.1101 18.1308C22.3787 18.5108 22.4333 18.8433 22.9295 18.7617L23.006 18.6183C22.9102 18.4205 22.8202 18.2198 22.736 18.0168C22.8962 17.6156 24.5994 17.2491 25.0605 17.0945C28.8459 15.8263 32.5985 16.2343 36.3817 17.2772C36.2524 17.5404 36.0693 17.8534 36.1501 18.1348L36.2907 18.1775C36.5997 18.0654 36.7897 17.7646 36.9963 17.5016C37.7904 17.7252 37.9608 17.9491 38.9147 18.1107L38.9637 18.0404C38.4497 17.6276 37.9223 17.4348 37.3287 17.104Z" fill="#9072B7"/>
<path d="M38.7981 50.2862C38.9554 49.5536 40.0042 49.2834 40.5946 48.8788C41.0481 48.5681 43.4694 46.857 43.9341 47.4548L43.8239 47.6642L43.59 47.7113C43.253 47.6507 43.3221 47.6114 43.0535 47.734C42.9791 48.0884 43.1176 48.3006 43.2973 48.6233C41.4731 49.7037 40.8984 50.05 38.7981 50.2862Z" fill="#7352A6"/>
<path d="M19.3046 34.5713C19.982 34.6116 22.1933 35.5884 22.8289 35.9862C24.1442 36.8092 24.455 38.0831 24.7604 39.4748C24.0269 40.9168 24.158 41.8727 22.3252 42.6232C21.4203 42.8786 20.7135 43.0023 19.7711 42.702C18.9526 42.4476 18.2723 41.8724 17.8855 41.1076C17.127 39.6294 17.2498 37.1632 18.8112 36.225C18.9972 36.1132 19.2149 36.0066 19.4098 35.9074C19.2511 35.6768 19.1627 35.543 19.033 35.2945C19.043 34.8922 19.0761 34.9626 19.3046 34.5713Z" fill="#000003"/>
<path d="M19.7153 36.1151C21.6036 36.0239 21.5154 38.2202 20.1784 38.9011C18.3875 39.1193 18.1255 36.7233 19.7153 36.1151Z" fill="white"/>
<path d="M22.5632 39.3936L22.68 39.4298C23.3686 40.1925 22.4865 40.7062 21.7419 40.8024L21.4583 40.7365C21.0999 40.2992 22.2247 39.6496 22.5632 39.3936Z" fill="#432378"/>
<path d="M38.6529 37.3709C39.2652 37.284 40.3034 37.3455 40.8815 37.5667C41.9489 37.975 42.2028 38.7442 42.6224 39.6948C42.321 40.2287 42.1793 39.3456 41.7804 39.8106C40.6645 38.6887 40.4092 38.3038 38.8368 38.245C37.2838 38.3515 37.0429 39.0782 35.9093 40.0262C35.5544 39.5556 35.4272 40.3554 35.1399 39.8394C35.9836 38.2551 37.0025 37.6705 38.6529 37.3709Z" fill="#000003"/>
<path d="M30.0326 39.8271C30.3697 39.8411 30.7762 39.8808 30.9163 40.2102C30.7864 40.5085 30.5787 40.7344 30.5077 40.9129C30.4353 41.0963 30.4475 41.3022 30.5408 41.4758C30.966 42.2555 32.5191 42.2592 33.272 42.242C33.4894 41.8696 33.5892 41.5026 34.0555 41.5624C34.4276 42.1084 34.0034 42.3607 33.5942 42.632C33.4052 43.1589 33.3061 43.7343 32.7161 43.8505C32.2563 43.7029 32.0576 43.1745 31.8371 42.7503C31.2881 42.6103 30.7548 42.4324 30.2153 42.2595C30.0586 42.2891 28.8794 42.8579 28.6457 42.963C28.526 43.3706 28.3995 43.8817 27.9561 44.0355C27.3583 43.9143 27.2408 43.1769 26.8624 42.7562C26.7955 42.6818 26.3584 42.4707 26.1755 42.339C26.1103 42.0744 26.0971 42.0343 26.1742 41.7706C26.6467 41.4955 26.8926 42.0258 27.069 42.3402C28.705 42.4647 29.1454 42.4286 30.0619 41.0266C29.7305 40.8023 29.4249 40.6785 29.3644 40.2753C29.4971 40.0287 29.7687 39.9479 30.0326 39.8271Z" fill="#000003"/>
<path d="M27.4294 42.8154C27.7778 42.8251 27.9537 42.8142 28.2063 42.9953C28.2787 43.2472 28.1601 43.4292 28.053 43.6846C27.5024 43.6995 27.4695 43.273 27.4294 42.8154Z" fill="#C8BDC0"/>
<path d="M32.395 42.7123C32.7573 42.7153 32.8735 42.6838 33.1297 42.8658C33.1991 43.1001 33.0741 43.3087 32.976 43.5368C32.7092 43.5558 32.8155 43.5803 32.5761 43.4301C32.4152 43.1521 32.4213 43.0312 32.395 42.7123Z" fill="#F8EED5"/>
<path d="M16.0335 41.6525C16.8848 41.5549 18.2273 41.6401 18.4415 42.6981C18.4977 42.9705 18.4436 43.2541 18.2911 43.4867C17.8951 44.0977 17.4331 44.1062 16.7552 44.2406C14.3988 44.4934 13.5793 42.7444 16.0335 41.6525Z" fill="#C079B7"/>
<path d="M43.4444 41.0013C45.1033 40.8682 46.3824 42.9197 44.195 43.6851C42.2222 43.9386 41.3836 41.9112 43.4444 41.0013Z" fill="#C079B7"/>
<path d="M63.1731 20.8529C63.2963 20.5568 63.6342 20.1315 63.9001 19.9355C64.6427 21.7717 64.4392 21.7838 64.8427 23.6283C65.1738 25.1419 65.5508 26.2093 65.7759 27.8455C66.4101 32.7752 66.0886 37.7808 64.8292 42.5889C63.8845 46.3068 62.2268 49.941 59.9734 53.0557C68.8652 51.5193 66.2698 52.0754 64.2352 58.9496C64.5918 59.9574 66.4867 63.4486 66.0842 64.2649C65.9044 64.6294 65.461 64.7868 65.0963 64.8898C63.7344 65.2744 62.2234 65.4106 60.824 65.6106C60.8227 66.1247 60.8384 66.7541 60.7832 67.2529C60.3009 67.8217 59.9135 68.157 59.1634 68.299C56.33 68.8351 53.1257 69.1314 50.2563 69.3683C41.7392 70.0301 33.1896 70.1718 24.6552 69.7927C21.0415 69.6015 17.4327 69.3287 13.8313 68.9745C11.7451 68.7874 6.81575 68.7067 5.42356 67.2322C5.30975 66.5902 5.30875 66.2655 5.30395 65.6085C-1.21062 64.6437 -0.977359 65.0004 2.06522 58.9722C1.26711 57.042 0.387001 55.2612 0 53.2087C0.0942651 52.9737 0.301681 52.3951 0.537676 52.3433C2.08245 52.0042 4.82152 52.8778 6.38327 52.9875C5.62667 52.0522 4.26413 50.0505 4.02532 48.8773C4.4882 48.7969 4.64774 48.7635 5.12966 48.802L5.81296 48.9411C8.16147 49.6867 8.9276 50.5816 10.3491 52.4802L10.5965 52.2996C11.3845 53.5957 14.2049 55.8931 14.4397 56.5319C16.1519 56.7571 18.0243 56.8558 19.7548 57.0107C27.0045 57.6599 33.928 57.5912 41.1777 57.3779C43.3947 57.3288 45.6095 57.2068 47.8184 57.0121C48.9557 56.919 50.3417 56.8297 51.4381 56.5807C52.2483 55.7287 53.2485 55.0145 54.0095 54.1033C54.845 53.1028 55.8412 52.1717 56.6422 51.1498C56.9024 50.6153 57.5377 49.8283 57.8617 49.2986C58.4919 48.2682 59.1136 47.187 59.5631 46.0654L59.3391 45.9031C59.7494 45.8679 60.9921 45.5149 61.4536 45.3942C61.2911 44.6557 61.1488 44.0064 60.9286 43.2792L60.7782 42.9618C60.99 42.5931 62.3725 34.5198 62.309 33.3643C62.2746 32.7385 62.1515 30.756 62.1496 30.0217C62.1494 29.9373 62.278 29.9093 62.3803 29.864C62.8289 29.7742 63.2248 29.2677 63.7684 29.1779L63.6403 29.1195C63.0635 29.233 61.7602 30.5149 61.4994 29.3387L61.6255 29.1767C62.136 29.0595 61.7616 29.0844 62.1014 29.2912C61.9087 27.7902 61.2667 25.6503 60.9405 24.1059C60.8916 23.8741 60.7496 23.8555 60.5616 23.774C60.7367 23.672 60.9419 23.4585 61.0949 23.3139L61.2694 23.0287C61.7895 22.8448 62.8619 21.3247 63.1731 20.8529Z" fill="#DEA141"/>
<path d="M63.1727 20.8525C63.8425 22.037 64.1739 24.0367 64.4674 25.369C65.9543 32.1206 65.506 39.5006 62.885 45.921C62.6148 46.5829 62.4386 47.3205 62.1599 47.9822C61.3835 49.5965 60.3938 51.2357 59.2918 52.6505C58.7286 53.3736 58.1999 54.1146 57.6645 54.8284C57.2006 55.4469 56.977 55.3253 56.4458 56.2655C55.5871 56.4312 54.3394 56.5006 53.441 56.5594C52.9891 56.6092 51.773 56.7837 51.4377 56.5803C52.2479 55.7284 53.2482 55.0142 54.0091 54.103C54.8446 53.1025 55.8408 52.1714 56.6418 51.1495C56.902 50.615 57.5373 49.828 57.8613 49.2983C58.4916 48.2679 59.1132 47.1867 59.5627 46.0651L59.3387 45.9028C59.749 45.8676 60.9917 45.5146 61.4532 45.3939C61.2908 44.6554 61.1484 44.0061 60.9282 43.2789L60.7778 42.9615C60.9896 42.5928 62.3721 34.5195 62.3086 33.364C62.2743 32.7381 62.1512 30.7557 62.1492 30.0214C62.149 29.937 62.2776 29.9089 62.38 29.8637C62.8285 29.7739 63.2244 29.2674 63.768 29.1776L63.6399 29.1192C63.0631 29.2327 61.7599 30.5146 61.499 29.3384L61.6251 29.1764C62.1356 29.0592 61.7612 29.0841 62.1011 29.2908C61.9083 27.7899 61.2663 25.65 60.9401 24.1056C60.8912 23.8737 60.7492 23.8552 60.5613 23.7737C60.7363 23.6717 60.9415 23.4582 61.0945 23.3135L61.2691 23.0283C61.7891 22.8444 62.8615 21.3244 63.1727 20.8525Z" fill="#F3C97B"/>
<path d="M60.7783 42.9611C60.9901 42.5924 62.3726 34.5191 62.3092 33.3635C62.2748 32.7377 62.1517 30.7552 62.1497 30.0209C62.1496 29.9366 62.2781 29.9085 62.3805 29.8633C62.5405 29.9956 62.622 30.0217 62.6101 30.2519C62.5266 31.8781 62.6085 33.5158 62.6242 35.1314C62.6457 37.3324 62.1155 39.4919 61.5763 41.6058C61.4238 42.1825 61.3669 42.8753 60.9288 43.2784L60.7783 42.9611Z" fill="#E4AC53"/>
<path d="M61.0948 23.3154C61.9169 24.9971 62.0965 26.5243 62.5353 28.3177C62.6699 28.8679 62.8019 29.1059 62.1013 29.2927C61.9086 27.7918 61.2666 25.6518 60.9404 24.1075C60.8914 23.8756 60.7495 23.8571 60.5615 23.7756C60.7366 23.6736 60.9418 23.4601 61.0948 23.3154Z" fill="#ECB354"/>
<path d="M56.6418 51.1494L56.9089 51.1998C55.9549 52.6931 53.4498 55.4301 52.1002 56.5823C52.5631 56.5553 52.9773 56.5194 53.441 56.5593C52.9891 56.6091 51.773 56.7836 51.4377 56.5803C52.2479 55.7283 53.2482 55.0141 54.0091 54.1029C54.8446 53.1024 55.8408 52.1713 56.6418 51.1494Z" fill="#D59539"/>
<path d="M59.563 46.0654L59.7016 46.129C59.3364 47.9502 58.0643 49.7957 56.9091 51.2002L56.6421 51.1499C56.9023 50.6153 57.5376 49.8283 57.8616 49.2987C58.4919 48.2682 59.1135 47.1871 59.563 46.0654Z" fill="#D59539"/>
<path d="M5.12985 48.8037L5.81315 48.9429C8.16166 49.6885 8.9278 50.5833 10.3493 52.482L10.5967 52.3013C11.3847 53.5974 14.2051 55.8948 14.4399 56.5336C13.9654 56.5896 13.5644 56.5379 13.0963 56.4858C12.0939 56.4046 11.0903 56.3392 10.0857 56.2898C9.79888 56.0394 9.15965 55.4313 8.9215 55.1743C8.16291 54.3555 4.85228 49.9076 4.89096 48.927L5.12985 48.8037Z" fill="#F3C97B"/>
<path d="M10.3491 52.4775L10.5965 52.2969C11.3845 53.593 14.2049 55.8904 14.4397 56.5292C13.9652 56.5852 13.5642 56.5335 13.0961 56.4814C13.4613 56.4641 13.9575 56.5043 14.3319 56.5235L14.2988 56.4996C13.3914 55.8373 10.7196 53.3395 10.3491 52.4775Z" fill="#ECB354"/>
<path d="M52.5163 60.8031C53.6582 60.5448 53.8523 60.4322 55.1085 60.5491C56.0753 60.5632 57.0962 60.7249 57.1387 61.9746C57.1596 62.591 56.7489 63.0542 56.4026 63.5371C56.6062 63.8633 57.117 64.5164 57.1605 64.7749C57.0491 65.1543 56.8294 65.161 56.4664 65.2921C55.9123 64.678 55.3781 64.0462 54.8645 63.3979C54.8334 64.0084 54.8125 64.6813 54.7447 65.2829C54.4759 65.337 54.0966 65.4565 53.8735 65.3243C53.7677 65.1608 53.7566 65.1389 53.7303 64.9463L53.6805 65.1213L53.6124 65.1349C53.5759 64.8279 53.6256 64.7186 53.4405 64.5677L53.3231 64.6016C53.3069 64.7712 53.2666 65.1522 53.1503 65.2698C52.6723 65.7531 51.0176 65.7078 50.3164 65.7634C50.1383 64.7338 50.1943 62.1436 50.2226 61.0184C50.9882 60.9602 51.7561 60.9107 52.5163 60.8031Z" fill="white"/>
<path d="M52.5161 60.8031C53.6581 60.5448 53.8521 60.4322 55.1083 60.5491C56.0752 60.5632 57.096 60.7249 57.1385 61.9746C57.1595 62.591 56.7487 63.0542 56.4024 63.5371C56.606 63.8633 57.1169 64.5164 57.1603 64.7749C57.049 65.1543 56.8293 65.161 56.4662 65.2921C55.9121 64.678 55.3779 64.0462 54.8643 63.3979C54.8332 64.0084 54.8124 64.6813 54.7445 65.2829C54.4757 65.337 54.0964 65.4565 53.8733 65.3243C53.7675 65.1608 53.7565 65.1389 53.7301 64.9463C53.6635 64.3071 53.6376 63.5307 53.5991 62.8794C53.4825 62.5078 53.5777 62.1974 53.4192 61.834C53.0815 61.6363 53.0643 61.7102 52.6298 61.7015C52.814 61.6427 52.8514 61.6239 53.0159 61.5221C53.1537 61.233 53.1396 61.3558 53.0861 61.0583C52.8228 60.8018 52.9175 60.8766 52.5161 60.8031Z" fill="white"/>
<path d="M52.5161 60.8031C53.6581 60.5448 53.8521 60.4322 55.1083 60.5491C54.5647 60.6165 54.2416 60.6331 53.6937 60.6379C53.5989 61.4157 53.6043 62.1002 53.5991 62.8794C53.4825 62.5078 53.5777 62.1974 53.4192 61.834C53.0815 61.6363 53.0643 61.7102 52.6298 61.7015C52.814 61.6427 52.8514 61.6239 53.0159 61.5221C53.1537 61.233 53.1396 61.3558 53.0861 61.0583C52.8228 60.8018 52.9175 60.8766 52.5161 60.8031Z" fill="#ECB354"/>
<path d="M54.8019 61.4346C55.3344 61.4395 55.7951 61.5018 56.0773 61.9877C56.0404 62.351 56.0713 62.2281 55.8382 62.5365C55.4941 62.7141 55.3151 62.7964 54.9532 62.7161C54.6449 62.3109 54.7544 61.9622 54.8019 61.4346Z" fill="#ECB354"/>
<path d="M52.63 61.7009C53.0645 61.7096 53.0817 61.6356 53.4194 61.8334C53.5779 62.1968 53.4827 62.5072 53.5993 62.8788C53.6378 63.53 53.6637 64.3065 53.7303 64.9457L53.6806 65.1206L53.6125 65.1343C53.5759 64.8273 53.6256 64.718 53.4406 64.567L53.3231 64.601C52.619 64.3815 51.7629 64.6886 51.3132 64.5309C51.1891 64.3398 51.2254 64.2243 51.2515 64.0015C51.5975 63.379 52.4915 63.657 52.9998 63.2755C53.0605 62.3047 51.6225 63.1078 51.1904 62.5754C51.1274 62.2794 51.1381 62.2416 51.2308 61.9585C51.5328 61.6647 52.1878 61.6988 52.63 61.7009Z" fill="#D59539"/>
<path d="M9.53321 61.2111C10.1363 60.8665 10.4037 60.2615 11.1873 60.2996C13.4002 60.407 14.3083 62.3248 13.5345 64.2043C13.3127 64.3819 13.101 64.4747 13.0639 64.695L13.1304 64.7426C13.4073 64.9439 13.5851 65.1087 13.5458 65.4822C13.2087 65.9068 12.7995 65.7585 12.4499 65.4476C12.3599 65.3667 12.2712 65.2844 12.1837 65.2007C11.8491 65.1894 11.4362 65.1639 11.1081 65.1834C10.4716 65.2787 10.1354 64.9209 9.55665 64.7627C9.0425 64.6223 8.19337 64.7622 7.8197 64.324C7.633 63.4174 8.43847 63.3503 8.77876 62.8277C9.01583 62.4634 8.74123 61.4873 9.53321 61.2111Z" fill="white"/>
<path d="M11.1081 65.1832C10.4716 65.2786 10.1354 64.9207 9.55665 64.7626C9.0425 64.6222 8.19337 64.7621 7.8197 64.3238C7.633 63.4172 8.43847 63.3502 8.77876 62.8275C9.01583 62.4633 8.74123 61.4872 9.53321 61.2109C8.44841 63.151 9.11059 64.4164 11.1081 65.1832Z" fill="#ECB354"/>
<path d="M11.1217 61.2861C12.5001 61.3155 13.3047 62.912 12.5739 63.5246C12.1985 63.5705 12.1147 63.2575 11.6466 63.1749C11.4251 63.2956 11.4926 63.2521 11.3909 63.5507C11.4117 63.7914 11.4517 63.9342 11.3391 64.1433C10.4404 64.4268 9.15331 62.3753 11.1217 61.2861Z" fill="#D59539"/>
<path d="M46.9554 62.9965C47.5549 62.3472 48.4824 60.6792 49.4226 61.1427C49.5065 61.7447 48.4822 62.8538 48.0204 63.233C48.4214 63.7184 49.5811 64.9927 49.6643 65.5376L49.6011 65.6697C49.3878 65.7404 48.9315 65.875 48.7495 65.7385C48.1298 65.2737 47.7074 64.5838 47.097 64.0545L46.9777 65.838C46.6603 65.8456 46.2135 65.8834 45.9241 65.7874C45.6953 65.7496 45.398 65.7708 45.1606 65.7771C45.25 64.7968 45.2219 62.3022 45.124 61.3087C45.3082 61.2575 45.677 61.2223 45.8795 61.1976C46.2316 61.1871 46.6341 61.1652 46.9822 61.179C47.0179 61.9101 47.0303 62.2736 46.9554 62.9965Z" fill="white"/>
<path d="M45.124 61.3103C45.3082 61.2591 45.677 61.224 45.8795 61.1992C45.8222 62.6385 45.8944 64.3306 45.9241 65.7891C45.6953 65.7512 45.398 65.7724 45.1606 65.7788C45.25 64.7984 45.2219 62.3038 45.124 61.3103Z" fill="#ECB354"/>
<path d="M44.0966 61.1982C44.4534 61.1979 44.7735 61.2567 45.124 61.3111C45.222 62.3046 45.25 64.7992 45.1606 65.7795C45.0201 65.8553 44.6263 66.0043 44.4983 65.9552C43.7356 65.6627 42.6206 63.9199 42.2156 63.2869C42.3079 64.08 42.3779 64.8967 42.3269 65.6946C42.2997 66.1202 41.6437 66.0669 41.3603 65.9788C41.1277 65.7076 41.1674 63.4913 41.1468 62.9864C41.1227 62.3985 41.0449 61.4289 41.7275 61.2205C41.8538 61.2421 42.163 61.2967 42.2169 61.4034C42.7084 62.3751 43.4328 63.0953 44.0739 63.9671C44.0708 63.0441 44.0784 62.121 44.0966 61.1982Z" fill="white"/>
<path d="M37.7844 61.288C38.1687 61.2896 38.3641 61.2545 38.6424 61.5033C38.8478 62.6575 38.6693 64.5202 38.6751 65.7372C38.6762 65.9651 38.111 66.1431 37.8552 66.0732C37.4695 65.6464 37.5979 64.9342 37.6121 64.3023C37.12 64.2735 36.5419 64.2953 36.0413 64.302C36.0223 64.9661 36.0822 65.6291 35.7233 66.1777C35.4455 66.2008 35.2133 66.2482 34.9641 66.1278C34.6597 65.7106 34.8091 62.132 34.8209 61.3553C35.1576 61.3561 35.5486 61.3821 35.8897 61.3959C35.9386 61.9758 35.9581 62.6363 35.9891 63.2238C36.5185 63.2124 37.0978 63.227 37.6313 63.2298C37.6469 62.7489 37.6471 61.7008 37.7844 61.288Z" fill="white"/>
<path d="M25.269 61.2946C25.3728 61.2839 25.4768 61.2747 25.5809 61.2668C26.6039 61.1926 26.3326 62.4437 26.3741 63.2292C26.7113 62.8992 28.5553 60.1896 28.8392 61.7646C28.6748 62.4017 27.8182 63.0331 27.31 63.6208C27.5357 63.9994 28.1244 64.6015 28.4531 65.0443C28.6578 65.3824 28.9339 65.7272 28.717 66.1013C27.7133 66.5138 27.0921 64.7932 26.4895 64.3275C26.1113 64.8039 26.6045 65.7646 25.8079 66.0881C25.4758 66.0422 25.5994 66.0973 25.3421 65.8757C25.1153 65.4755 25.2006 61.9056 25.269 61.2946Z" fill="white"/>
<path d="M14.4357 60.6729C14.767 60.6859 15.1845 60.7477 15.5206 60.7876C15.5348 61.6675 15.4338 62.5601 15.4428 63.4445C15.4476 63.9167 15.4406 64.2554 15.9549 64.4376C16.3362 64.5728 16.6248 64.5496 16.9874 64.3791C17.4698 63.959 17.163 61.8661 17.3589 61.0541C17.5047 60.9264 17.9349 60.9262 18.1531 60.9084C18.436 61.2878 18.2428 63.3943 18.2237 63.9612C18.0015 66.0478 15.5714 66.2899 14.4436 64.4956C14.3325 63.0655 14.3511 62.0794 14.4357 60.6729Z" fill="white"/>
<path d="M22.3076 61.1329C23.0575 61.0763 24.9388 61.2343 24.6422 62.3988C24.0946 62.7793 23.0174 62.0245 22.3688 62.3602C21.275 62.9264 21.5961 64.5729 22.6431 65.0086C23.0141 65.163 23.6695 64.7454 23.9686 64.5836C24.2362 64.6583 24.3238 64.6658 24.5077 64.8858C24.6088 65.1457 24.6114 65.1775 24.5343 65.4452C23.7991 66.4786 21.1822 65.9457 20.775 64.6835C20.1906 62.872 20.6883 61.8873 22.3076 61.1329Z" fill="white"/>
<path d="M30.8786 61.325C31.9469 61.257 33.3051 61.3258 34.3902 61.3541L34.4171 62.4638C34.0323 62.503 33.6003 62.4943 33.2102 62.4963L33.214 65.2857C33.2069 65.4198 33.1632 65.988 33.0629 66.0367C31.7674 66.665 32.0231 64.5847 32.0208 63.9379C32.0188 63.4005 32.0296 62.9932 32.0344 62.5235C31.6171 62.5289 31.1516 62.4863 30.7316 62.4581C30.7102 62.0929 30.6185 61.5903 30.8786 61.325Z" fill="white"/>
<path d="M39.3103 61.6735C39.5049 61.1668 40.0013 61.3363 40.5058 61.3735C40.5221 62.1136 40.6195 65.5441 40.3882 65.942C40.0583 66.0466 39.8721 66.0177 39.5245 66.0001C39.2765 65.7685 39.308 65.4536 39.2834 65.0874C39.2694 65.4029 39.2928 65.6069 39.0947 65.8491L38.9826 65.8538C38.6932 65.3211 38.6315 61.958 39.0203 61.4945L39.2185 61.4946L39.3103 61.6735Z" fill="white"/>
<path d="M39.2834 65.089C39.2694 65.4045 39.2928 65.6086 39.0947 65.8508L38.9826 65.8554C38.6932 65.3227 38.6315 61.9596 39.0203 61.4961L39.2185 61.4963L39.3103 61.6751C39.2968 62.7076 39.3373 64.109 39.2834 65.089Z" fill="#D59539"/>
<path d="M18.1528 60.9091C18.2908 60.8507 19.8917 60.9448 20.1175 60.9971C20.1379 61.888 20.1255 62.8135 20.0889 63.7034C20.0636 64.3203 20.1685 65.6395 19.4418 65.8166C19.151 65.7023 19.1005 65.6804 18.9438 65.3558C18.7007 64.4322 19.2428 62.9175 18.4681 62.4121C18.3035 62.8678 18.5584 63.3557 18.2234 63.9618C18.2425 63.3949 18.4357 61.2884 18.1528 60.9091Z" fill="white"/>
<path d="M18.1528 60.9091C18.2908 60.8507 19.8917 60.9448 20.1175 60.9971C19.7389 61.0302 19.4475 61.0475 19.0677 61.0489C19.0317 62.2287 19.0594 64.285 18.9438 65.3558C18.7007 64.4322 19.2428 62.9175 18.4681 62.4121C18.3035 62.8678 18.5584 63.3557 18.2234 63.9618C18.2425 63.3949 18.4357 61.2884 18.1528 60.9091Z" fill="#ECB354"/>
<path d="M2.86388 46.6789C2.26308 45.3225 1.41577 41.9422 1.07135 40.3915C-0.777671 32.0674 1.21266 22.1935 5.81343 15.0597C9.56234 9.13579 15.2133 4.66209 21.8393 2.37239C22.8776 2.01968 25.2255 1.44953 26.3106 1.21967C31.1148 0.201805 36.3168 0.469276 41.046 1.77201C42.6586 2.21616 44.3508 2.61584 45.8008 3.55161L45.7534 3.77286C45.532 3.88842 45.4596 3.89397 45.2189 3.93605L45.4732 4.0791L45.6836 4.08548C45.3238 4.8792 45.3938 5.7912 45.501 6.63428C45.5746 6.88196 45.6282 7.15937 45.7672 7.36546C46.2086 7.62258 47.1379 7.98415 47.4033 8.25195C46.5565 8.86036 45.6484 10.4823 45.3113 11.4943C44.9709 11.4339 44.7796 11.3258 44.467 11.1771C40.8769 11.7024 38.9493 14.2933 36.614 16.6046C35.9279 16.2673 35.0379 16.1863 34.2925 16.0316C31.2987 15.4106 26.9818 15.5548 24.0222 16.5531C23.4523 16.7411 22.9077 16.9986 22.4006 17.3196C22.0352 16.5986 21.6547 16.3274 21.0888 15.7742C19.1356 13.865 17.3212 12.9455 14.8211 11.9989C13.8576 12.1588 13.8062 12.3447 13.3295 13.1619C12.5968 15.122 12.1594 17.6609 11.6382 19.7068C11.3805 20.7179 11.4748 22.1574 11.3963 23.2167C11.2787 24.2783 11.6667 26.2986 11.4566 27.2061C11.1046 28.7264 10.2399 30.048 9.9442 31.7332C9.2199 36.0351 9.14278 38.3073 10.2867 42.5914C9.48373 41.7895 8.84168 40.8922 7.78754 40.4909C6.84563 40.7871 6.20358 41.1914 5.43886 41.825C5.33474 41.9531 5.23053 42.0495 5.21421 42.2118C4.51095 43.1266 3.77779 43.9161 3.50444 45.0603L3.17964 45.9708C3.08637 46.2126 3.0047 46.4639 2.86388 46.6789Z" fill="#F8D99A"/>
<path d="M32.8579 4.12793C33.1579 4.26883 34.9296 4.35349 35.4254 4.39673C36.9189 4.52702 38.3022 4.81413 39.7703 5.10305C40.5817 5.22175 42.0465 5.6428 42.7314 6.08381L43.4039 6.36337L43.465 6.35277C44.2208 6.64244 44.366 6.71699 45.0687 7.10291C45.2465 7.17357 45.2629 7.19155 45.4151 7.31124C45.5801 6.91165 45.2389 7.07144 45.5003 6.63391C45.574 6.88158 45.6276 7.15899 45.7666 7.36508C46.208 7.6222 47.1372 7.98377 47.4026 8.25157C46.5559 8.85999 45.6478 10.4819 45.3107 11.4939C44.9703 11.4336 44.7789 11.3254 44.4663 11.1767C40.8763 11.702 38.9487 14.2929 36.6134 16.6042C35.9273 16.2669 35.0372 16.1859 34.2919 16.0313C31.298 15.4103 26.9811 15.5544 24.0216 16.5527C23.4517 16.7407 22.907 16.9982 22.4 17.3193C22.0345 16.5983 21.6541 16.327 21.0882 15.7738C19.135 13.8647 17.3205 12.9451 14.8205 11.9985C14.4654 11.9603 14.4073 11.9953 14.1924 11.783C14.1986 11.7608 14.2049 11.7387 14.2111 11.7166C17.6099 8.2997 22.7702 5.96337 27.4199 5.15226C29.2408 4.83459 31.8377 5.08052 32.5703 4.67074L32.8579 4.12793Z" fill="#F9DD98"/>
<path d="M32.8584 4.12793C33.1584 4.26883 34.9302 4.35349 35.4259 4.39673C36.9194 4.52702 38.3028 4.81413 39.7708 5.10305L39.5245 5.59418C38.252 5.28653 37.4535 5.19641 36.2028 5.05377C35.3487 4.95635 33.1916 4.92985 32.5708 4.67074L32.8584 4.12793Z" fill="#F3C97B"/>
<path d="M43.4043 6.36314L43.4654 6.35254C44.2212 6.64221 44.3664 6.71676 45.0691 7.10268C45.2468 7.17334 45.2632 7.19132 45.4155 7.31101C45.1877 7.89864 45.5396 8.05569 45.396 8.68158C44.8015 8.44435 44.4186 7.92597 43.9454 7.93202C43.8936 7.85821 43.8394 7.78607 43.7831 7.71557C43.6217 7.51561 43.4932 7.40702 43.2354 7.3791C43.4476 7.15835 43.4007 6.68512 43.4043 6.36314Z" fill="#FCD067"/>
<path d="M39.7703 5.10156C40.5816 5.22026 42.0465 5.64131 42.7314 6.08232L42.5185 6.41796C41.9502 6.41266 40.2521 5.78635 39.5239 5.59269L39.7703 5.10156Z" fill="#ECB354"/>
<path d="M42.7312 6.08496L43.4036 6.36453C43.4001 6.6865 43.447 7.15973 43.2347 7.38049C42.7041 7.16578 42.7518 6.93956 42.5183 6.4206L42.7312 6.08496Z" fill="#FCD067"/>
<path d="M43.9453 7.93267C44.4185 7.92662 44.8014 8.445 45.3959 8.68223C45.3315 8.8701 45.3755 8.80442 45.1611 8.92138C44.6057 8.86033 44.164 8.42677 43.9453 7.93267Z" fill="#ECB354"/>
<path d="M8.85669 17.8762C9.71378 16.6953 11.6355 13.9404 12.9296 13.0598C13.0376 12.9863 13.2073 13.1021 13.3289 13.1607C12.5962 15.1208 12.1589 17.6598 11.6376 19.7057C11.38 20.7168 11.4743 22.1563 11.3957 23.2155C11.2781 24.2772 11.6662 26.2975 11.456 27.205C11.1041 28.7252 10.2394 30.0469 9.94364 31.7321C9.0087 31.4574 7.16879 28.879 6.78949 27.8966C6.48466 28.2852 6.44241 28.417 5.98542 28.497C5.76193 28.3837 5.83226 28.4611 5.7399 28.1826C5.75282 27.8456 5.95046 27.6429 6.15506 27.3712C5.87152 27.1713 5.38346 26.7823 5.23975 26.4708C5.54242 25.7451 6.32032 23.3796 6.50735 22.6608C6.49758 21.4018 8.14689 19.271 8.59287 18.1661L8.85669 17.8762Z" fill="#FAE5B8"/>
<path d="M2.86388 46.6789C2.26308 45.3225 1.41577 41.9422 1.07135 40.3915C-0.777671 32.0674 1.21266 22.1935 5.81343 15.0597C9.56234 9.13579 15.2133 4.66209 21.8393 2.37239C22.8776 2.01968 25.2255 1.44953 26.3106 1.21967C31.1148 0.201805 36.3168 0.469276 41.046 1.77201C42.6586 2.21616 44.3508 2.61584 45.8007 3.55161L45.7534 3.77286C45.532 3.88842 45.4596 3.89397 45.2189 3.93605C43.3471 3.42421 41.8182 2.70149 39.9824 2.2797C32.1292 0.394973 23.8535 1.56103 16.8269 5.54212C3.53583 13.1246 -1.94462 30.565 3.14551 44.6941C3.19107 44.8205 3.39683 44.9846 3.50443 45.0603L3.17964 45.9708C3.08637 46.2126 3.0047 46.4639 2.86388 46.6789Z" fill="#D59539"/>
<path d="M6.04449 22.5605L6.50736 22.6596C6.32033 23.3784 5.54243 25.7439 5.23976 26.4696C5.38347 26.7811 5.87153 27.1701 6.15507 27.37C5.95047 27.6417 5.75283 27.8444 5.73991 28.1814C5.83227 28.4599 5.76194 28.3825 5.98543 28.4959C6.44242 28.4158 6.48467 28.284 6.7895 27.8954C7.16879 28.8778 9.0087 31.4563 9.94365 31.7309C9.21935 36.0328 9.14223 38.305 10.2862 42.5891C9.48318 41.7872 8.84113 40.8899 7.78698 40.4886C6.84508 40.7848 6.20303 41.1891 5.43831 41.8227C5.11426 41.3334 5.1599 40.2854 5.04733 39.6688C4.2368 35.2301 4.2542 30.896 5.19892 26.4837C5.14798 26.2199 5.07583 26.1581 4.90776 25.9586C4.77945 25.6053 5.72897 23.4943 5.7853 23.0284L6.04449 22.5605Z" fill="#F3C97B"/>
<path d="M8.85686 17.8745C8.61366 17.7674 8.5956 17.8112 8.50854 17.6128C8.89936 16.5091 9.55457 15.754 10.2318 14.823C13.5098 10.317 18.5482 7.01664 23.8136 5.32376C25.515 4.77672 31.3009 3.62102 32.8581 4.12548L32.5705 4.66829C31.8379 5.07807 29.2411 4.83214 27.4201 5.14981C22.7704 5.96092 17.6102 8.29725 14.2113 11.7142C14.2051 11.7363 14.1988 11.7584 14.1926 11.7805C14.4076 11.9929 14.4656 11.9579 14.8208 11.996C13.8572 12.156 13.8058 12.3419 13.3291 13.159C13.2075 13.1004 13.0377 12.9846 12.9297 13.0581C11.6357 13.9387 9.71395 16.6936 8.85686 17.8745Z" fill="#ECB354"/>
<path d="M4.90798 25.959C5.07605 26.1584 5.1482 26.2202 5.19914 26.484C4.25442 30.8963 4.23703 35.2304 5.04756 39.6692C5.16013 40.2857 5.11449 41.3337 5.43853 41.823C5.33441 41.9512 5.23021 42.0475 5.21389 42.2099C4.97938 41.5937 4.72599 40.572 4.57623 39.9053C3.54818 35.3298 3.41274 30.4346 4.90798 25.959Z" fill="#D59539"/>
<path d="M7.85505 18.1331C7.89017 17.8756 7.96107 17.8864 8.18771 17.668L8.3026 17.6763C8.37392 17.9196 8.41186 17.989 8.59301 18.1667C8.14704 19.2716 6.49773 21.4025 6.5075 22.6615L6.04463 22.5624L5.78544 23.0302C5.56328 22.8337 5.62664 22.9329 5.5376 22.6574C5.70608 21.2754 7.17713 19.3041 7.85505 18.1331Z" fill="#F8EED5"/>
<path d="M7.85534 18.1331C7.89046 17.8756 7.96137 17.8864 8.188 17.668L8.3029 17.6763C8.37422 17.9196 8.41215 17.989 8.59331 18.1667C8.14733 19.2716 6.49802 21.4025 6.5078 22.6615L6.04492 22.5624C6.47069 21.7876 6.75763 20.9686 7.14048 20.1698C7.48814 19.4443 8.00105 18.7178 8.26487 17.9684L8.2189 17.9132L7.85534 18.1331Z" fill="#F9DD98"/>
<path d="M43.4653 6.35266C43.9724 5.88589 45.0523 6.50234 45.069 7.10281C44.3663 6.71688 44.2211 6.64233 43.4653 6.35266Z" fill="#FAE5B8"/>
<path d="M51.2426 5.91833C54.6618 4.42036 59.079 5.52205 61.6522 8.13306C64.6416 10.6886 65.3322 14.3894 64.5319 18.1277C64.3947 18.7687 64.2167 19.3544 63.9003 19.934C63.6344 20.13 63.2965 20.5553 63.1733 20.8513C62.862 21.3231 61.7897 22.8432 61.2696 23.0271L61.2325 22.9858C61.2334 22.7683 62.9057 21.2853 63.0196 20.7937C63.0449 20.6847 63.339 20.2987 63.4363 20.1158C63.3597 19.9073 63.3543 19.811 63.3298 19.5946C62.948 20.3539 61.9008 22.2452 61.0078 22.4263C60.498 22.8552 59.9285 23.3632 59.351 23.6874C58.493 24.1693 57.0933 24.551 56.3922 25.225C55.7184 25.8727 55.5747 26.5868 54.846 27.3738C54.5236 27.2893 53.1842 27.0156 53.0432 26.9443L52.704 26.9123C52.0356 26.7478 51.0288 26.447 50.3823 26.2259L50.0616 26.0827C49.6785 25.9061 49.2377 25.764 48.8348 25.6309L48.683 25.4966C47.9477 24.3844 48.6219 23.8537 47.8582 22.4587C47.8025 22.6906 47.7699 22.931 47.6308 23.116C47.2992 22.4097 46.2094 21.0663 45.6905 20.3692L45.5502 20.3227C45.3918 19.7621 45.047 18.9709 44.8448 18.4061C44.0129 16.0826 44.238 15.1969 44.8903 12.9757C45.4062 12.6722 45.4901 12.3567 45.7593 11.823C45.5284 11.5358 45.6357 11.5891 45.3111 11.4931C45.6482 10.4811 46.5563 8.85918 47.4031 8.25077C47.9942 7.78508 48.5783 7.3106 49.1553 6.82751C49.6627 6.61206 50.8382 6.01259 51.2426 5.91833Z" fill="#F9DD98"/>
<path d="M52.7584 15.6646C53.2996 14.2332 53.7169 13.8031 55.0435 13.1211C56.0697 14.1876 56.1298 15.0127 56.2965 16.3978C56.8945 16.1106 57.7612 15.7425 58.3545 16.1696C59.5344 17.019 58.3476 18.892 57.8172 19.7024C56.0419 20.3086 55.1153 23.2935 54.3185 24.8476C54.1666 25.144 53.9154 25.5454 53.8048 25.8374C53.6351 26.1115 53.4232 26.4341 53.2746 26.7143L53.0431 26.9462L52.7039 26.9142C52.0354 26.7497 51.0287 26.4489 50.3822 26.2278L50.0615 26.0846C50.0375 25.7404 50.149 25.2016 50.1799 24.8103C50.2797 22.9979 50.8254 21.0045 50.8498 19.2065C50.8632 18.2262 49.2588 16.1537 50.4618 15.0206C51.3633 14.1716 52.1092 14.9653 52.7584 15.6646Z" fill="white"/>
<path d="M50.3818 26.2265C50.4775 26.1525 50.6443 26.0137 50.6743 25.8925C51.1342 24.0418 51.3745 22.0697 51.6582 20.1817C51.7208 19.7654 51.7744 19.1982 51.7588 18.8015C51.7313 18.1084 50.9852 16.7927 51.5996 16.2773C51.9521 16.4281 53.4878 17.9918 54.0611 18.371C54.6165 18.1938 56.9011 17.3872 57.3233 17.5153C57.759 18.5395 55.8206 19.8316 55.3881 20.5644C54.9462 21.3131 52.5521 26.0027 52.6933 26.5441C52.9561 26.7495 52.8888 26.6879 53.2742 26.713L53.0427 26.9449L52.7035 26.9129C52.035 26.7484 51.0283 26.4476 50.3818 26.2265Z" fill="#F9DD98"/>
<path d="M60.4275 8.04688L60.9279 8.37515L61.0523 8.33025C61.4139 8.50478 61.4302 8.67368 61.7604 8.92583C61.9584 8.83976 61.8909 8.89452 62.0006 8.66316C61.7868 8.52292 61.7386 8.49252 61.5617 8.30565L61.6519 8.13344C64.6413 10.6889 65.332 14.3897 64.5316 18.1281C64.3945 18.7691 64.2165 19.3548 63.9 19.9344C63.6341 20.1304 63.2963 20.5556 63.173 20.8517C62.8618 21.3235 61.7894 22.8436 61.2694 23.0275L61.2322 22.9862C61.2332 22.7686 62.9054 21.2857 63.0193 20.794C63.0446 20.6851 63.3387 20.2991 63.4361 20.1161C63.3595 19.9076 63.3541 19.8114 63.3295 19.5949C62.9478 20.3543 61.9005 22.2455 61.0075 22.4267C60.4977 22.8556 59.9282 23.3636 59.3508 23.6878C58.4927 24.1697 57.0931 24.5514 56.3919 25.2254C55.7182 25.8731 55.5745 26.5871 54.8458 27.3742C54.5234 27.2896 53.184 27.016 53.043 26.9446L53.2745 26.7128C53.4231 26.4326 53.635 26.11 53.8047 25.8358C53.8362 26.0137 53.7353 26.1843 53.7562 26.2879C53.8201 26.6045 53.9772 26.2743 54.5135 26.7087C54.389 26.8638 53.8678 26.5499 53.4654 26.7006L53.4394 26.8258L53.5554 26.9358C53.9101 27.0177 54.8999 27.1152 55.0999 26.7363C55.2663 26.421 55.5808 25.7846 55.4985 25.425C55.245 25.3717 54.9762 25.8579 54.5125 26.1314C55.5688 24.3818 57.7234 23.8338 59.4412 22.5602C60.353 21.8933 61.1585 21.0922 61.8302 20.1839C63.552 17.8108 63.7634 13.8555 62.1941 11.3702C61.5329 10.3229 60.6078 9.19065 60.4275 8.04688Z" fill="#ECB354"/>
<path d="M61.6519 8.13379C64.6413 10.6893 65.332 14.3901 64.5317 18.1285C64.3945 18.7694 64.2165 19.3552 63.9001 19.9347C63.6342 20.1307 63.2963 20.556 63.173 20.852C62.8618 21.3239 61.7895 22.844 61.2694 23.0278L61.2322 22.9865C61.2332 22.769 62.9055 21.286 63.0194 20.7944C63.0446 20.6855 63.3388 20.2995 63.4361 20.1165C63.3595 19.908 63.3541 19.8117 63.3296 19.5953C62.9478 20.3546 61.9005 22.2459 61.0076 22.4271C61.2712 22.1366 61.5615 21.8673 61.8191 21.572C65.5018 17.3516 65.019 12.0947 60.928 8.3755L61.0523 8.3306C61.414 8.50513 61.4303 8.67403 61.7605 8.92618C61.9584 8.84012 61.8909 8.89487 62.0006 8.66351C61.7868 8.52328 61.7386 8.49288 61.5617 8.306L61.6519 8.13379Z" fill="#2C0B03"/>
<path d="M51.242 5.91833C54.6613 4.42036 59.0785 5.52205 61.6516 8.13306L61.5614 8.30527C61.7383 8.49215 61.7865 8.52255 62.0003 8.66279C61.8906 8.89414 61.9581 8.83939 61.7601 8.92545C61.43 8.67331 61.4137 8.50441 61.052 8.32988L60.9277 8.37477L60.4272 8.0465C55.4053 4.23729 48.3283 6.04018 45.8381 11.8652L45.7588 11.823C45.5279 11.5358 45.6352 11.5891 45.3105 11.4931C45.6477 10.4811 46.5558 8.85918 47.4025 8.25077C47.9936 7.78508 48.5778 7.3106 49.1548 6.82751C49.6622 6.61206 50.8376 6.01259 51.242 5.91833Z" fill="#220D03"/>
<path d="M45.7593 11.8232L45.8386 11.8655C45.5896 12.3793 45.5568 12.9004 45.433 13.4294C45.0729 14.9673 45.1036 16.0366 45.4002 17.5778C45.4324 17.745 45.619 18.7669 45.6287 18.8878C45.6199 19.2506 45.6944 19.2491 45.7142 19.4774C45.7309 19.6694 45.6989 20.1598 45.6905 20.3695L45.5502 20.3229C45.3918 19.7624 45.047 18.9712 44.8448 18.4064C44.0129 16.0829 44.238 15.1972 44.8903 12.976C45.4062 12.6725 45.4901 12.3569 45.7593 11.8232Z" fill="#B95D04"/>
<path d="M45.6286 18.8887C45.9494 19.2821 47.5011 21.8806 47.8582 22.4598C47.8025 22.6917 47.7699 22.932 47.6307 23.1171C47.2992 22.4108 46.2094 21.0674 45.6904 20.3703C45.6989 20.1607 45.7309 19.6702 45.7142 19.4783C45.6943 19.2499 45.6199 19.2514 45.6286 18.8887Z" fill="#C46C15"/>
<path d="M50.4476 8.36077L50.6988 8.27637C50.7601 8.52164 50.8198 8.80485 50.914 9.03587L50.7788 9.3528C50.8425 10.2583 49.8091 10.8193 49.2706 11.4052C48.9076 11.8001 48.6835 12.3202 48.1416 12.4655C46.8586 12.1243 48.3165 8.33758 50.4476 8.36077Z" fill="white"/>
<path d="M50.4478 8.36077L50.699 8.27637C50.7603 8.52164 50.82 8.80485 50.9142 9.03587L50.779 9.3528L50.4478 8.36077Z" fill="#FAE5B8"/>
<path d="M50.6992 8.27736C52.1128 7.33288 53.2998 6.91813 54.5742 8.29359C53.868 8.75664 52.3689 9.72927 51.4885 9.6148C51.2175 9.57959 51.1013 9.34393 50.9658 9.12218C50.9485 9.09385 50.9313 9.06536 50.9144 9.03686C50.8202 8.80584 50.7605 8.52263 50.6992 8.27736Z" fill="white"/>
<path d="M53.2392 50.8533C53.9011 50.2298 54.2993 49.593 54.8765 48.9359C56.2121 47.4152 57.4053 46.4471 59.3392 45.9023L59.5632 46.0646C59.1137 47.1863 58.4921 48.2674 57.8618 49.2979C57.5378 49.8275 56.9025 50.6145 56.6423 51.1491C55.8413 52.171 54.8451 53.102 54.0096 54.1026C53.2487 55.0138 52.2485 55.728 51.4383 56.5799C50.3419 56.8289 48.9558 56.9183 47.8186 57.0113C45.6096 57.206 43.3948 57.3281 41.1778 57.3772C33.9281 57.5904 27.0046 57.6591 19.7549 57.01C18.0244 56.855 16.152 56.7563 14.4398 56.5311C14.205 55.8923 11.3847 53.5949 10.5967 52.2988C11.7954 51.5263 12.7196 51.1464 14.1616 51.1877C14.9185 51.7976 15.6698 51.8319 16.6106 51.9523C16.5824 52.2922 16.5215 52.6939 16.4787 53.0378C18.025 54.1594 18.7333 54.7422 20.5631 53.6539C21.8183 54.889 22.5717 55.145 24.0541 56.0851C24.8625 56.5977 26.4558 56.7838 27.3884 56.5377C28.1198 56.3447 28.1495 55.9952 28.527 55.3357C29.0492 55.2573 30.0203 55.4389 30.6192 55.4076C31.9519 55.3381 33.2892 55.2293 34.6187 55.1271C34.9289 56.3563 36.1092 56.6593 37.0887 56.4355C38.7498 56.0561 40.7005 55.2381 41.5072 53.6874C41.8967 52.9387 43.362 53.8947 44.1947 53.7008C45.2452 53.4561 45.8283 52.9087 46.5036 52.0085C46.3228 51.59 46.0718 51.2883 45.9797 50.8238C46.2898 50.3952 48.8487 49.8664 49.5064 49.6812C50.3934 49.4314 52.4654 50.3203 53.2392 50.8533Z" fill="#F9DD98"/>
<path d="M60.5615 23.7725C60.7494 23.854 60.8914 23.8725 60.9404 24.1044C61.2666 25.6487 61.9085 27.7887 62.1013 29.2896C61.7614 29.0829 62.1358 29.058 61.6253 29.1751L61.4992 29.3372C61.7601 30.5134 63.0633 29.2315 63.6402 29.118L63.7682 29.1764C63.2247 29.2662 62.8287 29.7727 62.3802 29.8625C62.2778 29.9077 62.1492 29.9358 62.1494 30.0201C62.1514 30.7545 62.2745 32.7369 62.3089 33.3627C62.3723 34.5183 60.9898 42.5916 60.778 42.9603C60.2146 42.0466 59.6071 40.9853 58.8284 40.2409C57.4171 38.8915 55.8014 37.7702 53.844 37.424C53.5259 37.5387 53.141 37.7094 52.8217 37.8401C52.0451 39.0779 52.1643 39.2841 50.9385 40.2916C51.4663 37.881 51.352 35.4656 50.9888 33.0453C52.1035 33.0779 52.4881 32.5596 53.2259 32.5976C54.7917 32.6783 54.966 31.5667 54.9818 30.0956L55.9219 29.7223C56.0364 28.7057 56.3952 28.0527 55.6084 27.3015C56.4574 26.7255 56.5202 26.469 56.8284 25.5251C58.2777 25.1169 59.252 24.4839 60.5615 23.7725Z" fill="#F9DD98"/>
<path d="M59.5224 26.0771C59.9791 27.2494 60.4436 28.178 61.4268 28.9472C61.4721 28.9826 61.3321 29.3223 61.3106 29.371L61.2859 29.4256C61.3327 29.5418 61.3864 29.652 61.4024 29.7753L61.5098 29.8932C61.5023 29.937 60.1225 32.0136 59.9325 32.3592C59.7909 32.6406 59.675 32.865 59.5108 33.1332C59.2571 32.9125 59.0722 32.7084 58.7445 32.6438C58.6152 32.2545 58.4493 31.2459 58.2967 30.6926L58.6812 30.3424C58.2885 29.9682 57.9967 29.9222 57.4942 29.7537C57.3759 29.7013 57.2494 29.479 57.1682 29.3605C57.5052 28.985 57.9297 28.8685 58.2243 28.5555C58.8337 27.9081 59.1234 26.879 59.5224 26.0771Z" fill="#F9DD98"/>
<path d="M59.5224 26.0771C59.9791 27.2494 60.4436 28.178 61.4268 28.9472C61.4721 28.9826 61.3321 29.3223 61.3106 29.371L61.2859 29.4256C60.3533 28.675 59.9723 28.1666 59.5523 27.076C59.1818 28.2436 59.12 28.8246 57.9816 29.4976C57.7644 29.6262 57.6615 29.5684 57.4942 29.7537C57.3759 29.7013 57.2494 29.479 57.1682 29.3605C57.5052 28.985 57.9297 28.8685 58.2243 28.5555C58.8337 27.9081 59.1234 26.879 59.5224 26.0771Z" fill="#FCD067"/>
<path d="M61.4018 29.7754L61.5093 29.8933C61.5017 29.9371 60.122 32.0137 59.9319 32.3593C59.7904 32.6407 59.6745 32.8651 59.5102 33.1333C59.2566 32.9126 59.0717 32.7085 58.744 32.6439C58.6146 32.2546 58.4488 31.246 58.2961 30.6927L58.6807 30.3426C59.0698 30.9983 59.1853 31.96 59.457 32.2992C59.7846 31.3863 60.5077 30.1899 61.4018 29.7754Z" fill="#FCD067"/>
<path d="M58.7441 32.6426C59.0718 32.7072 59.2567 32.9113 59.5104 33.132C59.1835 33.7108 59.4049 33.9384 58.9621 34.5608L58.8751 34.5484C58.595 34.0737 58.7055 33.1881 58.7441 32.6426Z" fill="#F3C97B"/>
<path d="M58.2965 30.6914C57.728 30.2669 56.9583 30.1297 56.717 29.6994C56.8502 29.4589 56.8733 29.5075 57.1681 29.3594C57.2493 29.4778 57.3757 29.7002 57.494 29.7525C57.9966 29.9211 58.2884 29.967 58.681 30.3413L58.2965 30.6914Z" fill="#ECB354"/>
<path d="M38.8035 50.8315C39.652 50.6128 40.5038 50.407 41.3585 50.2139C41.6628 51.3299 41.7095 51.9844 41.1013 53.0603C40.3718 54.3504 39.2083 55.1398 37.7703 55.4656C37.0897 55.6198 35.7552 56.0032 35.3513 55.1852C35.6865 54.7291 36.1937 55.0556 36.4221 54.2389L36.3492 54.0761C35.8455 54.0893 35.1856 54.4861 34.6599 54.5656C32.9104 54.8304 31.1446 54.8688 29.3793 54.8423C28.7992 54.8336 27.3907 54.4338 26.9447 54.5139C26.8488 55.0785 27.7541 54.9738 27.7044 55.4907C27.4766 55.7683 27.3434 55.832 27.0346 56.0205C26.7014 56.011 25.3376 56.0007 25.0429 55.8799C23.1489 55.1031 20.6219 53.6574 20.4145 51.3669C20.4012 51.2201 20.4445 51.0906 20.5308 50.9751C21.2165 50.9196 22.9823 51.471 23.5282 51.3983C23.014 51.8573 21.5302 51.0429 20.6894 51.2384C20.5223 51.4433 20.5724 51.3488 20.5256 51.6416C20.6514 51.9522 21.11 52.0011 21.2175 52.1307C21.6388 52.6392 22.0826 52.973 22.5359 53.3845C23.0395 53.8416 26.4274 54.8845 26.6655 54.8374C26.6725 54.6214 26.6711 54.5787 26.7456 54.377C27.1966 54.0787 28.0315 54.6284 28.6646 54.6219C30.4552 54.6032 32.353 54.7086 34.1248 54.4754C34.7651 54.3911 35.6427 53.9848 36.2903 53.8422C36.5041 53.795 37.4136 53.9639 37.5585 53.8805C38.652 53.2511 39.8294 51.9104 40.9564 51.3523C41.1376 51.2625 41.1341 51.2796 41.3227 51.158C41.4133 50.8681 41.3949 50.9679 41.2963 50.6455C40.7394 50.28 39.3965 51.1356 38.8035 50.8315Z" fill="#633E99"/>
<path d="M7.77755 41.0273C8.24879 41.3085 8.61309 41.6891 9.02345 41.9963C10.7764 43.3081 11.0396 43.7869 11.9989 45.6699C11.5093 45.3462 10.4325 44.5821 9.91019 44.5011C9.665 44.7463 9.75703 45.8648 9.53802 46.4685C9.36722 46.2961 9.32398 44.6896 9.00391 44.1411C8.74654 43.6999 8.63041 43.5412 8.29137 43.1076C6.50944 43.9168 5.54533 44.1949 4.33397 45.7539L4.29529 45.7961C4.08663 46.0277 3.85444 46.441 3.66608 46.5169C3.59708 46.2379 3.64885 46.0985 3.71255 45.8187C4.22827 43.6094 5.92438 42.1357 7.77755 41.0273Z" fill="#452373"/>
<path d="M4.97341 45.6691C5.39487 45.2512 5.60833 45.0737 6.08695 44.7207C6.28094 45.1383 7.73054 48.6996 7.65359 48.9362C7.64746 48.9551 7.63901 48.9732 7.63172 48.9916C7.37924 48.8726 6.93591 48.7195 6.66206 48.615C6.37438 48.6349 6.09647 48.6196 5.86926 48.7862L5.81301 48.939L5.12972 48.7999C4.64779 48.7614 4.48825 48.7948 4.02537 48.8752C3.54129 48.8503 2.92211 48.8543 2.50396 48.6371C2.22133 48.0639 2.649 47.2181 2.86354 46.6772C3.00436 46.4621 3.08603 46.2109 3.17931 45.9691L3.29237 46.0613C3.43095 45.9776 3.57103 45.8964 3.71242 45.8177C3.64873 46.0975 3.59695 46.2369 3.66596 46.5159C3.85432 46.4399 4.0865 46.0267 4.29516 45.7951L4.33385 45.7528C4.64605 45.8667 4.58641 45.8443 4.97341 45.6691Z" fill="#C079B7"/>
<path d="M4.33385 45.7526C4.64605 45.8665 4.58641 45.8441 4.97341 45.6689C4.49454 46.3488 3.94345 47.1581 3.37322 47.7628C3.18469 47.9628 2.98009 47.9138 2.93569 48.3123C2.65422 48.6517 2.68959 48.3885 2.50396 48.6369C2.22133 48.0637 2.649 47.2179 2.86354 46.677C3.00436 46.4619 3.08603 46.2107 3.17931 45.9689L3.29237 46.0611C3.43095 45.9774 3.57103 45.8962 3.71242 45.8175C3.64873 46.0973 3.59695 46.2367 3.66596 46.5157C3.85432 46.4397 4.0865 46.0265 4.29516 45.7949L4.33385 45.7526Z" fill="#0B0222"/>
<path d="M2.93588 48.3126C4.36411 47.9378 5.29417 48.0622 6.66225 48.6151C6.37457 48.635 6.09666 48.6197 5.86945 48.7863L5.8132 48.9391L5.12991 48.8C4.64798 48.7615 4.48844 48.7949 4.02556 48.8753C3.54148 48.8504 2.9223 48.8544 2.50415 48.6372C2.68978 48.3888 2.65441 48.652 2.93588 48.3126Z" fill="#140A0B"/>
<path d="M6.08691 44.7225C6.62873 44.3282 7.52351 43.7888 8.20225 43.797C8.38001 43.8811 8.37048 43.84 8.42201 43.9708C8.71292 44.71 8.80296 45.7846 9.03713 46.5061C9.59891 48.2365 9.97871 49.719 10.3485 51.4975C9.5922 50.2748 8.78209 49.8484 7.63169 48.9934C7.63898 48.9749 7.64743 48.9569 7.65356 48.938C7.73051 48.7014 6.28091 45.14 6.08691 44.7225Z" fill="#9558B3"/>
<path d="M47.7073 28.0026C47.9386 27.3968 48.1652 26.4415 48.8229 26.2852C49.448 26.5363 51.5292 27.1872 52.1803 27.2178C52.5958 27.3667 53.0166 27.5003 53.4419 27.6182C52.8474 28.4966 53.0425 29.06 52.7847 29.6234C51.9774 29.4459 51.0192 28.9902 50.2063 28.7435C49.3631 28.4875 48.5424 28.2902 47.7073 28.0026Z" fill="#AE98BF"/>
<path d="M46.985 31.2002C47.693 31.524 49.9997 31.8661 50.1367 32.5855C50.556 34.7872 50.6619 37.824 50.2373 40.0303C49.7616 42.5017 48.0017 45.541 46.0321 47.1165C45.4368 47.5927 44.6874 47.9757 44.1032 48.4701C43.9381 48.235 43.7287 47.9536 43.5903 47.7094L43.8243 47.6622L43.9155 47.709C45.1668 47.674 45.6876 47.2179 46.5905 46.3114C46.8229 45.9436 47.1033 45.7182 47.3729 45.401C50.3909 41.8492 50.7954 37.1148 49.9398 32.7056C49.93 32.6553 48.6648 32.0342 48.5009 31.949C47.9048 31.6395 47.4381 31.7486 46.985 31.2002Z" fill="#633E99"/>
<path d="M53.4424 27.6172C53.943 27.8007 54.8809 28.04 55.2481 28.2876C55.4779 28.7991 55.0474 29.6404 54.5779 29.8542C54.1774 30.0367 53.2052 29.7239 52.7852 29.6224C53.0429 29.059 52.8479 28.4956 53.4424 27.6172Z" fill="#9558B3"/>
<path d="M48.8348 25.6309C49.2377 25.7639 49.6784 25.906 50.0615 26.0826L50.3823 26.2259C51.0287 26.4469 52.0355 26.7477 52.7039 26.9122L52.6655 26.9174C51.5507 27.0608 50.651 26.3755 49.8066 26.4205C50.2385 26.8242 52.0283 26.814 52.1807 27.217C51.5296 27.1864 49.4484 26.5355 48.8232 26.2843L48.7212 26.2204C48.8267 26.0386 48.8184 25.8458 48.8348 25.6309Z" fill="#2C0B03"/>
<path d="M47.5777 25.8369C47.9981 26.0281 48.2825 26.0996 48.7214 26.2199L48.8234 26.2838C48.1657 26.4401 47.9392 27.3954 47.7078 28.0013L47.0083 27.7819C47.2601 27.0556 47.4037 26.5841 47.5777 25.8369Z" fill="#9072B7"/>
<path d="M47.8578 22.46C48.6215 23.855 47.9473 24.3856 48.6826 25.4978L47.6488 25.3347C47.7216 24.5921 47.8107 23.8481 47.6304 23.1172C47.7695 22.9322 47.8021 22.6919 47.8578 22.46Z" fill="#ECB354"/>
<path d="M50.8991 43.453C51.2536 43.1218 51.8228 42.5217 52.2486 42.3789C52.37 42.4077 52.4746 42.4135 52.5162 42.5601C53.0329 44.3776 53.4364 46.0904 53.1069 47.9927C53.017 48.5113 52.9191 49.3451 52.9118 49.8456C50.0739 48.7683 50.1101 48.8251 47.3089 49.5107C46.7492 49.7545 46.5505 49.8302 45.9568 49.9649C45.4769 49.6986 45.0338 49.3133 44.6042 48.9669C45.5635 48.4607 47.3551 46.9132 48.0711 46.089C49.2783 44.6997 49.1239 44.3209 50.8991 43.453Z" fill="#9558B3"/>
<path d="M44.6045 48.967C45.5637 48.4608 47.3553 46.9133 48.0713 46.0892C49.2786 44.6998 49.1242 44.3211 50.8993 43.4531C51.0414 44.0592 50.3905 45.0608 50.1493 45.6044C49.6868 46.647 47.23 48.5017 47.3091 49.5108C46.7494 49.7546 46.5508 49.8304 45.957 49.965C45.4771 49.6987 45.0341 49.3134 44.6045 48.967Z" fill="#633E99"/>
<path d="M53.6696 41.1202C54.4976 39.9196 57.72 42.2683 58.5646 42.8434C59.3656 43.3888 60.0563 44.2516 60.5733 45.0617C57.3273 45.4687 55.4781 46.8455 53.4582 49.438C53.4396 49.4619 53.4211 49.4858 53.4028 49.5099C53.6196 47.5977 53.8168 44.6389 53.7897 42.7453C53.6972 42.1364 53.6854 41.739 53.6696 41.1202Z" fill="#9558B3"/>
<path d="M10.1518 45.0654C10.5734 45.3121 11.0091 45.5911 11.4268 45.8494C13.8977 47.1909 14.2604 49.0708 17.5711 50.0337C17.2674 50.1992 16.8032 50.4074 16.6153 50.6762C16.5161 51.1346 16.6293 51.2292 16.9032 51.6516L16.9664 51.7482C16.2385 51.4192 14.5937 50.6228 13.939 50.4411C12.8316 50.3417 11.769 50.756 10.9757 51.519C10.8182 50.8325 10.493 49.9524 10.2977 49.2501C9.8849 47.765 10.0226 46.5648 10.1518 45.0654Z" fill="#9558B3"/>
<path d="M11.4265 45.8486C13.8974 47.1901 14.2601 49.0701 17.5708 50.0329C17.2671 50.1985 16.8029 50.4067 16.615 50.6755C16.5158 51.1339 16.629 51.2285 16.9029 51.6509L16.9661 51.7474C16.2382 51.4185 14.5934 50.622 13.9387 50.4404C14.2751 50.428 14.277 50.4809 14.5147 50.3197C14.7251 49.1918 10.9119 47.4347 11.4265 45.8486Z" fill="#673588"/>
<path d="M51.7778 40.3778C52.0663 40.0709 53.6013 38.0352 53.8035 38.0869C56.4796 38.7721 59.8462 41.4128 60.5497 44.156C59.0071 42.4067 56.6395 40.7796 54.3161 40.3213C53.5907 40.1782 53.3691 40.7712 53.2974 41.3506C53.3818 41.4331 53.4444 41.4596 53.5463 41.5149L53.6693 41.1209C53.6851 41.7397 53.697 42.1371 53.7895 42.746L53.5619 42.6497L53.4596 42.9912L53.3442 43.332L53.2437 43.3788C53.0229 43.0205 52.6651 41.8563 52.5202 41.3936C52.2396 41.2276 52.008 41.105 51.7676 40.8841C51.6646 40.5835 51.6708 40.7148 51.7778 40.3778Z" fill="#432378"/>
<path d="M53.2973 41.3497C53.3817 41.4322 53.4443 41.4587 53.5462 41.5141L53.6692 41.1201C53.685 41.7389 53.6969 42.1362 53.7894 42.7452L53.5618 42.6489L53.4595 42.9903C53.3442 42.3549 53.2578 41.9938 53.2973 41.3497Z" fill="#0B0222"/>
<path d="M47.0846 28.2402C49.0389 28.6941 50.267 29.6361 52.7045 29.9638C53.3973 30.0492 54.5431 30.2394 54.4256 31.185C53.9078 31.9959 52.6809 31.7628 51.9496 31.9625C51.8076 32.1267 51.8038 32.1402 51.6035 32.2035C50.6537 31.8294 47.6801 30.8338 47.0565 30.2895C46.7946 29.7613 47.0255 28.9177 47.0846 28.2402Z" fill="#9072B7"/>
<path d="M52.7044 29.9639C53.3972 30.0493 54.543 30.2395 54.4255 31.1851C53.9077 31.996 52.6808 31.7629 51.9495 31.9626C52.0954 31.3226 52.4225 30.5541 52.7044 29.9639Z" fill="#9558B3"/>
<path d="M43.9335 49.1387C44.1862 49.2658 45.4736 50.9596 45.5644 51.3133C45.8424 52.3947 44.4046 52.9174 43.628 53.1116C43.1989 53.0438 42.5967 53.0003 42.2674 52.7599C42.132 51.7266 41.9127 51.0163 41.856 49.9905C42.5084 49.6828 43.2571 49.4055 43.9335 49.1387Z" fill="#633E99"/>
<path d="M17.9609 50.2236C19.1597 50.5447 20.7739 50.6617 19.7434 52.2421C19.9691 52.4988 20.3904 52.8642 20.2972 53.1965L20.0663 53.2694C19.4722 53.4113 18.8829 53.4313 18.2804 53.3292C16.7882 53.076 17.6821 51.1149 17.9609 50.2236Z" fill="#633E99"/>
<path d="M49.7415 43.5197C50.7092 41.8909 50.0494 41.884 51.7772 40.3779C51.6703 40.715 51.664 40.5837 51.767 40.8843C52.0074 41.1052 52.239 41.2277 52.5196 41.3938C52.3435 41.4317 52.0006 41.9283 51.7786 42.1031C51.1271 42.6161 50.4334 43.0675 49.7415 43.5197Z" fill="#391D66"/>
<path d="M48.3978 2.23632L48.6358 2.1582C48.7242 2.22994 49.0823 2.76446 49.1815 2.92823C49.5306 3.50417 50.8535 4.25713 50.5196 4.9811C50.3732 5.31037 50.3815 5.17659 50.454 5.49244C50.6266 5.71692 50.8791 5.8661 51.159 5.90901C51.1868 5.91224 51.2145 5.91555 51.2421 5.91879C50.8377 6.01305 49.6622 6.61252 49.1549 6.82797C48.5778 7.31106 47.9937 7.78553 47.4026 8.25123C47.1372 7.98342 46.208 7.62185 45.7665 7.36474C45.6275 7.15865 45.5739 6.88124 45.5003 6.63356C45.3931 5.79048 45.3231 4.87847 45.683 4.08476L45.4726 4.07838L45.2183 3.93532C45.459 3.89324 45.5314 3.88769 45.7527 3.77214L45.8001 3.55089C46.0937 3.50011 46.7801 2.70424 47.4462 2.40993C47.7656 2.36512 48.0831 2.30722 48.3978 2.23632Z" fill="#F9DD98"/>
<path d="M45.6832 4.08398C45.8297 4.17394 45.9269 4.21602 46.0293 4.34996C46.6484 5.48148 48.5337 5.43277 49.1551 6.8272C48.578 7.31029 47.9939 7.78476 47.4028 8.25045C47.1374 7.98265 46.2082 7.62108 45.7667 7.36396C45.6277 7.15787 45.5741 6.88046 45.5005 6.63279C45.3933 5.7897 45.3233 4.8777 45.6832 4.08398Z" fill="#FAE5B8"/>
<path d="M45.6832 4.08398C45.8297 4.17394 45.9269 4.21602 46.0293 4.34996C45.9905 4.97768 46.113 6.92627 45.94 7.22248L45.7667 7.36396C45.6277 7.15787 45.5741 6.88046 45.5005 6.63279C45.3933 5.7897 45.3233 4.8777 45.6832 4.08398Z" fill="#F8EED5"/>
<path d="M48.3979 2.23632L48.636 2.1582C48.7244 2.22994 49.0825 2.76446 49.1817 2.92823C49.5308 3.50417 50.8537 4.25713 50.5198 4.9811C49.467 5.09699 48.909 3.92257 48.4039 3.15287C48.5561 2.6808 48.5316 2.76745 48.3979 2.23632Z" fill="#ECB354"/>
<path d="M45.8001 3.55014C46.0937 3.49936 46.7801 2.70349 47.4462 2.40918L47.3965 2.78666C46.7347 3.69369 46.6973 3.61624 45.6478 4.02254C45.5721 4.05186 45.5859 4.05816 45.4726 4.07762L45.2183 3.93457C45.459 3.89249 45.5314 3.88694 45.7527 3.77139L45.8001 3.55014Z" fill="#ECB354"/>
<path d="M47.4466 2.40995C47.766 2.36513 48.0835 2.30723 48.3982 2.23633C48.5318 2.76746 48.5563 2.68082 48.4042 3.15289C48.0226 2.71842 47.9646 2.63816 47.397 2.78742L47.4466 2.40995Z" fill="#ECB354"/>
<path d="M58.1861 4.05953C57.9946 4.45316 57.9677 4.65337 57.5144 4.69238C56.6815 4.32303 56.539 2.44973 56.7056 1.6537C56.8948 0.749814 57.3023 0.465196 58.021 0C58.8252 0.516719 59.0118 0.695723 59.3643 1.54303C59.57 2.20272 58.5836 3.5535 58.1861 4.05953Z" fill="#FCD067"/>
<path d="M58.186 4.06044L58.0685 4.01008C57.9458 3.07952 58.4323 1.88771 59.3642 1.54395C59.5699 2.20364 58.5835 3.55441 58.186 4.06044Z" fill="#ECB354"/>
<path d="M68.0251 9.43172C68.609 9.42443 69.1015 9.91108 69.1173 10.4394C69.1589 11.8326 67.0558 11.8391 66.2958 11.8658C65.8422 12.0409 65.3102 11.0865 65.5221 10.4647C65.8348 10.0456 67.4439 9.63177 68.0251 9.43172Z" fill="#FCD067"/>
<path d="M65.0747 4.69238C65.4748 4.76909 65.793 5.061 65.8394 5.46962C65.6309 6.16658 64.4713 6.8609 63.8458 7.29635C63.5225 7.23854 63.474 7.19902 63.1972 7.0211C62.7156 6.2075 64.4626 5.08353 65.0747 4.69238Z" fill="#F9DD98"/>
</svg>
