<svg width="66" height="70" viewBox="0 0 66 70" fill="none" xmlns="http://www.w3.org/2000/svg">
<path d="M31.1225 0.0563076C32.0201 -0.0276875 33.1192 0.000315596 34.027 0.0258495C40.9343 0.220166 47.5072 2.70407 52.9144 6.99811C58.0816 11.0765 61.8719 16.6433 63.7729 22.9457C64.1167 24.0609 64.5602 25.373 64.7486 26.5117C65.49 30.9944 65.4833 35.659 64.8048 40.1484C64.6189 41.3784 64.1852 42.6156 63.8221 43.8041C62.7694 47.4964 60.988 50.9615 58.8387 54.1324C59.8279 54.0227 61.9437 54.0896 62.9043 54.1864C65.1368 54.4117 62.5926 58.4387 62.0751 59.7267C64.606 64.4558 65.744 65.0154 59.1282 65.2544C58.4291 67.2232 56.8283 67.4749 54.9597 67.7755C52.153 68.2271 49.3179 68.7605 46.5041 69.1329C42.4951 69.646 38.4603 69.9333 34.419 69.9935C30.416 70.0156 26.4836 70.0034 22.4995 69.5827C19.4352 69.2597 16.4267 68.9173 13.3974 68.3382C11.5481 67.9847 9.62361 67.864 7.84836 67.1818C6.89331 66.8221 6.49849 66.2968 6.10314 65.3917C4.94992 65.3051 2.60019 65.2333 1.65574 64.6816C0.645274 64.0913 2.89303 60.4353 3.36095 59.7773C2.70126 58.6269 1.63005 56.4958 1.39095 55.2205C1.11867 53.7689 5.66479 54.2326 6.52555 54.2403C3.13533 50.0116 0.492078 42.3094 0.104504 36.8137C-0.582861 27.0671 2.10498 18.2994 8.63015 10.904C14.3802 4.43214 22.4781 0.52665 31.1225 0.0563076ZM43.3721 33.3914C43.4028 33.1421 43.4647 32.9307 43.3477 32.7246C43.1696 32.6132 43.1451 32.6078 42.9348 32.5982C42.9916 32.8444 43.0452 33.1902 43.1926 33.3817L43.3721 33.3914Z" fill="#F08E53"/>
<path d="M7.986 55.0055C7.53234 54.2333 6.95138 53.659 6.47051 52.9414C0.000824332 43.2869 -1.20271 30.5983 3.60857 19.9939C6.52005 13.5651 11.3787 8.21416 17.4977 4.69772C26.3921 -0.512924 38.255 -0.678339 47.3058 4.20511C53.0771 7.31903 57.5788 11.5631 60.7401 17.3184C62.2046 19.9847 63.1511 22.9373 63.8476 25.8756C65.2325 31.7173 64.9692 37.6667 63.2807 43.4144C62.3566 46.58 60.7632 49.9459 58.9529 52.7148C58.3981 53.5635 57.8374 54.0276 57.2965 55.0169C56.0717 54.7182 54.6195 54.8475 53.3835 55.0919C53.1594 55.1636 52.7777 55.1075 52.5283 55.0855L52.2506 54.6116L51.9131 54.1491C51.6361 54.2998 51.7151 54.2062 51.6126 54.4949L51.6162 54.4191C51.1367 54.4857 49.7943 55.5418 49.2592 55.8206C48.6638 56.1306 48.3296 56.2735 47.6808 56.506C47.1975 56.6791 45.9488 56.6526 45.7515 56.7949L45.4702 56.7387L45.2176 56.9804C44.8444 56.8284 43.4335 56.8272 42.9521 56.8108C42.7163 56.645 42.8224 56.674 42.5541 56.6842C42.4937 56.7406 42.3828 56.8368 42.3364 56.8976C42.0222 56.4116 40.9598 56.7515 40.4846 56.6031C39.2326 56.2118 37.9261 55.0618 36.8069 54.3656C36.7541 54.1055 36.8023 54.1997 36.6286 54.0052L36.4222 53.9945C36.211 54.3762 34.8907 56.8246 34.6798 57.0772C33.4135 56.8736 31.4498 57.1605 30.0846 57.0711C27.0062 56.8692 23.8822 56.9053 20.8173 56.5297C19.3931 56.3551 17.9732 56.1393 16.5559 55.9166C15.6616 55.7761 14.643 55.7236 13.8231 55.3446C13.3447 55.0783 12.5143 54.1151 12.1235 53.6949C9.00347 50.3677 6.79261 46.2933 5.7038 41.8641L5.32102 41.9102C5.30906 42.1789 5.32422 42.407 5.39046 42.668C6.54345 47.2166 9.21399 51.6248 12.3573 55.0556C12.4461 55.1523 12.5378 55.2461 12.6325 55.337C11.3398 55.0093 9.28305 54.7371 7.986 55.0055ZM43.3721 33.3914C43.4027 33.142 43.4647 32.9307 43.3476 32.7246C43.1696 32.6131 43.145 32.6077 42.9348 32.5981C42.9915 32.8443 43.0452 33.1901 43.1926 33.3817L43.3721 33.3914Z" fill="#8A69BA"/>
<path d="M7.986 55.0055C7.53234 54.2333 6.95138 53.659 6.47051 52.9414C0.000824332 43.2869 -1.20271 30.5983 3.60857 19.9939C6.52005 13.5651 11.3787 8.21416 17.4977 4.69772C26.3921 -0.512924 38.255 -0.678339 47.3058 4.20511C53.0771 7.31903 57.5788 11.5631 60.7401 17.3184C62.2046 19.9847 63.1511 22.9373 63.8476 25.8756C65.2325 31.7173 64.9692 37.6667 63.2807 43.4144C62.3566 46.58 60.7632 49.9459 58.9529 52.7148C58.3981 53.5635 57.8374 54.0276 57.2965 55.0169C56.0717 54.7182 54.6195 54.8475 53.3835 55.0919C53.1594 55.1636 52.7777 55.1075 52.5283 55.0855L52.2506 54.6116L51.9131 54.1491C52.0683 53.7625 53.0183 53.0872 53.2956 52.7067C53.7626 52.0657 54.1579 51.2246 54.5297 50.5176C54.6122 50.3726 54.755 50.0148 54.8277 49.8459C54.5037 49.4959 54.7747 49.9027 54.3368 49.619C54.9064 48.1243 55.1823 45.2619 54.7214 43.7116L54.7143 43.0257C54.7091 42.6013 54.7093 42.5024 54.9816 42.224L54.8785 42.1054C54.6981 41.9602 54.6876 41.8192 54.6262 41.5906C54.2931 40.8386 53.9259 40.1463 53.4488 39.4746C53.3015 39.2674 53.1872 39.1052 53.1001 38.8638C52.7682 38.6724 52.7082 38.5807 52.4642 38.2783C52.0029 38.3305 51.4585 37.391 51.2093 37.0452L50.3666 36.4586L50.3519 36.4123C50.1814 36.2882 50.1016 36.2422 49.9137 36.1457L49.5863 35.9848L49.4124 35.9616L49.3085 35.794C49.4297 35.5342 49.6011 34.8139 49.6602 34.5173C50.6375 29.6098 49.6968 24.5338 46.9865 20.3476C47.065 17.7206 46.5097 15.2507 45.9072 12.7132C45.6414 11.5939 45.0342 10.4519 44.527 9.39673C44.2109 8.73932 43.7778 7.43572 42.7915 7.6358C40.6579 8.25647 38.3957 11.1868 37.1572 12.8681C34.332 11.8269 29.3193 11.7532 26.4815 12.854C26.1809 12.3847 25.7074 11.8568 25.3776 11.4002C23.9185 9.38011 22.9207 8.47278 20.8438 7.21948L20.4104 7.0412C19.6977 7.01132 19.5619 7.2457 19.2306 7.8419C19.0719 8.14838 18.811 8.69245 18.6416 8.97088L18.4846 9.25221C17.713 8.38863 15.3822 11.3309 14.781 11.7602C14.2339 12.1508 13.6393 12.35 13.1975 12.8847C11.7859 14.4776 10.4213 16.289 9.23747 18.0558C8.97756 18.4438 8.26177 19.335 8.09134 19.6691C7.47715 20.8727 6.17027 23.2985 6.02416 24.5671C5.28139 27.6365 4.41849 30.7579 4.51354 33.9455C4.53534 34.6751 4.61522 37.6724 4.88291 38.2748L4.58214 38.792C4.04593 40.0395 3.99097 40.8819 3.60911 41.8433C3.75881 42.0278 3.9268 42.2478 4.09349 42.4105C4.60196 42.1461 4.77109 42.0633 5.32102 41.9102C5.30906 42.1789 5.32422 42.407 5.39046 42.668C6.54345 47.2166 9.21399 51.6248 12.3573 55.0556C12.4461 55.1523 12.5378 55.2461 12.6325 55.337C11.3398 55.0093 9.28305 54.7371 7.986 55.0055Z" fill="#FDE0C8"/>
<path d="M20.8438 7.22036C21.6218 6.70892 26.8104 5.15874 27.8968 4.95569C30.7871 4.41574 34.9765 4.48061 37.8636 5.07238C45.2258 6.65129 51.6825 11.0378 55.8628 17.3004C56.1035 17.667 56.9636 18.9086 57.0683 19.2439C57.5129 20.6676 58.6593 22.2697 59.0772 23.6057C60.0507 26.7177 60.7856 30.2443 60.7609 33.4995C60.7507 34.8519 60.9038 37.5605 60.235 38.6266L60.1985 38.686C60.2611 38.8032 60.4497 39.1857 60.5322 39.2489C60.7278 39.6448 60.7677 39.7494 60.6209 40.1754C60.6089 40.21 60.5965 40.2445 60.5836 40.2787C60.3497 40.3141 60.1133 40.3592 59.8779 40.359C58.7727 39.9318 58.2428 39.8413 57.0719 40.2849C56.0073 40.6881 55.5427 41.5994 54.8785 42.1062C54.6981 41.9611 54.6875 41.82 54.6261 41.5915C54.2931 40.8395 53.9259 40.1471 53.4487 39.4755C53.3015 39.2682 53.1871 39.106 53.1 38.8647C52.7682 38.6733 52.7082 38.5816 52.4641 38.2792C52.0029 38.3313 51.4584 37.3919 51.2093 37.046L50.3665 36.4594L50.3519 36.4132C50.1814 36.2891 50.1016 36.2431 49.9137 36.1465L49.5862 35.9857L49.4123 35.9625L49.3084 35.7949C49.4296 35.535 49.601 34.8148 49.6601 34.5182C50.6374 29.6107 49.6968 24.5347 46.9864 20.3485C47.0649 17.7214 46.5096 15.2516 45.9071 12.714C45.6414 11.5947 45.0342 10.4528 44.5269 9.3976C44.2109 8.7402 43.7778 7.43659 42.7915 7.63667C40.6578 8.25734 38.3956 11.1877 37.1571 12.869C34.332 11.8278 29.3193 11.7541 26.4815 12.8549C26.1808 12.3855 25.7073 11.8577 25.3775 11.4011C23.9184 9.38098 22.9206 8.47365 20.8438 7.22036Z" fill="#FDD9B7"/>
<path d="M51.5611 32.6C53.0839 32.3888 53.9911 32.7657 55.2721 33.5487C56.7851 34.4739 58.0225 35.624 59.0965 37.0287C59.4887 37.5418 59.8129 38.1636 60.1985 38.6861C60.261 38.8033 60.4496 39.1858 60.5322 39.249C60.7277 39.6449 60.7676 39.7495 60.6208 40.1755C60.6088 40.2101 60.5964 40.2446 60.5835 40.2788C60.3496 40.3142 60.1132 40.3593 59.8779 40.3591C58.7726 39.9319 58.2428 39.8414 57.0719 40.285C56.0072 40.6883 55.5426 41.5996 54.8784 42.1063C54.698 41.9612 54.6875 41.8201 54.626 41.5916C54.293 40.8396 53.9258 40.1472 53.4487 39.4756C53.3014 39.2683 53.1871 39.1061 53.1 38.8648C52.7681 38.6734 52.7081 38.5817 52.464 38.2793C52.0028 38.3314 51.4584 37.392 51.2092 37.0461L50.3665 36.4595L50.3518 36.4133C50.1813 36.2892 50.1015 36.2432 49.9136 36.1467L49.5862 35.9858C51.0573 34.3459 50.6879 34.2445 51.5611 32.6Z" fill="black"/>
<path d="M53.0997 38.8649C53.092 38.0282 52.8065 36.0576 52.9847 35.4409C53.4016 35.0538 54.0245 35.4685 54.4869 35.6581C56.5774 36.5154 58.5098 37.8199 59.6939 39.7748C57.3872 39.2847 56.1382 39.8651 54.6258 41.5917C54.2928 40.8397 53.9256 40.1473 53.4484 39.4757C53.3012 39.2684 53.1868 39.1062 53.0997 38.8649Z" fill="#8A69BA"/>
<path d="M49.9136 36.1463C50.9529 35.2196 51.375 34.2903 51.9068 33.0547C52.0455 32.7327 53.6265 33.3431 53.8491 33.4541C56.0158 34.2435 57.5043 35.8822 58.947 37.6008C59.1977 37.896 59.4158 38.1714 59.593 38.5237L59.5591 38.5058C58.7626 38.0783 58.2165 37.3124 57.546 36.8767C56.6854 36.3172 53.4692 34.3295 52.6237 35.0388C52.5154 35.2973 52.5827 35.8899 52.5984 36.1969L51.8264 35.5455C51.3318 36.1346 51.1705 36.4341 50.3518 36.4129C50.1813 36.2888 50.1015 36.2428 49.9136 36.1463Z" fill="#492876"/>
<path d="M51.2092 37.0454C51.4619 36.7035 51.7123 36.3599 51.9605 36.0146C52.0969 36.5753 52.3166 37.8768 52.464 38.2786C52.0028 38.3307 51.4584 37.3913 51.2092 37.0454Z" fill="#8F6896"/>
<path d="M54.01 20.0938C54.7691 20.2107 54.7411 21.9956 55.2015 22.6749C55.7702 23.5138 56.6266 23.4407 57.2918 24.0524C57.3046 24.0959 57.3195 24.1467 57.3367 24.2049C57.1023 24.4789 55.8256 24.846 55.6152 25.0422C54.9268 25.6841 54.6681 26.861 54.275 27.7195L54.0856 27.7981C54.0395 27.7754 53.9845 27.7484 53.9206 27.717C53.4247 26.7074 53.4793 26.0446 52.8239 25.0508C50.8519 24.0369 50.4283 24.215 52.8387 23.0702C53.8305 21.7197 53.5083 20.8812 54.01 20.0938Z" fill="#F08E53"/>
<path d="M54.1124 21.0938C54.2767 21.7906 54.3317 21.9832 54.6187 22.6347C54.7318 22.7835 55.0434 23.2138 55.166 23.3094C55.3636 23.4408 55.512 23.5178 55.63 23.7273L55.4204 23.5994C55.0639 24.4266 54.4037 24.9019 53.3092 24.8393C53.227 24.8346 52.8404 24.4795 52.7134 24.4488C52.499 24.343 52.172 24.2944 52.0544 24.1152C52.1341 23.9498 52.3878 23.8029 52.5627 23.786C53.788 22.9214 53.7738 22.5607 54.1124 21.0938Z" fill="#FDD9B7"/>
<path d="M54.6187 22.6357C54.7318 22.7845 55.0434 23.2149 55.166 23.3104C55.3636 23.4419 55.512 23.5188 55.63 23.7284L55.4204 23.6005C55.0639 24.4276 54.4037 24.9029 53.3092 24.8403C53.227 24.8356 52.8404 24.4806 52.7134 24.4498C52.499 24.3441 52.172 24.2954 52.0544 24.1163C52.1341 23.9509 52.3878 23.804 52.5627 23.7871C52.7104 23.9047 53.8279 24.5771 54.0095 24.5938L54.1949 24.4809C54.5811 23.9868 54.5629 23.269 54.6187 22.6357Z" fill="#EFAA47"/>
<path d="M50.8236 13.1641C51.0674 13.3683 51.0022 13.3962 51.0803 13.7164C51.258 14.4444 51.4321 14.9052 51.8959 15.5009C52.3727 15.6941 52.8678 15.8681 53.3521 16.0444C53.1262 16.0892 52.8769 16.0905 52.6486 16.1405C51.4684 16.3987 51.3028 17.7474 50.7782 18.4721C50.334 17.4637 50.2705 16.5902 49.0028 16.1245C48.8249 16.0592 48.6632 16.015 48.552 15.857C48.7901 15.6837 49.1529 15.5851 49.4286 15.4355C50.2542 14.9875 50.5681 13.994 50.8236 13.1641Z" fill="white"/>
<path d="M27.8873 5.18945C28.0234 5.3502 28.0591 5.5778 28.1377 5.77978C28.6393 7.06768 28.6319 7.50458 29.874 8.14864C29.8085 8.18927 29.7434 8.23058 29.6787 8.27258C28.7352 8.88821 28.5469 9.53037 28.3231 10.595C28.0596 10.4272 27.8882 9.75156 27.6772 9.36612C27.3348 8.74073 26.8477 8.73897 26.4609 8.25733C27.5769 7.02401 27.6562 6.7615 27.8873 5.18945Z" fill="#FDE0C8"/>
<path d="M20.4102 7.04235C23.1527 5.80148 25.0122 4.96076 28.0077 4.46175C48.1605 1.10423 64.5245 19.2032 60.8457 38.8566C60.7921 39.1427 60.6279 39.085 60.532 39.2491C60.4495 39.186 60.2609 38.8035 60.1983 38.6863L60.2348 38.6269C60.9036 37.5608 60.7505 34.8521 60.7607 33.4998C60.7854 30.2446 60.0505 26.718 59.077 23.6059C58.6591 22.2699 57.5127 20.6679 57.0681 19.2442C56.9634 18.9089 56.1033 17.6673 55.8626 17.3007C51.6823 11.0381 45.2256 6.65157 37.8634 5.07266C34.9763 4.48088 30.7869 4.41602 27.8966 4.95596C26.8102 5.15902 21.6216 6.70919 20.8435 7.22063L20.4102 7.04235Z" fill="#FBAF7D"/>
<path d="M54.8785 42.1059C55.5427 41.5991 56.0074 40.6878 57.072 40.2845C58.2429 39.841 58.7727 39.9315 59.878 40.3587C59.9408 42.3795 57.1793 49.074 55.5983 50.6361C55.3003 50.9304 54.4844 51.6589 54.2446 51.9881C53.6492 52.8052 53.3924 54.3391 52.2506 54.6121L51.9131 54.1496C52.0683 53.7631 53.0183 53.0878 53.2956 52.7072C53.7626 52.0663 54.1579 51.2252 54.5297 50.5181C54.6122 50.3732 54.755 50.0153 54.8277 49.8464C54.5037 49.4965 54.7747 49.9032 54.3368 49.6196C54.9064 48.1248 55.1823 45.2624 54.7214 43.7122L54.7143 43.0263C54.7091 42.6019 54.7093 42.5029 54.9816 42.2246L54.8785 42.1059Z" fill="#FDD9B7"/>
<path d="M54.7213 43.7112L54.7143 43.0253C54.709 42.6009 54.7092 42.502 54.9815 42.2236C55.124 42.4446 55.1762 42.6332 55.242 42.8838C55.8136 45.0586 55.7715 47.7768 54.8276 49.8455C54.5036 49.4955 54.7746 49.9023 54.3367 49.6186C54.9063 48.1239 55.1822 45.2615 54.7213 43.7112Z" fill="#571F09"/>
<path d="M17.2594 8.81008C17.8488 9.07602 18.3352 8.38691 18.6414 8.97144L18.4844 9.25277C17.7128 8.38919 15.382 11.3315 14.7807 11.7607C14.2336 12.1514 13.639 12.3505 13.1972 12.8852C11.7856 14.4782 10.4211 16.2895 9.2372 18.0564C8.97729 18.4444 8.2615 19.3355 8.09107 19.6696C7.47689 20.8733 6.17001 23.2991 6.02389 24.5677C5.97725 24.2247 5.9774 24.14 5.7373 23.9018C6.39158 20.9892 8.78895 17.3183 10.5427 14.8731C11.5144 13.5182 13.5868 11.8015 14.7862 10.5223C15.14 10.145 16.7077 9.23197 17.2594 8.81008Z" fill="#FCBB8A"/>
<path d="M59.8779 40.3587C60.1133 40.3588 60.3496 40.3137 60.5835 40.2783C60.525 41.1169 60.1522 41.9992 59.9328 42.8174C59.4459 44.6327 58.8281 46.1206 57.9581 47.791C56.6422 50.3175 54.9238 52.7258 53.009 54.8342C52.8863 54.9692 52.8755 54.8996 52.9898 55.0341L53.3834 55.0924C53.1593 55.1641 52.7776 55.108 52.5282 55.086L52.2505 54.6121C53.3923 54.339 53.6491 52.8052 54.2445 51.988C54.4843 51.6589 55.3002 50.9304 55.5982 50.636C57.1792 49.074 59.9407 42.3795 59.8779 40.3587Z" fill="#FAB98F"/>
<path d="M5.73738 23.9014C5.97748 24.1396 5.97733 24.2242 6.02397 24.5672C5.2812 27.6366 4.41831 30.7579 4.51336 33.9456C4.53516 34.6752 4.61503 37.6725 4.88272 38.2749L4.58195 38.7921C4.16876 38.293 4.17273 36.8828 4.12745 36.1996C3.84505 31.9359 4.27303 27.9347 5.73738 23.9014Z" fill="#F08E53"/>
<path d="M17.2595 8.80942C17.8104 8.38571 18.522 7.87152 19.2304 7.8418C19.0717 8.14828 18.8108 8.69234 18.6415 8.97078C18.3353 8.38624 17.8489 9.07535 17.2595 8.80942Z" fill="#FAB98F"/>
<path d="M10.6235 12.4092C11.1135 12.81 10.9944 13.7292 10.6337 14.1706C10.1425 13.8887 10.3898 12.8048 10.6235 12.4092Z" fill="#FDD9B7"/>
<path d="M19.2304 7.8413C19.5616 7.2451 19.6975 7.01072 20.4102 7.0406L20.8436 7.21888C22.9205 8.47218 23.9183 9.37951 25.3773 11.3996C25.7072 11.8562 26.1806 12.384 26.4813 12.8534C29.3191 11.7526 34.3318 11.8263 37.1569 12.8675C38.3954 11.1862 40.6577 8.25586 42.7913 7.6352C43.7776 7.43512 44.2107 8.73872 44.5268 9.39613C45.034 10.4513 45.6412 11.5933 45.907 12.7126C46.5094 15.2501 47.0648 17.72 46.9863 20.347C49.6966 24.5332 50.6372 29.6092 49.6599 34.5167C49.6009 34.8133 49.4294 35.5336 49.3083 35.7934L49.2009 35.8987C48.9385 35.9195 48.9932 35.8993 48.7277 35.7685C50.6144 29.7576 49.0672 24.191 45.5138 19.1468C45.1579 18.6415 43.3012 17.035 43.2537 16.6534C43.4326 16.5598 43.6416 16.7393 43.9855 16.7605C44.2265 15.0553 44.3107 13.4283 44.4115 11.7132C44.417 11.6183 44.488 11.2696 44.4733 11.175C44.3208 10.1948 43.865 9.10039 43.2562 8.31501C42.9669 7.9711 42.676 8.17286 42.3347 8.40297C40.3517 9.73988 39.1059 11.201 37.7869 13.1697L37.9813 13.2498C38.3777 13.4137 39.2567 13.7023 39.4058 14.0618C39.1364 14.3762 38.6666 13.895 38.2775 13.7706C34.626 12.6024 30.7431 12.216 27.0115 13.2711C26.5003 13.4156 26.9465 13.64 26.7405 14.0656C26.5174 13.9811 26.3636 13.7428 26.2048 13.5472C25.6294 13.6534 24.9903 13.7861 24.4132 13.8326C25.0155 13.4515 25.2401 13.3723 25.8988 13.1345C24.7823 11.6596 24.4453 10.8542 22.9681 9.54163C22.2056 9.44689 22.0503 8.69238 21.6281 8.46654C20.8571 8.40747 19.8491 9.25253 19.1968 9.63797C19.1807 9.6706 19.0231 9.99042 19.0231 9.99057C19.1565 11.2282 19.1432 12.4584 19.1076 13.7009C19.1007 13.9434 19.1186 14.2126 19.0966 14.4523C19.1055 14.7887 19.1616 16.5359 19.3094 16.7503C19.6789 16.7484 19.75 16.5616 19.9409 16.6751C19.9261 17.092 18.3064 18.4742 17.9228 18.9742C16.4734 20.863 15.7045 22.221 14.9398 24.4893C13.3439 29.2226 13.5049 35.1229 16.9629 39.0225C18.4541 40.6499 20.5851 41.8706 22.6697 42.5717C22.9774 42.6751 24.2633 43.0959 24.451 43.1829C24.6202 43.8192 24.355 44.7729 24.4072 45.6327C25.464 47.1443 28.8301 48.6451 30.636 49.0882C31.2229 49.2323 32.6267 49.0693 33.283 49.0009C33.5262 49.6797 33.9298 50.4073 34.1083 51.0236L34.2413 51.1514C34.5976 51.4741 34.9137 51.8273 35.405 51.8443C35.8527 52.566 36.2357 52.9258 36.6495 53.5347C36.3898 53.7087 36.4617 53.615 36.3502 53.8793L36.4219 53.9939C36.2107 54.3756 34.8905 56.824 34.6795 57.0765C33.4133 56.873 31.4495 57.1599 30.0844 57.0704C27.006 56.8686 23.882 56.9047 20.8171 56.5291C19.3929 56.3545 17.973 56.1387 16.5556 55.916C15.6614 55.7755 14.6428 55.723 13.8228 55.344C13.3445 55.0777 12.514 54.1145 12.1233 53.6943C9.00325 50.3671 6.79239 46.2927 5.70358 41.8634L5.3208 41.9096C4.77087 42.0627 4.60174 42.1455 4.09327 42.4099C3.92657 42.2472 3.75858 42.0272 3.60889 41.8427C3.99075 40.8813 4.04571 40.0389 4.58192 38.7914L4.88269 38.2742C4.615 37.6718 4.53512 34.6745 4.51332 33.9449C4.41827 30.7573 5.28117 27.6359 6.02394 24.5665C6.17005 23.2979 7.47693 20.8721 8.09112 19.6685C8.26155 19.3344 8.97733 18.4432 9.23725 18.0552C10.4211 16.2884 11.7857 14.477 13.1973 12.8841C13.6391 12.3494 14.2337 12.1502 14.7808 11.7596C15.382 11.3303 17.7128 8.38803 18.4844 9.25161L18.6414 8.97028C18.8108 8.69185 19.0717 8.14778 19.2304 7.8413Z" fill="black"/>
<path d="M5.70361 41.8645C8.21257 41.5518 9.59933 42.316 11.1996 44.3071C11.4453 44.6129 11.9836 45.7523 12.5078 45.701C13.5739 45.3168 13.9244 44.681 15.1188 44.4173C15.8084 44.6136 16.5 44.8025 17.1936 44.9839C17.1958 46.0211 17.1358 47.0953 17.9824 47.8303C18.988 48.7032 20.1351 49.5184 21.4071 48.6766C22.0284 49.0645 23.2809 49.3953 23.6616 49.7477C25.1364 51.1128 26.3129 53.4244 28.7565 52.9915C29.6888 52.8263 30.1009 52.383 30.2348 51.4409C31.1754 51.5378 33.3833 51.6794 34.293 51.4667L34.2414 51.1524C34.5976 51.4752 34.9137 51.8284 35.405 51.8454C35.8528 52.5671 36.2358 52.9269 36.6495 53.5358C36.3898 53.7097 36.4617 53.616 36.3503 53.8804L36.422 53.9949C36.2108 54.3767 34.8905 56.825 34.6796 57.0776C33.4133 56.8741 31.4496 57.161 30.0845 57.0715C27.006 56.8697 23.882 56.9057 20.8171 56.5301C19.3929 56.3556 17.973 56.1398 16.5557 55.9171C15.6615 55.7765 14.6428 55.7241 13.8229 55.345C13.3445 55.0788 12.5141 54.1156 12.1233 53.6953C9.00328 50.3681 6.79242 46.2938 5.70361 41.8645Z" fill="#FDD9B7"/>
<path d="M34.2415 51.1523C34.5977 51.4751 34.9138 51.8283 35.4051 51.8453C35.8528 52.567 36.2358 52.9268 36.6496 53.5357C36.3899 53.7096 36.4618 53.6159 36.3503 53.8803C35.7808 53.6924 34.8486 52.587 34.5966 52.0056C34.5047 51.7933 34.4832 51.6084 34.2931 51.4666L34.2415 51.1523Z" fill="#883F0A"/>
<path d="M6.02393 24.5665C6.17005 23.2979 7.47692 20.8721 8.09111 19.6684C8.26154 19.3343 8.97733 18.4432 9.23724 18.0552C10.4211 16.2883 11.7857 14.4769 13.1973 12.884C13.6391 12.3493 14.2337 12.1502 14.7808 11.7595C15.382 11.3303 17.7128 8.38798 18.4844 9.25156C16.8779 12.5143 15.807 17.4522 15.8189 21.048C15.3655 21.5988 14.1609 24.8692 13.9882 25.5649C13.3083 28.3047 13.335 31.4341 13.719 34.2184L13.6214 34.2427C13.171 33.7352 12.7307 32.3048 11.8771 32.4165C8.70118 32.8322 6.33544 35.8878 4.88268 38.2742C4.61499 37.6717 4.53511 34.6744 4.51331 33.9448C4.41827 30.7572 5.28116 27.6358 6.02393 24.5665Z" fill="#FED8B5"/>
<path d="M6.76294 23.7717C9.5174 23.0025 8.95619 21.9777 9.79301 19.9189C10.0822 21.8607 10.3587 23.0246 12.3241 23.8701C11.2557 24.2645 10.3482 25.0327 10.1717 26.2231L9.80369 26.562C9.5001 25.396 9.20589 25.0026 8.21761 24.2794C7.87424 24.0589 7.18017 23.8888 6.76294 23.7717Z" fill="white"/>
<path d="M8.21769 24.2803C9.20596 25.0035 9.50018 25.3969 9.80376 26.5629L9.84576 26.8926C9.53996 27.2397 9.52929 28.6217 9.00032 28.6636C8.04368 27.8317 9.0382 27.0813 6.92285 26.2882C7.63064 25.5185 7.76425 25.2399 8.21769 24.2803Z" fill="#FDD9B7"/>
<path d="M11.3739 16.9912C11.5836 17.2283 11.636 18.379 11.8711 18.8005C12.1074 19.2242 12.5495 19.2626 12.6688 19.5733C11.5991 20.3356 12.057 20.0475 11.3332 21.1523C11.2039 20.9943 11.1865 20.8014 11.0756 20.6102C10.7283 20.0113 10.4227 19.7027 9.89258 19.2845C10.7167 18.7186 11.0759 17.9166 11.3739 16.9912Z" fill="#FAB98F"/>
<path d="M10.1717 26.2246L10.2916 26.4494C10.2151 26.7002 10.0903 26.7777 9.84571 26.8932L9.80371 26.5636L10.1717 26.2246Z" fill="#FDD9B7"/>
<path d="M19.5544 41.7451C20.8461 42.1938 22.6922 43.4052 24.1463 43.4443C24.3145 43.4488 24.353 43.3252 24.4509 43.1828C24.6201 43.8191 24.355 44.7728 24.4072 45.6326C25.464 47.1442 28.8301 48.645 30.6359 49.0881C31.2228 49.2322 32.6266 49.0692 33.283 49.0008C33.5261 49.6796 33.9298 50.4072 34.1082 51.0235C31.9869 51.4325 30.2948 50.8221 28.3148 50.5722L28.228 50.6946C28.3544 51.3434 28.9259 50.8225 29.5853 51.3867C29.7832 51.8747 29.3004 52.0828 28.9193 52.2626C27.7805 52.8001 26.0184 51.666 25.361 50.7604C24.8284 50.0267 23.9957 49.3682 23.512 48.642C23.2998 48.3186 23.1445 47.9614 23.0527 47.5856C22.8641 46.83 23.4076 45.5398 22.5513 45.1701L22.4266 45.2414C22.3059 45.7846 22.49 46.4355 22.3633 47.1807L22.3568 47.2178C21.9709 47.4571 20.8535 48.4624 20.6477 48.4641C19.5078 48.4734 17.9105 47.1535 17.7511 46.1306C17.4025 43.8929 18.5849 43.2707 19.5544 41.7451Z" fill="#6F4EA7"/>
<path d="M20.1814 7.55273C21.3504 8.02896 22.1139 8.59452 22.9682 9.54247C22.2057 9.44773 22.0505 8.69322 21.6282 8.46738C20.8572 8.40831 19.8493 9.25337 19.1969 9.63882C19.1808 9.67144 19.0233 9.99126 19.0233 9.99141C19.1567 11.2291 19.1433 12.4592 19.1077 13.7018C19.1008 13.9443 19.1187 14.2134 19.0967 14.4531C18.9412 13.6022 19.0153 12.5731 18.9995 11.7053C18.9874 11.0413 19.1524 10.8683 18.7732 10.2653C18.8444 9.48409 19.568 8.1394 20.1814 7.55273Z" fill="#492876"/>
<path d="M10.8721 35.614C11.1227 35.5794 11.2567 35.5886 11.4471 35.716C11.7207 36.3431 11.6342 38.8808 11.7048 39.7196C11.8364 41.2822 11.8278 43.1154 12.0913 44.6611C11.212 43.1979 10.1068 42.2209 8.5181 41.618C7.09209 41.1423 6.13987 41.2117 4.68604 41.6147C6.3574 38.6475 7.71047 37.0135 10.8721 35.614Z" fill="#8A69BA"/>
<path d="M12.7547 36.6445C12.9855 36.8386 13.3066 37.3019 13.5061 37.5496C15.1241 39.5571 16.9069 40.4689 19.1628 41.5469C18.2817 42.2722 17.6513 43.1236 17.3013 44.2096C17.2571 44.3232 17.2889 44.2693 17.1624 44.3487C16.6763 44.1166 15.7092 43.8853 15.1521 43.9059C14.0843 43.9456 13.5311 44.426 12.705 45.0286C12.2474 43.2336 12.173 38.3069 12.7547 36.6445Z" fill="#8D4EB1"/>
<path d="M11.7496 32.8076C11.8454 32.8076 12.0139 32.8802 12.0609 32.9595C12.9318 34.4823 14.3458 35.7633 15.1925 37.2662C15.8349 38.4065 16.3091 39.03 17.1611 40.0061C15.282 39.1335 14.2363 37.5857 12.798 36.1595C12.3317 36.0251 12.2044 36.7058 12.1014 37.0434C11.9105 36.451 11.886 35.4525 11.3676 35.1557C11.1021 35.0897 10.8188 35.1988 10.5494 35.2739C8.77063 36.0748 7.60499 36.9696 6.33797 38.4638C5.78476 39.1162 5.31364 39.7669 4.69214 40.3584C5.74223 36.8766 8.23144 33.9419 11.7496 32.8076Z" fill="#492876"/>
<path d="M22.2771 47.7598C22.403 47.7826 22.4809 47.821 22.5974 47.8694C22.8124 48.1264 22.9754 48.335 22.8079 48.6594C22.5656 48.53 22.3341 48.4292 22.1526 48.2243C22.0936 47.9481 22.0909 48.0508 22.2771 47.7598Z" fill="#8F6896"/>
<path d="M43.9561 34.6816C45.2485 34.7274 45.7941 34.9083 47.0254 35.1339C47.5271 35.3066 48.2736 35.54 48.7277 35.7694C48.9932 35.9001 48.9385 35.9203 49.2009 35.8996L49.3083 35.7942L49.4122 35.9618L49.5861 35.9851L49.9135 36.1459C50.1014 36.2425 50.1812 36.2884 50.3517 36.4125L50.3664 36.4588L51.2091 37.0454C51.4583 37.3913 52.0027 38.3307 52.464 38.2786C52.708 38.5809 52.768 38.6726 53.0999 38.8641C53.187 39.1054 53.3013 39.2676 53.4486 39.4748C53.9257 40.1465 54.2929 40.8389 54.626 41.5909C54.6874 41.8194 54.6979 41.9605 54.8783 42.1056L54.9814 42.2243C54.7091 42.5026 54.7089 42.6016 54.7141 43.026L54.7212 43.7119C55.1821 45.2621 54.9062 48.1245 54.3365 49.6193C54.7745 49.9029 54.5035 49.4962 54.8275 49.8461C54.7548 50.015 54.612 50.3729 54.5295 50.5178C54.1577 51.2249 53.7624 52.066 53.2954 52.7069C53.0181 53.0875 52.0681 53.7628 51.9129 54.1493C51.6359 54.3 51.7149 54.2065 51.6124 54.4951L51.616 54.4193C51.1365 54.486 49.7941 55.5421 49.259 55.8208C48.6636 56.1309 48.3294 56.2737 47.6806 56.5062C47.1973 56.6793 45.9486 56.6528 45.7513 56.7951L45.4699 56.7389L45.2174 56.9806C44.8442 56.8287 43.4333 56.8275 42.9518 56.8111C42.7161 56.6452 42.8222 56.6742 42.5539 56.6844C42.4935 56.7409 42.3826 56.8371 42.3362 56.8978C42.022 56.4118 40.9596 56.7518 40.4844 56.6033C39.2324 56.2121 37.9259 55.062 36.8067 54.3658C36.7539 54.1058 36.8021 54.2 36.6284 54.0054L36.422 53.9947L36.3502 53.8802C36.4617 53.6158 36.3898 53.7095 36.6495 53.5356C36.2357 52.9266 35.8527 52.5669 35.405 51.8451C34.9137 51.8282 34.5976 51.475 34.2414 51.1522L34.1083 51.0244C33.9298 50.4082 33.5262 49.6806 33.283 49.0017C33.1894 48.7023 33.1256 48.4172 33.0682 48.1093C31.9901 42.3204 35.4678 36.9731 41.0172 35.2184C41.9396 34.9268 43.0152 34.8589 43.9561 34.6816Z" fill="#F7B86E"/>
<path d="M54.381 42.9824C54.4742 43.1949 54.6065 43.5231 54.7213 43.7111C55.1822 45.2613 54.9064 48.1237 54.3367 49.6185C54.7746 49.9021 54.5036 49.4954 54.8276 49.8453C54.755 50.0142 54.6121 50.3721 54.5296 50.5171C54.1578 51.2241 53.7625 52.0652 53.2955 52.7061C53.0182 53.0867 52.0682 53.762 51.913 54.1485C51.636 54.2992 51.7151 54.2057 51.6126 54.4943L51.6161 54.4186C51.1366 54.4852 49.7942 55.5413 49.2592 55.82C48.6637 56.1301 48.3295 56.2729 47.6807 56.5054C47.1974 56.6785 45.9488 56.6521 45.7514 56.7944L45.4701 56.7381L45.2175 56.9798C44.8443 56.8279 43.4334 56.8267 42.952 56.8103C42.7162 56.6444 42.8223 56.6734 42.554 56.6836C42.4937 56.7401 42.3827 56.8363 42.3364 56.897C42.0222 56.411 40.9597 56.751 40.4846 56.6025C39.2325 56.2113 37.926 55.0613 36.8069 54.3651C36.754 54.105 36.8022 54.1992 36.6285 54.0046L36.4221 53.9939L36.3504 53.8794C36.4618 53.615 36.3899 53.7087 36.6496 53.5348C36.2359 52.9259 35.8529 52.5661 35.4052 51.8444C35.1775 51.4742 34.9557 51.1005 34.7397 50.7234C35.2433 50.9839 35.7181 52.2438 36.1103 52.6364C36.4925 53.0192 37.5313 52.8664 37.9455 53.0097C38.351 53.1501 38.8916 53.5614 39.2101 53.8544C40.5996 55.133 41.4189 55.0975 43.1975 55.1973C46.3463 55.3739 48.5259 54.91 50.9393 52.7747C51.5111 52.2688 53.0151 50.4712 53.3065 49.834C54.2042 47.8711 54.3091 45.0991 54.381 42.9824Z" fill="#D68132"/>
<path d="M36.3503 53.8797C36.4618 53.6154 36.3899 53.7091 36.6496 53.5352C38.7737 55.3314 41.1253 56.1531 43.9186 56.2803C44.4492 56.584 44.8119 56.3573 45.185 56.5331C45.1746 56.6014 45.1653 56.67 45.1569 56.7386C45.2694 56.7415 45.3569 56.7463 45.4701 56.7385L45.2175 56.9802C44.8443 56.8283 43.4334 56.827 42.952 56.8107C42.7162 56.6448 42.8223 56.6738 42.554 56.684C42.4936 56.7405 42.3827 56.8367 42.3363 56.8974C42.0221 56.4114 40.9597 56.7514 40.4845 56.6029C39.2325 56.2116 37.926 55.0616 36.8068 54.3654C36.754 54.1054 36.8022 54.1996 36.6285 54.005L36.4221 53.9943L36.3503 53.8797Z" fill="#772812"/>
<path d="M43.9185 56.2813C46.7113 56.2898 49.0434 55.538 51.3492 53.9453C51.49 54.115 51.6034 54.2071 51.616 54.4199C51.1365 54.4866 49.7941 55.5427 49.259 55.8214C48.6636 56.1315 48.3293 56.2743 47.6806 56.5068C47.1972 56.6799 45.9486 56.6534 45.7513 56.7957L45.4699 56.7395C45.3568 56.7473 45.2693 56.7425 45.1568 56.7396C45.1651 56.671 45.1744 56.6024 45.1849 56.5341C44.8118 56.3583 44.4491 56.585 43.9185 56.2813Z" fill="#571F09"/>
<path d="M54.3367 49.6201C54.7746 49.9037 54.5036 49.497 54.8276 49.8469C54.755 50.0159 54.6121 50.3737 54.5296 50.5187C54.1578 51.2257 53.7625 52.0668 53.2955 52.7077C53.0182 53.0883 52.0682 53.7636 51.913 54.1501C51.636 54.3008 51.7151 54.2073 51.6126 54.4959L51.6161 54.4202C51.6036 54.2074 51.4901 54.1152 51.3494 53.9456C52.6312 52.6894 53.3249 51.8701 54.1095 50.2258C54.1824 50.0228 54.2582 49.821 54.3367 49.6201Z" fill="#32170E"/>
<path d="M43.9561 34.6816C45.2484 34.7274 45.7941 34.9083 47.0254 35.1339C47.5271 35.3066 48.2736 35.54 48.7277 35.7694C48.9932 35.9001 48.9385 35.9203 49.2009 35.8996L49.3083 35.7942L49.4122 35.9618L49.5861 35.9851L49.9135 36.1459C50.1014 36.2425 50.1812 36.2884 50.3517 36.4125L50.3664 36.4588L50.295 36.6417C50.0574 36.6977 49.8384 36.6745 49.6426 36.7946C48.946 36.4131 48.3121 36.222 47.555 35.9977L47.2723 36.256C46.5462 36.1766 45.6849 36.0345 44.972 36.0083C42.4622 35.916 39.3033 36.5943 37.4871 38.4719C37.2695 38.4964 36.8748 38.4749 36.6409 38.4689C35.5902 39.8073 35.0241 40.3697 34.4454 41.9523C33.834 42.9729 33.5881 44.8091 33.5754 45.9799C33.6237 47.6071 33.9668 49.2756 34.7396 50.7242C34.9555 51.1013 35.1773 51.4749 35.405 51.8451C34.9137 51.8282 34.5976 51.475 34.2414 51.1522L34.1083 51.0244C33.9298 50.4082 33.5262 49.6806 33.283 49.0017C33.1894 48.7023 33.1256 48.4172 33.0682 48.1093C31.9901 42.3204 35.4678 36.9731 41.0172 35.2184C41.9396 34.9268 43.0152 34.8589 43.9561 34.6816Z" fill="#B05913"/>
<path d="M36.6409 38.4686C38.2753 37.1389 39.0192 36.4699 41.066 35.899C43.5913 35.1947 45.0895 35.3635 47.555 35.9975L47.2723 36.2558C46.5462 36.1763 45.6849 36.0342 44.972 36.008C42.4622 35.9157 39.3033 36.5941 37.4871 38.4716C37.2695 38.4962 36.8748 38.4747 36.6409 38.4686Z" fill="#FDD9B7"/>
<path d="M50.3663 36.46L51.2091 37.0466C51.4582 37.3924 52.0027 38.3319 52.4639 38.2797C52.7079 38.5821 52.7679 38.6738 53.0998 38.8653C53.1869 39.1066 53.3012 39.2688 53.4485 39.476C53.9256 40.1477 54.2929 40.8401 54.6259 41.592C54.6873 41.8206 54.6978 41.9616 54.8782 42.1068L54.9813 42.2254C54.709 42.5038 54.7088 42.6027 54.7141 43.0271L54.7211 43.713C54.6063 43.5251 54.474 43.1969 54.3808 42.9844C53.616 39.9836 51.9973 38.61 49.6426 36.7958C49.8383 36.6757 50.0574 36.6988 50.295 36.6428L50.3663 36.46Z" fill="#883F0A"/>
<path d="M33.5754 45.9787C33.5881 44.808 33.8341 42.9718 34.4454 41.9512L34.6849 42.1933C34.4511 43.0593 34.3339 43.8879 34.2591 44.7788C34.2223 45.2162 34.264 45.789 33.9793 46.1035C33.795 46.1323 33.7063 46.1625 33.5754 45.9787Z" fill="#FDD9B7"/>
<path d="M36.6408 38.4697C36.8747 38.4757 37.2694 38.4972 37.487 38.4727C35.7975 40.0253 35.8126 40.1101 34.6848 42.1952L34.4453 41.9532C35.024 40.3705 35.5901 39.8082 36.6408 38.4697Z" fill="#FBECCD"/>
<path d="M41.8755 37.9783C43.3095 37.6137 45.1184 37.3617 46.5183 38.0183C46.9033 38.1265 47.288 38.2361 47.6622 38.3788C51.317 39.7722 53.244 44.0861 52.1681 47.8172C52.0649 48.1709 51.9576 48.5235 51.8463 48.8748C51.0848 50.8471 49.0877 53.1152 46.9247 53.5344C44.5067 54.6129 41.0099 53.8134 38.9224 52.347L38.3199 51.7218C35.4975 49.8349 35.2533 44.2898 36.9571 41.6586C37.9149 40.1795 39.5365 38.5405 41.2991 38.1583L41.8755 37.9783Z" fill="#EAA459"/>
<path d="M46.6706 38.3678C46.6127 38.1648 46.6627 38.2379 46.4463 38.1039L46.5183 38.0176C46.9033 38.1258 47.2879 38.2354 47.6622 38.3781C51.317 39.7715 53.244 44.0854 52.1681 47.8165C52.0648 48.1702 51.9576 48.5228 51.8462 48.8741C51.0848 50.8464 49.0877 53.1145 46.9247 53.5337C44.5067 54.6122 41.0099 53.8127 38.9224 52.3463L38.3199 51.7211L38.702 51.6499C37.8663 50.6323 37.7377 50.6754 37.1526 49.3398C37.1735 49.3616 37.1947 49.3833 37.2161 49.4047C41.655 53.822 49.189 53.5055 50.8178 46.8063C51.2632 44.9744 50.4768 42.4433 49.138 41.1509C48.6784 40.6815 48.3592 40.3531 47.8477 39.9476C47.6403 39.6602 47.4022 39.4218 47.2387 39.1247L47.7672 39.094C47.5031 38.7106 47.0877 38.5519 46.6706 38.3678Z" fill="#CD7D31"/>
<path d="M46.6706 38.3678C46.6127 38.1648 46.6627 38.2379 46.4463 38.1039L46.5182 38.0176C46.9032 38.1258 47.2879 38.2354 47.6622 38.3781C51.3169 39.7715 53.244 44.0854 52.168 47.8165C52.0648 48.1702 51.9576 48.5228 51.8462 48.8741C51.0848 50.8464 49.0876 53.1145 46.9246 53.5337C46.8934 53.4026 46.7673 53.2772 46.6775 53.1689C48.1455 52.9683 51.2505 50.37 51.5701 48.7972C51.9448 47.2007 51.9731 45.4883 51.7072 43.8658C51.3029 41.3993 49.6326 40.3813 47.7672 39.094C47.5031 38.7106 47.0877 38.5519 46.6706 38.3678Z" fill="#883F0A"/>
<path d="M38.3201 51.7196L38.7022 51.6484C40.7408 53.3643 42.5267 53.6728 45.1973 53.4391C45.6988 53.3998 46.1949 53.3088 46.6777 53.1674C46.7674 53.2757 46.8936 53.4012 46.9248 53.5323C44.5068 54.6108 41.0101 53.8113 38.9225 52.3449L38.3201 51.7196Z" fill="#883F0A"/>
<path d="M38.3199 51.7217C35.4975 49.8348 35.2533 44.2897 36.9571 41.6585C37.9149 40.1794 39.5365 38.5404 41.2991 38.1582L41.4511 38.2615C41.4225 38.3235 41.3828 38.418 41.3492 38.4737C40.765 38.6845 40.4703 38.8002 39.9799 39.2152L40.831 39.2613C40.3981 39.5428 39.959 39.8189 39.5459 40.1281C39.159 40.265 38.7721 40.5324 38.4633 40.8013C38.4285 41.0198 37.681 41.9694 37.4962 42.2208C36.1396 44.0654 36.2324 47.3763 37.1526 49.3404C37.7377 50.676 37.8663 50.6329 38.702 51.6505L38.3199 51.7217Z" fill="#B5621F"/>
<path d="M39.98 39.2148L40.8311 39.261C40.3982 39.5424 39.9591 39.8185 39.546 40.1277C39.159 40.2646 38.7722 40.532 38.4634 40.8009C38.7181 40.0485 39.3702 39.7158 39.98 39.2148Z" fill="#F08E53"/>
<path d="M41.8756 37.9783C43.3096 37.6137 45.1185 37.3617 46.5184 38.0183L46.4464 38.1046C46.6628 38.2386 46.6128 38.1655 46.6708 38.3685C47.0878 38.5526 47.5032 38.7113 47.7673 39.0947L47.2388 39.1254L47.1688 39.1228C46.9977 38.9927 46.6693 38.8862 46.457 38.8058C46.0416 38.7034 45.7104 38.6016 45.2786 38.6094C44.8571 38.7638 44.2633 38.6515 44.0327 38.7501C42.0814 39.5845 40.2707 39.8242 38.8674 41.4958C39.028 40.7874 39.0488 40.679 39.546 40.1282C39.9591 39.819 40.3982 39.5428 40.8311 39.2614L39.98 39.2153C40.4704 38.8003 40.7651 38.6846 41.3493 38.4738C41.3829 38.4181 41.4226 38.3235 41.4512 38.2616L41.2992 38.1583L41.8756 37.9783Z" fill="#FDD9B7"/>
<path d="M41.8758 37.9783C43.3098 37.6137 45.1187 37.3617 46.5185 38.0183L46.4466 38.1046C46.663 38.2386 46.613 38.1655 46.6709 38.3685C47.088 38.5526 47.5034 38.7113 47.7675 39.0947L47.239 39.1254L47.1689 39.1228C46.9978 38.9927 46.6694 38.8862 46.4572 38.8058C46.0418 38.7034 45.7105 38.6016 45.2787 38.6094C44.4281 38.5591 44.1108 38.5242 43.2499 38.4229L43.2257 38.3485C42.9383 38.3563 42.7836 38.3534 42.4979 38.3254C42.0849 38.3653 41.7611 38.4051 41.3494 38.4738C41.383 38.4181 41.4227 38.3235 41.4514 38.2616L41.2993 38.1583L41.8758 37.9783Z" fill="#883F0A"/>
<path d="M43.2258 38.3475C43.7232 38.2416 46.2314 38.2206 46.671 38.3674C47.0881 38.5515 47.5035 38.7102 47.7676 39.0936L47.2391 39.1243L47.169 39.1217C46.9979 38.9916 46.6696 38.8851 46.4573 38.8047C46.0419 38.7023 45.7106 38.6005 45.2788 38.6084C44.4282 38.5581 44.1109 38.5232 43.25 38.4219L43.2258 38.3475Z" fill="#F08E53"/>
<path d="M42.4979 38.3252C42.7836 38.3532 42.9383 38.3561 43.2258 38.3484L43.2499 38.4228C42.2979 38.6081 41.7145 38.8366 40.8313 39.2613L39.9802 39.2151C40.4706 38.8001 40.7653 38.6844 41.3495 38.4736C41.7612 38.4049 42.085 38.3651 42.4979 38.3252Z" fill="#B05913"/>
<path d="M45.2788 38.6098C45.7106 38.602 46.0418 38.7038 46.4572 38.8061C46.4277 39.059 46.4293 39.1231 46.2855 39.3459C45.7433 39.7085 45.3793 39.5411 44.7254 39.5488C43.7009 39.5609 42.5707 39.775 41.6867 40.3181C40.7932 40.9181 39.5347 41.6168 38.9808 42.5518C38.8438 42.783 38.6101 43.1386 38.3454 43.1243C38.1745 42.6693 38.5616 41.8445 38.8676 41.4962C40.2709 39.8245 42.0816 39.5849 44.0329 38.7505C44.2635 38.6519 44.8573 38.7641 45.2788 38.6098Z" fill="#FEDFB3"/>
<path d="M47.8479 39.9482C48.3594 40.3538 48.6786 40.6822 49.1382 41.1516C48.8104 41.4348 48.2227 41.7537 47.7891 41.6118C47.4724 41.2683 47.6053 40.2736 47.8479 39.9482Z" fill="#FDD9B7"/>
<path d="M46.4569 38.8057C46.6692 38.8861 46.9975 38.9926 47.1686 39.1227C47.0836 39.4349 47.1543 39.3474 46.9291 39.4927C46.6507 39.5065 46.5435 39.4475 46.2852 39.3455C46.4289 39.1227 46.4274 39.0586 46.4569 38.8057Z" fill="#FDD9B7"/>
<path d="M43.484 41.3551C44.5953 41.2809 45.8626 41.3978 46.549 42.3815C47.3961 43.5952 47.066 44.9478 45.9251 45.7814C46.9937 46.4071 47.4585 47.1784 47.3097 48.4158C47.0228 50.8288 43.8095 51.4076 42.0077 50.3185C40.9566 49.6832 40.4277 49.0048 41.6576 48.1808L41.8621 48.0707C42.0531 48.0879 42.2813 48.2568 42.4633 48.4422C43.4662 49.4636 45.3961 49.4434 45.3259 47.6793C45.2854 46.66 43.6992 46.8231 43.1072 46.5625C43.0066 46.5183 42.8842 46.2639 42.8777 46.1409C42.6013 44.6468 44.3317 45.4618 44.9073 44.5864C45.1604 44.2014 44.9212 43.2863 44.4911 43.1168C43.644 42.7828 42.96 43.4322 42.317 43.8552C42.1872 43.9406 41.7571 43.8769 41.6321 43.7883C41.0696 43.5271 41.1725 42.8053 41.4709 42.3561C41.879 41.7418 42.7792 41.5097 43.484 41.3551Z" fill="#883F0A"/>
<path d="M51.8465 48.875C51.9838 49.5038 51.5407 49.6941 51.5267 50.0632L51.6567 50.0565L51.8735 49.6767L51.9506 49.6909C51.4056 50.8439 50.1468 52.2059 49.1766 53.042C49.1478 53.0668 46.8065 54.0976 46.6515 54.1378C44.1582 54.785 40.9495 54.4306 38.7948 52.9602C38.2916 52.6119 37.5451 51.3209 37.0611 50.8701C36.8637 50.6461 36.5643 50.0449 36.4375 49.7627L36.4805 49.6683C36.6195 49.8216 36.6823 50.0645 36.8138 50.2331C37.2136 50.7459 38.3163 52.2554 38.9226 52.3472C41.0101 53.8136 44.5069 54.613 46.9249 53.5346C49.0879 53.1154 51.085 50.8473 51.8465 48.875Z" fill="#FDD9B7"/>
<path d="M43.9563 34.6805C44.0065 34.6713 44.4039 34.5978 44.4039 34.5978C45.5332 33.408 46.206 32.8823 47.0718 34.7393C47.0995 34.7987 47.0486 35.0366 47.0256 35.1328C45.7943 34.9072 45.2486 34.7264 43.9563 34.6805Z" fill="#A870BA"/>
<path d="M24.0861 27.3057C24.6167 27.3943 26.1236 28.0581 26.7072 28.2746C27.2233 28.466 27.9848 28.9529 28.5551 29.212C28.5428 29.5066 28.5926 29.7395 28.6507 30.0246C29.1521 32.4855 28.8454 33.8488 26.5587 35.0453C25.0293 35.4727 23.6141 34.944 22.8712 33.5013C22.363 32.5025 22.2801 31.3407 22.6412 30.2799C23.0336 29.1051 23.5653 28.5701 24.6138 28.0502L24.5624 27.9981C24.2919 27.7202 24.1672 27.6857 24.0861 27.3057Z" fill="black"/>
<path d="M24.5702 28.7607C25.5749 28.7632 25.5933 29.5984 25.6965 30.3774C25.3494 30.9554 24.9962 31.5619 24.3466 31.7737C24.1489 31.7617 23.9773 31.745 23.7929 31.6641C23.5419 31.552 23.3449 31.3458 23.2442 31.09C22.8726 30.1361 23.6646 29.0924 24.5702 28.7607Z" fill="white"/>
<path d="M27.0856 32.5195C27.2269 32.5685 27.2502 32.6073 27.353 32.7121C27.4564 32.99 27.3721 33.2214 27.3066 33.5135L27.119 33.4338C26.9424 33.1248 27.0171 32.8537 27.0856 32.5195Z" fill="#422141"/>
<path d="M43.0137 26.9238L43.1694 26.9423L43.2321 27.0358C43.1471 27.2863 42.7747 27.5879 42.5673 27.7833C43.1385 28.0801 43.5541 28.3146 43.9293 28.8954C44.8908 30.3857 44.8788 33.1241 43.3016 34.2053C42.6647 34.6419 41.8876 34.6534 41.164 34.5031C41.058 34.4745 40.9525 34.4441 40.8476 34.412C40.3068 34.2454 39.8891 33.9321 39.5582 33.4713C38.339 31.7733 39.4259 30.1725 38.9214 29.2491C38.9156 29.2385 38.9095 29.228 38.9036 29.2175L38.9485 29.062C39.9864 28.4869 41.9751 27.3382 43.0137 26.9238ZM43.3719 33.3911C43.4026 33.1418 43.4645 32.9305 43.3475 32.7244C43.1694 32.6129 43.1449 32.6075 42.9346 32.5979C42.9914 32.8441 43.045 33.1899 43.1924 33.3815L43.3719 33.3911Z" fill="black"/>
<path d="M40.687 28.6814C41.6248 28.6561 42.1866 29.2565 41.816 30.1856C41.6118 30.6974 41.28 30.7918 40.8014 30.9842C39.3957 31.2411 39.3781 29.2939 40.687 28.6814Z" fill="white"/>
<path d="M42.9346 32.5986C43.1448 32.6082 43.1693 32.6136 43.3474 32.7251C43.4645 32.9312 43.4025 33.1425 43.3718 33.3919L43.1923 33.3822C43.0449 33.1906 42.9913 32.8448 42.9346 32.5986Z" fill="#422141" fill-opacity="0.988235"/>
<path d="M33.8789 32.804C34.1657 32.7844 34.4416 32.7333 34.6882 32.8707C35.0215 33.5476 33.399 34.1919 36.2753 34.9054C36.5537 34.7067 36.9586 34.2855 37.2707 34.4933C37.2025 34.9097 36.7535 35.1137 36.4178 35.3195C36.3302 35.724 36.3646 35.9878 35.9917 36.1865L35.845 36.1213C35.7574 35.7484 36.0008 35.9306 35.9978 35.4529C35.7582 35.2042 34.9779 34.9838 34.3865 34.5092C33.8114 34.7984 33.1066 35.2434 32.4716 35.4844C32.4782 35.4819 32.4806 35.9927 32.3759 36.1654L32.187 36.1037C32.0098 35.9293 32.0124 35.6759 31.9783 35.4198C31.7837 35.316 31.5934 35.2042 31.4078 35.0849C31.0999 34.8871 30.9839 34.8051 30.9106 34.4681L30.986 34.3524C31.8335 34.3041 32.4817 35.8264 34.1512 34.0485C34.3116 33.4553 33.5002 33.5127 33.8789 32.804Z" fill="black"/>
<path d="M22.4951 34.2039C22.7294 34.0942 22.8826 34.298 22.9882 34.4615C22.767 34.7534 21.104 34.2528 20.7405 34.6877C20.0377 35.513 20.3087 36.2592 21.4316 36.3362C23.5775 36.4833 22.6626 35.5643 23.3272 34.9503C23.7173 36.2009 22.8538 36.7432 21.8297 37.0452C21.1351 36.7883 19.9852 36.4788 19.9663 35.4858C19.9438 34.3054 21.628 34.2199 22.4951 34.2039Z" fill="#A870BA"/>
<path d="M36.422 53.9941L36.6284 54.0048C36.8021 54.1994 36.754 54.1052 36.8068 54.3653C37.9259 55.0615 39.2324 56.2115 40.4845 56.6027C40.9597 56.7512 42.0221 56.4112 42.3363 56.8972C42.3826 56.8365 42.4936 56.7403 42.554 56.6838C42.8223 56.6736 42.7162 56.6446 42.9519 56.8105C43.4333 56.8269 44.8442 56.8281 45.2174 56.98L45.47 56.7383L45.7514 56.7946C45.9487 56.6523 47.1973 56.6787 47.6806 56.5056C48.3294 56.2731 48.6637 56.1303 49.2591 55.8202C49.7942 55.5415 51.1366 54.4854 51.6161 54.4188L51.6125 54.4945C51.715 54.2059 51.636 54.2994 51.9129 54.1487L52.2505 54.6112L52.5281 55.0852C52.6593 55.3423 52.809 55.6567 52.9534 55.9009C52.9649 55.8901 52.9766 55.8794 52.9882 55.8686C54.5449 55.2916 57.5646 54.6589 57.8248 57.1377C58.0933 59.6963 58.3916 62.3627 58.3657 64.9346C58.3566 65.4048 58.0132 65.9099 57.6496 66.1389C56.2836 66.9997 53.9805 67.2045 52.4092 67.5523C50.2959 68.02 48.1696 68.1742 46.0447 68.4244C35.1839 69.7698 24.1854 69.5328 13.3926 67.7206C12.248 67.5204 11.0845 67.2577 9.96402 67.0083C9.07246 66.8097 7.62999 66.5654 7.12083 65.749C6.67106 64.8919 6.80063 63.3835 6.86412 62.444C6.98242 60.6936 6.96976 58.9179 7.21352 57.1931C7.36131 56.1473 8.2415 55.3855 9.3108 55.5035C11.5287 55.7482 13.6876 56.2186 15.8855 56.5782C17.3473 56.8141 18.8674 56.8119 20.321 56.9895C24.2849 57.4739 28.2143 57.7672 32.2095 57.7181C32.8172 57.7107 34.2885 57.8011 34.8115 57.6775C34.7606 57.5209 34.714 57.2467 34.6796 57.0768C34.8906 56.8242 36.2108 54.3759 36.422 53.9941Z" fill="#FDE0C8"/>
<path d="M51.9128 54.1494L52.2503 54.6119L52.528 55.0859C52.6592 55.343 52.8089 55.6574 52.9532 55.9016C53.0989 56.1251 53.4119 56.5776 53.5184 56.8079C54.518 58.9679 50.8185 57.698 49.9158 58.0149C49.9521 58.0022 48.8042 59.4404 48.6932 59.5122C47.239 61.5248 46.6146 59.7519 45.9491 58.2782C46.0515 58.0962 46.1111 58.0702 46.2806 57.9473L46.1055 57.5714C46.0252 57.4719 45.8154 56.9456 45.7512 56.7953C45.9486 56.653 47.1972 56.6794 47.6805 56.5063C48.3293 56.2738 48.6635 56.131 49.259 55.8209C49.794 55.5422 51.1364 54.4861 51.6159 54.4195L51.6124 54.4952C51.7149 54.2066 51.6358 54.3001 51.9128 54.1494Z" fill="#070402"/>
<path d="M45.7512 56.7957C45.9486 56.6534 47.1972 56.6799 47.6805 56.5068C48.3293 56.2743 48.6635 56.1315 49.259 55.8214C49.794 55.5427 51.1364 54.4865 51.6159 54.4199L51.6124 54.4957C51.7477 54.8516 51.8513 55.1035 52.0188 55.4465C50.4804 55.5934 50.5466 56.748 48.362 57.0992C47.7449 57.2824 47.4084 57.3866 46.8273 57.6532C46.5233 57.5848 46.4188 57.5806 46.1055 57.5719C46.0252 57.4723 45.8154 56.946 45.7512 56.7957Z" fill="#AA211A"/>
<path d="M52.0188 55.4463C52.3075 56.1293 52.6649 56.845 53.1709 57.3936C52.4827 57.4142 49.8753 57.2801 49.5397 57.4459C49.472 57.546 49.4029 57.6457 49.3397 57.7487C49.1947 57.1553 48.8961 57.1197 48.3621 57.099C50.5467 56.7478 50.4805 55.5932 52.0188 55.4463Z" fill="#E34648"/>
<path d="M48.3621 57.0986C48.8962 57.1194 49.1947 57.155 49.3397 57.7483C49.0838 58.0979 48.8502 58.4503 48.5255 58.7365C48.2188 58.7247 47.8489 58.7509 47.5376 58.7645C47.3086 58.3807 46.9359 58.034 46.8274 57.6526C47.4085 57.386 47.745 57.2818 48.3621 57.0986Z" fill="#F05C5A"/>
<path d="M46.1057 57.5713C46.4191 57.5801 46.5236 57.5842 46.8275 57.6526C46.936 58.034 47.3088 58.3807 47.5377 58.7645C47.849 58.7509 48.2189 58.7247 48.5256 58.7365C48.0169 59.2205 47.8364 59.4864 47.5316 60.0875C47.1855 59.3522 46.72 58.6315 46.2808 57.9471L46.1057 57.5713Z" fill="#E34648"/>
<path d="M36.4221 53.9941L36.6285 54.0048C36.8022 54.1994 36.754 54.1052 36.8069 54.3653C37.926 55.0615 39.2325 56.2115 40.4846 56.6027C40.9597 56.7512 42.0222 56.4113 42.3364 56.8972C42.3827 56.8365 42.4937 56.7403 42.554 56.6838C42.8223 56.6736 42.7162 56.6446 42.952 56.8105L42.6713 57.3989C42.3515 57.9869 41.3116 60.6677 40.3971 59.9852C39.8801 59.5993 38.7996 58.3471 38.4413 57.7805C37.5345 57.8767 35.4982 58.1866 34.8115 57.6775C34.7606 57.5209 34.7141 57.2467 34.6797 57.0768C34.8907 56.8242 36.2109 54.3759 36.4221 53.9941Z" fill="#D03E3C"/>
<path d="M36.4221 53.9941L36.6285 54.0048C36.8022 54.1994 36.754 54.1052 36.8069 54.3653C36.3614 55.0412 35.7005 56.5757 35.2816 57.3673C36.1432 57.3517 38.3551 57.0624 38.9342 57.3544C39.2314 57.7318 40.3689 59.2228 40.7127 59.3604C40.8113 59.2822 40.7978 59.3214 40.8359 59.2262C41.4654 58.6907 42.0015 57.6415 42.3364 56.8972C42.3827 56.8365 42.4937 56.7403 42.554 56.6838C42.8223 56.6736 42.7162 56.6446 42.952 56.8105L42.6713 57.3989C42.3515 57.9869 41.3116 60.6677 40.3971 59.9852C39.8801 59.5993 38.7996 58.3471 38.4413 57.7805C37.5345 57.8767 35.4982 58.1866 34.8115 57.6775C34.7606 57.5209 34.7141 57.2467 34.6797 57.0768C34.8907 56.8242 36.2109 54.3759 36.4221 53.9941Z" fill="black"/>
<path d="M38.9341 57.3549C39.5239 57.0505 40.8916 57.7833 41.3319 58.28C41.2221 58.4932 40.8737 59.0575 40.8359 59.2267C40.7977 59.3219 40.8112 59.2827 40.7126 59.3609C40.3689 59.2233 39.2313 57.7324 38.9341 57.3549Z" fill="#E34648"/>
<path d="M42.9518 56.8105C43.4332 56.8269 44.8441 56.8282 45.2173 56.9801L45.3519 57.3188C44.5413 57.3622 43.4613 57.4516 42.6711 57.399L42.9518 56.8105Z" fill="#FAB98F"/>
<path d="M45.4699 56.7383L45.7512 56.7945C45.8154 56.9448 46.0251 57.4711 46.1055 57.5707L46.2806 57.9465C46.1111 58.0695 46.0515 58.0955 45.9491 58.2775C45.8532 58.1712 45.4719 57.492 45.3519 57.3187L45.2173 56.98L45.4699 56.7383Z" fill="#32170E"/>
<path d="M28.7677 61.3965C31.0331 61.2807 31.9005 63.7474 30.7704 65.4794C30.3947 66.0552 29.8315 66.149 29.2008 66.2408C28.8919 66.2517 28.4405 66.2075 28.1436 66.1298C27.6875 66.0119 27.3005 65.7108 27.0739 65.2979C26.6516 64.5319 26.7703 63.3674 27.0027 62.5455C27.6009 61.8836 27.9331 61.6342 28.7677 61.3965Z" fill="#AA211A"/>
<path d="M28.5333 62.3863C29.7435 62.2993 30.4718 62.8106 30.2634 64.2013C30.191 64.6849 29.8166 65.0799 29.3978 65.3279C27.4613 65.5562 27.0662 63.0203 28.5333 62.3863Z" fill="#FDE0C8"/>
<path d="M32.3975 61.5556C33.0755 61.5354 34.096 61.4366 34.6413 61.8821C35.5425 62.6181 35.3454 64.1017 34.2667 64.5631C33.9385 64.7036 33.4712 64.7153 33.1106 64.7463C33.0114 64.7328 32.985 64.7515 32.8846 64.7762C32.7235 65.0922 32.9028 65.5096 32.7923 65.9821C32.5863 66.2116 32.6916 66.1465 32.394 66.2282C32.0869 66.1284 32.1968 66.1995 31.98 65.9544C31.805 65.425 31.9218 62.521 31.9899 61.8325C32.0092 61.6368 32.2238 61.6042 32.3975 61.5556Z" fill="#AA211A"/>
<path d="M32.8427 62.4557C33.8137 62.4108 34.8077 62.4398 34.0445 63.6994C33.7099 63.8186 33.3667 63.9666 33.0315 63.8494C32.6985 63.4777 32.8183 62.9987 32.8427 62.4557Z" fill="#FDE0C8"/>
<path d="M38.4235 63.4118C38.9512 62.91 39.0842 63.4215 39.5476 62.6046L39.5207 62.4273C38.9801 62.0963 37.9896 62.6343 37.4802 62.2641C37.5236 61.9595 37.7236 61.7956 37.969 61.5984C38.5847 61.1034 39.6083 61.0668 40.132 61.7156C40.2481 61.8593 40.3386 62.2975 40.3847 62.4963C40.2877 62.8503 40.1988 63.2012 40.0665 63.5437C40.4819 64.0337 40.534 64.1394 40.6953 64.755C40.51 65.417 40.4278 65.6366 39.8632 66.0801C39.1858 66.1569 37.7362 66.2565 37.5585 65.3945C37.6321 65.0984 37.7442 65.0083 37.9981 64.853C38.0579 64.8166 38.1184 64.7816 38.1798 64.7478C38.1252 64.6603 38.3568 63.5042 38.4235 63.4118Z" fill="#AA211A"/>
<path d="M38.1799 64.7472C38.1253 64.6597 38.3569 63.5035 38.4236 63.4111C38.4615 63.6228 38.4545 63.8546 38.6243 63.9585C38.9392 64.1509 39.5871 64.1793 39.7741 64.4916C39.8285 65.2861 39.0528 65.4798 38.4687 65.0612C38.3918 65.006 38.2492 64.8272 38.1799 64.7472Z" fill="#FDE0C8"/>
<path d="M23.2393 61.1436C24.0296 61.178 26.3572 61.0928 26.6836 61.8183C26.6665 62.1371 26.7165 62.0393 26.5309 62.2229C26.1667 62.3555 25.6206 62.3055 25.2181 62.2956C25.1158 63.0301 25.0837 64.0702 25.0384 64.8304C25.0275 65.2984 25.0805 65.8627 24.6342 66.0711C23.8489 65.9096 24.2852 62.9892 24.3118 62.2109C23.8336 62.1956 23.4822 62.2796 23.1775 61.88C23.117 61.5647 23.1596 61.458 23.2393 61.1436Z" fill="#AA211A"/>
<path d="M58.8683 54.935C60.4567 54.8723 61.8169 54.8443 63.4032 54.9183C62.9559 56.5399 61.9989 58.0213 61.3634 59.6214C61.8173 61.1998 63.2028 62.1857 63.4664 63.9487L63.3496 64.1642C62.9125 64.4272 59.816 64.5698 59.1396 64.5702C59.1318 62.1552 58.9403 59.2988 58.5968 56.9111C58.5207 56.3821 57.9024 55.4413 57.6038 54.9868C58.0263 54.9876 58.4465 54.9588 58.8683 54.935Z" fill="#FAB98F"/>
<path d="M1.96109 54.9291C4.12454 54.8134 5.3792 54.9121 7.49943 55.0804C6.72145 55.924 6.55216 56.6793 6.42922 57.7927C6.1738 60.1061 6.07937 62.4243 6.14301 64.7506L5.4023 64.6678C4.3564 64.6274 2.92757 64.4543 1.85156 64.3509C2.0883 62.3246 3.3012 61.418 4.0301 59.8265C3.70944 58.5578 1.94745 55.8059 1.96109 54.9291Z" fill="#FAB98F"/>
</svg>
