<svg width="66" height="70" viewBox="0 0 66 70" fill="none" xmlns="http://www.w3.org/2000/svg">
<path d="M30.8952 0.0616396C32.1104 -0.0639483 34.2218 0.0254836 35.4354 0.124876C41.5389 0.571654 47.3706 2.8281 52.1853 6.60581C59.0942 12.0094 63.622 19.8956 64.8056 28.5865C65.8339 36.6139 64.1367 44.754 59.9861 51.7015C59.5279 52.4655 58.9637 53.5118 58.4334 54.2004C59.9886 54.1923 61.4779 54.194 63.0294 54.3044C63.3337 54.5735 63.4637 54.7391 63.713 55.0497C63.2605 56.6874 62.5889 58.2564 61.7162 59.7142C62.5055 60.6836 63.5159 62.6893 63.9076 63.8739C64.3632 65.2515 59.4187 65.3357 58.754 65.3847C58.4139 66.5286 57.7495 67.0386 56.6413 67.3385C54.9295 67.821 53.1219 67.9806 51.3866 68.3751C45.5113 69.7107 39.8274 69.8237 33.8411 69.9908C29.5985 70.0298 25.0267 69.9542 20.7996 69.581C17.9185 69.326 14.7942 68.6986 11.9526 68.1649C10.5039 67.8928 8.86254 67.7031 7.47088 67.2466C6.48146 66.922 6.07128 66.341 5.66102 65.4565C4.7825 65.4326 1.08773 65.199 1.00214 64.176C0.911228 63.0891 2.41408 60.6491 2.96631 59.6704C2.43095 58.6559 1.15589 56.0117 1.11491 54.9637C1.06004 53.5601 5.40357 54.1875 6.42765 54.3649C5.93984 53.7534 5.47135 52.9527 5.06377 52.2755C1.47527 46.3146 0.121995 40.5165 0.00492516 33.6528C-0.257127 18.2894 9.96218 4.66788 24.8889 0.816892C26.8372 0.314235 28.9032 0.220384 30.8952 0.0616396Z" fill="#758BB8"/>
<path d="M7.82431 54.8693C7.30872 54.1409 6.65842 53.456 6.17016 52.7129C3.82074 49.1374 2.29795 45.2742 1.39325 41.1106C-0.318549 33.3807 0.677873 25.2972 4.21566 18.2143C7.64372 11.2974 15.1189 4.71208 22.4303 2.27711C30.4756 -0.447846 39.2807 0.19413 46.8456 4.05727C47.8399 4.55645 48.6439 5.0902 49.5741 5.69334C55.7339 9.63561 60.3526 15.5742 62.657 22.515C63.6441 25.5118 64.427 30.2184 64.3985 33.365C64.3514 38.551 63.135 44.2259 60.7952 48.8635C60.1957 50.0516 59.3969 51.2837 58.7315 52.4446C58.2036 53.3011 57.5141 53.88 56.9683 54.9652C55.8635 54.7238 53.8533 54.8201 52.7364 55.0136C52.5948 55.173 52.487 55.2105 52.2986 55.3068L51.8995 54.7096L51.7974 54.6284L51.5259 54.7254C51.4864 54.8122 51.4501 54.8721 51.4345 54.9647L51.3423 54.7413C50.9111 54.6175 49.7141 55.5673 49.288 55.7968C48.18 56.3935 47.0617 56.6288 45.8374 56.8469C45.74 56.923 45.6296 56.9887 45.5828 57.0974C45.2738 57.1296 45.1479 57.0772 44.9552 57.356C44.9501 57.35 44.9461 57.3428 44.9399 57.3379C44.6832 57.1336 43.1075 57.2396 42.7108 57.2138C42.6953 57.1004 42.6596 56.9727 42.6321 56.8602C42.4865 56.7333 42.4671 56.7158 42.2757 56.7076C42.0225 56.8617 42.1038 56.7712 41.9816 57.0646L40.7924 56.7195C41.2655 56.6734 41.3822 56.7714 41.7509 56.7585L41.7651 56.6762L41.4812 56.6241L41.4212 56.5131C39.7211 56.1353 37.8508 55.1217 36.4451 54.111C36.1358 54.2093 36.2277 54.1315 36.0852 54.3877C35.4082 55.099 34.9852 56.2652 34.4579 57.1479C33.1775 57.7635 25.1062 56.8542 23.2783 56.7864C20.3598 56.6782 16.6139 56.2043 13.7679 55.5168C13.2272 55.5994 12.5002 55.418 11.9533 55.3118C10.8469 54.9495 8.97989 54.8143 7.82431 54.8693Z" fill="#8A6BBA"/>
<path d="M7.82431 54.8693C7.30872 54.1409 6.65842 53.456 6.17016 52.7129C3.82074 49.1374 2.29795 45.2742 1.39325 41.1106C-0.318549 33.3807 0.677873 25.2972 4.21566 18.2143C7.64372 11.2974 15.1189 4.71208 22.4303 2.27711C30.4756 -0.447846 39.2807 0.19413 46.8456 4.05727C47.8399 4.55645 48.6439 5.0902 49.5741 5.69334C55.7339 9.63561 60.3526 15.5742 62.657 22.515C63.6441 25.5118 64.427 30.2184 64.3985 33.365C64.3514 38.551 63.135 44.2259 60.7952 48.8635C60.1957 50.0516 59.3969 51.2837 58.7315 52.4446C58.2036 53.3011 57.5141 53.88 56.9683 54.9652C55.8635 54.7238 53.8533 54.8201 52.7364 55.0136C52.5948 55.173 52.487 55.2105 52.2986 55.3068L51.8995 54.7096L51.7974 54.6284C51.7698 54.5802 51.7285 54.4588 51.7066 54.401C51.8491 54.0757 52.663 53.4557 52.9202 53.1111C53.3062 52.5939 53.5961 52.0214 53.9068 51.4567L54.0828 51.0894C54.1798 50.9701 54.3661 50.5771 54.446 50.4185C54.273 49.8585 54.6373 50.0865 54.266 49.4256C54.6728 47.8734 54.9221 45.2421 54.3111 43.7341C54.1241 43.2033 53.8952 42.6758 53.6772 42.156C53.8517 42.1193 53.983 42.0783 54.1517 42.0264L54.2843 41.6749C53.4913 41.5781 53.2354 40.0346 53.0548 39.4121C52.2254 38.9773 52.1263 37.5234 51.7916 36.4909L51.7723 36.2587L51.6616 36.1931C51.0711 36.476 50.8929 37.4961 50.2147 37.1326C50.0949 36.9962 49.5219 36.5908 49.3449 36.4601C49.2334 36.3456 49.2238 36.3081 49.1524 36.1623C48.6815 36.2162 48.4744 36.1526 48.0965 35.8774C48.8804 32.6339 48.8626 30.5641 48.1286 27.26C47.6277 25.0047 47.0802 23.7434 45.9889 21.7523C45.7954 21.3992 45.869 19.1052 45.7313 18.5512C45.2555 15.5673 44.2981 12.5 42.865 9.83703C42.0715 8.36256 41.4251 8.22005 40.1329 9.18955C38.2603 10.5947 37.0187 11.9743 35.7449 13.909C32.0393 13.0192 27.2765 12.9244 23.7546 14.523C22.5582 13.0295 20.9777 11.7641 19.3743 10.7289C18.887 10.4143 18.4849 10.1672 17.9001 10.073C17.0814 9.94114 16.951 10.8136 16.6443 11.3618C15.2855 13.9811 15.0389 16.9982 14.7383 19.8872C14.65 20.7364 14.8183 21.9779 14.6368 22.7687C14.5128 23.3095 13.865 24.3 13.6783 24.8893C12.6082 28.2676 11.5808 33.2896 13.1335 36.6172C12.7728 36.4115 12.3037 36.1584 12.0113 35.8736C11.1028 34.9887 10.9296 34.0108 9.79827 33.2989C7.15492 34.5071 6.33075 35.4638 4.83833 37.9621L4.44937 38.621C4.09896 39.3119 2.80613 42.2192 3.67244 42.6735C4.12758 42.6263 4.68881 42.3101 5.18852 42.1709C5.34842 42.4001 5.29904 42.5112 5.34797 42.7587C6.0633 46.3816 9.44304 52.9044 12.3277 55.1056L12.3371 55.2347C12.1731 55.2872 12.1249 55.2947 11.9533 55.3118C10.8469 54.9495 8.97989 54.8143 7.82431 54.8693Z" fill="#D8DFEE"/>
<path d="M7.82431 54.8693C7.30872 54.1409 6.65842 53.456 6.17016 52.7129C3.82074 49.1374 2.29795 45.2742 1.39325 41.1106C-0.318549 33.3807 0.677873 25.2972 4.21566 18.2143C7.64372 11.2974 15.1189 4.71208 22.4303 2.27711C30.4756 -0.447846 39.2807 0.19413 46.8456 4.05727C47.8399 4.55645 48.6439 5.0902 49.5741 5.69334C55.7339 9.63561 60.3526 15.5742 62.657 22.515C63.6441 25.5118 64.427 30.2184 64.3985 33.365C64.3514 38.551 63.135 44.2259 60.7952 48.8635C60.1957 50.0516 59.3969 51.2837 58.7315 52.4446C58.2036 53.3011 57.5141 53.88 56.9683 54.9652C55.8635 54.7238 53.8533 54.8201 52.7364 55.0136C52.5948 55.173 52.487 55.2105 52.2986 55.3068L51.8995 54.7096L51.7974 54.6284C51.7698 54.5802 51.7285 54.4588 51.7066 54.401C51.8491 54.0757 52.663 53.4557 52.9202 53.1111C53.3062 52.5939 53.5961 52.0214 53.9068 51.4567L54.0828 51.0894C54.1798 50.9701 54.3661 50.5771 54.446 50.4185C54.273 49.8585 54.6373 50.0865 54.266 49.4256C54.6728 47.8734 54.9221 45.2421 54.3111 43.7341C54.1241 43.2033 53.8952 42.6758 53.6772 42.156C53.8517 42.1193 53.983 42.0783 54.1517 42.0264L54.4187 42.146C55.8697 40.8068 57.4144 39.2914 59.6099 40.26L60.1012 40.3986C60.6146 39.9865 60.5491 39.8233 60.3612 39.2475C60.4099 39.101 60.456 38.9072 60.4974 38.7543C61.0412 36.4025 61.1222 32.4332 60.83 30.0139C57.7137 4.21283 26.7667 -5.46468 10.0217 15.2775C9.45922 15.8143 9.59692 16.0523 9.23284 16.5324C7.36017 19.0018 6.05177 21.6816 5.29041 24.7305C5.07983 25.38 4.94862 25.8772 4.82131 26.552C5.07937 26.5816 5.35804 26.5335 5.44597 26.8058C4.60416 29.152 4.27542 35.1012 4.74689 37.8046C4.74804 37.8111 4.83108 37.9495 4.83833 37.9621L4.44937 38.621C4.09896 39.3119 2.80613 42.2192 3.67244 42.6735C4.12758 42.6263 4.68881 42.3101 5.18852 42.1709C5.34842 42.4001 5.29904 42.5112 5.34797 42.7587C6.0633 46.3816 9.44304 52.9044 12.3277 55.1056L12.3371 55.2347C12.1731 55.2872 12.1249 55.2947 11.9533 55.3118C10.8469 54.9495 8.97989 54.8143 7.82431 54.8693Z" fill="#D8DFEE"/>
<path d="M54.4188 42.145C55.8698 40.8059 57.4145 39.2905 59.61 40.2591C58.8513 43.8573 57.8653 46.5033 55.8764 49.6426C55.241 50.6455 54.8415 51.4722 53.8663 52.2335L53.7591 52.2366C53.8384 51.9267 53.9056 51.7831 53.9069 51.4557L54.0828 51.0885C54.1799 50.9692 54.3662 50.5761 54.4461 50.4175C54.2731 49.8575 54.6374 50.0856 54.2661 49.4247C54.6728 47.8724 54.9221 45.2411 54.3111 43.7332C54.1242 43.2024 53.8952 42.6749 53.6772 42.155C53.8518 42.1184 53.9831 42.0773 54.1518 42.0255L54.4188 42.145Z" fill="#D8DFEE"/>
<path d="M54.1518 42.0254L54.4188 42.1449C54.6086 42.6391 54.9738 43.3715 55.1034 43.8459C55.6299 45.7725 55.3386 48.4464 54.5315 50.2465C54.5051 50.3045 54.4765 50.3615 54.4461 50.4174C54.2731 49.8574 54.6374 50.0855 54.2661 49.4246C54.6728 47.8723 54.9221 45.241 54.3111 43.733C54.1242 43.2023 53.8952 42.6748 53.6772 42.1549C53.8518 42.1183 53.9831 42.0772 54.1518 42.0254Z" fill="#52525B"/>
<path d="M59.6099 40.2588L60.1012 40.3974C59.7736 43.192 58.0508 46.8947 56.772 49.3531C56.3548 50.1553 54.0908 53.262 53.4523 53.832C53.1619 54.2378 52.9559 54.501 52.6273 54.8759C52.6799 54.9954 52.6361 54.958 52.7363 55.0124C52.5948 55.1718 52.487 55.2093 52.2986 55.3056L51.8995 54.7084L51.7974 54.6272C51.7698 54.579 51.7284 54.4576 51.7065 54.3998C51.8491 54.0745 52.663 53.4544 52.9202 53.1099C53.3062 52.5926 53.5961 52.0202 53.9068 51.4555C53.9055 51.7828 53.8383 51.9264 53.759 52.2363L53.8662 52.2332C54.8414 51.4719 55.2408 50.6452 55.8763 49.6423C57.8652 46.503 58.8512 43.857 59.6099 40.2588Z" fill="#ABBCD9"/>
<path d="M51.8994 54.7097C52.07 54.6421 53.2949 53.878 53.3911 53.7344L53.4522 53.8332C53.1619 54.2391 52.9559 54.5022 52.6273 54.8771C52.6798 54.9967 52.636 54.9593 52.7363 55.0136C52.5947 55.1731 52.4869 55.2105 52.2985 55.3069L51.8994 54.7097Z" fill="#8A9FC5"/>
<path d="M4.82137 26.5508C5.07943 26.5804 5.3581 26.5323 5.44603 26.8046C4.60422 29.1509 4.27549 35.1001 4.74695 37.8034C4.7481 37.81 4.83114 37.9483 4.83839 37.9609L4.44943 38.6198C4.20084 38.2627 4.17832 38.0737 4.14184 37.6473C3.82768 33.9732 3.87164 30.1349 4.82137 26.5508Z" fill="#8A9FC5"/>
<path d="M51.723 32.362C55.1363 32.0884 59.0065 36.415 60.3611 39.2462C60.549 39.8219 60.6145 39.9852 60.1011 40.3973L59.6098 40.2587C57.4143 39.2901 55.8696 40.8055 54.4186 42.1446L54.1516 42.0251L54.2842 41.6736C53.4912 41.5767 53.2353 40.0333 53.0547 39.4107C52.2253 38.9759 52.1262 37.522 51.7915 36.4896L51.7722 36.2573L51.6615 36.1917C51.071 36.4746 50.8928 37.4948 50.2146 37.1312C50.0947 36.9948 49.5218 36.5895 49.3448 36.4587C49.2333 36.3442 49.2237 36.3068 49.1523 36.1609C49.9194 35.5182 50.6548 34.4777 51.1 33.5814C51.2906 33.1975 51.4922 32.7085 51.723 32.362Z" fill="black"/>
<path d="M53.0547 39.4116C52.9734 38.7569 52.8091 35.8402 52.9536 35.296C53.3555 34.9823 53.9723 35.4082 54.3883 35.5665C56.133 36.2301 57.4328 37.2863 58.7391 38.592C59.0055 38.963 59.1993 39.2486 59.4354 39.6403C57.0688 39.3089 55.8461 39.8633 54.2842 41.6744C53.4912 41.5776 53.2352 40.0341 53.0547 39.4116Z" fill="#8A6BBA"/>
<path d="M49.345 36.4596C50.2069 35.8538 50.8829 34.9742 51.4156 34.0659C51.6916 33.5952 51.7743 32.6286 52.5758 32.8431C54.9186 33.4699 56.697 34.9097 58.1933 36.7725C58.2357 36.8253 58.3066 36.958 58.3267 37.0202C58.4175 37.2193 58.4737 37.3085 58.4933 37.5292C58.3187 37.5566 57.7994 37.0982 57.5315 36.9786C56.3593 35.9611 54.8338 35.2708 53.3723 34.766C52.3738 34.4212 52.4754 36.0882 52.4139 36.727C52.2623 36.4079 52.1271 36.0549 51.8689 35.8202C51.4769 35.7123 50.3651 36.8163 50.2147 37.1321C50.0949 36.9957 49.5219 36.5904 49.345 36.4596Z" fill="#452572"/>
<path d="M57.5315 36.9775C57.7994 37.0972 58.3187 37.5556 58.4933 37.5282C58.4737 37.3075 58.4174 37.2183 58.3267 37.0192C58.5977 37.3277 59.3491 37.9903 58.9957 38.3542C58.6733 38.25 57.8182 37.2836 57.5315 36.9775Z" fill="#202348"/>
<path d="M10.0215 15.2772C26.7665 -5.46504 57.7136 4.21246 60.8299 30.0135C61.1221 32.4328 61.041 36.4021 60.4973 38.7539C60.0198 38.3194 60.384 36.3749 60.4171 35.6716C60.6864 29.9386 59.3537 24.4376 56.8376 19.3078C56.1517 17.9091 54.945 16.376 53.9851 15.1399C53.1825 14.0736 52.3045 12.9208 51.2847 12.0399C47.3896 8.65605 44.0805 6.78818 39.0744 5.53154C33.4379 4.11667 28.8693 4.46533 23.3433 6.17421C19.9596 7.22065 16.6795 9.92116 13.9036 12.0446C13.5313 12.3294 13.0554 12.9418 12.6415 13.3114C11.5798 13.6783 10.4007 16.4312 9.71967 16.3031C9.51328 15.8256 9.93659 15.7018 10.0215 15.2772Z" fill="#8A9FC5"/>
<path d="M10.0217 15.2772C9.9367 15.7019 9.51339 15.8257 9.71978 16.3032C10.4008 16.4313 11.5799 13.6784 12.6416 13.3115C11.6999 14.2691 10.8095 15.5364 10.0516 16.6614C9.84274 16.9715 9.59125 17.7452 9.38318 18.0535C9.07101 18.5159 8.59198 18.9827 8.27942 19.4549C7.69735 20.334 7.28733 21.4582 6.83669 22.3851C6.50017 23.0771 6.00626 25.1241 5.73545 25.5945C5.70706 25.7077 5.45869 26.7842 5.44595 26.8055C5.35802 26.5332 5.07935 26.5813 4.82129 26.5517C4.9486 25.877 5.07981 25.3797 5.29039 24.7302C6.05175 21.6814 7.36014 19.0015 9.23282 16.5321C9.5969 16.052 9.4592 15.814 10.0217 15.2772Z" fill="#ADB4C5"/>
<path d="M5.29039 24.7295C5.4648 25.282 4.88525 25.6492 5.23903 26.0276L5.45969 26.0931L5.65409 25.5692L5.73545 25.5937C5.70706 25.707 5.45869 26.7835 5.44595 26.8048C5.35802 26.5325 5.07935 26.5806 4.82129 26.551C4.9486 25.8762 5.07981 25.379 5.29039 24.7295Z" fill="#A3B0CE"/>
<path d="M51.8991 20.6281C52.0614 20.2319 52.5481 18.5464 52.8297 18.4229C53.0059 18.583 53.1719 19.2263 53.2227 19.4681C53.5059 20.4803 53.5832 21.1472 54.5718 21.6987C54.9057 21.885 55.7422 22.2436 55.9286 22.4807C56.0147 23.0395 54.7633 23.1216 54.4132 23.3723C54.0443 23.6365 53.7845 23.9959 53.5389 24.3607C53.3569 25.0481 53.2374 26.0831 52.8379 26.5819L52.6714 26.65C52.4055 26.4874 52.3665 26.3766 52.2891 26.053C52.2472 25.8739 52.2081 25.6943 52.1717 25.514C51.9751 24.9465 51.8005 24.3414 51.5015 23.8181C51.0532 23.0331 49.8042 23.1883 49.4817 22.6177C49.5898 22.099 50.8966 21.7566 51.3204 21.3533C51.6049 21.0825 51.683 20.9509 51.8991 20.6281Z" fill="#ADB4C5"/>
<path d="M51.899 20.6281C52.0613 20.2319 52.548 18.5464 52.8296 18.4229C53.0058 18.583 53.1717 19.2263 53.2226 19.4681L53.0109 19.8006C53.2139 20.4296 53.4174 21.108 53.6762 21.7118C53.6328 21.9936 53.576 22.2947 53.582 22.5779C53.2066 22.9836 52.8673 23.1837 52.5563 23.6858C52.0558 23.0277 51.5283 22.5601 50.752 22.2583C51.5048 21.7834 51.6731 21.5058 52.1119 20.7609L51.899 20.6281Z" fill="#FDFDFE"/>
<path d="M51.8989 20.6281C52.0612 20.2319 52.5479 18.5464 52.8295 18.4229C53.0057 18.583 53.1717 19.2263 53.2225 19.4681L53.0109 19.8006C52.9923 19.5342 53.0055 19.2349 52.848 19.0333L52.7342 19.0535C52.547 19.3375 52.2562 20.3604 52.1118 20.7609L51.8989 20.6281Z" fill="#8B8C96"/>
<path d="M52.1716 25.5136L52.2307 25.4893C52.3942 25.6765 52.2951 25.7885 52.4554 26.0801C53.0963 25.7327 52.7527 25.0584 53.3387 24.3748L53.5389 24.3604C53.3568 25.0477 53.2374 26.0828 52.8378 26.5815L52.6713 26.6497C52.4054 26.487 52.3665 26.3763 52.289 26.0527C52.2472 25.8736 52.208 25.6939 52.1716 25.5136Z" fill="#8B8C96"/>
<path d="M53.6762 21.7119C53.8819 21.8412 54.0797 21.9267 54.1726 22.1381C54.0541 22.3956 53.8609 22.456 53.582 22.578C53.576 22.2947 53.6327 21.9936 53.6762 21.7119Z" fill="#FDFDFE"/>
<path d="M8.2286 23.5879C8.60299 23.751 8.53704 24.2831 8.75831 24.7517C9.30901 25.9178 9.61912 26.1272 10.715 26.573C8.35309 27.3348 9.03118 29.3857 8.16701 29.8133C8.05924 29.5432 7.97276 28.7847 7.89712 28.4404C7.58548 27.022 6.81977 26.7148 5.4939 26.5063C6.07497 26.3491 7.01791 26.1586 7.38672 25.6511C7.80072 25.0813 7.89559 24.2033 8.2286 23.5879Z" fill="#FDFDFE"/>
<path d="M26.8597 6.32617C27.0462 6.4673 27.2063 7.39864 27.4516 7.68731C27.8267 8.12908 28.1748 8.29906 28.6504 8.60788C28.5463 8.91525 27.649 9.49396 27.4071 9.95932C27.187 10.3829 27.1028 11.2153 26.8479 11.4499L26.685 11.3743L26.3989 9.93352C25.9094 9.86811 24.9314 9.69454 24.6251 9.29444C24.4976 8.40829 26.6581 8.02742 26.6382 6.9925C26.6357 6.86519 26.797 6.45066 26.8597 6.32617Z" fill="#FDFDFE"/>
<path d="M49.1918 12.2617C49.531 12.3958 49.4117 13.0767 49.7161 13.4581C50.1034 13.9433 50.4978 14.2052 51.0034 14.5372C50.2975 14.9185 50.0666 15.0906 49.5436 15.6859C49.432 16.1013 49.3947 16.7257 49.2848 17.2175C49.001 17.0372 48.9381 16.1393 48.8599 15.7665C48.585 15.451 47.4154 14.5801 47.8008 14.2093C48.5066 13.5303 48.8005 13.2306 49.1918 12.2617Z" fill="#FBE298"/>
<path d="M10.5288 19.1367C11.3016 19.8761 10.0087 20.6436 12.6045 21.2401C12.441 21.2964 12.2802 21.3602 12.1225 21.4313C11.1196 21.8929 10.8763 22.7546 10.5214 23.7197L10.3908 23.9234C10.271 23.9261 10.2124 23.8974 10.1838 23.7304C9.97196 22.4929 10.0552 22.3086 9.06588 21.437C9.031 21.2321 9.77481 20.458 9.94517 20.1845C10.1638 19.8335 10.3418 19.5034 10.5288 19.1367Z" fill="#A3B0CE"/>
<path d="M56.3213 26.4082C56.8705 27.594 57.0868 28.0568 58.2935 28.6021L57.2612 28.6501C56.6515 29.1742 56.4835 29.3835 56.222 30.1232L56.1753 30.1287C55.5549 29.7531 56.3171 29.0212 54.4453 28.4199C55.6261 27.791 55.6443 27.6282 56.3213 26.4082Z" fill="#FDFDFE"/>
<path d="M53.0063 14.7197C53.4471 15.0858 53.0156 15.8438 52.4658 16.0416C52.0475 15.4002 52.4985 15.0806 53.0063 14.7197Z" fill="#ADB4C5"/>
<path d="M35.7449 13.9075C37.0187 11.9728 38.2604 10.5932 40.133 9.1881C41.4251 8.2186 42.0716 8.3611 42.8651 9.83558C44.2981 12.4985 45.2555 15.5658 45.7314 18.5498C45.8691 19.1037 45.7955 21.3978 45.989 21.7509C47.0802 23.7419 47.6277 25.0032 48.1286 27.2586C48.8626 30.5627 48.8804 32.6324 48.0966 35.8759C47.8287 35.8677 47.8345 35.9065 47.6271 35.785C47.6284 35.4619 47.7689 34.8909 47.8119 34.5283C47.9168 33.6421 48.0365 32.6508 48.0556 31.7602C48.083 30.4771 48.0165 28.6344 47.6972 27.3897C46.9494 24.4749 45.3223 21.4129 43.2478 19.219C42.6261 18.5615 42.1465 18.3078 41.5945 17.5033C41.9995 17.7134 42.3138 17.8754 42.6978 18.1277C42.9248 15.9123 43.1632 13.6747 42.9538 11.4471C42.9122 11.0043 41.9204 9.47119 41.5015 9.24794C40.265 9.14001 36.8627 13.1324 36.1298 14.1618C36.4531 14.3411 36.854 14.5224 37.0682 14.812L37.0747 14.9443C36.7678 15.0203 36.3214 14.7335 36.0313 14.5803C35.7268 14.8868 35.3857 15.2468 35.0753 15.5392C35.2148 15.1293 35.3124 14.8343 35.5007 14.4409C31.2327 13.3439 28.0696 13.5301 23.9589 15.0121L23.887 15.1294L24.0525 15.615L23.9541 15.6595C23.7237 15.5026 23.6642 15.4274 23.4792 15.2231C22.8688 15.4451 21.9233 15.8996 21.3808 16.0069C21.9032 15.5082 22.5045 15.2275 23.1454 14.897C23.0892 14.7819 22.9899 14.5875 22.9274 14.4775C22.3893 13.5307 18.5262 10.3706 17.5878 10.7678C17.0734 11.3965 16.6088 12.9728 16.4332 13.8105C16.421 13.8687 16.6792 14.18 16.6939 14.3646C16.7684 15.3045 16.9096 18.3192 17.2804 19.0049C17.6089 19.0295 17.8715 18.5996 18.1025 18.6745C18.0832 18.775 16.1721 21.2604 15.9024 21.7054C13.798 25.1594 12.7957 29.1725 13.029 33.2103C13.1736 35.587 13.5532 36.936 14.8802 38.9349C16.2443 40.9896 17.9497 42.15 20.108 43.2538C20.7181 43.5681 21.9644 43.8 22.6349 44.0785C22.712 44.1106 22.7336 44.3244 22.7244 44.4349C22.5968 44.6189 22.6109 44.698 22.6089 44.9155L22.6494 44.9792C22.9414 45.4481 22.9275 45.9082 23.2029 46.3677C24.4269 48.4109 26.7968 49.4319 29.1297 49.3161C30.3025 49.2578 31.8268 49.7448 32.7446 48.7814C32.8181 49.5679 33.2484 50.4381 33.569 51.1625C33.7523 51.4586 33.7803 51.4065 33.7872 51.7107L33.6669 51.8031L33.9155 51.926L34.0615 51.9155C34.2481 52.1384 34.429 52.366 34.6042 52.598C35.0072 52.6418 35.5462 52.7318 35.9183 52.7599C36.0473 52.865 36.4938 53.1797 36.5526 53.244L36.5208 53.3833C36.3373 53.246 36.0561 52.9746 35.8761 52.9966L35.8559 53.0997C36.1785 53.4769 36.4534 53.6488 36.4242 54.0729L36.4451 54.1095C36.1358 54.2079 36.2277 54.13 36.0852 54.3862C35.4083 55.0975 34.9852 56.2638 34.4579 57.1464C33.1775 57.762 25.1062 56.8527 23.2783 56.7849C20.3598 56.6768 16.6139 56.2028 13.7679 55.5153C13.2272 55.598 12.5003 55.4166 11.9533 55.3103C12.1249 55.2932 12.1731 55.2857 12.3371 55.2332L12.3277 55.1042C9.44307 52.9029 6.06332 46.3801 5.34799 42.7573C5.29906 42.5097 5.34845 42.3987 5.18854 42.1695C4.68883 42.3087 4.1276 42.6248 3.67246 42.672C2.80616 42.2178 4.09898 39.3105 4.44939 38.6195L4.83836 37.9607C6.33077 35.4623 7.15495 34.5057 9.79829 33.2975C10.9296 34.0093 11.1028 34.9873 12.0113 35.8721C12.3037 36.157 12.7728 36.41 13.1335 36.6158C11.5808 33.2882 12.6083 28.2662 13.6784 24.8878C13.865 24.2986 14.5128 23.3081 14.6369 22.7672C14.8183 21.9764 14.65 20.7349 14.7383 19.8857C15.039 16.9968 15.2855 13.9797 16.6443 11.3604C16.951 10.8122 17.0814 9.93969 17.9001 10.0716C18.4849 10.1658 18.887 10.4128 19.3743 10.7275C20.9777 11.7627 22.5582 13.028 23.7546 14.5216C27.2766 12.9229 32.0393 13.0177 35.7449 13.9075Z" fill="black"/>
<path d="M5.64544 42.0916C7.44576 41.9701 8.11637 42.337 9.49009 43.3996C10.5461 44.2165 11.1884 46.1638 12.5371 44.8771C13.9319 43.5464 15.5226 44.0654 17.0535 44.8206C17.007 45.6341 16.9348 46.2998 17.2373 47.0858C17.8835 48.7648 19.5921 49.6802 21.3497 49.3821C21.6347 49.3338 22.0317 49.2144 22.3066 49.119C22.6019 49.4531 23.0079 49.9399 23.3557 50.2006C24.8425 51.3153 25.2812 53.1413 27.4724 53.1162C28.6552 53.1027 29.3612 53.2156 29.4904 51.8351C30.4586 51.9389 32.7267 51.9759 33.6668 51.8038L33.9154 51.9267L34.0615 51.9162C34.248 52.1391 34.4289 52.3667 34.6041 52.5988C35.0072 52.6425 35.5462 52.7325 35.9182 52.7606C36.0472 52.8657 36.4938 53.1804 36.5526 53.2447L36.5207 53.384C36.3372 53.2467 36.056 52.9754 35.876 52.9973L35.8558 53.1005C36.1785 53.4777 36.4533 53.6495 36.4242 54.0736L36.4451 54.1103C36.1357 54.2086 36.2276 54.1307 36.0851 54.387C35.4082 55.0982 34.9852 56.2645 34.4578 57.1472C33.1775 57.7627 25.1061 56.8535 23.2783 56.7857C20.3598 56.6775 16.6138 56.2035 13.7678 55.5161C13.2271 55.5987 12.5002 55.4173 11.9532 55.311C12.1248 55.2939 12.1731 55.2865 12.3371 55.234L12.3276 55.1049C9.443 52.9036 6.06326 46.3808 5.34792 42.758C5.299 42.5105 5.34838 42.3994 5.18848 42.1702C5.34418 42.1523 5.49172 42.1213 5.64544 42.0916Z" fill="#D8DFEE"/>
<path d="M5.18848 42.1694C5.34418 42.1515 5.49172 42.1204 5.64544 42.0908C5.8458 43.2505 6.28957 44.0465 6.68051 45.106C7.81633 48.1844 9.3969 50.8382 11.5901 53.2826C12.127 53.881 13.0501 55.156 13.7678 55.5152C13.2271 55.5979 12.5002 55.4165 11.9532 55.3102C12.1248 55.2931 12.1731 55.2856 12.3371 55.2331L12.3276 55.1041C9.443 52.9028 6.06326 46.38 5.34792 42.7572C5.299 42.5096 5.34838 42.3986 5.18848 42.1694Z" fill="#ADB4C5"/>
<path d="M33.9155 51.9256L34.0616 51.915C34.2482 52.138 34.4291 52.3656 34.6042 52.5976C35.0073 52.6414 35.5463 52.7314 35.9183 52.7594C36.0473 52.8645 36.4939 53.1792 36.5527 53.2436L36.5209 53.3829C36.3374 53.2456 36.0562 52.9742 35.8761 52.9961L35.856 53.0993C36.1786 53.4765 36.4535 53.6483 36.4243 54.0725L36.4452 54.1091C36.1359 54.2074 36.2278 54.1296 36.0853 54.3858C35.1532 53.8311 34.2669 52.9719 33.9155 51.9256Z" fill="#282A30"/>
<path d="M34.604 52.5986C35.0071 52.6424 35.5461 52.7324 35.9181 52.7604C36.0471 52.8655 36.4937 53.1802 36.5525 53.2446L36.5206 53.3839C36.3372 53.2466 36.056 52.9752 35.8759 52.9971L35.8558 53.1003C36.1784 53.4775 36.4532 53.6493 36.4241 54.0735C35.9209 53.8354 35.0522 53.0023 34.604 52.5986Z" fill="#8B8C96"/>
<path d="M21.3086 44.1299C21.7217 44.269 22.2989 44.4988 22.7243 44.4352C22.5967 44.6191 22.6108 44.6983 22.6088 44.9158L22.6493 44.9795C22.9413 45.4484 22.9274 45.9084 23.2028 46.368C24.4268 48.4112 26.7967 49.4321 29.1296 49.3164C30.3024 49.2581 31.8267 49.7451 32.7445 48.7817C32.818 49.5682 33.2483 50.4384 33.5689 51.1628C32.9791 51.4319 30.226 51.3352 29.4289 51.264C28.9363 51.22 27.4668 50.9035 27.1518 51.0233C27.2684 51.3277 28.5325 51.4869 28.8662 52.0825C28.8744 52.3481 28.9017 52.2414 28.7282 52.4869C28.3547 52.6917 27.7932 52.6376 27.3862 52.6052C25.6422 52.4669 25.3782 51.2587 24.427 50.2843C23.7421 49.5824 23.3344 49.7709 22.6586 48.6055C22.4045 48.1615 22.1744 47.7042 21.9692 47.2355C21.8029 46.8541 21.4782 45.5968 21.1253 45.5699C20.9111 45.9169 21.2953 46.7009 21.3479 47.1094C21.3998 47.5125 21.3711 47.3652 21.2335 47.7464C21.6329 47.912 21.9395 48.0381 21.9953 48.4913C21.7576 49.1952 20.7142 49.0118 20.1357 48.8851C19.28 48.6978 18.5307 48.1616 18.0706 47.4101C18.699 47.1729 19.071 47.0279 19.7382 46.9932C20.5345 45.7566 20.1731 45.0628 21.3086 44.1299Z" fill="#65409A"/>
<path d="M18.5531 43.0137C19.167 43.44 20.5618 43.8702 21.3086 44.1293C20.1731 45.0623 20.5344 45.756 19.7382 46.9927C19.0709 47.0274 18.699 47.1723 18.0705 47.4096C17.0513 46.0218 17.798 44.315 18.5531 43.0137Z" fill="#8A6BBA"/>
<path d="M10.9154 37.2285C11.3907 37.6766 12.4354 38.4015 13.0348 38.9127C13.7498 39.4883 13.9816 39.5424 14.8754 39.7644C15.2567 40.163 15.5028 40.5383 15.8737 40.9288C16.5226 41.612 17.294 42.2119 18.0347 42.7971C17.6593 43.3087 17.5537 43.5926 17.3118 44.1784C16.8686 43.9769 15.8132 43.7191 15.6544 43.6317C13.7695 43.3885 13.1887 43.7309 11.6831 44.7893C10.9219 41.6558 10.8323 40.3928 10.9154 37.2285Z" fill="#995BBF"/>
<path d="M13.0349 38.9141C13.7499 39.4896 13.9817 39.5438 14.8755 39.7657C15.2568 40.1643 15.5029 40.5396 15.8738 40.9302C16.5227 41.6134 17.2941 42.2132 18.0348 42.7984C17.6594 43.31 17.5538 43.594 17.3119 44.1797C16.8687 43.9783 15.8133 43.7204 15.6544 43.633C15.6124 42.8619 14.2458 41.2201 13.7837 40.5471C13.5891 40.2241 13.4007 39.8975 13.2184 39.5674L13.14 39.5065C13.1318 39.231 13.1354 39.1765 13.0349 38.9141Z" fill="#65409A"/>
<path d="M13.2183 39.5674C13.4546 39.7655 13.7085 39.865 13.8731 40.1088C13.9052 40.4089 13.9309 40.2931 13.7835 40.5471C13.589 40.2241 13.4005 39.8974 13.2183 39.5674Z" fill="#452572"/>
<path d="M9.2693 36.2568C9.48859 36.3209 9.5524 36.5859 9.58545 36.7958C9.98677 39.3427 10.5352 41.9065 11.2826 44.3768C10.4877 43.645 9.39539 42.5497 8.47459 42.0384C6.92813 41.3898 5.96466 41.5741 4.32593 41.7394C5.429 40.0068 5.83094 38.8236 7.59622 37.4563C8.24294 36.9554 8.4826 36.6722 9.2693 36.2568Z" fill="#8A6BBA"/>
<path d="M9.43892 34.0677C9.48724 34.052 9.69996 33.9947 9.75522 34.0498C10.4583 34.7526 11.1664 35.6764 11.9414 36.2958C12.4357 36.6908 14.1515 38.2419 14.0155 38.8396L13.8547 38.8558C13.2836 38.6438 11.2803 37.066 10.7829 36.5651C10.4794 37.3458 10.5043 37.6787 10.4606 38.4927C10.0859 37.5561 10.0656 36.3513 9.46136 35.92C7.40161 36.2702 5.6058 39.2161 4.27344 40.5314C4.36243 40.2392 4.4683 39.9523 4.59042 39.6721C5.59839 37.3071 6.95479 35.0617 9.43892 34.0677Z" fill="#452572"/>
<path d="M42.7176 35.922C45.4026 35.8263 47.1849 36.0175 49.5345 37.4916C50.1546 37.8806 50.6662 38.1786 51.2189 38.6897C52.2673 39.6643 53.1042 40.8442 53.6772 42.1559C53.8952 42.6758 54.1241 43.2033 54.3111 43.7341C54.9221 45.2421 54.6728 47.8734 54.266 49.4256C54.6373 50.0865 54.273 49.8585 54.446 50.4185C54.3661 50.5771 54.1798 50.9701 54.0828 51.0894L53.9068 51.4567C53.5961 52.0214 53.3062 52.5939 52.9202 53.1111C52.663 53.4557 51.8492 54.0757 51.7066 54.401C51.7285 54.4588 51.7699 54.5802 51.7974 54.6284L51.5259 54.7254C51.4865 54.8122 51.4501 54.8721 51.4345 54.9647L51.3423 54.7413C50.9111 54.6175 49.7141 55.5673 49.288 55.7968C48.1801 56.3935 47.0617 56.6288 45.8374 56.8469C45.74 56.923 45.6296 56.9887 45.5828 57.0974C45.2738 57.1296 45.1479 57.0772 44.9553 57.356C44.9501 57.35 44.9461 57.3428 44.9399 57.3379C44.6832 57.1336 43.1075 57.2396 42.7108 57.2137C42.6953 57.1004 42.6596 56.9727 42.6321 56.8602C42.4865 56.7333 42.4671 56.7158 42.2757 56.7076C42.0226 56.8617 42.1038 56.7712 41.9816 57.0646L40.7924 56.7195C41.2655 56.6734 41.3823 56.7714 41.7509 56.7585L41.7651 56.6762L41.4812 56.6241L41.4212 56.5131C39.7212 56.1353 37.8508 55.1217 36.4451 54.111L36.4242 54.0744C36.4534 53.6502 36.1785 53.4784 35.8559 53.1012L35.876 52.998C36.0561 52.9761 36.3373 53.2474 36.5208 53.3848L36.5526 53.2455C36.4938 53.1811 36.0472 52.8664 35.9183 52.7613C35.5462 52.7332 35.0072 52.6432 34.6041 52.5995C34.429 52.3675 34.2481 52.1399 34.0615 51.9169L33.9154 51.9274L33.6668 51.8046L33.7871 51.7121C33.7803 51.408 33.7523 51.46 33.569 51.1639C33.2484 50.4395 32.8181 49.5693 32.7446 48.7829C32.7273 48.5408 32.7123 48.2986 32.6998 48.0564C32.6453 46.9751 32.8588 43.4407 33.516 42.7142L33.5975 42.9426C33.7662 42.8531 33.8976 41.5856 34.3623 41.397C34.6545 40.8852 34.9916 40.4004 35.3698 39.9483C37.2332 37.6992 39.789 36.1945 42.7176 35.922Z" fill="#FDFDFE"/>
<path d="M54.3111 43.7324C54.9221 45.2404 54.6728 47.8717 54.2661 49.4239C54.6374 50.0849 54.273 49.8568 54.4461 50.4168C54.3662 50.5754 54.1798 50.9684 54.0828 51.0877L53.9069 51.455C53.5962 52.0197 53.3063 52.5922 52.9203 53.1095C52.6631 53.454 51.8492 54.0741 51.7066 54.3993C51.7285 54.4572 51.7699 54.5785 51.7975 54.6268L51.526 54.7238C51.4865 54.8106 51.4502 54.8705 51.4346 54.963L51.3424 54.7396C50.9112 54.6158 49.7142 55.5657 49.2881 55.7952C48.1801 56.3918 47.0618 56.6271 45.8374 56.8453C45.74 56.9214 45.6297 56.987 45.5829 57.0957C45.2738 57.128 45.148 57.0755 44.9553 57.3544C44.9502 57.3483 44.9462 57.3412 44.94 57.3363C44.6833 57.1319 43.1075 57.238 42.7109 57.2121C42.6954 57.0987 42.6596 56.9711 42.6322 56.8586C42.4866 56.7316 42.4671 56.7141 42.2758 56.7059C42.0226 56.8601 42.1039 56.7696 41.9817 57.063L40.7925 56.7178C41.2655 56.6718 41.3823 56.7697 41.751 56.7568L41.7652 56.6745L41.4813 56.6224L41.4212 56.5114C39.7212 56.1337 37.8508 55.1201 36.4452 54.1093L36.4243 54.0727C36.4534 53.6486 36.1786 53.4767 35.856 53.0995L35.8761 52.9963C36.0562 52.9744 36.3373 53.2458 36.5208 53.3831L36.5527 53.2438C36.9616 53.4022 38.0297 54.3694 38.3597 54.5101C39.9004 55.1671 42.555 55.7258 44.1749 55.6098C46.9332 55.4121 49.3401 54.7781 51.2069 52.7024C53.2781 50.3997 53.6583 48.7483 53.9697 45.7718C54.0534 44.9724 54.3543 44.8496 54.3111 43.7324Z" fill="#ADB4C5"/>
<path d="M45.8817 56.5472C46.4545 56.4361 47.0202 56.3395 47.5583 56.1248C50.9005 54.7912 52.2157 53.87 53.7771 50.6436C53.8597 50.7547 54.0334 50.972 54.0826 51.0884L53.9067 51.4557C53.5959 52.0204 53.3061 52.5929 52.9201 53.1101C52.6629 53.4547 51.849 54.0747 51.7064 54.4C51.7283 54.4578 51.7697 54.5792 51.7972 54.6274L51.5257 54.7244C51.4863 54.8112 51.4499 54.8711 51.4344 54.9637L51.3422 54.7403C50.9109 54.6165 49.714 55.5663 49.2878 55.7958C48.1799 56.3925 47.0615 56.6278 45.8372 56.8459C45.685 56.7838 45.7337 56.8352 45.6667 56.7097L45.9653 56.6268L45.8817 56.5472Z" fill="#151320"/>
<path d="M41.421 56.5117C43.2145 56.646 44.0223 56.6998 45.8817 56.5468L45.9653 56.6264L45.6668 56.7093C45.7337 56.8348 45.685 56.7834 45.8372 56.8456C45.7398 56.9217 45.6294 56.9873 45.5827 57.096C45.2736 57.1283 45.1477 57.0758 44.9551 57.3547C44.95 57.3486 44.9459 57.3415 44.9398 57.3366C44.6831 57.1323 43.1073 57.2383 42.7106 57.2124C42.6951 57.0991 42.6594 56.9714 42.6319 56.8589C42.4864 56.7319 42.4669 56.7144 42.2756 56.7062C42.0224 56.8604 42.1037 56.7699 41.9815 57.0633L40.7922 56.7181C41.2653 56.6721 41.3821 56.77 41.7508 56.7571L41.7649 56.6748L41.4811 56.6227L41.421 56.5117Z" fill="#202348"/>
<path d="M54.2661 49.4248C54.6374 50.0857 54.2731 49.8577 54.4461 50.4177C54.3662 50.5763 54.1799 50.9693 54.0829 51.0886C54.0336 50.9722 53.86 50.7549 53.7773 50.6437L54.2661 49.4248Z" fill="#282A30"/>
<path d="M32.7446 48.7824C32.7273 48.5404 32.7123 48.2982 32.6998 48.0559C32.6453 46.9747 32.8588 43.4402 33.516 42.7137L33.5975 42.9421C33.7662 42.8526 33.8976 41.5851 34.3623 41.3965C33.0861 44.9293 32.3872 46.8206 34.1011 50.6154C34.7908 52.1421 35.0019 51.874 35.9183 52.7608C35.5462 52.7327 35.0072 52.6428 34.6041 52.599C34.429 52.367 34.2481 52.1394 34.0615 51.9164L33.9154 51.927L33.6668 51.8041L33.7871 51.7117C33.7803 51.4075 33.7523 51.4595 33.569 51.1635C33.2484 50.4391 32.8181 49.5689 32.7446 48.7824Z" fill="#84878B"/>
<path d="M39.2805 39.262C41.4579 37.8571 44.1666 37.55 46.6033 38.4318C49.0399 39.3136 50.9247 41.2831 51.6987 43.7561C52.6898 46.9231 51.6989 50.3761 49.1791 52.5354C46.6593 54.6948 43.0953 55.1453 40.1175 53.6808C39.822 53.5356 39.5355 53.3727 39.2593 53.1934C35.7954 50.9434 34.5137 46.4883 36.2524 42.7415C36.9127 41.3189 37.9626 40.1124 39.2805 39.262Z" fill="#D2D2D5"/>
<path d="M37.7995 41.2645L38.0683 41.209C38.0415 41.4505 37.8433 41.5191 37.7784 41.8365C37.5559 42.1543 36.9878 42.9328 36.8983 43.2933C36.857 43.6048 36.6515 44.1463 36.5269 44.4781C36.2534 45.2072 36.0273 47.955 36.7289 48.4157C37.0768 48.2942 36.9442 47.9089 37.2143 47.9062C37.5404 48.9761 38.2616 50.3225 39.1978 50.9754C40.5996 50.8462 41.7048 52.3009 43.1202 52.2812C43.9565 52.2697 44.6552 51.3879 45.3871 51.1266C45.6567 51.0305 46.2174 51.1451 46.6347 51.07C46.3889 51.0409 46.2044 51.0093 45.9617 50.9604L46.9832 50.9163C47.0118 50.3371 47.0296 49.9426 46.991 49.3664C47.1668 49.5301 47.1014 49.5212 47.3097 49.5676C47.771 49.6701 49.7697 49.2017 50.0764 48.9616C50.0945 48.9251 50.1124 48.8885 50.13 48.8519C51.4516 46.104 50.5929 44.1582 49.6579 41.4735C50.6159 41.886 51.0819 42.9987 51.4535 43.9211L51.6987 43.7571C52.6898 46.9241 51.6989 50.377 49.1791 52.5364C46.6593 54.6958 43.0953 55.1462 40.1175 53.6818C39.822 53.5365 39.5355 53.3737 39.2593 53.1943C35.7954 50.9444 34.5137 46.4893 36.2524 42.7425C36.761 42.3604 37.1449 41.7723 37.7995 41.2645Z" fill="#A2A4AE"/>
<path d="M46.9909 49.3667C47.1667 49.5305 47.1013 49.5215 47.3097 49.5679C47.7709 49.6705 49.7696 49.202 50.0764 48.9619C49.5515 49.9076 49.1515 50.5667 48.2737 51.2254C45.4849 53.318 41.7871 53.4671 39.1978 50.9757C40.5996 50.8466 41.7047 52.3012 43.1201 52.2816C43.9564 52.2701 44.6552 51.3883 45.3871 51.127C45.6567 51.0308 46.2174 51.1455 46.6346 51.0704C46.3889 51.0412 46.2044 51.0097 45.9617 50.9608L46.9831 50.9166C47.0118 50.3375 47.0296 49.9429 46.9909 49.3667Z" fill="#ADB4C5"/>
<path d="M37.7995 41.2645L38.0683 41.209C38.0415 41.4505 37.8433 41.5191 37.7784 41.8365C37.5559 42.1543 36.9878 42.9328 36.8983 43.2933C35.1135 45.868 36.591 49.7738 38.4841 51.8122C38.8194 52.1733 39.4066 52.5141 39.6777 52.8705C39.523 52.9655 39.3515 53.0462 39.2593 53.1943C35.7954 50.9444 34.5137 46.4893 36.2524 42.7425C36.761 42.3604 37.1449 41.7723 37.7995 41.2645Z" fill="#9EA0A8"/>
<path d="M51.4535 43.9218L51.6987 43.7578C52.6898 46.9248 51.6989 50.3778 49.1791 52.5371C46.6592 54.6965 43.0952 55.147 40.1174 53.6825L40.4176 53.2609C42.1857 54.043 44.1711 54.1847 46.0324 53.6617C48.363 52.9865 49.6054 51.9182 50.8728 49.8278C51.8141 48.2752 51.9581 45.6396 51.4535 43.9218Z" fill="#62687B"/>
<path d="M39.2593 53.195C39.3515 53.0468 39.5229 52.9661 39.6776 52.8711C39.9068 52.9945 40.1862 53.1549 40.4176 53.2608L40.1174 53.6824C39.822 53.5371 39.5354 53.3743 39.2593 53.195Z" fill="#797889"/>
<path d="M42.1368 44.8988C41.7029 44.8808 40.7435 44.9391 40.7065 44.3043C40.6814 43.8742 40.9042 43.3014 41.158 42.958C42.6168 40.905 46.3903 41.5331 46.7396 44.1563C47.0347 46.372 44.7926 47.7414 43.6504 49.2493C44.6986 49.2505 45.972 49.2208 46.9909 49.3656C47.0295 49.9418 47.0117 50.3364 46.9831 50.9155L45.9616 50.9596C44.5537 50.926 42.0769 51.0716 40.8357 50.9274C40.703 50.0908 40.7334 49.8985 41.2884 49.216C42.2699 48.008 43.9069 46.8187 44.5289 45.3829C45.3593 43.466 42.8923 42.6717 42.1368 44.8988Z" fill="#4D4C52"/>
<path d="M39.2805 39.262C41.4579 37.8571 44.1666 37.55 46.6032 38.4318C49.0399 39.3136 50.9247 41.2831 51.6987 43.7561L51.4535 43.9201C51.0818 42.9977 50.6159 41.885 49.6579 41.4726C48.942 40.286 47.4935 39.6328 46.256 39.2069C44.4014 38.727 42.4399 38.8779 40.6805 39.6357C40.4023 39.5736 40.1683 39.5533 39.8848 39.5244L39.868 39.4839C39.6944 39.4059 39.5982 39.4481 39.3862 39.4645L39.2805 39.262Z" fill="#797889"/>
<path d="M39.8679 39.4842C40.9713 39.0344 41.1953 38.7472 42.6483 38.5479C43.5618 38.4227 45.5976 38.7086 46.2559 39.2072C44.4013 38.7274 42.4398 38.8782 40.6804 39.636C40.4022 39.5739 40.1682 39.5537 39.8847 39.5247L39.8679 39.4842Z" fill="#ADB4C5"/>
<path d="M36.2524 42.7412C36.9127 41.3186 37.9626 40.1121 39.2805 39.2617L39.3862 39.4642C39.5982 39.4478 39.6945 39.4056 39.868 39.4836L39.8848 39.5241C38.8837 39.9488 38.4742 40.4758 37.7995 41.2632C37.1449 41.771 36.761 42.3592 36.2524 42.7412Z" fill="#8B8C96"/>
<path d="M39.8847 39.5254C40.1682 39.5543 40.4022 39.5745 40.6804 39.6367C39.85 40.0853 39.2297 40.4126 38.5314 41.07C38.3183 41.2706 37.9597 41.686 37.7783 41.8366C37.8432 41.5191 38.0413 41.4505 38.0682 41.209L37.7994 41.2645C38.474 40.4771 38.8836 39.9501 39.8847 39.5254Z" fill="#ADB4C5"/>
<path d="M42.7175 35.9216L42.7247 35.8229C45.5454 35.6912 47.1924 35.9542 49.679 37.4158C51.6708 38.5865 51.8502 39.1016 53.2355 40.8884C53.3611 40.4961 52.7797 39.5188 52.5508 39.166C52.1303 38.5172 51.7605 37.2565 51.7915 36.4906C52.1262 37.523 52.2253 38.9769 53.0548 39.4117C53.2353 40.0342 53.4913 41.5777 54.2843 41.6746L54.1516 42.0261C53.983 42.0779 53.8517 42.119 53.6771 42.1556C53.1041 40.8438 52.2673 39.664 51.2188 38.6894C50.6662 38.1782 50.1545 37.8802 49.5344 37.4912C47.1849 36.0171 45.4025 35.826 42.7175 35.9216Z" fill="#797889"/>
<path d="M38.4929 28.7148C38.6136 28.7188 38.608 28.73 38.7059 28.8057C38.6339 29.0767 38.2356 29.4018 38.0103 29.6269C38.5121 30.0107 39.0699 30.2503 39.4815 30.7841C40.0593 31.5334 40.2554 32.5861 40.1257 33.5077C40.0104 34.3632 39.5532 35.1354 38.8585 35.6479C38.0931 36.2104 37.3572 36.2943 36.4487 36.1481C33.8625 35.4195 34.2219 33.4454 34.2957 31.3131C34.2957 31.3131 34.1066 31.0049 34.0862 30.9717L34.1279 30.8212C34.3001 30.6961 34.4625 30.6281 34.6582 30.552C35.987 30.0351 37.2253 29.3669 38.4929 28.7148Z" fill="black"/>
<path d="M36.1342 30.3845C36.9133 30.3401 37.308 31.1619 37.0036 31.8228C36.7526 32.3679 36.5469 32.4085 36.0407 32.6505C35.9098 32.6153 35.7799 32.576 35.6515 32.5328C35.1293 32.3519 34.7685 31.8895 34.9959 31.3185C35.1987 30.8091 35.6583 30.5919 36.1342 30.3845Z" fill="#FDFDFE"/>
<path d="M37.4495 34.2185C37.8495 34.1449 38.6564 34.4062 38.8748 34.7754L38.7834 35.1056C38.3485 35.2098 37.5922 34.5425 37.4495 34.2185Z" fill="#151320"/>
<path d="M20.0888 28.9404C20.5061 29.0303 22.4224 30.0299 22.9576 30.2423C23.42 30.4257 24.011 30.6279 24.4952 30.808C24.6203 30.8545 24.6029 30.8984 24.6329 31.0133C24.5101 31.1376 24.3831 31.2004 24.2331 31.2895C24.1994 31.4928 24.8284 32.8219 24.4429 33.9758C24.1003 35.0012 23.9316 35.4443 22.9277 36.0493C21.6999 36.5975 20.214 36.4046 19.3746 35.2604C18.7697 34.4359 18.7234 33.083 18.8912 32.0964C19.0964 30.8889 19.7019 30.4268 20.6396 29.7762C20.289 29.4593 20.119 29.377 20.0888 28.9404Z" fill="black"/>
<path d="M20.5758 30.32C21.2944 30.2917 21.9512 30.6308 21.8038 31.4501C21.6735 32.1745 21.3122 32.3589 20.7604 32.7482C20.1741 32.5715 19.9533 32.4068 19.5015 32.0013C19.6405 31.1609 19.8108 30.7505 20.5758 30.32Z" fill="#FDFDFE"/>
<path d="M17.2883 35.6867C17.839 35.643 18.3448 35.6992 18.8945 35.7436C18.9466 36.2516 19.0982 37.0993 18.8748 37.5637C18.7523 37.8187 18.5712 37.8139 18.3038 37.8952C17.069 38.0322 16.2669 37.5826 16.744 36.0669C16.8178 35.8327 17.056 35.7672 17.2883 35.6867Z" fill="#B66FB8"/>
<path d="M28.581 34.1396C28.8609 34.1472 29.2129 34.1227 29.4379 34.2706C29.5692 34.7356 29.1304 34.899 29.1926 35.429C29.2507 35.577 29.3213 35.6827 29.4545 35.763C30.876 36.619 31.5682 35.7713 32.3657 35.6201L32.4272 35.7221C32.3223 36.0866 31.7177 36.4006 31.3894 36.6065C31.3054 37 31.2685 37.3635 30.9391 37.5911L30.7915 37.5334C30.7006 37.297 30.8226 37.1645 30.9171 36.8434C30.7902 36.6192 30.0925 36.4108 29.7805 36.2876C29.493 36.0815 29.3167 36.0157 28.989 35.8753C28.3987 36.3976 28.2625 36.3845 27.5366 36.6771C27.283 37.0211 27.7308 37.1172 27.6096 37.4771C27.2688 37.5558 26.1319 36.0019 26.2652 35.7394C26.5585 35.7916 26.5858 35.8915 26.8486 36.119C29.8076 36.2125 28.3869 35.2453 28.581 34.1396Z" fill="black"/>
<path d="M36.0853 54.387C36.2278 54.1308 36.1359 54.2087 36.4453 54.1104C37.8509 55.1211 39.7213 56.1347 41.4213 56.5124L41.4814 56.6234L41.7652 56.6755L41.751 56.7578C41.3824 56.7707 41.2656 56.6728 40.7925 56.7188L41.9818 57.064C42.104 56.7706 42.0227 56.8611 42.2758 56.7069C42.4672 56.7152 42.4867 56.7326 42.6322 56.8596C42.6597 56.9721 42.6954 57.0998 42.7109 57.2131C43.1076 57.239 44.6833 57.133 44.94 57.3373C44.9462 57.3422 44.9503 57.3494 44.9554 57.3554C45.148 57.0766 45.2739 57.129 45.5829 57.0967C45.6297 56.988 45.7401 56.9224 45.8375 56.8463C47.0618 56.6281 48.1802 56.3928 49.2881 55.7962C49.7143 55.5667 50.9112 54.6169 51.3425 54.7407L51.4347 54.9641C51.4502 54.8715 51.4866 54.8116 51.526 54.7248L51.7975 54.6278L51.8996 54.709L52.2988 55.3062C52.3852 55.5932 52.4272 55.657 52.5819 55.9143C52.5963 55.9101 52.6107 55.9056 52.6251 55.9014C53.5161 55.6477 55.7683 55.1605 56.5649 55.61C57.0556 55.8869 57.3083 56.4021 57.45 56.9271C57.7621 58.0832 58.1946 63.6656 58.1276 64.851C58.1125 65.1173 58.0438 65.3759 57.9044 65.6048C57.3961 66.4392 56.251 66.814 55.344 67.0189C52.952 67.5593 50.5677 67.8594 48.1473 68.2197C40.3729 69.3773 32.624 69.7956 24.7803 69.172C21.5503 68.9146 18.375 68.4591 15.1681 68.028C13.5531 67.8109 8.63304 67.2005 7.4067 66.4243C6.90607 66.1075 6.47246 65.6038 6.34408 65.0142C6.09961 63.8922 6.4143 57.4179 6.97126 56.5624C7.25458 56.1272 7.66453 55.6388 8.19737 55.5332C9.46813 55.2815 12.7005 56.2209 14.1849 56.4062C18.0219 56.8851 21.9057 57.4561 25.7627 57.7281C27.5027 57.8507 29.2441 57.8648 30.9874 57.8834C32.1114 57.8954 33.2953 57.9868 34.4124 57.9078C34.3606 57.5919 34.3988 57.4644 34.458 57.1472C34.9854 56.2646 35.4084 55.0983 36.0853 54.387Z" fill="#D8DFEE"/>
<path d="M51.4346 54.9642C51.4502 54.8716 51.4865 54.8117 51.526 54.7249L51.7975 54.6279L51.8996 54.7091L52.2987 55.3063C52.3852 55.5933 52.4272 55.6572 52.5818 55.9145C54.606 59.3183 52.1003 58.411 49.6306 58.303C48.0891 60.282 47.2167 62.3459 45.8325 58.9963C45.6337 58.5154 45.2145 57.8442 44.9553 57.3555C45.148 57.0767 45.2738 57.1292 45.5829 57.0969C45.6297 56.9882 45.74 56.9225 45.8374 56.8464C47.0618 56.6283 48.1801 56.393 49.2881 55.7963C49.7142 55.5668 50.9112 54.617 51.3424 54.7408L51.4346 54.9642Z" fill="black"/>
<path d="M45.8373 56.8462C47.0617 56.6281 48.18 56.3927 49.288 55.7961C49.7141 55.5666 50.9111 54.6168 51.3423 54.7406L51.4345 54.964L51.6531 55.6427C51.1291 55.8117 51.3437 56.1365 50.9034 56.4228C50.3555 56.7791 49.6539 56.886 49.122 57.302C48.5554 57.5018 47.0719 58.1212 46.5795 57.8915C46.2713 57.7478 46.3349 57.6066 45.7911 57.6415L45.5828 57.0966C45.6296 56.9879 45.7399 56.9223 45.8373 56.8462Z" fill="#374599"/>
<path d="M49.1218 57.3019C49.6537 56.8859 50.3553 56.779 50.9033 56.4227C51.3436 56.1364 51.129 55.8116 51.653 55.6426C52.008 56.2501 52.5471 57.0819 52.7819 57.7203C52.214 57.747 49.5025 57.5462 49.3113 57.6113L49.1218 57.3019Z" fill="#485FCB"/>
<path d="M45.7913 57.6413C46.335 57.6063 46.2714 57.7475 46.5796 57.8912C47.072 58.1209 48.5555 57.5016 49.1221 57.3018L49.3116 57.6112C48.9974 58.1223 48.8185 58.3651 48.4371 58.8292C47.7029 58.7133 47.0687 58.3835 46.2642 58.5096C46.0391 58.2018 45.9474 57.9812 45.7913 57.6413Z" fill="#758BB8"/>
<path d="M46.2642 58.5097C47.0687 58.3836 47.7028 58.7134 48.4371 58.8294C48.0907 59.3723 47.7618 59.9147 47.346 60.4075C46.9963 59.8468 46.5873 59.0885 46.2642 58.5097Z" fill="#485FCB"/>
<path d="M36.0852 54.387C36.2277 54.1308 36.1358 54.2087 36.4452 54.1104C37.8508 55.1211 39.7212 56.1347 41.4212 56.5124L41.4813 56.6234L41.7651 56.6755L41.7509 56.7578C41.3823 56.7707 41.2655 56.6728 40.7924 56.7188L41.9817 57.064C42.1039 56.7706 42.0226 56.8611 42.2757 56.7069C42.4671 56.7152 42.4866 56.7326 42.6321 56.8596C42.6596 56.9721 42.6953 57.0998 42.7108 57.2131C42.3125 57.8153 41.9376 58.542 41.5887 59.2413C40.2536 61.9161 39.2425 59.0242 38.0714 58.0924C37.9876 58.0256 37.3483 58.0538 37.2056 58.0773C36.1972 58.1528 35.2985 58.5736 34.4123 57.9078C34.3605 57.5919 34.3987 57.4644 34.4579 57.1472C34.9853 56.2646 35.4083 55.0983 36.0852 54.387Z" fill="black"/>
<path d="M36.6926 54.6943C38.3349 55.9037 38.7972 56.2078 40.7923 56.719L41.9815 57.0641C41.7359 57.9384 40.9242 59.0478 40.4098 59.8241L40.0038 59.2497C39.6452 58.7375 39.1834 58.2746 38.7521 57.8193C37.9895 57.3271 37.7756 57.3965 36.8699 57.4219L37.113 57.3098C37.7119 56.4795 37.4104 56.1173 36.7582 55.3701C36.7544 55.3658 36.6983 54.7566 36.6926 54.6943Z" fill="#374599"/>
<path d="M38.7522 57.8184C39.0593 57.6329 39.8397 57.804 40.2254 57.8618C40.1352 58.3838 40.2278 58.968 40.004 59.2488C39.6454 58.7366 39.1835 58.2737 38.7522 57.8184Z" fill="#758BB8"/>
<path d="M35.917 55.6463C36.083 55.1991 36.1629 54.6517 36.6928 54.6926C36.6984 54.7549 36.7545 55.364 36.7584 55.3684C37.4106 56.1156 37.7121 56.4777 37.1132 57.3081L36.8701 57.4201L36.7825 57.4275C36.5317 57.4549 36.241 57.4939 35.9933 57.5104C35.8932 57.2214 35.8677 57.2895 35.9456 57.0424C36.1436 56.9209 36.4803 56.9562 36.7282 56.958C36.769 56.6958 36.1921 55.7826 35.917 55.6463Z" fill="#485FCB"/>
<path d="M35.9168 55.6475C36.1919 55.7838 36.7688 56.697 36.728 56.9592C36.4801 56.9574 36.1433 56.9221 35.9453 57.0435C35.8675 57.2907 35.893 57.2226 35.9931 57.5116L35.0142 57.5968C35.3211 56.9741 35.6238 56.2822 35.9168 55.6475Z" fill="#758BB8"/>
<path d="M28.2121 61.5482C29.253 61.5035 29.6278 61.8111 30.4589 62.3839C30.4861 62.4629 30.5116 62.5425 30.5357 62.6224C31.0673 64.368 30.7839 65.8086 28.9014 66.3616C27.943 66.4198 27.5153 66.1791 26.7067 65.7383C26.1499 64.4402 26.2297 63.5871 26.6777 62.3044C27.2529 61.877 27.5506 61.7318 28.2121 61.5482Z" fill="#374599"/>
<path d="M28.41 62.375C29.1244 62.438 29.3453 62.696 29.7256 63.2792C29.8793 64.351 29.7762 65.1159 28.6679 65.518C27.9772 65.4878 27.4988 65.2232 27.2751 64.533C27.1261 64.065 27.1746 63.5565 27.4091 63.125C27.6403 62.6967 27.9649 62.5126 28.41 62.375Z" fill="#D8DFEE"/>
<path d="M31.6706 61.7167C33.6374 61.5468 35.0073 61.6497 34.6012 64.0212C33.9464 64.7861 33.716 64.781 32.7345 64.8949L32.6176 64.8888C32.3179 65.1484 32.6692 66.3124 32.0697 66.4444C31.6302 66.5411 31.426 66.1068 31.426 65.7623C31.426 64.9793 31.1962 62.2294 31.6706 61.7167Z" fill="#374599"/>
<path d="M32.5209 62.5063C33.4309 62.4912 34.3224 62.8988 33.5379 63.8565C33.2428 63.9776 33.133 64.0316 32.8181 64.0712C32.2454 63.8569 32.4762 63.0429 32.5209 62.5063Z" fill="#D8DFEE"/>
<path d="M38.304 61.4064C38.3927 61.4022 38.4813 61.4 38.57 61.3994C39.0375 61.3981 39.4183 61.5354 39.7495 61.8772C40.0049 62.1383 40.1437 62.4917 40.134 62.8569C40.1148 63.867 39.0523 64.7088 38.3546 65.3722C38.7837 65.3096 39.7658 65.1532 40.1587 65.3899C40.337 65.4974 40.2317 65.9187 40.0969 66.0746C39.5831 66.2209 38.5897 66.2142 38.0121 66.2416C37.733 66.2765 37.4883 66.3026 37.264 66.1309C36.9028 65.2037 39.1201 63.9582 39.0852 62.5929C39.0541 62.5381 38.9917 62.4033 38.947 62.3832C37.9775 61.9489 38.1254 62.7577 37.5504 62.8942C37.3045 62.8709 37.1807 62.8812 36.9921 62.7145C36.9141 62.073 37.8017 61.6022 38.304 61.4064Z" fill="#374599"/>
<path d="M22.7654 61.282C23.4404 61.2382 25.8652 61.2671 26.1618 61.9073C26.1284 62.4881 25.186 62.3049 24.7185 62.2928C24.6732 63.1405 24.6455 63.9892 24.6354 64.8381C24.6381 65.2507 24.7358 65.7093 24.3994 65.9693C24.1092 66.01 24.0689 65.9961 23.7902 65.9091C23.7564 65.8668 23.7154 65.8155 23.6674 65.7552C23.6323 64.713 23.7887 63.3297 23.8051 62.2881C23.4652 62.2648 23.0058 62.2916 22.7796 62.0631C22.6624 61.815 22.7291 61.5598 22.7654 61.282Z" fill="#374599"/>
<path d="M57.1038 54.9477C58.14 54.9079 62.2663 54.5696 62.9401 54.9444C63.0361 55.0835 63.1339 55.2183 63.0688 55.4121C62.597 56.8159 61.5895 58.4481 61.0859 59.8243C61.6537 60.6385 63.2732 63.0964 63.2608 63.994C63.1738 64.1593 63.2011 64.1818 63.0015 64.2263C62.3368 64.3745 61.568 64.3947 60.9022 64.5313C60.2254 64.6651 59.3593 64.7414 58.6759 64.7512C58.7797 64.0175 58.6572 62.5275 58.6129 61.7239L58.3688 57.2154C58.168 56.1512 57.9504 55.6355 57.1038 54.9477Z" fill="#ADB4C5"/>
<path d="M58.3689 57.2168C58.4283 57.4607 58.5215 57.7845 58.6566 57.9991C59.3202 59.0533 59.2846 60.3726 59.5781 61.5467C59.8161 62.4989 60.1094 63.5312 60.427 64.4596C60.6164 64.539 60.6998 64.5275 60.9023 64.5327C60.2255 64.6665 59.3594 64.7428 58.676 64.7526C58.7798 64.019 58.6573 62.5289 58.613 61.7253L58.3689 57.2168Z" fill="#A3B0CE"/>
<path d="M1.85756 54.7709C3.01146 54.6758 5.78495 54.9057 7.09181 54.9516C5.54314 56.7219 5.88928 57.7991 5.83418 60.0108L5.69931 64.7286C5.56322 64.8078 5.07641 64.7156 4.8875 64.6915C3.95326 64.5366 2.97422 64.5045 2.04265 64.3311C1.78001 64.2822 1.77108 64.301 1.6359 64.101C1.53325 63.2133 3.10535 60.7059 3.632 59.8242C3.29876 58.2863 2.1924 56.8884 1.76062 55.369C1.69391 55.1341 1.73101 54.9606 1.85756 54.7709Z" fill="#AFBBD7"/>
</svg>
