<svg width="58" height="70" viewBox="0 0 58 70" fill="none" xmlns="http://www.w3.org/2000/svg">
<path d="M9.60229 54.4395C9.18026 54.0148 8.43644 53.47 8.10008 52.9933C7.33676 51.9113 6.14367 50.615 5.45401 49.5362C4.48378 48.0187 3.45133 46.1352 2.73316 44.4813C-0.182123 37.7673 0.282838 30.5731 0.250127 23.4421L0.221126 18.8793C0.212986 17.4543 0.0864228 15.8639 0.633183 14.5234C1.0114 13.5962 2.46144 13.0112 3.22538 12.4693C4.47335 11.5839 5.81322 10.9394 7.11285 10.1707C8.95313 9.08228 10.7161 8.00197 12.6668 7.11209C13.506 6.71731 14.2627 6.0948 15.177 5.70402C16.2136 5.26098 17.2432 4.70252 18.2979 4.28032C19.4248 3.8282 20.361 3.11423 21.5195 2.71245C23.5568 2.00585 26.8365 0.122532 28.896 0.00125986C29.6954 -0.0458073 32.2419 1.23966 33.0602 1.55232C35.1195 2.33909 37.1356 3.2308 39.0898 4.23634C40.3209 4.85195 41.6911 5.30634 42.9067 5.99784C44.0816 6.6663 45.1048 7.34086 46.3661 7.85289L46.6475 7.9293C48.2374 9.19939 50.5327 10.1377 52.2536 11.2308C53.7019 12.1509 55.3796 12.9729 56.6463 14.0829C57.4531 14.8939 57.3098 18.5478 57.3064 19.6356L57.2829 25.3828C57.253 32.6515 57.4556 40.1109 53.7656 46.6785C53.286 47.532 52.8056 48.7407 52.2386 49.5178C50.8872 51.3699 49.8129 53.086 48.014 54.5313C49.2845 54.3808 51.1052 54.0407 52.2597 53.9391C53.2063 53.7713 56.3436 53.0115 57.049 53.5093C57.2196 53.6298 57.3305 53.8275 57.3591 54.0329C57.3881 54.2427 57.3566 54.4642 57.3084 54.6686C57.1433 55.368 56.8429 56.057 56.6114 56.7377C56.3134 57.6134 56.0607 58.5089 55.7973 59.3957C56.2566 60.875 56.8622 62.1481 57.4283 63.5738C57.7542 64.3942 56.8518 64.8596 56.1953 64.9693C55.1121 65.1944 53.9678 65.3999 52.8708 65.5358C52.8576 68.4281 52.1953 68.025 49.5847 68.5285C43.0988 69.7108 36.1644 70.0416 29.5754 69.9957C22.4267 69.9458 15.0841 69.5992 8.0343 68.4287C5.3564 67.9843 4.62052 68.3887 4.60464 65.5259C3.53634 65.4196 2.53095 65.1905 1.48837 65.0192C-1.08128 64.5964 0.310881 62.9194 0.999887 61.2947C1.27555 60.6467 1.51558 59.9842 1.71889 59.31C1.44511 58.404 1.15785 57.5021 0.857222 56.6046C0.626468 55.925 0.391079 55.2763 0.199259 54.5754C-0.0568267 53.6397 0.446267 53.0881 1.40594 53.2187C2.02119 53.3025 2.64616 53.44 3.26161 53.5343C3.80929 53.6424 6.44538 53.9146 6.76743 54.0524C7.44508 54.0903 8.91427 54.318 9.60229 54.4395Z" fill="#010002"/>
<path d="M4.6901 39.3799C5.05634 39.383 5.66342 39.3723 6.00313 39.4321C5.6944 39.4449 5.39375 39.4594 5.0843 39.456C5.54828 41.3328 6.26544 43.2515 7.28287 44.9039C7.71114 46.5489 8.6316 47.5754 9.71769 48.8043C10.0523 49.1919 10.3392 49.9229 10.6753 50.2652C12.9185 52.55 15.1493 55.1423 17.9878 56.698C18.6423 57.0567 19.6767 58.0283 20.3111 58.1091C20.1446 58.1162 20.1321 58.0868 20.033 58.1703C21.0298 58.4517 22.1012 58.313 23.1146 58.3875C30.3694 58.9221 37.6502 58.3868 44.8827 57.794C45.0548 57.7799 45.1248 57.2836 45.2716 57.186C45.7512 56.8689 47.7124 54.9423 48.0587 54.9824C49.2111 55.116 51.2148 56.2849 52.2757 56.3917L52.315 56.3347C52.0905 56.2865 51.4904 56.0333 51.2722 55.9374C50.7337 55.7008 48.5889 55.1564 48.3708 54.6931C48.3963 54.6667 48.4218 54.6404 48.4473 54.6142C48.793 54.6102 52.6109 54.0505 52.6856 53.9559L52.2597 53.939C53.2063 53.7712 56.3436 53.0113 57.049 53.5092C57.2196 53.6296 57.3305 53.8273 57.3591 54.0328C57.3881 54.2426 57.3566 54.4641 57.3084 54.6685C57.1433 55.3678 56.8429 56.0569 56.6114 56.7376C56.3134 57.6133 56.0607 58.5087 55.7973 59.3956C56.2566 60.8749 56.8622 62.1479 57.4283 63.5737C57.7542 64.3941 56.8518 64.8595 56.1953 64.9691C55.1121 65.1943 53.9678 65.3998 52.8708 65.5357C52.8576 68.428 52.1953 68.0249 49.5847 68.5284C43.0988 69.7106 36.1644 70.0415 29.5754 69.9955C22.4267 69.9457 15.0841 69.599 8.0343 68.4286C5.3564 67.9842 4.62052 68.3886 4.60464 65.5258C3.53634 65.4195 2.53095 65.1904 1.48837 65.019C-1.08128 64.5963 0.310881 62.9192 0.999887 61.2945C1.27555 60.6466 1.51558 59.984 1.71889 59.3098C1.44511 58.4038 1.15785 57.5019 0.857222 56.6044C0.626468 55.9248 0.391079 55.2761 0.199259 54.5752C-0.0568267 53.6395 0.446267 53.088 1.40594 53.2186C2.02119 53.3023 2.64616 53.4399 3.26161 53.5342C3.80929 53.6422 6.44538 53.9145 6.76743 54.0523L6.64585 54.1219C7.1758 54.3584 8.63941 54.3631 9.27367 54.5129C9.77178 54.6304 10.5713 55.5451 11.0122 55.8869C11.7973 56.5237 12.6257 57.1027 13.3884 57.7681C13.4972 57.8629 14.3472 57.8636 14.5374 57.8676C16.1155 57.901 17.7412 58.2577 19.3048 58.1838C19.4705 58.176 19.6332 58.1163 19.6766 58.2845L19.7693 58.2334L19.668 58.1504L19.6097 58.226C19.5413 58.2146 18.9481 58.1246 18.9135 58.1135L19.161 58.0465L19.1752 57.9435C18.9685 57.7052 18.7365 57.654 18.4942 57.4832C17.3756 56.6945 16.1211 56.069 15.0289 55.2296C14.3552 54.7192 13.7633 54.0956 13.1426 53.5234C9.47921 50.1461 5.38147 44.4212 4.6901 39.3799Z" fill="#D18C31"/>
<path d="M35.8032 64.318C36.1024 63.6531 36.4968 62.504 37.0022 61.9896C37.1065 61.8833 37.8696 62.0051 37.8818 62.2618C37.9773 63.5782 37.9849 65.0244 37.9266 66.3458C37.6186 66.336 37.2871 66.3353 36.9844 66.2894C36.9621 65.5292 36.9547 64.6955 36.913 63.9419C36.501 64.7211 36.3576 65.1202 35.682 65.7202C35.1428 65.1038 34.9776 64.7329 34.6225 63.9839C34.6134 64.7638 34.6203 65.5889 34.545 66.3622C34.2436 66.4121 33.8913 66.4837 33.5903 66.4863C33.5821 66.0478 33.563 65.6093 33.533 65.1721C33.5193 64.2511 33.5325 62.9994 33.6156 62.0834C33.9297 62.08 34.2792 62.0683 34.5901 62.0804C35.0209 62.8072 35.3815 63.6639 35.8032 64.318Z" fill="white"/>
<path d="M16.8512 61.69C17.1934 61.64 17.5349 61.6368 17.8803 61.626C17.9521 61.9815 17.9713 63.0116 18.004 63.4596C18.4683 63.4481 18.9364 63.4935 19.3998 63.529C19.437 62.9786 19.4407 62.3789 19.4545 61.8236C19.8774 61.8149 20.1425 61.8664 20.556 61.9333C20.5622 63.2813 20.4746 64.6758 20.379 66.0202C20.3582 66.313 19.7195 66.252 19.5337 66.1975C19.3049 65.908 19.3886 64.859 19.3969 64.4415C18.8332 64.4408 18.5117 64.4329 17.9554 64.3601C17.9115 64.8452 17.8733 65.3296 17.8407 65.8154C17.6797 66.3018 17.0753 66.1633 16.8381 65.8738C16.8101 64.4178 16.8048 63.15 16.8512 61.69Z" fill="white"/>
<path d="M16.8379 65.8736C17.2559 65.6924 17.3734 65.7823 17.8405 65.8151C17.6795 66.3016 17.0751 66.163 16.8379 65.8736Z" fill="white"/>
<path d="M44.981 61.5137C45.0473 61.5291 45.1393 61.5695 45.2055 61.5954C45.3952 61.8504 45.5482 65.5808 45.1164 65.9392C44.5532 65.9681 43.5045 64.2909 42.7911 63.6823C42.7326 64.4032 42.8891 65.2473 42.6154 65.9209C42.5342 66.1204 42.4053 66.1198 42.2039 66.1887C42.0582 66.1152 41.9679 66.0233 41.9387 65.8631C41.81 65.1581 41.6176 62.3374 41.8783 61.8306C42.808 61.1724 44.0528 63.5985 44.4451 64.1504C44.4284 63.38 44.2391 62.4099 44.4819 61.7016C44.684 61.5049 44.6479 61.5633 44.981 61.5137Z" fill="white"/>
<path d="M10.3691 61.0225C10.5961 61.024 11.0084 61.032 11.1012 61.2585C11.3825 61.9449 12.6708 64.8444 12.5443 65.3965C12.4571 65.472 12.4469 65.4713 12.3337 65.4956C11.3246 65.7103 11.578 64.9232 11.0111 64.5733C10.6655 64.5556 10.1892 64.5753 9.83287 64.5805C9.71202 64.8018 9.59189 65.0479 9.47583 65.2737C9.18811 65.2613 8.66762 65.281 8.48486 65.0394C8.52779 64.9035 8.75335 64.3862 8.83134 64.2733C9.298 63.6014 9.84417 61.513 10.3691 61.0225Z" fill="white"/>
<path d="M10.4715 62.5625C10.9313 62.639 10.9681 63.5402 10.8345 63.8256C10.5289 63.8178 10.4346 63.8604 10.2638 63.6005C10.2053 63.3152 10.382 62.8602 10.4715 62.5625Z" fill="#D18C31"/>
<path d="M30.3027 62.104C31.0289 62.0808 32.2294 61.9911 32.8979 62.1608C33.0233 62.266 33.0237 62.3237 33.0749 62.4882C32.9447 63.0943 31.7195 62.9487 31.2044 62.9564L31.2924 63.8773C31.7845 63.8458 32.641 63.6974 32.8624 64.2731C32.7087 64.8022 31.6662 64.7044 31.2722 64.6919C31.2598 65.0307 31.2127 65.2145 31.4013 65.4705C31.6227 65.5919 32.0925 65.5237 32.367 65.5066L32.6368 65.4784C32.9023 65.4528 33.34 65.3536 33.5328 65.1711C33.5628 65.6083 33.5819 66.0468 33.5901 66.4853C33.3589 66.5484 33.272 66.5149 33.0379 66.4657C32.0566 66.5379 31.2901 66.5615 30.3067 66.4847C30.2588 65.4875 30.171 62.9732 30.3027 62.104Z" fill="white"/>
<path d="M33.5327 65.1699C33.5627 65.6071 33.5818 66.0456 33.59 66.4841C33.3588 66.5471 33.2719 66.5137 33.0378 66.4644C33.0519 66.2314 33.1091 65.8474 32.9963 65.6623C32.8317 65.5041 32.604 65.5218 32.3669 65.5054L32.6367 65.4771C32.9022 65.4515 33.3399 65.3524 33.5327 65.1699Z" fill="#EBAD49"/>
<path d="M22.804 62.0287C23.6194 61.9617 24.6808 61.962 25.4859 62.0775C25.5277 62.3225 25.565 62.5156 25.5728 62.7641C25.1754 62.9211 24.3475 62.8429 23.8597 62.8479C23.8428 63.1314 23.8613 63.4383 23.8719 63.7239C24.3625 63.7318 25.1971 63.6579 25.3121 64.2849C25.0497 64.7996 24.3108 64.6131 23.8521 64.5554L23.8501 65.4514C24.1705 65.4494 25.2385 65.3785 25.4108 65.6667C26.1451 66.8923 23.4012 66.4183 22.8085 66.3619C22.6805 65.1114 22.7441 63.2843 22.804 62.0287Z" fill="white"/>
<path d="M25.4858 62.0776C25.7346 62 25.8494 62.0152 26.1083 62.0236C26.2645 62.0149 26.4773 61.9921 26.6354 62.0491C27.322 62.2964 27.4514 64.6276 27.8697 64.8055C28.1913 64.5449 28.5599 62.9704 28.7173 62.4772C28.9865 62.2181 29.3112 61.9099 29.7086 62.1157C30.1198 62.6023 29.1641 64.3939 28.9231 64.988C28.6959 65.5473 28.4296 66.572 27.7365 66.5254C26.9573 66.1112 26.4872 63.5754 26.0768 62.7402L25.5727 62.7642C25.5649 62.5157 25.5276 62.3225 25.4858 62.0776Z" fill="white"/>
<path d="M25.4858 62.0767C25.7346 61.9991 25.8494 62.0143 26.1083 62.0227C26.0247 62.2583 26.014 62.4951 26.0768 62.7392L25.5727 62.7633C25.5649 62.5148 25.5276 62.3216 25.4858 62.0767Z" fill="#EBAD49"/>
<path d="M40.7335 61.7891C41.1589 61.8226 41.3785 61.8777 41.3736 62.399C41.1275 62.8163 39.9696 62.5691 39.5024 62.7778C38.9372 64.0654 40.672 63.4486 41.0408 63.7375C41.2703 64.6463 40.0464 64.4507 39.5309 64.4389C39.5157 64.6673 39.4711 64.9187 39.5768 65.1117C39.8689 65.3782 40.616 65.2397 41.1281 65.2437C41.2084 65.2529 41.2131 65.2693 41.2895 65.3159C41.3694 65.5752 41.3121 65.9041 41.285 66.1804C40.5024 66.2717 39.4591 66.2901 38.6768 66.2802C38.5932 64.8117 38.5207 63.4525 38.544 61.9841C39.3041 61.8444 39.967 61.8239 40.7335 61.7891Z" fill="white"/>
<path d="M14.2163 61.4483C14.9752 61.3606 15.8799 61.4402 16.3473 62.2065C16.4317 62.3449 16.3793 62.4335 16.3199 62.5594C15.6913 62.9417 13.5302 61.4452 13.737 63.7733C13.8639 65.2019 14.7324 65.0725 15.7597 64.6951C16.0961 64.7003 16.1258 64.7758 16.2695 65.0338C16.3095 65.4093 16.1254 65.5728 15.8132 65.7244C15.3099 65.9752 14.7262 66.0093 14.1972 65.8189C13.6422 65.6154 13.1915 65.1986 12.9452 64.6616C12.6803 64.0754 12.6599 63.4078 12.8886 62.8066C13.1437 62.1242 13.5692 61.7396 14.2163 61.4483Z" fill="white"/>
<path d="M48.3793 61.1283C48.7551 61.0511 49.0249 61.1265 49.0582 61.5487C48.8681 62.0601 48.3392 62.0052 47.8872 62.0236C47.9022 63.0099 47.9265 63.9976 47.9086 64.9836C47.9 65.4562 47.6499 65.5987 47.1991 65.5225C47.0324 65.3387 47.0812 65.3125 47.0456 65.0118C47.0191 64.0567 46.9874 63.1018 46.9505 62.1472C46.5003 62.2153 46.0035 62.4011 45.7915 61.9481C45.8367 61.3197 46.548 61.3263 47.0547 61.2693C47.4959 61.2197 47.9378 61.1779 48.3793 61.1283Z" fill="white"/>
<path d="M21.1749 61.9602C21.4978 61.9244 21.8226 61.9483 22.1474 61.9622C22.1552 63.2367 22.2083 65.0722 22.0908 66.2886C21.8234 66.3102 21.4456 66.3417 21.2081 66.2236C21.0153 65.8717 21.1467 62.5688 21.1749 61.9602Z" fill="white"/>
<path d="M9.60234 54.4395C9.18031 54.0148 8.43649 53.47 8.10013 52.9933C7.33681 51.9113 6.14372 50.615 5.45406 49.5362C4.48383 48.0187 3.45138 46.1352 2.73321 44.4813C-0.182073 37.7673 0.282888 30.5731 0.250177 23.4421L0.221175 18.8793C0.213035 17.4543 0.0864725 15.8639 0.633233 14.5234C1.01145 13.5962 2.46149 13.0112 3.22543 12.4693C4.4734 11.5839 5.81327 10.9394 7.1129 10.1707C8.95318 9.08228 10.7161 8.00197 12.6669 7.11209C13.5061 6.71731 14.2628 6.0948 15.177 5.70402C16.2136 5.26098 17.2432 4.70252 18.298 4.28032C19.4248 3.8282 20.361 3.11423 21.5195 2.71245C23.5569 2.00585 26.8365 0.122532 28.896 0.00125986C29.6954 -0.0458073 32.2419 1.23966 33.0602 1.55232C35.1196 2.33909 37.1357 3.2308 39.0899 4.23634C40.321 4.85195 41.6912 5.30634 42.9067 5.99784C44.0816 6.6663 45.1048 7.34086 46.3661 7.85289C46.3255 8.0684 46.2868 8.24065 46.2827 8.46109C46.2352 8.80402 46.2045 9.00883 46.1085 9.33554C46.0222 9.6293 45.3165 10.9259 45.3194 11.084L45.1758 10.9246C45.0454 11.0179 44.8882 11.1391 44.75 11.214C43.7775 10.9222 41.9309 9.76308 40.934 9.2999C40.7787 9.22775 40.6767 9.29622 40.5467 9.35891L40.1299 8.26862C39.3894 7.18758 39.2888 6.96459 38.0472 7.45174C37.7949 7.57502 37.454 7.75436 37.1966 7.84469C36.9603 7.52408 34.4228 6.27204 33.973 6.09152C33.8946 6.68619 30.48 10.226 30.0109 11.3765L29.8139 11.4425C27.528 11.1944 25.4799 11.26 23.3147 12.0517C22.5928 12.3204 22.0272 12.55 21.3264 12.8689C20.4597 11.4004 18.3073 9.94374 16.8242 9.15082C16.6974 9.05668 16.1453 8.81879 15.9705 8.74284C13.7815 8.12361 13.8333 8.69419 13.1643 10.6638C13.0924 10.9969 13.017 11.3964 12.9349 11.7215C12.3782 14.7109 11.9512 17.4012 12.4051 20.4295C12.4661 20.8365 12.4714 21.0291 12.2711 21.3934C12.0169 21.9178 11.682 22.533 11.5058 23.0837C10.7276 25.5165 10.4807 28.1839 10.8445 30.7142C10.8993 31.0946 11.3084 32.8028 11.1323 32.9798C10.6287 32.8179 9.83951 30.7857 8.67137 31.4956C7.88659 31.9726 6.60402 32.9157 5.93845 33.5075C5.1666 34.3269 4.56694 35.2607 4.25861 36.3543C4.23648 36.5506 4.21292 36.6795 4.27738 36.8649C4.45653 37.3804 4.31309 37.9911 4.32675 38.4559C4.31788 38.6571 4.31204 38.6816 4.47418 38.8697C4.50405 38.9723 4.56563 39.21 4.60173 39.2976L4.69015 39.38C5.38152 44.4213 9.47926 50.1463 13.1427 53.5235C13.7634 54.0958 14.3552 54.7193 15.0289 55.2297C16.1211 56.0692 17.3756 56.6946 18.4942 57.4833C18.7365 57.6541 18.9685 57.7053 19.1752 57.9437L19.161 58.0467L18.9136 58.1137C18.9482 58.1248 19.5413 58.2147 19.6098 58.2261L19.6681 58.1505L19.7694 58.2335L19.6766 58.2846C19.6333 58.1164 19.4706 58.1761 19.3049 58.1839C17.7412 58.2578 16.1156 57.9011 14.5374 57.8677C14.3473 57.8637 13.4972 57.863 13.3885 57.7682C12.6258 57.1029 11.7974 56.5238 11.0123 55.887C10.5714 55.5452 9.77183 54.6306 9.27372 54.513C8.63947 54.3633 7.17585 54.3585 6.6459 54.122L6.76748 54.0524C7.44513 54.0903 8.91432 54.318 9.60234 54.4395Z" fill="#F1C05D"/>
<path d="M6.15875 18.4668C6.45034 18.5938 7.016 19.0841 7.29919 19.3063C8.49989 19.6844 9.69548 20.3865 10.8047 20.9667C11.2329 21.1906 11.8975 21.0786 12.2713 21.3923C12.0171 21.9167 11.6821 22.5319 11.506 23.0826C10.7277 25.5154 10.4809 28.1828 10.8447 30.7131C10.8995 31.0935 11.3086 32.8017 11.1324 32.9787C10.6289 32.8168 9.8397 30.7846 8.67156 31.4945C7.88677 31.9715 6.60421 32.9146 5.93864 33.5064C5.34889 33.4623 4.77371 34.8607 4.54481 35.2567L4.49492 35.2381C4.26529 34.4027 4.36954 33.3088 4.297 32.4381C4.06941 29.7054 4.19262 26.9808 4.08228 24.2463C4.08228 24.2463 4.17241 24.1077 4.1812 24.0942L4.29339 23.8955C4.06842 23.5615 4.08031 22.9849 4.1405 22.5977C4.1468 21.9138 4.12449 20.921 4.2351 20.2746C5.35683 19.7373 5.42661 19.3925 6.15875 18.4668Z" fill="#F5CA70"/>
<path d="M6.15846 18.4668C6.45006 18.5938 7.01572 19.0841 7.29891 19.3063L7.35313 19.5028C7.89601 19.998 7.69573 21.3283 8.21458 21.8827C8.76173 22.4673 9.99375 22.3634 10.2389 23.2483C9.9627 24.2485 7.88925 23.8097 8.11887 26.8181C7.84277 27.3006 7.60934 27.6593 7.29451 28.1187C6.76049 27.204 6.51544 25.9383 5.88368 25.1976C5.58512 24.8476 4.72262 24.6575 4.30157 24.1826L4.18092 24.0942L4.29311 23.8955C4.06814 23.5615 4.08002 22.9849 4.14022 22.5977C4.14652 21.9138 4.1242 20.921 4.23481 20.2746C5.35655 19.7373 5.42633 19.3925 6.15846 18.4668Z" fill="#EBAD49"/>
<path d="M6.15838 18.4668C6.44997 18.5938 7.01563 19.0841 7.29882 19.3063L7.35305 19.5028L7.27847 19.6964C6.53597 20.5878 6.77144 21.2137 6.22114 21.9604C5.6711 22.7068 4.81706 22.7662 4.24208 23.7069C4.18445 23.291 4.14716 23.0197 4.14014 22.5977C4.14644 21.9138 4.12412 20.921 4.23473 20.2746C5.35647 19.7373 5.42625 19.3925 6.15838 18.4668Z" fill="#FADC90"/>
<path d="M4.60864 23.8648C5.20109 23.224 6.17571 22.8962 6.70907 22.1927C7.07366 21.7119 6.98911 20.5869 7.35469 20.2471C7.52714 22.0149 8.08164 22.3957 9.67135 22.9793C7.52602 24.8516 7.89291 24.2747 7.40136 27.2521C7.23823 25.8617 7.2255 25.2433 6.15667 24.1817C5.62062 24.0576 5.15054 23.9568 4.60864 23.8648Z" fill="#FADC90"/>
<path d="M9.60234 54.4395C9.18031 54.0148 8.43649 53.47 8.10013 52.9933C7.33681 51.9113 6.14372 50.615 5.45406 49.5362C4.48383 48.0187 3.45138 46.1352 2.73321 44.4813C-0.182073 37.7673 0.282888 30.5731 0.250177 23.4421L0.221175 18.8793C0.213035 17.4543 0.0864725 15.8639 0.633233 14.5234C1.01145 13.5962 2.46149 13.0112 3.22543 12.4693C4.4734 11.5839 5.81327 10.9394 7.1129 10.1707C8.95318 9.08228 10.7161 8.00197 12.6669 7.11209C13.5061 6.71731 14.2628 6.0948 15.177 5.70402C16.2136 5.26098 17.2432 4.70252 18.298 4.28032C19.4248 3.8282 20.361 3.11423 21.5195 2.71245C23.5569 2.00585 26.8365 0.122532 28.896 0.00125986C29.6954 -0.0458073 32.2419 1.23966 33.0602 1.55232C35.1196 2.33909 37.1357 3.2308 39.0899 4.23634C40.321 4.85195 41.6912 5.30634 42.9067 5.99784C44.0816 6.6663 45.1048 7.34086 46.3661 7.85289C46.3255 8.0684 46.2868 8.24065 46.2827 8.46109C46.1526 8.49083 35.8608 3.37267 34.4813 2.85432C32.8558 2.24353 30.4964 1.07348 28.6953 0.713898C26.0976 1.31085 23.3978 2.6384 20.9975 3.80071C19.7122 4.4998 17.821 5.07206 16.6009 5.8099C14.915 6.82956 12.6945 7.54607 11.1239 8.5763C8.85091 10.0671 6.4447 11.2695 4.18666 12.7997C3.38343 13.344 2.47733 13.7322 1.66638 14.3002C0.96078 14.9967 0.947553 16.0185 0.935106 16.9365C0.894334 19.9442 1.02956 23.1566 0.975602 26.1417C0.853477 32.8976 0.954839 39.2871 4.05576 45.4602C5.87254 49.077 7.8963 52.0184 10.8826 54.8457C11.7114 55.6699 13.8346 56.9824 14.3543 57.7151C15.7844 57.842 17.5291 57.9355 18.9136 58.1137C18.9482 58.1248 19.5413 58.2147 19.6098 58.2261L19.6681 58.1505L19.7694 58.2335L19.6766 58.2846C19.6333 58.1164 19.4706 58.1761 19.3049 58.1839C17.7412 58.2578 16.1156 57.9011 14.5374 57.8677C14.3473 57.8637 13.4972 57.863 13.3885 57.7682C12.6258 57.1029 11.7974 56.5238 11.0123 55.887C10.5714 55.5452 9.77183 54.6306 9.27372 54.513C8.63947 54.3633 7.17585 54.3585 6.6459 54.122L6.76748 54.0524C7.44513 54.0903 8.91432 54.318 9.60234 54.4395Z" fill="#C57C24"/>
<path d="M29.2307 3.90137C30.0581 4.26421 31.1743 4.4629 32.0519 4.84702C32.5066 5.04599 33.5569 5.79197 33.9042 5.86208L33.9065 6.0088L33.9728 6.09197C33.8944 6.68664 30.4798 10.2265 30.0107 11.3769L29.8137 11.4429C27.5278 11.1948 25.4797 11.2605 23.3145 12.0521C23.2768 12.0274 23.2052 11.9531 23.1691 11.9182C23.1071 11.4123 23.6321 10.8766 23.9149 10.4876C25.5167 8.28397 27.5737 6.80408 28.6582 4.21188L28.987 4.11528L29.2307 3.90137Z" fill="#FADC90"/>
<path d="M29.2307 3.90137C30.0581 4.26421 31.1743 4.4629 32.0519 4.84702C32.5066 5.04599 33.5569 5.79197 33.9042 5.86208L33.9065 6.0088C33.6586 5.9677 32.9613 5.68267 32.6863 5.58716C31.4284 5.15043 30.2134 4.63078 28.9871 4.11528L29.2307 3.90137Z" fill="#EBAD49"/>
<path d="M6.95437 14.9554C7.67397 14.3528 9.28101 13.4966 10.1748 12.9985C11.0431 12.5145 11.8864 11.9895 12.734 11.5029L12.8712 11.5556L12.9351 11.7217C12.3783 14.7111 11.9514 17.4014 12.4052 20.4297C12.4662 20.8367 12.4715 21.0293 12.2713 21.3936C11.8975 21.0799 11.2328 21.1919 10.8047 20.968C9.69543 20.3878 8.49984 19.6857 7.29914 19.3076C7.01594 19.0854 6.45028 18.5951 6.15869 18.4681L6.20445 18.4302C7.00216 17.198 7.52922 16.3714 6.95437 14.9554Z" fill="#F1C05D"/>
<path d="M16.8242 9.14935C17.6204 8.81935 18.4552 8.28429 19.2492 7.91418C19.992 7.54756 20.832 7.29883 21.5751 6.9475C23.3022 6.13081 25.0231 5.36605 26.8457 4.78037C27.4195 4.59602 28.0607 4.29112 28.6584 4.20996C27.5738 6.80216 25.5169 8.28205 23.9151 10.4857C23.6323 10.8747 23.1073 11.4103 23.1693 11.9163C23.2054 11.9512 23.277 12.0255 23.3147 12.0502C22.5928 12.3189 22.0271 12.5486 21.3264 12.8675C20.4597 11.3989 18.3073 9.94227 16.8242 9.14935Z" fill="#F1C05D"/>
<path d="M13.1642 10.6641C13.0922 10.9972 13.0168 11.3967 12.9347 11.7217L12.8709 11.5557L12.7337 11.503C11.8861 11.9896 11.0428 12.5146 10.1744 12.9986C9.28069 13.4967 7.67364 14.3529 6.95404 14.9555C7.52889 16.3715 7.00183 17.1981 6.20412 18.4303L6.15837 18.4682C5.42623 19.3938 5.35645 19.7386 4.23472 20.2759C4.12411 20.9223 4.14642 21.9152 4.14012 22.599C4.07993 22.9862 4.06805 23.5629 4.29301 23.8968L4.18082 24.0955C4.17203 24.1091 4.0819 24.2476 4.0819 24.2476C4.19224 26.9822 4.06903 29.7067 4.29662 32.4394C4.36916 33.3101 4.26491 34.4041 4.49454 35.2395L4.54443 35.2581C4.77333 34.862 5.34851 33.4636 5.93826 33.5077C5.16641 34.3272 4.56675 35.261 4.25841 36.3545L4.15581 36.4196L4.11872 36.5865C3.57413 35.5119 3.83376 31.3751 3.63433 30.048L3.62842 29.5638C3.64595 28.1446 3.65383 26.7253 3.65206 25.306C3.65711 24.5271 3.7072 22.7776 3.57512 22.1023C3.60354 21.2728 3.57138 20.2438 3.56928 19.3979C3.60092 18.5359 3.4884 17.0234 3.56403 16.2909C3.92356 15.8726 4.39633 15.6253 4.83838 15.3103C6.32392 14.1942 7.94331 13.418 9.55272 12.5335C10.9185 11.7829 11.5609 11.1448 13.1642 10.6641Z" fill="#DA9A42"/>
<path d="M6.95403 14.9551C7.52888 16.371 7.00182 17.1976 6.2041 18.4298C5.49311 17.7992 4.9501 17.2975 4.16748 16.7511C4.48402 16.4951 4.59089 16.3611 4.95417 16.1326C5.50492 15.7862 6.5106 15.3769 6.95403 14.9551Z" fill="#D18C31"/>
<path d="M4.16748 16.752C4.9501 17.2984 5.49311 17.8 6.2041 18.4307L6.15835 18.4686C5.42622 19.3942 5.35644 19.739 4.2347 20.2763C4.15225 20.03 4.25006 17.4801 4.16748 16.752Z" fill="#EBAD49"/>
<path d="M3.63442 30.0476L3.59464 30.5176C3.58098 30.3346 3.5651 30.067 3.42094 29.9534L3.20641 30.1151C3.17799 30.2834 3.16486 30.4194 3.15002 30.5874C3.07539 29.8914 2.79508 29.2184 2.7392 28.6319C2.50362 26.1594 2.22916 23.6569 2.74289 21.2032C2.8713 20.59 2.76963 19.5057 3.56936 19.3975C3.57146 20.2434 3.60363 21.2723 3.5752 22.1019C3.70728 22.7772 3.6572 24.5267 3.65214 25.3056C3.65391 26.7249 3.64604 28.1442 3.62851 29.5634L3.63442 30.0476Z" fill="#FDECB3"/>
<path d="M3.57518 22.1025C3.70726 22.7778 3.65717 24.5273 3.65212 25.3063C3.65389 26.7256 3.64601 28.1449 3.62849 29.564C3.46897 28.7933 3.58234 25.1924 3.55693 24.1073C3.20304 24.1988 3.06893 24.2938 2.77644 24.1605L2.75562 24.0486C2.9639 23.8171 3.33407 23.7635 3.48177 23.6495C3.61096 23.5497 3.57072 22.3089 3.57518 22.1025Z" fill="#FADC90"/>
<path d="M15.9705 8.74157C17.6777 8.49153 20.5573 6.58469 22.1193 5.95824C23.0378 5.58984 28.0226 3.5197 28.7377 3.52344C28.9588 3.57836 29.0725 3.73303 29.2308 3.89965L28.9872 4.11357L28.6584 4.21016C28.0606 4.29133 27.4194 4.59623 26.8456 4.78058C25.023 5.36626 23.3021 6.13102 21.5751 6.9477C20.832 7.29903 19.992 7.54776 19.2491 7.91438C18.4551 8.28449 17.6203 8.81956 16.8242 9.14955C16.6973 9.05542 16.1453 8.81752 15.9705 8.74157Z" fill="#DB963E"/>
<path d="M40.1299 8.26855C40.8046 8.39728 44.6818 10.4694 45.1758 10.9245C45.0454 11.0179 44.8881 11.1391 44.7499 11.214C43.7775 10.9222 41.9308 9.76302 40.934 9.29983C40.7787 9.22769 40.6767 9.29615 40.5467 9.35885L40.1299 8.26855Z" fill="#D18C31"/>
<path d="M33.9045 5.86217C34.2124 5.70948 34.3656 5.71742 34.7199 5.86525C36.0675 6.42743 36.5935 6.96414 38.0473 7.45228C37.795 7.57556 37.4541 7.7549 37.1967 7.84522C36.9604 7.52462 34.4229 6.27258 33.9731 6.09205L33.9068 6.00888L33.9045 5.86217Z" fill="#D18C31"/>
<path d="M4.11887 36.5865L4.15596 36.4195L4.25856 36.3545C4.23644 36.5508 4.21287 36.6798 4.27733 36.8651C4.45648 37.3806 4.31304 37.9913 4.3267 38.4562C4.31784 38.6573 4.31199 38.6819 4.47414 38.8699C4.504 38.9725 4.56558 39.2102 4.60168 39.2978C4.26565 39.264 3.92915 39.2347 3.59233 39.21C3.58701 38.4477 4.04357 37.4259 4.11887 36.5865Z" fill="#975028"/>
<path d="M24.6285 35.0261C24.8301 34.9543 25.4956 34.9182 25.7325 34.9063C27.1192 34.9031 28.4494 35.0988 29.8345 35.0577C30.8358 35.028 31.9993 35.1658 32.9844 35.0434C34.2658 35.1697 37.2198 35.5397 38.3424 36.0655C38.5705 36.1381 38.9249 36.2263 39.0874 36.3902L39.0691 37.3038C38.8958 38.38 39.0708 39.9711 38.8781 41.177C38.8386 43.4203 38.1784 45.6128 37.4959 47.7334C37.4431 47.8974 37.4012 48.0699 37.3313 48.2275C37.0832 48.382 36.8924 49.0245 36.7176 49.3104C36.6429 49.4327 36.3547 49.8586 36.3186 49.9463C35.0612 51.4781 34.0737 52.6633 32.1175 53.3937C31.6617 53.5639 31.2467 53.6247 30.7936 53.7515C30.8372 54.3798 30.7782 54.7144 31.1816 55.1685L30.8668 55.3186C30.35 55.3185 29.9347 55.3311 29.4195 55.3679C29.2793 55.3631 29.2869 55.3646 29.174 55.2801C29.1045 55.0522 29.2182 54.7496 29.2832 54.5088C28.6523 54.3825 26.6348 54.3504 26.055 54.5469L25.8993 54.4505C26.0821 54.2931 26.1974 54.1238 26.1758 53.883C25.9937 53.6831 26.0054 53.7389 25.6878 53.6694C23.7833 53.2946 22.3375 52.0457 21.1097 50.6322C21.1127 50.2603 21.0899 50.2716 20.8944 50.014C20.6264 49.6312 20.343 49.2618 20.0746 48.8812C19.9101 48.6479 19.8962 48.4607 19.6836 48.2342L19.625 47.8468C19.0468 47.3098 18.3159 43.5478 18.254 42.6389C18.2846 42.5377 18.3238 41.3422 18.3424 41.1231C18.272 40.5883 18.0129 37.2829 18.0863 36.8383C17.966 36.7181 17.8969 36.7297 17.7168 36.6796C17.9618 36.1241 18.7453 36.0224 19.2796 35.9003C20.8843 35.4374 22.97 35.1685 24.6285 35.0261Z" fill="#F5CA70"/>
<path d="M24.6285 35.0261C24.8301 34.9543 25.4956 34.9182 25.7325 34.9063C27.1192 34.9031 28.4494 35.0988 29.8345 35.0577C30.8358 35.028 31.9993 35.1658 32.9844 35.0434C34.2658 35.1697 37.2198 35.5397 38.3424 36.0655C38.5705 36.1381 38.9249 36.2263 39.0874 36.3902C38.7199 36.4893 38.5367 36.7065 38.0996 36.8678C37.6966 37.0165 37.4598 36.9917 37.1622 37.0826C34.4149 37.3494 31.6552 37.4664 28.8952 37.433C27.537 37.4248 25.272 37.3127 24.0413 37.4105L22.9665 37.3964C21.9708 37.2893 21.039 37.2394 20.0377 37.1868L19.9544 37.5544C19.6992 37.6491 19.6612 37.6466 19.3882 37.6256C19.1593 37.6571 19.2348 37.6122 19.1021 37.7867C19.0859 37.9511 19.0719 38.1157 19.06 38.2804C18.9468 37.6093 18.811 37.5351 18.4381 36.9923L18.0863 36.8383C17.966 36.7181 17.8969 36.7297 17.7168 36.6796C17.9618 36.1241 18.7453 36.0224 19.2796 35.9003C20.8843 35.4374 22.97 35.1685 24.6285 35.0261Z" fill="#C57C24"/>
<path d="M24.6287 35.0261C24.8303 34.9543 25.4958 34.9182 25.7327 34.9063C27.1194 34.9031 28.4496 35.0988 29.8346 35.0577C30.836 35.028 31.9995 35.1658 32.9845 35.0434C34.266 35.1697 37.22 35.5397 38.3426 36.0655C38.2546 36.2114 38.1963 36.3812 38.033 36.3931C37.2174 36.4525 36.3107 36.4686 35.5029 36.479C33.2348 36.494 30.9665 36.4973 28.6983 36.4889C27.9457 36.4904 25.7608 36.5882 25.1379 36.4801C24.8288 36.3953 24.1486 36.3912 23.8242 36.4175L23.8925 35.248C24.1241 35.2194 24.3276 35.1831 24.5569 35.1406L24.6287 35.0261Z" fill="#F1C05D"/>
<path d="M19.2797 35.8996C20.8844 35.4367 22.9701 35.1678 24.6286 35.0254L24.5568 35.1399C24.3275 35.1824 24.124 35.2187 23.8924 35.2473L23.8241 36.4168C24.1485 36.3905 24.8287 36.3946 25.1378 36.4794C24.6413 36.4979 23.86 36.5011 23.3884 36.5486C23.1238 36.566 22.8153 36.5472 22.5469 36.538C21.9496 36.4896 21.4595 36.513 20.8689 36.5483C20.4007 36.5762 19.3098 36.7643 19.0962 36.2906C19.1251 36.0852 19.1477 36.062 19.2797 35.8996Z" fill="#FADC90"/>
<path d="M22.5471 36.539C22.4612 36.3361 22.3431 36.1423 22.3901 35.9427C22.7329 35.6855 23.391 35.2941 23.7496 35.6963C23.8203 35.9918 23.6997 36.4271 23.3886 36.5496C23.124 36.567 22.8155 36.5482 22.5471 36.539Z" fill="#FDECB3"/>
<path d="M18.438 36.9912C18.6956 37.0154 19.874 37.1089 20.0376 37.1858L19.9542 37.5533C19.6991 37.6481 19.6611 37.6456 19.3881 37.6245C19.1592 37.656 19.2347 37.6112 19.102 37.7856C19.0858 37.95 19.0718 38.1146 19.0598 38.2794C18.9467 37.6082 18.8109 37.534 18.438 36.9912Z" fill="#FADC90"/>
<path d="M20.0379 37.1855L19.9545 37.5531C19.6993 37.6478 19.6613 37.6453 19.3884 37.6243C19.3862 37.4688 19.3841 37.52 19.4703 37.3684C19.6301 37.2301 19.8263 37.2211 20.0379 37.1855Z" fill="#FADC90"/>
<path d="M39.0876 36.3906L39.0693 37.3043C38.896 38.3804 39.071 39.9715 38.8783 41.1774C38.8388 43.4208 38.1786 45.6132 37.4961 47.7338C37.4434 47.8978 37.4015 48.0703 37.3315 48.228C37.0834 48.3824 36.8926 49.0249 36.7179 49.3109C36.6432 49.4332 36.355 49.859 36.3189 49.9468C35.0614 51.4785 34.0739 52.6637 32.1177 53.3941C31.662 53.5643 31.247 53.6252 30.7938 53.7519C30.8375 54.3803 30.7785 54.7149 31.1818 55.169L30.867 55.319C30.3502 55.3189 29.9349 55.3316 29.4197 55.3683C29.2795 55.3635 29.2871 55.365 29.1742 55.2805C29.1047 55.0527 29.2184 54.75 29.2835 54.5092C28.6526 54.383 26.635 54.3508 26.0553 54.5473L25.8995 54.451C26.0824 54.2935 26.1977 54.1242 26.176 53.8834C25.9939 53.6836 26.0056 53.7394 25.688 53.6698C25.8345 53.4973 25.8971 53.4685 26.0881 53.3519C26.3975 53.6615 27.4209 53.6502 27.8596 53.6576C30.7908 53.7071 32.4632 52.6146 34.4668 50.6163C36.7809 48.2332 37.5133 44.0288 37.9246 40.821C38.0289 40.0074 37.9853 38.0097 37.9971 37.1008C37.6811 36.9698 37.5939 37.2004 37.1625 37.083C37.46 36.9921 37.6968 37.0169 38.0998 36.8683C38.5369 36.7069 38.7201 36.4897 39.0876 36.3906Z" fill="#D18C31"/>
<path d="M18.0862 36.8379L18.438 36.9918C18.8109 37.5346 18.9467 37.6088 19.0598 38.28C19.1901 40.965 18.8988 43.008 20.2105 45.5372C20.4593 46.017 21.2589 47.4319 21.0852 47.8733C20.439 47.7752 20.0042 45.9605 19.7653 45.4975C19.0149 44.0428 18.7112 42.7171 18.3423 41.1226C18.2719 40.5878 18.0128 37.2824 18.0862 36.8379Z" fill="#FDECB3"/>
<path d="M20.038 37.1855C21.0392 37.2381 21.9711 37.288 22.9668 37.3951C23.1447 37.4476 23.2894 37.4653 23.4008 37.6038L23.2312 37.7324L23.3568 37.838L23.3959 37.8203C23.2958 37.8512 22.7598 37.8717 22.5691 37.915C20.6364 38.0576 21.1271 40.3212 20.9462 41.6968C20.9275 41.8392 20.961 42.2314 20.9084 42.3391C20.5876 41.375 20.5011 41.2478 20.3484 40.1363C20.2415 39.3583 20.3265 38.2498 19.9865 37.612L19.9546 37.5531L20.038 37.1855Z" fill="white"/>
<path d="M20.9872 49.9053C22.4748 51.3058 23.9964 52.8872 26.088 53.3513C25.897 53.4679 25.8344 53.4967 25.6879 53.6692C23.7834 53.2944 22.3377 52.0456 21.1098 50.6321C21.1128 50.2601 21.0901 50.2714 20.8945 50.0138L20.9872 49.9053Z" fill="#EBA730"/>
<path d="M22.9665 37.3965L24.0412 37.4106C24.3108 37.4307 24.8237 37.4354 25.0215 37.5747L25.0545 37.7095L25.0723 37.711C24.543 37.9065 23.1623 37.949 22.5688 37.9164C22.7595 37.8731 23.2955 37.8526 23.3956 37.8217L23.3565 37.8394L23.2309 37.7338L23.4005 37.6052C23.2891 37.4667 23.1444 37.449 22.9665 37.3965Z" fill="#FDECB3"/>
<path d="M19.625 47.8467C20.3109 48.2842 20.701 49.1781 20.987 49.9053L20.8944 50.0139C20.6263 49.6311 20.343 49.2617 20.0745 48.881C19.9101 48.6478 19.8962 48.4605 19.6836 48.234L19.625 47.8467Z" fill="#F1C05D"/>
<path d="M28.2773 39.6152C29.1568 39.8554 29.6689 41.8866 30.0162 42.7576C30.7421 42.775 32.7088 42.6261 32.8742 43.4687C32.7079 44.2096 31.455 45.0181 30.8593 45.6718C31.0352 46.4365 31.243 47.2364 31.3539 48.0141C31.3974 48.3186 31.3765 48.5289 31.0976 48.6778C30.5804 48.6754 29.1615 47.6912 28.4801 47.3802C27.7469 47.4063 26.1655 49.1955 25.5055 48.7028C25.2496 48.106 25.7385 46.5713 25.9457 45.949C26.0769 45.5553 25.8863 45.5508 25.6303 45.2796C25.2513 44.8782 24.0649 43.9924 24.0119 43.4253C24.0011 43.3067 24.0438 43.1894 24.1285 43.1056C24.5543 42.6817 26.1397 42.7166 26.7666 42.6844C27.1897 41.8496 27.7537 40.1764 28.2773 39.6152Z" fill="white"/>
<path d="M46.6475 7.92871C48.2374 9.1988 50.5328 10.1371 52.2536 11.2302C53.7019 12.1503 55.3796 12.9723 56.6463 14.0823C57.4531 14.8933 57.3098 18.5472 57.3064 19.635L57.2829 25.3822C57.253 32.6509 57.4556 40.1103 53.7656 46.6779C53.286 47.5314 52.8056 48.7402 52.2386 49.5172C50.8872 51.3693 49.8129 53.0854 48.014 54.5307C49.2845 54.3802 51.1052 54.0401 52.2597 53.9385L52.6856 53.9554C52.6109 54.0501 48.793 54.6097 48.4473 54.6137C48.4218 54.64 48.3963 54.6663 48.3708 54.6926C48.589 55.1559 50.7337 55.7003 51.2722 55.937C51.4904 56.0329 52.0905 56.2861 52.315 56.3342L52.2757 56.3912C51.2148 56.2844 49.2111 55.1156 48.0587 54.982C47.7124 54.9419 45.7512 56.8685 45.2716 57.1856C45.1248 57.2831 45.0548 57.7795 44.8827 57.7936C37.6502 58.3864 30.3694 58.9216 23.1146 58.387C22.1012 58.3126 21.0298 58.4513 20.033 58.1699C20.1321 58.0863 20.1446 58.1157 20.3111 58.1087C20.7438 58.164 20.9144 58.2922 21.0623 57.866C21.1225 58.19 21.2394 58.3566 21.6087 58.2478C21.7326 58.0863 21.7076 57.6863 21.7458 57.4135C21.8084 57.0068 22.2712 56.7011 22.5885 56.4925C22.8538 56.343 23.8994 55.9688 24.1646 56.1111C24.4018 56.0717 24.5259 55.9232 24.7044 55.7591L25.0735 55.4146C25.4098 55.093 25.7048 54.5018 25.8994 54.4495L26.0551 54.5459C26.6349 54.3493 28.6524 54.3815 29.2833 54.5077C29.2183 54.7486 29.1046 55.0512 29.1741 55.2791C29.2869 55.3636 29.2794 55.362 29.4195 55.3669C29.9348 55.3301 30.3501 55.3175 30.8669 55.3176L31.1817 55.1675C31.3387 55.3239 31.5481 55.5201 31.6782 55.6923C31.8695 55.7801 32.0157 56.0056 31.995 56.0042C32.3768 56.0308 32.8184 56.1413 33.1745 56.3275C34.2608 56.4636 35.3297 56.9848 34.8501 58.2822C35.0742 58.4715 35.3712 58.4122 35.6232 58.2784C35.8519 58.3818 37.1645 58.1925 37.4748 58.1428C37.9543 57.7444 38.5335 57.229 39.0467 56.8996C40.2054 56.156 41.3293 55.522 42.3634 54.5985C42.8842 54.1134 43.7312 53.6468 44.1903 53.136C44.9811 52.2561 45.8512 51.3628 46.6273 50.4789C47.2097 49.8156 47.9332 49.0537 48.306 48.2757C48.5243 47.9248 48.8417 47.5551 49.0846 47.1971C50.4894 45.1275 51.2964 42.8526 52.3242 40.6011C52.3995 40.2138 52.5566 39.6826 52.6623 39.298L52.8853 39.3394L53.1222 39.209C53.2921 39.016 53.3015 38.9445 53.3744 38.7002C53.2929 38.4864 53.2285 38.1107 53.1805 37.8756L52.9384 36.845C53.0194 36.8161 53.079 36.7727 53.1532 36.7275C53.2337 36.579 53.3992 30.5441 53.4595 29.7265C53.4227 29.3113 53.4708 28.5603 53.4574 28.1076C53.4472 26.5327 53.4384 24.9366 53.4116 23.3648C53.3812 21.5765 53.1807 21.2901 52.2507 19.8118L50.4011 16.8858C49.903 16.1006 49.1536 15.1157 49.0655 14.1864C48.9473 14.0393 48.6304 13.9464 48.4377 13.8725L48.4252 13.8242C49.0841 13.8185 49.1717 13.9151 49.6062 13.3741C49.4217 13.1584 49.0449 13.3641 48.5968 13.3233C48.7956 13.2799 48.8679 13.2591 49.0588 13.1893L49.0811 13.1146C48.7074 12.8802 47.7992 12.3615 47.588 12.0135C47.1037 11.2159 46.4308 9.51482 46.6046 8.6017L46.6475 7.92871Z" fill="#F1C05D"/>
<path d="M46.6475 7.92871C48.2374 9.1988 50.5328 10.1371 52.2536 11.2302C53.7019 12.1503 55.3796 12.9723 56.6463 14.0823C57.4531 14.8933 57.3098 18.5472 57.3064 19.635L57.2829 25.3822C57.253 32.6509 57.4556 40.1103 53.7656 46.6779C53.286 47.5314 52.8056 48.7402 52.2386 49.5172C50.8872 51.3693 49.8129 53.0854 48.014 54.5307C49.2845 54.3802 51.1052 54.0401 52.2597 53.9385L52.6856 53.9554C52.6109 54.0501 48.793 54.6097 48.4473 54.6137C48.4218 54.64 48.3963 54.6663 48.3708 54.6926C48.589 55.1559 50.7337 55.7003 51.2722 55.937C51.4904 56.0329 52.0905 56.2861 52.315 56.3342L52.2757 56.3912C51.2148 56.2844 49.2111 55.1156 48.0587 54.982C47.7124 54.9419 45.7512 56.8685 45.2716 57.1856C45.1248 57.2831 45.0548 57.7795 44.8827 57.7936C37.6502 58.3864 30.3694 58.9216 23.1146 58.387C22.1012 58.3126 21.0298 58.4513 20.033 58.1699C20.1321 58.0863 20.1446 58.1157 20.3111 58.1087C20.7438 58.164 20.9144 58.2922 21.0623 57.866C21.1225 58.19 21.2394 58.3566 21.6087 58.2478C21.7326 58.0863 21.7076 57.6863 21.7458 57.4135C21.8084 57.0068 22.2712 56.7011 22.5885 56.4925C22.8538 56.343 23.8994 55.9688 24.1646 56.1111C24.4018 56.0717 24.5259 55.9232 24.7044 55.7591L25.0735 55.4146C25.4098 55.093 25.7048 54.5018 25.8994 54.4495L26.0551 54.5459C26.6349 54.3493 28.6524 54.3815 29.2833 54.5077C29.2183 54.7486 29.1046 55.0512 29.1741 55.2791C29.2869 55.3636 29.2794 55.362 29.4195 55.3669C29.9348 55.3301 30.3501 55.3175 30.8669 55.3176L31.1817 55.1675C31.3387 55.3239 31.5481 55.5201 31.6782 55.6923C31.8695 55.7801 32.0157 56.0056 31.995 56.0042C32.3768 56.0308 32.8184 56.1413 33.1745 56.3275C34.2608 56.4636 35.3297 56.9848 34.8501 58.2822C35.0742 58.4715 35.3712 58.4122 35.6232 58.2784C35.8519 58.3818 37.1645 58.1925 37.4748 58.1428C37.8826 58.3103 38.5778 58.1992 38.9934 58.088C40.2968 57.952 41.8461 58.0424 43.154 57.7973C43.7665 57.6576 44.16 57.0708 44.6677 56.6785C48.4657 53.7446 51.7383 49.7132 53.6487 45.3012C54.0973 44.2654 54.5881 43.4081 54.9221 42.3929C56.9806 36.1357 56.4702 29.5725 56.5429 23.0981C56.5624 21.0084 56.7098 16.3495 56.2821 14.5309C54.7649 13.5666 53.0097 12.7226 51.5424 11.6827C50.674 11.0674 46.9627 9.41031 46.6046 8.6017L46.6475 7.92871Z" fill="#C57C24"/>
<path d="M25.0732 55.415C25.4096 55.0935 25.7046 54.5023 25.8991 54.45L26.0549 54.5464C26.6347 54.3498 28.6522 54.382 29.2831 54.5082C29.218 54.7491 29.1043 55.0517 29.1739 55.2796C29.2867 55.364 29.2792 55.3625 29.4193 55.3674C29.9345 55.3306 30.3498 55.318 30.8666 55.3181L31.1815 55.168C31.3385 55.3244 31.5479 55.5205 31.678 55.6928C31.8692 55.7806 32.0154 56.0061 31.9948 56.0047C32.3765 56.0313 32.8182 56.1418 33.1742 56.328C34.2606 56.464 35.3295 56.9853 34.8499 58.2827C33.8556 58.4468 32.5816 58.4087 31.5511 58.4422C29.8566 58.4975 27.9546 58.5592 26.2589 58.4017C25.96 58.0517 23.1244 58.5114 22.7234 57.9181C22.6357 57.6278 22.7957 57.2929 22.9257 57.0335C23.0486 56.7388 23.0667 56.7908 23.3482 56.5652C23.952 56.5921 24.178 56.6175 24.7765 56.5306C24.5756 56.5291 24.5129 56.5245 24.3122 56.4892C24.1623 56.329 24.2058 56.3614 24.1644 56.1116C24.4016 56.0722 24.5256 55.9237 24.7042 55.7596L25.0732 55.415Z" fill="#F4B853"/>
<path d="M25.0734 55.415C25.4098 55.0935 25.7048 54.5023 25.8993 54.45L26.0551 54.5464C26.6348 54.3498 28.6523 54.382 29.2833 54.5082C29.2182 54.7491 29.1045 55.0517 29.174 55.2796C29.2869 55.364 29.2793 55.3625 29.4195 55.3674C29.9347 55.3306 30.35 55.318 30.8668 55.3181L31.1816 55.168C31.3387 55.3244 31.5481 55.5205 31.6782 55.6928C31.8694 55.7806 32.0156 56.0061 31.995 56.0047C32.3767 56.0313 32.8183 56.1418 33.1744 56.328L32.9682 56.4186C32.7839 56.3436 32.582 56.2106 32.4047 56.2539C32.0144 56.3492 31.5942 56.4012 31.2057 56.4885C30.6261 56.6186 29.8448 56.5623 29.2905 56.7012L29.7932 56.7499C29.6136 56.7573 29.4215 56.7686 29.2431 56.7702C28.9101 57.0106 28.6151 57.3182 28.1922 57.2172L27.9506 57.1725C27.6451 56.7245 27.5352 56.8984 26.9075 56.7711C26.4548 56.7359 26.0144 56.6902 25.5607 56.7171L25.129 56.6387L24.7767 56.5306C24.5757 56.5291 24.5131 56.5245 24.3123 56.4892C24.1625 56.329 24.206 56.3614 24.1646 56.1116C24.4017 56.0722 24.5258 55.9237 24.7043 55.7596L25.0734 55.415Z" fill="#EBAD49"/>
<path d="M25.0736 55.415C25.41 55.0935 25.705 54.5023 25.8995 54.45L26.0553 54.5464C26.6351 54.3498 28.6526 54.382 29.2835 54.5082C29.2184 54.7491 29.1047 55.0517 29.1743 55.2796C29.2871 55.364 29.2796 55.3625 29.4197 55.3674C28.6252 55.5773 28.0202 55.3753 27.4534 55.484C27.3949 55.759 27.4447 55.7362 27.2715 55.8962C27.0756 55.9149 26.912 55.9208 26.7163 55.9262C26.303 55.9184 25.0186 55.9311 24.7046 55.7596L25.0736 55.415Z" fill="#F8B641"/>
<path d="M25.0736 55.4158C25.7883 55.2079 26.7193 55.3693 27.4534 55.4847C27.3949 55.7598 27.4447 55.737 27.2715 55.8969C27.0756 55.9156 26.912 55.9215 26.7163 55.9269C26.303 55.9192 25.0186 55.9319 24.7046 55.7604L25.0736 55.4158Z" fill="#FADC90"/>
<path d="M29.4197 55.3677C29.935 55.3309 30.3503 55.3182 30.8671 55.3184C30.9707 55.5788 31.0549 55.6551 31.0076 55.8839C29.1938 56.1143 28.5007 56.0949 26.7163 55.9264C26.9121 55.921 27.0756 55.9151 27.2715 55.8964C27.4447 55.7364 27.3949 55.7593 27.4534 55.4842C28.0203 55.3755 28.6253 55.5775 29.4197 55.3677Z" fill="#F1C05D"/>
<path d="M26.9075 56.771C27.7205 56.7761 28.4789 56.7396 29.2905 56.7012L29.7931 56.7498C29.6135 56.7572 29.4215 56.7685 29.243 56.7702C28.9101 57.0106 28.6151 57.3181 28.1922 57.2171L27.9506 57.1724C27.6451 56.7245 27.5352 56.8983 26.9075 56.771Z" fill="#F5CA70"/>
<path d="M31.1818 55.1689C31.3388 55.3253 31.5482 55.5215 31.6783 55.6937C31.4952 55.8565 31.4442 55.9134 31.1621 55.8973C31.1104 55.8941 31.0589 55.8899 31.0074 55.8845C31.0547 55.6558 30.9705 55.5795 30.8669 55.319L31.1818 55.1689Z" fill="#F8B641"/>
<path d="M22.9258 57.0332C23.0487 56.7385 23.0668 56.7905 23.3483 56.5649C23.9521 56.5917 24.1781 56.6172 24.7766 56.5303L25.1289 56.6383L25.5606 56.7168C26.0143 56.6899 26.4548 56.7355 26.9075 56.7707C27.5351 56.898 27.645 56.7242 27.9505 57.1721L28.1922 57.2168C27.6271 57.3616 27.8302 57.6313 27.4463 58.078C26.8227 58.2187 26.643 57.7291 26.0136 57.5911C25.9256 57.6582 25.7981 57.7367 25.6886 57.7305C24.619 57.6699 23.753 57.7467 22.9258 57.0332Z" fill="#F5CA70"/>
<path d="M25.5608 56.7171C26.0145 56.6902 26.4549 56.7359 26.9076 56.7711C27.5353 56.8983 27.6452 56.7245 27.9507 57.1725C27.5919 57.3074 25.9668 57.2066 25.6182 57.1098C25.6735 56.9591 25.6179 56.9026 25.5608 56.7171Z" fill="#FADC90"/>
<path d="M25.6182 57.1106C25.2318 57.1162 23.8365 57.1938 23.6626 56.8689C24.0115 56.5299 24.6715 56.6248 25.1292 56.6395L25.5608 56.718C25.618 56.9035 25.6736 56.9599 25.6182 57.1106Z" fill="#FDECB3"/>
<path d="M22.5886 56.4922C22.8539 56.3427 23.8995 55.9685 24.1647 56.1108C24.2061 56.3606 24.1626 56.3282 24.3125 56.4884C24.5132 56.5237 24.5759 56.5283 24.7769 56.5298C24.1784 56.6167 23.9524 56.5913 23.3485 56.5644C23.067 56.79 23.0489 56.738 22.926 57.0327C22.796 57.2921 22.636 57.627 22.7237 57.9173C23.1248 58.5106 25.9604 58.0509 26.2592 58.4009C25.583 58.4655 23.6966 58.3069 22.9066 58.2777L21.7843 58.2449L21.7458 57.4132C21.8085 57.0065 22.2713 56.7008 22.5886 56.4922Z" fill="#F1C05D"/>
<path d="M21.7456 57.4151C21.8082 57.0084 22.2711 56.7028 22.5884 56.4941C22.5087 56.7813 22.5555 57.7682 22.5812 58.0988C22.7012 58.26 22.6745 58.2135 22.9063 58.2797L21.784 58.2468L21.7456 57.4151Z" fill="#EBAD49"/>
<path d="M49.6063 13.374C50.8039 14.2176 52.8115 15.2178 53.8229 16.139C53.8312 17.716 53.6968 19.7156 53.8152 21.2396L53.8647 21.2688C53.8408 23.7305 53.8878 26.1906 53.8076 28.6525C53.7965 28.9948 53.8054 29.3417 53.828 29.6836L53.7726 29.8209L53.4596 29.7264C53.4228 29.3112 53.4709 28.5602 53.4575 28.1076C53.4473 26.5327 53.4384 24.9365 53.4117 23.3648C53.3813 21.5764 53.1807 21.2901 52.2507 19.8118L50.4011 16.8857C49.9031 16.1006 49.1536 15.1157 49.0655 14.1864C48.9474 14.0393 48.6304 13.9464 48.4378 13.8725L48.4253 13.8241C49.0842 13.8185 49.1718 13.9151 49.6063 13.374Z" fill="#EBAD49"/>
<path d="M49.6063 13.374C50.8039 14.2176 52.8115 15.2178 53.8229 16.139C53.8312 17.716 53.6968 19.7156 53.8152 21.2396C53.7931 21.4614 53.8264 21.4411 53.7126 21.6068L53.6028 21.5989C53.3058 20.9934 53.3906 17.4869 53.3935 16.6366C52.3901 16.1296 49.9561 14.4278 49.0655 14.1864C48.9474 14.0393 48.6304 13.9464 48.4378 13.8725L48.4253 13.8241C49.0842 13.8185 49.1718 13.9151 49.6063 13.374Z" fill="#D18C31"/>
<path d="M52.324 40.601L52.3986 40.6089L52.5343 40.2347L52.5882 40.2178C52.588 40.4723 52.5186 40.4898 52.5718 40.758C52.2114 43.0457 49.3718 47.5968 48.0381 49.5093C47.0102 50.7877 46.1132 51.9934 44.8756 53.08C44.0869 53.7726 43.3726 54.5567 42.5484 55.2237C42.0248 55.6539 41.4867 56.0662 40.9351 56.46C40.2351 56.9531 39.5211 57.3473 38.9511 57.9889L38.9932 58.0879C38.5776 58.1991 37.8824 58.3102 37.4746 58.1428C37.9541 57.7443 38.5333 57.2289 39.0465 56.8996C40.2052 56.156 41.3291 55.5219 42.3632 54.5984C42.8841 54.1133 43.731 53.6467 44.1901 53.1359C44.9809 52.256 45.8511 51.3628 46.6271 50.4789C47.2095 49.8155 47.933 49.0536 48.3058 48.2756C48.5241 47.9248 48.8415 47.555 49.0844 47.197C50.4892 45.1274 51.2962 42.8526 52.324 40.601Z" fill="#D29138"/>
<path d="M53.828 29.6843C53.909 29.9681 53.848 29.9187 54.0509 30.0573C54.3808 30.005 54.422 29.8619 54.5176 29.5635C54.7941 31.8234 54.485 34.5242 54.4866 36.8098C54.487 37.2848 53.978 38.6868 53.3744 38.7009C53.293 38.4871 53.2286 38.1114 53.1805 37.8763L52.9385 36.8456C53.0195 36.8167 53.079 36.7734 53.1532 36.7281C53.2337 36.5797 53.3992 30.5448 53.4596 29.7271L53.7726 29.8217L53.828 29.6843Z" fill="#F5CA70"/>
<path d="M53.4596 29.7266L53.7726 29.8211C54.0084 31.2725 53.5939 36.3078 53.1805 37.8758L52.9385 36.8451C53.0195 36.8162 53.079 36.7728 53.1532 36.7276C53.2337 36.5791 53.3992 30.5442 53.4596 29.7266Z" fill="#C57C24"/>
<path d="M53.8646 21.27C53.9913 21.4095 54.0908 21.4621 54.2523 21.5486L54.3632 21.5132C54.3696 21.3262 54.3723 21.1601 54.3693 20.9727C54.4594 21.2725 54.5065 21.8457 54.5603 22.1648C54.8623 23.9512 54.7724 25.6876 54.6397 27.4815C54.5889 28.1685 54.6286 28.8612 54.5175 29.564C54.422 29.8624 54.3807 30.0056 54.0508 30.0579C53.848 29.9193 53.909 29.9687 53.8279 29.6848C53.8053 29.343 53.7964 28.9961 53.8075 28.6538C53.8877 26.1919 53.8407 23.7318 53.8646 21.27Z" fill="#FADC90"/>
<path d="M53.122 39.21C53.8614 40.5505 50.0794 47.4491 48.975 48.8098C48.7488 49.0886 48.3606 49.4212 48.1018 49.7061C48.0236 49.5842 48.0414 49.6482 48.0381 49.5103C49.3718 47.5978 52.2114 43.0467 52.5718 40.759C52.5186 40.4908 52.588 40.4733 52.5882 40.2188L52.5343 40.2357L52.3987 40.6099L52.324 40.602C52.3993 40.2147 52.5565 39.6836 52.6621 39.299L52.8852 39.3403L53.122 39.21Z" fill="#FADC90"/>
<path d="M52.6623 39.2988L52.8854 39.3402C52.8498 39.6384 52.6721 40.4793 52.572 40.7588C52.5188 40.4907 52.5882 40.4731 52.5884 40.2186L52.5345 40.2356L52.3989 40.6098L52.3242 40.6019C52.3995 40.2146 52.5567 39.6834 52.6623 39.2988Z" fill="#C57C24"/>
<path d="M46.366 7.85352L46.6474 7.92993L46.6045 8.60291C46.4307 9.51603 47.1037 11.2171 47.5879 12.0147C47.7992 12.3627 48.7074 12.8814 49.081 13.1158L49.0588 13.1905C48.8678 13.2603 48.7955 13.2811 48.5967 13.3245C49.0448 13.3653 49.4216 13.1596 49.6062 13.3753C49.1717 13.9163 49.084 13.8198 48.4252 13.8254L48.4376 13.8737C48.6303 13.9476 48.9472 14.0405 49.0654 14.1876C49.1535 15.117 49.903 16.1018 50.401 16.887L52.2506 19.813C53.1806 21.2914 53.3811 21.5777 53.4115 23.3661C53.4383 24.9378 53.4472 26.5339 53.4573 28.1088C53.4707 28.5615 53.4226 29.3125 53.4594 29.7277C53.3991 30.5453 53.2336 36.5802 53.1531 36.7287C53.0789 36.7739 53.0194 36.8173 52.9384 36.8462C52.7515 36.2917 52.1976 34.8267 51.7837 34.2774C50.8676 33.061 48.8367 31.1845 47.3124 30.6915C47.1849 30.6596 46.8045 30.6545 46.7069 30.7528C45.8874 31.5772 45.4863 32.2359 44.5028 32.9178C44.6429 32.4756 44.7546 32.025 44.8375 31.5686C45.4255 28.4802 45.0148 24.5935 43.7379 21.6859C43.274 20.6293 42.6761 19.7802 42.0324 18.8311C42.1526 15.6539 41.5089 12.3722 40.5466 9.35953C40.6766 9.29684 40.7786 9.22838 40.9339 9.30052C41.9307 9.76371 43.7774 10.9229 44.7499 11.2147C44.888 11.1397 45.0453 11.0186 45.1757 10.9252L45.3193 11.0846C45.3164 10.9265 46.022 9.62992 46.1084 9.33616C46.2043 9.00945 46.2351 8.80464 46.2826 8.46171C46.2867 8.24128 46.3254 8.06903 46.366 7.85352Z" fill="#F5CA70"/>
<path d="M46.366 7.85352L46.6474 7.92993L46.6045 8.60291C46.4306 9.51603 47.1036 11.2171 47.5879 12.0147C47.7991 12.3627 48.7073 12.8814 49.081 13.1158L49.0587 13.1905C48.8678 13.2603 48.7955 13.2811 48.5966 13.3245C47.8377 13.362 47.1268 14.0866 46.8112 14.7332C46.6068 15.1522 46.5456 15.8914 46.2576 16.2508L46.1424 16.2625C45.8334 15.9241 45.4863 14.2226 44.7992 13.7023C44.2087 13.2552 43.5259 13.3633 43.1332 13.039L43.1551 13.0864L43.1218 13.1549C42.9895 12.9761 43.031 12.98 42.8484 12.8975L42.6884 13.0507L42.5952 13.04C43.1112 11.6863 44.0535 11.9561 44.7498 11.2147C44.888 11.1397 45.0453 11.0186 45.1756 10.9252L45.3192 11.0846C45.3163 10.9265 46.022 9.62992 46.1083 9.33616C46.2043 9.00945 46.235 8.80464 46.2825 8.46171C46.2867 8.24128 46.3253 8.06903 46.366 7.85352Z" fill="#FADC90"/>
<path d="M45.1756 10.9238L45.3192 11.0832C44.7637 12.1992 43.861 12.2653 43.1594 13.0103L43.1332 13.0376L43.1551 13.085L43.1218 13.1535C42.9895 12.9747 43.031 12.9786 42.8484 12.8961L42.6884 13.0493L42.5952 13.0386C43.1112 11.6849 44.0535 11.9547 44.7498 11.2133C44.888 11.1384 45.0453 11.0172 45.1756 10.9238Z" fill="#F8B641"/>
<path d="M42.595 13.04L42.6881 13.0506L42.8482 12.8975C43.0308 12.9799 42.9893 12.976 43.1216 13.1549L43.1549 13.0864L43.1329 13.0389C43.5257 13.3632 44.2084 13.2552 44.7989 13.7022C45.486 14.2226 45.8331 15.9241 46.1421 16.2624L46.2573 16.2508C46.5453 15.8914 46.6065 15.1522 46.811 14.7331C47.1265 14.0865 47.8374 13.3619 48.5964 13.3244C49.0445 13.3652 49.4213 13.1596 49.6059 13.3752C49.1714 13.9163 49.0837 13.8197 48.4249 13.8253L48.4373 13.8737C48.63 13.9476 48.9469 14.0405 49.0651 14.1876C48.8225 14.2066 48.3247 13.9796 48.0731 13.8825C46.9325 14.7004 47.0745 15.6169 46.5947 16.7686C46.5449 16.8882 46.2323 17.2519 46.1334 17.3665C45.9975 17.1737 45.6858 16.74 45.6029 16.5371C45.3471 15.9114 45.1789 15.0427 44.7945 14.4842L44.7689 14.4475C44.4863 14.0372 42.9217 13.7288 42.5654 13.1506L42.595 13.04Z" fill="#EBAD49"/>
<path d="M50.0128 20.7539C50.2498 21.513 50.6476 22.5197 50.8367 23.2288C51.9272 23.1293 52.4624 24.0371 53.0694 24.6555C52.791 25.2599 51.7361 25.2775 51.2181 25.8049C50.578 26.4567 50.6027 27.3355 50.1114 28.0445C49.8929 28.2487 49.9484 28.2579 49.6947 28.3067C49.5181 28.2189 49.4616 28.0267 49.3799 27.8432C49.1295 27.0661 49.2103 26.4467 48.736 25.6492C48.254 24.8386 47.1472 25.2011 46.7764 24.5731C46.7864 24.0903 46.9815 23.4102 47.1502 22.9547C47.4032 22.7213 48.7961 22.7939 49.0537 22.9781C49.3431 22.6626 49.7833 21.2395 50.0128 20.7539Z" fill="#FADC90"/>
<path d="M49.3801 27.843C49.1298 27.0659 49.2105 26.4466 48.7362 25.6491C48.2542 24.8385 47.1474 25.201 46.7766 24.573C46.7867 24.0901 46.9818 23.4101 47.1505 22.9546C47.4035 22.7211 48.7963 22.7938 49.054 22.9779C48.8014 23.2577 48.6808 23.368 48.3451 23.5459C48.1856 23.5515 47.9027 23.7248 47.8035 23.8375C47.53 24.0875 47.325 24.248 47.0327 24.4689C50.2421 24.3307 49.2998 27.5731 49.8504 27.613C50.2854 27.0978 50.2987 25.685 51.0824 25.1686C51.5684 24.8484 52.1553 24.846 52.5463 24.5927C52.7802 24.4868 52.8351 24.5167 53.0696 24.6553C52.7912 25.2598 51.7363 25.2774 51.2184 25.8048C50.5783 26.4566 50.6029 27.3353 50.1116 28.0443C49.8932 28.2485 49.9486 28.2578 49.6949 28.3066C49.5183 28.2188 49.4618 28.0266 49.3801 27.843Z" fill="#EBAD49"/>
<path d="M47.8034 23.8377C47.6987 23.6735 47.6431 23.604 47.52 23.4588C47.4765 23.2048 47.4534 23.2784 47.5419 23.094C47.8596 23.0849 48.1194 23.3459 48.345 23.546C48.1856 23.5517 47.9027 23.7249 47.8034 23.8377Z" fill="#F1C05D"/>
<path d="M50.8369 23.2292C51.9275 23.1296 52.4627 24.0375 53.0696 24.6559C52.8351 24.5172 52.7802 24.4873 52.5463 24.5933C51.9881 23.9245 51.2023 24.0474 50.8369 23.2292Z" fill="#F8B641"/>
<path d="M49.9273 20.0322C50.2758 20.1114 50.3649 20.3714 50.3197 20.701C50.1834 20.9098 50.2623 20.8507 50.0239 20.9227C49.7509 20.7951 49.7449 20.8463 49.623 20.6291C49.6427 20.4046 49.7975 20.2235 49.9273 20.0322Z" fill="#F8B641"/>
<path d="M7.28271 44.9033C8.16176 44.9955 8.4783 44.1087 9.11335 44.1909C9.43658 44.2328 10.8135 45.4679 11.3512 45.3786C11.4804 45.174 11.4185 45.1233 11.4701 44.9967C11.5557 46.0724 11.6083 46.1654 12.0919 47.1795C12.1965 47.3563 12.3845 47.5905 12.4552 47.7222C12.1377 47.9396 12.2546 48.1138 12.3237 48.4876C12.2958 48.7956 12.2427 48.8398 12.3534 49.0847L12.4756 49.1317C12.3097 49.3027 12.3578 49.254 12.2963 49.5083C13.1653 49.7973 13.5292 49.5768 14.1511 49.7696C15.0284 49.8799 15.4305 49.7027 16.2658 49.6511C16.3301 49.6472 16.7016 49.9417 16.785 50.0072C18.109 50.7577 19.1419 51.0944 20.6508 51.0145C22.0292 52.4612 23.104 53.7057 25.2777 54.1264C24.8541 54.6922 24.6422 55.0585 24.0908 55.5144C22.4017 55.6979 21.3957 56.0039 21.0622 57.8659C20.9143 58.2921 20.7436 58.1639 20.3109 58.1086C19.6765 58.0277 18.6421 57.0562 17.9876 56.6974C15.1491 55.1418 12.9183 52.5495 10.6751 50.2646C10.339 49.9223 10.0521 49.1913 9.71754 48.8038C8.63145 47.5748 7.71098 46.5483 7.28271 44.9033Z" fill="#EBAD49"/>
<path d="M12.092 47.1807C12.1966 47.3574 12.3846 47.5917 12.4553 47.7233C12.1378 47.9408 12.2547 48.1149 12.3238 48.4887C12.2959 48.7967 12.2428 48.8409 12.3535 49.0858L12.4757 49.1329C12.3098 49.3038 12.3579 49.2552 12.2964 49.5094C13.1654 49.7984 13.5293 49.5779 14.1512 49.7707C15.0285 49.881 15.4306 49.7038 16.2659 49.6522C16.3302 49.6483 16.7017 49.9428 16.7851 50.0084C15.783 50.4434 14.3729 51.9102 13.3097 51.6143C12.5119 51.3923 10.9925 49.8825 10.7985 49.0518C10.7055 48.6531 10.4326 48.0742 10.5413 47.66C11.0448 46.9952 11.5769 47.4054 12.092 47.1807Z" fill="#D18C31"/>
<path d="M12.092 47.1807C12.1966 47.3574 12.3846 47.5917 12.4553 47.7233C12.1378 47.9408 12.2547 48.1149 12.3238 48.4887C12.2959 48.7967 12.2428 48.8409 12.3535 49.0858L12.4757 49.1329C12.3098 49.3038 12.3579 49.2552 12.2964 49.5094L11.5597 49.3006C11.1013 48.9234 10.6523 48.2595 10.5413 47.66C11.0448 46.9952 11.5769 47.4054 12.092 47.1807Z" fill="#281A0B"/>
<path d="M45.044 46.8584C45.4477 46.9212 45.6197 46.9201 45.9551 47.1531C46.2796 47.0954 47.8626 47.9522 48.1433 48.1481C48.1995 48.1878 48.2538 48.2302 48.306 48.2751C47.9332 49.0531 47.2097 49.815 46.6273 50.4784C45.8513 51.3623 44.9811 52.2555 44.1903 53.1354C43.7312 53.6462 42.8843 54.1128 42.3634 54.5979C41.3293 55.5214 40.2054 56.1554 39.0467 56.8991C38.5335 57.2284 37.9543 57.7438 37.4748 58.1422C37.1645 58.1919 35.8519 58.3812 35.6232 58.2779C35.3621 54.8154 33.4052 56.5128 31.8037 54.8638L31.9354 54.0996C33.5474 53.5219 35.3926 52.4652 36.2549 50.9238C38.3961 51.2347 39.3207 50.2925 41.1569 49.5553C41.2735 49.5085 42.1293 49.7623 42.6032 49.7359C43.1262 49.5357 45.0149 47.349 45.044 46.8584Z" fill="#EAB453"/>
<path d="M45.0438 46.8584C45.4475 46.9212 45.6195 46.9201 45.9549 47.1531C45.9778 47.3322 46.021 47.6234 45.9407 47.7881C45.4438 48.8066 44.2778 49.542 43.176 49.6831C42.9856 49.7061 42.7945 49.7237 42.603 49.7359C43.126 49.5357 45.0147 47.349 45.0438 46.8584Z" fill="#281A0B"/>
<path d="M37.0016 52.2637C37.481 52.4105 38.1116 53.4468 38.0769 53.9411C38.0563 54.2354 37.867 54.3666 37.6731 54.5566C37.5966 54.7088 37.5307 54.7543 37.3761 54.7806C37.201 54.698 36.949 54.3253 36.7612 54.1298C36.7767 53.5589 36.7467 52.7502 37.0016 52.2637Z" fill="#F5CA70"/>
<path d="M45.0438 46.8591C45.2705 46.2876 45.4276 44.9833 45.2812 44.3648C45.106 43.6241 44.1387 42.2786 44.7189 41.5338C45.0149 41.4968 45.6798 42.7092 46.2658 42.0763C48.0439 40.156 49.7344 38.296 52.6621 39.2981C52.5565 39.6827 52.3993 40.2139 52.324 40.6012C51.2962 42.8527 50.4892 45.1276 49.0845 47.1972C48.8415 47.5552 48.5241 47.9249 48.3058 48.2757C48.2536 48.2308 48.1993 48.1885 48.1431 48.1488C47.8624 47.9528 46.2794 47.096 45.9549 47.1537C45.6195 46.9208 45.4476 46.9218 45.0438 46.8591Z" fill="#F1C05D"/>
<path d="M6.00281 39.4316C7.59955 39.4874 9.12677 40.904 10.1464 42.0135C10.2637 42.1413 10.6938 42.6248 10.7939 42.5771C11.3755 42.3003 11.7329 41.8999 12.3734 41.5906C12.3727 41.9223 12.3751 42.3128 12.4362 42.6368C12.7108 44.093 11.6176 43.5368 11.47 44.9969C11.4184 45.1234 11.4803 45.1742 11.351 45.3787C10.8133 45.468 9.43642 44.2329 9.11318 44.1911C8.47814 44.1089 8.1616 44.9956 7.28255 44.9034C6.26513 43.2511 5.54796 41.3324 5.08398 39.4556C5.39343 39.4589 5.69409 39.4445 6.00281 39.4316Z" fill="#F1C05D"/>
<path d="M4.32641 38.4563C5.28555 36.564 6.70682 35.7182 8.39946 34.5464C8.67451 34.3561 9.13186 34.125 9.46901 34.1829C9.69246 34.4409 9.74478 36.2948 9.82769 36.7673C10.1007 38.3232 10.3569 39.886 10.5546 41.4536C9.00832 39.9001 6.80633 38.3109 4.47385 38.87C4.31171 38.682 4.31755 38.6574 4.32641 38.4563Z" fill="#906EB7"/>
<path d="M33.973 6.09082C34.4228 6.27134 36.9603 7.52338 37.1967 7.84399C35.6542 8.62398 33.3496 10.6382 32.5466 12.1551C31.6963 11.7567 30.7402 11.5816 29.814 11.4418L30.011 11.3758C30.4801 10.2253 33.8947 6.68549 33.973 6.09082Z" fill="#F5CA70"/>
<path d="M15.5791 47.9925C15.5191 48.0859 15.4782 48.4225 15.4511 48.5673L15.3275 48.6127C14.4806 48.4948 13.8625 48.3843 13.2543 47.6974C12.6307 46.9932 12.2393 45.955 12.2909 45.0155C12.2904 44.2099 12.7076 44.0185 13.2696 43.573C13.4216 43.4525 13.7581 42.8562 14.0186 42.942C14.7186 43.1726 15.4849 43.8919 15.9307 44.4682C16.4181 45.0983 16.2913 45.5865 16.1281 46.283C16.0698 46.5587 16.1875 46.8521 16.3491 47.0725L16.385 47.1207C16.1175 47.59 16.6018 47.6275 15.9404 47.838C15.7722 47.8915 15.7123 47.8594 15.5791 47.9925Z" fill="#7F5CB1"/>
<path d="M40.8346 46.9755C40.838 46.8997 40.737 46.6458 40.7248 46.5355C40.6474 45.8371 40.478 45.0515 40.9152 44.4358C41.2354 43.9847 41.6741 43.8068 42.071 43.4727C42.2965 42.8113 42.8713 43.0263 43.51 43.0553C44.937 44.3934 44.8961 44.3534 44.4323 46.2487C43.8336 46.9923 43.4878 47.3321 42.4679 47.0631L42.4508 47.0149C42.2307 46.9811 42.2909 46.9978 42.0537 47.1704L41.9876 47.1697C41.6103 47.1636 41.2903 47.0192 41.0431 47.1176C40.9466 47.2567 40.9574 47.2994 40.9435 47.4758C40.9537 47.2327 40.9635 47.186 40.8346 46.9755Z" fill="#825DAE"/>
<path d="M16.385 47.1221C16.9291 47.4932 17.4817 47.6589 18.0486 48.0441C18.8087 48.1355 19.0323 48.5116 19.6837 48.2336C19.8963 48.46 19.9102 48.6473 20.0746 48.8806C20.3431 49.2612 20.6265 49.6306 20.8945 50.0134C21.09 50.271 21.1127 50.2597 21.1098 50.6316C20.8514 50.4534 20.6849 50.4271 20.3811 50.3759C20.3383 50.2701 20.2772 50.1669 20.2224 50.0658L20.1593 50.0713C19.2195 50.1457 17.1399 49.1664 16.3911 48.5363L16.034 48.5107L15.5791 47.9938C15.7124 47.8607 15.7722 47.8929 15.9404 47.8394C16.6018 47.6288 16.1175 47.5914 16.385 47.1221Z" fill="#F5CA70"/>
<path d="M18.0483 48.0449C18.8085 48.1363 19.032 48.5124 19.6835 48.2344C19.896 48.4608 19.91 48.6481 20.0744 48.8814C20.3429 49.262 20.6262 49.6314 20.8942 50.0142C21.0898 50.2718 21.1125 50.2605 21.1095 50.6324C20.8512 50.4542 20.6846 50.4279 20.3809 50.3767C20.338 50.2709 20.277 50.1677 20.2222 50.0666C20.038 49.829 19.5322 49.1401 19.4371 48.8875C19.4382 48.8506 19.4386 48.8137 19.4382 48.7767C19.4376 48.7093 19.417 48.5285 19.3693 48.517C18.6388 48.3402 18.6146 48.607 18.0483 48.0449Z" fill="#C57C24"/>
<path d="M16.385 47.1221C16.9291 47.4932 17.4817 47.6589 18.0486 48.0441C18.6148 48.6062 18.6391 48.3394 19.3696 48.5162C19.4173 48.5277 19.4379 48.7085 19.4385 48.7759C19.4388 48.8129 19.4384 48.8498 19.4374 48.8867C18.9282 48.5595 17.0567 47.7845 16.5091 48.1001C16.3894 48.2626 16.4 48.3399 16.3911 48.5363L16.034 48.5107L15.5791 47.9938C15.7124 47.8607 15.7722 47.8929 15.9404 47.8394C16.6018 47.6288 16.1175 47.5914 16.385 47.1221Z" fill="#EBAD49"/>
<path d="M41.8952 40.9567C41.5948 40.8264 41.3938 40.7415 41.0633 40.6911C40.8642 40.6607 39.5763 40.982 39.6532 40.5912C39.7125 40.2894 39.7356 39.5542 39.9055 39.3666C40.1506 39.2514 40.6021 39.2645 40.8889 39.2539C42.0209 39.3518 43.1099 40.4313 43.56 41.4401C43.6826 41.715 43.74 41.9929 43.5176 42.2377C43.1887 42.3236 42.9662 42.2529 42.7429 42.416C42.5678 42.5429 42.6458 42.5174 42.4463 42.5336C42.3175 42.3735 42.3462 42.1876 42.3427 41.9691C42.1967 41.4842 42.1542 41.3755 41.8952 40.9567Z" fill="#FADC90"/>
<path d="M40.8349 46.9746C40.9638 47.1851 40.954 47.2319 40.9438 47.4749L41.0537 47.722C40.9985 47.9891 41.0148 48.1961 40.7797 48.3375C40.6072 48.4412 40.1961 48.5458 39.9974 48.5507C39.4429 48.996 37.5094 50.293 36.8095 49.8069C36.6206 49.9408 36.4921 50.0277 36.4218 50.2671C36.4423 50.1295 36.3909 50.0755 36.3188 49.9458C36.355 49.8581 36.6431 49.4322 36.7178 49.3099C36.8926 49.024 37.0834 48.3815 37.3315 48.227C37.6106 48.4206 38.9842 47.8915 39.4124 47.8005C39.4548 47.7541 39.5503 47.7119 39.6111 47.6794C39.7918 47.509 40.528 47.1606 40.8349 46.9746Z" fill="#FADC90"/>
<path d="M37.3315 48.2283C37.6106 48.4218 38.9842 47.8927 39.4124 47.8018C38.5741 48.72 37.4196 48.9133 36.8095 49.8081C36.6206 49.942 36.4921 50.0289 36.4218 50.2684C36.4423 50.1307 36.3909 50.0767 36.3188 49.947C36.355 49.8593 36.6431 49.4334 36.7178 49.3111C36.8926 49.0252 37.0834 48.3827 37.3315 48.2283Z" fill="#C57C24"/>
<path d="M40.8346 46.9746C40.9636 47.1851 40.9538 47.2319 40.9436 47.4749L41.0534 47.722C40.9983 47.9891 41.0146 48.1961 40.7795 48.3375C40.607 48.4412 40.1959 48.5458 39.9972 48.5507C40.2601 48.2803 40.6612 47.9926 40.2985 47.6116C40.0675 47.5064 39.8606 47.6047 39.6108 47.6794C39.7916 47.509 40.5278 47.1606 40.8346 46.9746Z" fill="#EBAD49"/>
<path d="M40.9434 47.4744C40.9573 47.298 40.9465 47.2554 41.043 47.1163C41.2902 47.0179 41.6102 47.1623 41.9875 47.1683L42.0536 47.169L42.1636 47.231C42.2008 47.5578 42.0026 48.2106 41.8627 48.5087L41.6474 48.3634C41.5869 48.1783 41.5762 48.1067 41.4269 47.9729L41.3867 48.0092C41.0188 48.348 40.7868 48.8796 40.3826 49.1336C39.3927 49.7556 37.6384 50.7022 36.4214 50.2667C36.4916 50.0272 36.6201 49.9404 36.8091 49.8064C37.509 50.2925 39.4424 48.9955 39.9969 48.5502C40.1956 48.5453 40.6068 48.4408 40.7793 48.337C41.0143 48.1956 40.9981 47.9886 41.0532 47.7216L40.9434 47.4744Z" fill="#D18C31"/>
<path d="M40.9438 47.4744C40.9578 47.298 40.9469 47.2554 41.0434 47.1163C41.2906 47.0179 41.6107 47.1623 41.9879 47.1683L42.054 47.169L42.1641 47.231C42.2013 47.5578 42.0031 48.2106 41.8632 48.5087L41.6478 48.3634C41.5874 48.1783 41.5767 48.1067 41.4273 47.9729C41.6644 47.87 41.7649 47.7047 41.7345 47.4564C41.5748 47.3116 41.6544 47.3448 41.4341 47.3354C41.1495 47.4916 41.2409 47.4236 41.0537 47.7216L40.9438 47.4744Z" fill="#1A0507"/>
<path d="M16.9513 39.3838L17.5583 39.4709C17.5221 39.7726 17.4797 40.7092 17.4151 40.88L17.2405 40.9857L17.5914 41.2419L17.5661 41.3092L17.2451 41.3233L17.262 41.1589C17.0261 41.1523 16.9435 41.3295 16.5593 41.3561C16.1442 41.3223 15.5869 41.2308 15.246 41.5309C14.8851 41.8485 14.9273 42.6043 14.3031 42.6262C14.0434 42.6254 13.9593 42.5158 13.623 42.5871C13.7734 42.2693 13.9668 41.9447 14.1284 41.618C14.7563 40.6715 15.6285 40.7399 16.6506 40.7745C16.8088 40.8322 16.8257 40.8255 16.9978 40.8192C17.2175 40.5458 17.1454 39.6325 16.9513 39.3838Z" fill="#D18C31"/>
<path d="M13.917 40.5385L13.9666 40.5066C14.5555 40.1346 16.7488 39.1204 16.9531 40.2933C16.8903 40.5023 16.8371 40.6568 16.6508 40.7733C15.6287 40.7387 14.7565 40.6703 14.1286 41.6167C13.9127 41.6983 13.8432 41.8626 13.6676 42.0204C13.4025 41.6616 13.7728 40.9132 13.917 40.5385Z" fill="#FADC90"/>
<path d="M13.6232 42.5871C13.4931 42.658 13.2814 42.8073 13.1502 42.8945L13.0718 42.8321C12.799 41.8789 13.1862 40.8207 13.842 40.1239C14.5983 39.3201 15.9446 39.3878 16.9515 39.3838C17.1456 39.6325 17.2177 40.5458 16.998 40.8193C16.8259 40.8256 16.809 40.8323 16.6508 40.7746C16.8371 40.6581 16.8903 40.5036 16.9531 40.2946C16.7488 39.1217 14.5555 40.1359 13.9666 40.5079L13.917 40.5398C13.7728 40.9145 13.4025 41.6629 13.6676 42.0217C13.8432 41.8639 13.9127 41.6996 14.1286 41.618C13.967 41.9447 13.7736 42.2694 13.6232 42.5871Z" fill="#F5CA70"/>
<path d="M17.7168 36.6807C17.8969 36.7308 17.966 36.7191 18.0863 36.8394C18.0129 37.2839 18.272 40.5893 18.3424 41.1241C18.3238 41.3432 18.2846 42.5387 18.2539 42.6399C18.1562 42.4868 18.1844 41.7411 18.013 41.3007C17.4713 41.5769 17.1638 41.4566 16.5593 41.3559C16.9435 41.3292 17.0261 41.152 17.262 41.1586L17.2451 41.323L17.5661 41.3089L17.5914 41.2416L17.2405 40.9854L17.4151 40.8797C17.4797 40.7089 17.5221 39.7723 17.5583 39.4706L17.6741 39.3724C17.7305 39.0594 17.6855 38.1745 17.6969 37.7615C17.6796 37.5365 17.7099 36.9297 17.7168 36.6807Z" fill="#F8B641"/>
<path d="M17.6966 37.7598C17.8845 38.5447 17.649 40.6268 18.0128 41.299C17.471 41.5752 17.1636 41.4548 16.5591 41.3541C16.9432 41.3275 17.0258 41.1503 17.2617 41.1569L17.2449 41.3212L17.5659 41.3072L17.5911 41.2399L17.2403 40.9836L17.4149 40.878C17.4795 40.7072 17.5219 39.7706 17.5581 39.4689L17.6739 39.3706C17.7302 39.0576 17.6853 38.1728 17.6966 37.7598Z" fill="#C57C24"/>
<path d="M38.8782 41.1769C39.0709 39.971 38.8959 38.3799 39.0692 37.3037L39.0808 39.178C39.5359 39.1829 41.6236 39.1305 41.8555 39.2398C41.641 39.2629 41.1258 39.2517 40.8891 39.2536C40.6023 39.2641 40.1508 39.2511 39.9057 39.3662C39.7358 39.5538 39.7126 40.289 39.6534 40.5908C39.5765 40.9816 40.8643 40.6603 41.0634 40.6907C41.3939 40.7412 41.595 40.8261 41.8954 40.9564C42.1544 41.3751 42.1969 41.4838 42.3429 41.9687C41.9024 41.4219 41.5642 41.2781 40.9499 40.98C40.1908 41.0959 39.6467 41.1741 38.8782 41.1769Z" fill="#C57C24"/>
<path d="M42.0541 47.1707C42.2913 46.9981 42.2312 46.9814 42.4512 47.0152L42.4683 47.0634C43.4882 47.3324 43.834 46.9926 44.4327 46.249C44.0249 47.8277 43.5752 48.4969 41.8633 48.5103C42.0032 48.2123 42.2013 47.5594 42.1642 47.2326L42.0541 47.1707Z" fill="#532E86"/>
<path d="M41.8556 39.2383C43.8343 39.937 44.03 40.8534 44.0824 42.7793C43.6307 42.6057 43.2345 42.4316 42.7432 42.4141C42.9665 42.251 43.189 42.3217 43.5179 42.2358C43.7403 41.991 43.6829 41.7131 43.5602 41.4382C43.1102 40.4294 42.0212 39.3499 40.8892 39.252C41.1259 39.2502 41.6411 39.2613 41.8556 39.2383Z" fill="#F8B641"/>
<path d="M12.3239 48.4881C12.2548 48.1143 12.1379 47.9401 12.4554 47.7227C13.119 48.4365 13.6068 49.1418 14.4673 49.5016C14.4172 49.5858 14.4226 49.5866 14.3451 49.645L14.1513 49.7701C13.5294 49.5773 13.1655 49.7978 12.2965 49.5088C12.358 49.2545 12.3099 49.3032 12.4758 49.1322L12.3536 49.0852C12.2429 48.8403 12.296 48.7961 12.3239 48.4881Z" fill="#44341D"/>
<path d="M12.8907 49.0615C13.5016 49.1333 13.9145 49.7013 14.345 49.6453L14.1512 49.7704C13.5293 49.5776 13.1654 49.7981 12.2964 49.5091C12.3579 49.2548 12.3098 49.3035 12.4757 49.1325L12.8907 49.0615Z" fill="#1A0507"/>
<path d="M12.3239 48.4883C12.7276 48.6903 12.7337 48.6574 12.8908 49.0614L12.4758 49.1325L12.3536 49.0854C12.2428 48.8405 12.296 48.7963 12.3239 48.4883Z" fill="#3B301A"/>
<path d="M16.0339 48.5107L16.391 48.5363C17.1398 49.1664 19.2194 50.1457 20.1592 50.0713L20.2223 50.0658C20.2771 50.167 20.3382 50.2701 20.3811 50.3759C20.1527 50.4344 19.8748 50.4954 19.6416 50.462C18.5884 50.3108 16.52 49.452 16.0339 48.5107Z" fill="#D18C31"/>
<path d="M25.7324 34.9071C27.5411 34.5986 31.2147 34.6158 32.9842 35.0442C31.9992 35.1666 30.8357 35.0288 29.8344 35.0585C28.4493 35.0996 27.1191 34.9039 25.7324 34.9071Z" fill="#D18C31"/>
<path d="M31.8034 54.8648C31.5739 54.6722 31.431 54.5731 31.4761 54.2594C31.6547 54.0966 31.6509 54.1435 31.9351 54.1006L31.8034 54.8648Z" fill="#D18C31"/>
<path d="M33.1311 12.5186C34.4505 10.3252 36.5575 8.80268 38.8766 7.81348C39.5966 8.8179 40.6753 11.6231 40.4035 12.8405C40.148 13.985 39.8155 15.23 39.7115 16.4079C39.4309 16.2599 39.1968 16.1118 38.88 16.0768L38.7652 16.1282C38.8185 16.3766 40.4055 17.6074 40.7145 18.0508C42.2803 20.2975 43.4985 22.2895 44.0708 24.9734C44.7732 27.522 44.5396 32.4408 43.0983 34.709C42.3224 35.9302 41.0573 37.8785 39.6825 38.4403C39.6829 37.7586 39.7404 36.732 39.4547 36.1321C38.5469 35.3917 35.4064 34.7181 34.1767 34.5457C33.4997 34.4507 32.4852 34.4042 31.8554 34.2853L31.8152 34.2773C31.366 34.2681 30.6638 34.2749 30.2448 34.1932C28.8615 34.2683 27.1371 34.1936 25.8499 34.2808C23.5369 34.4376 19.0787 35.0736 17.1785 36.3846C17.1396 37.2431 17.1303 38.1359 17.2302 38.9904C13.9831 38.1884 12.6107 34.7136 11.7085 31.8262C11.2717 30.4286 11.2203 27.3594 11.5094 25.8866C11.8887 23.9547 12.7874 21.571 13.7184 19.8362C14.2898 18.8709 15.0565 18.1494 15.6992 17.0287C15.2008 17.3061 14.9159 17.5661 14.5011 17.9435C14.0208 16.4811 13.471 13.5076 13.617 11.9818C13.694 11.1768 14.188 9.75026 14.4767 8.95425C16.0047 9.5719 17.9075 10.4287 19.1272 11.5172C19.6966 12.0254 20.0989 12.6501 20.7462 13.1621C20.3593 13.2805 19.3684 13.7512 19.2909 14.16C19.5678 14.2236 20.7131 13.6414 21.0802 13.49C21.3645 13.8021 21.4493 13.9778 21.8857 13.9629C21.8334 13.7351 21.7154 13.6334 21.6249 13.3819C21.7412 13.2196 21.9311 13.1921 22.1475 13.1109C23.2852 12.707 24.5017 12.3495 25.7058 12.239C27.1665 11.8335 30.7988 12.1771 32.2118 12.7237C32.3672 13.0391 32.0078 13.2656 32.2645 13.4859C32.5428 13.407 32.679 13.1325 32.8382 12.8794C33.3149 13.0242 34.2594 13.4631 34.6322 13.3671C34.5435 13.027 33.4693 12.642 33.1311 12.5186Z" fill="#906EB7"/>
<path d="M44.0711 24.9727C44.7735 27.5212 44.5399 32.44 43.0987 34.7082C42.3227 35.9294 41.0577 37.8777 39.6829 38.4395C39.6833 37.7579 39.7408 36.7312 39.4551 36.1313C39.6596 36.0989 40.0625 36.1561 40.285 36.1786C41.201 35.3346 41.9999 34.2561 42.6672 33.2027C43.0101 32.6614 42.4306 32.2243 43.4222 31.8282C43.5642 31.7715 43.4597 31.2936 43.5722 31.1165C43.6374 31.2639 43.6233 31.5487 43.6261 31.7247C44.0032 31.5956 44.1562 31.0688 44.1792 30.7108C44.2683 29.32 44.2901 27.8904 44.1556 26.5024C44.1075 26.0056 44.0006 25.4655 44.0711 24.9727Z" fill="#532E86"/>
<path d="M28.0034 32.1504C27.677 32.3522 27.121 32.6495 26.8409 32.8443C26.6213 32.997 26.3722 33.7291 25.9533 33.8512C25.4026 33.6822 25.4914 33.0968 25.1798 32.8009C24.8344 32.4727 24.0628 32.1365 24.8371 31.5646C25.2608 31.5274 25.1802 32.0124 25.514 32.1909C26.0894 32.4987 27.2338 32.0435 27.5551 31.517C27.8678 31.0045 27.3751 30.774 27.2582 30.3145C27.4127 29.9406 28.3527 29.9473 28.5187 30.369C28.486 30.6017 28.2594 30.8134 28.098 30.9978C28.4055 31.4633 28.7909 31.8714 29.312 32.0849C30.3907 32.5265 30.8148 31.4637 31.0392 31.3646C31.2182 31.5198 31.3309 31.8204 31.4342 32.044C31.2803 32.3533 31.1771 32.3349 30.9986 32.5553C30.7641 32.8448 30.2938 33.653 30.2183 34.0021C29.8947 33.5189 29.6419 33.1197 29.3531 32.6156C28.8838 32.4821 28.4378 32.3738 28.0034 32.1504Z" fill="#010002"/>
<path d="M22.1477 13.1102C23.2853 12.7063 24.5018 12.3488 25.7059 12.2383L25.7887 12.3082C24.8947 12.6285 26.1299 13.262 24.5087 13.6565C24.0343 13.9785 22.5125 14.1277 21.9003 14.0461C21.8712 13.9867 21.872 14.015 21.8858 13.9622C21.8336 13.7344 21.7155 13.6327 21.625 13.3812C21.7413 13.2189 21.9312 13.1914 22.1477 13.1102Z" fill="#AF8DC8"/>
<path d="M21.8858 13.9633C21.8336 13.7355 21.7155 13.6338 21.625 13.3823C21.7413 13.22 21.9312 13.1925 22.1477 13.1113C22.3807 14.7046 23.8321 13.413 24.5087 13.6576C24.0343 13.9795 22.5125 14.1288 21.9003 14.0472C21.8712 13.9877 21.872 14.0161 21.8858 13.9633Z" fill="#BA76B8"/>
<path d="M31.4342 32.0439L31.5338 32.0839C31.505 32.2551 30.4398 33.2494 30.6472 33.9748C30.9834 34.3436 31.6699 34.0143 31.9567 34.2188L31.8154 34.2765C31.3663 34.2673 30.6641 34.274 30.245 34.1923L30.2183 34.002C30.2938 33.6529 30.7641 32.8447 30.9986 32.5553C31.1771 32.3348 31.2803 32.3533 31.4342 32.0439Z" fill="#BA76B8"/>
<path d="M35.3646 25.0088C36.0529 24.94 35.847 24.9857 36.2319 25.391C36.4723 25.5587 36.7259 25.6977 36.96 25.876C39.5831 27.8736 38.8543 31.8983 35.422 32.3945C34.9233 32.4178 34.1606 32.1973 33.722 31.9188C31.8632 30.7388 31.9456 28.1423 32.8909 26.4136C33.3275 25.6155 34.4811 25.1928 35.3646 25.0088Z" fill="#010002"/>
<path d="M34.1115 26.3798C34.6308 26.3546 35.0591 26.5801 35.239 27.088C35.3501 27.4047 35.3274 27.7531 35.176 28.0528C34.9873 28.4217 34.7226 28.5525 34.3495 28.6698C32.8008 28.6044 32.6701 27.022 34.1115 26.3798Z" fill="white"/>
<path d="M36.3992 29.7695C37.0068 29.8881 37.0807 30.5415 36.619 30.9118C36.2588 30.837 36.0059 30.7862 35.9707 30.3839C36.0575 30.1041 36.1978 29.9858 36.3992 29.7695Z" fill="#520F59"/>
<path d="M18.867 25.7383C19.3464 25.8012 19.5031 26.1826 19.8124 26.3135C20.2914 26.5195 20.8705 26.5869 21.3523 26.7763C22.916 27.3913 24.01 29.4021 23.2982 31.0166C22.8715 31.9842 22.3863 32.5592 21.4139 32.9719C21.36 32.9925 21.3054 33.011 21.2501 33.0275C17.6747 34.0956 16.273 29.4793 18.3931 27.2763C18.5718 27.0906 19.0137 26.9077 19.0961 26.7583C18.9008 26.6051 18.83 26.566 18.7172 26.3433C18.668 26.1098 18.7667 25.9576 18.867 25.7383Z" fill="#010002"/>
<path d="M19.6483 27.2266C20.0202 27.315 20.4117 27.6547 20.4852 28.0442C20.5481 28.3698 20.4762 28.7068 20.2859 28.9784C20.0389 29.3353 19.926 29.4912 19.5236 29.5661C18.0489 29.484 18.042 27.6698 19.6483 27.2266Z" fill="white"/>
<path d="M21.4738 30.3594C21.7951 30.5919 21.7953 30.9408 21.6354 31.2815C21.4409 31.4321 21.5215 31.3939 21.2418 31.3855C21.1288 31.3064 21.0301 31.2201 20.9247 31.1316C20.8336 30.8879 20.8351 30.9865 20.8997 30.7557C21.048 30.5557 21.2519 30.4747 21.4738 30.3594Z" fill="#520F59"/>
<path d="M38.8196 31.1839C39.2842 31.0859 39.7687 31.1823 40.1605 31.4506C41.0625 32.0553 41.1293 33.1314 39.8568 33.3683C39.3837 33.4273 38.8347 33.5023 38.4532 33.1824C37.5777 32.4481 37.5089 31.3655 38.8196 31.1839Z" fill="#BA76B8"/>
<path d="M16.3068 32.3695C16.748 32.3376 17.2849 32.2547 17.6571 32.5118C18.6422 33.1927 18.0598 34.1102 17.0799 34.3071C16.5641 34.392 15.3577 34.6867 15.2459 33.9799C15.1197 33.1821 15.6176 32.5935 16.3068 32.3695Z" fill="#BA76B8"/>
<path d="M46.9829 33.5713C48.3367 34.0259 49.5056 34.8783 50.556 35.8187C51.6268 36.7774 51.992 37.1773 52.4424 38.5481C51.2453 38.2967 50.4576 38.3994 49.3413 38.8466C47.7427 39.5033 47.1375 39.9526 46.1543 41.3288C46.2822 40.3689 46.3303 39.3628 46.4714 38.3951C46.5896 37.5843 46.7957 36.751 46.8767 35.9432C46.955 35.1625 46.8674 34.3648 46.9829 33.5713Z" fill="#906EB7"/>
<path d="M44.6715 35.5199C45.0025 35.2482 45.296 34.9956 45.6595 34.7676C46.0515 37.1899 46.4123 38.7869 45.4705 41.2286C44.2444 40.959 44.5518 40.52 43.6369 39.6804C43.1802 39.2612 42.5998 39.0389 42.0249 38.8254C41.8346 38.7412 41.0965 38.7765 40.8442 38.7794C41.5734 37.9648 42.3907 36.7854 43.2369 36.1406C43.478 35.9569 44.3424 35.6486 44.6715 35.5199Z" fill="#906EB7"/>
<path d="M40.8442 38.7781C41.5734 37.9634 42.3907 36.784 43.2369 36.1392C43.478 35.9556 44.3424 35.6472 44.6715 35.5186C44.5605 36.3056 43.6051 37.5738 42.9458 38.0513C42.768 38.1801 42.1135 38.7059 42.0249 38.824C41.8346 38.7399 41.0965 38.7751 40.8442 38.7781Z" fill="#532E86"/>
<path d="M10.8905 35.4473C11.3232 35.697 11.8021 35.9456 12.198 36.2451L12.2461 36.2627C12.5464 36.3708 12.8876 36.3445 13.0609 36.6291C13.8323 37.896 14.1876 38.1912 15.4161 38.9556C14.8448 39.0034 14.5097 39.0557 13.9534 39.2256C12.8288 39.8384 13.1839 39.9278 12.5115 40.8377C12.3665 40.8899 11.9427 40.9378 11.827 41.0068C11.572 41.1587 11.2268 41.5131 10.9944 41.7219C10.5554 39.088 10.5118 38.0752 10.8905 35.4473Z" fill="#906EB7"/>
<path d="M12.1979 36.2441L12.246 36.2617C12.5463 36.3698 12.8875 36.3435 13.0608 36.6281C13.8322 37.895 14.1875 38.1902 15.416 38.9547C14.8447 39.0025 14.5096 39.0547 13.9533 39.2247C13.3901 38.4487 12.3858 37.6296 12.0972 36.6598C12.045 36.4841 12.1218 36.401 12.1979 36.2441Z" fill="#532E86"/>
<path d="M43.4463 35.5831C43.8595 34.6619 44.0942 33.7219 44.9463 33.1536C45.3044 32.8854 45.7728 32.5879 46.0666 32.2556C46.6963 31.5437 46.7831 30.5128 47.8409 31.5184C48.4084 32.058 49.2996 32.5025 49.9232 33.0428C51.1707 34.1237 51.86 35.6974 52.4953 37.1811C51.5835 36.2232 48.1724 32.9471 46.8715 33.2846C46.6668 33.4159 46.657 33.4846 46.5718 33.7116C46.3194 33.7701 46.3909 33.7633 46.2068 34.0461C46.0036 33.9932 44.1102 35.3342 43.4463 35.5831Z" fill="#532E86"/>
<path d="M9.26479 31.9541C9.82349 32.0365 11.543 33.8836 11.9821 34.4084C12.0906 34.5381 12.5069 35.6172 12.5935 35.8342C11.9801 35.5399 11.1035 35.1512 10.5714 34.7632C10.4405 35.2443 10.444 35.9354 10.3136 36.2813C9.91559 35.8086 10.6035 32.8994 8.39276 34.1241C6.9585 34.9558 5.70882 36.1015 4.53076 37.2413C4.69973 35.1044 7.33398 32.6125 9.26479 31.9541Z" fill="#532E86"/>
<path d="M15.542 41.9316C16.2722 41.9073 16.8078 42.3616 17.5613 42.4994C17.7711 44.0949 17.9948 45.5454 18.6433 47.0379C18.7022 47.1735 18.7741 47.3175 18.7671 47.465L18.6475 47.4708C18.1722 47.3308 17.4169 46.9919 16.9006 46.8012C16.8869 46.1554 16.8982 45.607 16.7487 44.9623C16.5455 44.0863 14.669 42.7482 15.542 41.9316Z" fill="#BC8294"/>
<path d="M41.1991 41.5838C41.4542 41.574 41.6034 41.6515 41.7427 41.8628C41.9908 42.8257 40.0285 44.4753 39.9809 44.8525C39.7528 46.6614 40.7825 46.2984 38.8354 47.3092L38.2017 47.5437C38.9475 45.8113 39.0143 44.4197 39.3755 42.6963C40.3828 42.3807 40.4187 42.311 41.1991 41.5838Z" fill="#AF7094"/>
<path d="M46.207 34.0445C46.3911 33.7617 46.3196 33.7685 46.572 33.71C46.5629 34.822 46.5812 35.7841 46.4124 36.8854C46.2824 36.2987 46.0789 34.5794 46.207 34.0445Z" fill="#532E86"/>
<path d="M40.4136 41.3008L40.4777 41.3015L40.5518 41.3772C40.4729 41.6717 39.8877 41.9327 39.6194 42.0772C39.5372 42.0494 39.5456 42.0397 39.4783 41.97C39.4782 41.6598 39.4347 41.7073 39.5722 41.4684C39.7711 41.3257 40.155 41.3245 40.4136 41.3008Z" fill="#AF7094"/>
</svg>
