<svg width="147" height="89" viewBox="0 0 147 89" fill="none" xmlns="http://www.w3.org/2000/svg">
<g filter="url(#filter0_i_1574_11031)">
<path d="M39.543 1.05175C43.2153 1.33423 50.5594 9.39736 53.7411 14.1347C53.7688 14.1208 53.7962 14.1072 53.8233 14.0938C54.4586 13.7787 54.8994 13.5887 54.8994 13.5887C51.4021 8.31515 42.1305 -0.41166 39.2092 0.384956C36.8503 1.0282 32.5367 17.0753 31.8943 27.0906C31.6535 30.8449 31.6535 34.4352 31.6535 34.4352C33.7623 30.3594 36.3874 27.0926 38.2973 24.9998C36.5384 20.7486 36.8801 0.84691 39.543 1.05175Z" fill="black"/>
<path d="M53.7411 14.1347C53.7411 14.1347 54.7528 15.7399 55.2338 15.4061C55.7147 15.0722 54.8994 13.5887 54.8994 13.5887C54.8994 13.5887 54.4586 13.7787 53.8233 14.0938L53.7411 14.1347Z" fill="black"/>
<path d="M109.65 20.7488C109.438 12.8973 106.794 0.384081 104.643 0.384058C99.3744 0.384 90.7232 9.93462 88.6182 12.4025L87.9506 13.1652C88.321 13.3172 88.6789 13.4732 89.022 13.6329C89.253 13.3233 89.4911 13.0151 89.7268 12.7363C93.9598 7.72865 101.233 1.14899 104.309 1.38559C106.646 1.56536 106.98 21.7501 104.643 25.6544C106.438 27.731 108.152 30.0947 109.65 32.767C109.65 32.767 109.863 28.6003 109.65 20.7488Z" fill="black"/>
<path d="M87.9506 13.1652C87.9506 13.1652 86.2036 15.7409 87.2829 15.7409C87.4844 15.7409 87.9572 15.0909 88.5272 14.3071C88.6858 14.089 88.852 13.8606 89.022 13.6329C88.6789 13.4732 88.321 13.3172 87.9506 13.1652Z" fill="black"/>
<path d="M72.9274 10.0656C64.9151 10.0656 60.2409 11.2518 54.8994 13.5887C54.8994 13.5887 55.7147 15.0722 55.2338 15.4061C54.7528 15.7399 53.7411 14.1347 53.7411 14.1347C50.5594 9.39736 43.2153 1.33423 39.543 1.05175C36.8801 0.84691 36.5384 20.7486 38.2973 24.9998C36.3874 27.0926 33.7623 30.3594 31.6535 34.4352C30.5013 36.6621 29.5032 39.1304 28.8599 41.7808C25.0849 57.3348 30.7588 70.8846 43.5491 80.5068C52.4953 87.2371 62.5786 87.8514 71.2582 87.8514C76.2663 87.8514 89.4788 87.5176 99.3959 80.1693C119.666 65.15 113.277 41.9449 111.987 38.4425C111.83 38.0175 111.685 37.6119 111.545 37.2207C110.968 35.61 110.478 34.2433 109.65 32.767C108.152 30.0947 106.438 27.731 104.643 25.6544C106.98 21.7501 106.646 1.56536 104.309 1.38559C101.233 1.14899 93.9598 7.72865 89.7268 12.7363C89.4911 13.0151 89.253 13.3233 89.022 13.6329C88.852 13.8606 88.6858 14.089 88.5272 14.3071C87.9572 15.0909 87.4844 15.7409 87.2829 15.7409C86.2036 15.7409 87.9506 13.1652 87.9506 13.1652C83.4446 11.3168 77.0801 10.0656 72.9274 10.0656Z" fill="#A289CB"/>
</g>
<path d="M91.9567 15.4071C91.2183 14.7817 90.2089 14.1853 89.022 13.6329M54.8994 13.5887C60.2409 11.2518 64.9151 10.0656 72.9274 10.0656C77.0801 10.0656 83.4446 11.3168 87.9506 13.1652M54.8994 13.5887C51.4021 8.31515 42.1305 -0.41166 39.2092 0.384956C36.8503 1.0282 32.5367 17.0753 31.8943 27.0906C31.6535 30.8449 31.6535 34.4352 31.6535 34.4352M54.8994 13.5887C54.8994 13.5887 55.7147 15.0722 55.2338 15.4061C54.7528 15.7399 53.7411 14.1347 53.7411 14.1347M53.7411 14.1347C53.7688 14.1208 53.7962 14.1072 53.8233 14.0938C54.4586 13.7787 54.8994 13.5887 54.8994 13.5887M109.65 32.767C109.65 32.767 109.863 28.6003 109.65 20.7488C109.438 12.8973 106.794 0.384081 104.643 0.384058C99.3744 0.384 90.7232 9.93462 88.6182 12.4025L87.9506 13.1652M40.8782 22.4178C40.8782 22.4178 39.8129 23.3392 38.2973 24.9998C36.3874 27.0926 33.7623 30.3594 31.6535 34.4352C30.5013 36.6621 29.5032 39.1304 28.8599 41.7808C25.0849 57.3348 30.7588 70.8846 43.5491 80.5068C52.4953 87.2371 62.5786 87.8514 71.2582 87.8514C76.2663 87.8514 89.4788 87.5176 99.3959 80.1693C119.666 65.15 113.277 41.9449 111.987 38.4425C111.83 38.0175 111.685 37.6119 111.545 37.2207C110.968 35.61 110.478 34.2433 109.65 32.767C108.152 30.0947 106.438 27.731 104.643 25.6544C103.984 24.8921 103.314 24.1684 102.64 23.4824M50.5594 16.0748C51.5505 15.2821 52.8947 14.5543 53.8233 14.0938M87.9506 13.1652C87.9506 13.1652 86.2036 15.7409 87.2829 15.7409C87.4844 15.7409 87.9572 15.0909 88.5272 14.3071C88.6858 14.089 88.852 13.8606 89.022 13.6329M87.9506 13.1652C88.321 13.3172 88.6789 13.4732 89.022 13.6329M104.643 25.6544C106.98 21.7501 106.646 1.56536 104.309 1.38559C101.233 1.14899 93.9598 7.72865 89.7268 12.7363C89.4911 13.0151 89.253 13.3233 89.022 13.6329M53.7411 14.1347C50.5594 9.39736 43.2153 1.33423 39.543 1.05175C36.8801 0.84691 36.5384 20.7486 38.2973 24.9998M53.7411 14.1347L53.8233 14.0938" stroke="#1C1135" stroke-width="0.66769" stroke-linecap="round"/>
<path d="M99.0851 17.654C102.35 20.5013 103.868 21.0536 104.455 21.7892C106.513 18.0038 106.119 1.72839 104.048 1.56186C101.321 1.34269 94.3063 7.73955 90.5723 12.5985C90.3644 12.869 90.776 12.2982 90.5723 12.5985C90.5723 12.5985 95.8204 14.8068 99.0851 17.654Z" fill="url(#paint0_linear_1574_11031)"/>
<path d="M44.08 17.5845C41.0114 20.4793 38.6102 21.6192 38.0588 22.367C37.0572 19.3624 37.3911 1.40694 39.4213 1.2298C41.7311 1.02827 48.5733 7.50611 52.0807 12.4438C52.2759 12.7186 51.8893 12.1386 52.0807 12.4438C52.0807 12.4438 47.1485 14.6897 44.08 17.5845Z" fill="url(#paint1_linear_1574_11031)"/>
<path d="M5.7886 52.8081C3.45169 54.6944 2.45018 55.4789 0.447113 57.8158C0.990243 58.0873 2.34622 57.4373 3.78554 57.482C5.37085 57.5312 6.40815 57.6908 7.79168 58.1497C10.1265 58.924 11.2179 59.9445 13.1332 61.4881C15.3595 63.2823 17.4733 66.4957 18.1409 66.8296C18.0105 63.5702 17.9483 64.0177 17.8071 60.7588C17.6939 59.3618 17.6152 55.0162 17.8071 52.8081C18.0019 50.566 18.8086 48.1343 18.8086 47.4666C18.8086 46.9732 18.308 45.4635 17.4732 45.4635C16.8055 45.4635 13.8012 46.9402 11.7978 48.1343C9.15474 49.7097 8.24445 50.8259 5.7886 52.8081Z" fill="#A974D2"/>
<path d="M24.4839 51.4728C21.8132 49.8035 21.4793 48.1343 20.8117 48.1343C20.144 48.1343 19.5752 50.9325 19.0293 52.8081C18.1515 55.8244 18.0278 58.0264 17.8071 60.7588C17.9483 64.0177 18.0105 63.5702 18.1409 66.8296C18.8086 67.1635 21.0519 65.0041 23.1485 64.4927C25.6818 63.8748 27.2444 64.1222 29.8254 64.4927C32.5201 64.8795 36.5023 66.8296 36.5023 66.8296C36.5023 66.8296 33.3089 63.184 31.8285 60.4866C30.4774 58.0246 29.1578 53.8097 29.1578 53.8097C29.1578 53.8097 26.1679 52.5252 24.4839 51.4728Z" fill="#A974D2"/>
<path d="M27.4886 47.8004C27.4886 47.8004 24.6902 46.4252 23.1486 44.7959C21.6573 43.2198 20.144 40.1222 19.1425 39.7883C18.143 39.455 15.7951 40.5378 13.8131 41.4518L13.8009 41.4574C10.1769 43.1287 7.45789 45.4636 5.12097 48.1343C2.16061 51.5175 -0.220624 57.482 0.447113 57.8158C2.45018 55.4789 3.45169 54.6944 5.7886 52.8081C8.24445 50.8259 9.15474 49.7097 11.7978 48.1343C13.8012 46.9402 16.8055 45.4635 17.4732 45.4635C18.308 45.4635 18.8086 46.9732 18.8086 47.4666C18.8086 48.1343 18.0019 50.566 17.8071 52.8081C17.6152 55.0162 17.6939 59.3618 17.8071 60.7588C18.0278 58.0264 18.1515 55.8244 19.0293 52.8081C19.5752 50.9325 20.144 48.1343 20.8117 48.1343C21.4793 48.1343 21.8132 49.8035 24.4839 51.4728C26.1679 52.5252 29.1578 53.8097 29.1578 53.8097L27.4886 47.8004Z" fill="#43277B"/>
<path d="M13.8009 41.4574C10.1769 43.1287 7.45789 45.4636 5.12097 48.1343C2.16061 51.5175 -0.220624 57.482 0.447113 57.8158M13.8009 41.4574L13.8131 41.4518M29.1578 53.8097L27.4886 47.8004C27.4886 47.8004 24.6902 46.4252 23.1486 44.7959C21.6573 43.2198 20.144 40.1222 19.1425 39.7883C18.143 39.455 15.7951 40.5378 13.8131 41.4518C13.809 41.4537 13.805 41.4555 13.8009 41.4574M0.447113 57.8158C2.45018 55.4789 3.45169 54.6944 5.7886 52.8081C8.24445 50.8259 9.15474 49.7097 11.7978 48.1343C13.8012 46.9402 16.8055 45.4635 17.4732 45.4635C18.308 45.4635 18.8086 46.9732 18.8086 47.4666C18.8086 48.1343 18.0019 50.566 17.8071 52.8081C17.6152 55.0162 17.6939 59.3618 17.8071 60.7588M0.447113 57.8158C0.990243 58.0873 2.34622 57.4373 3.78554 57.482C5.37085 57.5312 6.40815 57.6908 7.79168 58.1497C10.1265 58.924 11.2179 59.9445 13.1332 61.4881C15.3595 63.2823 17.4733 66.4957 18.1409 66.8296M17.8071 60.7588C17.9483 64.0177 18.0105 63.5702 18.1409 66.8296M17.8071 60.7588C18.0278 58.0264 18.1515 55.8244 19.0293 52.8081C19.5752 50.9325 20.144 48.1343 20.8117 48.1343C21.4793 48.1343 21.8132 49.8035 24.4839 51.4728C26.1679 52.5252 29.1578 53.8097 29.1578 53.8097M29.1578 53.8097C29.1578 53.8097 30.4774 58.0246 31.8285 60.4866C33.3089 63.184 36.5023 66.8296 36.5023 66.8296C36.5023 66.8296 32.5201 64.8795 29.8254 64.4927C27.2444 64.1222 25.6818 63.8748 23.1485 64.4927C21.0519 65.0041 18.8086 67.1635 18.1409 66.8296" stroke="#0D0C12" stroke-width="0.66769" stroke-linecap="round"/>
<path d="M116.959 44.7965C115.708 46.164 113.286 47.801 113.286 47.801L112.285 52.8085C112.285 52.8085 113.886 51.9506 114.956 51.1393C115.984 50.3593 117.293 48.8022 117.626 48.8024C118.628 48.8031 119.63 55.8132 119.63 58.8178C119.63 54.3851 119.63 47.4673 119.63 47.4673C119.63 46.6325 120.173 45.5341 120.965 45.798C122.968 46.4655 124.797 47.5622 127.308 49.4703C129.144 50.866 130.356 51.8398 131.982 53.4764C133.477 54.9824 134.653 56.481 135.988 57.8165C137.323 57.4826 134.343 51.4765 131.982 48.135C130.802 46.4655 127.976 43.6888 125.973 42.4596C123.723 41.0788 121.299 39.7886 119.963 40.1227C118.902 40.3883 118.423 43.1951 116.959 44.7965Z" fill="#442679"/>
<path d="M127.308 49.4703C124.797 47.5622 122.968 46.4655 120.965 45.798C120.173 45.5341 119.63 46.6325 119.63 47.4673C119.63 47.4673 119.63 54.3851 119.63 58.8178C119.63 62.156 119.296 64.4934 118.962 67.1639C120.631 64.4931 122.753 62.1562 124.637 60.8208C125.639 60.1109 127.514 58.7592 129.645 58.1501C131.982 57.4821 133.985 57.4826 135.988 57.8165C134.653 56.481 133.477 54.9824 131.982 53.4764C130.356 51.8398 129.144 50.866 127.308 49.4703Z" fill="#AA74D2"/>
<path d="M119.63 58.8178C119.63 55.8132 118.628 48.8031 117.626 48.8024C117.293 48.8022 115.984 50.3593 114.956 51.1393C113.886 51.9506 112.285 52.8085 112.285 52.8085L111.283 55.8132C110.619 57.8075 110.008 58.6727 108.946 60.4872C107.795 62.4557 105.942 65.4949 105.942 65.4949C105.942 65.4949 110.425 64.0526 113.286 64.4934C115.655 64.8584 117.293 65.8285 118.962 67.1639C119.296 64.4934 119.63 62.156 119.63 58.8178Z" fill="#AA74D2"/>
<path d="M111.283 55.8132C110.619 57.8075 110.008 58.6727 108.946 60.4872C107.795 62.4557 105.942 65.4949 105.942 65.4949C105.942 65.4949 110.425 64.0526 113.286 64.4934C115.655 64.8584 117.293 65.8285 118.962 67.1639C120.631 64.4931 122.753 62.1562 124.637 60.8208C125.639 60.1109 127.514 58.7592 129.645 58.1501C131.982 57.4821 133.985 57.4826 135.988 57.8165C137.323 57.4826 134.343 51.4765 131.982 48.135C130.802 46.4655 127.976 43.6888 125.973 42.4596C123.723 41.0788 121.299 39.7886 119.963 40.1227C118.902 40.3883 118.423 43.1951 116.959 44.7965C115.708 46.164 113.286 47.801 113.286 47.801L112.285 52.8085M135.988 57.8165C134.653 56.481 133.477 54.9824 131.982 53.4764C130.356 51.8398 129.144 50.866 127.308 49.4703C124.797 47.5622 122.968 46.4655 120.965 45.798C120.173 45.5341 119.63 46.6325 119.63 47.4673M119.63 47.4673C119.63 50.8055 119.63 55.4795 119.63 58.8178M119.63 47.4673C119.63 47.4673 119.63 54.3851 119.63 58.8178M119.63 58.8178C119.63 55.8132 118.628 48.8031 117.626 48.8024C117.293 48.8022 115.984 50.3593 114.956 51.1393C113.886 51.9506 112.285 52.8085 112.285 52.8085M119.63 58.8178C119.63 62.156 119.296 64.4934 118.962 67.1639M112.285 52.8085C112.285 52.8085 111.704 54.5518 111.283 55.8132M112.285 52.8085L111.283 55.8132" stroke="#0D0C12" stroke-width="0.66769" stroke-linecap="round"/>
<path d="M5.7886 52.8081C3.45169 54.6944 2.45018 55.4789 0.447113 57.8158C0.990243 58.0873 2.34622 57.4373 3.78554 57.482C5.37085 57.5312 6.40815 57.6908 7.79168 58.1497C10.1265 58.924 11.2179 59.9445 13.1332 61.4881C15.3595 63.2823 17.4733 66.4957 18.1409 66.8296C18.0105 63.5702 17.9483 64.0177 17.8071 60.7588C17.6939 59.3618 17.6152 55.0162 17.8071 52.8081C18.0019 50.566 18.8086 48.1343 18.8086 47.4666C18.8086 46.9732 18.308 45.4635 17.4732 45.4635C16.8055 45.4635 13.8012 46.9402 11.7978 48.1343C9.15474 49.7097 8.24445 50.8259 5.7886 52.8081Z" fill="#A974D2"/>
<path d="M24.4839 51.4728C21.8132 49.8035 21.4793 48.1343 20.8117 48.1343C20.144 48.1343 19.5752 50.9325 19.0293 52.8081C18.1515 55.8244 18.0278 58.0264 17.8071 60.7588C17.9483 64.0177 18.0105 63.5702 18.1409 66.8296C18.8086 67.1635 21.0519 65.0041 23.1485 64.4927C25.6818 63.8748 27.2444 64.1222 29.8254 64.4927C32.5201 64.8795 36.5023 66.8296 36.5023 66.8296C36.5023 66.8296 33.3089 63.184 31.8285 60.4866C30.4774 58.0246 29.1578 53.8097 29.1578 53.8097C29.1578 53.8097 26.1679 52.5252 24.4839 51.4728Z" fill="#A974D2"/>
<path d="M27.4886 47.8004C27.4886 47.8004 24.6902 46.4252 23.1486 44.7959C21.6573 43.2198 20.144 40.1222 19.1425 39.7883C18.143 39.455 15.7951 40.5378 13.8131 41.4518L13.8009 41.4574C10.1769 43.1287 7.45789 45.4636 5.12097 48.1343C2.16061 51.5175 -0.220624 57.482 0.447113 57.8158C2.45018 55.4789 3.45169 54.6944 5.7886 52.8081C8.24445 50.8259 9.15474 49.7097 11.7978 48.1343C13.8012 46.9402 16.8055 45.4635 17.4732 45.4635C18.308 45.4635 18.8086 46.9732 18.8086 47.4666C18.8086 48.1343 18.0019 50.566 17.8071 52.8081C17.6152 55.0162 17.6939 59.3618 17.8071 60.7588C18.0278 58.0264 18.1515 55.8244 19.0293 52.8081C19.5752 50.9325 20.144 48.1343 20.8117 48.1343C21.4793 48.1343 21.8132 49.8035 24.4839 51.4728C26.1679 52.5252 29.1578 53.8097 29.1578 53.8097L27.4886 47.8004Z" fill="#43277B"/>
<path d="M13.8009 41.4574C10.1769 43.1287 7.45789 45.4636 5.12097 48.1343C2.16061 51.5175 -0.220624 57.482 0.447113 57.8158M13.8009 41.4574L13.8131 41.4518M29.1578 53.8097L27.4886 47.8004C27.4886 47.8004 24.6902 46.4252 23.1486 44.7959C21.6573 43.2198 20.144 40.1222 19.1425 39.7883C18.143 39.455 15.7951 40.5378 13.8131 41.4518C13.809 41.4537 13.805 41.4555 13.8009 41.4574M0.447113 57.8158C2.45018 55.4789 3.45169 54.6944 5.7886 52.8081C8.24445 50.8259 9.15474 49.7097 11.7978 48.1343C13.8012 46.9402 16.8055 45.4635 17.4732 45.4635C18.308 45.4635 18.8086 46.9732 18.8086 47.4666C18.8086 48.1343 18.0019 50.566 17.8071 52.8081C17.6152 55.0162 17.6939 59.3618 17.8071 60.7588M0.447113 57.8158C0.990243 58.0873 2.34622 57.4373 3.78554 57.482C5.37085 57.5312 6.40815 57.6908 7.79168 58.1497C10.1265 58.924 11.2179 59.9445 13.1332 61.4881C15.3595 63.2823 17.4733 66.4957 18.1409 66.8296M17.8071 60.7588C17.9483 64.0177 18.0105 63.5702 18.1409 66.8296M17.8071 60.7588C18.0278 58.0264 18.1515 55.8244 19.0293 52.8081C19.5752 50.9325 20.144 48.1343 20.8117 48.1343C21.4793 48.1343 21.8132 49.8035 24.4839 51.4728C26.1679 52.5252 29.1578 53.8097 29.1578 53.8097M29.1578 53.8097C29.1578 53.8097 30.4774 58.0246 31.8285 60.4866C33.3089 63.184 36.5023 66.8296 36.5023 66.8296C36.5023 66.8296 32.5201 64.8795 29.8254 64.4927C27.2444 64.1222 25.6818 63.8748 23.1485 64.4927C21.0519 65.0041 18.8086 67.1635 18.1409 66.8296" stroke="#0D0C12" stroke-width="0.66769" stroke-linecap="round"/>
<path d="M116.959 44.7965C115.708 46.164 113.286 47.801 113.286 47.801L112.285 52.8085C112.285 52.8085 113.886 51.9506 114.956 51.1393C115.984 50.3593 117.293 48.8022 117.626 48.8024C118.628 48.8031 119.63 55.8132 119.63 58.8178C119.63 54.3851 119.63 47.4673 119.63 47.4673C119.63 46.6325 120.173 45.5341 120.965 45.798C122.968 46.4655 124.797 47.5622 127.308 49.4703C129.144 50.866 130.356 51.8398 131.982 53.4764C133.477 54.9824 134.653 56.481 135.988 57.8165C137.323 57.4826 134.343 51.4765 131.982 48.135C130.802 46.4655 127.976 43.6888 125.973 42.4596C123.723 41.0788 121.299 39.7886 119.963 40.1227C118.902 40.3883 118.423 43.1951 116.959 44.7965Z" fill="#442679"/>
<path d="M127.308 49.4703C124.797 47.5622 122.968 46.4655 120.965 45.798C120.173 45.5341 119.63 46.6325 119.63 47.4673C119.63 47.4673 119.63 54.3851 119.63 58.8178C119.63 62.156 119.296 64.4934 118.962 67.1639C120.631 64.4931 122.753 62.1562 124.637 60.8208C125.639 60.1109 127.514 58.7592 129.645 58.1501C131.982 57.4821 133.985 57.4826 135.988 57.8165C134.653 56.481 133.477 54.9824 131.982 53.4764C130.356 51.8398 129.144 50.866 127.308 49.4703Z" fill="#AA74D2"/>
<path d="M119.63 58.8178C119.63 55.8132 118.628 48.8031 117.626 48.8024C117.293 48.8022 115.984 50.3593 114.956 51.1393C113.886 51.9506 112.285 52.8085 112.285 52.8085L111.283 55.8132C110.619 57.8075 110.008 58.6727 108.946 60.4872C107.795 62.4557 105.942 65.4949 105.942 65.4949C105.942 65.4949 110.425 64.0526 113.286 64.4934C115.655 64.8584 117.293 65.8285 118.962 67.1639C119.296 64.4934 119.63 62.156 119.63 58.8178Z" fill="#AA74D2"/>
<path d="M111.283 55.8132C110.619 57.8075 110.008 58.6727 108.946 60.4872C107.795 62.4557 105.942 65.4949 105.942 65.4949C105.942 65.4949 110.425 64.0526 113.286 64.4934C115.655 64.8584 117.293 65.8285 118.962 67.1639C120.631 64.4931 122.753 62.1562 124.637 60.8208C125.639 60.1109 127.514 58.7592 129.645 58.1501C131.982 57.4821 133.985 57.4826 135.988 57.8165C137.323 57.4826 134.343 51.4765 131.982 48.135C130.802 46.4655 127.976 43.6888 125.973 42.4596C123.723 41.0788 121.299 39.7886 119.963 40.1227C118.902 40.3883 118.423 43.1951 116.959 44.7965C115.708 46.164 113.286 47.801 113.286 47.801L112.285 52.8085M135.988 57.8165C134.653 56.481 133.477 54.9824 131.982 53.4764C130.356 51.8398 129.144 50.866 127.308 49.4703C124.797 47.5622 122.968 46.4655 120.965 45.798C120.173 45.5341 119.63 46.6325 119.63 47.4673M119.63 47.4673C119.63 50.8055 119.63 55.4795 119.63 58.8178M119.63 47.4673C119.63 47.4673 119.63 54.3851 119.63 58.8178M119.63 58.8178C119.63 55.8132 118.628 48.8031 117.626 48.8024C117.293 48.8022 115.984 50.3593 114.956 51.1393C113.886 51.9506 112.285 52.8085 112.285 52.8085M119.63 58.8178C119.63 62.156 119.296 64.4934 118.962 67.1639M112.285 52.8085C112.285 52.8085 111.704 54.5518 111.283 55.8132M112.285 52.8085L111.283 55.8132" stroke="#0D0C12" stroke-width="0.66769" stroke-linecap="round"/>
<g filter="url(#filter1_i_1574_11031)">
<path d="M39.543 1.05175C43.2153 1.33423 50.5594 9.39736 53.7411 14.1347C53.7688 14.1208 53.7962 14.1072 53.8233 14.0938C54.4586 13.7787 54.8994 13.5887 54.8994 13.5887C51.4021 8.31515 42.1305 -0.41166 39.2092 0.384956C36.8503 1.0282 32.5367 17.0753 31.8943 27.0906C31.6535 30.8449 31.6535 34.4352 31.6535 34.4352C33.7623 30.3594 36.3874 27.0926 38.2973 24.9998C36.5384 20.7486 36.8801 0.84691 39.543 1.05175Z" fill="black"/>
<path d="M53.7411 14.1347C53.7411 14.1347 54.7528 15.7399 55.2338 15.4061C55.7147 15.0722 54.8994 13.5887 54.8994 13.5887C54.8994 13.5887 54.4586 13.7787 53.8233 14.0938L53.7411 14.1347Z" fill="black"/>
<path d="M109.65 20.7488C109.438 12.8973 106.794 0.384081 104.643 0.384058C99.3744 0.384 90.7232 9.93462 88.6182 12.4025L87.9506 13.1652C88.321 13.3172 88.6789 13.4732 89.022 13.6329C89.253 13.3233 89.4911 13.0151 89.7268 12.7363C93.9598 7.72865 101.233 1.14899 104.309 1.38559C106.646 1.56536 106.98 21.7501 104.643 25.6544C106.438 27.731 108.152 30.0947 109.65 32.767C109.65 32.767 109.863 28.6003 109.65 20.7488Z" fill="black"/>
<path d="M87.9506 13.1652C87.9506 13.1652 86.2036 15.7409 87.2829 15.7409C87.4844 15.7409 87.9572 15.0909 88.5272 14.3071C88.6858 14.089 88.852 13.8606 89.022 13.6329C88.6789 13.4732 88.321 13.3172 87.9506 13.1652Z" fill="black"/>
<path d="M72.9274 10.0656C64.9151 10.0656 60.2409 11.2518 54.8994 13.5887C54.8994 13.5887 55.7147 15.0722 55.2338 15.4061C54.7528 15.7399 53.7411 14.1347 53.7411 14.1347C50.5594 9.39736 43.2153 1.33423 39.543 1.05175C36.8801 0.84691 36.5384 20.7486 38.2973 24.9998C36.3874 27.0926 33.7623 30.3594 31.6535 34.4352C30.5013 36.6621 29.5032 39.1304 28.8599 41.7808C25.0849 57.3348 30.7588 70.8846 43.5491 80.5068C52.4953 87.2371 62.5786 87.8514 71.2582 87.8514C76.2663 87.8514 89.4788 87.5176 99.3959 80.1693C119.666 65.15 113.277 41.9449 111.987 38.4425C111.83 38.0175 111.685 37.6119 111.545 37.2207C110.968 35.61 110.478 34.2433 109.65 32.767C108.152 30.0947 106.438 27.731 104.643 25.6544C106.98 21.7501 106.646 1.56536 104.309 1.38559C101.233 1.14899 93.9598 7.72865 89.7268 12.7363C89.4911 13.0151 89.253 13.3233 89.022 13.6329C88.852 13.8606 88.6858 14.089 88.5272 14.3071C87.9572 15.0909 87.4844 15.7409 87.2829 15.7409C86.2036 15.7409 87.9506 13.1652 87.9506 13.1652C83.4446 11.3168 77.0801 10.0656 72.9274 10.0656Z" fill="#A289CB"/>
</g>
<path d="M91.9567 15.4071C91.2183 14.7817 90.2089 14.1853 89.022 13.6329M54.8994 13.5887C60.2409 11.2518 64.9151 10.0656 72.9274 10.0656C77.0801 10.0656 83.4446 11.3168 87.9506 13.1652M54.8994 13.5887C51.4021 8.31515 42.1305 -0.41166 39.2092 0.384956C36.8503 1.0282 32.5367 17.0753 31.8943 27.0906C31.6535 30.8449 31.6535 34.4352 31.6535 34.4352M54.8994 13.5887C54.8994 13.5887 55.7147 15.0722 55.2338 15.4061C54.7528 15.7399 53.7411 14.1347 53.7411 14.1347M53.7411 14.1347C53.7688 14.1208 53.7962 14.1072 53.8233 14.0938C54.4586 13.7787 54.8994 13.5887 54.8994 13.5887M109.65 32.767C109.65 32.767 109.863 28.6003 109.65 20.7488C109.438 12.8973 106.794 0.384081 104.643 0.384058C99.3744 0.384 90.7232 9.93462 88.6182 12.4025L87.9506 13.1652M40.8782 22.4178C40.8782 22.4178 39.8129 23.3392 38.2973 24.9998C36.3874 27.0926 33.7623 30.3594 31.6535 34.4352C30.5013 36.6621 29.5032 39.1304 28.8599 41.7808C25.0849 57.3348 30.7588 70.8846 43.5491 80.5068C52.4953 87.2371 62.5786 87.8514 71.2582 87.8514C76.2663 87.8514 89.4788 87.5176 99.3959 80.1693C119.666 65.15 113.277 41.9449 111.987 38.4425C111.83 38.0175 111.685 37.6119 111.545 37.2207C110.968 35.61 110.478 34.2433 109.65 32.767C108.152 30.0947 106.438 27.731 104.643 25.6544C103.984 24.8921 103.314 24.1684 102.64 23.4824M50.5594 16.0748C51.5505 15.2821 52.8947 14.5543 53.8233 14.0938M87.9506 13.1652C87.9506 13.1652 86.2036 15.7409 87.2829 15.7409C87.4844 15.7409 87.9572 15.0909 88.5272 14.3071C88.6858 14.089 88.852 13.8606 89.022 13.6329M87.9506 13.1652C88.321 13.3172 88.6789 13.4732 89.022 13.6329M104.643 25.6544C106.98 21.7501 106.646 1.56536 104.309 1.38559C101.233 1.14899 93.9598 7.72865 89.7268 12.7363C89.4911 13.0151 89.253 13.3233 89.022 13.6329M53.7411 14.1347C50.5594 9.39736 43.2153 1.33423 39.543 1.05175C36.8801 0.84691 36.5384 20.7486 38.2973 24.9998M53.7411 14.1347L53.8233 14.0938" stroke="#1C1135" stroke-width="0.66769" stroke-linecap="round"/>
<path d="M99.0851 17.654C102.35 20.5013 103.868 21.0536 104.455 21.7892C106.513 18.0038 106.119 1.72839 104.048 1.56186C101.321 1.34269 94.3063 7.73955 90.5723 12.5985C90.3644 12.869 90.776 12.2982 90.5723 12.5985C90.5723 12.5985 95.8204 14.8068 99.0851 17.654Z" fill="url(#paint2_linear_1574_11031)"/>
<path d="M44.08 17.5845C41.0114 20.4793 38.6102 21.6192 38.0588 22.367C37.0572 19.3624 37.3911 1.40694 39.4213 1.2298C41.7311 1.02827 48.5733 7.50611 52.0807 12.4438C52.2759 12.7186 51.8893 12.1386 52.0807 12.4438C52.0807 12.4438 47.1485 14.6897 44.08 17.5845Z" fill="url(#paint3_linear_1574_11031)"/>
<path d="M43.7028 29.0488C42.2415 29.2382 42.4234 36.4093 41.5101 37.4712C40.5969 38.5332 34.4392 40.0345 34.3866 41.4993C34.334 42.9641 39.9756 45.1612 40.5969 46.2597C41.2181 47.3583 40.7246 53.1407 42.431 53.5835C44.1375 54.0263 47.6261 47.671 48.7692 47.3271C49.9122 46.9831 56.57 50.2483 57.5837 49.0335C58.5975 47.8187 54.7956 43.3303 54.6613 42.2317C54.5269 41.1331 58.2345 36.3727 57.5837 35.2741C56.933 34.1755 51.0082 35.2245 49.9122 34.7248C48.8163 34.2251 45.164 28.8595 43.7028 29.0488Z" fill="#C3AEE6"/>
<g filter="url(#filter2_f_1574_11031)">
<circle cx="99.1521" cy="63.7649" r="4.00614" fill="#CD91D7"/>
</g>
<g filter="url(#filter3_f_1574_11031)">
<circle cx="43.7337" cy="63.7649" r="4.00614" fill="#CD91D7"/>
</g>
<path d="M50.4102 56.144C50.4102 56.144 59.0351 60.4564 59.0351 61.2405C59.0351 62.0246 50.4102 65.945 50.4102 65.945M92.2422 55.752C92.2422 55.752 82.8332 60.4564 82.8332 61.6326C82.8332 62.4167 92.2422 65.945 92.2422 65.945" stroke="black" stroke-width="2.35225" stroke-linecap="round"/>
<path d="M62.4287 72.0356C62.4287 72.0356 63.945 69.7744 65.1406 69.7744C66.3361 69.7744 66.6577 72.0356 68.1295 72.0356C69.6012 72.0356 69.6466 69.7745 71.1183 69.7744C72.2578 69.7743 72.6867 72.0356 74.1072 72.0356C75.5789 72.0356 76.1994 69.7744 77.395 69.7744C78.5905 69.7744 79.7642 72.0356 79.7642 72.0356" stroke="black" stroke-width="1.20595" stroke-linecap="round"/>
<path d="M131.076 17.9298L133.92 15.0782M133.92 15.0782L136.779 12.2267M133.92 15.0782L131.076 12.2267M133.92 15.0782L136.779 17.9298M133.928 26.4846C140.228 26.4846 145.334 21.378 145.334 15.0782C145.334 8.77851 140.228 3.67188 133.928 3.67188C127.628 3.67188 122.521 8.77851 122.521 15.0782C122.521 17.1553 123.077 19.1047 124.048 20.7814L123.092 25.9143L128.225 24.9584C129.958 25.9609 131.926 26.4874 133.928 26.4846Z" stroke="#5D3C98" stroke-width="2.00307" stroke-linecap="round" stroke-linejoin="round"/>
<defs>
<filter id="filter0_i_1574_11031" x="27.3755" y="-4.67383" width="86.9165" height="92.8594" filterUnits="userSpaceOnUse" color-interpolation-filters="sRGB">
<feFlood flood-opacity="0" result="BackgroundImageFix"/>
<feBlend mode="normal" in="SourceGraphic" in2="BackgroundImageFix" result="shape"/>
<feColorMatrix in="SourceAlpha" type="matrix" values="0 0 0 0 0 0 0 0 0 0 0 0 0 0 0 0 0 0 127 0" result="hardAlpha"/>
<feOffset dy="-4.67383"/>
<feGaussianBlur stdDeviation="3.33845"/>
<feComposite in2="hardAlpha" operator="arithmetic" k2="-1" k3="1"/>
<feColorMatrix type="matrix" values="0 0 0 0 0.380392 0 0 0 0 0.25098 0 0 0 0 0.607843 0 0 0 0.38 0"/>
<feBlend mode="normal" in2="shape" result="effect1_innerShadow_1574_11031"/>
</filter>
<filter id="filter1_i_1574_11031" x="27.3755" y="-4.67383" width="86.9165" height="92.8594" filterUnits="userSpaceOnUse" color-interpolation-filters="sRGB">
<feFlood flood-opacity="0" result="BackgroundImageFix"/>
<feBlend mode="normal" in="SourceGraphic" in2="BackgroundImageFix" result="shape"/>
<feColorMatrix in="SourceAlpha" type="matrix" values="0 0 0 0 0 0 0 0 0 0 0 0 0 0 0 0 0 0 127 0" result="hardAlpha"/>
<feOffset dy="-4.67383"/>
<feGaussianBlur stdDeviation="3.33845"/>
<feComposite in2="hardAlpha" operator="arithmetic" k2="-1" k3="1"/>
<feColorMatrix type="matrix" values="0 0 0 0 0.380392 0 0 0 0 0.25098 0 0 0 0 0.607843 0 0 0 0.38 0"/>
<feBlend mode="normal" in2="shape" result="effect1_innerShadow_1574_11031"/>
</filter>
<filter id="filter2_f_1574_11031" x="92.4752" y="57.088" width="13.3537" height="13.3542" filterUnits="userSpaceOnUse" color-interpolation-filters="sRGB">
<feFlood flood-opacity="0" result="BackgroundImageFix"/>
<feBlend mode="normal" in="SourceGraphic" in2="BackgroundImageFix" result="shape"/>
<feGaussianBlur stdDeviation="1.33538" result="effect1_foregroundBlur_1574_11031"/>
</filter>
<filter id="filter3_f_1574_11031" x="37.0568" y="57.088" width="13.3537" height="13.3542" filterUnits="userSpaceOnUse" color-interpolation-filters="sRGB">
<feFlood flood-opacity="0" result="BackgroundImageFix"/>
<feBlend mode="normal" in="SourceGraphic" in2="BackgroundImageFix" result="shape"/>
<feGaussianBlur stdDeviation="1.33538" result="effect1_foregroundBlur_1574_11031"/>
</filter>
<linearGradient id="paint0_linear_1574_11031" x1="105.767" y1="0.182977" x2="91.9027" y2="22.2069" gradientUnits="userSpaceOnUse">
<stop offset="0.137215" stop-color="#543291"/>
<stop offset="0.401763" stop-color="#A087CA"/>
<stop offset="1" stop-color="#A087CA"/>
</linearGradient>
<linearGradient id="paint1_linear_1574_11031" x1="37.806" y1="-0.171259" x2="52.3454" y2="21.1765" gradientUnits="userSpaceOnUse">
<stop offset="0.137215" stop-color="#543291"/>
<stop offset="0.401763" stop-color="#A087CA"/>
<stop offset="1" stop-color="#A087CA"/>
</linearGradient>
<linearGradient id="paint2_linear_1574_11031" x1="105.767" y1="0.182977" x2="91.9027" y2="22.2069" gradientUnits="userSpaceOnUse">
<stop offset="0.137215" stop-color="#543291"/>
<stop offset="0.401763" stop-color="#A087CA"/>
<stop offset="1" stop-color="#A087CA"/>
</linearGradient>
<linearGradient id="paint3_linear_1574_11031" x1="37.806" y1="-0.171259" x2="52.3454" y2="21.1765" gradientUnits="userSpaceOnUse">
<stop offset="0.137215" stop-color="#543291"/>
<stop offset="0.401763" stop-color="#A087CA"/>
<stop offset="1" stop-color="#A087CA"/>
</linearGradient>
</defs>
</svg>
