<svg width="253" height="163" viewBox="0 0 253 163" fill="none" xmlns="http://www.w3.org/2000/svg">
<g filter="url(#filter0_i_1202_6837)">
<path d="M72.9836 1.94769C79.7608 2.46901 93.3144 17.3496 99.1862 26.0924C99.2374 26.0668 99.288 26.0416 99.3379 26.0169C100.51 25.4353 101.324 25.0847 101.324 25.0847C94.8696 15.3524 77.7589 -0.753047 72.3675 0.717116C68.0141 1.90422 60.0533 31.5193 58.8677 50.0027C58.4233 56.9312 58.4233 63.5572 58.4233 63.5572C62.3153 56.0351 67.1598 50.0063 70.6847 46.1441C67.4386 38.2984 68.0692 1.56965 72.9836 1.94769Z" fill="black"/>
<path d="M99.1862 26.0924C99.1862 26.0924 101.053 29.0548 101.941 28.4387C102.829 27.8226 101.324 25.0847 101.324 25.0847C101.324 25.0847 100.51 25.4353 99.3379 26.0169L99.1862 26.0924Z" fill="black"/>
<path d="M202.367 38.2987C201.975 23.8087 197.095 0.715501 193.126 0.715457C183.403 0.715352 167.437 18.3411 163.552 22.8956L162.32 24.3032C163.004 24.5837 163.664 24.8716 164.297 25.1663C164.724 24.5949 165.163 24.0261 165.598 23.5117C173.41 14.27 186.833 2.12715 192.51 2.5638C196.822 2.89555 197.439 40.1467 193.126 47.3522C196.439 51.1845 199.601 55.5466 202.367 60.4785C202.367 60.4785 202.759 52.7887 202.367 38.2987Z" fill="black"/>
<path d="M162.32 24.3032C162.32 24.3032 159.096 29.0567 161.088 29.0567C161.46 29.0567 162.332 27.857 163.384 26.4106C163.677 26.0081 163.984 25.5865 164.297 25.1663C163.664 24.8716 163.004 24.5837 162.32 24.3032Z" fill="black"/>
<path d="M134.595 18.5828C119.808 18.5828 111.182 20.7719 101.324 25.0847C101.324 25.0847 102.829 27.8226 101.941 28.4387C101.053 29.0548 99.1862 26.0924 99.1862 26.0924C93.3144 17.3496 79.7608 2.46901 72.9836 1.94769C68.0692 1.56965 67.4386 38.2984 70.6847 46.1441C67.1598 50.0063 62.3153 56.0351 58.4233 63.5572C56.2969 67.6669 54.4549 72.2223 53.2678 77.1136C46.3011 105.819 56.7723 130.825 80.3768 148.583C96.8871 161.004 115.496 162.137 131.514 162.137C140.757 162.137 165.14 161.521 183.443 147.96C220.851 120.242 209.061 77.4164 206.679 70.9527C206.39 70.1683 206.122 69.4197 205.864 68.6978C204.798 65.7252 203.895 63.203 202.367 60.4785C199.601 55.5466 196.439 51.1845 193.126 47.3522C197.439 40.1467 196.822 2.89555 192.51 2.5638C186.833 2.12715 173.41 14.27 165.598 23.5117C165.163 24.0261 164.724 24.5949 164.297 25.1663C163.984 25.5865 163.677 26.0081 163.384 26.4106C162.332 27.857 161.46 29.0567 161.088 29.0567C159.096 29.0567 162.32 24.3032 162.32 24.3032C154.004 20.8919 142.259 18.5828 134.595 18.5828Z" fill="#A289CB"/>
</g>
<path d="M169.713 28.4406C168.351 27.2865 166.488 26.1858 164.297 25.1663M101.324 25.0847C111.182 20.7719 119.808 18.5828 134.595 18.5828C142.259 18.5828 154.004 20.8919 162.32 24.3032M101.324 25.0847C94.8696 15.3524 77.7589 -0.753047 72.3675 0.717116C68.0141 1.90422 60.0533 31.5193 58.8677 50.0027C58.4233 56.9312 58.4233 63.5572 58.4233 63.5572M101.324 25.0847C101.324 25.0847 102.829 27.8226 101.941 28.4387C101.053 29.0548 99.1862 26.0924 99.1862 26.0924M99.1862 26.0924C99.2374 26.0668 99.288 26.0416 99.3379 26.0169C100.51 25.4353 101.324 25.0847 101.324 25.0847M202.367 60.4785C202.367 60.4785 202.759 52.7887 202.367 38.2987C201.975 23.8087 197.095 0.715501 193.126 0.715458C183.403 0.715352 167.437 18.3411 163.552 22.8956L162.32 24.3032M75.4476 41.379C75.4476 41.379 73.4816 43.0795 70.6847 46.1441C67.1598 50.0063 62.3153 56.0351 58.4233 63.5572C56.2969 67.6669 54.4549 72.2222 53.2678 77.1136C46.3011 105.819 56.7723 130.825 80.3768 148.583C96.8871 161.004 115.496 162.137 131.514 162.137C140.757 162.137 165.14 161.521 183.443 147.96C220.851 120.242 209.061 77.4163 206.679 70.9527C206.39 70.1683 206.122 69.4197 205.864 68.6978C204.798 65.7252 203.895 63.203 202.367 60.4785C199.601 55.5466 196.438 51.1845 193.126 47.3522C191.91 45.9452 190.673 44.6097 189.429 43.3436M93.3144 29.6728C95.1435 28.21 97.6242 26.8668 99.3379 26.0169M162.32 24.3032C162.32 24.3032 159.096 29.0567 161.088 29.0567C161.46 29.0567 162.332 27.857 163.384 26.4106C163.677 26.0081 163.984 25.5865 164.297 25.1663M162.32 24.3032C163.004 24.5837 163.664 24.8716 164.297 25.1663M193.126 47.3522C197.439 40.1467 196.822 2.89555 192.51 2.5638C186.833 2.12715 173.41 14.27 165.598 23.5117C165.163 24.0261 164.724 24.5949 164.297 25.1663M99.1862 26.0924C93.3144 17.3496 79.7608 2.46901 72.9836 1.94768C68.0692 1.56965 67.4386 38.2984 70.6847 46.1441M99.1862 26.0924L99.3379 26.0169" stroke="#1C1135" stroke-width="1.24645" stroke-linecap="round"/>
<path d="M182.869 32.5893C188.894 37.8439 191.696 38.8632 192.779 40.2207C196.576 33.2349 195.85 3.19838 192.027 2.89106C186.995 2.48656 174.049 14.292 167.158 23.2593C166.775 23.7585 167.534 22.7051 167.158 23.2593C167.158 23.2593 176.844 27.3347 182.869 32.5893Z" fill="url(#paint0_linear_1202_6837)"/>
<path d="M81.3564 32.4602C75.6934 37.8026 71.2619 39.9062 70.2442 41.2862C68.3958 35.7412 69.0119 2.60433 72.7587 2.27742C77.0214 1.90549 89.6487 13.8604 96.1217 22.9729C96.482 23.4801 95.7686 22.4096 96.1217 22.9729C96.1217 22.9729 87.0193 27.1178 81.3564 32.4602Z" fill="url(#paint1_linear_1202_6837)"/>
<path d="M10.6898 97.4664C6.37704 100.948 4.52875 102.395 0.832072 106.708C1.83442 107.209 4.33689 106.009 6.99317 106.092C9.91888 106.183 11.8332 106.477 14.3865 107.324C18.6955 108.753 20.7096 110.637 24.2444 113.485C28.3531 116.797 32.254 122.727 33.4861 123.343C33.2455 117.328 33.1307 118.154 32.87 112.139C32.6612 109.561 32.516 101.541 32.87 97.4664C33.2295 93.3284 34.7183 88.8408 34.7183 87.6086C34.7183 86.698 33.7946 83.9118 32.2539 83.9118C31.0216 83.9118 25.4771 86.6371 21.7799 88.8408C16.9021 91.7482 15.2221 93.8081 10.6898 97.4664Z" fill="#A974D2"/>
<path d="M45.1922 95.0019C40.2633 91.9213 39.6472 88.8408 38.4151 88.8408C37.1829 88.8407 36.1331 94.0048 35.1257 97.4664C33.5056 103.033 33.2773 107.097 32.87 112.139C33.1307 118.154 33.2455 117.328 33.4861 123.343C34.7183 123.959 38.8585 119.974 42.7278 119.03C47.4029 117.89 50.2867 118.347 55.05 119.03C60.0231 119.744 67.3723 123.343 67.3723 123.343C67.3723 123.343 61.4787 116.615 58.7467 111.637C56.2532 107.093 53.8179 99.3147 53.8179 99.3147C53.8179 99.3147 48.3 96.9443 45.1922 95.0019Z" fill="#A974D2"/>
<path d="M50.7373 88.2246C50.7373 88.2246 45.573 85.6867 42.7279 82.6798C39.9756 79.771 37.1829 74.0543 35.3345 73.4381C33.4899 72.8231 29.1569 74.8213 25.499 76.5082L25.4767 76.5185C18.7885 79.6028 13.7705 83.9119 9.45772 88.8408C3.99434 95.0846 -0.400244 106.092 0.832072 106.708C4.52875 102.395 6.37704 100.948 10.6898 97.4664C15.2221 93.8081 16.9021 91.7482 21.7799 88.8408C25.4771 86.6371 31.0216 83.9118 32.2539 83.9118C33.7946 83.9118 34.7183 86.698 34.7183 87.6086C34.7183 88.8408 33.2295 93.3284 32.87 97.4664C32.516 101.541 32.6612 109.561 32.87 112.139C33.2773 107.097 33.5056 103.033 35.1257 97.4664C36.1331 94.0048 37.1829 88.8407 38.4151 88.8408C39.6472 88.8408 40.2633 91.9213 45.1922 95.0019C48.3 96.9443 53.8179 99.3147 53.8179 99.3147L50.7373 88.2246Z" fill="#43277B"/>
<path d="M25.4767 76.5185C18.7885 79.6028 13.7705 83.9119 9.45772 88.8408C3.99434 95.0846 -0.400244 106.092 0.832072 106.708M25.4767 76.5185L25.499 76.5082M53.8179 99.3147L50.7373 88.2246C50.7373 88.2246 45.573 85.6867 42.7279 82.6798C39.9756 79.771 37.1829 74.0543 35.3345 73.4381C33.4899 72.8231 29.1569 74.8213 25.499 76.5082C25.4916 76.5116 25.4841 76.5151 25.4767 76.5185M0.832072 106.708C4.52875 102.395 6.37704 100.948 10.6898 97.4664C15.2221 93.8081 16.9021 91.7482 21.7799 88.8408C25.4771 86.6371 31.0216 83.9118 32.2539 83.9118C33.7946 83.9118 34.7183 86.698 34.7183 87.6086C34.7183 88.8408 33.2295 93.3284 32.87 97.4664C32.516 101.541 32.6612 109.561 32.87 112.139M0.832072 106.708C1.83442 107.209 4.33689 106.009 6.99317 106.092C9.91888 106.183 11.8332 106.477 14.3865 107.324C18.6955 108.753 20.7096 110.637 24.2444 113.485C28.3531 116.797 32.254 122.727 33.4861 123.343M32.87 112.139C33.1307 118.154 33.2455 117.328 33.4861 123.343M32.87 112.139C33.2773 107.097 33.5056 103.033 35.1257 97.4664C36.1331 94.0048 37.1829 88.8407 38.4151 88.8408C39.6472 88.8408 40.2633 91.9213 45.1922 95.0019C48.3 96.9443 53.8179 99.3147 53.8179 99.3147M53.8179 99.3147C53.8179 99.3147 56.2532 107.093 58.7467 111.637C61.4787 116.615 67.3723 123.343 67.3723 123.343C67.3723 123.343 60.0231 119.744 55.05 119.03C50.2867 118.347 47.4029 117.89 42.7278 119.03C38.8585 119.974 34.7183 123.959 33.4861 123.343" stroke="#0D0C12" stroke-width="1.24645" stroke-linecap="round"/>
<path d="M215.856 82.6801C213.548 85.2038 209.078 88.225 209.078 88.225L207.23 97.4664C207.23 97.4664 210.185 95.8831 212.159 94.3858C214.057 92.9463 216.472 90.0726 217.088 90.073C218.936 90.0743 220.785 103.011 220.785 108.556C220.785 100.376 220.785 87.609 220.785 87.609C220.785 86.0684 221.787 84.0414 223.249 84.5284C226.946 85.7602 230.322 87.7842 234.955 91.3056C238.344 93.8814 240.581 95.6785 243.581 98.699C246.341 101.478 248.51 104.244 250.974 106.709C253.439 106.092 247.939 95.008 243.581 88.8412C241.403 85.7603 236.187 80.6359 232.491 78.3672C228.339 75.819 223.865 73.4379 221.401 74.0545C219.442 74.5447 218.558 79.7247 215.856 82.6801Z" fill="#442679"/>
<path d="M234.955 91.3056C230.322 87.7842 226.946 85.7602 223.249 84.5284C221.787 84.0414 220.785 86.0684 220.785 87.609C220.785 87.609 220.785 100.376 220.785 108.556C220.785 114.717 220.169 119.031 219.552 123.959C222.633 119.03 226.55 114.718 230.026 112.253C231.875 110.943 235.335 108.448 239.268 107.324C243.581 106.092 247.278 106.092 250.974 106.709C248.51 104.244 246.341 101.478 243.581 98.699C240.581 95.6785 238.344 93.8814 234.955 91.3056Z" fill="#AA74D2"/>
<path d="M220.785 108.556C220.785 103.011 218.936 90.0743 217.088 90.073C216.472 90.0726 214.057 92.9463 212.159 94.3858C210.185 95.8831 207.23 97.4664 207.23 97.4664L205.382 103.011C204.155 106.692 203.028 108.289 201.069 111.637C198.944 115.27 195.524 120.879 195.524 120.879C195.524 120.879 203.798 118.217 209.078 119.031C213.45 119.704 216.472 121.495 219.552 123.959C220.169 119.031 220.785 114.717 220.785 108.556Z" fill="#AA74D2"/>
<path d="M205.382 103.011C204.155 106.692 203.028 108.289 201.069 111.637C198.944 115.27 195.524 120.879 195.524 120.879C195.524 120.879 203.798 118.217 209.078 119.031C213.45 119.704 216.472 121.495 219.552 123.959C222.633 119.03 226.55 114.718 230.026 112.253C231.875 110.943 235.335 108.448 239.268 107.324C243.581 106.092 247.278 106.092 250.974 106.709C253.439 106.092 247.939 95.008 243.581 88.8412C241.403 85.7603 236.187 80.6359 232.491 78.3672C228.339 75.819 223.865 73.4379 221.401 74.0545C219.442 74.5447 218.558 79.7247 215.856 82.6801C213.548 85.2038 209.078 88.225 209.078 88.225L207.23 97.4664M250.974 106.709C248.51 104.244 246.341 101.478 243.581 98.699C240.581 95.6785 238.344 93.8814 234.955 91.3056C230.322 87.7842 226.946 85.7602 223.249 84.5284C221.787 84.0414 220.785 86.0684 220.785 87.609M220.785 87.609C220.785 93.7697 220.785 102.396 220.785 108.556M220.785 87.609C220.785 87.609 220.785 100.376 220.785 108.556M220.785 108.556C220.785 103.011 218.936 90.0743 217.088 90.073C216.472 90.0726 214.057 92.9463 212.159 94.3858C210.185 95.8831 207.23 97.4664 207.23 97.4664M220.785 108.556C220.785 114.717 220.169 119.031 219.552 123.959M207.23 97.4664C207.23 97.4664 206.158 100.684 205.382 103.011M207.23 97.4664L205.382 103.011" stroke="#0D0C12" stroke-width="1.24645" stroke-linecap="round"/>
<path d="M10.6898 97.4664C6.37704 100.948 4.52875 102.395 0.832072 106.708C1.83442 107.209 4.33689 106.009 6.99317 106.092C9.91888 106.183 11.8332 106.477 14.3865 107.324C18.6955 108.753 20.7096 110.637 24.2444 113.485C28.3531 116.797 32.254 122.727 33.4861 123.343C33.2455 117.328 33.1307 118.154 32.87 112.139C32.6612 109.561 32.516 101.541 32.87 97.4664C33.2295 93.3284 34.7183 88.8408 34.7183 87.6086C34.7183 86.698 33.7946 83.9118 32.2539 83.9118C31.0216 83.9118 25.4771 86.6371 21.7799 88.8408C16.9021 91.7482 15.2221 93.8081 10.6898 97.4664Z" fill="#A974D2"/>
<path d="M45.1922 95.0019C40.2633 91.9213 39.6472 88.8408 38.4151 88.8408C37.1829 88.8407 36.1331 94.0048 35.1257 97.4664C33.5056 103.033 33.2773 107.097 32.87 112.139C33.1307 118.154 33.2455 117.328 33.4861 123.343C34.7183 123.959 38.8585 119.974 42.7278 119.03C47.4029 117.89 50.2867 118.347 55.05 119.03C60.0231 119.744 67.3723 123.343 67.3723 123.343C67.3723 123.343 61.4787 116.615 58.7467 111.637C56.2532 107.093 53.8179 99.3147 53.8179 99.3147C53.8179 99.3147 48.3 96.9443 45.1922 95.0019Z" fill="#A974D2"/>
<path d="M50.7373 88.2246C50.7373 88.2246 45.573 85.6867 42.7279 82.6798C39.9756 79.771 37.1829 74.0543 35.3345 73.4381C33.4899 72.8231 29.1569 74.8213 25.499 76.5082L25.4767 76.5185C18.7885 79.6028 13.7705 83.9119 9.45772 88.8408C3.99434 95.0846 -0.400244 106.092 0.832072 106.708C4.52875 102.395 6.37704 100.948 10.6898 97.4664C15.2221 93.8081 16.9021 91.7482 21.7799 88.8408C25.4771 86.6371 31.0216 83.9118 32.2539 83.9118C33.7946 83.9118 34.7183 86.698 34.7183 87.6086C34.7183 88.8408 33.2295 93.3284 32.87 97.4664C32.516 101.541 32.6612 109.561 32.87 112.139C33.2773 107.097 33.5056 103.033 35.1257 97.4664C36.1331 94.0048 37.1829 88.8407 38.4151 88.8408C39.6472 88.8408 40.2633 91.9213 45.1922 95.0019C48.3 96.9443 53.8179 99.3147 53.8179 99.3147L50.7373 88.2246Z" fill="#43277B"/>
<path d="M25.4767 76.5185C18.7885 79.6028 13.7705 83.9119 9.45772 88.8408C3.99434 95.0846 -0.400244 106.092 0.832072 106.708M25.4767 76.5185L25.499 76.5082M53.8179 99.3147L50.7373 88.2246C50.7373 88.2246 45.573 85.6867 42.7279 82.6798C39.9756 79.771 37.1829 74.0543 35.3345 73.4381C33.4899 72.8231 29.1569 74.8213 25.499 76.5082C25.4916 76.5116 25.4841 76.5151 25.4767 76.5185M0.832072 106.708C4.52875 102.395 6.37704 100.948 10.6898 97.4664C15.2221 93.8081 16.9021 91.7482 21.7799 88.8408C25.4771 86.6371 31.0216 83.9118 32.2539 83.9118C33.7946 83.9118 34.7183 86.698 34.7183 87.6086C34.7183 88.8408 33.2295 93.3284 32.87 97.4664C32.516 101.541 32.6612 109.561 32.87 112.139M0.832072 106.708C1.83442 107.209 4.33689 106.009 6.99317 106.092C9.91888 106.183 11.8332 106.477 14.3865 107.324C18.6955 108.753 20.7096 110.637 24.2444 113.485C28.3531 116.797 32.254 122.727 33.4861 123.343M32.87 112.139C33.1307 118.154 33.2455 117.328 33.4861 123.343M32.87 112.139C33.2773 107.097 33.5056 103.033 35.1257 97.4664C36.1331 94.0048 37.1829 88.8407 38.4151 88.8408C39.6472 88.8408 40.2633 91.9213 45.1922 95.0019C48.3 96.9443 53.8179 99.3147 53.8179 99.3147M53.8179 99.3147C53.8179 99.3147 56.2532 107.093 58.7467 111.637C61.4787 116.615 67.3723 123.343 67.3723 123.343C67.3723 123.343 60.0231 119.744 55.05 119.03C50.2867 118.347 47.4029 117.89 42.7278 119.03C38.8585 119.974 34.7183 123.959 33.4861 123.343" stroke="#0D0C12" stroke-width="1.24645" stroke-linecap="round"/>
<path d="M215.856 82.6801C213.548 85.2038 209.078 88.225 209.078 88.225L207.23 97.4664C207.23 97.4664 210.185 95.8831 212.159 94.3858C214.057 92.9463 216.472 90.0726 217.088 90.073C218.936 90.0743 220.785 103.011 220.785 108.556C220.785 100.376 220.785 87.609 220.785 87.609C220.785 86.0684 221.787 84.0414 223.249 84.5284C226.946 85.7602 230.322 87.7842 234.955 91.3056C238.344 93.8814 240.581 95.6785 243.581 98.699C246.341 101.478 248.51 104.244 250.974 106.709C253.439 106.092 247.939 95.008 243.581 88.8412C241.403 85.7603 236.187 80.6359 232.491 78.3672C228.339 75.819 223.865 73.4379 221.401 74.0545C219.442 74.5447 218.558 79.7247 215.856 82.6801Z" fill="#442679"/>
<path d="M234.955 91.3056C230.322 87.7842 226.946 85.7602 223.249 84.5284C221.787 84.0414 220.785 86.0684 220.785 87.609C220.785 87.609 220.785 100.376 220.785 108.556C220.785 114.717 220.169 119.031 219.552 123.959C222.633 119.03 226.55 114.718 230.026 112.253C231.875 110.943 235.335 108.448 239.268 107.324C243.581 106.092 247.278 106.092 250.974 106.709C248.51 104.244 246.341 101.478 243.581 98.699C240.581 95.6785 238.344 93.8814 234.955 91.3056Z" fill="#AA74D2"/>
<path d="M220.785 108.556C220.785 103.011 218.936 90.0743 217.088 90.073C216.472 90.0726 214.057 92.9463 212.159 94.3858C210.185 95.8831 207.23 97.4664 207.23 97.4664L205.382 103.011C204.155 106.692 203.028 108.289 201.069 111.637C198.944 115.27 195.524 120.879 195.524 120.879C195.524 120.879 203.798 118.217 209.078 119.031C213.45 119.704 216.472 121.495 219.552 123.959C220.169 119.031 220.785 114.717 220.785 108.556Z" fill="#AA74D2"/>
<path d="M205.382 103.011C204.155 106.692 203.028 108.289 201.069 111.637C198.944 115.27 195.524 120.879 195.524 120.879C195.524 120.879 203.798 118.217 209.078 119.031C213.45 119.704 216.472 121.495 219.552 123.959C222.633 119.03 226.55 114.718 230.026 112.253C231.875 110.943 235.335 108.448 239.268 107.324C243.581 106.092 247.278 106.092 250.974 106.709C253.439 106.092 247.939 95.008 243.581 88.8412C241.403 85.7603 236.187 80.6359 232.491 78.3672C228.339 75.819 223.865 73.4379 221.401 74.0545C219.442 74.5447 218.558 79.7247 215.856 82.6801C213.548 85.2038 209.078 88.225 209.078 88.225L207.23 97.4664M250.974 106.709C248.51 104.244 246.341 101.478 243.581 98.699C240.581 95.6785 238.344 93.8814 234.955 91.3056C230.322 87.7842 226.946 85.7602 223.249 84.5284C221.787 84.0414 220.785 86.0684 220.785 87.609M220.785 87.609C220.785 93.7697 220.785 102.396 220.785 108.556M220.785 87.609C220.785 87.609 220.785 100.376 220.785 108.556M220.785 108.556C220.785 103.011 218.936 90.0743 217.088 90.073C216.472 90.0726 214.057 92.9463 212.159 94.3858C210.185 95.8831 207.23 97.4664 207.23 97.4664M220.785 108.556C220.785 114.717 220.169 119.031 219.552 123.959M207.23 97.4664C207.23 97.4664 206.158 100.684 205.382 103.011M207.23 97.4664L205.382 103.011" stroke="#0D0C12" stroke-width="1.24645" stroke-linecap="round"/>
<g filter="url(#filter1_i_1202_6837)">
<path d="M72.9836 1.94769C79.7608 2.46901 93.3144 17.3496 99.1862 26.0924C99.2374 26.0668 99.288 26.0416 99.3379 26.0169C100.51 25.4353 101.324 25.0847 101.324 25.0847C94.8696 15.3524 77.7589 -0.753047 72.3675 0.717116C68.0141 1.90422 60.0533 31.5193 58.8677 50.0027C58.4233 56.9312 58.4233 63.5572 58.4233 63.5572C62.3153 56.0351 67.1598 50.0063 70.6847 46.1441C67.4386 38.2984 68.0692 1.56965 72.9836 1.94769Z" fill="black"/>
<path d="M99.1862 26.0924C99.1862 26.0924 101.053 29.0548 101.941 28.4387C102.829 27.8226 101.324 25.0847 101.324 25.0847C101.324 25.0847 100.51 25.4353 99.3379 26.0169L99.1862 26.0924Z" fill="black"/>
<path d="M202.367 38.2987C201.975 23.8087 197.095 0.715501 193.126 0.715457C183.403 0.715352 167.437 18.3411 163.552 22.8956L162.32 24.3032C163.004 24.5837 163.664 24.8716 164.297 25.1663C164.724 24.5949 165.163 24.0261 165.598 23.5117C173.41 14.27 186.833 2.12715 192.51 2.5638C196.822 2.89555 197.439 40.1467 193.126 47.3522C196.439 51.1845 199.601 55.5466 202.367 60.4785C202.367 60.4785 202.759 52.7887 202.367 38.2987Z" fill="black"/>
<path d="M162.32 24.3032C162.32 24.3032 159.096 29.0567 161.088 29.0567C161.46 29.0567 162.332 27.857 163.384 26.4106C163.677 26.0081 163.984 25.5865 164.297 25.1663C163.664 24.8716 163.004 24.5837 162.32 24.3032Z" fill="black"/>
<path d="M134.595 18.5828C119.808 18.5828 111.182 20.7719 101.324 25.0847C101.324 25.0847 102.829 27.8226 101.941 28.4387C101.053 29.0548 99.1862 26.0924 99.1862 26.0924C93.3144 17.3496 79.7608 2.46901 72.9836 1.94769C68.0692 1.56965 67.4386 38.2984 70.6847 46.1441C67.1598 50.0063 62.3153 56.0351 58.4233 63.5572C56.2969 67.6669 54.4549 72.2223 53.2678 77.1136C46.3011 105.819 56.7723 130.825 80.3768 148.583C96.8871 161.004 115.496 162.137 131.514 162.137C140.757 162.137 165.14 161.521 183.443 147.96C220.851 120.242 209.061 77.4164 206.679 70.9527C206.39 70.1683 206.122 69.4197 205.864 68.6978C204.798 65.7252 203.895 63.203 202.367 60.4785C199.601 55.5466 196.439 51.1845 193.126 47.3522C197.439 40.1467 196.822 2.89555 192.51 2.5638C186.833 2.12715 173.41 14.27 165.598 23.5117C165.163 24.0261 164.724 24.5949 164.297 25.1663C163.984 25.5865 163.677 26.0081 163.384 26.4106C162.332 27.857 161.46 29.0567 161.088 29.0567C159.096 29.0567 162.32 24.3032 162.32 24.3032C154.004 20.8919 142.259 18.5828 134.595 18.5828Z" fill="#A289CB"/>
</g>
<path d="M169.713 28.4406C168.351 27.2865 166.488 26.1858 164.297 25.1663M101.324 25.0847C111.182 20.7719 119.808 18.5828 134.595 18.5828C142.259 18.5828 154.004 20.8919 162.32 24.3032M101.324 25.0847C94.8696 15.3524 77.7589 -0.753047 72.3675 0.717116C68.0141 1.90422 60.0533 31.5193 58.8677 50.0027C58.4233 56.9312 58.4233 63.5572 58.4233 63.5572M101.324 25.0847C101.324 25.0847 102.829 27.8226 101.941 28.4387C101.053 29.0548 99.1862 26.0924 99.1862 26.0924M99.1862 26.0924C99.2374 26.0668 99.288 26.0416 99.3379 26.0169C100.51 25.4353 101.324 25.0847 101.324 25.0847M202.367 60.4785C202.367 60.4785 202.759 52.7887 202.367 38.2987C201.975 23.8087 197.095 0.715501 193.126 0.715458C183.403 0.715352 167.437 18.3411 163.552 22.8956L162.32 24.3032M75.4476 41.379C75.4476 41.379 73.4816 43.0795 70.6847 46.1441C67.1598 50.0063 62.3153 56.0351 58.4233 63.5572C56.2969 67.6669 54.4549 72.2222 53.2678 77.1136C46.3011 105.819 56.7723 130.825 80.3768 148.583C96.8871 161.004 115.496 162.137 131.514 162.137C140.757 162.137 165.14 161.521 183.443 147.96C220.851 120.242 209.061 77.4163 206.679 70.9527C206.39 70.1683 206.122 69.4197 205.864 68.6978C204.798 65.7252 203.895 63.203 202.367 60.4785C199.601 55.5466 196.438 51.1845 193.126 47.3522C191.91 45.9452 190.673 44.6097 189.429 43.3436M93.3144 29.6728C95.1435 28.21 97.6242 26.8668 99.3379 26.0169M162.32 24.3032C162.32 24.3032 159.096 29.0567 161.088 29.0567C161.46 29.0567 162.332 27.857 163.384 26.4106C163.677 26.0081 163.984 25.5865 164.297 25.1663M162.32 24.3032C163.004 24.5837 163.664 24.8716 164.297 25.1663M193.126 47.3522C197.439 40.1467 196.822 2.89555 192.51 2.5638C186.833 2.12715 173.41 14.27 165.598 23.5117C165.163 24.0261 164.724 24.5949 164.297 25.1663M99.1862 26.0924C93.3144 17.3496 79.7608 2.46901 72.9836 1.94768C68.0692 1.56965 67.4386 38.2984 70.6847 46.1441M99.1862 26.0924L99.3379 26.0169" stroke="#1C1135" stroke-width="1.24645" stroke-linecap="round"/>
<path d="M182.869 32.5893C188.894 37.8439 191.696 38.8632 192.779 40.2207C196.576 33.2349 195.85 3.19838 192.027 2.89106C186.995 2.48656 174.049 14.292 167.158 23.2593C166.775 23.7585 167.534 22.7051 167.158 23.2593C167.158 23.2593 176.844 27.3347 182.869 32.5893Z" fill="url(#paint2_linear_1202_6837)"/>
<path d="M81.3564 32.4602C75.6934 37.8026 71.2619 39.9062 70.2442 41.2862C68.3958 35.7412 69.0119 2.60433 72.7587 2.27742C77.0214 1.90549 89.6487 13.8604 96.1217 22.9729C96.482 23.4801 95.7686 22.4096 96.1217 22.9729C96.1217 22.9729 87.0193 27.1178 81.3564 32.4602Z" fill="url(#paint3_linear_1202_6837)"/>
<path d="M80.6606 53.6174C77.9639 53.9669 78.2995 67.2011 76.6141 69.161C74.9286 71.1208 63.5647 73.8915 63.4675 76.5948C63.3704 79.2981 73.7821 83.3529 74.9286 85.3803C76.0752 87.4077 75.1644 98.0792 78.3136 98.8963C81.4628 99.7135 87.9012 87.9848 90.0107 87.3501C92.1202 86.7153 104.407 92.7412 106.278 90.4993C108.149 88.2574 101.132 79.9739 100.885 77.9464C100.637 75.919 107.479 67.1336 106.278 65.1062C105.077 63.0787 94.1428 65.0147 92.1202 64.0925C90.0977 63.1703 83.3573 53.2679 80.6606 53.6174Z" fill="#C3AEE6"/>
<g filter="url(#filter2_f_1202_6837)">
<circle cx="182.993" cy="117.684" r="7.39336" fill="#CD91D7"/>
</g>
<g filter="url(#filter3_f_1202_6837)">
<circle cx="80.7181" cy="117.684" r="7.39336" fill="#CD91D7"/>
</g>
<path fill-rule="evenodd" clip-rule="evenodd" d="M130.829 112.479C129.721 111.652 127.982 111.165 128.156 110.061C128.33 108.956 129.847 108.37 131.66 108.404C133.136 108.432 134.8 108.956 134.997 110.061C135.194 111.165 133.548 111.652 132.717 112.479C132.146 116.689 138.727 118.322 139.558 118.346C149.256 118.621 147.294 113.654 148.679 115.584C149.703 117.01 148.893 118.071 146.399 118.898C146.136 120.209 145.533 121.531 144.825 122.553C144.044 123.678 143.135 124.439 142.408 124.421C141.023 124.386 139.701 119.646 139.147 119.646C136.362 119.646 132.214 117.165 131.66 117.165C131.106 117.165 127.427 120.01 124.656 120.01C124.102 120.562 122.423 124.421 121.315 124.421C120.907 124.421 120.539 124.197 120.154 123.736C119.656 123.14 119.129 122.146 118.451 120.725C118.228 120.257 117.988 119.744 117.728 119.183C116.343 118.632 113.532 117.79 115.043 116.136C117.566 113.375 114.166 118.345 123.025 118.346C123.856 118.346 131.576 117.241 130.829 112.479ZM144.825 120.001C144.825 119.449 141.037 119.491 140.834 120.001C140.631 120.511 141.851 123.315 142.544 123.315C143.237 123.315 144.825 120.553 144.825 120.001ZM122.989 120.228C122.395 120.002 120.082 119.787 119.747 120.008C119.344 120.228 120.635 123.315 121.328 123.315C122.02 123.315 123.275 120.337 122.989 120.228Z" fill="black"/>
<path d="M140.834 120.001C141.037 119.491 144.825 119.449 144.825 120.001C144.825 120.553 143.237 123.315 142.544 123.315C141.851 123.315 140.631 120.511 140.834 120.001Z" fill="white"/>
<path d="M119.747 120.008C120.082 119.787 122.395 120.002 122.989 120.228C123.275 120.337 122.02 123.315 121.328 123.315C120.635 123.315 119.344 120.228 119.747 120.008Z" fill="white"/>
<path d="M122.305 131.95C124.003 135.162 127.041 138.048 132.476 138.111C139.057 138.188 142.131 133.627 143.566 129.35C143.566 129.35 140.486 123.94 133.093 123.94C125.699 123.94 122.305 131.95 122.305 131.95Z" fill="#F26C95"/>
<path d="M142.408 124.421C141.023 124.386 139.701 119.646 139.147 119.646C136.362 119.646 132.214 117.165 131.66 117.165C131.106 117.165 127.427 120.01 124.656 120.01C124.102 120.562 122.423 124.421 121.315 124.421C120.907 124.421 120.539 124.197 120.154 123.736C120.154 123.736 120.146 127.866 122.305 131.95C122.305 131.95 125.699 123.94 133.093 123.94C140.486 123.94 143.566 129.35 143.566 129.35C144.825 125.602 144.825 122.553 144.825 122.553C144.044 123.678 143.135 124.439 142.408 124.421Z" fill="#B62C60"/>
<path d="M146.399 118.898C146.136 120.209 145.533 121.531 144.825 122.553C144.825 122.553 144.825 125.602 143.566 129.35C142.131 133.627 139.057 138.188 132.476 138.111C127.041 138.048 124.003 135.162 122.305 131.95C120.146 127.866 120.154 123.736 120.154 123.736C119.656 123.14 119.129 122.146 118.451 120.725C118.451 120.725 118.007 138.961 132.476 139.208C146.946 139.455 146.399 118.898 146.399 118.898Z" fill="black"/>
<path d="M84.4148 102.44C84.4148 102.44 86.8578 94.2726 96.6299 94.2725C106.402 94.2723 109.659 101.76 109.659 101.76" stroke="#0D0C12" stroke-width="4.13103" stroke-linecap="round"/>
<path d="M152.819 102.44C152.819 102.44 155.262 94.2726 165.035 94.2725C174.807 94.2723 178.064 101.76 178.064 101.76" stroke="#0D0C12" stroke-width="4.13103" stroke-linecap="round"/>
<defs>
<filter id="filter0_i_1202_6837" x="50.5212" y="-8.72512" width="160.419" height="171.486" filterUnits="userSpaceOnUse" color-interpolation-filters="sRGB">
<feFlood flood-opacity="0" result="BackgroundImageFix"/>
<feBlend mode="normal" in="SourceGraphic" in2="BackgroundImageFix" result="shape"/>
<feColorMatrix in="SourceAlpha" type="matrix" values="0 0 0 0 0 0 0 0 0 0 0 0 0 0 0 0 0 0 127 0" result="hardAlpha"/>
<feOffset dy="-8.72512"/>
<feGaussianBlur stdDeviation="6.23223"/>
<feComposite in2="hardAlpha" operator="arithmetic" k2="-1" k3="1"/>
<feColorMatrix type="matrix" values="0 0 0 0 0.380392 0 0 0 0 0.25098 0 0 0 0 0.607843 0 0 0 0.38 0"/>
<feBlend mode="normal" in2="shape" result="effect1_innerShadow_1202_6837"/>
</filter>
<filter id="filter1_i_1202_6837" x="50.5212" y="-8.72512" width="160.419" height="171.486" filterUnits="userSpaceOnUse" color-interpolation-filters="sRGB">
<feFlood flood-opacity="0" result="BackgroundImageFix"/>
<feBlend mode="normal" in="SourceGraphic" in2="BackgroundImageFix" result="shape"/>
<feColorMatrix in="SourceAlpha" type="matrix" values="0 0 0 0 0 0 0 0 0 0 0 0 0 0 0 0 0 0 127 0" result="hardAlpha"/>
<feOffset dy="-8.72512"/>
<feGaussianBlur stdDeviation="6.23223"/>
<feComposite in2="hardAlpha" operator="arithmetic" k2="-1" k3="1"/>
<feColorMatrix type="matrix" values="0 0 0 0 0.380392 0 0 0 0 0.25098 0 0 0 0 0.607843 0 0 0 0.38 0"/>
<feBlend mode="normal" in2="shape" result="effect1_innerShadow_1202_6837"/>
</filter>
<filter id="filter2_f_1202_6837" x="170.614" y="105.305" width="24.7583" height="24.7587" filterUnits="userSpaceOnUse" color-interpolation-filters="sRGB">
<feFlood flood-opacity="0" result="BackgroundImageFix"/>
<feBlend mode="normal" in="SourceGraphic" in2="BackgroundImageFix" result="shape"/>
<feGaussianBlur stdDeviation="2.49289" result="effect1_foregroundBlur_1202_6837"/>
</filter>
<filter id="filter3_f_1202_6837" x="68.3389" y="105.305" width="24.7583" height="24.7587" filterUnits="userSpaceOnUse" color-interpolation-filters="sRGB">
<feFlood flood-opacity="0" result="BackgroundImageFix"/>
<feBlend mode="normal" in="SourceGraphic" in2="BackgroundImageFix" result="shape"/>
<feGaussianBlur stdDeviation="2.49289" result="effect1_foregroundBlur_1202_6837"/>
</filter>
<linearGradient id="paint0_linear_1202_6837" x1="195.2" y1="0.346308" x2="169.613" y2="40.9917" gradientUnits="userSpaceOnUse">
<stop offset="0.137215" stop-color="#543291"/>
<stop offset="0.401763" stop-color="#A087CA"/>
<stop offset="1" stop-color="#A087CA"/>
</linearGradient>
<linearGradient id="paint1_linear_1202_6837" x1="69.7776" y1="-0.308253" x2="96.6103" y2="39.0892" gradientUnits="userSpaceOnUse">
<stop offset="0.137215" stop-color="#543291"/>
<stop offset="0.401763" stop-color="#A087CA"/>
<stop offset="1" stop-color="#A087CA"/>
</linearGradient>
<linearGradient id="paint2_linear_1202_6837" x1="195.2" y1="0.346308" x2="169.613" y2="40.9917" gradientUnits="userSpaceOnUse">
<stop offset="0.137215" stop-color="#543291"/>
<stop offset="0.401763" stop-color="#A087CA"/>
<stop offset="1" stop-color="#A087CA"/>
</linearGradient>
<linearGradient id="paint3_linear_1202_6837" x1="69.7776" y1="-0.308253" x2="96.6103" y2="39.0892" gradientUnits="userSpaceOnUse">
<stop offset="0.137215" stop-color="#543291"/>
<stop offset="0.401763" stop-color="#A087CA"/>
<stop offset="1" stop-color="#A087CA"/>
</linearGradient>
</defs>
</svg>
