<svg width="59" height="70" viewBox="0 0 59 70" fill="none" xmlns="http://www.w3.org/2000/svg">
<path d="M9.59979 54.6823L9.6923 54.598C9.67142 54.5442 7.43383 52.2591 7.16009 51.9069C3.9164 47.7328 1.50673 42.797 0.615159 37.5643C0.269435 35.5352 0.300342 33.4251 0.296228 31.3727L0.290439 25.2681L0.275911 19.1838C0.271678 18.0167 0.248354 16.8558 0.290383 15.6824C0.320995 14.325 0.652526 13.9766 1.72755 13.2893C3.99215 11.8416 6.42654 10.8651 8.76126 9.55857C13.2507 7.04619 17.9086 4.89992 22.4781 2.55022C24.3122 1.60714 26.2246 0.776935 28.1892 0.150469C29.5539 -0.284666 30.452 0.313354 31.6761 0.810245C33.5889 1.61572 35.4308 2.59254 37.2991 3.48986L44.498 6.98704C45.9782 7.71267 47.7896 8.56123 49.1968 9.38736C49.1523 9.6227 49.1527 9.93183 49.1452 10.177C49.1726 10.8653 48.4715 11.9583 48.1156 12.5963L47.8419 12.9785C47.4281 13.3455 46.2511 13.6443 45.6121 13.9438C48.3849 15.5295 48.1895 15.6661 48.8359 18.7675C49.8405 17.9024 49.2277 15.3863 51.8034 14.8782L52.072 14.6961C51.967 14.515 50.8367 13.9779 50.5407 13.8199C50.4529 13.6243 50.2898 13.1129 50.248 12.9088C50.1118 12.2438 49.4495 11.0201 49.5256 10.4049C49.4645 10.0473 49.418 9.7705 49.3906 9.40516C50.3239 9.94879 51.2821 10.4863 52.2349 10.9967C52.974 11.3926 53.9194 11.7665 54.5986 12.2398C55.5711 12.6485 57.3822 13.5158 57.8653 14.5113C57.9866 14.8925 58.0791 15.5107 58.081 15.8996C58.106 21.0416 58.0803 26.1841 58.0956 31.3268C58.1011 33.1904 58.0707 35.4281 57.8189 37.2517C57.4532 39.9867 56.6929 42.6542 55.5619 45.1711C54.2438 48.1028 52.0345 51.6121 49.6646 53.8075C49.4723 53.9857 49.0123 54.3311 48.9692 54.5798L49.0499 54.6421C51.2341 54.2725 53.5796 54.0251 55.7616 53.5928C58.8142 52.9881 58.6113 53.8322 57.6996 56.3897C57.3363 57.4087 56.9699 58.5506 56.5651 59.5653C56.8881 60.3573 57.2203 61.1454 57.5617 61.9296C58.0983 63.1509 58.9611 64.3296 57.4884 64.9292C56.8298 65.1974 53.7664 65.5491 53.5895 65.7763C53.6178 66.4051 53.745 67.2531 53.2735 67.7493C51.8329 69.2652 37.1508 69.8651 34.4738 69.9429C31.5178 70.0235 28.5602 70.0186 25.6046 69.9296C22.832 69.8455 6.23178 69.0262 4.88648 67.7101C4.37074 67.2055 4.48567 66.3259 4.48862 65.6642C-1.85955 64.7697 -0.107797 64.5716 1.54914 59.5389C1.19466 57.9428 -0.0376588 55.4672 0.203277 53.8271C0.226461 53.6693 0.365238 53.5044 0.517296 53.4296C0.694176 53.3427 1.07264 53.3356 1.2581 53.3611C2.53455 53.5367 8.74444 54.3256 9.59979 54.6823ZM48.5162 35.1552C48.7086 35.7587 48.4791 36.6918 48.845 37.1059C48.8726 36.415 48.9082 35.7244 48.9517 35.0342C48.9075 34.8732 48.9039 34.7959 48.791 34.6818L48.6095 34.8337L48.5162 35.1552Z" fill="#010001"/>
<path d="M35.0571 13.3022C36.415 11.2161 38.5289 9.49732 40.7613 8.43073C41.2476 8.19834 41.6153 9.24915 41.7483 9.54392C42.4312 11.0573 42.6578 12.3144 42.5176 13.9681C42.4314 14.7285 42.3621 16.7653 42.0481 17.3212C41.8195 17.1734 41.5692 16.9789 41.3049 16.9535L41.2483 17.0244C41.4649 17.4463 42.1169 18.1589 42.4651 18.5447C46.0541 22.5214 48.1172 29.0746 46.4301 34.309C45.4846 37.2562 43.4181 39.7135 40.6767 41.1504C40.0988 41.446 39.7393 41.5929 39.1077 41.7564C38.3674 40.8007 36.6958 38.3124 36.023 37.6426C35.4388 37.5148 34.8668 37.4469 34.2708 37.4047C29.9624 37.1002 25.7953 37.1962 21.5137 37.7276C21.3086 38.0117 21.1043 38.3032 20.8838 38.5748C20.1476 39.4603 19.4636 40.6081 18.8453 41.5955C15.8364 39.737 14.4369 38.312 13.1556 34.8741C12.0514 31.9117 12.3876 26.4089 13.7845 23.575C14.3385 21.8527 15.9736 19.9306 16.9934 18.4376C16.382 18.7171 16.1663 18.9256 15.6815 19.3674C15.6251 18.9026 15.374 17.9658 15.2633 17.4729C14.5906 14.4772 14.3262 12.6086 15.7964 9.78269C17.0558 10.0857 19.5282 11.4942 20.5437 12.3761C21.0736 12.8363 21.614 13.5463 22.041 14.1169C21.7929 14.267 20.5995 15.214 20.5419 15.4272C20.8813 15.4689 22.0214 14.7812 22.4119 14.5885L22.4306 14.6088C22.7581 14.9613 22.8215 15.1392 23.3254 15.0996L23.3478 15.1467L23.3801 15.08C24.3419 14.8431 24.535 15.2516 24.8399 15.1389C25.6321 14.8459 27.7159 14.0569 28.1284 13.3215L28.0747 13.2668L27.8838 13.0953C29.512 12.8169 31.506 13.0278 33.1073 13.3631C33.4149 13.4275 34.0209 13.502 34.2226 13.7337C34.1017 13.9036 34.0281 13.9875 33.9701 14.1926C34.1105 14.3244 34.0497 14.2852 34.2779 14.3061C34.5595 14.1595 34.5777 14.0396 34.7538 13.743C35.1535 13.8916 36.1041 14.3054 36.4649 14.1643C36.3221 13.8191 35.4158 13.4558 35.0571 13.3022Z" fill="#9372BA"/>
<path d="M13.7845 23.5746C14.2424 23.1556 15.4789 20.3857 16.0165 20.1035C15.866 20.5234 15.7117 20.9463 15.5699 21.367C15.4867 21.6139 15.4319 22.2857 15.3205 22.4664C14.8607 23.2122 14.6356 23.5168 14.3623 24.3779C14.473 24.7454 14.5902 25.1676 14.8098 25.4762C15.3707 26.2647 16.4279 26.4747 16.4111 27.627C16.3835 29.5302 14.3389 30.5666 15.8094 32.6215L16.0782 32.7247L16.1289 32.8468C15.7625 33.2646 15.2436 33.6422 15.2574 34.1184C15.7323 34.724 18.3539 33.7183 19.0107 34.4558C18.2413 34.4093 17.5789 34.4012 16.9428 34.9254C16.6542 35.1144 16.4586 35.9234 16.6391 36.0877C17.6039 36.9656 18.8829 37.4401 20.0102 38.0665C20.2055 38.1747 20.7459 37.8041 20.947 37.9327C20.926 38.1074 20.8817 38.4083 20.8838 38.5744C20.1476 39.4599 19.4636 40.6077 18.8453 41.595C15.8364 39.7366 14.4369 38.3116 13.1556 34.8737C12.0514 31.9113 12.3876 26.4085 13.7845 23.5746Z" fill="#8867B2"/>
<path d="M13.8904 23.9775C14.031 24.0268 14.1728 24.0726 14.3157 24.115L14.3611 24.3219C14.0629 24.4174 13.9065 24.2583 13.8904 23.9775Z" fill="#9372BA"/>
<path d="M16.9427 34.9252C17.5788 34.401 18.2413 34.4091 19.0106 34.4555C21.1776 36.9418 17.0137 37.1907 16.7062 35.5721C16.7006 35.5425 16.9053 35.0381 16.9427 34.9252Z" fill="#B75DA7"/>
<path d="M37.4822 26.9743C37.9214 26.9285 38.8369 27.4902 39.2086 27.7513C41.8898 29.6344 41.5704 33.7841 38.0059 34.5795C36.7026 34.7213 35.3259 34.016 34.7889 32.8401C33.5399 30.105 35.2364 28.1344 37.4822 26.9743Z" fill="#010001"/>
<path d="M36.4659 28.3791C37.5689 28.366 37.747 29.162 37.6127 30.0657C37.2769 30.4524 37.1334 30.5593 36.6576 30.746C35.0784 30.7165 34.9735 29.0664 36.4659 28.3791Z" fill="white"/>
<path d="M38.1805 32.0429C38.4429 32.0055 38.7052 31.9643 38.9389 32.0869C39.0034 32.2865 39.0057 32.1976 38.8857 32.4347C38.5881 32.414 38.3579 32.4352 38.1616 32.2365L38.1805 32.0429Z" fill="#4D2264"/>
<path d="M19.944 27.8398C19.989 27.8457 20.0337 27.8537 20.0779 27.864C20.2141 27.8947 21.1726 28.3151 21.3459 28.3901C22.6324 28.9496 23.8337 29.2816 24.6015 30.5578C25.6856 32.3597 25.1208 34.0563 23.3494 35.111C22.8011 35.3487 22.4689 35.4793 21.8441 35.448C21.0755 35.4025 20.3566 35.0533 19.8458 34.4772C18.3707 32.8269 18.8837 30.6348 20.4378 29.2546C19.8656 28.7924 19.7486 28.5604 19.944 27.8398Z" fill="#010001"/>
<path d="M21.0608 29.501C22.0643 29.4953 22.4366 30.4614 21.9901 31.2676C21.7833 31.641 21.56 31.7731 21.2255 32.0155C19.7432 31.8338 19.567 30.1969 21.0608 29.501Z" fill="white"/>
<path d="M23.4926 32.501L23.5892 32.5346C23.8557 32.8334 23.7136 33.1831 23.4913 33.4523C23.2228 33.5703 23.2833 33.5303 22.9529 33.4857L22.6562 33.391C22.4358 32.991 23.1836 32.6807 23.4926 32.501Z" fill="#714B9E"/>
<path d="M29.2963 32.3923C29.658 32.3799 30.2117 32.3591 30.5434 32.4632C30.8117 32.8488 28.8673 34.5004 32.5199 34.3488C32.8107 34.0935 32.9372 33.8729 33.317 34.0381C33.5157 34.5715 33.1184 34.7072 32.7164 34.8798C32.5888 35.2601 32.4531 36.002 31.9954 35.9705C31.7293 35.7935 31.522 35.3413 31.3571 35.0464C30.9488 34.8609 30.3277 34.607 29.9902 34.342L29.9581 34.3008L29.8654 34.3017C29.5281 34.7145 29.0603 34.908 28.5863 35.1274C28.4093 35.4463 28.198 35.9149 28.0338 36.253C27.536 35.773 26.9918 35.0007 26.4091 34.5306C26.3183 34.4572 26.366 34.2626 26.3967 34.1589C26.8323 33.8298 27.1324 34.1745 27.3994 34.4669C28.0544 34.5501 29.9101 34.4629 29.5089 33.2523C29.4622 33.1114 29.1343 33.0007 29.0478 32.6881C29.1209 32.4691 29.0696 32.549 29.2963 32.3923Z" fill="#010001"/>
<path d="M41.7314 33.2334C42.1158 33.2353 42.3591 33.2701 42.6692 33.5234C42.9504 33.757 43.1252 34.0944 43.1537 34.4589C43.2337 35.4109 42.6386 35.6391 41.8512 35.7059C40.9683 35.5659 40.1093 34.888 40.585 33.8916C40.7915 33.4591 41.2965 33.3577 41.7314 33.2334Z" fill="#B75DA7"/>
<path d="M17.147 20.0107C17.8623 20.0801 17.5727 20.9248 17.4976 21.4654C17.3032 21.6125 17.0964 21.7866 16.9048 21.9412C16.8512 21.7481 16.6608 21.8373 16.5531 21.5542C16.3252 20.9555 16.5524 20.2739 17.147 20.0107Z" fill="#A984C7"/>
<path d="M1.54914 59.5393C1.19466 57.9433 -0.0376588 55.4676 0.203277 53.8275C0.226461 53.6697 0.365238 53.5048 0.517296 53.4301C0.694176 53.3431 1.07264 53.3361 1.2581 53.3616C2.53455 53.5371 8.74444 54.3261 9.59979 54.6828L9.55088 54.779C9.80745 54.8361 10.1036 54.8651 10.3261 55.0631C11.5027 56.1103 12.6674 57.644 14.288 57.9482C14.3834 57.9661 14.9982 57.8245 15.3798 57.8719C16.7856 57.9682 18.3878 58.1113 19.7812 58.1666C20.0002 58.208 19.9091 58.215 20.1286 58.1238C20.8144 58.2883 28.0317 58.6372 28.6104 58.4781C28.8888 58.5987 29.0839 58.7046 29.3786 58.5921C29.4473 58.5657 29.5145 58.5355 29.5799 58.5017C29.7824 58.628 36.9465 58.4228 37.5273 58.2832C37.8407 58.1184 38.157 57.9384 38.4676 57.7667L38.567 58.099C38.7187 58.2197 38.7452 58.2228 38.9386 58.2475C39.068 58.2414 39.3068 58.2216 39.425 58.2368C39.9328 58.4151 44.8394 58.079 45.4708 57.9031C45.7307 57.4984 48.2304 55.2647 48.7856 54.7612L48.8035 54.6839C48.8901 54.6343 48.9501 54.6439 49.0499 54.6425C51.2341 54.2729 53.5796 54.0256 55.7616 53.5933C58.8142 52.9885 58.6113 53.8327 57.6996 56.3902C57.3363 57.4092 56.9699 58.551 56.5651 59.5657C56.8881 60.3577 57.2203 61.1459 57.5617 61.93C58.0983 63.1514 58.9611 64.33 57.4884 64.9296C56.8298 65.1978 53.7664 65.5496 53.5895 65.7767C53.6178 66.4056 53.745 67.2536 53.2735 67.7497C51.8329 69.2656 37.1508 69.8655 34.4738 69.9433C31.5178 70.0239 28.5602 70.019 25.6046 69.93C22.832 69.8459 6.23178 69.0267 4.88648 67.7105C4.37074 67.2059 4.48567 66.3264 4.48862 65.6647C-1.85955 64.7701 -0.107797 64.572 1.54914 59.5393Z" fill="#A74D9F"/>
<path d="M49.05 54.6425C51.2342 54.2729 53.5796 54.0256 55.7616 53.5932C58.8143 52.9885 58.6114 53.8326 57.6996 56.3901C57.3363 57.4091 56.9699 58.551 56.5651 59.5657C56.8881 60.3577 57.2203 61.1459 57.5618 61.93C58.0984 63.1513 58.9611 64.33 57.4885 64.9296C56.8298 65.1978 53.7665 65.5496 53.5896 65.7767C53.5418 65.9808 53.5326 66.3565 53.5202 66.58L53.4554 66.5268C53.3873 66.0979 53.4714 64.6378 53.47 64.1024L53.4778 56.8321C52.0427 55.6246 50.6951 55.8101 49.1746 55.0731C49.1302 54.928 49.129 54.8884 49.0321 54.7771L48.7856 54.7612L48.8035 54.6839C48.8902 54.6343 48.9501 54.6438 49.05 54.6425Z" fill="#AA4F9D"/>
<path d="M38.4677 57.7666L38.5671 58.0989C38.7187 58.2197 38.7452 58.2227 38.9387 58.2474C38.4326 58.331 37.9968 58.4866 37.5273 58.2831C37.8408 58.1183 38.1571 57.9384 38.4677 57.7666Z" fill="#B75DA7"/>
<path d="M25.3962 62.0439C25.9209 62.0664 26.2566 62.1247 26.6961 62.4443C27.1843 62.8008 27.5104 63.3369 27.6026 63.9343C27.6971 64.542 27.5418 65.209 27.1637 65.6976C26.8365 66.1187 26.3554 66.392 25.8264 66.4579C23.013 66.4775 22.5058 62.7023 25.3962 62.0439Z" fill="white"/>
<path d="M25.3868 63.0029C25.525 63.0116 25.7491 63.0321 25.8776 63.0701C26.1654 63.158 26.4047 63.36 26.5396 63.629C26.9326 64.4001 26.4118 65.2095 25.6986 65.5622C25.15 65.4921 24.7655 65.3002 24.5457 64.7593C24.4077 64.4189 24.4154 64.0368 24.5672 63.7022C24.7451 63.3076 25.0028 63.1498 25.3868 63.0029Z" fill="#B75DA7"/>
<path d="M45.4667 61.4707C45.8599 61.4727 46.2667 61.6083 46.6003 61.8129C47.0954 62.1138 47.448 62.6018 47.5784 63.1662C47.7136 63.7744 47.6044 64.4113 47.2746 64.9399C46.9337 65.4751 46.4823 65.7429 45.8782 65.8794C45.413 65.8766 45.0248 65.8787 44.6074 65.6378C44.1061 65.3526 43.7465 64.8712 43.6153 64.3095C43.4728 63.7124 43.576 63.0831 43.9017 62.5628C44.2607 61.9813 44.8086 61.624 45.4667 61.4707Z" fill="white"/>
<path d="M45.4104 62.4453C46.3275 62.5312 46.503 62.8565 46.7008 63.7057C46.5175 64.4155 46.4414 64.6678 45.7471 64.995C45.6113 64.9911 45.4659 64.9857 45.3363 64.9428C45.0372 64.8425 44.7901 64.6274 44.6496 64.3449C44.2565 63.5572 44.6636 62.8062 45.4104 62.4453Z" fill="#B75DA7"/>
<path d="M13.8878 64.8546C13.9236 64.1953 13.9356 62.277 14.2059 61.8626C14.9499 60.722 15.8901 63.7426 16.0567 64.0432C16.388 63.4418 17.0427 61.649 17.8055 61.8164C18.2395 62.1674 18.1188 63.0583 18.1089 63.5758C18.0938 64.3714 18.0755 65.1879 17.9863 65.9775C16.7482 66.747 17.1394 64.2484 17.1024 63.6722C16.841 64.1224 16.4677 64.9669 16.012 65.1049C15.37 64.9612 15.2671 64.096 14.9917 63.5726C14.7433 64.4494 15.0736 65.3079 14.5253 65.8034C14.4498 65.8717 14.0482 65.8423 13.9124 65.8416C13.6909 65.8605 13.565 65.7822 13.3662 65.6897L13.3784 65.6265C13.442 65.2873 13.5076 65.2411 13.4003 64.906C13.5767 64.8776 13.7075 64.8493 13.8878 64.8546Z" fill="white"/>
<path d="M13.4001 64.9055C13.5765 64.8771 13.7073 64.8489 13.8875 64.8542L13.9122 65.8411C13.6907 65.86 13.5648 65.7818 13.366 65.6893L13.3782 65.626C13.4418 65.2868 13.5074 65.2407 13.4001 64.9055Z" fill="#B75DA7"/>
<path d="M48.6838 61.2797C49.0201 61.2144 49.6913 61.2405 50.0344 61.2541C51.2141 61.9218 51.2268 62.8572 50.2878 63.7577C50.6118 64.1718 51.1338 64.7157 50.8677 65.2787C50.4711 65.5662 50.2357 65.2393 50.011 64.9292C49.714 64.5182 49.4089 64.113 49.096 63.7139C49.034 64.3459 49.1875 65.3721 48.5039 65.6096C47.8558 65.3225 47.9202 62.0931 48.0379 61.4395C48.2171 61.2979 48.4284 61.3135 48.6838 61.2797Z" fill="white"/>
<path d="M49.0985 62.082C49.5827 62.0878 49.9306 62.1219 50.0565 62.6475C50.0166 62.9036 49.9414 62.9501 49.7557 63.1311C49.4842 63.249 49.3121 63.2567 49.0541 63.1581C48.7619 62.8417 48.8793 62.4052 49.0985 62.082Z" fill="#B75DA7"/>
<path d="M8.81882 60.9048C9.44283 60.8884 10.6953 61.2842 10.487 62.1173C10.09 62.4604 9.33946 61.7828 8.68847 61.9524C8.08085 62.1108 7.8289 63.1558 8.02948 63.6385C8.28472 64.2528 8.95036 64.4402 9.58832 64.2003C9.64116 63.7834 8.73142 63.6726 8.97202 63.152C9.19467 63.0224 9.24169 63.0135 9.49974 63.001L9.56477 62.9983C10.2594 63.0993 11.0137 63.2651 10.6357 64.1912C9.83817 66.1448 7.5668 65.2517 7.07082 63.5854C6.91853 63.0561 6.98792 62.4877 7.26306 62.0105C7.58943 61.4413 8.19775 61.0729 8.81882 60.9048Z" fill="white"/>
<path d="M33.8132 62.2495C34.3596 62.2072 36.0192 62.0027 36.3736 62.2779C36.4602 62.522 36.4501 62.5685 36.4263 62.8216C35.9782 63.5181 35.0061 62.5079 34.6529 63.4962C34.8081 64.0795 35.7828 63.7045 36.2515 63.9385C36.2851 64.1608 36.2992 64.2084 36.2194 64.4249C35.5975 64.9312 34.7309 63.9842 34.7871 65.5375C35.2302 65.5336 35.9702 65.4672 36.3422 65.6471C37.1429 66.678 35.0308 66.4229 34.5711 66.4552C34.3495 66.4706 34.093 66.4587 33.8692 66.4608L33.7903 65.6648C33.7759 64.5637 33.7574 63.3505 33.8132 62.2495Z" fill="white"/>
<path d="M38.5275 61.9579C38.8077 61.942 39.1424 61.956 39.4098 62.0415C39.7673 62.1558 40.0645 62.4079 40.2357 62.7421C39.8796 63.5433 38.9306 62.7434 38.2444 63.0657C37.6987 63.322 37.5494 64.2894 37.7984 64.7575C38.2605 65.6263 38.9572 65.5002 39.6229 64.9644C39.7617 64.8559 39.8807 64.9202 40.0191 64.9678C40.5883 65.676 40.1228 66.0376 39.3725 66.2927C38.9056 66.4518 38.3941 66.4147 37.9554 66.189C36.1994 65.3029 36.316 62.6214 38.5275 61.9579Z" fill="white"/>
<path d="M11.1084 61.3197C11.7362 61.3139 13.4404 61.362 13.7627 61.9722L13.7257 62.0524C13.3345 62.3847 12.4422 62.2685 11.9424 62.2442L11.9122 63.1202C12.3118 63.1781 13.3557 63.2128 13.3341 63.7111C12.9325 64.0259 12.2437 63.8215 11.8601 63.9554C11.7694 64.1687 11.8307 64.4803 11.8564 64.7206C12.3699 64.7911 12.8845 64.8528 13.4 64.9057C13.5073 65.2409 13.4417 65.287 13.3781 65.6262L13.3659 65.6895C12.945 65.7742 11.417 65.5408 10.9168 65.4756C10.8038 64.5449 11.0045 62.287 11.1084 61.3197Z" fill="white"/>
<path d="M21.5521 61.9563C22.3045 61.9286 23.1251 62.0666 23.3858 62.9647C23.4022 63.0209 23.3268 63.0937 23.2888 63.1472C22.7676 63.3379 22.1675 62.9114 21.7239 62.8963C21.203 62.8786 20.8455 63.5128 20.876 63.9638C20.932 64.7902 21.1513 64.9872 21.6861 65.5099C22.0511 65.3258 22.4175 65.1447 22.7854 64.9664C23.1229 65.1583 23.2242 65.1756 23.2134 65.5875C22.8671 66.3379 21.842 66.394 21.1554 66.1501C20.025 65.7488 19.6284 64.2903 20.0266 63.2474C20.2849 62.5711 20.9261 62.21 21.5521 61.9563Z" fill="white"/>
<path d="M31.0009 66.4837C30.9951 66.3169 30.9903 66.1501 30.9867 65.984C30.9752 65.441 30.8691 62.5353 31.1104 62.2838C31.3758 62.2544 31.4941 62.2264 31.75 62.3055C31.9846 62.6177 31.8651 64.9657 31.8824 65.6072L33.4424 65.5831L33.7905 65.6646L33.8694 66.4606L33.4195 66.4437C32.9676 66.5299 31.5157 66.4893 31.0009 66.4837Z" fill="white"/>
<path d="M33.4423 65.583L33.7904 65.6645L33.8693 66.4605L33.4194 66.4437C33.4378 66.1648 33.4374 65.8648 33.4423 65.583Z" fill="#B75DA7"/>
<path d="M42.4809 61.7835C42.9239 61.7347 43.3676 61.6415 43.5186 62.2107C43.4435 62.8025 42.8632 62.7353 42.4323 62.7231C42.3912 63.4007 42.5371 65.7023 42.333 66.071C42.1571 66.1825 41.9496 66.118 41.7388 66.0836L41.6395 65.9442L41.5689 62.8094L40.3857 62.7953L40.4277 62.0616C41.0683 61.8901 41.8144 61.8448 42.4809 61.7835Z" fill="white"/>
<path d="M28.1245 62.2378C28.392 62.2166 28.554 62.1883 28.814 62.2589C28.8461 62.2911 28.885 62.3299 28.9307 62.3756C29.0041 63.3359 28.9435 64.6482 28.9667 65.5972C29.4917 65.5843 30.5105 65.4065 30.6937 65.9564C30.6609 66.1568 30.6522 66.2984 30.5435 66.4736C29.7271 66.4953 28.9103 66.4946 28.094 66.4715C27.9897 65.8302 27.9715 62.8365 28.1245 62.2378Z" fill="#FEFAFF"/>
<path d="M9.59977 54.6823L9.69228 54.598C9.6714 54.5442 7.43381 52.2591 7.16007 51.9069C3.91637 47.7328 1.5067 42.797 0.615135 37.5643C0.269412 35.5352 0.300318 33.4251 0.296205 31.3727L0.290416 25.2681L0.275888 19.1838C0.271655 18.0167 0.248331 16.8558 0.29036 15.6824C0.320972 14.325 0.652503 13.9766 1.72753 13.2893C3.99213 11.8416 6.42651 10.8651 8.76124 9.55857C13.2506 7.04619 17.9086 4.89992 22.4781 2.55022C24.3122 1.60714 26.2246 0.776935 28.1892 0.150469C29.5538 -0.284666 30.452 0.313354 31.6761 0.810245C33.5889 1.61572 35.4308 2.59254 37.2991 3.48986L44.498 6.98704C45.9782 7.71267 47.7896 8.56123 49.1968 9.38736C49.1523 9.6227 49.1527 9.93183 49.1452 10.177C49.1726 10.8653 48.4715 11.9583 48.1156 12.5963L47.8418 12.9784C47.7519 12.9063 47.6612 12.8477 47.5606 12.7918C46.7215 12.3259 43.5936 10.6437 42.8413 10.8587C42.6773 10.4101 42.5849 10.127 42.4711 9.66327C42.293 9.10556 41.8023 8.03463 41.2125 7.8534C40.5835 7.66004 39.9906 8.05285 39.4557 8.33017C39.3073 8.41392 39.1228 8.52528 38.9716 8.59515C36.8887 7.59802 34.7171 6.62639 32.6116 5.67355C31.5632 5.1991 30.317 4.32769 29.2329 4.01513C28.1052 4.34795 27.1149 4.90826 26.0437 5.37052C25.2544 5.71112 24.4585 6.08038 23.6633 6.40409C21.6647 7.21775 19.8383 8.35203 17.8835 9.25273C17.6895 9.34216 17.4268 9.421 17.2869 9.57511C17.0998 9.55444 16.8148 9.42815 16.6274 9.35456C16.2722 9.24663 15.8302 9.12105 15.4724 9.302C15.2292 9.42499 14.7585 10.3679 14.6367 10.4509C14.5903 10.8053 14.58 11.0121 14.4221 11.3389L14.33 11.2248C13.415 11.2624 10.4626 13.2132 9.48203 13.6587C9.33823 13.7241 8.74561 13.972 8.65086 14.0358L8.48056 13.5943C8.42863 13.4364 8.28699 13.3439 8.14479 13.285C8.03574 13.4172 8.06525 13.3579 8.08277 13.5788C8.18782 14.0639 8.12622 14.1349 7.8646 14.5639C7.5369 15.3384 6.84785 17.0105 6.14927 17.401C6.02074 17.5852 5.97322 17.6421 5.90033 17.8631C5.36862 18.8754 4.7027 19.9036 4.20637 20.8793C4.10069 21.1614 3.99388 21.4696 3.86003 21.7371L3.76941 21.7522C3.68713 21.5586 3.68104 21.4241 3.65637 21.2189C3.65251 21.7198 3.6202 23.2874 3.70514 23.6966L3.61845 23.9709L3.61341 24.2037L3.66359 24.6081C3.60871 25.7269 3.52615 29.7343 3.705 30.6492L3.72379 30.7544L3.70725 30.814C3.7528 32.3703 3.61831 36.4666 4.26335 37.7917C3.91147 38.6814 2.74607 40.7812 4.60388 40.4181C4.78722 40.4125 5.04722 40.3955 5.22369 40.4128L5.46793 40.38C5.59127 42.3742 8.11732 46.4245 9.21096 48.1698C9.50285 48.6355 10.1809 49.3383 10.4281 49.8377C10.8186 49.4169 10.9109 48.7666 11.6236 48.4441C13.0575 47.7954 13.5596 50.1396 15.2002 49.2638C16.2063 51.1132 16.6264 51.2709 18.5264 52.0484C18.053 52.9239 14.826 53.3249 14.5181 53.969C15.0225 54.335 15.5964 54.8455 16.1106 55.2399C16.4115 55.4708 17.5557 56.2514 17.7344 56.4508C18.342 56.7807 19.7123 57.6143 20.1286 58.1233C19.909 58.2146 20.0001 58.2076 19.7812 58.1661C18.3878 58.1108 16.7856 57.9678 15.3797 57.8714C14.9982 57.8241 14.3834 57.9657 14.288 57.9478C12.6673 57.6436 11.5027 56.1099 10.326 55.0626C10.1036 54.8646 9.80743 54.8356 9.55085 54.7785L9.59977 54.6823Z" fill="#E393BD"/>
<path d="M9.59977 54.6823L9.69228 54.598C9.6714 54.5442 7.43381 52.2591 7.16007 51.9069C3.91637 47.7328 1.5067 42.797 0.615135 37.5643C0.269412 35.5352 0.300318 33.4251 0.296205 31.3727L0.290416 25.2681L0.275888 19.1838C0.271655 18.0167 0.248331 16.8558 0.29036 15.6824C0.320972 14.325 0.652503 13.9766 1.72753 13.2893C3.99213 11.8416 6.42651 10.8651 8.76124 9.55857C13.2506 7.04619 17.9086 4.89992 22.4781 2.55022C24.3122 1.60714 26.2246 0.776935 28.1892 0.150469C29.5538 -0.284666 30.452 0.313354 31.6761 0.810245C33.5889 1.61572 35.4308 2.59254 37.2991 3.48986L44.498 6.98704C45.9782 7.71267 47.7896 8.56123 49.1968 9.38736C49.1523 9.6227 49.1527 9.93183 49.1452 10.177C48.2836 9.94592 46.9783 9.00786 46.1557 8.60195C42.8073 6.94962 39.542 5.15943 36.0904 3.71559C35.3831 3.41978 34.7227 3.01526 34.0356 2.70604C32.0392 1.8076 29.9389 -0.0750495 27.6523 1.03199C22.1948 3.43933 16.9101 6.22524 11.5775 8.89594C10.8832 9.24369 10.2553 9.72298 9.53158 10.0791C6.80853 11.419 4.01323 12.6777 1.47181 14.3495C1.17188 14.5468 0.996517 15.0455 0.957158 15.3924C0.835187 15.9153 0.860192 17.5873 0.859968 18.177L0.870319 22.8652C0.891141 27.3596 0.732068 32.1805 1.25301 36.643C1.71692 40.6169 3.55643 45.0173 5.60851 48.4323C7.4446 51.4877 10.1426 54.1556 12.9016 56.3701C13.3878 56.7578 14.4344 57.665 15.0361 57.8038C15.1499 57.8303 15.2645 57.8528 15.3797 57.8714C14.9982 57.8241 14.3834 57.9657 14.288 57.9478C12.6673 57.6436 11.5027 56.1099 10.326 55.0626C10.1036 54.8647 9.80743 54.8356 9.55085 54.7785L9.59977 54.6823Z" fill="#AC4897"/>
<path d="M10.4282 49.8378C10.8187 49.417 10.911 48.7667 11.6238 48.4442C13.0576 47.7955 13.5598 50.1396 15.2003 49.2639C16.2064 51.1133 16.6266 51.271 18.5266 52.0485C18.0531 52.9239 14.8262 53.325 14.5182 53.9691C13.5475 53.28 10.9453 50.855 10.4282 49.8378Z" fill="#D677B0"/>
<path d="M3.65234 16.1401C4.36641 15.5334 5.36509 15.1299 6.18926 14.6718C6.83072 14.3151 7.44808 13.9458 8.08309 13.5791C8.18815 14.0642 8.12654 14.1352 7.86492 14.5642C7.53722 15.3387 6.84817 17.0108 6.14959 17.4013C6.02106 17.5856 5.97354 17.6424 5.90066 17.8634C5.36894 18.8757 4.70302 19.904 4.2067 20.8796C4.10101 21.1617 3.99421 21.4699 3.86035 21.7375L3.76973 21.7525C3.68746 21.559 3.68136 21.4244 3.65669 21.2193L3.65893 19.8244L3.65578 17.1236L3.65234 16.1401Z" fill="#AB4C99"/>
<path d="M4.20643 20.8795C4.18337 20.7317 4.03585 20.3435 4.06739 20.2182C4.21526 19.6296 4.00004 16.9604 4.10713 16.6515L4.22977 16.624C4.78966 17.0109 5.47065 17.3216 6.14933 17.4012C6.02079 17.5855 5.97328 17.6423 5.90039 17.8634C5.36868 18.8756 4.70276 19.9039 4.20643 20.8795Z" fill="#D677B0"/>
<path d="M4.22974 16.6244C4.80329 16.4235 7.24054 14.6051 7.86463 14.5645C7.53692 15.339 6.84787 17.0111 6.14929 17.4016C5.47061 17.3219 4.78962 17.0112 4.22974 16.6244Z" fill="#D677B0"/>
<path d="M16.6274 9.35471C16.6649 9.33663 16.6901 9.3217 16.7249 9.29885C17.8359 8.56901 19.1208 8.01501 20.2959 7.41322C22.7055 6.17928 25.0968 4.95634 27.628 3.9892C28.167 3.78323 28.6858 3.55343 29.2361 3.375C29.8691 3.73845 30.9384 4.15333 31.6516 4.49835L36.2544 6.76229C37.2682 7.25525 38.4758 7.80021 39.4557 8.33031C39.3073 8.41406 39.1228 8.52542 38.9716 8.5953C36.8887 7.59816 34.7171 6.62654 32.6116 5.6737C31.5633 5.19924 30.317 4.32784 29.2329 4.01527C28.1052 4.34809 27.1149 4.9084 26.0437 5.37067C25.2544 5.71127 24.4585 6.08053 23.6634 6.40424C21.6647 7.2179 19.8383 8.35218 17.8835 9.25288C17.6895 9.3423 17.4268 9.42115 17.2869 9.57526C17.0999 9.55458 16.8148 9.42829 16.6274 9.35471Z" fill="#B75DA7"/>
<path d="M5.22388 40.4127L5.46811 40.3799C5.59146 42.3741 8.11751 46.4244 9.21114 48.1697C9.50304 48.6354 10.1811 49.3382 10.4283 49.8376C10.9453 50.8548 13.5476 53.2798 14.5183 53.9689C15.0227 54.3349 15.5966 54.8454 16.1108 55.2398C16.4117 55.4707 17.5558 56.2514 17.7346 56.4507C18.3422 56.7806 19.7125 57.6143 20.1288 58.1233C19.9092 58.2145 20.0003 58.2075 19.7814 58.166C19.4272 57.5796 16.3649 55.9872 15.5943 55.3692C14.2678 54.3326 12.7935 53.2417 11.6371 52.0187C10.4039 50.7145 9.3743 49.0835 8.3274 47.6227C7.43477 46.3771 6.85476 45.0448 6.21638 43.6586C5.70212 42.4763 5.30538 41.7101 5.22388 40.4127Z" fill="#B95998"/>
<path d="M3.61352 24.2041L3.66369 24.6085C3.60882 25.7273 3.52626 29.7347 3.70511 30.6496L3.7239 30.7548L3.70736 30.8144L3.60966 31.0934C3.46615 31.1273 3.51624 31.1203 3.35319 31.049C2.64612 30.0828 2.74159 25.9519 2.72705 24.5827C2.85377 24.5535 3.45877 24.2729 3.61352 24.2041Z" fill="#E6C1E8"/>
<path d="M8.48071 13.5945C9.21462 12.6367 13.4602 10.8438 14.6368 10.4512C14.5904 10.8055 14.5801 11.0124 14.4222 11.3392L14.3301 11.2251C13.4151 11.2627 10.4628 13.2134 9.48219 13.659C9.33838 13.7243 8.74576 13.9723 8.65101 14.036L8.48071 13.5945Z" fill="#B75DA7"/>
<path d="M42.4712 9.66309C43.0125 9.74859 47.6225 12.1146 48.1157 12.5961L47.8419 12.9783C47.752 12.9061 47.6613 12.8475 47.5607 12.7916C46.7216 12.3257 43.5937 10.6435 42.8414 10.8586C42.6774 10.4099 42.585 10.1268 42.4712 9.66309Z" fill="#B75DA7"/>
<path d="M2.63867 24.1907L2.64179 24.1203C2.67402 23.5036 3.2485 19.9489 3.55756 19.667L3.65869 19.8239L3.65645 21.2188C3.6526 21.7196 3.62029 23.2872 3.70523 23.6964L3.61854 23.9707L3.61349 24.2035C3.45874 24.2722 2.85375 24.5529 2.72702 24.5821C2.70163 24.5114 2.65734 24.2771 2.63867 24.1907Z" fill="#E6C1E8"/>
<path d="M2.63867 24.191C3.03562 23.9866 3.17474 23.9634 3.61854 23.9709L3.61349 24.2037C3.45874 24.2725 2.85375 24.5531 2.72702 24.5823C2.70163 24.5117 2.65734 24.2774 2.63867 24.191Z" fill="#EAA6C9"/>
<path d="M4.604 40.4182C4.78734 40.4126 5.04735 40.3956 5.22381 40.4128C5.30532 41.7102 5.70205 42.4764 6.21632 43.6587C6.03656 43.7079 6.11028 43.7147 5.93984 43.6306C5.32599 42.7885 4.78818 41.426 4.604 40.4182Z" fill="#EAA6C9"/>
<path d="M49.3908 9.40527C50.324 9.9489 51.2822 10.4864 52.235 10.9968C52.9741 11.3927 53.9195 11.7666 54.5988 12.2399C55.5712 12.6486 57.3824 13.516 57.8655 14.5114C57.9868 14.8927 58.0793 15.5108 58.0812 15.8997C58.1062 21.0417 58.0805 26.1842 58.0958 31.3269C58.1013 33.1905 58.0709 35.4282 57.8191 37.2518C57.4533 39.9868 56.6931 42.6543 55.5621 45.1712C54.244 48.1029 52.0346 51.6122 49.6648 53.8076C49.4725 53.9858 49.0124 54.3312 48.9693 54.5799L49.0501 54.6422C48.9502 54.6435 48.8903 54.634 48.8036 54.6836L48.7857 54.7609C48.2305 55.2644 45.7308 57.498 45.471 57.9028C44.8395 58.0787 39.933 58.4147 39.4251 58.2364C39.3069 58.2213 39.0682 58.2411 38.9387 58.2471C38.7453 58.2224 38.7188 58.2194 38.5672 58.0986L38.4678 57.7663C38.1572 57.9381 37.8409 58.1181 37.5274 58.2828C36.9466 58.4225 29.7825 58.6277 29.5801 58.5013C30.8075 57.3972 31.4879 56.4476 32.5347 55.2779C33.4716 54.231 34.9298 52.6003 35.9418 51.6394C37.0221 52.1229 37.8993 52.2815 39.0254 51.9078C40.465 51.7371 41.3199 51.1981 42.3051 50.1116C42.3958 49.8997 42.6298 49.6496 42.7768 49.2864L43.0385 48.3461L43.0937 48.0841L43.1557 47.6489C43.3672 46.1588 42.8289 44.4923 41.9891 43.2775C42.8228 42.9295 43.9189 42.7203 44.8177 42.3307C46.0782 41.7844 47.479 42.6116 48.6325 43.1992C49.6843 42.5168 50.21 41.3527 51.319 40.5172C52.3766 39.7204 53.3544 39.1741 54.7469 39.3279C54.8993 39.4073 55.4436 39.4075 55.6134 39.331C56.3861 38.5397 54.8505 35.8054 54.4147 34.9496L54.0175 34.4002C52.585 32.6208 52.4728 32.6947 50.5603 31.4438C51.6006 30.4651 52.9683 29.8381 54.1505 29.1307C54.3118 26.8463 54.2612 23.697 54.2545 21.3561C54.2526 21.0541 54.1876 20.6743 54.1449 20.369C53.3437 19.6191 52.8518 18.2942 52.3115 17.3131C52.0219 17.0729 51.5549 16.2084 51.5339 15.8059C51.5203 15.548 51.6311 15.4321 51.7836 15.2501L51.8035 14.8784L52.0722 14.6962C51.9672 14.5151 50.8368 13.978 50.5409 13.82C50.4531 13.6244 50.29 13.1131 50.2481 12.9089C50.112 12.244 49.4496 11.0203 49.5257 10.405C49.4646 10.0474 49.4182 9.77061 49.3908 9.40527Z" fill="#E393BD"/>
<path d="M29.5801 58.5016C30.8075 57.3974 31.4879 56.4479 32.5347 55.2781C33.4716 54.2312 34.9298 52.6005 35.9418 51.6396C37.0221 52.1231 37.8993 52.2817 39.0254 51.908C39.9322 51.8451 41.4512 52.884 42.3811 53.1147C42.8247 53.2247 43.9366 53.2983 44.2077 53.5692C43.424 54.0925 42.7153 54.8747 42.0019 55.3606C41.0983 55.9762 39.4108 57.3788 38.4678 57.7665C38.1572 57.9383 37.8409 58.1183 37.5274 58.283C36.9466 58.4227 29.7825 58.6279 29.5801 58.5016Z" fill="#EAA6C9"/>
<path d="M48.6325 43.199C49.6843 42.5166 50.21 41.3525 51.3189 40.517C52.3766 39.7202 53.3543 39.1739 54.7468 39.3277C54.38 39.8714 53.9797 41.3574 53.6851 42.0761C53.4608 42.6232 53.1425 43.0921 52.954 43.5307C52.88 43.1547 54.6176 40.1633 54.3255 39.4772L54.2092 39.4561C53.9903 39.6282 52.7194 44.2365 52.2869 44.357L52.2449 44.3383C52.4676 43.8347 52.6695 43.2844 52.8687 42.7679L52.7423 42.6379C52.1945 43.7276 51.6959 44.7414 51.0835 45.8008C50.7882 46.3114 50.0134 47.3188 49.8061 47.7355C48.4411 47.6899 46.7695 47.9145 45.5829 48.6195L45.0597 48.0334C44.5484 47.2608 43.9468 47.167 43.1557 47.6487C43.3672 46.1586 42.8289 44.4921 41.989 43.2773C42.8227 42.9293 43.9188 42.7201 44.8177 42.3306C46.0781 41.7843 47.479 42.6114 48.6325 43.199Z" fill="#EAA6C9"/>
<path d="M52.7422 42.6388C52.9637 41.947 53.3422 40.193 53.6673 39.7121L53.7489 39.7109C53.9012 40.3478 53.1392 42.144 52.8685 42.7688L52.7422 42.6388Z" fill="#E393BD"/>
<path d="M54.3138 12.9461C53.9036 12.5225 52.8015 12.211 52.7268 11.6679C53.2391 11.4879 54.0709 12.1959 54.5987 12.2399C55.5712 12.6486 57.3823 13.5159 57.8654 14.5114C57.9867 14.8926 58.0792 15.5108 58.0811 15.8996C58.1061 21.0417 58.0804 26.1842 58.0957 31.3269C58.1012 33.1905 58.0708 35.4282 57.819 37.2518C57.4532 39.9867 56.693 42.6543 55.562 45.1712C54.2439 48.1028 52.0345 51.6121 49.6647 53.8076C49.4724 53.9858 49.0124 54.3312 48.9693 54.5799L49.05 54.6422C48.9502 54.6435 48.8902 54.634 48.8035 54.6836L48.7857 54.7609C48.2305 55.2643 45.7308 57.498 45.4709 57.9027C44.8395 58.0786 39.9329 58.4147 39.425 58.2364C40.3423 58.0888 43.1873 58.1475 43.7908 57.8144C45.6499 56.7881 48.176 54.2617 49.6761 52.8105C52.0329 50.4887 53.5158 47.698 54.9393 44.7586C56.9615 40.5826 57.2684 36.5269 57.2851 32.0016L57.3054 26.408L57.3207 19.772C57.3254 18.464 57.4803 15.635 57.0569 14.5045C56.3079 13.9687 55.1568 13.4212 54.3138 12.9461Z" fill="#A24192"/>
<path d="M43.1555 47.6487C43.9466 47.167 44.5482 47.2609 45.0595 48.0334L45.5827 48.6196C46.7693 47.9145 48.4409 47.6899 49.8059 47.7355C49.4313 48.5488 45.037 53.278 44.2074 53.5688C43.9363 53.2979 42.8245 53.2243 42.3808 53.1143C41.4509 52.8836 39.9319 51.8447 39.0251 51.9076C40.4647 51.737 41.3196 51.198 42.3048 50.1115C42.3955 49.8995 42.6296 49.6494 42.7765 49.2863L43.0382 48.346L43.0934 48.0839L43.1555 47.6487Z" fill="#D677B0"/>
<path d="M43.1556 47.6487C43.9468 47.167 44.5483 47.2609 45.0596 48.0334C44.7599 48.5555 44.854 48.6768 45.004 49.2616L44.9735 49.343C44.8017 50.2176 44.092 51.0053 43.1381 50.806C42.5824 50.6899 42.6125 50.4536 42.3049 50.1115C42.3957 49.8995 42.6297 49.6494 42.7767 49.2863L43.0383 48.346L43.0936 48.0839L43.1556 47.6487Z" fill="#241141"/>
<path d="M43.0935 48.084C43.2757 48.1316 43.4281 48.1447 43.5397 48.2845C43.7914 48.6608 43.9019 48.4433 44.2225 48.6842L44.2434 49.1889C44.0684 49.3187 43.8232 49.477 43.7094 49.6515L43.5491 49.8741C43.3323 49.7641 42.8774 49.5024 42.7766 49.2863L43.0383 48.346L43.0935 48.084Z" fill="#472578"/>
<path d="M43.0383 48.3467C43.155 48.3884 43.2844 48.4055 43.3125 48.4956C43.4784 49.0294 43.4039 49.1385 43.7094 49.6522L43.5491 49.8748C43.3323 49.7647 42.8774 49.503 42.7766 49.287L43.0383 48.3467Z" fill="#714B9E"/>
<path d="M44.2431 49.1895C44.3456 49.4723 44.3788 49.5436 44.3755 49.8426C44.1154 50.3706 43.7563 49.8922 43.5488 49.8747L43.7092 49.6521C43.8229 49.4776 44.0681 49.3192 44.2431 49.1895Z" fill="#4D2264"/>
<path d="M43.54 48.2842L43.6972 48.3547C43.8251 48.2502 43.8531 48.2188 43.9549 48.0885C44.1541 48.0167 44.2017 47.9576 44.3672 48.0158C44.4618 48.2041 44.4103 48.4471 44.3156 48.6316L44.2228 48.6838C43.9022 48.443 43.7917 48.6605 43.54 48.2842Z" fill="#4D2264"/>
<path d="M45.06 48.0342L45.5832 48.6203C45.7399 48.9178 45.6425 49.3964 45.3772 49.5865C45.0395 49.4238 45.3997 49.4712 45.0044 49.2624C44.8544 48.6776 44.7603 48.5563 45.06 48.0342Z" fill="#A24192"/>
<path d="M52.0724 14.6963C52.1415 14.6939 52.2254 14.6909 52.3244 14.6875C52.9862 15.0848 54.1153 15.8155 54.6812 16.2593C54.6387 17.9882 54.6684 19.6959 54.5998 21.4266L54.6025 22.4099C54.4912 24.3507 54.8179 34.018 54.415 34.9497L54.0178 34.4003C52.5852 32.6209 52.4731 32.6948 50.5605 31.4439C51.6008 30.4652 52.9686 29.8382 54.1507 29.1308C54.3121 26.8464 54.2615 23.6971 54.2548 21.3562C54.2529 21.0542 54.1879 20.6744 54.1452 20.3691C53.3439 19.6193 52.852 18.2944 52.3118 17.3132C52.0221 17.073 51.5552 16.2085 51.5341 15.806C51.5206 15.5481 51.6313 15.4322 51.7839 15.2502L51.8038 14.8785L52.0724 14.6963Z" fill="#BB619F"/>
<path d="M54.2548 21.3555C54.4899 22.1252 54.3214 33.8784 54.1064 34.2815C54.0811 34.329 54.0546 34.3605 54.0178 34.3996C52.5852 32.6202 52.4731 32.6941 50.5605 31.4432C51.6008 30.4645 52.9686 29.8375 54.1507 29.1301C54.3121 26.8457 54.2615 23.6964 54.2548 21.3555Z" fill="#D677B0"/>
<path d="M51.7836 15.25C52.5694 15.6776 53.3006 16.2007 54.1056 16.5177C54.136 17.076 54.2713 19.9874 54.1449 20.3689C53.3436 19.6191 52.8517 18.2942 52.3115 17.313C52.0218 17.0728 51.5549 16.2083 51.5338 15.8058C51.5203 15.5479 51.631 15.432 51.7836 15.25Z" fill="#D677B0"/>
<path d="M54.5996 21.4268C55.5958 21.5229 55.7175 23.4321 55.7251 24.2119C55.7417 25.914 55.8345 27.6533 55.7368 29.3519C55.687 30.2192 55.2713 30.4351 54.6939 30.9067C54.6133 29.0781 54.6685 27.198 54.6513 25.3683C54.6459 24.8009 54.7059 22.9002 54.6023 22.4101L54.5996 21.4268Z" fill="#EAA6C9"/>
<path d="M52.7424 42.6377L52.8687 42.7677C52.6695 43.2843 52.4676 43.8345 52.245 44.3381C51.6704 45.0998 51.2716 46.2768 50.6758 47.0504C49.6994 48.3134 48.8398 49.6773 47.7753 50.8684C46.4326 52.3708 44.904 53.6612 43.3396 54.9199C42.1477 55.8788 41.0253 56.887 39.6545 57.5864C39.3022 57.7662 38.9031 57.9085 38.5671 58.0983L38.4678 57.766C39.4108 57.3783 41.0983 55.9756 42.0019 55.36C42.7153 54.8741 43.424 54.0919 44.2077 53.5686C45.0372 53.2778 49.4315 48.5487 49.8062 47.7353C50.0135 47.3186 50.7883 46.3113 51.0835 45.8006C51.696 44.7412 52.1945 43.7274 52.7424 42.6377Z" fill="#B15496"/>
<path d="M49.3906 9.40527C50.3239 9.9489 51.2821 10.4864 52.2349 10.9968C52.974 11.3927 53.9194 11.7666 54.5987 12.2399C54.0709 12.196 53.2391 11.4879 52.7268 11.668C52.8015 12.211 53.9035 12.5225 54.3137 12.9461C53.0828 12.472 52.3547 11.415 51.0044 11.2471C50.8944 11.2334 49.7524 10.5299 49.5256 10.405C49.4645 10.0474 49.418 9.77061 49.3906 9.40527Z" fill="#B75DA7"/>
<path d="M42.8414 10.8587C43.5936 10.6437 46.7215 12.3259 47.5606 12.7918C47.6613 12.8477 47.752 12.9063 47.8419 12.9785C47.4281 13.3455 46.2511 13.6443 45.6121 13.9438C48.3849 15.5295 48.1895 15.6661 48.8359 18.7675C49.8406 17.9024 49.2277 15.3863 51.8034 14.8782L51.7835 15.25C51.631 15.432 51.5202 15.5479 51.5337 15.8058C51.5548 16.2083 52.0217 17.0728 52.3114 17.313C52.8516 18.2941 53.3436 19.619 54.1448 20.3688C54.1875 20.6742 54.2525 21.054 54.2544 21.356C54.2611 23.6968 54.3117 26.8462 54.1503 29.1306C52.9682 29.838 51.6005 30.465 50.5602 31.4437C49.008 30.6527 48.4009 32.386 47.347 33.3238C48.2233 30.0272 47.3505 25.5327 45.9166 22.4947C45.6281 21.8837 44.6784 20.5436 44.5791 20.0398C44.298 18.6133 44.4985 17.1945 44.1558 15.6876C44.1223 15.3143 43.9678 14.8607 43.7002 14.584C43.3974 14.4655 43.062 14.3633 42.8306 14.141C43.1122 14.1221 43.5676 14.27 43.735 14.0218C43.8187 13.3685 43.0922 11.5414 42.8414 10.8587Z" fill="#EAA6C9"/>
<path d="M48.8359 18.7681C49.8405 17.903 49.2276 15.387 51.8034 14.8789L51.7835 15.2506C51.6309 15.4326 51.5202 15.5485 51.5337 15.8064C51.5547 16.2089 52.0217 17.0735 52.3113 17.3136C51.9516 17.4919 51.3467 17.7581 51.0879 18.0456C50.5892 18.5996 50.7673 19.6526 50.1838 20.1525C49.5653 20.4184 48.2038 19.547 48.8359 18.7681Z" fill="#E393BD"/>
<path d="M8.65073 14.0365C8.74548 13.9727 9.3381 13.7248 9.48191 13.6595C10.4625 13.2139 13.4149 11.2632 14.3299 11.2256L14.4219 11.3397C13.6001 13.7281 12.6386 20.071 13.5367 22.4227C12.2351 25.0819 11.8037 27.6719 11.7039 30.5927C10.5868 29.81 9.15785 28.5802 7.81458 28.0881C7.59263 28.116 7.67743 28.0763 7.50019 28.2749C7.39563 28.3835 7.45884 28.3474 7.29632 28.3705C7.13618 28.2452 7.06589 28.0401 7.00975 27.8548C6.60783 26.5251 5.99237 25.3829 4.59591 24.8921C4.34536 24.804 3.84049 24.704 3.66346 24.6089L3.61328 24.2044L3.61833 23.9716L3.70502 23.6973C3.62008 23.2881 3.65239 21.7205 3.65624 21.2197C3.68091 21.4248 3.68701 21.5594 3.76928 21.7529L3.8599 21.7379C3.99376 21.4703 4.10056 21.1621 4.20625 20.88C4.70257 19.9044 5.36849 18.8761 5.90021 17.8639C5.97309 17.6428 6.02061 17.586 6.14914 17.4017C6.84772 17.0112 7.53677 15.3391 7.86448 14.5646C8.12609 14.1356 8.1877 14.0646 8.08264 13.5795C8.06512 13.3586 8.03562 13.4179 8.14467 13.2857C8.28686 13.3447 8.4285 13.4371 8.48043 13.595L8.65073 14.0365Z" fill="#E393BD"/>
<path d="M6.6051 21.1201C7.0209 21.7535 7.50489 22.3894 7.9443 23.0135C9.67183 23.5771 9.84683 23.9969 8.45485 25.1413C7.9546 25.5526 7.54588 26.4251 7.44938 27.0468C7.38273 27.4453 7.52612 27.8955 7.50019 28.2745C7.39563 28.3831 7.45884 28.347 7.29632 28.3701C7.13618 28.2448 7.06589 28.0397 7.00975 27.8544C6.60783 26.5247 5.99237 25.3825 4.59591 24.8917C4.34536 24.8036 3.84049 24.7036 3.66346 24.6085L3.61328 24.204L3.61833 23.9712L3.70502 23.6969C5.30065 23.6114 5.70713 22.2412 6.6051 21.1201Z" fill="#B75DA7"/>
<path d="M8.08283 13.5789C8.06531 13.358 8.0358 13.4173 8.14485 13.2852C8.28705 13.3441 8.42868 13.4365 8.48061 13.5944L8.65091 14.0359C8.7559 14.3709 9.08227 14.8593 9.27892 15.1711L9.57088 15.7988C10.0423 17.0215 10.2483 17.0359 11.3705 17.6969C10.1027 18.7406 9.8269 19.2337 9.13462 20.6635C9.02032 20.4364 8.75246 19.9113 8.69955 19.7231C8.2677 18.1876 8.18662 17.7211 6.40064 17.8305C6.32747 17.835 5.99486 17.8676 5.90039 17.8633C5.97328 17.6422 6.02079 17.5854 6.14932 17.4012C6.8479 17.0107 7.53695 15.3386 7.86466 14.564C8.12628 14.135 8.18788 14.0641 8.08283 13.5789Z" fill="#F8E0EC"/>
<path d="M9.27905 15.1709C9.44914 14.8502 9.53913 14.6706 9.85471 14.4911L10.01 14.4902C10.2044 14.8519 9.85849 15.5832 9.57102 15.7985L9.27905 15.1709Z" fill="#EAA6C9"/>
<path d="M17.2871 9.57561C17.427 9.4215 17.6897 9.34266 17.8837 9.25323C19.8385 8.35253 21.6649 7.21825 23.6636 6.40459C24.4587 6.08088 25.2546 5.71162 26.0439 5.37102C27.1151 4.90875 28.1054 4.34845 29.2331 4.01562C30.3172 4.32819 31.5634 5.1996 32.6118 5.67405C34.7173 6.62689 36.8889 7.59852 38.9718 8.59565C37.4144 9.6431 36.3129 10.5505 35.089 12.0001C34.8319 12.3698 34.646 12.6723 34.4183 13.061C30.2026 11.7583 26.6685 12.2746 22.6317 13.7224L22.0967 13.0663C20.6752 11.3671 19.2559 10.5845 17.2871 9.57561Z" fill="#E393BD"/>
<path d="M29.1972 4.61914C29.6351 6.29965 32.6132 9.7812 33.8966 11.1371C34.1933 11.4506 34.7166 11.6628 35.0532 11.9665L35.089 11.9995C34.8319 12.3692 34.646 12.6717 34.4183 13.0604C30.2026 11.7577 26.6685 12.274 22.6317 13.7218L22.0967 13.0657C22.8611 12.0475 23.384 11.7655 24.1909 10.9413C26.0114 9.08185 28.1779 7.03369 29.1972 4.61914Z" fill="#EAA6C9"/>
<path d="M5.46777 40.3805C8.68035 40.1971 10.9503 43.945 11.5127 43.9758C11.7677 43.8554 12.0864 43.6504 12.2836 43.4654C13.6726 42.1622 15.7382 43.2243 17.3034 43.4921C17.3483 43.4998 17.4174 43.5556 17.4556 43.5848C17.4078 44.0892 16.4015 44.4784 16.0579 44.8126C15.1669 45.6791 14.7471 47.0333 14.7359 48.2523C14.9702 48.652 15.0389 48.8345 15.2 49.2644C13.5595 50.1401 13.0573 47.796 11.6235 48.4447C10.9107 48.7672 10.8184 49.4175 10.4279 49.8383C10.1807 49.3389 9.5027 48.6361 9.2108 48.1703C8.11717 46.4251 5.59112 42.3748 5.46777 40.3805Z" fill="#EAA6C9"/>
<path d="M21.8638 51.4902C22.1327 51.8226 22.376 52.1186 22.6637 52.4358C23.9898 53.7434 25.1648 54.9946 26.4274 56.3641C26.8688 56.8429 28.1238 58.1327 28.6104 58.4786C28.0317 58.6376 20.8144 58.2887 20.1286 58.1242C19.7123 57.6152 18.342 56.7816 17.7344 56.4517C17.5556 56.2523 16.4115 55.4717 16.1105 55.2408C15.5964 54.8464 15.0225 54.3359 14.5181 53.9699C14.826 53.3258 18.0529 52.9247 18.5264 52.0493C19.6456 52.3082 20.853 51.9822 21.8638 51.4902Z" fill="#EAA6C9"/>
<path d="M21.8637 51.4902C22.1327 51.8226 22.376 52.1186 22.6637 52.4358C21.9076 53.1801 21.038 53.6711 20.2067 54.3084C19.3943 54.9311 18.4655 55.7322 17.7344 56.4517C17.5556 56.2523 16.4115 55.4717 16.1105 55.2408C15.5964 54.8464 15.0225 54.3359 14.5181 53.9699C14.826 53.3258 18.0529 52.9247 18.5264 52.0493C19.6456 52.3082 20.853 51.9822 21.8637 51.4902Z" fill="#E393BD"/>
<path d="M3.66379 24.6084C3.84081 24.7036 4.34569 24.8035 4.59623 24.8916C5.99269 25.3824 6.60816 26.5247 7.01008 27.8543C7.06621 28.0396 7.13651 28.2447 7.29664 28.3701C7.45917 28.3469 7.39595 28.383 7.50051 28.2745C7.67775 28.0759 7.59295 28.1155 7.8149 28.0876C9.15817 28.5797 10.5871 29.8096 11.7042 30.5922C11.7967 31.6258 11.969 32.6366 12.0643 33.6553C11.4641 33.8567 11.0381 31.5944 9.6627 32.1132C7.75835 32.8315 6.25543 34.3037 5.14449 35.9518C4.91896 36.3989 4.68811 36.8433 4.45207 37.2849C4.39622 37.4197 4.28366 37.6601 4.26355 37.7919C3.61851 36.4668 3.753 32.3706 3.70745 30.8143L3.72399 30.7546L3.7052 30.6494C3.52635 29.7346 3.60891 25.7272 3.66379 24.6084Z" fill="#EAA6C9"/>
<path d="M3.72381 30.7543C3.98207 30.7113 3.9478 30.7576 4.10268 30.5996C4.1291 30.7684 4.15475 30.9782 4.19974 31.1397C4.12924 31.9495 4.21783 34.1294 4.28468 34.9607L4.30066 35.0155C4.47068 35.6141 4.29646 35.8397 4.62416 36.4019L4.69074 36.4284C4.78956 36.2575 4.91879 35.9654 5.14431 35.9514C4.91879 36.3986 4.68794 36.843 4.4519 37.2846C4.39604 37.4194 4.28349 37.6598 4.26338 37.7916C3.61834 36.4665 3.75283 32.3702 3.70728 30.8139L3.72381 30.7543Z" fill="#BC569B"/>
<path d="M4.28461 34.9609L4.30059 35.0157C4.47061 35.6143 4.29639 35.84 4.62409 36.4022L4.69067 36.4287C4.78949 36.2577 4.91872 35.9656 5.14424 35.9517C4.91872 36.3988 4.68787 36.8432 4.45183 37.2848C4.24109 36.9778 4.29267 35.4419 4.28461 34.9609Z" fill="#D677B0"/>
<path d="M3.70508 30.6493L3.73045 26.4945C3.73248 26.2074 3.77418 25.0027 3.7521 24.8027C4.30428 27.1236 4.21437 28.7517 4.19979 31.1399C4.1548 30.9784 4.12915 30.7686 4.10273 30.5998C3.94784 30.7578 3.98211 30.7114 3.72386 30.7545L3.70508 30.6493Z" fill="#D677B0"/>
<path d="M42.5174 13.9678C42.6644 14.1569 42.5816 14.1088 42.8304 14.1414C43.0618 14.3637 43.3972 14.4658 43.7 14.5844C43.9676 14.8611 44.1222 15.3147 44.1556 15.688C43.5193 16.059 44.0363 17.409 43.8225 17.9881C43.7937 18.3427 43.8473 18.3906 43.6684 18.6449C42.9952 18.747 42.7979 17.5662 42.0479 17.3209C42.3618 16.765 42.4312 14.7282 42.5174 13.9678Z" fill="#241141"/>
<path d="M43.7002 14.584C43.9678 14.8607 44.1223 15.3142 44.1557 15.6876C43.5195 16.0585 44.0365 17.4085 43.8226 17.9877C43.7851 17.7814 43.7992 16.8155 43.7869 16.5417C43.7579 15.8964 43.721 15.2287 43.7002 14.584Z" fill="#040010"/>
<path d="M23.1964 14.2612C24.4754 13.6783 26.4553 13.2165 27.8838 13.0947L28.0747 13.2662L28.1284 13.3209C27.7159 14.0563 25.6321 14.8453 24.8399 15.1383C24.535 15.251 24.3419 14.8424 23.3801 15.0794L23.3478 15.146L23.3254 15.099C23.1905 14.7853 22.9898 14.6297 22.9952 14.3844L23.1964 14.2612Z" fill="#C48FDA"/>
<path d="M24.2123 15.0004C25.3821 14.7285 27.253 14.21 28.0747 13.2656L28.1284 13.3203C27.7159 14.0557 25.6321 14.8447 24.8399 15.1377C24.535 15.2504 24.3419 14.8418 23.3801 15.0788L23.3478 15.1454L23.3254 15.0984C23.1905 14.7847 22.9898 14.6291 22.9952 14.3838L23.1964 14.2607C23.6335 14.6384 23.7409 14.4918 24.2123 15.0004Z" fill="#A984C7"/>
<path d="M29.1439 37.8355C31.5976 37.8216 33.2482 37.8596 35.6978 38.105C36.4638 38.5242 38.2396 41.8277 38.9815 42.6828C39.1764 42.9074 40.2809 44.4164 40.2814 44.5695C40.1447 44.6711 40.2193 44.6411 40.049 44.6611C39.725 44.6978 39.4588 44.7063 39.1853 44.8848L39.1486 44.9084C38.8415 45.1104 38.5342 45.5891 38.3178 45.9047C37.685 45.8897 37.0497 45.7995 36.5655 46.2828C35.8335 47.0137 35.6875 48.1309 35.6397 49.1196C35.6182 49.5644 35.9827 49.8581 36.2832 50.1703C35.1464 51.6496 34.0403 52.9186 32.6814 54.1972C32.2143 54.6368 31.7948 55.383 31.3322 55.8529C30.7465 56.4948 30.0091 57.1842 29.367 57.7805C29.2711 57.8918 29.2195 57.9342 29.1069 58.0298C28.8809 58.0094 28.7558 57.7789 28.5792 57.5716C27.699 56.7765 26.6806 55.5696 25.811 54.7083C24.3333 53.2448 22.7125 51.6933 21.3968 50.0872C21.7985 48.9856 21.7173 48.621 21.3487 47.421C21.184 46.8437 20.0628 45.6435 19.4685 45.4828C18.8139 45.3057 17.2245 45.5715 17.8851 44.1513C18.7252 42.5507 20.5083 40.0031 21.5699 38.4856C21.9666 37.868 27.5458 37.8509 28.711 37.8348L29.1439 37.8355Z" fill="#C48FDA"/>
<path d="M29.1441 37.8355C31.5978 37.8216 33.2484 37.8596 35.698 38.105C36.464 38.5242 38.2398 41.8277 38.9817 42.6828C39.1766 42.9074 40.2811 44.4164 40.2815 44.5695C40.1449 44.6711 40.2195 44.6411 40.0492 44.6611C39.7631 44.6324 39.4777 44.5002 39.217 44.5011C38.6367 44.5032 38.0463 44.5411 37.4644 44.5492L33.5098 44.5707L33.468 44.4686C33.1614 44.7221 25.2441 44.4924 24.1254 44.5928L24.0229 44.6458L23.9869 44.5873C22.1978 44.5111 20.2587 44.6614 18.4634 44.5075C18.0954 44.476 18.076 44.4015 17.8853 44.1513C18.7253 42.5507 20.5085 40.0031 21.5701 38.4856C21.9668 37.868 27.546 37.8509 28.7112 37.8348L29.1441 37.8355Z" fill="white"/>
<path d="M21.5701 38.4857C21.9668 37.8681 27.546 37.851 28.7112 37.835C28.4035 38.259 28.0949 38.7881 27.7846 39.2411C26.9032 40.5427 25.9846 41.8185 25.0299 43.0672C24.7839 43.3862 24.0673 44.1064 24.0648 44.4838L24.1254 44.5929L24.0229 44.646L23.9869 44.5875C22.1978 44.5112 20.2587 44.6615 18.4634 44.5076C18.0954 44.4761 18.076 44.4016 17.8853 44.1515C18.7253 42.5509 20.5085 40.0032 21.5701 38.4857Z" fill="#E6C1E8"/>
<path d="M17.8853 44.1511C18.7253 42.5505 20.5085 40.0028 21.5701 38.4854C21.9717 38.9393 22.4769 40.5006 22.7082 41.1266C22.9595 41.807 24.0376 43.9903 23.9869 44.5871C22.1978 44.5108 20.2587 44.6611 18.4634 44.5072C18.0954 44.4757 18.076 44.4012 17.8853 44.1511Z" fill="#C48FDA"/>
<path d="M35.6976 38.1055C36.4636 38.5247 38.2394 41.8282 38.9813 42.6833C39.1762 42.9079 40.2807 44.4169 40.2811 44.57C40.1445 44.6716 40.2191 44.6416 40.0488 44.6615C39.7627 44.6329 39.4773 44.5007 39.2166 44.5016C38.6363 44.5037 38.0459 44.5416 37.464 44.5497L33.5094 44.5712L33.4676 44.4691L33.4004 44.2969C33.493 44.1578 33.6407 43.6521 33.7444 43.4204C34.5105 41.7071 35.1279 39.8978 35.6976 38.1055Z" fill="#9372BA"/>
<path d="M29.144 37.8355C31.5977 37.8216 33.2483 37.8596 35.6979 38.105C35.1282 39.8973 34.5108 41.7067 33.7447 43.4199C33.641 43.6517 33.4933 44.1573 33.4007 44.2964C33.1139 43.9871 32.4029 42.9238 32.1497 42.5514C31.0909 41.0165 30.0883 39.4435 29.144 37.8355Z" fill="#C48FDA"/>
<path d="M17.8851 44.1514C18.0758 44.4015 18.0952 44.476 18.4632 44.5075C20.2585 44.6614 22.1977 44.5111 23.9867 44.5874L24.0228 44.6459C24.1206 45.0254 24.2507 45.3592 24.3795 45.7266C25.7187 49.5464 27.3248 53.2658 28.6761 57.08C28.7469 57.2799 28.6834 57.4053 28.5792 57.5716C27.699 56.7766 26.6806 55.5696 25.811 54.7084C24.3333 53.2448 22.7125 51.6934 21.3968 50.0873C21.7985 48.9856 21.7173 48.621 21.3487 47.4211C21.184 46.8437 20.0628 45.6436 19.4685 45.4829C18.8139 45.3058 17.2245 45.5715 17.8851 44.1514Z" fill="#9372BA"/>
<path d="M33.5097 44.5706L37.4644 44.5491C38.0462 44.5409 38.6366 44.5031 39.2169 44.501C39.4776 44.5001 39.763 44.6322 40.0492 44.6609C39.7251 44.6977 39.4589 44.7061 39.1854 44.8846L39.1487 44.9082C38.8416 45.1102 38.5343 45.5889 38.3179 45.9045C37.6851 45.8895 37.0498 45.7993 36.5656 46.2827C35.8336 47.0136 35.6876 48.1308 35.6398 49.1195C35.6183 49.5643 35.9828 49.858 36.2833 50.1702C35.1465 51.6495 34.0404 52.9184 32.6815 54.1971C32.2144 54.6366 31.7949 55.3829 31.3323 55.8527C30.7466 56.4947 30.0092 57.1841 29.3671 57.7804C29.1371 57.3141 29.639 56.2124 29.8129 55.674C30.2209 54.3876 30.6479 53.1072 31.0937 51.8334C31.5759 50.4391 31.9938 49.0654 32.4338 47.6589C32.6906 46.8379 33.3843 45.338 33.5097 44.5706Z" fill="#A74D9F"/>
<path d="M41.0642 45.0258C40.9364 44.0399 39.447 42.9391 39.6431 42.3362C39.8042 42.2571 40.1612 42.1452 40.2821 42.2336C40.8391 42.6406 41.9092 44.119 42.1645 44.7051C42.6656 45.8965 42.6485 47.5342 42.1967 48.7332C41.8772 49.5814 41.0114 50.67 40.1568 50.9701C38.6776 51.4896 37.8526 51.5635 36.407 50.9896C36.7458 50.7359 37.0916 50.4917 37.444 50.2573C37.0536 50.0883 36.4264 49.7851 36.2817 49.3819C35.9633 48.4941 37.2516 48.2544 37.5026 48.0946C37.4515 48.0327 37.3818 47.9657 37.3247 47.9071C36.9862 47.8446 36.8269 48.0403 36.4456 48.0635C36.3969 48.0031 36.3339 47.949 36.3627 47.859C36.8699 46.2732 37.3647 46.3048 38.801 46.3304C39.2691 45.0777 39.908 45.3198 41.0642 45.0258Z" fill="#714B9E"/>
<path d="M41.0642 45.0264C40.8821 45.3945 40.2461 45.2265 40.0785 45.3843L40.426 45.5893C40.4892 46.0748 40.0775 47.9995 39.8734 48.4576C39.0482 49.2261 38.477 49.1472 37.6578 48.5427C37.5862 48.8355 37.715 49.0848 37.8146 49.3796C37.4527 49.1005 37.4124 48.5104 37.5026 48.0951C37.4515 48.0332 37.3818 47.9662 37.3247 47.9076C36.9862 47.8452 36.8269 48.0408 36.4456 48.064C36.3969 48.0037 36.3339 47.9496 36.3627 47.8595C36.8699 46.2737 37.3647 46.3053 38.801 46.3309C39.2691 45.0782 39.908 45.3203 41.0642 45.0264Z" fill="#9372BA"/>
<path d="M48.5161 35.1553C48.7085 35.7588 48.479 36.6919 48.8449 37.106C48.8849 37.4101 48.6907 37.8045 48.561 38.0775C48.5528 39.6713 48.3313 40.7998 48.2584 42.2697C47.2302 41.7563 46.1695 41.4227 45.0063 41.539L44.9495 41.5456C44.1941 41.9362 43.6963 41.9657 42.92 42.2143C42.6024 42.316 42.2941 42.6171 41.9009 42.7105C41.501 42.674 41.1321 42.166 40.8691 41.864C42.1454 41.1116 43.5241 40.0718 44.4836 38.9451C45.652 37.5731 45.4815 37.4485 47.0252 36.3757L48.208 35.3405C48.2297 35.3204 48.473 35.1806 48.5161 35.1553Z" fill="#A74D9F"/>
<path d="M47.0252 36.376C47.6802 38.0256 44.2438 40.8265 44.2812 41.5811C44.5369 41.5546 44.6926 41.5403 44.9495 41.5459C44.1941 41.9365 43.6963 41.966 42.92 42.2146C42.6024 42.3163 42.2941 42.6174 41.9009 42.7108C41.501 42.6743 41.1321 42.1663 40.8691 41.8643C42.1454 41.1119 43.5241 40.072 44.4836 38.9454C45.652 37.5734 45.4815 37.4488 47.0252 36.376Z" fill="#6C389A"/>
<path d="M48.5161 35.1553C48.7085 35.7588 48.479 36.6919 48.8449 37.106C48.8849 37.4101 48.6907 37.8045 48.561 38.0775C48.4152 37.2714 48.2414 36.1418 48.208 35.3405C48.2297 35.3204 48.473 35.1806 48.5161 35.1553Z" fill="#040010"/>
<path d="M15.5498 48.1607C15.4232 47.0311 15.7171 46.3448 16.3661 45.409C16.4788 45.2466 16.6229 45.1161 16.8008 45.0273L16.9794 45.0414C17.1829 45.3382 17.1132 45.5575 17.0866 45.9455C17.4306 45.8714 17.7238 45.8035 18.065 45.7075C18.5878 45.8966 18.5982 45.8509 18.7916 46.355L18.9009 46.3797C18.9808 46.2897 19.0408 46.17 19.164 46.18C19.7746 46.229 20.7555 47.0005 20.83 47.6317C20.8559 47.852 20.5422 48.0517 20.3728 48.1661C20.7042 48.3541 21.659 48.7838 21.1622 49.3474C20.4215 50.1876 20.6552 50.3739 21.4086 50.9419C19.1199 52.1659 15.8756 50.7887 15.5498 48.1607Z" fill="#9372BA"/>
<path d="M19.4413 49.5631C19.6581 49.1102 19.9343 48.4227 20.3727 48.1665C20.7042 48.3546 21.659 48.7843 21.1621 49.3479C20.4215 50.1881 20.6552 50.3744 21.4086 50.9424C19.1199 52.1664 15.8756 50.7892 15.5498 48.1611C17.1639 49.034 17.2333 49.9619 19.4413 49.5631Z" fill="#684399"/>
<path d="M9.98646 34.9684L10.17 34.9521C10.3177 35.049 10.335 35.0569 10.3501 35.259C10.4501 36.2917 10.3599 37.4387 10.563 38.4554C10.8475 39.8801 10.8063 41.4662 11.1326 42.8637C10.2503 41.8269 9.3274 40.9697 8.11176 40.3468C6.842 39.7442 5.79953 39.7557 4.41968 39.7892C4.46565 39.6693 4.51555 39.551 4.56937 39.4345C5.43818 37.5268 8.04343 35.6992 9.98646 34.9684Z" fill="#A74D9F"/>
<path d="M11.5366 43.0579C11.4864 42.2192 11.2816 41.0759 11.2529 40.303C11.2156 39.2978 11.4384 37.2071 11.627 36.1992C12.1354 36.5509 12.2493 36.6623 12.6808 37.103C13.9169 37.8789 14.3278 38.4231 15.1703 39.5755C15.593 40.1536 16.4015 40.8145 16.9805 41.2329C17.1185 41.3246 17.6701 41.6773 17.7628 41.7636C18.001 41.9025 18.2857 42.0792 18.5292 42.1976C18.2464 42.4642 17.999 42.7516 17.6024 42.7953C17.1188 42.7109 16.8083 42.8268 16.3529 42.8119C16.0026 42.8005 15.3276 42.3618 15.006 42.2339C14.1509 41.8938 12.3669 42.7232 11.5366 43.0579Z" fill="#9150B1"/>
<path d="M12.6807 37.1035C13.9168 37.8794 14.3277 38.4236 15.1702 39.576C15.5929 40.1541 16.4014 40.815 16.9804 41.2334C16.298 41.7365 15.8506 41.0389 15.4753 41.5865C15.0352 41.3737 13.7314 39.5265 13.4176 39.042C13.5753 39.2063 13.7283 39.3752 13.8763 39.5483L13.9924 39.5345C14.763 38.2143 13.0855 37.8735 12.6807 37.1035Z" fill="#714B9E"/>
<path d="M17.7629 41.7646C18.0012 41.9036 18.2858 42.0802 18.5294 42.1986C18.2466 42.4653 17.9991 42.7526 17.6025 42.7963C17.537 42.2981 17.4825 42.1688 17.7629 41.7646Z" fill="#714B9E"/>
<path d="M49.8005 33.9619C49.8442 33.9681 49.8875 33.9771 49.9301 33.989C50.074 34.0283 50.7149 34.4096 50.8767 34.499C52.6829 35.4969 54.1773 37.0095 55.2001 38.8093C53.7098 38.5956 52.8836 38.8794 51.5932 39.5343C50.5791 40.1095 49.4007 41.3801 48.7588 42.3407C48.8308 40.7628 49.1566 39.09 49.2763 37.4927C49.3486 36.5262 49.3199 35.4707 49.4378 34.5093C49.4537 34.3799 49.7083 34.0757 49.8005 33.9619Z" fill="#A74D9F"/>
<path d="M51.1935 37.5176C51.4041 37.5594 51.5436 37.5628 51.6806 37.7308C51.7602 37.9506 51.6561 38.1352 51.5712 38.3597C51.2943 38.3797 51.389 38.4129 51.2041 38.2578C51.1091 38.0177 51.1636 37.7776 51.1935 37.5176Z" fill="#A984C7"/>
<path d="M10.0868 32.4492C10.5373 32.455 10.6353 32.6482 10.8388 33.0067C11.2895 33.8009 11.5448 34.0812 12.3385 34.5159L12.3592 34.5559C12.6351 35.0798 12.9028 36.2172 13.0986 36.8545C12.6618 36.5279 12.0418 35.8963 11.5615 35.9233C10.9481 36.3007 11.1951 37.3186 11.003 38.0855C10.8294 37.828 10.7526 35.65 10.6476 35.1847C10.5738 34.858 10.5122 34.6563 10.3916 34.3236C10.115 34.4167 9.70792 34.6218 9.43292 34.75C8.43606 35.2386 7.30781 35.7729 6.48806 36.526C5.89516 37.0707 5.4289 37.6141 4.79956 38.1466C5.57797 35.7448 7.7515 33.4089 10.0868 32.4492Z" fill="#472578"/>
<path d="M46.3704 36.4797C47.0038 34.5918 47.0886 34.2093 48.5632 32.7485C48.9422 32.3731 49.1484 32.0189 49.6613 31.6416C50.1896 31.9099 51.3148 32.4525 51.7677 32.7641C53.2499 33.7837 54.341 35.8098 54.9174 37.4697C53.5816 36.2298 52.812 35.0185 51.0542 34.1304C49.6869 33.4397 49.2366 33.1867 48.9518 35.0345C48.9076 34.8735 48.9041 34.7962 48.7911 34.6821L48.6096 34.834C48.1249 34.7385 46.7829 36.1238 46.3704 36.4797Z" fill="#472578"/>
<path d="M48.6094 34.8336L48.7909 34.6816C48.9039 34.7957 48.9074 34.8731 48.9517 35.0341C48.9082 35.7243 48.8726 36.4148 48.8449 37.1058C48.479 36.6917 48.7085 35.7586 48.5161 35.155L48.6094 34.8336Z" fill="#714B9E" fill-opacity="0.988235"/>
</svg>
