<svg width="24" height="24" viewBox="0 0 24 24" fill="none" xmlns="http://www.w3.org/2000/svg">
<path d="M3 17H5.735C6.42574 17 7.10472 16.8211 7.70581 16.4808C8.3069 16.1405 8.80961 15.6503 9.165 15.058L12.835 8.942C13.1904 8.34969 13.6931 7.85951 14.2942 7.51919C14.8953 7.17886 15.5743 6.99999 16.265 7H21M21 7L19 5M21 7L19 9M3 7H5.735C6.27051 7.00003 6.80057 7.10758 7.29374 7.31629C7.78691 7.525 8.23315 7.83061 8.606 8.215M21 17H16.265C15.7295 17 15.1994 16.8924 14.7063 16.6837C14.2131 16.475 13.7669 16.1694 13.394 15.785M21 17L19 19M21 17L19 15" stroke="#32352A" stroke-width="2" stroke-linecap="round" stroke-linejoin="round"/>
</svg>
