<svg width="24" height="24" viewBox="0 0 24 24" fill="none" xmlns="http://www.w3.org/2000/svg">
<path fill-rule="evenodd" clip-rule="evenodd" d="M14.5 4.5C14.5 4.23478 14.6054 3.98043 14.7929 3.79289C14.9804 3.60536 15.2348 3.5 15.5 3.5H17.5C18.2956 3.5 19.0587 3.81607 19.6213 4.37868C20.1839 4.94129 20.5 5.70435 20.5 6.5V8.5C20.5 8.76522 20.3946 9.01957 20.2071 9.20711C20.0196 9.39464 19.7652 9.5 19.5 9.5C19.2348 9.5 18.9804 9.39464 18.7929 9.20711C18.6054 9.01957 18.5 8.76522 18.5 8.5V6.5C18.5 6.23478 18.3946 5.98043 18.2071 5.79289C18.0196 5.60536 17.7652 5.5 17.5 5.5H15.5C15.2348 5.5 14.9804 5.39464 14.7929 5.20711C14.6054 5.01957 14.5 4.76522 14.5 4.5ZM3.5 8.5C3.5 8.76522 3.60536 9.01957 3.79289 9.20711C3.98043 9.39464 4.23478 9.5 4.5 9.5C4.76522 9.5 5.01957 9.39464 5.20711 9.20711C5.39464 9.01957 5.5 8.76522 5.5 8.5V6.5C5.5 6.23478 5.60536 5.98043 5.79289 5.79289C5.98043 5.60536 6.23478 5.5 6.5 5.5H8.5C8.76522 5.5 9.01957 5.39464 9.20711 5.20711C9.39464 5.01957 9.5 4.76522 9.5 4.5C9.5 4.23478 9.39464 3.98043 9.20711 3.79289C9.01957 3.60536 8.76522 3.5 8.5 3.5H6.5C5.70435 3.5 4.94129 3.81607 4.37868 4.37868C3.81607 4.94129 3.5 5.70435 3.5 6.5V8.5ZM20.5 15.5C20.5 15.2348 20.3946 14.9804 20.2071 14.7929C20.0196 14.6054 19.7652 14.5 19.5 14.5C19.2348 14.5 18.9804 14.6054 18.7929 14.7929C18.6054 14.9804 18.5 15.2348 18.5 15.5V17.5C18.5 17.7652 18.3946 18.0196 18.2071 18.2071C18.0196 18.3946 17.7652 18.5 17.5 18.5H15.5C15.2348 18.5 14.9804 18.6054 14.7929 18.7929C14.6054 18.9804 14.5 19.2348 14.5 19.5C14.5 19.7652 14.6054 20.0196 14.7929 20.2071C14.9804 20.3946 15.2348 20.5 15.5 20.5H17.5C18.2956 20.5 19.0587 20.1839 19.6213 19.6213C20.1839 19.0587 20.5 18.2956 20.5 17.5V15.5ZM8.5 20.5C8.76522 20.5 9.01957 20.3946 9.20711 20.2071C9.39464 20.0196 9.5 19.7652 9.5 19.5C9.5 19.2348 9.39464 18.9804 9.20711 18.7929C9.01957 18.6054 8.76522 18.5 8.5 18.5H6.5C6.23478 18.5 5.98043 18.3946 5.79289 18.2071C5.60536 18.0196 5.5 17.7652 5.5 17.5V15.5C5.5 15.2348 5.39464 14.9804 5.20711 14.7929C5.01957 14.6054 4.76522 14.5 4.5 14.5C4.23478 14.5 3.98043 14.6054 3.79289 14.7929C3.60536 14.9804 3.5 15.2348 3.5 15.5V17.5C3.5 18.2956 3.81607 19.0587 4.37868 19.6213C4.94129 20.1839 5.70435 20.5 6.5 20.5H8.5Z" fill="black"/>
</svg>
