<svg width="213" height="53" viewBox="0 0 213 53" fill="none" xmlns="http://www.w3.org/2000/svg">
<path d="M3.48026 10.1938C1.65178 10.1938 0.000107785 11.4975 7.98434e-05 13.326C-5.3113e-05 22.0264 3.59652e-06 28.6388 7.98434e-05 36.6432C9.85147e-05 38.6033 1.04393 40.2182 2.08798 41.1674C3.13204 42.1165 4.87212 42.9075 6.2644 42.9075H20.0262C21.644 42.9075 23.011 41.3925 22.969 39.7753C22.9375 38.5601 22.273 36.6432 20.0262 36.6432H10.0926C9.11254 36.6432 8.50344 36.1756 8.00428 35.5991C7.50512 35.0226 6.96044 34.0225 6.96044 33.163V13.326C6.96044 11.4975 5.30873 10.1938 3.48026 10.1938Z" fill="#57477A"/>
<path d="M30.6254 20.2863C29.0405 20.2863 27.1454 21.4855 27.1454 23.0705V40.1233C27.1454 41.7083 29.0405 42.9075 30.6254 42.9075C32.2104 42.9075 34.1058 41.7083 34.1058 40.1233V23.0705C34.1058 21.4855 32.2104 20.2863 30.6254 20.2863Z" fill="#57477A"/>
<path d="M39.6741 23.4185V40.1233C39.6741 41.7083 41.5691 42.9075 43.1541 42.9075C44.739 42.9075 46.6346 41.7083 46.6345 40.1233C46.6342 35.9471 46.6345 34.207 46.6345 29.6828C46.6345 27.5598 48.6877 26.2026 50.8107 26.2026C52.9337 26.2026 54.9869 27.5598 54.9869 29.6828V40.1233C54.9869 41.7083 56.8819 42.9075 58.4668 42.9075C60.0518 42.9075 61.9473 41.7083 61.9473 40.1233V27.5947C61.9473 24.8106 59.1629 20.2863 53.2466 20.2863C50.319 20.2863 48.0263 20.9824 47.1424 22.7225C47.0193 22.9648 45.9382 22.9943 45.9382 22.7225C45.9382 22.0264 45.9382 20.2863 42.806 20.2863C40.0217 20.2863 39.6741 22.0799 39.6741 23.4185Z" fill="#57477A"/>
<path d="M94.3127 20.2863C92.8426 20.2863 91.1805 21.9484 91.1805 23.4185V36.2951C91.1805 40.2924 95.5358 42.9075 99.5329 42.9075C103.361 42.9075 104.753 41.5154 104.753 41.1674C104.753 40.8194 106.305 40.4124 106.493 41.1674C106.835 42.5346 108.121 42.9075 109.625 42.9075C111.13 42.9075 112.062 41.414 112.062 39.7753C112.063 32.815 112.062 30.7269 112.062 23.4185C112.062 21.9484 110.4 20.2863 108.93 20.2863C107.46 20.2863 105.797 21.9484 105.797 23.4185C105.797 28.6388 105.797 29.3348 105.797 33.859C105.797 35.8191 104.405 37.6872 101.621 37.6872C98.8374 37.6872 97.4448 35.8191 97.4448 33.859V23.4185C97.4448 21.9484 95.7827 20.2863 94.3127 20.2863Z" fill="#57477A"/>
<path fill-rule="evenodd" clip-rule="evenodd" d="M117.63 26.2026C116.907 25.1586 117.207 24.0277 118.326 22.7225C120.414 20.2863 123.711 19.8554 126.678 19.9383C130.389 20.042 131.71 20.0976 134.335 22.7225C135.727 24.1145 136.423 26.2026 136.423 30.3788V39.4273C136.423 42.2114 135.379 42.9075 133.639 42.9075C129.81 42.9075 131.603 39.3757 130.507 40.4714C128.766 42.2114 126.524 43.034 123.546 42.9075C119.407 42.7317 115.48 40.8194 115.542 36.6432C115.603 32.4669 117.63 30.7268 119.718 29.6828C122.371 28.356 129.35 28.8732 130.507 30.0308C130.854 30.3788 130.888 27.9427 130.507 27.2467C129.363 25.1586 126.928 25.1063 125.286 25.1586C123.645 25.2108 123.275 26.1643 121.806 26.8987C120.414 27.5947 118.353 27.2467 117.63 26.2026ZM125.286 38.2819C123.198 38.63 121.458 37.3729 121.458 35.8458C121.458 34.3187 123.198 33.0617 124.938 33.0617C127.026 33.0617 128.488 33.7577 128.767 35.1498C129.115 36.8899 127.328 37.9416 125.286 38.2819Z" fill="#57477A"/>
<path d="M167.049 17.1542C167.744 14.37 162.872 10.1938 156.608 10.1938C147.572 10.1938 140.28 17.1748 139.903 26.2026C139.511 35.6144 146.863 42.9075 156.608 42.9075C163.916 42.9075 169.833 38.5227 169.833 31.7709C169.833 28.2907 169.403 25.652 165.656 25.5066C162.923 25.4005 155.912 24.8106 156.608 28.2907C156.956 30.0308 157.519 30.6454 158.696 31.0749C159.845 31.4942 160.784 31.0749 161.48 31.0749C162.839 31.0749 162.552 32.347 162.176 33.511C161.615 35.2511 159.52 35.9471 156.956 35.9471C151.388 35.9471 147.282 31.6946 147.559 26.2026C147.821 21.0161 150.4 17.7053 155.564 17.1542C158.515 16.8392 160.436 17.8502 162.176 19.2423C163.222 20.0784 166.353 19.9383 167.049 17.1542Z" fill="#57477A"/>
<path d="M212.639 2.18934C211.247 1.84136 203.668 1.69925 201.154 2.53739C199.066 3.23343 196.484 5.46734 195.934 6.01762C195.61 6.34102 199.679 8.45371 201.85 10.1938C204.022 11.9339 206.706 14.722 206.706 14.722L206.722 14.7181C206.722 14.7181 205.393 9.52436 207.07 6.71363C208.408 4.47169 212.639 2.18934 212.639 2.18934Z" fill="#B99DE7"/>
<path fill-rule="evenodd" clip-rule="evenodd" d="M81.436 20.6343C80.9438 21.1265 79.6959 19.8141 74.8237 19.9383C69.2554 20.0803 65.4274 23.7665 65.4274 27.5947C65.4274 31.4229 67.1967 34.2365 68.2113 35.2511C68.5593 35.5991 66.8194 35.9471 66.8194 37.9339C66.8194 39.9207 68.5595 40.541 68.5595 41.0661C68.5595 41.5912 65.0792 41.8634 65.0792 47.0837C65.0792 52.304 71.6915 53 75.8677 53C81.088 53 87.6525 51.1586 87.7006 46.3877C87.7636 40.1233 83.8721 39.0793 81.436 38.7312C78.9999 38.3832 75.5197 38.7312 72.7356 38.7312C72.0425 38.7312 71.6915 38.3832 71.6915 37.6872C71.6915 37.1972 72.255 36.547 72.7356 36.6431C77.9556 37.6872 86.3677 35.9471 86.3085 28.2907C86.2919 26.1419 86.0884 24.5895 84.5684 23.0705C84.2201 22.7225 89.3457 22.5269 88.0483 18.8943C87.1237 16.3052 82.8281 19.2423 81.436 20.6343ZM72.3878 28.2907C72.388 26.1678 73.7447 24.8106 75.8677 24.8106C77.9907 24.8106 79.3484 26.1678 79.3481 28.2907C79.3479 30.3788 77.7898 31.7709 75.8677 31.7709C73.9457 31.7709 72.3875 30.3788 72.3878 28.2907ZM81.4361 46.2863C81.7841 44.8943 80.7575 43.8502 79.696 43.8502C79.696 43.8502 78.304 43.8502 77.2599 43.8502C76.2159 43.8502 73.8723 43.8502 72.7357 43.8502C71.8654 43.8502 70.8752 44.4236 70.9956 45.9383C71.1615 48.0264 74.3607 48.1343 76.9119 48.0264C79.4046 47.921 81.0881 47.6784 81.4361 46.2863Z" fill="#57477A"/>
<path fill-rule="evenodd" clip-rule="evenodd" d="M178.881 18.0969C176.445 16.7048 177.837 21.3304 177.489 21.6784C174.515 24.6518 172.205 27.334 172.269 31.7709C172.364 38.3833 178.319 43.0968 185.145 42.9075C191.774 42.7236 197.326 37.3501 197.326 31.7709C197.326 27.1149 195.572 25.3285 192.802 22.672L192.604 22.4828C192.118 22.0175 191.603 21.5237 191.062 20.9823C190.714 20.6343 192.106 19.141 193.498 14.2687C194.89 9.39648 194.194 6.96035 194.89 7.30837C195.586 7.65639 199.162 9.14975 201.154 10.5418C203.146 11.9339 206.706 14.722 206.706 14.722C206.706 14.722 204.022 11.9339 201.85 10.1938C199.679 8.45371 195.61 6.34102 195.934 6.01762C196.484 5.46734 199.066 3.23343 201.154 2.53739C203.668 1.69925 211.247 1.84136 212.639 2.18934C214.031 2.53733 208.81 -0.594873 201.154 0.101317C198.718 0.322832 193.846 3.92951 193.846 3.23348C193.846 2.53744 193.257 2.35545 192.802 2.53744C191.062 3.23349 190.366 4.97356 190.366 6.01762C190.366 6.47057 190.374 6.70945 191.062 6.36564C191.758 6.01763 191.758 11.8326 191.41 13.5727C191.062 15.3128 189.791 19.4669 188.626 19.5903C188.22 19.6332 186.826 19.5306 186.537 19.2423C185.841 18.5462 184.797 14.9647 183.753 16.3568C182.629 17.8561 181.976 19.7459 181.665 19.5903C180.969 19.2423 179.557 18.483 178.881 18.0969ZM179.577 31.0749C179.28 27.9899 181.356 25.6947 184.449 25.5066C187.616 25.314 190.094 27.903 190.018 31.0749C189.947 33.9635 188.029 36.106 185.145 36.2951C182.171 36.4902 179.863 34.0418 179.577 31.0749Z" fill="#57477A"/>
<path d="M193.498 14.2687C192.106 19.141 190.714 20.6343 191.062 20.9823C191.603 21.5237 192.118 22.0175 192.604 22.4828L192.802 22.672C195.934 20.6343 197.674 20.9823 200.11 21.3304C200.455 21.3796 200.69 18.4865 201.85 17.1542C203.192 15.614 206.448 14.7857 206.706 14.722C206.706 14.722 203.146 11.9339 201.154 10.5418C199.162 9.14975 195.586 7.65639 194.89 7.30837C194.194 6.96035 194.89 9.39648 193.498 14.2687Z" fill="#B99DE7"/>
<path d="M28.6371 10.1266C29.5412 9.39665 29.8578 5.96533 30.4681 5.96533C31.0784 5.96533 31.6696 9.48401 32.6043 10.1266C33.539 10.7691 36.6296 9.98929 36.8766 10.7667C37.1237 11.5442 34.1846 12.8768 33.825 13.9677C33.4653 15.0586 35.0456 18.0351 34.4353 18.449C33.825 18.8629 31.9651 16.2084 30.7733 16.2084C29.5815 16.2084 27.3305 18.869 26.8061 18.449C26.2817 18.0291 27.6949 14.7105 27.4164 13.9677C27.138 13.2248 24.2411 11.727 24.3647 11.0868C24.4884 10.4467 27.733 10.8565 28.6371 10.1266Z" fill="#A892D6"/>
</svg>
