<svg width="24" height="24" viewBox="0 0 24 24" fill="none" xmlns="http://www.w3.org/2000/svg">
<path d="M10.268 21C10.4435 21.304 10.696 21.5565 11 21.732C11.3041 21.9075 11.6489 21.9999 12 21.9999C12.3511 21.9999 12.6959 21.9075 13 21.732C13.304 21.5565 13.5565 21.304 13.732 21M11.68 2.00903C10.1464 2.09094 8.70253 2.75784 7.64585 3.87237C6.58918 4.98691 6.00012 6.46421 6 8.00003C6 12.499 4.589 13.956 3.262 15.326C3.13137 15.4692 3.04516 15.6473 3.01386 15.8386C2.98256 16.0298 3.00752 16.2261 3.08571 16.4034C3.1639 16.5808 3.29194 16.7316 3.45426 16.8375C3.61658 16.9434 3.80618 16.9999 4 17H20C20.1938 17.0001 20.3834 16.9439 20.5459 16.8381C20.7083 16.7324 20.8365 16.5818 20.9149 16.4045C20.9933 16.2273 21.0185 16.0311 20.9874 15.8398C20.9564 15.6485 20.8704 15.4704 20.74 15.327C19.916 14.477 19.062 13.596 18.53 11.979" stroke="black" stroke-width="2" stroke-linecap="round" stroke-linejoin="round"/>
<path d="M18 8C19.6569 8 21 6.65685 21 5C21 3.34315 19.6569 2 18 2C16.3431 2 15 3.34315 15 5C15 6.65685 16.3431 8 18 8Z" stroke="black" stroke-width="2" stroke-linecap="round" stroke-linejoin="round"/>
</svg>
