<svg width="24" height="24" viewBox="0 0 24 24" fill="none" xmlns="http://www.w3.org/2000/svg">
<path d="M6 22C5.16667 22 4.45833 21.7083 3.875 21.125C3.29167 20.5417 3 19.8333 3 19V5C3 4.16667 3.29167 3.45833 3.875 2.875C4.45833 2.29167 5.16667 2 6 2H15C15.55 2 16.021 2.196 16.413 2.588C16.805 2.98 17.0007 3.45067 17 4V16C17 16.55 16.8043 17.021 16.413 17.413C16.0217 17.805 15.5507 18.0007 15 18H6C5.71667 18 5.47933 18.096 5.288 18.288C5.09667 18.48 5.00067 18.7173 5 19C4.99933 19.2827 5.09533 19.5203 5.288 19.713C5.48067 19.9057 5.718 20.0013 6 20H19V5C19 4.71667 19.096 4.47933 19.288 4.288C19.48 4.09667 19.7173 4.00067 20 4C20.2827 3.99933 20.5203 4.09533 20.713 4.288C20.9057 4.48067 21.0013 4.718 21 5V20C21 20.55 20.8043 21.021 20.413 21.413C20.0217 21.805 19.5507 22.0007 19 22H6ZM7.55 13.5C7.68333 13.5 7.796 13.4667 7.888 13.4C7.98 13.3333 8.04233 13.2417 8.075 13.125L8.6 11.7H11.425L11.925 13.125C11.9583 13.2417 12.025 13.3333 12.125 13.4C12.225 13.4667 12.3333 13.5 12.45 13.5C12.65 13.5 12.8083 13.4167 12.925 13.25C13.0417 13.0833 13.0583 12.9083 12.975 12.725L10.775 6.875C10.7417 6.75833 10.675 6.66667 10.575 6.6C10.475 6.53333 10.3583 6.5 10.225 6.5H9.775C9.64167 6.5 9.525 6.53333 9.425 6.6C9.325 6.66667 9.25833 6.75833 9.225 6.875L7.025 12.75C6.95833 12.9333 6.97933 13.1043 7.088 13.263C7.19667 13.4217 7.35067 13.5007 7.55 13.5ZM8.95 10.7L9.975 7.8H10.025L11.05 10.7H8.95Z" fill="black"/>
</svg>
