<svg width="24" height="24" viewBox="0 0 24 24" fill="none" xmlns="http://www.w3.org/2000/svg">
<path d="M11.514 2.14196L10.254 1.38696L10.014 2.83596C9.632 5.12396 8.069 7.24996 6.345 8.74396C2.97 11.67 2.231 14.85 3.276 17.475C4.276 19.987 6.814 21.707 9.39 21.994L9.986 22.06C8.512 21.159 7.566 19.054 7.896 17.481C8.222 15.935 9.334 14.487 11.47 13.151L12.547 12.479L12.949 13.684C13.186 14.396 13.596 14.968 14.013 15.549C14.213 15.829 14.416 16.112 14.602 16.413C15.245 17.458 15.415 18.62 15 19.773C14.622 20.821 13.999 21.645 13.14 22.102L14.11 21.994C16.528 21.725 18.303 20.898 19.456 19.515C20.599 18.144 21 16.379 21 14.5C21 12.75 20.281 10.946 19.433 9.44496C18.439 7.68696 17.142 6.22696 15.726 4.81196C15.481 5.30196 15.5 5.49996 14.996 6.28696C14.3415 4.54892 13.113 3.08654 11.514 2.14196Z" fill="black"/>
</svg>
