<svg width="24" height="24" viewBox="0 0 24 24" fill="none" xmlns="http://www.w3.org/2000/svg">
<path d="M9.00399 3.41592C8.43199 2.60592 7.63999 2.24092 6.79999 2.24992C6.00299 2.25792 5.22699 2.59892 4.57899 3.05292C3.91804 3.51824 3.35447 4.10831 2.91999 4.78992C2.50999 5.43892 2.21399 6.20592 2.25399 6.95492C2.44699 10.5579 4.47399 14.4079 7.32099 17.2569C10.166 20.1029 13.965 22.0809 17.801 21.7029C18.553 21.6289 19.264 21.2459 19.845 20.7579C20.4459 20.2489 20.9369 19.6229 21.288 18.9179C21.628 18.2259 21.831 17.4279 21.719 16.6509C21.603 15.8409 21.15 15.1169 20.317 14.6369C20.1444 14.5368 19.9737 14.4334 19.805 14.3269C19.655 14.2339 19.495 14.1329 19.301 14.0169C18.9047 13.7726 18.4866 13.5657 18.052 13.3989C17.605 13.2359 17.094 13.1289 16.562 13.2019C16.011 13.2779 15.499 13.5379 15.056 14.0039C14.715 14.3639 14.213 14.4759 13.507 14.2719C12.789 14.0639 11.981 13.5479 11.279 12.8499C10.577 12.1539 10.046 11.3399 9.81899 10.6049C9.59499 9.87692 9.69399 9.34192 10.044 8.97292C10.517 8.47492 10.769 7.92092 10.822 7.33492C10.874 6.76492 10.732 6.22892 10.529 5.76092C10.225 5.06192 9.70899 4.36692 9.30499 3.82492C9.20341 3.68941 9.1034 3.55273 9.00499 3.41492" fill="black"/>
</svg>
