<svg width="120" height="120" viewBox="0 0 120 120" fill="none" xmlns="http://www.w3.org/2000/svg">
<path d="M33.3375 38.1842C32.8031 43.8842 32.4281 53.9717 35.7937 58.2654C35.7937 58.2654 34.2094 47.1842 48.4125 33.281C54.1312 27.6842 55.4531 20.0717 53.4562 14.3623C52.3219 11.1279 50.25 8.45603 48.45 6.59041C47.4 5.49353 48.2062 3.68416 49.7344 3.74978C58.9781 4.16228 73.9594 6.73103 80.325 22.706C83.1187 29.7185 83.325 36.9654 81.9937 44.3342C81.15 49.0404 78.15 59.5029 84.9937 60.7873C89.8781 61.706 92.2406 57.8248 93.3 55.031C93.7406 53.8685 95.2687 53.5779 96.0937 54.506C104.344 63.8904 105.047 74.9435 103.341 84.4592C100.041 102.853 81.4125 116.24 62.9062 116.24C39.7875 116.24 21.3844 103.012 16.6125 79.0685C14.6906 69.4029 15.6656 50.2779 30.5719 36.7779C31.6781 35.7654 33.4875 36.6654 33.3375 38.1842Z" fill="url(#paint0_radial_1803_7553)"/>
<path d="M71.3532 72.5813C62.8313 61.6125 66.6469 49.0969 68.7375 44.1094C69.0188 43.4532 68.2688 42.8344 67.6782 43.2375C64.0125 45.7313 56.5032 51.6 53.0063 59.8594C48.2719 71.025 48.6094 76.4907 51.4125 83.1657C53.1 87.1875 51.1407 88.0407 50.1563 88.1907C49.2 88.3407 48.3188 87.7032 47.6157 87.0375C45.5933 85.0953 44.1519 82.6281 43.4532 79.9125C43.3032 79.3313 42.5438 79.1719 42.1969 79.65C39.5719 83.2782 38.2125 89.1 38.1469 93.2157C37.9407 105.938 48.45 116.25 61.1625 116.25C77.1844 116.25 88.8563 98.5313 79.65 83.7188C76.9782 79.4063 74.4657 76.5844 71.3532 72.5813Z" fill="url(#paint1_radial_1803_7553)"/>
<defs>
<radialGradient id="paint0_radial_1803_7553" cx="0" cy="0" r="1" gradientTransform="matrix(-66.1753 -0.287201 -0.47183 108.58 58.3273 116.532)" gradientUnits="userSpaceOnUse">
<stop offset="0.314" stop-color="#FF9800"/>
<stop offset="0.662" stop-color="#FF6D00"/>
<stop offset="0.972" stop-color="#F44336"/>
</radialGradient>
<radialGradient id="paint1_radial_1803_7553" cx="0" cy="0" r="1" gradientTransform="matrix(-0.699362 69.2368 52.1059 0.526252 62.0437 50.6798)" gradientUnits="userSpaceOnUse">
<stop offset="0.214" stop-color="#FFF176"/>
<stop offset="0.328" stop-color="#FFF27D"/>
<stop offset="0.487" stop-color="#FFF48F"/>
<stop offset="0.672" stop-color="#FFF7AD"/>
<stop offset="0.793" stop-color="#FFF9C4"/>
<stop offset="0.822" stop-color="#FFF8BD" stop-opacity="0.804"/>
<stop offset="0.863" stop-color="#FFF6AB" stop-opacity="0.529"/>
<stop offset="0.91" stop-color="#FFF38D" stop-opacity="0.209"/>
<stop offset="0.941" stop-color="#FFF176" stop-opacity="0"/>
</radialGradient>
</defs>
</svg>
