<svg width="35" height="56" viewBox="235 0 35 56" fill="none" xmlns="http://www.w3.org/2000/svg">
<path d="M242.49 12.4927C240.694 10.9558 240.623 8.11049 242.458 6.63685C246.152 3.69776 251.212 2.30227 256.761 4.05513C262.854 5.97999 266.152 10.073 267.181 14.219C268.054 17.7741 267.356 23.6844 263.245 26.9482C258.684 30.5545 255.26 31.0127 252.718 33.4606C252.108 34.0378 251.695 34.5345 251.171 35.6521C250.339 37.4711 248.317 38.4575 246.398 37.8514C244.142 37.1388 242.916 34.6127 243.888 32.4389C244.461 31.1657 245.206 29.8898 246.342 28.8227C249.477 25.8495 253.986 24.9357 257.223 22.4509C260.639 19.8516 261.291 13.1853 254.601 11.072C251.568 10.1137 249.098 11.0728 247.281 12.5805C245.907 13.7717 243.867 13.6405 242.49 12.4927ZM248.048 49.7788C247.147 52.6309 244.076 54.2272 241.224 53.3262C238.372 52.4252 236.776 49.3545 237.677 46.5025C238.578 43.6504 241.649 42.0541 244.501 42.9551C247.353 43.8561 248.949 46.9268 248.048 49.7788Z" fill="#5D3C98"/>
</svg>
