<svg width="271" height="175" viewBox="0 0 271 175" fill="none" xmlns="http://www.w3.org/2000/svg">
<g filter="url(#filter0_i_1574_9605)">
<path d="M78.1664 2.07899C85.4256 2.63739 99.943 18.5762 106.232 27.9407C106.287 27.9133 106.341 27.8863 106.395 27.8598C107.651 27.2369 108.522 26.8614 108.522 26.8614C101.609 16.4369 83.2812 -0.813796 77.5064 0.760915C72.8435 2.03244 64.3166 33.7535 63.0467 53.5513C62.5707 60.9726 62.5707 68.0698 62.5707 68.0698C66.7394 60.0128 71.9284 53.5552 75.704 49.4183C72.227 41.0147 72.9025 1.67408 78.1664 2.07899Z" fill="black"/>
<path d="M106.232 27.9407C106.232 27.9407 108.232 31.1138 109.183 30.4539C110.134 29.794 108.522 26.8614 108.522 26.8614C108.522 26.8614 107.651 27.2369 106.395 27.8598L106.232 27.9407Z" fill="black"/>
<path d="M216.75 41.015C216.33 25.4946 211.104 0.759185 206.852 0.759138C196.438 0.759025 179.337 19.6382 175.176 24.5165L173.856 26.0243C174.588 26.3247 175.296 26.6331 175.974 26.9487C176.431 26.3367 176.901 25.7275 177.367 25.1765C185.735 15.2775 200.112 2.27122 206.192 2.73892C210.812 3.09427 211.472 42.9945 206.852 50.7123C210.401 54.8172 213.788 59.4895 216.75 64.7721C216.75 64.7721 217.17 56.5355 216.75 41.015Z" fill="black"/>
<path d="M173.856 26.0243C173.856 26.0243 170.403 31.1158 172.536 31.1158C172.934 31.1158 173.869 29.8308 174.996 28.2816C175.309 27.8504 175.638 27.3988 175.974 26.9487C175.296 26.6331 174.588 26.3247 173.856 26.0243Z" fill="black"/>
<path d="M144.159 19.897C128.321 19.897 119.081 22.2419 108.522 26.8614C108.522 26.8614 110.134 29.794 109.183 30.4539C108.232 31.1138 106.232 27.9407 106.232 27.9407C99.943 18.5762 85.4256 2.63739 78.1664 2.07899C72.9025 1.67408 72.227 41.0147 75.704 49.4183C71.9284 53.5552 66.7394 60.0128 62.5707 68.0698C60.2931 72.4717 58.3201 77.351 57.0485 82.5901C49.5864 113.337 60.8022 140.121 86.0853 159.142C103.77 172.446 123.702 173.66 140.859 173.66C150.759 173.66 176.877 173 196.48 158.474C236.549 128.785 223.921 82.9145 221.37 75.9912C221.06 75.1509 220.773 74.3492 220.496 73.5759C219.355 70.3919 218.387 67.6904 216.75 64.7721C213.788 59.4895 210.401 54.8172 206.852 50.7123C211.472 42.9945 210.812 3.09427 206.192 2.73892C200.112 2.27122 185.735 15.2775 177.367 25.1765C176.901 25.7275 176.431 26.3367 175.974 26.9487C175.638 27.3988 175.309 27.8504 174.996 28.2816C173.869 29.8308 172.934 31.1158 172.536 31.1158C170.403 31.1158 173.856 26.0243 173.856 26.0243C164.949 22.3704 152.368 19.897 144.159 19.897Z" fill="#A289CB"/>
</g>
<path d="M181.775 30.4559C180.315 29.2197 178.32 28.0408 175.974 26.9487M108.522 26.8614C119.081 22.2419 128.321 19.897 144.159 19.897C152.368 19.897 164.949 22.3704 173.856 26.0243M108.522 26.8614C101.609 16.4369 83.2812 -0.813796 77.5064 0.760915C72.8435 2.03244 64.3166 33.7535 63.0467 53.5514C62.5707 60.9726 62.5707 68.0698 62.5707 68.0698M108.522 26.8614C108.522 26.8614 110.134 29.794 109.183 30.4539C108.232 31.1138 106.232 27.9407 106.232 27.9407M106.232 27.9407C106.287 27.9133 106.341 27.8863 106.395 27.8598C107.651 27.2369 108.522 26.8614 108.522 26.8614M216.75 64.7721C216.75 64.7721 217.17 56.5355 216.75 41.015C216.33 25.4946 211.104 0.759185 206.852 0.759138C196.438 0.759025 179.337 19.6382 175.176 24.5165L173.856 26.0243M80.8057 44.3143C80.8057 44.3143 78.6998 46.1358 75.704 49.4183C71.9284 53.5552 66.7394 60.0128 62.5707 68.0698C60.2931 72.4717 58.3201 77.351 57.0485 82.5901C49.5864 113.336 60.8022 140.121 86.0853 159.142C103.77 172.446 123.702 173.66 140.859 173.66C150.759 173.66 176.877 173 196.48 158.474C236.549 128.785 223.921 82.9145 221.37 75.9912C221.06 75.1509 220.773 74.3492 220.496 73.5759C219.355 70.3919 218.387 67.6904 216.75 64.7721C213.788 59.4895 210.401 54.8172 206.852 50.7123C205.55 49.2054 204.225 47.7749 202.892 46.4187M99.943 31.7757C101.902 30.2089 104.559 28.7702 106.395 27.8598M173.856 26.0243C173.856 26.0243 170.403 31.1158 172.536 31.1158C172.934 31.1158 173.869 29.8308 174.996 28.2816C175.309 27.8504 175.638 27.3988 175.974 26.9487M173.856 26.0243C174.588 26.3247 175.296 26.6331 175.974 26.9487M206.852 50.7123C211.472 42.9945 210.812 3.09427 206.192 2.73892C200.112 2.27122 185.735 15.2775 177.367 25.1765C176.901 25.7275 176.431 26.3367 175.974 26.9487M106.232 27.9407C99.943 18.5762 85.4256 2.63739 78.1664 2.07899C72.9025 1.67408 72.227 41.0147 75.704 49.4183M106.232 27.9407L106.395 27.8598" stroke="#1C1135" stroke-width="1.31986" stroke-linecap="round"/>
<path d="M195.866 34.8998C202.319 40.528 205.321 41.6198 206.481 43.0739C210.548 35.5912 209.771 3.41874 205.675 3.08956C200.286 2.6563 186.419 15.3013 179.038 24.9063C178.627 25.441 179.441 24.3126 179.038 24.9063C179.038 24.9063 189.412 29.2715 195.866 34.8998Z" fill="url(#paint0_linear_1574_9605)"/>
<path d="M87.1348 34.7623C81.0691 40.4847 76.3225 42.7379 75.2324 44.2161C73.2527 38.2767 73.9126 2.78336 77.9258 2.43321C82.4916 2.03483 96.0169 14.8399 102.95 24.6004C103.336 25.1437 102.572 23.9971 102.95 24.6004C102.95 24.6004 93.2006 29.04 87.1348 34.7623Z" fill="url(#paint1_linear_1574_9605)"/>
<path d="M11.4426 104.39C6.82308 108.119 4.84335 109.67 0.883784 114.289C1.95741 114.826 4.63784 113.541 7.48302 113.629C10.6168 113.727 12.6673 114.042 15.4021 114.949C20.0176 116.48 22.1749 118.497 25.961 121.548C30.3619 125.095 34.5402 131.447 35.86 132.107C35.6023 125.664 35.4792 126.549 35.2001 120.107C34.9764 117.345 34.8208 108.755 35.2001 104.39C35.5851 99.958 37.1797 95.1513 37.1797 93.8314C37.1797 92.8561 36.1903 89.8718 34.5401 89.8718C33.2202 89.8718 27.2814 92.7908 23.3213 95.1512C18.0966 98.2654 16.2971 100.472 11.4426 104.39Z" fill="#A974D2"/>
<path d="M48.3985 101.751C43.1191 98.4509 42.4592 95.1512 41.1394 95.1512C39.8197 95.1512 38.6952 100.683 37.6161 104.39C35.8809 110.353 35.6363 114.705 35.2001 120.107C35.4792 126.549 35.6023 125.664 35.86 132.107C37.1797 132.767 41.6143 128.499 45.7588 127.488C50.7664 126.266 53.8553 126.755 58.9573 127.488C64.2841 128.252 72.1559 132.107 72.1559 132.107C72.1559 132.107 65.8432 124.901 62.9169 119.569C60.2461 114.702 57.6376 106.37 57.6376 106.37C57.6376 106.37 51.7273 103.831 48.3985 101.751Z" fill="#A974D2"/>
<path d="M54.338 94.4913C54.338 94.4913 48.8063 91.7728 45.7589 88.5521C42.8109 85.4365 39.8196 79.3132 37.8398 78.6532C35.864 77.9945 31.2229 80.1348 27.3049 81.9416L27.2809 81.9527C20.1171 85.2563 14.7423 89.8719 10.1228 95.1512C4.27093 101.839 -0.436165 113.629 0.883784 114.289C4.84335 109.67 6.82308 108.119 11.4426 104.39C16.2971 100.472 18.0966 98.2654 23.3213 95.1512C27.2814 92.7908 33.2202 89.8718 34.5401 89.8718C36.1903 89.8718 37.1797 92.8561 37.1797 93.8314C37.1797 95.1513 35.5851 99.958 35.2001 104.39C34.8208 108.755 34.9764 117.345 35.2001 120.107C35.6363 114.705 35.8809 110.353 37.6161 104.39C38.6952 100.683 39.8197 95.1512 41.1394 95.1512C42.4592 95.1512 43.1191 98.4509 48.3985 101.751C51.7273 103.831 57.6376 106.37 57.6376 106.37L54.338 94.4913Z" fill="#43277B"/>
<path d="M27.2809 81.9527C20.1171 85.2563 14.7423 89.8719 10.1228 95.1512C4.27093 101.839 -0.436165 113.629 0.883784 114.289M27.2809 81.9527L27.3049 81.9416M57.6376 106.37L54.338 94.4913C54.338 94.4913 48.8063 91.7728 45.7589 88.5521C42.8109 85.4365 39.8196 79.3132 37.8398 78.6532C35.864 77.9945 31.2229 80.1348 27.3049 81.9416C27.2969 81.9453 27.2889 81.949 27.2809 81.9527M0.883784 114.289C4.84335 109.67 6.82308 108.119 11.4426 104.39C16.2971 100.472 18.0966 98.2654 23.3213 95.1512C27.2814 92.7908 33.2202 89.8718 34.5401 89.8718C36.1903 89.8718 37.1797 92.8561 37.1797 93.8314C37.1797 95.1513 35.5851 99.958 35.2001 104.39C34.8208 108.755 34.9764 117.345 35.2001 120.107M0.883784 114.289C1.95741 114.826 4.63784 113.541 7.48302 113.629C10.6168 113.727 12.6673 114.042 15.4021 114.949C20.0176 116.48 22.1749 118.497 25.961 121.548C30.3619 125.095 34.5402 131.447 35.86 132.107M35.2001 120.107C35.4792 126.549 35.6023 125.664 35.86 132.107M35.2001 120.107C35.6363 114.705 35.8809 110.353 37.6161 104.39C38.6952 100.683 39.8197 95.1512 41.1394 95.1512C42.4592 95.1512 43.1191 98.4509 48.3985 101.751C51.7273 103.831 57.6376 106.37 57.6376 106.37M57.6376 106.37C57.6376 106.37 60.2461 114.702 62.9169 119.569C65.8432 124.901 72.1559 132.107 72.1559 132.107C72.1559 132.107 64.2841 128.252 58.9573 127.488C53.8553 126.755 50.7664 126.266 45.7588 127.488C41.6143 128.499 37.1797 132.767 35.86 132.107" stroke="#0D0C12" stroke-width="1.31986" stroke-linecap="round"/>
<path d="M231.199 88.5524C228.727 91.2557 223.939 94.4916 223.939 94.4916L221.96 104.39C221.96 104.39 225.125 102.694 227.239 101.091C229.271 99.5487 231.858 96.4706 232.518 96.4711C234.498 96.4725 236.478 110.33 236.478 116.269C236.478 107.507 236.478 93.8319 236.478 93.8319C236.478 92.1817 237.552 90.0105 239.118 90.5322C243.077 91.8516 246.694 94.0195 251.656 97.7913C255.286 100.55 257.682 102.475 260.895 105.71C263.851 108.687 266.175 111.65 268.814 114.29C271.454 113.63 265.563 101.757 260.895 95.1517C258.563 91.8517 252.976 86.3629 249.017 83.9329C244.569 81.2034 239.778 78.653 237.138 79.3135C235.039 79.8385 234.093 85.3869 231.199 88.5524Z" fill="#442679"/>
<path d="M251.656 97.7913C246.694 94.0195 243.077 91.8516 239.118 90.5322C237.552 90.0105 236.478 92.1817 236.478 93.8319C236.478 93.8319 236.478 107.507 236.478 116.269C236.478 122.868 235.818 127.488 235.158 132.767C238.458 127.488 242.653 122.868 246.377 120.228C248.357 118.825 252.063 116.153 256.276 114.949C260.895 113.629 264.855 113.63 268.814 114.29C266.175 111.65 263.851 108.687 260.895 105.71C257.682 102.475 255.286 100.55 251.656 97.7913Z" fill="#AA74D2"/>
<path d="M236.478 116.269C236.478 110.33 234.498 96.4725 232.518 96.4711C231.858 96.4706 229.271 99.5487 227.239 101.091C225.125 102.694 221.96 104.39 221.96 104.39L219.98 110.33C218.666 114.272 217.459 115.982 215.36 119.569C213.084 123.46 209.421 129.468 209.421 129.468C209.421 129.468 218.284 126.617 223.939 127.488C228.622 128.21 231.858 130.127 235.158 132.767C235.818 127.488 236.478 122.868 236.478 116.269Z" fill="#AA74D2"/>
<path d="M219.98 110.33C218.666 114.272 217.459 115.982 215.36 119.569C213.084 123.46 209.421 129.468 209.421 129.468C209.421 129.468 218.284 126.617 223.939 127.488C228.622 128.21 231.858 130.127 235.158 132.767C238.458 127.488 242.653 122.868 246.377 120.228C248.357 118.825 252.063 116.153 256.276 114.949C260.895 113.629 264.855 113.63 268.814 114.29C271.454 113.63 265.563 101.757 260.895 95.1517C258.563 91.8517 252.976 86.3629 249.017 83.9329C244.569 81.2034 239.778 78.653 237.138 79.3135C235.039 79.8385 234.093 85.3869 231.199 88.5524C228.727 91.2557 223.939 94.4916 223.939 94.4916L221.96 104.39M268.814 114.29C266.175 111.65 263.851 108.687 260.895 105.71C257.682 102.475 255.286 100.55 251.656 97.7913C246.694 94.0195 243.077 91.8516 239.118 90.5322C237.552 90.0105 236.478 92.1817 236.478 93.8319M236.478 93.8319C236.478 100.431 236.478 109.67 236.478 116.269M236.478 93.8319C236.478 93.8319 236.478 107.507 236.478 116.269M236.478 116.269C236.478 110.33 234.498 96.4725 232.518 96.4711C231.858 96.4706 229.271 99.5487 227.239 101.091C225.125 102.694 221.96 104.39 221.96 104.39M236.478 116.269C236.478 122.868 235.818 127.488 235.158 132.767M221.96 104.39C221.96 104.39 220.811 107.836 219.98 110.33M221.96 104.39L219.98 110.33" stroke="#0D0C12" stroke-width="1.31986" stroke-linecap="round"/>
<path d="M11.4426 104.39C6.82308 108.119 4.84335 109.67 0.883784 114.289C1.95741 114.826 4.63784 113.541 7.48302 113.629C10.6168 113.727 12.6673 114.042 15.4021 114.949C20.0176 116.48 22.1749 118.497 25.961 121.548C30.3619 125.095 34.5402 131.447 35.86 132.107C35.6023 125.664 35.4792 126.549 35.2001 120.107C34.9764 117.345 34.8208 108.755 35.2001 104.39C35.5851 99.958 37.1797 95.1513 37.1797 93.8314C37.1797 92.8561 36.1903 89.8718 34.5401 89.8718C33.2202 89.8718 27.2814 92.7908 23.3213 95.1512C18.0966 98.2654 16.2971 100.472 11.4426 104.39Z" fill="#A974D2"/>
<path d="M48.3985 101.751C43.1191 98.4509 42.4592 95.1512 41.1394 95.1512C39.8197 95.1512 38.6952 100.683 37.6161 104.39C35.8809 110.353 35.6363 114.705 35.2001 120.107C35.4792 126.549 35.6023 125.664 35.86 132.107C37.1797 132.767 41.6143 128.499 45.7588 127.488C50.7664 126.266 53.8553 126.755 58.9573 127.488C64.2841 128.252 72.1559 132.107 72.1559 132.107C72.1559 132.107 65.8432 124.901 62.9169 119.569C60.2461 114.702 57.6376 106.37 57.6376 106.37C57.6376 106.37 51.7273 103.831 48.3985 101.751Z" fill="#A974D2"/>
<path d="M54.338 94.4913C54.338 94.4913 48.8063 91.7728 45.7589 88.5521C42.8109 85.4365 39.8196 79.3132 37.8398 78.6532C35.864 77.9945 31.2229 80.1348 27.3049 81.9416L27.2809 81.9527C20.1171 85.2563 14.7423 89.8719 10.1228 95.1512C4.27093 101.839 -0.436165 113.629 0.883784 114.289C4.84335 109.67 6.82308 108.119 11.4426 104.39C16.2971 100.472 18.0966 98.2654 23.3213 95.1512C27.2814 92.7908 33.2202 89.8718 34.5401 89.8718C36.1903 89.8718 37.1797 92.8561 37.1797 93.8314C37.1797 95.1513 35.5851 99.958 35.2001 104.39C34.8208 108.755 34.9764 117.345 35.2001 120.107C35.6363 114.705 35.8809 110.353 37.6161 104.39C38.6952 100.683 39.8197 95.1512 41.1394 95.1512C42.4592 95.1512 43.1191 98.4509 48.3985 101.751C51.7273 103.831 57.6376 106.37 57.6376 106.37L54.338 94.4913Z" fill="#43277B"/>
<path d="M27.2809 81.9527C20.1171 85.2563 14.7423 89.8719 10.1228 95.1512C4.27093 101.839 -0.436165 113.629 0.883784 114.289M27.2809 81.9527L27.3049 81.9416M57.6376 106.37L54.338 94.4913C54.338 94.4913 48.8063 91.7728 45.7589 88.5521C42.8109 85.4365 39.8196 79.3132 37.8398 78.6532C35.864 77.9945 31.2229 80.1348 27.3049 81.9416C27.2969 81.9453 27.2889 81.949 27.2809 81.9527M0.883784 114.289C4.84335 109.67 6.82308 108.119 11.4426 104.39C16.2971 100.472 18.0966 98.2654 23.3213 95.1512C27.2814 92.7908 33.2202 89.8718 34.5401 89.8718C36.1903 89.8718 37.1797 92.8561 37.1797 93.8314C37.1797 95.1513 35.5851 99.958 35.2001 104.39C34.8208 108.755 34.9764 117.345 35.2001 120.107M0.883784 114.289C1.95741 114.826 4.63784 113.541 7.48302 113.629C10.6168 113.727 12.6673 114.042 15.4021 114.949C20.0176 116.48 22.1749 118.497 25.961 121.548C30.3619 125.095 34.5402 131.447 35.86 132.107M35.2001 120.107C35.4792 126.549 35.6023 125.664 35.86 132.107M35.2001 120.107C35.6363 114.705 35.8809 110.353 37.6161 104.39C38.6952 100.683 39.8197 95.1512 41.1394 95.1512C42.4592 95.1512 43.1191 98.4509 48.3985 101.751C51.7273 103.831 57.6376 106.37 57.6376 106.37M57.6376 106.37C57.6376 106.37 60.2461 114.702 62.9169 119.569C65.8432 124.901 72.1559 132.107 72.1559 132.107C72.1559 132.107 64.2841 128.252 58.9573 127.488C53.8553 126.755 50.7664 126.266 45.7588 127.488C41.6143 128.499 37.1797 132.767 35.86 132.107" stroke="#0D0C12" stroke-width="1.31986" stroke-linecap="round"/>
<path d="M231.199 88.5524C228.727 91.2557 223.939 94.4916 223.939 94.4916L221.96 104.39C221.96 104.39 225.125 102.694 227.239 101.091C229.271 99.5487 231.858 96.4706 232.518 96.4711C234.498 96.4725 236.478 110.33 236.478 116.269C236.478 107.507 236.478 93.8319 236.478 93.8319C236.478 92.1817 237.552 90.0105 239.118 90.5322C243.077 91.8516 246.694 94.0195 251.656 97.7913C255.286 100.55 257.682 102.475 260.895 105.71C263.851 108.687 266.175 111.65 268.814 114.29C271.454 113.63 265.563 101.757 260.895 95.1517C258.563 91.8517 252.976 86.3629 249.017 83.9329C244.569 81.2034 239.778 78.653 237.138 79.3135C235.039 79.8385 234.093 85.3869 231.199 88.5524Z" fill="#442679"/>
<path d="M251.656 97.7913C246.694 94.0195 243.077 91.8516 239.118 90.5322C237.552 90.0105 236.478 92.1817 236.478 93.8319C236.478 93.8319 236.478 107.507 236.478 116.269C236.478 122.868 235.818 127.488 235.158 132.767C238.458 127.488 242.653 122.868 246.377 120.228C248.357 118.825 252.063 116.153 256.276 114.949C260.895 113.629 264.855 113.63 268.814 114.29C266.175 111.65 263.851 108.687 260.895 105.71C257.682 102.475 255.286 100.55 251.656 97.7913Z" fill="#AA74D2"/>
<path d="M236.478 116.269C236.478 110.33 234.498 96.4725 232.518 96.4711C231.858 96.4706 229.271 99.5487 227.239 101.091C225.125 102.694 221.96 104.39 221.96 104.39L219.98 110.33C218.666 114.272 217.459 115.982 215.36 119.569C213.084 123.46 209.421 129.468 209.421 129.468C209.421 129.468 218.284 126.617 223.939 127.488C228.622 128.21 231.858 130.127 235.158 132.767C235.818 127.488 236.478 122.868 236.478 116.269Z" fill="#AA74D2"/>
<path d="M219.98 110.33C218.666 114.272 217.459 115.982 215.36 119.569C213.084 123.46 209.421 129.468 209.421 129.468C209.421 129.468 218.284 126.617 223.939 127.488C228.622 128.21 231.858 130.127 235.158 132.767C238.458 127.488 242.653 122.868 246.377 120.228C248.357 118.825 252.063 116.153 256.276 114.949C260.895 113.629 264.855 113.63 268.814 114.29C271.454 113.63 265.563 101.757 260.895 95.1517C258.563 91.8517 252.976 86.3629 249.017 83.9329C244.569 81.2034 239.778 78.653 237.138 79.3135C235.039 79.8385 234.093 85.3869 231.199 88.5524C228.727 91.2557 223.939 94.4916 223.939 94.4916L221.96 104.39M268.814 114.29C266.175 111.65 263.851 108.687 260.895 105.71C257.682 102.475 255.286 100.55 251.656 97.7913C246.694 94.0195 243.077 91.8516 239.118 90.5322C237.552 90.0105 236.478 92.1817 236.478 93.8319M236.478 93.8319C236.478 100.431 236.478 109.67 236.478 116.269M236.478 93.8319C236.478 93.8319 236.478 107.507 236.478 116.269M236.478 116.269C236.478 110.33 234.498 96.4725 232.518 96.4711C231.858 96.4706 229.271 99.5487 227.239 101.091C225.125 102.694 221.96 104.39 221.96 104.39M236.478 116.269C236.478 122.868 235.818 127.488 235.158 132.767M221.96 104.39C221.96 104.39 220.811 107.836 219.98 110.33M221.96 104.39L219.98 110.33" stroke="#0D0C12" stroke-width="1.31986" stroke-linecap="round"/>
<g filter="url(#filter1_i_1574_9605)">
<path d="M78.1664 2.07899C85.4256 2.63739 99.943 18.5762 106.232 27.9407C106.287 27.9133 106.341 27.8863 106.395 27.8598C107.651 27.2369 108.522 26.8614 108.522 26.8614C101.609 16.4369 83.2812 -0.813796 77.5064 0.760915C72.8435 2.03244 64.3166 33.7535 63.0467 53.5513C62.5707 60.9726 62.5707 68.0698 62.5707 68.0698C66.7394 60.0128 71.9284 53.5552 75.704 49.4183C72.227 41.0147 72.9025 1.67408 78.1664 2.07899Z" fill="black"/>
<path d="M106.232 27.9407C106.232 27.9407 108.232 31.1138 109.183 30.4539C110.134 29.794 108.522 26.8614 108.522 26.8614C108.522 26.8614 107.651 27.2369 106.395 27.8598L106.232 27.9407Z" fill="black"/>
<path d="M216.75 41.015C216.33 25.4946 211.104 0.759185 206.852 0.759138C196.438 0.759025 179.337 19.6382 175.176 24.5165L173.856 26.0243C174.588 26.3247 175.296 26.6331 175.974 26.9487C176.431 26.3367 176.901 25.7275 177.367 25.1765C185.735 15.2775 200.112 2.27122 206.192 2.73892C210.812 3.09427 211.472 42.9945 206.852 50.7123C210.401 54.8172 213.788 59.4895 216.75 64.7721C216.75 64.7721 217.17 56.5355 216.75 41.015Z" fill="black"/>
<path d="M173.856 26.0243C173.856 26.0243 170.403 31.1158 172.536 31.1158C172.934 31.1158 173.869 29.8308 174.996 28.2816C175.309 27.8504 175.638 27.3988 175.974 26.9487C175.296 26.6331 174.588 26.3247 173.856 26.0243Z" fill="black"/>
<path d="M144.159 19.897C128.321 19.897 119.081 22.2419 108.522 26.8614C108.522 26.8614 110.134 29.794 109.183 30.4539C108.232 31.1138 106.232 27.9407 106.232 27.9407C99.943 18.5762 85.4256 2.63739 78.1664 2.07899C72.9025 1.67408 72.227 41.0147 75.704 49.4183C71.9284 53.5552 66.7394 60.0128 62.5707 68.0698C60.2931 72.4717 58.3201 77.351 57.0485 82.5901C49.5864 113.337 60.8022 140.121 86.0853 159.142C103.77 172.446 123.702 173.66 140.859 173.66C150.759 173.66 176.877 173 196.48 158.474C236.549 128.785 223.921 82.9145 221.37 75.9912C221.06 75.1509 220.773 74.3492 220.496 73.5759C219.355 70.3919 218.387 67.6904 216.75 64.7721C213.788 59.4895 210.401 54.8172 206.852 50.7123C211.472 42.9945 210.812 3.09427 206.192 2.73892C200.112 2.27122 185.735 15.2775 177.367 25.1765C176.901 25.7275 176.431 26.3367 175.974 26.9487C175.638 27.3988 175.309 27.8504 174.996 28.2816C173.869 29.8308 172.934 31.1158 172.536 31.1158C170.403 31.1158 173.856 26.0243 173.856 26.0243C164.949 22.3704 152.368 19.897 144.159 19.897Z" fill="#A289CB"/>
</g>
<path d="M181.775 30.4559C180.315 29.2197 178.32 28.0408 175.974 26.9487M108.522 26.8614C119.081 22.2419 128.321 19.897 144.159 19.897C152.368 19.897 164.949 22.3704 173.856 26.0243M108.522 26.8614C101.609 16.4369 83.2812 -0.813796 77.5064 0.760915C72.8435 2.03244 64.3166 33.7535 63.0467 53.5514C62.5707 60.9726 62.5707 68.0698 62.5707 68.0698M108.522 26.8614C108.522 26.8614 110.134 29.794 109.183 30.4539C108.232 31.1138 106.232 27.9407 106.232 27.9407M106.232 27.9407C106.287 27.9133 106.341 27.8863 106.395 27.8598C107.651 27.2369 108.522 26.8614 108.522 26.8614M216.75 64.7721C216.75 64.7721 217.17 56.5355 216.75 41.015C216.33 25.4946 211.104 0.759185 206.852 0.759138C196.438 0.759025 179.337 19.6382 175.176 24.5165L173.856 26.0243M80.8057 44.3143C80.8057 44.3143 78.6998 46.1358 75.704 49.4183C71.9284 53.5552 66.7394 60.0128 62.5707 68.0698C60.2931 72.4717 58.3201 77.351 57.0485 82.5901C49.5864 113.336 60.8022 140.121 86.0853 159.142C103.77 172.446 123.702 173.66 140.859 173.66C150.759 173.66 176.877 173 196.48 158.474C236.549 128.785 223.921 82.9145 221.37 75.9912C221.06 75.1509 220.773 74.3492 220.496 73.5759C219.355 70.3919 218.387 67.6904 216.75 64.7721C213.788 59.4895 210.401 54.8172 206.852 50.7123C205.55 49.2054 204.225 47.7749 202.892 46.4187M99.943 31.7757C101.902 30.2089 104.559 28.7702 106.395 27.8598M173.856 26.0243C173.856 26.0243 170.403 31.1158 172.536 31.1158C172.934 31.1158 173.869 29.8308 174.996 28.2816C175.309 27.8504 175.638 27.3988 175.974 26.9487M173.856 26.0243C174.588 26.3247 175.296 26.6331 175.974 26.9487M206.852 50.7123C211.472 42.9945 210.812 3.09427 206.192 2.73892C200.112 2.27122 185.735 15.2775 177.367 25.1765C176.901 25.7275 176.431 26.3367 175.974 26.9487M106.232 27.9407C99.943 18.5762 85.4256 2.63739 78.1664 2.07899C72.9025 1.67408 72.227 41.0147 75.704 49.4183M106.232 27.9407L106.395 27.8598" stroke="#1C1135" stroke-width="1.31986" stroke-linecap="round"/>
<path d="M195.866 34.8998C202.319 40.528 205.321 41.6198 206.481 43.0739C210.548 35.5912 209.771 3.41874 205.675 3.08956C200.286 2.6563 186.419 15.3013 179.038 24.9063C178.627 25.441 179.441 24.3126 179.038 24.9063C179.038 24.9063 189.412 29.2715 195.866 34.8998Z" fill="url(#paint2_linear_1574_9605)"/>
<path d="M87.1348 34.7623C81.0691 40.4847 76.3225 42.7379 75.2324 44.2161C73.2527 38.2767 73.9126 2.78336 77.9258 2.43321C82.4916 2.03483 96.0169 14.8399 102.95 24.6004C103.336 25.1437 102.572 23.9971 102.95 24.6004C102.95 24.6004 93.2006 29.04 87.1348 34.7623Z" fill="url(#paint3_linear_1574_9605)"/>
<path d="M86.3896 57.4237C83.5011 57.7981 83.8606 71.9734 82.0553 74.0726C80.25 76.1719 68.0779 79.1396 67.9739 82.0351C67.8698 84.9307 79.0219 89.2738 80.25 91.4453C81.4781 93.6169 80.5025 105.047 83.8757 105.923C87.2489 106.798 94.1451 94.2351 96.4046 93.5552C98.6642 92.8753 111.825 99.3297 113.829 96.9284C115.833 94.527 108.317 85.6545 108.052 83.4829C107.786 81.3112 115.115 71.9011 113.829 69.7295C112.542 67.5578 100.831 69.6315 98.6642 68.6437C96.4978 67.6559 89.2781 57.0494 86.3896 57.4237Z" fill="#C3AEE6"/>
<g filter="url(#filter2_f_1574_9605)">
<circle cx="195.999" cy="126.046" r="7.91913" fill="#CD91D7"/>
</g>
<g filter="url(#filter3_f_1574_9605)">
<circle cx="86.4509" cy="126.046" r="7.91913" fill="#CD91D7"/>
</g>
<path d="M94.3701 114.167C94.3701 114.167 97.0098 121.426 106.909 121.426C116.808 121.426 118.787 114.167 118.787 114.167" stroke="#0D0C12" stroke-width="3.95957" stroke-linecap="round"/>
<path d="M187.419 114.167C187.419 114.167 184.78 121.426 174.881 121.426C164.982 121.426 163.002 114.167 163.002 114.167" stroke="#0D0C12" stroke-width="3.95957" stroke-linecap="round"/>
<path d="M132.646 129.346C137.265 128.686 139.905 123.406 140.565 123.406C141.225 123.406 143.865 128.686 148.484 129.346" stroke="black" stroke-width="2.63971" stroke-linecap="round"/>
<defs>
<filter id="filter0_i_1574_9605" x="54.1143" y="-9.23899" width="171.812" height="183.559" filterUnits="userSpaceOnUse" color-interpolation-filters="sRGB">
<feFlood flood-opacity="0" result="BackgroundImageFix"/>
<feBlend mode="normal" in="SourceGraphic" in2="BackgroundImageFix" result="shape"/>
<feColorMatrix in="SourceAlpha" type="matrix" values="0 0 0 0 0 0 0 0 0 0 0 0 0 0 0 0 0 0 127 0" result="hardAlpha"/>
<feOffset dy="-9.23899"/>
<feGaussianBlur stdDeviation="6.59928"/>
<feComposite in2="hardAlpha" operator="arithmetic" k2="-1" k3="1"/>
<feColorMatrix type="matrix" values="0 0 0 0 0.380392 0 0 0 0 0.25098 0 0 0 0 0.607843 0 0 0 0.38 0"/>
<feBlend mode="normal" in2="shape" result="effect1_innerShadow_1574_9605"/>
</filter>
<filter id="filter1_i_1574_9605" x="54.1143" y="-9.23899" width="171.812" height="183.559" filterUnits="userSpaceOnUse" color-interpolation-filters="sRGB">
<feFlood flood-opacity="0" result="BackgroundImageFix"/>
<feBlend mode="normal" in="SourceGraphic" in2="BackgroundImageFix" result="shape"/>
<feColorMatrix in="SourceAlpha" type="matrix" values="0 0 0 0 0 0 0 0 0 0 0 0 0 0 0 0 0 0 127 0" result="hardAlpha"/>
<feOffset dy="-9.23899"/>
<feGaussianBlur stdDeviation="6.59928"/>
<feComposite in2="hardAlpha" operator="arithmetic" k2="-1" k3="1"/>
<feColorMatrix type="matrix" values="0 0 0 0 0.380392 0 0 0 0 0.25098 0 0 0 0 0.607843 0 0 0 0.38 0"/>
<feBlend mode="normal" in2="shape" result="effect1_innerShadow_1574_9605"/>
</filter>
<filter id="filter2_f_1574_9605" x="182.8" y="112.848" width="26.3972" height="26.3967" filterUnits="userSpaceOnUse" color-interpolation-filters="sRGB">
<feFlood flood-opacity="0" result="BackgroundImageFix"/>
<feBlend mode="normal" in="SourceGraphic" in2="BackgroundImageFix" result="shape"/>
<feGaussianBlur stdDeviation="2.63971" result="effect1_foregroundBlur_1574_9605"/>
</filter>
<filter id="filter3_f_1574_9605" x="73.2523" y="112.848" width="26.3972" height="26.3967" filterUnits="userSpaceOnUse" color-interpolation-filters="sRGB">
<feFlood flood-opacity="0" result="BackgroundImageFix"/>
<feBlend mode="normal" in="SourceGraphic" in2="BackgroundImageFix" result="shape"/>
<feGaussianBlur stdDeviation="2.63971" result="effect1_foregroundBlur_1574_9605"/>
</filter>
<linearGradient id="paint0_linear_1574_9605" x1="209.074" y1="0.36385" x2="181.668" y2="43.8997" gradientUnits="userSpaceOnUse">
<stop offset="0.137215" stop-color="#543291"/>
<stop offset="0.401763" stop-color="#A087CA"/>
<stop offset="1" stop-color="#A087CA"/>
</linearGradient>
<linearGradient id="paint1_linear_1574_9605" x1="74.7327" y1="-0.336338" x2="103.474" y2="41.8627" gradientUnits="userSpaceOnUse">
<stop offset="0.137215" stop-color="#543291"/>
<stop offset="0.401763" stop-color="#A087CA"/>
<stop offset="1" stop-color="#A087CA"/>
</linearGradient>
<linearGradient id="paint2_linear_1574_9605" x1="209.074" y1="0.36385" x2="181.668" y2="43.8997" gradientUnits="userSpaceOnUse">
<stop offset="0.137215" stop-color="#543291"/>
<stop offset="0.401763" stop-color="#A087CA"/>
<stop offset="1" stop-color="#A087CA"/>
</linearGradient>
<linearGradient id="paint3_linear_1574_9605" x1="74.7327" y1="-0.336338" x2="103.474" y2="41.8627" gradientUnits="userSpaceOnUse">
<stop offset="0.137215" stop-color="#543291"/>
<stop offset="0.401763" stop-color="#A087CA"/>
<stop offset="1" stop-color="#A087CA"/>
</linearGradient>
</defs>
</svg>
