<svg width="27" height="27" viewBox="0 0 27 27" fill="none" xmlns="http://www.w3.org/2000/svg">
<path d="M10.8364 24.1605C7.8185 25.6865 6.3101 26.4498 5.28986 25.7609C4.26962 25.0719 4.41412 23.3876 4.70203 20.0181L4.77644 19.146C4.85857 18.1882 4.89963 17.7092 4.75294 17.276C4.60624 16.8429 4.28664 16.5031 3.64746 15.8237L3.06703 15.2058C0.822006 12.8161 -0.299792 11.6225 0.0691322 10.3955C0.438407 9.17042 2.0549 8.7232 5.28824 7.83058L6.12465 7.60011C7.04268 7.34632 7.50314 7.21962 7.86867 6.92686C8.23494 6.63302 8.46679 6.20606 8.92976 5.35322L9.35118 4.57585C10.9825 1.5724 11.7973 0.0708509 13.0452 0.00218856C14.2931 -0.0664722 15.1486 1.3426 16.8575 4.1593L17.3013 4.88882C17.7862 5.68996 18.0293 6.08946 18.4032 6.3419C18.777 6.59435 19.2384 6.67064 20.1627 6.82108L21.0041 6.95948C24.2564 7.49295 25.8831 7.76005 26.2853 8.94145C26.6882 10.1265 25.5998 11.4432 23.4233 14.0786L22.8604 14.7588C22.2416 15.508 21.9322 15.8826 21.7983 16.3317C21.6615 16.7805 21.716 17.255 21.8243 18.2003L21.9223 19.0633C22.3031 22.3949 22.4922 24.0614 21.493 24.8628C20.4939 25.6641 18.9647 25.0691 15.91 23.8784L15.12 23.5709C14.252 23.2326 13.8185 23.0638 13.3609 23.0888C12.9032 23.1139 12.4753 23.3316 11.6175 23.7657L10.8364 24.1605Z" fill="#FFE031"/>
</svg>
