<svg width="24" height="24" viewBox="0 0 24 24" fill="none" xmlns="http://www.w3.org/2000/svg">
<path fill-rule="evenodd" clip-rule="evenodd" d="M11.7059 0C11.9603 5.24459e-05 12.2078 0.0829545 12.4108 0.236162C12.6139 0.38937 12.7615 0.604546 12.8314 0.849133L14.1004 5.29147C14.3736 6.24818 14.8862 7.11945 15.5898 7.82299C16.2933 8.52653 17.1646 9.03913 18.1213 9.31236L22.5636 10.5814C22.808 10.6514 23.023 10.7991 23.1761 11.0021C23.3291 11.2052 23.4119 11.4525 23.4119 11.7068C23.4119 11.9611 23.3291 12.2084 23.1761 12.4114C23.023 12.6145 22.808 12.7622 22.5636 12.8322L18.1213 14.1012C17.1646 14.3745 16.2933 14.8871 15.5898 15.5906C14.8862 16.2941 14.3736 17.1654 14.1004 18.1221L12.8314 22.5645C12.7613 22.8089 12.6136 23.0239 12.4106 23.1769C12.2076 23.33 11.9602 23.4127 11.7059 23.4127C11.4517 23.4127 11.2043 23.33 11.0013 23.1769C10.7983 23.0239 10.6506 22.8089 10.5805 22.5645L9.31152 18.1221C9.03829 17.1654 8.52569 16.2941 7.82215 15.5906C7.1186 14.8871 6.24733 14.3745 5.29063 14.1012L0.848289 12.8322C0.603859 12.7622 0.38887 12.6145 0.235825 12.4114C0.0827801 12.2084 0 11.9611 0 11.7068C0 11.4525 0.0827801 11.2052 0.235825 11.0021C0.38887 10.7991 0.603859 10.6514 0.848289 10.5814L5.29063 9.31236C6.24733 9.03913 7.1186 8.52653 7.82215 7.82299C8.52569 7.11945 9.03829 6.24818 9.31152 5.29147L10.5805 0.849133C10.6504 0.604546 10.798 0.38937 11.0011 0.236162C11.2041 0.0829545 11.4516 5.24459e-05 11.7059 0Z" fill="#FFE031"/>
</svg>
