<svg width="19" height="23" viewBox="0 0 19 23" fill="none" xmlns="http://www.w3.org/2000/svg">
<path d="M0.61154 12.6406C0.340436 17.9551 4.19962 22.1004 8.72651 22.3313C13.2534 22.5622 17.5144 18.8312 17.7855 13.5167C17.9365 10.5558 17.2707 8.93284 17.2707 8.93284C16.9818 8.79048 16.5536 8.5767 16.049 8.31929C14.8461 7.70555 13.2093 6.84379 11.992 6.11061L10.9622 5.45977C10.0725 4.86961 9.10127 4.16032 8.19149 3.46826L7.81016 3.60573C4.04114 4.39895 0.844633 8.07131 0.61154 12.6406Z" fill="black"/>
<path d="M7.81016 3.60573L8.01301 4.16841L7.97396 4.18249L7.93334 4.19104L7.81016 3.60573ZM18.6225 8.92397C18.921 9.06533 19.0485 9.42196 18.9071 9.72052C18.7657 10.0191 18.4091 10.1465 18.1105 10.0052L18.3665 9.46456L18.6225 8.92397ZM17.2707 8.93284L17.535 8.39631L17.535 8.39631L17.2707 8.93284ZM11.4428 5.77176L11.1227 6.27698L11.1227 6.27698L11.4428 5.77176ZM4.20965 1.05625C3.95686 0.843588 3.92434 0.466272 4.13699 0.213489C4.34965 -0.0392947 4.72697 -0.0718216 4.97975 0.140838L4.5947 0.598543L4.20965 1.05625ZM10.6476 5.96849C10.3666 5.79475 10.2797 5.42615 10.4534 5.14518C10.6272 4.86422 10.9958 4.7773 11.2767 4.95104L10.9622 5.45976L10.6476 5.96849ZM17.086 8.17322C17.3809 8.32223 17.4991 8.68202 17.3501 8.97684C17.201 9.27167 16.8412 9.38987 16.5464 9.24086L16.8162 8.70704L17.086 8.17322ZM0.61154 12.6406L1.20889 12.6711C0.953398 17.6796 4.58345 21.521 8.75698 21.7339L8.72651 22.3313L8.69603 22.9286C3.81579 22.6797 -0.272527 18.2306 0.014186 12.6102L0.61154 12.6406ZM8.72651 22.3313L8.75698 21.7339C12.9305 21.9468 16.9326 18.4948 17.1881 13.4863L17.7855 13.5167L18.3828 13.5472C18.0961 19.1676 13.5763 23.1776 8.69603 22.9286L8.72651 22.3313ZM7.81016 3.60573L7.93334 4.19104C4.45087 4.92395 1.42928 8.35097 1.20889 12.6711L0.61154 12.6406L0.014186 12.6102C0.25999 7.79165 3.6314 3.87394 7.68697 3.02042L7.81016 3.60573ZM18.3665 9.46456C18.1105 10.0052 18.1105 10.0052 18.1105 10.0051C18.1105 10.0051 18.1105 10.0051 18.1105 10.0051C18.1105 10.0051 18.1104 10.0051 18.1104 10.0051C18.1103 10.0051 18.1102 10.005 18.1101 10.005C18.1099 10.0048 18.1095 10.0047 18.1091 10.0045C18.1082 10.004 18.1069 10.0034 18.1051 10.0026C18.1017 10.001 18.0966 9.99856 18.09 9.9954C18.0767 9.98907 18.057 9.97973 18.0314 9.9675C17.9803 9.94306 17.9052 9.90712 17.8093 9.86089C17.6174 9.76842 17.3419 9.63472 17.0063 9.46937L17.2707 8.93284L17.535 8.39631C17.8671 8.55993 18.1395 8.69209 18.3286 8.78324C18.4232 8.82881 18.4969 8.86412 18.5469 8.88798C18.5719 8.8999 18.5909 8.90897 18.6036 8.91501C18.61 8.91804 18.6148 8.92031 18.6179 8.92181C18.6195 8.92256 18.6207 8.92311 18.6214 8.92347C18.6218 8.92365 18.6221 8.92378 18.6223 8.92387C18.6223 8.92391 18.6224 8.92394 18.6224 8.92395C18.6225 8.92396 18.6225 8.92397 18.6225 8.92397C18.6225 8.92397 18.6225 8.92397 18.6225 8.92397C18.6225 8.92397 18.6225 8.92397 18.3665 9.46456ZM17.7855 13.5167L17.1881 13.4863C17.2611 12.0564 17.1364 10.9583 16.9971 10.2262C16.9275 9.86005 16.8541 9.58518 16.7999 9.40599C16.7728 9.31639 16.7504 9.25071 16.7357 9.2095C16.7283 9.1889 16.7229 9.17442 16.7197 9.16612C16.7181 9.16197 16.7171 9.15937 16.7167 9.15833C16.7165 9.1578 16.7164 9.15767 16.7165 9.15793C16.7166 9.15805 16.7167 9.15828 16.7168 9.1586C16.7168 9.15877 16.7169 9.15895 16.717 9.15916C16.7171 9.15927 16.7171 9.15944 16.7171 9.1595C16.7172 9.15968 16.7173 9.15987 17.2707 8.93284C17.824 8.70582 17.8241 8.70602 17.8242 8.70623C17.8242 8.7063 17.8243 8.70652 17.8244 8.70667C17.8245 8.70698 17.8247 8.70732 17.8248 8.70768C17.8251 8.70839 17.8254 8.70921 17.8258 8.71013C17.8265 8.71197 17.8274 8.71421 17.8285 8.71685C17.8306 8.72213 17.8333 8.729 17.8365 8.73747C17.843 8.75439 17.8517 8.77766 17.8623 8.80722C17.8834 8.86634 17.9119 8.95059 17.9448 9.05941C18.0107 9.27705 18.0944 9.59299 18.1723 10.0027C18.3282 10.8223 18.4609 12.0161 18.3828 13.5472L17.7855 13.5167ZM11.4428 5.77176L11.1227 6.27698C10.9619 6.1751 10.7979 6.06854 10.6316 5.95821L10.9622 5.45977L11.2928 4.96132C11.453 5.06758 11.61 5.16958 11.763 5.26654L11.4428 5.77176ZM10.9622 5.45977L10.6316 5.95821C9.72685 5.35811 8.74432 4.6403 7.82936 3.94431L8.19149 3.46826L8.55361 2.99221C9.45822 3.68033 10.4181 4.38111 11.2928 4.96132L10.9622 5.45977ZM8.19149 3.46826L7.82936 3.94431C6.85404 3.2024 5.94969 2.48084 5.28955 1.9451C4.95933 1.6771 4.68985 1.45531 4.50271 1.30033C4.40914 1.22284 4.33613 1.16204 4.28639 1.1205C4.26152 1.09973 4.24247 1.08378 4.22956 1.07296C4.22311 1.06756 4.2182 1.06343 4.21486 1.06063C4.2132 1.05923 4.21193 1.05816 4.21105 1.05743C4.21062 1.05707 4.21028 1.05678 4.21005 1.05659C4.20993 1.05649 4.20984 1.05641 4.20977 1.05635C4.20974 1.05633 4.20971 1.0563 4.20969 1.05628C4.20966 1.05626 4.20965 1.05625 4.5947 0.598543C4.97975 0.140838 4.97975 0.140833 4.97975 0.140833C4.97976 0.14084 4.97976 0.140846 4.97978 0.14086C4.97981 0.140889 4.97987 0.140939 4.97996 0.14101C4.98013 0.141152 4.9804 0.141378 4.98077 0.141688C4.9815 0.142309 4.98264 0.143265 4.98417 0.144551C4.98724 0.147123 4.99187 0.151017 4.99805 0.156192C5.01039 0.166541 5.02888 0.182015 5.05316 0.202291C5.10172 0.242843 5.17347 0.3026 5.26571 0.37899C5.45021 0.531783 5.71661 0.751048 6.04338 1.01624C6.69722 1.54687 7.59126 2.26016 8.55361 2.99221L8.19149 3.46826ZM8.19149 3.46826L8.39434 4.03094L8.01301 4.16841L7.81016 3.60573L7.60731 3.04305L7.98864 2.90558L8.19149 3.46826ZM11.992 6.11061L11.6834 6.62299C11.4902 6.50663 11.3026 6.39103 11.1227 6.27698L11.4428 5.77176L11.763 5.26654C11.9343 5.3751 12.1141 5.48591 12.3006 5.59824L11.992 6.11061ZM11.992 6.11061L11.6725 6.61623L10.6426 5.96539L10.9622 5.45977L11.2817 4.95415L12.3116 5.60499L11.992 6.11061ZM10.9622 5.45977L10.6476 5.96849L10.6476 5.96849L10.9622 5.45976L11.2767 4.95104L11.2768 4.95104L10.9622 5.45977ZM17.2707 8.93284L17.0063 9.46937C16.7149 9.32577 16.2842 9.11075 15.7772 8.85208L16.049 8.31929L16.3209 7.78649C16.8229 8.04265 17.2486 8.25518 17.535 8.39631L17.2707 8.93284ZM16.049 8.31929L15.7772 8.85208C14.5721 8.23725 12.9197 7.3676 11.6834 6.62299L11.992 6.11061L12.3006 5.59824C13.4989 6.31998 15.1201 7.17385 16.3209 7.78649L16.049 8.31929ZM16.049 8.31929L16.3188 7.78546L17.086 8.17322L16.8162 8.70704L16.5464 9.24086L15.7792 8.85311L16.049 8.31929Z" fill="black"/>
</svg>
