<svg width="117" height="138" viewBox="0 0 117 138" fill="none" xmlns="http://www.w3.org/2000/svg">
<path fill-rule="evenodd" clip-rule="evenodd" d="M107.243 46.1217C108.73 46.2541 110.146 46.8186 111.317 47.7456C112.487 48.6726 113.362 49.9216 113.831 51.339L140.117 130.543C140.462 131.504 140.612 132.525 140.558 133.545C140.503 134.565 140.244 135.564 139.798 136.483C139.351 137.402 138.725 138.222 137.956 138.895C137.187 139.568 136.292 140.081 135.322 140.402C134.352 140.724 133.328 140.848 132.31 140.768C131.291 140.688 130.299 140.404 129.392 139.935C128.484 139.465 127.68 138.818 127.026 138.033C126.373 137.248 125.883 136.34 125.586 135.362L120.148 119.014L81.697 115.603L73.4869 130.741C72.5185 132.527 70.8803 133.854 68.9328 134.432C66.9853 135.01 64.8881 134.791 63.1024 133.822C61.3167 132.854 59.9889 131.215 59.411 129.268C58.8332 127.321 59.0526 125.223 60.0211 123.438L99.8381 50.0977C100.55 48.7851 101.631 47.7095 102.946 47.003C104.262 46.2966 105.755 45.9902 107.243 46.1217ZM89.6706 100.936L114.891 103.173L104.865 72.9287L89.6706 100.936ZM49.8336 0.0306305C51.8565 0.210074 53.7252 1.18574 55.0287 2.743C56.3322 4.30026 56.9637 6.31155 56.7842 8.33441L55.6466 21.1582C64.4622 22.1976 73.2174 23.6961 81.8768 25.6477C83.8582 26.0953 85.5807 27.3117 86.6652 29.0293C87.7498 30.7468 88.1076 32.8249 87.66 34.8063C87.2124 36.7877 85.996 38.5101 84.2785 39.5947C82.5609 40.6792 80.4829 41.0371 78.5015 40.5895C76.2912 40.0859 74.0712 39.6157 71.8414 39.1787C67.161 51.1964 60.754 62.4678 52.8224 72.6374C54.9618 75.9431 57.2484 79.1286 59.6824 82.1939C60.9483 83.7822 61.5313 85.8084 61.3032 87.8266C61.0752 89.8449 60.0547 91.6899 58.4664 92.9557C56.878 94.2216 54.8518 94.8046 52.8336 94.5766C50.8154 94.3485 48.9704 93.328 47.7045 91.7397C45.835 89.3909 44.0457 86.9794 42.3397 84.5093C33.1472 93.7769 22.6379 101.638 11.1511 107.838C9.36978 108.752 7.30156 108.931 5.38949 108.338C3.47741 107.745 1.87354 106.427 0.921455 104.666C-0.0306328 102.905 -0.25522 100.841 0.295801 98.9169C0.846821 96.9924 2.12963 95.3602 3.86943 94.3699C15.1512 88.2588 25.3649 80.3549 34.1113 70.9674C32.3758 67.6895 30.7785 64.3402 29.3236 60.9285C28.5284 59.0598 28.5082 56.9517 29.2673 55.0681C30.0264 53.1844 31.5027 51.6794 33.3715 50.8843C35.2402 50.0891 37.3483 50.0688 39.2319 50.828C41.1156 51.5871 42.6205 53.0634 43.4157 54.9322L44.6967 57.8234C49.2559 51.2581 53.1642 44.1739 56.3303 36.6753C42.4508 34.892 28.444 34.301 14.4637 34.9088C12.4344 35.0006 10.4518 34.2826 8.95197 32.9126C7.45214 31.5426 6.55796 29.633 6.46613 27.6037C6.37431 25.5745 7.09236 23.5919 8.46232 22.092C9.83229 20.5922 11.7419 19.698 13.7712 19.6062C22.5521 19.2167 31.4224 19.2827 40.3821 19.8042L41.5197 6.98032C41.6086 5.97784 41.8943 5.00274 42.3604 4.11076C42.8264 3.21878 43.4638 2.42743 44.236 1.78197C45.0081 1.13651 45.9 0.649607 46.8605 0.349096C47.821 0.0485849 48.8313 -0.0596336 49.8336 0.0306305Z" fill="#AA86E7" fill-opacity="0.08"/>
</svg>
